<?xml version="1.0" encoding="UTF-8"?>
<!DOCTYPE svg PUBLIC "-//W3C//DTD SVG 1.1//EN" "http://www.w3.org/Graphics/SVG/1.1/DTD/svg11.dtd">
<svg version="1.1" xmlns="http://www.w3.org/2000/svg" xmlns:xlink="http://www.w3.org/1999/xlink" x="0" y="0" width="500" height="500" viewBox="0, 0, 500, 500">
  <g id="Layer_1">
    <path d="M250,500 C388.071,500 500,388.071 500,250 C500,111.929 388.071,0 250,0 C111.929,0 0,111.929 0,250 C0,388.071 111.929,500 250,500 z" fill="#FFFFFF"/>
    <path d="M11.87,326.113 C44.491,430.664 141.658,498.63 250,500 C356.93,500.135 456.255,428.603 488.13,326.113 L11.87,326.113 z" fill="#DDDDDD"/>
    <path d="M351.5,364 z" fill="#DDDDDD"/>
    <path d="M173.556,411.062 L326.444,411.062 C331.179,411.062 334.949,407.239 334.949,402.556 C334.949,397.874 331.179,394.051 326.444,394.051 L173.556,394.051 C168.874,394.051 165.051,397.874 165.051,402.556 C165.051,407.239 168.874,411.062 173.556,411.062 z M173.556,411.062" fill="#FFFFFF"/>
    <path d="M207.525,377.093 L292.475,377.093 C297.168,377.093 300.98,373.27 300.98,368.587 C300.98,363.894 297.168,360.082 292.475,360.082 L207.525,360.082 C202.843,360.082 199.02,363.894 199.02,368.587 C199.02,373.27 202.843,377.093 207.525,377.093 z M207.525,377.093" fill="#FFFFFF"/>
    <path d="M182.062,428.02 L173.556,428.02 C168.874,428.02 165.051,431.843 165.051,436.525 C165.051,441.219 168.874,445.031 173.556,445.031 L182.062,445.031 C186.745,445.031 190.567,441.219 190.567,436.525 C190.567,431.843 186.745,428.02 182.062,428.02 z M182.062,428.02" fill="#FFFFFF"/>
    <path d="M233.042,428.02 L216.031,428.02 C211.348,428.02 207.525,431.843 207.525,436.525 C207.525,441.219 211.348,445.031 216.031,445.031 L233.042,445.031 C237.725,445.031 241.494,441.219 241.494,436.525 C241.494,431.843 237.725,428.02 233.042,428.02 z M233.042,428.02" fill="#FFFFFF"/>
    <path d="M275.517,428.02 L267.011,428.02 C262.318,428.02 258.506,431.843 258.506,436.525 C258.506,441.219 262.318,445.031 267.011,445.031 L275.517,445.031 C280.199,445.031 283.969,441.219 283.969,436.525 C283.969,431.843 280.199,428.02 275.517,428.02 z M275.517,428.02" fill="#FFFFFF"/>
    <path d="M326.444,428.02 L309.486,428.02 C304.792,428.02 300.98,431.843 300.98,436.525 C300.98,441.219 304.792,445.031 309.486,445.031 L326.444,445.031 C331.179,445.031 334.949,441.219 334.949,436.525 C334.949,431.843 331.179,428.02 326.444,428.02 z M326.444,428.02" fill="#FFFFFF"/>
    <path d="M349.419,326.113 C349.143,312.673 341.477,300.476 329.446,294.495 L287.799,273.236 C284.982,271.772 283.213,268.858 283.213,265.625 L283.213,252.89 C304.527,243.718 316.821,225.802 322.815,203.467 C331.822,200.663 338.466,192.347 338.466,182.416 L338.466,171.421 C338.466,162.939 333.548,155.605 326.531,151.93 C321.683,110.339 294.167,93.557 250.021,93.557 C247.921,93.557 245.863,93.612 243.874,93.764 C228.873,94.952 213.706,92.148 201.192,83.735 C196.012,80.227 191.647,76.497 188.567,72.616 C187.158,70.834 184.354,71.967 184.63,74.232 C185.058,78.072 185.707,82.603 186.674,87.506 C190.348,105.85 188.194,103.212 181.066,120.478 C177.185,130.078 174.643,140.659 173.455,151.93 C166.493,155.66 161.645,162.939 161.645,171.421 L161.645,182.416 C161.645,192.347 168.275,200.663 177.295,203.467 C183.221,225.802 195.528,243.718 216.897,252.89 L216.897,265.57 C216.897,268.802 215.06,271.772 212.145,273.181 L169.463,294.218 C157.805,300.531 150.581,312.783 150.581,326.002 L150.581,326.113 z M349.419,326.113" fill="#ABABAB"/>
  </g>
</svg>
