<?xml version="1.0" encoding="UTF-8"?>
<!DOCTYPE svg PUBLIC "-//W3C//DTD SVG 1.1//EN" "http://www.w3.org/Graphics/SVG/1.1/DTD/svg11.dtd">
<svg version="1.1" xmlns="http://www.w3.org/2000/svg" xmlns:xlink="http://www.w3.org/1999/xlink" x="0" y="0" width="200" height="200" viewBox="0, 0, 200, 200">
  <defs>
    <linearGradient id="Gradient_1" gradientUnits="userSpaceOnUse" x1="144.759" y1="76.491" x2="62.546" y2="122.925">
      <stop offset="0" stop-color="#2B5E7C" stop-opacity="0.514"/>
      <stop offset="1" stop-color="#2B5E7C"/>
    </linearGradient>
  </defs>
  <g id="Layer_1">
    <g>
      <path d="M152.705,125.372 L142.267,135.81 L142.267,128.616 C142.267,126.487 140.54,124.76 138.411,124.76 L130.699,124.76 C128.569,124.76 126.843,126.487 126.843,128.616 L126.843,140.185 L118.439,140.185 L54.69,76.437 C53.672,75.442 53.251,73.986 53.582,72.601 C53.871,71.336 54.813,70.322 56.053,69.939 L89.13,59.404 C90.582,58.967 92.156,59.369 93.222,60.447 L152.705,119.92 C154.21,121.425 154.21,123.866 152.705,125.372 z M152.705,125.372" fill="url(#Gradient_1)"/>
      <g id="Group">
        <path d="M165.887,70.57 L165.887,70.57 C166.595,70.57 167.17,71.144 167.17,71.853 L167.17,76.929 C167.17,77.637 166.595,78.212 165.887,78.212 L165.887,78.212 C165.178,78.212 164.604,77.637 164.604,76.929 L164.604,71.853 C164.604,71.144 165.178,70.57 165.887,70.57 z" fill="#D8D8D8" id="Rectangle-2"/>
        <path d="M169.708,74.391 L169.708,74.391 C169.708,75.099 169.133,75.674 168.425,75.674 L163.348,75.674 C162.64,75.674 162.065,75.099 162.065,74.391 L162.065,74.391 C162.065,73.682 162.64,73.108 163.348,73.108 L168.425,73.108 C169.133,73.108 169.708,73.682 169.708,74.391 z" fill="#D8D8D8" id="Rectangle-2"/>
      </g>
      <g id="Group">
        <path d="M83.22,32.57 L83.22,32.57 C83.928,32.57 84.503,33.144 84.503,33.853 L84.503,38.929 C84.503,39.637 83.928,40.212 83.22,40.212 L83.22,40.212 C82.511,40.212 81.937,39.637 81.937,38.929 L81.937,33.853 C81.937,33.144 82.511,32.57 83.22,32.57 z" fill="#D8D8D8" id="Rectangle-2"/>
        <path d="M87.041,36.391 L87.041,36.391 C87.041,37.099 86.466,37.674 85.758,37.674 L80.682,37.674 C79.973,37.674 79.399,37.099 79.399,36.391 L79.399,36.391 C79.399,35.682 79.973,35.108 80.682,35.108 L85.758,35.108 C86.466,35.108 87.041,35.682 87.041,36.391 z" fill="#D8D8D8" id="Rectangle-2"/>
      </g>
      <g id="Group">
        <path d="M20.11,91.904 L20.11,91.904 C20.611,91.403 21.423,91.403 21.924,91.904 L24.717,94.697 C25.218,95.198 25.218,96.01 24.717,96.511 L24.717,96.511 C24.216,97.013 23.404,97.013 22.902,96.511 L20.11,93.719 C19.609,93.218 19.609,92.405 20.11,91.904 z" fill="#D8D8D8" id="Rectangle-2"/>
        <path d="M24.698,91.885 L24.698,91.885 C25.199,92.386 25.199,93.198 24.698,93.699 L21.905,96.492 C21.404,96.993 20.591,96.993 20.09,96.492 L20.09,96.492 C19.589,95.991 19.589,95.179 20.09,94.677 L22.883,91.885 C23.384,91.384 24.196,91.384 24.698,91.885 z" fill="#D8D8D8" id="Rectangle-2"/>
      </g>
      <g id="Group">
        <path d="M163.593,126.841 L163.593,126.841 C164.094,126.34 164.906,126.34 165.407,126.841 L168.2,129.634 C168.701,130.135 168.701,130.947 168.2,131.449 L168.2,131.449 C167.699,131.95 166.886,131.95 166.385,131.449 L163.593,128.656 C163.092,128.155 163.092,127.342 163.593,126.841 z" fill="#D8D8D8" id="Rectangle-2"/>
        <path d="M168.18,126.822 L168.18,126.822 C168.682,127.323 168.682,128.135 168.18,128.636 L165.388,131.429 C164.887,131.93 164.074,131.93 163.573,131.429 L163.573,131.429 C163.072,130.928 163.072,130.116 163.573,129.615 L166.366,126.822 C166.867,126.321 167.679,126.321 168.18,126.822 z" fill="#D8D8D8" id="Rectangle-2"/>
      </g>
      <path d="M73.479,58.559 C73.479,59.966 72.33,61.107 70.913,61.107 C69.496,61.107 68.347,59.966 68.347,58.559 C68.347,57.152 69.496,56.012 70.913,56.012 C72.33,56.012 73.479,57.152 73.479,58.559 z" fill="#D8D8D8" id="Oval-2"/>
      <path d="M45.279,73.117 C45.279,74.524 44.13,75.664 42.713,75.664 C41.296,75.664 40.147,74.524 40.147,73.117 C40.147,71.71 41.296,70.57 42.713,70.57 C44.13,70.57 45.279,71.71 45.279,73.117 z" fill="#D8D8D8" id="Oval-2"/>
      <path d="M121.881,46.006 C121.881,47.212 120.903,48.19 119.697,48.19 C118.491,48.19 117.513,47.212 117.513,46.006 C117.513,44.799 118.491,43.822 119.697,43.822 C120.903,43.822 121.881,44.799 121.881,46.006 z" fill="#D8D8D8" id="Oval-3"/>
      <path d="M179.618,52.131 C179.618,53.337 178.64,54.315 177.434,54.315 C176.228,54.315 175.25,53.337 175.25,52.131 C175.25,50.924 176.228,49.947 177.434,49.947 C178.64,49.947 179.618,50.924 179.618,52.131 z" fill="#D8D8D8" id="Oval-3"/>
      <path d="M55.653,51.464 C55.653,52.67 54.675,53.648 53.469,53.648 C52.263,53.648 51.285,52.67 51.285,51.464 C51.285,50.258 52.263,49.28 53.469,49.28 C54.675,49.28 55.653,50.258 55.653,51.464 z" fill="#D8D8D8" id="Oval-3"/>
      <path d="M148.279,59.419 C148.206,60.824 146.999,61.904 145.584,61.83 C144.169,61.757 143.081,60.558 143.154,59.153 C143.227,57.748 144.433,56.669 145.848,56.742 C147.264,56.816 148.352,58.014 148.279,59.419 z" fill-opacity="0" stroke="#D8D8D8" stroke-width="1" id="Oval"/>
      <path d="M158.529,30.919 C158.456,32.324 157.249,33.404 155.834,33.33 C154.419,33.257 153.331,32.058 153.404,30.653 C153.477,29.248 154.683,28.169 156.098,28.242 C157.514,28.316 158.602,29.514 158.529,30.919 z" fill-opacity="0" stroke="#D8D8D8" stroke-width="1" id="Oval"/>
      <path d="M180,98.591 C180,99.998 178.851,101.139 177.434,101.139 C176.017,101.139 174.868,99.998 174.868,98.591 C174.868,97.184 176.017,96.044 177.434,96.044 C178.851,96.044 180,97.184 180,98.591 z" fill-opacity="0" stroke="#D8D8D8" stroke-width="1" id="Oval"/>
      <path d="M33.675,134.336 L36.157,136.819 L38.669,134.307 L36.187,131.824 L33.675,134.336 z" fill-opacity="0" stroke="#D8D8D8" stroke-width="1" id="Rectangle-3"/>
      <path d="M25.093,41.339 L27.575,43.822 L30.087,41.31 L27.605,38.827 L25.093,41.339 z" fill-opacity="0" stroke="#D8D8D8" stroke-width="1" id="Rectangle-3"/>
      <path d="M104.993,77.625 C104.24,76.871 103.019,76.871 102.266,77.624 C101.513,78.377 101.512,79.597 102.265,80.351 L109.082,87.168 C109.838,87.921 111.06,87.918 111.812,87.163 C112.564,86.407 112.561,85.185 111.806,84.433 z M104.993,77.625" fill="#FFFFFF"/>
      <path d="M91.206,63.838 C90.694,63.326 89.939,63.142 89.249,63.364 L85.114,64.681 C84.098,65.005 83.538,66.091 83.861,67.105 C84.184,68.12 85.27,68.682 86.286,68.358 L89.301,67.394 L94.086,72.171 C94.57,72.673 95.287,72.874 95.961,72.697 C96.636,72.521 97.162,71.994 97.338,71.32 C97.515,70.646 97.314,69.929 96.812,69.445 z M91.206,63.838" fill="#FFFFFF"/>
      <path d="M66.417,138.415 L60.964,143.87 C60.463,144.353 60.262,145.07 60.438,145.744 C60.615,146.419 61.142,146.945 61.816,147.121 C62.489,147.298 63.207,147.096 63.69,146.595 L69.143,141.143 C69.896,140.391 69.897,139.169 69.144,138.416 C68.391,137.663 67.17,137.662 66.417,138.415 z M66.417,138.415" fill="#444444"/>
      <path d="M54.147,150.686 L51.421,153.412 C49.162,155.671 49.162,159.332 51.421,161.591 C51.904,162.092 52.621,162.293 53.295,162.116 C53.97,161.94 54.496,161.414 54.672,160.739 C54.849,160.066 54.648,159.348 54.147,158.865 C53.394,158.112 53.394,156.891 54.147,156.139 L56.873,153.412 C57.374,152.928 57.575,152.211 57.398,151.537 C57.222,150.863 56.696,150.338 56.022,150.161 C55.347,149.984 54.631,150.186 54.147,150.686 z M54.147,150.686" fill="#444444"/>
      <path d="M157.69,122.606 C157.695,120.56 156.882,118.596 155.432,117.153 L135.187,96.911 L136.152,95.947 C139.163,92.935 139.163,88.052 136.152,85.04 L127.973,76.862 C124.92,73.953 120.12,73.953 117.067,76.862 L116.104,77.825 L95.949,57.678 C93.871,55.565 90.787,54.796 87.961,55.684 L54.881,66.229 C52.359,67.025 50.44,69.086 49.828,71.659 C49.177,74.351 49.988,77.188 51.965,79.129 L83.39,110.546 L45.967,147.961 C40.696,153.231 40.696,161.776 45.967,167.047 C51.237,172.318 59.782,172.318 65.053,167.047 L102.467,129.63 L113.456,140.619 C112.205,141.286 111.423,142.589 111.421,144.007 L111.421,151.718 C111.421,153.847 113.147,155.574 115.277,155.574 L126.844,155.574 L126.844,167.141 C126.844,169.271 128.57,170.997 130.699,170.997 L138.411,170.997 C140.541,170.997 142.267,169.271 142.267,167.141 L142.267,155.574 L153.835,155.574 C155.965,155.574 157.69,153.847 157.69,151.718 L157.69,144.007 C157.69,141.877 155.965,140.151 153.835,140.151 L143.347,140.151 L155.432,128.064 C156.885,126.62 157.699,124.655 157.69,122.606 z M118.825,80.553 L119.789,79.59 C121.315,78.133 123.718,78.133 125.244,79.59 L133.421,87.768 C134.928,89.274 134.928,91.716 133.421,93.223 L132.457,94.186 z M62.336,164.317 C59.906,166.771 56.347,167.735 53.01,166.847 C49.672,165.958 47.064,163.352 46.175,160.014 C45.285,156.677 46.249,153.118 48.702,150.686 L86.108,113.273 L99.741,126.904 z M153.835,151.718 L142.267,151.718 C140.137,151.718 138.411,153.444 138.411,155.574 L138.411,167.141 L130.699,167.141 L130.699,155.574 C130.699,153.444 128.973,151.718 126.844,151.718 L115.277,151.718 L115.277,144.007 L126.844,144.007 C128.973,144.007 130.699,142.281 130.699,140.151 L130.699,128.582 L138.411,128.582 L138.411,140.151 C138.411,140.297 138.425,140.444 138.455,140.588 C138.677,142.529 140.314,143.996 142.267,144.007 L153.835,144.007 z M152.705,125.338 L142.267,135.776 L142.267,128.582 C142.267,126.453 140.541,124.726 138.411,124.726 L130.699,124.726 C128.57,124.726 126.844,126.453 126.844,128.582 L126.844,140.151 L118.44,140.151 L54.691,76.403 C53.672,75.408 53.251,73.952 53.582,72.567 C53.872,71.302 54.813,70.287 56.053,69.904 L89.131,59.37 C90.583,58.933 92.156,59.335 93.222,60.412 L152.705,119.886 C154.211,121.391 154.211,123.832 152.705,125.338 z M152.705,125.338" fill="#444444"/>
    </g>
  </g>
</svg>
