<?xml version="1.0" encoding="UTF-8"?>
<!DOCTYPE svg PUBLIC "-//W3C//DTD SVG 1.1//EN" "http://www.w3.org/Graphics/SVG/1.1/DTD/svg11.dtd">
<svg version="1.1" xmlns="http://www.w3.org/2000/svg" xmlns:xlink="http://www.w3.org/1999/xlink" x="0" y="0" width="200" height="200" viewBox="0, 0, 200, 200">
  <defs>
    <linearGradient id="Gradient_1" gradientUnits="userSpaceOnUse" x1="96.56" y1="115.803" x2="50.967" y2="151.036">
      <stop offset="0" stop-color="#2B5E7C" stop-opacity="0.514"/>
      <stop offset="1" stop-color="#2B5E7C"/>
    </linearGradient>
    <linearGradient id="Gradient_2" gradientUnits="userSpaceOnUse" x1="-173.205" y1="-149.805" x2="-246.709" y2="-116.72">
      <stop offset="0" stop-color="#2B5E7C" stop-opacity="0.514"/>
      <stop offset="1" stop-color="#2B5E7C"/>
    </linearGradient>
    <linearGradient id="Gradient_3" gradientUnits="userSpaceOnUse" x1="-32.193" y1="66.146" x2="-64.723" y2="99.24" gradientTransform="matrix(-0.707, 0.707, -0.707, -0.707, 0, 0)">
      <stop offset="0" stop-color="#2B5E7C" stop-opacity="0.514"/>
      <stop offset="1" stop-color="#2B5E7C"/>
    </linearGradient>
    <linearGradient id="Gradient_4" gradientUnits="userSpaceOnUse" x1="421.975" y1="-113.664" x2="452.192" y2="-84.981">
      <stop offset="0" stop-color="#2B5E7C" stop-opacity="0.514"/>
      <stop offset="1" stop-color="#2B5E7C"/>
    </linearGradient>
    <linearGradient id="Gradient_5" gradientUnits="userSpaceOnUse" x1="580.921" y1="-118.645" x2="659.555" y2="-111.645">
      <stop offset="0" stop-color="#2B5E7C" stop-opacity="0.514"/>
      <stop offset="1" stop-color="#2B5E7C"/>
    </linearGradient>
    <clipPath id="Clip_1">
      <path d="M43.051,52.459 L161.528,52.459 L161.528,167.475 L43.051,167.475 z"/>
    </clipPath>
  </defs>
  <g id="Layer_1">
    <path d="M45.934,148.83 C45.934,148.83 45.934,117.785 45.934,117.785 C45.934,117.785 73.209,102.706 73.209,102.706 C73.209,102.706 100.006,117.342 100.006,117.342 C100.006,117.342 101.593,148.83 101.593,148.83 C101.593,148.83 74.096,164.353 74.096,164.131" fill="url(#Gradient_1)"/>
    <path d="M-212.296,45.814 L-71.837,45.814 C-67.509,45.814 -64,49.323 -64,53.651 L-64,194.11 C-64,198.438 -67.509,201.947 -71.837,201.947 L-212.296,201.947 C-216.624,201.947 -220.133,198.438 -220.133,194.11 L-220.133,53.651 C-220.133,49.323 -216.624,45.814 -212.296,45.814 z" fill="#FFFFFF"/>
    <g>
      <path d="M-208.185,138.322 L-208.185,135.568 Q-208.185,131.859 -205.623,129.443 L-181.326,106.795 Q-179.832,105.502 -178.7,106.261 Q-177.569,107.019 -177.569,109.099 L-177.569,118.765 Q-177.569,122.924 -181.326,126.352 L-192.685,136.917 L-181.326,147.539 Q-177.569,150.967 -177.569,155.125 L-177.569,164.791 Q-177.569,166.871 -178.7,167.601 Q-179.832,168.332 -181.326,167.096 L-205.623,144.391 Q-208.185,142.031 -208.185,138.322 z" fill="#1D1D1F"/>
      <path d="M-160.35,101.077 L-160.35,73.822 Q-160.35,73.26 -159.653,72.897 Q-158.955,72.533 -157.919,72.533 L-148.991,72.533 Q-147.955,72.533 -147.257,72.897 Q-146.56,73.26 -146.56,73.822 L-146.56,101.077 Q-146.56,101.618 -147.257,101.982 Q-147.955,102.345 -148.991,102.345 L-157.919,102.345 Q-158.955,102.345 -159.653,101.982 Q-160.35,101.618 -160.35,101.077 z" fill="#1D1D1F"/>
      <path d="M-146.56,108.099 L-146.56,165.719 Q-146.56,166.657 -147.307,167.265 Q-148.054,167.873 -149.207,167.873 L-170.984,167.873 Q-172.094,167.873 -172.842,167.265 Q-173.589,166.657 -173.589,165.719 L-173.589,156.011 Q-173.589,155.073 -172.842,154.465 Q-172.094,153.857 -170.984,153.857 L-160.48,153.857 L-160.48,120.343 L-170.984,120.343 Q-172.094,120.343 -172.842,119.736 Q-173.589,119.128 -173.589,118.225 L-173.589,108.099 Q-173.589,107.196 -172.842,106.588 Q-172.094,105.98 -170.984,105.98 L-149.207,105.98 Q-148.054,105.98 -147.307,106.588 Q-146.56,107.196 -146.56,108.099 z" fill="#1D1D1F"/>
    </g>
    <g>
      <path d="M-106.564,138.226 L-106.564,135.472 Q-106.564,131.763 -104.002,129.346 L-79.706,106.698 Q-78.212,105.406 -77.08,106.164 Q-75.949,106.923 -75.949,109.002 L-75.949,118.668 Q-75.949,122.827 -79.706,126.255 L-91.064,136.821 L-79.706,147.442 Q-75.949,150.87 -75.949,155.029 L-75.949,164.695 Q-75.949,166.774 -77.08,167.505 Q-78.212,168.235 -79.706,166.999 L-104.002,144.295 Q-106.564,141.935 -106.564,138.226 z" fill="#2C5E7C"/>
      <path d="M-108.132,135.531 L-108.132,138.285 Q-108.132,141.994 -110.694,144.41 L-134.99,167.058 Q-136.484,168.351 -137.616,167.592 Q-138.748,166.833 -138.748,164.754 L-138.748,155.088 Q-138.748,150.929 -134.99,147.501 L-123.632,136.936 L-134.99,126.314 Q-138.748,122.886 -138.748,118.728 L-138.748,109.061 Q-138.748,106.982 -137.616,106.252 Q-136.484,105.521 -134.99,106.757 L-110.694,129.461 Q-108.132,131.822 -108.132,135.531 z" fill="#2C5E7C"/>
    </g>
    <g>
      <path d="M-176.343,-139.358 C-177.188,-153.787 -189.081,-165.313 -203.407,-165.313 C-212.109,-165.313 -220.536,-161.048 -225.764,-154.085 C-225.88,-154.147 -226.006,-154.185 -226.13,-154.249 C-226.443,-154.398 -226.765,-154.546 -227.094,-154.678 C-227.28,-154.75 -227.46,-154.812 -227.649,-154.882 C-227.969,-154.993 -228.298,-155.093 -228.634,-155.187 C-228.823,-155.235 -229.003,-155.289 -229.191,-155.329 C-229.55,-155.407 -229.918,-155.469 -230.293,-155.523 C-230.449,-155.556 -230.613,-155.588 -230.78,-155.602 C-231.311,-155.658 -231.843,-155.696 -232.39,-155.696 C-240.349,-155.696 -246.811,-149.226 -246.811,-141.275 C-246.811,-141.071 -246.805,-140.869 -246.789,-140.672 L-246.789,-140.664 C-253.455,-137.027 -258.032,-129.421 -258.032,-121.799 C-258.032,-110.445 -248.8,-101.213 -237.446,-101.213 L-198.173,-101.213 C-198.009,-101.213 -197.844,-101.221 -197.672,-101.237 L-197.578,-101.253 L-197.36,-101.237 C-197.195,-101.221 -197.031,-101.213 -196.867,-101.213 L-181.154,-101.213 C-170.528,-101.213 -161.882,-109.858 -161.882,-120.485 C-161.882,-129.281 -168.016,-137.175 -176.343,-139.358 z M-181.154,-104.422 L-196.867,-104.422 C-196.961,-104.422 -197.055,-104.428 -197.147,-104.428 L-197.578,-104.452 L-197.898,-104.428 C-197.985,-104.428 -198.079,-104.422 -198.173,-104.422 L-237.446,-104.422 C-247.031,-104.422 -254.823,-112.214 -254.823,-121.799 C-254.823,-128.459 -250.488,-135.368 -244.519,-138.231 L-243.612,-138.661 L-243.612,-139.671 C-243.612,-139.875 -243.596,-140.085 -243.588,-140.29 L-243.572,-140.548 L-243.588,-140.885 C-243.604,-141.017 -243.612,-141.143 -243.612,-141.275 C-243.612,-147.457 -238.58,-152.497 -232.39,-152.497 C-231.897,-152.497 -231.405,-152.449 -230.92,-152.387 C-230.794,-152.371 -230.67,-152.347 -230.551,-152.333 C-230.121,-152.252 -229.698,-152.168 -229.283,-152.042 C-229.229,-152.026 -229.175,-152.018 -229.111,-152.002 C-228.658,-151.862 -228.212,-151.682 -227.775,-151.487 C-227.665,-151.431 -227.555,-151.377 -227.438,-151.323 C-227.054,-151.135 -226.679,-150.922 -226.319,-150.688 C-223.228,-148.693 -221.179,-145.219 -221.179,-141.275 C-221.179,-140.392 -220.458,-139.671 -219.574,-139.671 C-218.689,-139.671 -217.97,-140.392 -217.97,-141.275 C-217.97,-145.688 -219.965,-149.64 -223.096,-152.284 C-218.503,-158.294 -210.935,-162.104 -203.407,-162.104 C-190.998,-162.104 -180.694,-152.276 -179.62,-139.851 C-181.256,-139.969 -183.706,-140.023 -186.162,-139.655 C-187.039,-139.523 -187.632,-138.701 -187.5,-137.824 C-187.382,-137.035 -186.703,-136.464 -185.92,-136.464 C-185.842,-136.464 -185.763,-136.472 -185.677,-136.486 C-182.11,-137.027 -178.392,-136.518 -178.174,-136.486 C-170.708,-135.07 -165.091,-128.201 -165.091,-120.485 C-165.091,-111.627 -172.296,-104.422 -181.154,-104.422 z M-181.154,-104.422" fill="#444444"/>
      <g id="Group">
        <path d="M-143.971,-155.558 L-143.971,-155.558 C-143.262,-155.558 -142.688,-154.983 -142.688,-154.275 L-142.688,-149.198 C-142.688,-148.49 -143.262,-147.915 -143.971,-147.915 L-143.971,-147.915 C-144.679,-147.915 -145.254,-148.49 -145.254,-149.198 L-145.254,-154.275 C-145.254,-154.983 -144.679,-155.558 -143.971,-155.558 z" fill="#D8D8D8" id="Rectangle-2"/>
        <path d="M-140.15,-151.737 L-140.15,-151.737 C-140.15,-151.028 -140.724,-150.454 -141.433,-150.454 L-146.509,-150.454 C-147.217,-150.454 -147.792,-151.028 -147.792,-151.737 L-147.792,-151.737 C-147.792,-152.445 -147.217,-153.02 -146.509,-153.02 L-141.433,-153.02 C-140.724,-153.02 -140.15,-152.445 -140.15,-151.737 z" fill="#D8D8D8" id="Rectangle-2"/>
      </g>
      <g id="Group">
        <path d="M-226.637,-193.558 L-226.637,-193.558 C-225.929,-193.558 -225.354,-192.983 -225.354,-192.275 L-225.354,-187.198 C-225.354,-186.49 -225.929,-185.915 -226.637,-185.915 L-226.637,-185.915 C-227.346,-185.915 -227.921,-186.49 -227.921,-187.198 L-227.921,-192.275 C-227.921,-192.983 -227.346,-193.558 -226.637,-193.558 z" fill="#D8D8D8" id="Rectangle-2"/>
        <path d="M-222.816,-189.737 L-222.816,-189.737 C-222.816,-189.028 -223.391,-188.454 -224.099,-188.454 L-229.176,-188.454 C-229.884,-188.454 -230.459,-189.028 -230.459,-189.737 L-230.459,-189.737 C-230.459,-190.445 -229.884,-191.02 -229.176,-191.02 L-224.099,-191.02 C-223.391,-191.02 -222.816,-190.445 -222.816,-189.737 z" fill="#D8D8D8" id="Rectangle-2"/>
      </g>
      <g id="Group">
        <path d="M-289.747,-134.223 L-289.747,-134.223 C-289.246,-134.724 -288.434,-134.724 -287.933,-134.223 L-285.14,-131.43 C-284.639,-130.929 -284.639,-130.117 -285.14,-129.616 L-285.14,-129.616 C-285.641,-129.115 -286.454,-129.115 -286.955,-129.616 L-289.747,-132.409 C-290.249,-132.91 -290.249,-133.722 -289.747,-134.223 z" fill="#D8D8D8" id="Rectangle-2"/>
        <path d="M-285.16,-134.242 L-285.16,-134.242 C-284.659,-133.741 -284.659,-132.929 -285.16,-132.428 L-287.952,-129.635 C-288.453,-129.134 -289.266,-129.134 -289.767,-129.635 L-289.767,-129.635 C-290.268,-130.136 -290.268,-130.949 -289.767,-131.45 L-286.974,-134.242 C-286.473,-134.744 -285.661,-134.744 -285.16,-134.242 z" fill="#D8D8D8" id="Rectangle-2"/>
      </g>
      <g id="Group">
        <path d="M-146.265,-99.286 L-146.265,-99.286 C-145.764,-99.787 -144.951,-99.787 -144.45,-99.286 L-141.657,-96.493 C-141.156,-95.992 -141.156,-95.18 -141.657,-94.679 L-141.657,-94.679 C-142.158,-94.178 -142.971,-94.178 -143.472,-94.679 L-146.265,-97.471 C-146.766,-97.973 -146.766,-98.785 -146.265,-99.286 z" fill="#D8D8D8" id="Rectangle-2"/>
        <path d="M-141.677,-99.305 L-141.677,-99.305 C-141.176,-98.804 -141.176,-97.992 -141.677,-97.491 L-144.47,-94.698 C-144.971,-94.197 -145.783,-94.197 -146.284,-94.698 L-146.284,-94.698 C-146.785,-95.199 -146.785,-96.012 -146.284,-96.513 L-143.491,-99.305 C-142.99,-99.806 -142.178,-99.806 -141.677,-99.305 z" fill="#D8D8D8" id="Rectangle-2"/>
      </g>
      <path d="M-236.378,-167.568 C-236.378,-166.161 -237.527,-165.021 -238.944,-165.021 C-240.362,-165.021 -241.51,-166.161 -241.51,-167.568 C-241.51,-168.975 -240.362,-170.115 -238.944,-170.115 C-237.527,-170.115 -236.378,-168.975 -236.378,-167.568 z" fill="#D8D8D8" id="Oval-2"/>
      <path d="M-264.578,-153.01 C-264.578,-151.603 -265.727,-150.463 -267.144,-150.463 C-268.562,-150.463 -269.71,-151.603 -269.71,-153.01 C-269.71,-154.417 -268.562,-155.558 -267.144,-155.558 C-265.727,-155.558 -264.578,-154.417 -264.578,-153.01 z" fill="#D8D8D8" id="Oval-2"/>
      <path d="M-187.976,-180.122 C-187.976,-178.916 -188.954,-177.938 -190.16,-177.938 C-191.367,-177.938 -192.344,-178.916 -192.344,-180.122 C-192.344,-181.328 -191.367,-182.306 -190.16,-182.306 C-188.954,-182.306 -187.976,-181.328 -187.976,-180.122 z" fill="#D8D8D8" id="Oval-3"/>
      <path d="M-130.239,-173.997 C-130.239,-172.791 -131.217,-171.813 -132.423,-171.813 C-133.63,-171.813 -134.607,-172.791 -134.607,-173.997 C-134.607,-175.203 -133.63,-176.181 -132.423,-176.181 C-131.217,-176.181 -130.239,-175.203 -130.239,-173.997 z" fill="#D8D8D8" id="Oval-3"/>
      <path d="M-254.204,-174.663 C-254.204,-173.457 -255.182,-172.479 -256.388,-172.479 C-257.594,-172.479 -258.572,-173.457 -258.572,-174.663 C-258.572,-175.87 -257.594,-176.847 -256.388,-176.847 C-255.182,-176.847 -254.204,-175.87 -254.204,-174.663 z" fill="#D8D8D8" id="Oval-3"/>
      <path d="M-161.078,-166.208 C-161.151,-164.803 -162.358,-163.724 -163.773,-163.797 C-165.189,-163.871 -166.277,-165.069 -166.204,-166.474 C-166.131,-167.879 -164.924,-168.959 -163.509,-168.885 C-162.094,-168.812 -161.005,-167.613 -161.078,-166.208 z" fill-opacity="0" stroke="#D8D8D8" stroke-width="1" id="Oval"/>
      <path d="M-150.828,-194.708 C-150.901,-193.303 -152.108,-192.224 -153.523,-192.297 C-154.939,-192.371 -156.027,-193.569 -155.954,-194.974 C-155.881,-196.379 -154.674,-197.459 -153.259,-197.385 C-151.844,-197.312 -150.755,-196.113 -150.828,-194.708 z" fill-opacity="0" stroke="#D8D8D8" stroke-width="1" id="Oval"/>
      <path d="M-129.357,-127.036 C-129.357,-125.629 -130.506,-124.489 -131.923,-124.489 C-133.341,-124.489 -134.489,-125.629 -134.489,-127.036 C-134.489,-128.443 -133.341,-129.583 -131.923,-129.583 C-130.506,-129.583 -129.357,-128.443 -129.357,-127.036 z" fill-opacity="0" stroke="#D8D8D8" stroke-width="1" id="Oval"/>
      <path d="M-275.683,-91.291 L-273.2,-88.808 L-270.688,-91.32 L-273.17,-93.803 L-275.683,-91.291 z" fill-opacity="0" stroke="#D8D8D8" stroke-width="1" id="Rectangle-3"/>
      <path d="M-284.264,-184.288 L-281.782,-181.806 L-279.27,-184.318 L-281.752,-186.8 L-284.264,-184.288 z" fill-opacity="0" stroke="#D8D8D8" stroke-width="1" id="Rectangle-3"/>
      <g>
        <path d="M-254.028,-95.163 L-232.58,-95.163 C-230.386,-95.163 -228.608,-93.367 -228.608,-91.151 L-228.608,-53.623 C-228.608,-51.407 -230.386,-49.611 -232.58,-49.611 L-254.028,-49.611 C-256.221,-49.611 -258,-51.407 -258,-53.623 L-258,-91.151 C-258,-93.367 -256.221,-95.163 -254.028,-95.163 z" fill-opacity="0" stroke="#444444" stroke-width="3"/>
        <path d="M-252.213,-85.768 L-234.909,-85.768" fill-opacity="0" stroke="#AAAAAA" stroke-width="3" stroke-linecap="round"/>
        <path d="M-252.213,-78.28 L-239.357,-78.28" fill-opacity="0" stroke="#AAAAAA" stroke-width="3" stroke-linecap="round"/>
        <path d="M-234.909,-78.28 L-234.909,-78.28" fill-opacity="0" stroke="#2B5E7C" stroke-width="3" stroke-linecap="round"/>
      </g>
      <g>
        <path d="M-220.181,-95.163 L-198.733,-95.163 C-196.539,-95.163 -194.761,-93.367 -194.761,-91.151 L-194.761,-53.623 C-194.761,-51.407 -196.539,-49.611 -198.733,-49.611 L-220.181,-49.611 C-222.375,-49.611 -224.153,-51.407 -224.153,-53.623 L-224.153,-91.151 C-224.153,-93.367 -222.375,-95.163 -220.181,-95.163 z" fill-opacity="0" stroke="#444444" stroke-width="3"/>
        <path d="M-218.366,-85.768 L-201.063,-85.768" fill-opacity="0" stroke="#AAAAAA" stroke-width="3" stroke-linecap="round"/>
        <path d="M-218.366,-78.28 L-205.511,-78.28" fill-opacity="0" stroke="#AAAAAA" stroke-width="3" stroke-linecap="round"/>
        <path d="M-201.063,-78.28 L-201.063,-78.28" fill-opacity="0" stroke="#2B5E7C" stroke-width="3" stroke-linecap="round"/>
      </g>
      <g>
        <path d="M-186.335,-95.163 L-164.887,-95.163 C-162.693,-95.163 -160.915,-93.367 -160.915,-91.151 L-160.915,-53.623 C-160.915,-51.407 -162.693,-49.611 -164.887,-49.611 L-186.335,-49.611 C-188.528,-49.611 -190.307,-51.407 -190.307,-53.623 L-190.307,-91.151 C-190.307,-93.367 -188.528,-95.163 -186.335,-95.163 z" fill-opacity="0" stroke="#444444" stroke-width="3"/>
        <path d="M-184.52,-85.768 L-167.216,-85.768" fill-opacity="0" stroke="#AAAAAA" stroke-width="3" stroke-linecap="round"/>
        <path d="M-184.52,-78.28 L-171.664,-78.28" fill-opacity="0" stroke="#AAAAAA" stroke-width="3" stroke-linecap="round"/>
        <path d="M-167.216,-78.28 L-167.216,-78.28" fill-opacity="0" stroke="#2B5E7C" stroke-width="3" stroke-linecap="round"/>
      </g>
      <path d="M-181.154,-104.422 L-196.867,-104.422 C-196.961,-104.422 -197.055,-104.428 -197.147,-104.428 L-197.578,-104.452 L-197.898,-104.428 C-197.985,-104.428 -198.079,-104.422 -198.173,-104.422 L-237.446,-104.422 C-247.031,-104.422 -254.823,-112.214 -254.823,-121.799 C-254.823,-128.459 -250.488,-135.368 -244.519,-138.231 L-243.612,-138.661 L-243.612,-139.671 C-243.612,-139.875 -243.596,-140.085 -243.588,-140.29 L-243.572,-140.548 L-243.588,-140.885 C-243.604,-141.017 -243.612,-141.143 -243.612,-141.275 C-243.612,-147.457 -238.58,-152.497 -232.39,-152.497 C-231.897,-152.497 -231.405,-152.449 -230.92,-152.387 C-230.794,-152.371 -230.67,-152.347 -230.551,-152.333 C-230.121,-152.252 -229.698,-152.168 -229.283,-152.042 C-229.229,-152.026 -229.175,-152.018 -229.111,-152.002 C-228.658,-151.862 -228.212,-151.682 -227.775,-151.487 C-227.665,-151.431 -227.555,-151.377 -227.438,-151.323 C-227.054,-151.135 -226.679,-150.922 -226.319,-150.688 C-223.228,-148.693 -221.179,-145.219 -221.179,-141.275 C-221.179,-140.392 -220.458,-139.671 -219.574,-139.671 C-218.689,-139.671 -217.97,-140.392 -217.97,-141.275 C-217.97,-145.688 -219.965,-149.64 -223.096,-152.284 C-218.503,-158.294 -210.935,-162.104 -203.407,-162.104 C-190.998,-162.104 -180.694,-152.276 -179.62,-139.851 C-181.256,-139.969 -183.706,-140.023 -186.162,-139.655 C-187.039,-139.523 -187.632,-138.701 -187.5,-137.824 C-187.382,-137.035 -186.703,-136.464 -185.92,-136.464 C-185.842,-136.464 -185.763,-136.472 -185.677,-136.486 C-182.11,-137.027 -178.392,-136.518 -178.174,-136.486 C-170.708,-135.07 -165.091,-128.201 -165.091,-120.485 C-165.091,-111.627 -172.296,-104.422 -181.154,-104.422 z M-181.154,-104.422" fill="url(#Gradient_2)"/>
    </g>
    <g>
      <g>
        <path d="M-248.671,-54.85 L-248.671,-55.016 Q-248.671,-55.24 -248.516,-55.386 L-247.049,-56.753 Q-246.959,-56.831 -246.89,-56.786 Q-246.822,-56.74 -246.822,-56.614 L-246.822,-56.031 Q-246.822,-55.78 -247.049,-55.573 L-247.735,-54.935 L-247.049,-54.293 Q-246.822,-54.086 -246.822,-53.835 L-246.822,-53.252 Q-246.822,-53.126 -246.89,-53.082 Q-246.959,-53.038 -247.049,-53.112 L-248.516,-54.483 Q-248.671,-54.626 -248.671,-54.85 z" fill="#1D1D1F"/>
        <path d="M-245.782,-57.099 L-245.782,-58.744 Q-245.782,-58.778 -245.74,-58.8 Q-245.698,-58.822 -245.636,-58.822 L-245.096,-58.822 Q-245.034,-58.822 -244.992,-58.8 Q-244.95,-58.778 -244.95,-58.744 L-244.95,-57.099 Q-244.95,-57.066 -244.992,-57.044 Q-245.034,-57.022 -245.096,-57.022 L-245.636,-57.022 Q-245.698,-57.022 -245.74,-57.044 Q-245.782,-57.066 -245.782,-57.099 z" fill="#1D1D1F"/>
        <path d="M-244.95,-56.675 L-244.95,-53.196 Q-244.95,-53.139 -244.995,-53.102 Q-245.04,-53.066 -245.11,-53.066 L-246.424,-53.066 Q-246.491,-53.066 -246.537,-53.102 Q-246.582,-53.139 -246.582,-53.196 L-246.582,-53.782 Q-246.582,-53.838 -246.537,-53.875 Q-246.491,-53.912 -246.424,-53.912 L-245.79,-53.912 L-245.79,-55.935 L-246.424,-55.935 Q-246.491,-55.935 -246.537,-55.972 Q-246.582,-56.009 -246.582,-56.063 L-246.582,-56.675 Q-246.582,-56.729 -246.537,-56.766 Q-246.491,-56.803 -246.424,-56.803 L-245.11,-56.803 Q-245.04,-56.803 -244.995,-56.766 Q-244.95,-56.729 -244.95,-56.675 z" fill="#1D1D1F"/>
      </g>
      <g>
        <path d="M-242.535,-54.856 L-242.535,-55.022 Q-242.535,-55.246 -242.38,-55.392 L-240.913,-56.759 Q-240.823,-56.837 -240.755,-56.791 Q-240.686,-56.746 -240.686,-56.62 L-240.686,-56.036 Q-240.686,-55.785 -240.913,-55.578 L-241.599,-54.94 L-240.913,-54.299 Q-240.686,-54.092 -240.686,-53.841 L-240.686,-53.257 Q-240.686,-53.132 -240.755,-53.088 Q-240.823,-53.044 -240.913,-53.118 L-242.38,-54.489 Q-242.535,-54.632 -242.535,-54.856 z" fill="#2C5E7C"/>
        <path d="M-242.629,-55.018 L-242.629,-54.852 Q-242.629,-54.628 -242.784,-54.482 L-244.251,-53.115 Q-244.341,-53.037 -244.41,-53.082 Q-244.478,-53.128 -244.478,-53.254 L-244.478,-53.837 Q-244.478,-54.089 -244.251,-54.296 L-243.565,-54.933 L-244.251,-55.575 Q-244.478,-55.782 -244.478,-56.033 L-244.478,-56.616 Q-244.478,-56.742 -244.41,-56.786 Q-244.341,-56.83 -244.251,-56.756 L-242.784,-55.385 Q-242.629,-55.242 -242.629,-55.018 z" fill="#2C5E7C"/>
      </g>
    </g>
    <g>
      <g>
        <path d="M-213.992,-54.85 L-213.992,-55.016 Q-213.992,-55.24 -213.837,-55.386 L-212.37,-56.753 Q-212.28,-56.831 -212.212,-56.786 Q-212.143,-56.74 -212.143,-56.614 L-212.143,-56.031 Q-212.143,-55.78 -212.37,-55.573 L-213.056,-54.935 L-212.37,-54.293 Q-212.143,-54.086 -212.143,-53.835 L-212.143,-53.252 Q-212.143,-53.126 -212.212,-53.082 Q-212.28,-53.038 -212.37,-53.112 L-213.837,-54.483 Q-213.992,-54.626 -213.992,-54.85 z" fill="#1D1D1F"/>
        <path d="M-211.104,-57.099 L-211.104,-58.744 Q-211.104,-58.778 -211.062,-58.8 Q-211.02,-58.822 -210.957,-58.822 L-210.418,-58.822 Q-210.355,-58.822 -210.313,-58.8 Q-210.271,-58.778 -210.271,-58.744 L-210.271,-57.099 Q-210.271,-57.066 -210.313,-57.044 Q-210.355,-57.022 -210.418,-57.022 L-210.957,-57.022 Q-211.02,-57.022 -211.062,-57.044 Q-211.104,-57.066 -211.104,-57.099 z" fill="#1D1D1F"/>
        <path d="M-210.271,-56.675 L-210.271,-53.196 Q-210.271,-53.139 -210.316,-53.102 Q-210.361,-53.066 -210.431,-53.066 L-211.746,-53.066 Q-211.813,-53.066 -211.858,-53.102 Q-211.903,-53.139 -211.903,-53.196 L-211.903,-53.782 Q-211.903,-53.838 -211.858,-53.875 Q-211.813,-53.912 -211.746,-53.912 L-211.112,-53.912 L-211.112,-55.935 L-211.746,-55.935 Q-211.813,-55.935 -211.858,-55.972 Q-211.903,-56.009 -211.903,-56.063 L-211.903,-56.675 Q-211.903,-56.729 -211.858,-56.766 Q-211.813,-56.803 -211.746,-56.803 L-210.431,-56.803 Q-210.361,-56.803 -210.316,-56.766 Q-210.271,-56.729 -210.271,-56.675 z" fill="#1D1D1F"/>
      </g>
      <g>
        <path d="M-207.856,-54.856 L-207.856,-55.022 Q-207.856,-55.246 -207.702,-55.392 L-206.235,-56.759 Q-206.144,-56.837 -206.076,-56.791 Q-206.008,-56.746 -206.008,-56.62 L-206.008,-56.036 Q-206.008,-55.785 -206.235,-55.578 L-206.92,-54.94 L-206.235,-54.299 Q-206.008,-54.092 -206.008,-53.841 L-206.008,-53.257 Q-206.008,-53.132 -206.076,-53.088 Q-206.144,-53.044 -206.235,-53.118 L-207.702,-54.489 Q-207.856,-54.632 -207.856,-54.856 z" fill="#2C5E7C"/>
        <path d="M-207.951,-55.018 L-207.951,-54.852 Q-207.951,-54.628 -208.106,-54.482 L-209.573,-53.115 Q-209.663,-53.037 -209.731,-53.082 Q-209.799,-53.128 -209.799,-53.254 L-209.799,-53.837 Q-209.799,-54.089 -209.573,-54.296 L-208.887,-54.933 L-209.573,-55.575 Q-209.799,-55.782 -209.799,-56.033 L-209.799,-56.616 Q-209.799,-56.742 -209.731,-56.786 Q-209.663,-56.83 -209.573,-56.756 L-208.106,-55.385 Q-207.951,-55.242 -207.951,-55.018 z" fill="#2C5E7C"/>
      </g>
    </g>
    <g>
      <g>
        <path d="M-180.242,-54.85 L-180.242,-55.016 Q-180.242,-55.24 -180.087,-55.386 L-178.62,-56.753 Q-178.53,-56.831 -178.462,-56.786 Q-178.393,-56.74 -178.393,-56.614 L-178.393,-56.031 Q-178.393,-55.78 -178.62,-55.573 L-179.306,-54.935 L-178.62,-54.293 Q-178.393,-54.086 -178.393,-53.835 L-178.393,-53.252 Q-178.393,-53.126 -178.462,-53.082 Q-178.53,-53.038 -178.62,-53.112 L-180.087,-54.483 Q-180.242,-54.626 -180.242,-54.85 z" fill="#1D1D1F"/>
        <path d="M-177.354,-57.099 L-177.354,-58.744 Q-177.354,-58.778 -177.312,-58.8 Q-177.269,-58.822 -177.207,-58.822 L-176.668,-58.822 Q-176.605,-58.822 -176.563,-58.8 Q-176.521,-58.778 -176.521,-58.744 L-176.521,-57.099 Q-176.521,-57.066 -176.563,-57.044 Q-176.605,-57.022 -176.668,-57.022 L-177.207,-57.022 Q-177.269,-57.022 -177.312,-57.044 Q-177.354,-57.066 -177.354,-57.099 z" fill="#1D1D1F"/>
        <path d="M-176.521,-56.675 L-176.521,-53.196 Q-176.521,-53.139 -176.566,-53.102 Q-176.611,-53.066 -176.681,-53.066 L-177.996,-53.066 Q-178.063,-53.066 -178.108,-53.102 Q-178.153,-53.139 -178.153,-53.196 L-178.153,-53.782 Q-178.153,-53.838 -178.108,-53.875 Q-178.063,-53.912 -177.996,-53.912 L-177.362,-53.912 L-177.362,-55.935 L-177.996,-55.935 Q-178.063,-55.935 -178.108,-55.972 Q-178.153,-56.009 -178.153,-56.063 L-178.153,-56.675 Q-178.153,-56.729 -178.108,-56.766 Q-178.063,-56.803 -177.996,-56.803 L-176.681,-56.803 Q-176.611,-56.803 -176.566,-56.766 Q-176.521,-56.729 -176.521,-56.675 z" fill="#1D1D1F"/>
      </g>
      <g>
        <path d="M-174.106,-54.856 L-174.106,-55.022 Q-174.106,-55.246 -173.951,-55.392 L-172.484,-56.759 Q-172.394,-56.837 -172.326,-56.791 Q-172.258,-56.746 -172.258,-56.62 L-172.258,-56.036 Q-172.258,-55.785 -172.484,-55.578 L-173.17,-54.94 L-172.484,-54.299 Q-172.258,-54.092 -172.258,-53.841 L-172.258,-53.257 Q-172.258,-53.132 -172.326,-53.088 Q-172.394,-53.044 -172.484,-53.118 L-173.951,-54.489 Q-174.106,-54.632 -174.106,-54.856 z" fill="#2C5E7C"/>
        <path d="M-174.201,-55.018 L-174.201,-54.852 Q-174.201,-54.628 -174.355,-54.482 L-175.822,-53.115 Q-175.913,-53.037 -175.981,-53.082 Q-176.049,-53.128 -176.049,-53.254 L-176.049,-53.837 Q-176.049,-54.089 -175.822,-54.296 L-175.137,-54.933 L-175.822,-55.575 Q-176.049,-55.782 -176.049,-56.033 L-176.049,-56.616 Q-176.049,-56.742 -175.981,-56.786 Q-175.913,-56.83 -175.822,-56.756 L-174.355,-55.385 Q-174.201,-55.242 -174.201,-55.018 z" fill="#2C5E7C"/>
      </g>
    </g>
    <g>
      <g id="Group">
        <path d="M-68.888,-140.643 L-68.888,-140.643 C-68.387,-141.144 -67.575,-141.144 -67.074,-140.643 L-64.281,-137.851 C-63.78,-137.35 -63.78,-136.537 -64.281,-136.036 L-64.281,-136.036 C-64.782,-135.535 -65.595,-135.535 -66.096,-136.036 L-68.888,-138.829 C-69.389,-139.33 -69.389,-140.142 -68.888,-140.643 z" fill="#D8D8D8" id="Rectangle-2"/>
        <path d="M-64.301,-140.663 L-64.301,-140.663 C-63.8,-140.162 -63.8,-139.349 -64.301,-138.848 L-67.093,-136.056 C-67.594,-135.554 -68.407,-135.554 -68.908,-136.056 L-68.908,-136.056 C-69.409,-136.557 -69.409,-137.369 -68.908,-137.87 L-66.115,-140.663 C-65.614,-141.164 -64.802,-141.164 -64.301,-140.663 z" fill="#D8D8D8" id="Rectangle-2"/>
      </g>
      <g id="Group">
        <path d="M-30.081,-197.975 L-30.081,-197.975 C-29.58,-198.476 -28.767,-198.476 -28.266,-197.975 L-25.474,-195.183 C-24.973,-194.682 -24.973,-193.869 -25.474,-193.368 L-25.474,-193.368 C-25.975,-192.867 -26.787,-192.867 -27.288,-193.368 L-30.081,-196.161 C-30.582,-196.662 -30.582,-197.474 -30.081,-197.975 z" fill="#D8D8D8" id="Rectangle-2"/>
        <path d="M-25.493,-197.995 L-25.493,-197.995 C-24.992,-197.494 -24.992,-196.681 -25.493,-196.18 L-28.286,-193.388 C-28.787,-192.886 -29.599,-192.886 -30.1,-193.388 L-30.1,-193.388 C-30.601,-193.889 -30.601,-194.701 -30.1,-195.202 L-27.308,-197.995 C-26.807,-198.496 -25.994,-198.496 -25.493,-197.995 z" fill="#D8D8D8" id="Rectangle-2"/>
      </g>
      <g id="Group">
        <path d="M48.402,-104.863 L48.402,-104.863 C48.903,-105.364 49.715,-105.364 50.217,-104.863 L53.009,-102.07 C53.51,-101.569 53.51,-100.757 53.009,-100.256 L53.009,-100.256 C52.508,-99.755 51.696,-99.755 51.195,-100.256 L48.402,-103.048 C47.901,-103.549 47.901,-104.362 48.402,-104.863 z" fill="#D8D8D8" id="Rectangle-2"/>
        <path d="M52.99,-104.882 L52.99,-104.882 C53.491,-104.381 53.491,-103.569 52.99,-103.068 L50.197,-100.275 C49.696,-99.774 48.884,-99.774 48.383,-100.275 L48.383,-100.275 C47.882,-100.776 47.882,-101.589 48.383,-102.09 L51.175,-104.882 C51.676,-105.383 52.489,-105.383 52.99,-104.882 z" fill="#D8D8D8" id="Rectangle-2"/>
      </g>
      <path d="M-41.712,-173.145 C-41.712,-171.738 -42.86,-170.597 -44.278,-170.597 C-45.695,-170.597 -46.844,-171.738 -46.844,-173.145 C-46.844,-174.552 -45.695,-175.692 -44.278,-175.692 C-42.86,-175.692 -41.712,-174.552 -41.712,-173.145 z" fill="#D8D8D8" id="Oval-2"/>
      <path d="M-69.912,-158.587 C-69.912,-157.18 -71.06,-156.04 -72.478,-156.04 C-73.895,-156.04 -75.044,-157.18 -75.044,-158.587 C-75.044,-159.994 -73.895,-161.135 -72.478,-161.135 C-71.06,-161.135 -69.912,-159.994 -69.912,-158.587 z" fill="#D8D8D8" id="Oval-2"/>
      <path d="M6.69,-185.699 C6.69,-184.492 5.712,-183.515 4.506,-183.515 C3.3,-183.515 2.322,-184.492 2.322,-185.699 C2.322,-186.905 3.3,-187.883 4.506,-187.883 C5.712,-187.883 6.69,-186.905 6.69,-185.699 z" fill="#D8D8D8" id="Oval-3"/>
      <path d="M53.385,-168.413 C53.385,-167.207 52.407,-166.229 51.201,-166.229 C49.995,-166.229 49.017,-167.207 49.017,-168.413 C49.017,-169.62 49.995,-170.597 51.201,-170.597 C52.407,-170.597 53.385,-169.62 53.385,-168.413 z" fill="#D8D8D8" id="Oval-3"/>
      <path d="M40.209,-147.574 C40.209,-146.367 39.232,-145.39 38.025,-145.39 C36.819,-145.39 35.841,-146.367 35.841,-147.574 C35.841,-148.78 36.819,-149.758 38.025,-149.758 C39.232,-149.758 40.209,-148.78 40.209,-147.574 z" fill="#D8D8D8" id="Oval-3"/>
      <path d="M-59.537,-180.24 C-59.537,-179.034 -60.515,-178.056 -61.721,-178.056 C-62.928,-178.056 -63.905,-179.034 -63.905,-180.24 C-63.905,-181.446 -62.928,-182.424 -61.721,-182.424 C-60.515,-182.424 -59.537,-181.446 -59.537,-180.24 z" fill="#D8D8D8" id="Oval-3"/>
      <path d="M33.588,-171.785 C33.515,-170.38 32.309,-169.301 30.893,-169.374 C29.478,-169.448 28.39,-170.646 28.463,-172.051 C28.536,-173.456 29.742,-174.536 31.158,-174.462 C32.573,-174.389 33.661,-173.19 33.588,-171.785 z" fill-opacity="0" stroke="#D8D8D8" stroke-width="1" id="Oval"/>
      <path d="M43.838,-200.285 C43.765,-198.88 42.559,-197.801 41.143,-197.874 C39.728,-197.948 38.64,-199.146 38.713,-200.551 C38.786,-201.956 39.992,-203.036 41.408,-202.962 C42.823,-202.889 43.911,-201.69 43.838,-200.285 z" fill-opacity="0" stroke="#D8D8D8" stroke-width="1" id="Oval"/>
      <path d="M65.309,-132.613 C65.309,-131.206 64.161,-130.065 62.743,-130.065 C61.326,-130.065 60.177,-131.206 60.177,-132.613 C60.177,-134.02 61.326,-135.16 62.743,-135.16 C64.161,-135.16 65.309,-134.02 65.309,-132.613 z" fill-opacity="0" stroke="#D8D8D8" stroke-width="1" id="Oval"/>
      <path d="M-82.016,-120.681 L-79.533,-118.199 L-77.021,-120.711 L-79.504,-123.193 L-82.016,-120.681 z" fill-opacity="0" stroke="#D8D8D8" stroke-width="1" id="Rectangle-3"/>
      <path d="M-8.43,-105.019 C-11.436,-105.333 -14.417,-104.292 -16.579,-102.13 C-18.536,-100.173 -19.61,-97.463 -19.524,-94.695 C-19.437,-91.886 -18.224,-89.311 -16.11,-87.444 C-12.29,-84.074 -6.547,-84.095 -2.75,-87.491 C-0.333,-89.659 0.88,-92.849 0.554,-96.035 L10.218,-86.371 L-11.069,-65.084 C-14.815,-61.338 -20.91,-61.338 -24.656,-65.084 L-45.942,-86.371 L-33.963,-98.351 C-33.623,-98.69 -33.44,-99.156 -33.458,-99.636 C-33.476,-100.116 -33.692,-100.567 -34.056,-100.88 C-35.288,-101.942 -36.942,-102.373 -38.481,-102.033 C-40.811,-101.519 -43.25,-102.306 -44.843,-104.086 C-47.037,-106.537 -47.051,-110.389 -44.877,-112.854 C-43.651,-114.247 -41.958,-115.044 -40.113,-115.102 C-38.266,-115.159 -36.53,-114.472 -35.224,-113.166 C-33.629,-111.571 -32.964,-109.299 -33.446,-107.084 C-33.78,-105.529 -33.352,-103.869 -32.301,-102.642 C-31.988,-102.277 -31.536,-102.059 -31.056,-102.041 C-30.575,-102.022 -30.108,-102.205 -29.768,-102.545 L-17.862,-114.451 L-8.431,-105.019 L-8.43,-105.019 z M-21.743,-134.255 C-23.337,-132.661 -25.61,-131.995 -27.821,-132.474 C-29.339,-132.805 -30.914,-132.425 -32.143,-131.431 C-32.523,-131.123 -32.755,-130.668 -32.781,-130.179 C-32.807,-129.69 -32.624,-129.213 -32.277,-128.867 L-20.305,-116.894 L-29.911,-107.288 C-29.536,-110.349 -30.575,-113.402 -32.781,-115.608 C-34.74,-117.567 -37.451,-118.641 -40.221,-118.554 C-42.81,-118.473 -45.2,-117.436 -47.019,-115.617 C-47.172,-115.463 -47.322,-115.303 -47.468,-115.139 C-50.835,-111.32 -50.814,-105.578 -47.417,-101.782 C-45.211,-99.319 -41.944,-98.107 -38.703,-98.496 L-49.606,-87.592 C-50.281,-86.918 -50.281,-85.824 -49.606,-85.15 L-27.098,-62.642 C-22.005,-57.549 -13.719,-57.549 -8.626,-62.642 L28.436,-99.704 C29.111,-100.379 29.111,-101.472 28.436,-102.147 C27.762,-102.821 26.668,-102.821 25.994,-102.147 L12.66,-88.814 L0.609,-100.865 C0.263,-101.211 -0.213,-101.394 -0.701,-101.369 C-1.189,-101.344 -1.645,-101.112 -1.952,-100.734 C-2.951,-99.505 -3.334,-97.936 -3.002,-96.429 C-2.489,-94.097 -3.278,-91.659 -5.054,-90.065 C-7.046,-88.284 -9.963,-87.94 -12.309,-89.041 C-12.399,-89.083 -12.489,-89.128 -12.577,-89.174 C-12.931,-89.361 -13.27,-89.581 -13.589,-89.836 C-13.668,-89.9 -13.747,-89.965 -13.824,-90.033 C-15.216,-91.263 -16.014,-92.956 -16.071,-94.802 C-16.128,-96.647 -15.441,-98.382 -14.137,-99.687 C-12.543,-101.28 -10.269,-101.945 -8.053,-101.465 C-6.534,-101.137 -4.96,-101.517 -3.734,-102.509 C-3.639,-102.586 -3.553,-102.672 -3.477,-102.766 C-3.25,-103.047 -3.115,-103.395 -3.096,-103.761 C-3.077,-104.128 -3.175,-104.488 -3.371,-104.791 C-3.436,-104.892 -3.513,-104.987 -3.599,-105.073 L-15.42,-116.894 L-13.506,-118.808 C-12.831,-119.482 -12.831,-120.576 -13.506,-121.25 C-14.18,-121.925 -15.274,-121.925 -15.948,-121.25 L-17.862,-119.336 L-27.447,-128.921 C-24.443,-128.608 -21.463,-129.65 -19.3,-131.812 C-17.342,-133.77 -16.269,-136.48 -16.354,-139.247 C-16.442,-142.055 -17.654,-144.63 -19.769,-146.499 C-23.588,-149.867 -29.33,-149.845 -33.125,-146.449 C-35.546,-144.286 -36.759,-141.094 -36.433,-137.908 L-45.942,-147.416 L-24.655,-168.703 C-20.91,-172.449 -14.815,-172.449 -11.069,-168.703 L10.218,-147.417 L-1.746,-135.453 C-2.098,-135.101 -2.281,-134.613 -2.248,-134.116 C-2.215,-133.619 -1.968,-133.161 -1.572,-132.858 C-0.364,-131.937 1.158,-131.59 2.604,-131.907 C4.934,-132.421 7.371,-131.635 8.964,-129.857 C11.157,-127.405 11.172,-123.554 8.997,-121.089 C7.771,-119.696 6.077,-118.898 4.233,-118.84 C2.387,-118.782 0.651,-119.469 -0.653,-120.774 C-2.25,-122.371 -2.916,-124.643 -2.434,-126.857 C-2.121,-128.31 -2.464,-129.836 -3.375,-131.043 C-3.676,-131.442 -4.135,-131.691 -4.634,-131.725 C-5.132,-131.76 -5.621,-131.577 -5.975,-131.224 L-11.063,-126.135 C-11.738,-125.461 -11.738,-124.367 -11.063,-123.692 C-10.389,-123.018 -9.295,-123.018 -8.621,-123.692 L-6.005,-126.308 C-6.263,-123.364 -5.22,-120.455 -3.096,-118.331 C-1.139,-116.374 1.572,-115.301 4.341,-115.387 C7.149,-115.475 9.721,-116.688 11.588,-118.803 C14.956,-122.621 14.935,-128.363 11.538,-132.16 C9.41,-134.536 6.292,-135.747 3.166,-135.479 L12.661,-144.974 L33.947,-123.687 C37.693,-119.941 37.693,-113.846 33.947,-110.101 L30.879,-107.032 C30.204,-106.358 30.204,-105.264 30.879,-104.589 C31.553,-103.915 32.647,-103.915 33.321,-104.589 L36.39,-107.658 C41.483,-112.751 41.483,-121.037 36.39,-126.13 L-8.626,-171.146 C-13.719,-176.239 -22.005,-176.239 -27.098,-171.146 L-49.606,-148.638 C-50.281,-147.963 -50.281,-146.87 -49.606,-146.195 L-36.489,-133.077 C-36.143,-132.732 -35.667,-132.549 -35.178,-132.574 C-34.69,-132.599 -34.235,-132.83 -33.927,-133.209 C-32.928,-134.438 -32.546,-136.007 -32.877,-137.514 C-33.39,-139.846 -32.603,-142.283 -30.823,-143.875 C-28.372,-146.068 -24.52,-146.083 -22.056,-143.909 C-20.663,-142.679 -19.865,-140.985 -19.808,-139.14 C-19.751,-137.295 -20.438,-135.56 -21.743,-134.255" fill="#444444"/>
      <path d="M-8.417,-105.027 C-11.423,-105.34 -14.403,-104.299 -16.566,-102.137 C-18.523,-100.18 -19.596,-97.47 -19.51,-94.703 C-19.423,-91.894 -18.211,-89.319 -16.096,-87.451 C-12.276,-84.082 -6.533,-84.102 -2.736,-87.499 C-0.319,-89.666 0.894,-92.857 0.568,-96.042 L10.232,-86.379 L-11.055,-65.092 C-14.801,-61.346 -20.896,-61.346 -24.642,-65.092 L-45.929,-86.379 L-33.949,-98.358 C-33.609,-98.698 -33.427,-99.163 -33.444,-99.643 C-33.462,-100.123 -33.679,-100.574 -34.043,-100.888 C-35.274,-101.949 -36.928,-102.38 -38.468,-102.041 C-40.798,-101.527 -43.236,-102.313 -44.83,-104.093 C-47.023,-106.545 -47.038,-110.396 -44.863,-112.861 C-43.637,-114.254 -41.944,-115.051 -40.099,-115.109 C-38.253,-115.167 -36.516,-114.479 -35.21,-113.173 C-33.615,-111.578 -32.95,-109.306 -33.432,-107.092 C-33.766,-105.536 -33.338,-103.876 -32.287,-102.65 C-31.974,-102.285 -31.523,-102.066 -31.042,-102.048 C-30.561,-102.03 -30.095,-102.213 -29.755,-102.553 L-17.849,-114.459 L-8.417,-105.027 L-8.417,-105.027 z" fill="url(#Gradient_3)"/>
    </g>
    <g id="Group">
      <path d="M43.446,90.52 L43.446,90.52 C43.947,90.019 44.76,90.019 45.261,90.52 L48.053,93.312 C48.555,93.814 48.555,94.626 48.053,95.127 L48.053,95.127 C47.552,95.628 46.74,95.628 46.239,95.127 L43.446,92.334 C42.945,91.833 42.945,91.021 43.446,90.52 z" fill="#D8D8D8" id="Rectangle-2"/>
      <path d="M48.034,90.5 L48.034,90.5 C48.535,91.001 48.535,91.814 48.034,92.315 L45.241,95.107 C44.74,95.609 43.928,95.609 43.427,95.107 L43.427,95.107 C42.926,94.606 42.926,93.794 43.427,93.293 L46.22,90.5 C46.721,89.999 47.533,89.999 48.034,90.5 z" fill="#D8D8D8" id="Rectangle-2"/>
    </g>
    <g id="Group">
      <path d="M84.548,30.127 L84.548,30.127 C85.718,30.127 86.666,31.075 86.666,32.245 L86.666,38.764 C86.666,39.934 85.718,40.882 84.548,40.882 L84.548,40.882 C83.378,40.882 82.43,39.934 82.43,38.764 L82.43,32.245 C82.43,31.075 83.378,30.127 84.548,30.127 z" fill="#D8D8D8" id="Rectangle-2"/>
      <path d="M89.926,35.459 L89.926,35.459 C89.926,36.629 88.977,37.577 87.808,37.577 L81.288,37.577 C80.118,37.577 79.17,36.629 79.17,35.459 L79.17,35.459 C79.17,34.289 80.118,33.341 81.288,33.341 L87.808,33.341 C88.977,33.341 89.926,34.289 89.926,35.459 z" fill="#D8D8D8" id="Rectangle-2"/>
    </g>
    <g id="Group">
      <path d="M174.578,74.119 L174.578,74.119 C175.748,74.119 176.696,75.067 176.696,76.237 L176.696,82.757 C176.696,83.926 175.748,84.875 174.578,84.875 L174.578,84.875 C173.408,84.875 172.46,83.926 172.46,82.757 L172.46,76.237 C172.46,75.067 173.408,74.119 174.578,74.119 z" fill="#D8D8D8" id="Rectangle-2"/>
      <path d="M179.956,79.451 L179.956,79.451 C179.956,80.621 179.008,81.569 177.838,81.569 L171.318,81.569 C170.148,81.569 169.2,80.621 169.2,79.451 L169.2,79.451 C169.2,78.282 170.148,77.333 171.318,77.333 L177.838,77.333 C179.008,77.333 179.956,78.282 179.956,79.451 z" fill="#D8D8D8" id="Rectangle-2"/>
    </g>
    <g id="Group">
      <path d="M160.737,126.3 L160.737,126.3 C161.238,125.799 162.05,125.799 162.551,126.3 L165.344,129.093 C165.845,129.594 165.845,130.406 165.344,130.907 L165.344,130.907 C164.843,131.408 164.031,131.408 163.529,130.907 L160.737,128.115 C160.236,127.614 160.236,126.801 160.737,126.3 z" fill="#D8D8D8" id="Rectangle-2"/>
      <path d="M165.325,126.281 L165.325,126.281 C165.826,126.782 165.826,127.594 165.325,128.095 L162.532,130.888 C162.031,131.389 161.218,131.389 160.717,130.888 L160.717,130.888 C160.216,130.387 160.216,129.574 160.717,129.073 L163.51,126.281 C164.011,125.78 164.823,125.78 165.325,126.281 z" fill="#D8D8D8" id="Rectangle-2"/>
    </g>
    <path d="M70.623,58.018 C70.623,59.425 69.474,60.566 68.057,60.566 C66.64,60.566 65.491,59.425 65.491,58.018 C65.491,56.611 66.64,55.471 68.057,55.471 C69.474,55.471 70.623,56.611 70.623,58.018 z" fill="#D8D8D8" id="Oval-2"/>
    <path d="M42.423,72.576 C42.423,73.983 41.274,75.123 39.857,75.123 C38.44,75.123 37.291,73.983 37.291,72.576 C37.291,71.169 38.44,70.028 39.857,70.028 C41.274,70.028 42.423,71.169 42.423,72.576 z" fill="#D8D8D8" id="Oval-2"/>
    <path d="M119.025,45.464 C119.025,46.671 118.047,47.648 116.841,47.648 C115.635,47.648 114.657,46.671 114.657,45.464 C114.657,44.258 115.635,43.28 116.841,43.28 C118.047,43.28 119.025,44.258 119.025,45.464 z" fill="#D8D8D8" id="Oval-3"/>
    <path d="M165.72,62.75 C165.72,63.956 164.742,64.934 163.536,64.934 C162.33,64.934 161.352,63.956 161.352,62.75 C161.352,61.543 162.33,60.566 163.536,60.566 C164.742,60.566 165.72,61.543 165.72,62.75 z" fill="#D8D8D8" id="Oval-3"/>
    <path d="M152.544,83.589 C152.544,84.796 151.566,85.773 150.36,85.773 C149.154,85.773 148.176,84.796 148.176,83.589 C148.176,82.383 149.154,81.405 150.36,81.405 C151.566,81.405 152.544,82.383 152.544,83.589 z" fill="#D8D8D8" id="Oval-3"/>
    <path d="M52.797,50.923 C52.797,52.129 51.819,53.107 50.613,53.107 C49.407,53.107 48.429,52.129 48.429,50.923 C48.429,49.717 49.407,48.739 50.613,48.739 C51.819,48.739 52.797,49.717 52.797,50.923 z" fill="#D8D8D8" id="Oval-3"/>
    <path d="M145.923,59.378 C145.85,60.783 144.643,61.862 143.228,61.789 C141.813,61.715 140.725,60.517 140.798,59.112 C140.871,57.707 142.077,56.627 143.492,56.701 C144.908,56.774 145.996,57.973 145.923,59.378 z" fill-opacity="0" stroke="#D8D8D8" stroke-width="1" id="Oval"/>
    <path d="M25.673,48.628 C25.6,50.033 24.393,51.112 22.978,51.039 C21.563,50.965 20.475,49.767 20.548,48.362 C20.621,46.957 21.827,45.877 23.242,45.951 C24.658,46.024 25.746,47.223 25.673,48.628 z" fill-opacity="0" stroke="#D8D8D8" stroke-width="1" id="Oval"/>
    <path d="M156.173,30.878 C156.1,32.283 154.893,33.362 153.478,33.289 C152.063,33.215 150.975,32.017 151.048,30.612 C151.121,29.207 152.327,28.127 153.742,28.201 C155.158,28.274 156.246,29.473 156.173,30.878 z" fill-opacity="0" stroke="#D8D8D8" stroke-width="1" id="Oval"/>
    <path d="M177.644,98.55 C177.644,99.957 176.495,101.098 175.078,101.098 C173.661,101.098 172.512,99.957 172.512,98.55 C172.512,97.143 173.661,96.003 175.078,96.003 C176.495,96.003 177.644,97.143 177.644,98.55 z" fill-opacity="0" stroke="#D8D8D8" stroke-width="1" id="Oval"/>
    <path d="M30.319,110.482 L32.801,112.964 L35.313,110.452 L32.831,107.97 L30.319,110.482 z" fill-opacity="0" stroke="#D8D8D8" stroke-width="1" id="Rectangle-3"/>
    <g>
      <g>
        <path d="M457.316,-80.042 L374.415,-80.042 C372.827,-80.042 371.539,-81.33 371.539,-82.918 L371.539,-150.964 L460.192,-150.964 L460.192,-82.918 C460.192,-81.33 458.905,-80.042 457.316,-80.042" fill="#D6D6D6"/>
        <path d="M460.192,-150.964 L371.539,-150.964 L371.539,-162.864 C371.539,-164.452 372.827,-165.74 374.415,-165.74 L457.316,-165.74 C458.905,-165.74 460.192,-164.452 460.192,-162.864 L460.192,-150.964" fill="#444444"/>
        <path d="M381.143,-162.046 C383.183,-162.046 384.837,-160.392 384.837,-158.352 C384.837,-156.312 383.183,-154.658 381.143,-154.658 C379.103,-154.658 377.449,-156.312 377.449,-158.352 C377.449,-160.392 379.103,-162.046 381.143,-162.046" fill="#3C6075"/>
        <path d="M392.964,-162.046 C395.004,-162.046 396.658,-160.392 396.658,-158.352 C396.658,-156.312 395.004,-154.658 392.964,-154.658 C390.924,-154.658 389.27,-156.312 389.27,-158.352 C389.27,-160.392 390.924,-162.046 392.964,-162.046" fill="#3C6075"/>
        <path d="M405.065,-162.046 C407.105,-162.046 408.759,-160.392 408.759,-158.352 C408.759,-156.312 407.105,-154.658 405.065,-154.658 C403.024,-154.658 401.371,-156.312 401.371,-158.352 C401.371,-160.392 403.024,-162.046 405.065,-162.046" fill="#3C6075"/>
        <path d="M472.836,-87.034 L479.383,-88.645 L479.383,-96.893 L472.836,-98.504 C472.156,-101.594 470.934,-104.476 469.282,-107.06 L472.778,-112.839 L466.946,-118.671 L461.168,-115.175 C458.583,-116.826 455.702,-118.048 452.612,-118.728 L451.001,-125.275 L442.753,-125.275 L441.142,-118.728 C438.051,-118.048 435.17,-116.826 432.585,-115.174 L426.807,-118.67 L420.975,-112.838 L424.471,-107.059 C422.819,-104.475 421.598,-101.594 420.918,-98.504 L414.37,-96.892 L414.37,-88.645 L420.918,-87.034 C421.598,-83.943 422.819,-81.062 424.471,-78.478 L420.975,-72.7 L426.808,-66.867 L432.585,-70.363 C435.17,-68.711 438.051,-67.49 441.142,-66.81 L442.753,-60.263 L451.001,-60.263 L452.612,-66.81 C455.703,-67.49 458.584,-68.711 461.169,-70.363 L466.946,-66.868 L472.778,-72.7 L469.283,-78.478 C470.935,-81.062 472.156,-83.944 472.836,-87.034" fill="url(#Gradient_4)"/>
        <path d="M446.878,-113.456 C458.302,-113.456 467.563,-104.194 467.563,-92.77 C467.563,-81.345 458.302,-72.084 446.878,-72.084 C435.453,-72.084 426.192,-81.345 426.192,-92.77 C426.192,-104.194 435.453,-113.456 446.878,-113.456" fill="#FFFFFF"/>
        <path d="M446.878,-104.59 C453.405,-104.59 458.697,-99.298 458.697,-92.77 C458.697,-86.242 453.405,-80.95 446.878,-80.95 C440.35,-80.95 435.058,-86.242 435.058,-92.77 C435.058,-99.298 440.35,-104.59 446.878,-104.59" fill="#3C6075"/>
        <path d="M394.009,-129.546 L391.268,-135.764 L388.526,-129.546 L394.009,-129.546 z M387.49,-127.194 L385.979,-123.761 L383.259,-123.761 L389.907,-138.85 L392.628,-138.85 L399.276,-123.761 L396.557,-123.761 L395.045,-127.194 L387.49,-127.194" fill="#444444"/>
        <path d="M409.758,-131.307 C410.268,-131.846 410.524,-132.637 410.524,-133.68 C410.524,-134.724 410.199,-135.461 409.552,-135.894 C408.905,-136.326 407.89,-136.54 406.508,-136.54 L403.918,-136.54 L403.918,-130.497 L406.876,-130.497 C408.285,-130.497 409.246,-130.766 409.758,-131.307 z M411.56,-137.535 C412.611,-136.656 413.136,-135.303 413.136,-133.476 C413.136,-131.648 412.599,-130.309 411.528,-129.46 C410.455,-128.612 408.811,-128.187 406.594,-128.187 L403.918,-128.187 L403.918,-123.761 L401.371,-123.761 L401.371,-138.85 L406.551,-138.85 C408.84,-138.85 410.51,-138.411 411.56,-137.535" fill="#444444"/>
        <path d="M416.137,-138.85 L418.684,-138.85 L418.684,-123.761 L416.137,-123.761 z" fill="#444444"/>
        <path d="M451.565,-155.476 L417.509,-155.476 C415.921,-155.476 414.634,-156.764 414.634,-158.352 C414.634,-159.941 415.921,-161.228 417.509,-161.228 L451.565,-161.228 C453.153,-161.228 454.441,-159.941 454.441,-158.352 C454.441,-156.764 453.153,-155.476 451.565,-155.476" fill="#D8DADA"/>
      </g>
      <g id="Group">
        <path d="M482.072,-159.694 L482.072,-159.694 C482.781,-159.694 483.355,-159.119 483.355,-158.411 L483.355,-153.334 C483.355,-152.626 482.781,-152.051 482.072,-152.051 L482.072,-152.051 C481.364,-152.051 480.789,-152.626 480.789,-153.334 L480.789,-158.411 C480.789,-159.119 481.364,-159.694 482.072,-159.694 z" fill="#D8D8D8" id="Rectangle-2"/>
        <path d="M485.893,-155.872 L485.893,-155.872 C485.893,-155.164 485.319,-154.589 484.61,-154.589 L479.534,-154.589 C478.826,-154.589 478.251,-155.164 478.251,-155.872 L478.251,-155.872 C478.251,-156.581 478.826,-157.155 479.534,-157.155 L484.61,-157.155 C485.319,-157.155 485.893,-156.581 485.893,-155.872 z" fill="#D8D8D8" id="Rectangle-2"/>
      </g>
      <g id="Group">
        <path d="M399.406,-197.694 L399.406,-197.694 C400.114,-197.694 400.689,-197.119 400.689,-196.41 L400.689,-191.334 C400.689,-190.626 400.114,-190.051 399.406,-190.051 L399.406,-190.051 C398.697,-190.051 398.123,-190.626 398.123,-191.334 L398.123,-196.41 C398.123,-197.119 398.697,-197.694 399.406,-197.694 z" fill="#D8D8D8" id="Rectangle-2"/>
        <path d="M403.227,-193.872 L403.227,-193.872 C403.227,-193.164 402.652,-192.589 401.944,-192.589 L396.868,-192.589 C396.159,-192.589 395.585,-193.164 395.585,-193.872 L395.585,-193.872 C395.585,-194.581 396.159,-195.155 396.868,-195.155 L401.944,-195.155 C402.652,-195.155 403.227,-194.581 403.227,-193.872 z" fill="#D8D8D8" id="Rectangle-2"/>
      </g>
      <g id="Group">
        <path d="M336.296,-138.359 L336.296,-138.359 C336.797,-138.86 337.609,-138.86 338.11,-138.359 L340.903,-135.566 C341.404,-135.065 341.404,-134.253 340.903,-133.752 L340.903,-133.752 C340.402,-133.251 339.589,-133.251 339.088,-133.752 L336.296,-136.544 C335.795,-137.045 335.795,-137.858 336.296,-138.359 z" fill="#D8D8D8" id="Rectangle-2"/>
        <path d="M340.883,-138.378 L340.883,-138.378 C341.384,-137.877 341.384,-137.065 340.883,-136.564 L338.091,-133.771 C337.59,-133.27 336.777,-133.27 336.276,-133.771 L336.276,-133.771 C335.775,-134.272 335.775,-135.085 336.276,-135.586 L339.069,-138.378 C339.57,-138.879 340.382,-138.879 340.883,-138.378 z" fill="#D8D8D8" id="Rectangle-2"/>
      </g>
      <g id="Group">
        <path d="M479.778,-103.422 L479.778,-103.422 C480.279,-103.923 481.092,-103.923 481.593,-103.422 L484.386,-100.629 C484.887,-100.128 484.887,-99.316 484.386,-98.815 L484.386,-98.815 C483.885,-98.314 483.072,-98.314 482.571,-98.815 L479.778,-101.607 C479.277,-102.108 479.277,-102.921 479.778,-103.422 z" fill="#D8D8D8" id="Rectangle-2"/>
        <path d="M484.366,-103.441 L484.366,-103.441 C484.867,-102.94 484.867,-102.128 484.366,-101.627 L481.573,-98.834 C481.072,-98.333 480.26,-98.333 479.759,-98.834 L479.759,-98.834 C479.258,-99.335 479.258,-100.147 479.759,-100.649 L482.552,-103.441 C483.053,-103.942 483.865,-103.942 484.366,-103.441 z" fill="#D8D8D8" id="Rectangle-2"/>
      </g>
      <path d="M389.665,-171.704 C389.665,-170.297 388.516,-169.156 387.099,-169.156 C385.682,-169.156 384.533,-170.297 384.533,-171.704 C384.533,-173.111 385.682,-174.251 387.099,-174.251 C388.516,-174.251 389.665,-173.111 389.665,-171.704 z" fill="#D8D8D8" id="Oval-2"/>
      <path d="M361.465,-157.146 C361.465,-155.739 360.316,-154.599 358.899,-154.599 C357.482,-154.599 356.333,-155.739 356.333,-157.146 C356.333,-158.553 357.482,-159.694 358.899,-159.694 C360.316,-159.694 361.465,-158.553 361.465,-157.146 z" fill="#D8D8D8" id="Oval-2"/>
      <path d="M438.067,-184.258 C438.067,-183.051 437.089,-182.074 435.883,-182.074 C434.676,-182.074 433.699,-183.051 433.699,-184.258 C433.699,-185.464 434.676,-186.442 435.883,-186.442 C437.089,-186.442 438.067,-185.464 438.067,-184.258 z" fill="#D8D8D8" id="Oval-3"/>
      <path d="M495.804,-178.133 C495.804,-176.926 494.826,-175.949 493.62,-175.949 C492.414,-175.949 491.436,-176.926 491.436,-178.133 C491.436,-179.339 492.414,-180.317 493.62,-180.317 C494.826,-180.317 495.804,-179.339 495.804,-178.133 z" fill="#D8D8D8" id="Oval-3"/>
      <path d="M371.839,-178.799 C371.839,-177.593 370.861,-176.615 369.655,-176.615 C368.449,-176.615 367.471,-177.593 367.471,-178.799 C367.471,-180.005 368.449,-180.983 369.655,-180.983 C370.861,-180.983 371.839,-180.005 371.839,-178.799 z" fill="#D8D8D8" id="Oval-3"/>
      <path d="M464.965,-170.344 C464.892,-168.939 463.685,-167.859 462.27,-167.933 C460.855,-168.007 459.766,-169.205 459.839,-170.61 C459.912,-172.015 461.119,-173.095 462.534,-173.021 C463.949,-172.947 465.038,-171.749 464.965,-170.344 z" fill-opacity="0" stroke="#D8D8D8" stroke-width="1" id="Oval"/>
      <path d="M475.215,-198.844 C475.142,-197.439 473.935,-196.359 472.52,-196.433 C471.105,-196.507 470.016,-197.705 470.089,-199.11 C470.162,-200.515 471.369,-201.595 472.784,-201.521 C474.199,-201.447 475.288,-200.249 475.215,-198.844 z" fill-opacity="0" stroke="#D8D8D8" stroke-width="1" id="Oval"/>
      <path d="M496.686,-131.172 C496.686,-129.765 495.537,-128.624 494.12,-128.624 C492.703,-128.624 491.554,-129.765 491.554,-131.172 C491.554,-132.579 492.703,-133.719 494.12,-133.719 C495.537,-133.719 496.686,-132.579 496.686,-131.172 z" fill-opacity="0" stroke="#D8D8D8" stroke-width="1" id="Oval"/>
      <path d="M350.361,-95.427 L352.843,-92.944 L355.355,-95.456 L352.873,-97.939 L350.361,-95.427 z" fill-opacity="0" stroke="#D8D8D8" stroke-width="1" id="Rectangle-3"/>
      <path d="M341.779,-188.424 L344.261,-185.942 L346.773,-188.454 L344.291,-190.936 L341.779,-188.424 z" fill-opacity="0" stroke="#D8D8D8" stroke-width="1" id="Rectangle-3"/>
    </g>
    <g>
      <g id="Group">
        <path d="M582.643,-139.202 L582.643,-139.202 C583.144,-139.703 583.956,-139.703 584.457,-139.202 L587.25,-136.41 C587.751,-135.908 587.751,-135.096 587.25,-134.595 L587.25,-134.595 C586.749,-134.094 585.936,-134.094 585.435,-134.595 L582.643,-137.388 C582.142,-137.889 582.142,-138.701 582.643,-139.202 z" fill="#D8D8D8" id="Rectangle-2"/>
        <path d="M587.23,-139.222 L587.23,-139.222 C587.731,-138.721 587.731,-137.908 587.23,-137.407 L584.438,-134.615 C583.937,-134.113 583.124,-134.113 582.623,-134.615 L582.623,-134.615 C582.122,-135.116 582.122,-135.928 582.623,-136.429 L585.416,-139.222 C585.917,-139.723 586.729,-139.723 587.23,-139.222 z" fill="#D8D8D8" id="Rectangle-2"/>
      </g>
      <g id="Group">
        <path d="M604.388,-196.534 L604.388,-196.534 C604.89,-197.035 605.702,-197.035 606.203,-196.534 L608.996,-193.742 C609.497,-193.24 609.497,-192.428 608.996,-191.927 L608.996,-191.927 C608.495,-191.426 607.682,-191.426 607.181,-191.927 L604.388,-194.72 C603.887,-195.221 603.887,-196.033 604.388,-196.534 z" fill="#D8D8D8" id="Rectangle-2"/>
        <path d="M608.976,-196.554 L608.976,-196.554 C609.477,-196.053 609.477,-195.24 608.976,-194.739 L606.184,-191.946 C605.682,-191.445 604.87,-191.445 604.369,-191.946 L604.369,-191.946 C603.868,-192.448 603.868,-193.26 604.369,-193.761 L607.162,-196.554 C607.663,-197.055 608.475,-197.055 608.976,-196.554 z" fill="#D8D8D8" id="Rectangle-2"/>
      </g>
      <g id="Group">
        <path d="M664.489,-108.116 L664.489,-108.116 C664.99,-108.617 665.803,-108.617 666.304,-108.116 L669.096,-105.324 C669.598,-104.823 669.598,-104.01 669.096,-103.509 L669.096,-103.509 C668.595,-103.008 667.783,-103.008 667.282,-103.509 L664.489,-106.302 C663.988,-106.803 663.988,-107.615 664.489,-108.116 z" fill="#D8D8D8" id="Rectangle-2"/>
        <path d="M669.077,-108.136 L669.077,-108.136 C669.578,-107.635 669.578,-106.822 669.077,-106.321 L666.284,-103.529 C665.783,-103.027 664.971,-103.027 664.47,-103.529 L664.47,-103.529 C663.969,-104.03 663.969,-104.842 664.47,-105.343 L667.263,-108.136 C667.764,-108.637 668.576,-108.637 669.077,-108.136 z" fill="#D8D8D8" id="Rectangle-2"/>
      </g>
      <path d="M592.758,-171.704 C592.758,-170.297 591.609,-169.156 590.192,-169.156 C588.774,-169.156 587.626,-170.297 587.626,-171.704 C587.626,-173.111 588.774,-174.251 590.192,-174.251 C591.609,-174.251 592.758,-173.111 592.758,-171.704 z" fill="#D8D8D8" id="Oval-2"/>
      <path d="M564.558,-157.146 C564.558,-155.739 563.409,-154.599 561.992,-154.599 C560.574,-154.599 559.426,-155.739 559.426,-157.146 C559.426,-158.553 560.574,-159.694 561.992,-159.694 C563.409,-159.694 564.558,-158.553 564.558,-157.146 z" fill="#D8D8D8" id="Oval-2"/>
      <path d="M641.16,-184.258 C641.16,-183.051 640.182,-182.074 638.976,-182.074 C637.769,-182.074 636.792,-183.051 636.792,-184.258 C636.792,-185.464 637.769,-186.442 638.976,-186.442 C640.182,-186.442 641.16,-185.464 641.16,-184.258 z" fill="#D8D8D8" id="Oval-3"/>
      <path d="M683.41,-169.78 C683.41,-168.573 682.432,-167.596 681.226,-167.596 C680.019,-167.596 679.042,-168.573 679.042,-169.78 C679.042,-170.986 680.019,-171.964 681.226,-171.964 C682.432,-171.964 683.41,-170.986 683.41,-169.78 z" fill="#D8D8D8" id="Oval-3"/>
      <path d="M674.679,-146.133 C674.679,-144.926 673.701,-143.949 672.495,-143.949 C671.289,-143.949 670.311,-144.926 670.311,-146.133 C670.311,-147.339 671.289,-148.317 672.495,-148.317 C673.701,-148.317 674.679,-147.339 674.679,-146.133 z" fill="#D8D8D8" id="Oval-3"/>
      <path d="M574.932,-178.799 C574.932,-177.593 573.954,-176.615 572.748,-176.615 C571.542,-176.615 570.564,-177.593 570.564,-178.799 C570.564,-180.005 571.542,-180.983 572.748,-180.983 C573.954,-180.983 574.932,-180.005 574.932,-178.799 z" fill="#D8D8D8" id="Oval-3"/>
      <path d="M654.163,-165.976 C654.09,-164.571 652.884,-163.491 651.468,-163.565 C650.053,-163.638 648.965,-164.837 649.038,-166.242 C649.111,-167.647 650.317,-168.726 651.733,-168.653 C653.148,-168.579 654.236,-167.381 654.163,-165.976 z" fill-opacity="0" stroke="#D8D8D8" stroke-width="1" id="Oval"/>
      <path d="M678.307,-198.844 C678.234,-197.439 677.028,-196.359 675.613,-196.433 C674.197,-196.507 673.109,-197.705 673.182,-199.11 C673.255,-200.515 674.462,-201.595 675.877,-201.521 C677.292,-201.447 678.38,-200.249 678.307,-198.844 z" fill-opacity="0" stroke="#D8D8D8" stroke-width="1" id="Oval"/>
      <path d="M699.779,-131.172 C699.779,-129.765 698.63,-128.624 697.213,-128.624 C695.795,-128.624 694.647,-129.765 694.647,-131.172 C694.647,-132.579 695.795,-133.719 697.213,-133.719 C698.63,-133.719 699.779,-132.579 699.779,-131.172 z" fill-opacity="0" stroke="#D8D8D8" stroke-width="1" id="Oval"/>
      <path d="M556.196,-128.13 L558.679,-125.647 L561.191,-128.159 L558.708,-130.642 L556.196,-128.13 z" fill-opacity="0" stroke="#D8D8D8" stroke-width="1" id="Rectangle-3"/>
      <g>
        <path d="M633.98,-103.856 C630.388,-103.856 626.914,-104.581 623.654,-106.012 C622.811,-106.383 621.862,-106.179 621.241,-105.573 C621.234,-105.567 621.227,-105.562 621.221,-105.555 L613.85,-98.184 L607.843,-98.184 C606.631,-98.184 605.648,-97.202 605.648,-95.99 L605.648,-91.268 L603.497,-91.268 C602.285,-91.268 601.303,-90.285 601.303,-89.073 L601.303,-86.922 L595.936,-86.922 C594.724,-86.922 593.742,-85.94 593.742,-84.728 L593.742,-78.07 L590.653,-74.986 L580.771,-74.986 L580.771,-78.087 L580.771,-83.673 L580.771,-87.638 L609.953,-116.822 C609.959,-116.829 609.964,-116.835 609.97,-116.842 C610.576,-117.463 610.781,-118.412 610.411,-119.255 C608.981,-122.515 608.256,-125.989 608.256,-129.58 C608.256,-143.764 619.796,-155.304 633.981,-155.304 C648.165,-155.304 659.705,-143.765 659.705,-129.58 C659.705,-115.396 648.165,-103.856 633.98,-103.856 z" fill="url(#Gradient_5)"/>
        <path d="M633.981,-103.856 C630.389,-103.856 626.914,-104.581 623.655,-106.012 C622.812,-106.382 621.862,-106.179 621.241,-105.573 C621.234,-105.567 621.227,-105.561 621.221,-105.555 L613.85,-98.184 L607.843,-98.184 C606.631,-98.184 605.648,-97.202 605.648,-95.99 L605.648,-91.268 L603.497,-91.268 C602.285,-91.268 601.303,-90.285 601.303,-89.073 L601.303,-86.922 L595.936,-86.922 C594.725,-86.922 593.742,-85.94 593.742,-84.728 L593.742,-78.07 L590.653,-74.986 L580.771,-74.986 L580.771,-78.087 L607.594,-104.91 C608.365,-105.681 608.365,-106.932 607.594,-107.703 C606.823,-108.475 605.573,-108.475 604.801,-107.703 L580.771,-83.673 L580.771,-87.638 L609.953,-116.822 C609.959,-116.829 609.964,-116.835 609.971,-116.841 C610.577,-117.463 610.781,-118.412 610.411,-119.255 C608.981,-122.515 608.257,-125.989 608.257,-129.58 C608.257,-143.764 619.797,-155.304 633.981,-155.304 C648.165,-155.304 659.705,-143.765 659.705,-129.58 C659.705,-115.396 648.165,-103.856 633.981,-103.856 z M633.981,-159.694 C617.376,-159.694 603.867,-146.185 603.867,-129.58 C603.867,-125.889 604.523,-122.301 605.818,-118.895 L577.024,-90.099 C576.613,-89.687 576.382,-89.129 576.382,-88.547 L576.382,-72.791 C576.382,-71.579 577.364,-70.597 578.576,-70.597 L591.561,-70.597 C592.142,-70.597 592.7,-70.827 593.111,-71.238 L597.487,-75.607 C597.899,-76.019 598.131,-76.578 598.131,-77.16 L598.131,-82.533 L603.497,-82.533 C604.709,-82.533 605.692,-83.516 605.692,-84.728 L605.692,-86.879 L607.843,-86.879 C609.054,-86.879 610.037,-87.861 610.037,-89.073 L610.037,-93.795 L614.759,-93.795 C615.341,-93.795 615.899,-94.027 616.311,-94.438 L623.293,-101.42 C626.7,-100.124 630.288,-99.467 633.98,-99.467 C650.585,-99.467 664.094,-112.976 664.094,-129.581 C664.094,-146.185 650.585,-159.694 633.981,-159.694" fill="#444444"/>
        <path d="M643.062,-134.914 C640.949,-134.914 639.231,-136.633 639.231,-138.745 C639.231,-140.858 640.949,-142.576 643.062,-142.576 C645.174,-142.576 646.893,-140.858 646.893,-138.745 C646.893,-136.633 645.174,-134.914 643.062,-134.914 z M643.062,-146.965 C638.529,-146.965 634.842,-143.278 634.842,-138.745 C634.842,-134.213 638.529,-130.525 643.062,-130.525 C647.595,-130.525 651.282,-134.213 651.282,-138.745 C651.282,-143.278 647.595,-146.965 643.062,-146.965" fill="#444444"/>
      </g>
    </g>
    <g clip-path="url(#Clip_1)">
      <path d="M104.597,121.788 L128.434,134.995 L128.434,161.247 L104.597,148.039 L104.597,121.788 z M47.666,121.788 L71.503,134.995 L71.503,161.247 L47.666,148.039 L47.666,121.788 z M102.312,57.419 L126.003,70.545 L102.312,83.671 L78.622,70.545 L102.312,57.419 z M76.131,134.995 L99.969,121.788 L99.969,148.039 L76.131,161.247 L76.131,134.995 z M73.817,104.734 L97.508,117.86 L73.817,130.986 L50.127,117.86 L73.817,104.734 z M101.19,88.341 C101.539,88.534 101.926,88.631 102.312,88.631 C102.699,88.631 103.085,88.534 103.434,88.341 L128.464,74.473 L128.464,100.708 L104.626,113.915 L104.626,103.88 C104.626,102.601 103.59,101.565 102.312,101.565 C101.034,101.565 99.998,102.601 99.998,103.88 L99.998,113.932 L76.161,100.725 L76.161,74.473 L101.19,88.341 z M130.748,130.986 L107.073,117.868 L130.763,104.742 L154.439,117.86 L130.748,130.986 z M160.336,115.835 L133.092,100.741 L133.092,70.545 C133.092,69.704 132.635,68.929 131.9,68.521 L103.434,52.749 C102.736,52.363 101.888,52.363 101.191,52.749 L72.725,68.521 C71.989,68.929 71.532,69.704 71.532,70.545 L71.532,100.708 L44.23,115.835 C43.494,116.243 43.037,117.018 43.037,117.86 L43.037,149.403 C43.037,150.244 43.494,151.019 44.23,151.427 L72.695,167.199 C73.044,167.392 73.431,167.489 73.817,167.489 C74.204,167.489 74.59,167.392 74.939,167.199 L102.283,152.049 L129.627,167.199 C129.976,167.392 130.362,167.489 130.748,167.489 C131.135,167.489 131.521,167.392 131.87,167.199 L138.508,163.521 C139.626,162.901 140.03,161.493 139.411,160.375 C138.791,159.257 137.382,158.853 136.265,159.472 L133.063,161.246 L133.063,134.995 L156.9,121.788 L156.9,148.039 L152.243,150.619 C151.125,151.239 150.721,152.647 151.341,153.765 C151.961,154.883 153.369,155.287 154.487,154.668 L160.336,151.427 C161.072,151.019 161.528,150.244 161.528,149.403 L161.528,117.86 C161.528,117.018 161.072,116.243 160.336,115.835" fill="#444444"/>
    </g>
    <path d="M145.875,154.588 C145.266,154.588 144.669,154.834 144.239,155.266 C143.808,155.694 143.561,156.292 143.561,156.9 C143.561,157.511 143.808,158.108 144.239,158.539 C144.669,158.969 145.266,159.214 145.875,159.214 C146.484,159.214 147.081,158.969 147.511,158.539 C147.941,158.108 148.189,157.511 148.189,156.9 C148.189,156.292 147.942,155.694 147.511,155.266 C147.081,154.834 146.484,154.588 145.875,154.588" fill="#2B5E7C"/>
    <path d="M102.32,98.159 C102.929,98.159 103.526,97.911 103.956,97.481 C104.386,97.051 104.634,96.453 104.634,95.845 C104.634,95.236 104.387,94.639 103.956,94.209 C103.526,93.778 102.929,93.531 102.32,93.531 C101.711,93.531 101.114,93.778 100.684,94.209 C100.251,94.639 100.006,95.236 100.006,95.845 C100.006,96.453 100.251,97.051 100.684,97.481 C101.114,97.911 101.709,98.159 102.32,98.159" fill="#2B5E7C"/>
  </g>
</svg>
