<?xml version="1.0" encoding="UTF-8"?>
<!DOCTYPE svg PUBLIC "-//W3C//DTD SVG 1.1//EN" "http://www.w3.org/Graphics/SVG/1.1/DTD/svg11.dtd">
<svg version="1.1" xmlns="http://www.w3.org/2000/svg" xmlns:xlink="http://www.w3.org/1999/xlink" x="0" y="0" width="200" height="200" viewBox="0, 0, 200, 200">
  <defs>
    <linearGradient id="Gradient_1" gradientUnits="userSpaceOnUse" x1="91.972" y1="86.39" x2="106.898" y2="158.914">
      <stop offset="0" stop-color="#2B5E7C" stop-opacity="0.514"/>
      <stop offset="1" stop-color="#2B5E7C"/>
    </linearGradient>
  </defs>
  <g id="Layer_1">
    <g>
      <g id="Group">
        <path d="M42.491,98.024 L42.491,98.024 C42.992,97.523 43.804,97.523 44.305,98.024 L47.098,100.816 C47.599,101.317 47.599,102.13 47.098,102.631 L47.098,102.631 C46.597,103.132 45.785,103.132 45.284,102.631 L42.491,99.838 C41.99,99.337 41.99,98.525 42.491,98.024 z" fill="#D8D8D8" id="Rectangle-2"/>
        <path d="M47.079,98.004 L47.079,98.004 C47.58,98.505 47.58,99.318 47.079,99.819 L44.286,102.611 C43.785,103.112 42.973,103.112 42.471,102.611 L42.471,102.611 C41.97,102.11 41.97,101.298 42.471,100.797 L45.264,98.004 C45.765,97.503 46.578,97.503 47.079,98.004 z" fill="#D8D8D8" id="Rectangle-2"/>
      </g>
      <g id="Group">
        <path d="M83.592,37.63 L83.592,37.63 C84.762,37.63 85.71,38.579 85.71,39.748 L85.71,46.268 C85.71,47.438 84.762,48.386 83.592,48.386 L83.592,48.386 C82.423,48.386 81.474,47.438 81.474,46.268 L81.474,39.748 C81.474,38.579 82.423,37.63 83.592,37.63 z" fill="#D8D8D8" id="Rectangle-2"/>
        <path d="M88.97,42.963 L88.97,42.963 C88.97,44.132 88.022,45.081 86.852,45.081 L80.333,45.081 C79.163,45.081 78.215,44.132 78.215,42.963 L78.215,42.963 C78.215,41.793 79.163,40.845 80.333,40.845 L86.852,40.845 C88.022,40.845 88.97,41.793 88.97,42.963 z" fill="#D8D8D8" id="Rectangle-2"/>
      </g>
      <g id="Group">
        <path d="M173.623,81.623 L173.623,81.623 C174.792,81.623 175.741,82.571 175.741,83.741 L175.741,90.261 C175.741,91.43 174.792,92.379 173.623,92.379 L173.623,92.379 C172.453,92.379 171.505,91.43 171.505,90.261 L171.505,83.741 C171.505,82.571 172.453,81.623 173.623,81.623 z" fill="#D8D8D8" id="Rectangle-2"/>
        <path d="M179,86.955 L179,86.955 C179,88.125 178.052,89.073 176.882,89.073 L170.363,89.073 C169.193,89.073 168.245,88.125 168.245,86.955 L168.245,86.955 C168.245,85.786 169.193,84.837 170.363,84.837 L176.882,84.837 C178.052,84.837 179,85.786 179,86.955 z" fill="#D8D8D8" id="Rectangle-2"/>
      </g>
      <g id="Group">
        <path d="M159.781,133.804 L159.781,133.804 C160.282,133.303 161.095,133.303 161.596,133.804 L164.389,136.597 C164.89,137.098 164.89,137.91 164.389,138.411 L164.389,138.411 C163.888,138.912 163.075,138.912 162.574,138.411 L159.781,135.619 C159.28,135.117 159.28,134.305 159.781,133.804 z" fill="#D8D8D8" id="Rectangle-2"/>
        <path d="M164.369,133.785 L164.369,133.785 C164.87,134.286 164.87,135.098 164.369,135.599 L161.576,138.392 C161.075,138.893 160.263,138.893 159.762,138.392 L159.762,138.392 C159.261,137.891 159.261,137.078 159.762,136.577 L162.555,133.785 C163.056,133.284 163.868,133.284 164.369,133.785 z" fill="#D8D8D8" id="Rectangle-2"/>
      </g>
      <path d="M69.668,65.522 C69.668,66.929 68.519,68.069 67.102,68.069 C65.684,68.069 64.536,66.929 64.536,65.522 C64.536,64.115 65.684,62.975 67.102,62.975 C68.519,62.975 69.668,64.115 69.668,65.522 z" fill="#D8D8D8" id="Oval-2"/>
      <path d="M41.468,80.08 C41.468,81.487 40.319,82.627 38.902,82.627 C37.484,82.627 36.336,81.487 36.336,80.08 C36.336,78.673 37.484,77.532 38.902,77.532 C40.319,77.532 41.468,78.673 41.468,80.08 z" fill="#D8D8D8" id="Oval-2"/>
      <path d="M118.07,52.968 C118.07,54.174 117.092,55.152 115.886,55.152 C114.679,55.152 113.702,54.174 113.702,52.968 C113.702,51.762 114.679,50.784 115.886,50.784 C117.092,50.784 118.07,51.762 118.07,52.968 z" fill="#D8D8D8" id="Oval-3"/>
      <path d="M164.764,70.253 C164.764,71.46 163.787,72.437 162.58,72.437 C161.374,72.437 160.396,71.46 160.396,70.253 C160.396,69.047 161.374,68.069 162.58,68.069 C163.787,68.069 164.764,69.047 164.764,70.253 z" fill="#D8D8D8" id="Oval-3"/>
      <path d="M151.589,91.093 C151.589,92.299 150.611,93.277 149.405,93.277 C148.199,93.277 147.221,92.299 147.221,91.093 C147.221,89.887 148.199,88.909 149.405,88.909 C150.611,88.909 151.589,89.887 151.589,91.093 z" fill="#D8D8D8" id="Oval-3"/>
      <path d="M51.842,58.427 C51.842,59.633 50.864,60.611 49.658,60.611 C48.452,60.611 47.474,59.633 47.474,58.427 C47.474,57.22 48.452,56.243 49.658,56.243 C50.864,56.243 51.842,57.22 51.842,58.427 z" fill="#D8D8D8" id="Oval-3"/>
      <path d="M144.968,66.882 C144.895,68.287 143.688,69.366 142.273,69.293 C140.857,69.219 139.769,68.021 139.842,66.616 C139.915,65.211 141.122,64.131 142.537,64.205 C143.952,64.278 145.041,65.477 144.968,66.882 z" fill-opacity="0" stroke="#D8D8D8" stroke-width="1" id="Oval"/>
      <path d="M24.718,56.132 C24.645,57.537 23.438,58.616 22.023,58.543 C20.607,58.469 19.519,57.271 19.592,55.866 C19.665,54.461 20.872,53.381 22.287,53.455 C23.702,53.528 24.791,54.727 24.718,56.132 z" fill-opacity="0" stroke="#D8D8D8" stroke-width="1" id="Oval"/>
      <path d="M155.218,38.382 C155.145,39.787 153.938,40.866 152.523,40.793 C151.107,40.719 150.019,39.521 150.092,38.116 C150.165,36.711 151.372,35.631 152.787,35.705 C154.202,35.778 155.291,36.977 155.218,38.382 z" fill-opacity="0" stroke="#D8D8D8" stroke-width="1" id="Oval"/>
      <path d="M176.689,106.054 C176.689,107.461 175.54,108.601 174.123,108.601 C172.705,108.601 171.557,107.461 171.557,106.054 C171.557,104.647 172.705,103.507 174.123,103.507 C175.54,103.507 176.689,104.647 176.689,106.054 z" fill-opacity="0" stroke="#D8D8D8" stroke-width="1" id="Oval"/>
      <path d="M29.363,117.986 L31.846,120.468 L34.358,117.956 L31.876,115.474 L29.363,117.986 z" fill-opacity="0" stroke="#D8D8D8" stroke-width="1" id="Rectangle-3"/>
      <path d="M128.195,159.473 L128.195,87.388 C128.195,86.529 128.893,85.83 129.752,85.83 L140.849,85.83 C141.708,85.83 142.407,86.529 142.407,87.388 L142.407,159.473 L128.195,159.473 z M92.322,159.473 L92.322,120.048 C92.322,119.189 93.021,118.49 93.88,118.49 L104.976,118.49 C105.835,118.49 106.534,119.189 106.534,120.048 L106.534,159.473 L92.322,159.473 z M56.449,159.473 L56.449,139.055 C56.449,138.196 57.148,137.497 58.007,137.497 L69.104,137.497 C69.963,137.497 70.662,138.196 70.662,139.055 L70.662,159.473 L56.449,159.473 z M151.898,159.473 L146.934,159.473 L146.934,87.388 C146.934,84.033 144.204,81.303 140.849,81.303 L129.752,81.303 C126.397,81.303 123.667,84.033 123.667,87.388 L123.667,159.473 L111.061,159.473 L111.061,120.048 C111.061,116.693 108.332,113.963 104.977,113.963 L93.88,113.963 C90.525,113.963 87.795,116.693 87.795,120.048 L87.795,159.473 L75.189,159.473 L75.189,139.055 C75.189,135.7 72.459,132.97 69.104,132.97 L58.007,132.97 C54.652,132.97 51.923,135.7 51.923,139.055 L51.923,159.473 L46.69,159.473 C45.44,159.473 44.427,160.486 44.427,161.736 C44.427,162.987 45.44,164 46.69,164 L151.898,164 C153.149,164 154.162,162.987 154.162,161.736 C154.162,160.486 153.149,159.473 151.898,159.473" fill="#444444"/>
      <path d="M128.201,159.473 L128.201,87.388 C128.201,86.529 128.9,85.83 129.759,85.83 L140.856,85.83 C141.715,85.83 142.414,86.529 142.414,87.388 L142.414,159.473 L128.201,159.473 z M92.329,159.473 L92.329,120.048 C92.329,119.189 93.028,118.49 93.887,118.49 L104.983,118.49 C105.842,118.49 106.541,119.189 106.541,120.048 L106.541,159.473 L92.329,159.473 z M56.456,159.473 L56.456,139.055 C56.456,138.196 57.155,137.497 58.014,137.497 L69.111,137.497 C69.97,137.497 70.668,138.196 70.668,139.055 L70.668,159.473 L56.456,159.473 z" fill="url(#Gradient_1)"/>
      <path d="M46.69,120.468 C47.269,120.468 47.849,120.247 48.291,119.805 L87.381,80.714 L95.82,89.152 C96.704,90.036 98.137,90.036 99.021,89.152 L122.998,65.176 L122.998,72.829 C122.998,74.079 124.011,75.092 125.262,75.092 C126.512,75.092 127.525,74.079 127.525,72.829 L127.525,59.937 C127.525,59.9 127.521,59.864 127.52,59.828 C127.551,59.21 127.334,58.582 126.862,58.11 C126.391,57.638 125.763,57.421 125.145,57.453 C125.108,57.451 125.072,57.447 125.035,57.447 L111.341,57.447 C110.091,57.447 109.077,58.461 109.077,59.711 C109.077,60.961 110.091,61.974 111.341,61.974 L119.797,61.974 L97.42,84.351 L88.982,75.913 C88.557,75.488 87.982,75.25 87.381,75.25 C86.781,75.25 86.205,75.488 85.781,75.913 L45.09,116.604 C44.206,117.488 44.206,118.921 45.09,119.805 C45.532,120.247 46.111,120.468 46.69,120.468" fill="#444444"/>
      <path d="M41.407,120.388 C42.657,120.388 43.67,121.401 43.67,122.652 C43.67,123.902 42.657,124.915 41.407,124.915 C40.157,124.915 39.143,123.902 39.143,122.652 C39.143,121.401 40.157,120.388 41.407,120.388" fill="#444444"/>
    </g>
  </g>
</svg>
