<?xml version="1.0" encoding="UTF-8"?>
<!DOCTYPE svg PUBLIC "-//W3C//DTD SVG 1.1//EN" "http://www.w3.org/Graphics/SVG/1.1/DTD/svg11.dtd">
<svg version="1.1" xmlns="http://www.w3.org/2000/svg" xmlns:xlink="http://www.w3.org/1999/xlink" x="0" y="0" width="200" height="200" viewBox="0, 0, 200, 200">
  <defs>
    <linearGradient id="Gradient_1" gradientUnits="userSpaceOnUse" x1="119.638" y1="100.015" x2="78.081" y2="129.113">
      <stop offset="0" stop-color="#2B5E7C" stop-opacity="0.514"/>
      <stop offset="1" stop-color="#2B5E7C"/>
    </linearGradient>
    <clipPath id="Clip_1">
      <path d="M42.921,58.621 L158.543,58.621 L158.543,174.247 L42.921,174.247 z"/>
    </clipPath>
  </defs>
  <g id="Layer_1">
    <g id="Group">
      <path d="M166.029,68.084 L166.029,68.084 C166.738,68.084 167.312,68.658 167.312,69.367 L167.312,74.443 C167.312,75.151 166.738,75.726 166.029,75.726 L166.029,75.726 C165.321,75.726 164.746,75.151 164.746,74.443 L164.746,69.367 C164.746,68.658 165.321,68.084 166.029,68.084 z" fill="#D8D8D8" id="Rectangle-2"/>
      <path d="M169.85,71.905 L169.85,71.905 C169.85,72.613 169.276,73.188 168.567,73.188 L163.491,73.188 C162.783,73.188 162.208,72.613 162.208,71.905 L162.208,71.905 C162.208,71.196 162.783,70.622 163.491,70.622 L168.567,70.622 C169.276,70.622 169.85,71.196 169.85,71.905 z" fill="#D8D8D8" id="Rectangle-2"/>
    </g>
    <g id="Group">
      <path d="M83.363,30.084 L83.363,30.084 C84.071,30.084 84.646,30.658 84.646,31.367 L84.646,36.443 C84.646,37.151 84.071,37.726 83.363,37.726 L83.363,37.726 C82.654,37.726 82.08,37.151 82.08,36.443 L82.08,31.367 C82.08,30.658 82.654,30.084 83.363,30.084 z" fill="#D8D8D8" id="Rectangle-2"/>
      <path d="M87.184,33.905 L87.184,33.905 C87.184,34.613 86.609,35.188 85.901,35.188 L80.825,35.188 C80.116,35.188 79.542,34.613 79.542,33.905 L79.542,33.905 C79.542,33.196 80.116,32.622 80.825,32.622 L85.901,32.622 C86.609,32.622 87.184,33.196 87.184,33.905 z" fill="#D8D8D8" id="Rectangle-2"/>
    </g>
    <g id="Group">
      <path d="M20.252,89.418 L20.252,89.418 C20.754,88.917 21.566,88.917 22.067,89.418 L24.86,92.211 C25.361,92.712 25.361,93.524 24.86,94.025 L24.86,94.025 C24.359,94.527 23.546,94.527 23.045,94.025 L20.252,91.233 C19.751,90.732 19.751,89.919 20.252,89.418 z" fill="#D8D8D8" id="Rectangle-2"/>
      <path d="M24.84,89.399 L24.84,89.399 C25.341,89.9 25.341,90.712 24.84,91.213 L22.047,94.006 C21.546,94.507 20.734,94.507 20.233,94.006 L20.233,94.006 C19.732,93.505 19.732,92.693 20.233,92.192 L23.026,89.399 C23.527,88.898 24.339,88.898 24.84,89.399 z" fill="#D8D8D8" id="Rectangle-2"/>
    </g>
    <g id="Group">
      <path d="M163.735,124.355 L163.735,124.355 C164.237,123.854 165.049,123.854 165.55,124.355 L168.343,127.148 C168.844,127.649 168.844,128.461 168.343,128.963 L168.343,128.963 C167.842,129.464 167.029,129.464 166.528,128.963 L163.735,126.17 C163.234,125.669 163.234,124.856 163.735,124.355 z" fill="#D8D8D8" id="Rectangle-2"/>
      <path d="M168.323,124.336 L168.323,124.336 C168.824,124.837 168.824,125.649 168.323,126.15 L165.531,128.943 C165.029,129.444 164.217,129.444 163.716,128.943 L163.716,128.943 C163.215,128.442 163.215,127.63 163.716,127.129 L166.509,124.336 C167.01,123.835 167.822,123.835 168.323,124.336 z" fill="#D8D8D8" id="Rectangle-2"/>
    </g>
    <path d="M73.622,56.073 C73.622,57.48 72.473,58.621 71.056,58.621 C69.639,58.621 68.49,57.48 68.49,56.073 C68.49,54.666 69.639,53.526 71.056,53.526 C72.473,53.526 73.622,54.666 73.622,56.073 z" fill="#D8D8D8" id="Oval-2"/>
    <path d="M45.422,70.631 C45.422,72.038 44.273,73.178 42.856,73.178 C41.439,73.178 40.29,72.038 40.29,70.631 C40.29,69.224 41.439,68.084 42.856,68.084 C44.273,68.084 45.422,69.224 45.422,70.631 z" fill="#D8D8D8" id="Oval-2"/>
    <path d="M122.024,43.52 C122.024,44.726 121.046,45.704 119.84,45.704 C118.633,45.704 117.656,44.726 117.656,43.52 C117.656,42.313 118.633,41.336 119.84,41.336 C121.046,41.336 122.024,42.313 122.024,43.52 z" fill="#D8D8D8" id="Oval-3"/>
    <path d="M179.761,49.645 C179.761,50.851 178.783,51.829 177.577,51.829 C176.371,51.829 175.393,50.851 175.393,49.645 C175.393,48.438 176.371,47.461 177.577,47.461 C178.783,47.461 179.761,48.438 179.761,49.645 z" fill="#D8D8D8" id="Oval-3"/>
    <path d="M55.796,48.978 C55.796,50.184 54.818,51.162 53.612,51.162 C52.406,51.162 51.428,50.184 51.428,48.978 C51.428,47.772 52.406,46.794 53.612,46.794 C54.818,46.794 55.796,47.772 55.796,48.978 z" fill="#D8D8D8" id="Oval-3"/>
    <path d="M148.422,56.933 C148.349,58.338 147.142,59.418 145.727,59.344 C144.311,59.271 143.223,58.072 143.296,56.667 C143.369,55.262 144.576,54.183 145.991,54.256 C147.406,54.33 148.495,55.528 148.422,56.933 z" fill-opacity="0" stroke="#D8D8D8" stroke-width="1" id="Oval"/>
    <path d="M158.672,28.433 C158.599,29.838 157.392,30.918 155.977,30.844 C154.561,30.771 153.473,29.572 153.546,28.167 C153.619,26.762 154.826,25.683 156.241,25.756 C157.656,25.83 158.745,27.028 158.672,28.433 z" fill-opacity="0" stroke="#D8D8D8" stroke-width="1" id="Oval"/>
    <path d="M180.143,96.105 C180.143,97.512 178.994,98.653 177.577,98.653 C176.159,98.653 175.011,97.512 175.011,96.105 C175.011,94.698 176.159,93.558 177.577,93.558 C178.994,93.558 180.143,94.698 180.143,96.105 z" fill-opacity="0" stroke="#D8D8D8" stroke-width="1" id="Oval"/>
    <path d="M33.818,131.85 L36.3,134.333 L38.812,131.821 L36.33,129.338 L33.818,131.85 z" fill-opacity="0" stroke="#D8D8D8" stroke-width="1" id="Rectangle-3"/>
    <path d="M25.236,38.853 L27.718,41.336 L30.23,38.824 L27.748,36.341 L25.236,38.853 z" fill-opacity="0" stroke="#D8D8D8" stroke-width="1" id="Rectangle-3"/>
    <g id="Group">
      <path d="M166.029,68.084 L166.029,68.084 C166.738,68.084 167.312,68.658 167.312,69.367 L167.312,74.443 C167.312,75.151 166.738,75.726 166.029,75.726 L166.029,75.726 C165.321,75.726 164.746,75.151 164.746,74.443 L164.746,69.367 C164.746,68.658 165.321,68.084 166.029,68.084 z" fill="#D8D8D8" id="Rectangle-2"/>
      <path d="M169.85,71.905 L169.85,71.905 C169.85,72.613 169.276,73.188 168.567,73.188 L163.491,73.188 C162.783,73.188 162.208,72.613 162.208,71.905 L162.208,71.905 C162.208,71.196 162.783,70.622 163.491,70.622 L168.567,70.622 C169.276,70.622 169.85,71.196 169.85,71.905 z" fill="#D8D8D8" id="Rectangle-2"/>
    </g>
    <g id="Group">
      <path d="M83.363,30.084 L83.363,30.084 C84.071,30.084 84.646,30.658 84.646,31.367 L84.646,36.443 C84.646,37.151 84.071,37.726 83.363,37.726 L83.363,37.726 C82.654,37.726 82.08,37.151 82.08,36.443 L82.08,31.367 C82.08,30.658 82.654,30.084 83.363,30.084 z" fill="#D8D8D8" id="Rectangle-2"/>
      <path d="M87.184,33.905 L87.184,33.905 C87.184,34.613 86.609,35.188 85.901,35.188 L80.825,35.188 C80.116,35.188 79.542,34.613 79.542,33.905 L79.542,33.905 C79.542,33.196 80.116,32.622 80.825,32.622 L85.901,32.622 C86.609,32.622 87.184,33.196 87.184,33.905 z" fill="#D8D8D8" id="Rectangle-2"/>
    </g>
    <g id="Group">
      <path d="M20.252,89.418 L20.252,89.418 C20.754,88.917 21.566,88.917 22.067,89.418 L24.86,92.211 C25.361,92.712 25.361,93.524 24.86,94.025 L24.86,94.025 C24.359,94.527 23.546,94.527 23.045,94.025 L20.252,91.233 C19.751,90.732 19.751,89.919 20.252,89.418 z" fill="#D8D8D8" id="Rectangle-2"/>
      <path d="M24.84,89.399 L24.84,89.399 C25.341,89.9 25.341,90.712 24.84,91.213 L22.047,94.006 C21.546,94.507 20.734,94.507 20.233,94.006 L20.233,94.006 C19.732,93.505 19.732,92.693 20.233,92.192 L23.026,89.399 C23.527,88.898 24.339,88.898 24.84,89.399 z" fill="#D8D8D8" id="Rectangle-2"/>
    </g>
    <g id="Group">
      <path d="M163.735,124.355 L163.735,124.355 C164.237,123.854 165.049,123.854 165.55,124.355 L168.343,127.148 C168.844,127.649 168.844,128.461 168.343,128.963 L168.343,128.963 C167.842,129.464 167.029,129.464 166.528,128.963 L163.735,126.17 C163.234,125.669 163.234,124.856 163.735,124.355 z" fill="#D8D8D8" id="Rectangle-2"/>
      <path d="M168.323,124.336 L168.323,124.336 C168.824,124.837 168.824,125.649 168.323,126.15 L165.531,128.943 C165.029,129.444 164.217,129.444 163.716,128.943 L163.716,128.943 C163.215,128.442 163.215,127.63 163.716,127.129 L166.509,124.336 C167.01,123.835 167.822,123.835 168.323,124.336 z" fill="#D8D8D8" id="Rectangle-2"/>
    </g>
    <path d="M73.622,56.073 C73.622,57.48 72.473,58.621 71.056,58.621 C69.639,58.621 68.49,57.48 68.49,56.073 C68.49,54.666 69.639,53.526 71.056,53.526 C72.473,53.526 73.622,54.666 73.622,56.073 z" fill="#D8D8D8" id="Oval-2"/>
    <path d="M45.422,70.631 C45.422,72.038 44.273,73.178 42.856,73.178 C41.439,73.178 40.29,72.038 40.29,70.631 C40.29,69.224 41.439,68.084 42.856,68.084 C44.273,68.084 45.422,69.224 45.422,70.631 z" fill="#D8D8D8" id="Oval-2"/>
    <path d="M122.024,43.52 C122.024,44.726 121.046,45.704 119.84,45.704 C118.633,45.704 117.656,44.726 117.656,43.52 C117.656,42.313 118.633,41.336 119.84,41.336 C121.046,41.336 122.024,42.313 122.024,43.52 z" fill="#D8D8D8" id="Oval-3"/>
    <path d="M179.761,49.645 C179.761,50.851 178.783,51.829 177.577,51.829 C176.371,51.829 175.393,50.851 175.393,49.645 C175.393,48.438 176.371,47.461 177.577,47.461 C178.783,47.461 179.761,48.438 179.761,49.645 z" fill="#D8D8D8" id="Oval-3"/>
    <path d="M55.796,48.978 C55.796,50.184 54.818,51.162 53.612,51.162 C52.406,51.162 51.428,50.184 51.428,48.978 C51.428,47.772 52.406,46.794 53.612,46.794 C54.818,46.794 55.796,47.772 55.796,48.978 z" fill="#D8D8D8" id="Oval-3"/>
    <path d="M148.422,56.933 C148.349,58.338 147.142,59.418 145.727,59.344 C144.311,59.271 143.223,58.072 143.296,56.667 C143.369,55.262 144.576,54.183 145.991,54.256 C147.406,54.33 148.495,55.528 148.422,56.933 z" fill-opacity="0" stroke="#D8D8D8" stroke-width="1" id="Oval"/>
    <path d="M158.672,28.433 C158.599,29.838 157.392,30.918 155.977,30.844 C154.561,30.771 153.473,29.572 153.546,28.167 C153.619,26.762 154.826,25.683 156.241,25.756 C157.656,25.83 158.745,27.028 158.672,28.433 z" fill-opacity="0" stroke="#D8D8D8" stroke-width="1" id="Oval"/>
    <path d="M180.143,96.105 C180.143,97.512 178.994,98.653 177.577,98.653 C176.159,98.653 175.011,97.512 175.011,96.105 C175.011,94.698 176.159,93.558 177.577,93.558 C178.994,93.558 180.143,94.698 180.143,96.105 z" fill-opacity="0" stroke="#D8D8D8" stroke-width="1" id="Oval"/>
    <path d="M33.818,131.85 L36.3,134.333 L38.812,131.821 L36.33,129.338 L33.818,131.85 z" fill-opacity="0" stroke="#D8D8D8" stroke-width="1" id="Rectangle-3"/>
    <path d="M25.236,38.853 L27.718,41.336 L30.23,38.824 L27.748,36.341 L25.236,38.853 z" fill-opacity="0" stroke="#D8D8D8" stroke-width="1" id="Rectangle-3"/>
    <g>
      <path d="M156.678,116.434 C156.678,147.336 131.626,172.387 100.725,172.387 C69.823,172.387 44.772,147.336 44.772,116.434 C44.772,85.532 69.823,60.481 100.725,60.481 C131.626,60.481 156.678,85.532 156.678,116.434 z M156.678,116.434" fill="#2B5E7C"/>
      <path d="M148.518,116.434 C148.518,143.216 126.807,164.926 100.026,164.926 C73.244,164.926 51.533,143.216 51.533,116.434 C51.533,89.652 73.244,67.941 100.026,67.941 C126.807,67.941 148.518,89.652 148.518,116.434 z M148.518,116.434" fill="#FFFFFF"/>
      <path d="M134.297,116.434 C134.297,134.975 119.266,150.006 100.725,150.006 C82.184,150.006 67.153,134.975 67.153,116.434 C67.153,97.893 82.184,82.862 100.725,82.862 C119.266,82.862 134.297,97.893 134.297,116.434 z M134.297,116.434" fill="#2B5E7C"/>
      <path d="M126.836,116.434 C126.836,130.855 115.146,142.545 100.725,142.545 C86.304,142.545 74.613,130.855 74.613,116.434 C74.613,102.013 86.304,90.323 100.725,90.323 C115.146,90.323 126.836,102.013 126.836,116.434 z M126.836,116.434" fill="#FFFFFF"/>
      <path d="M110.05,125.759 L69.018,148.141 L91.399,107.108 L132.431,84.727 z M110.05,125.759" fill="#699DDE"/>
      <g clip-path="url(#Clip_1)">
        <path d="M106.32,122.025 L124.225,89.199 L91.399,107.104 L73.494,139.93 z M106.32,122.025" fill="url(#Gradient_1)"/>
        <path d="M100.725,174.247 C68.845,174.247 42.907,148.312 42.907,116.429 C42.907,84.547 68.845,58.611 100.725,58.611 C132.604,58.611 158.543,84.547 158.543,116.429 C158.543,148.312 132.604,174.247 100.725,174.247 z M100.725,62.342 C70.899,62.342 46.637,86.606 46.637,116.429 C46.637,146.253 70.899,170.517 100.725,170.517 C130.55,170.517 154.813,146.253 154.813,116.429 C154.813,86.606 130.55,62.342 100.725,62.342 z M100.725,62.342" fill="#444444"/>
      </g>
      <path d="M100.725,166.792 C72.957,166.792 50.367,144.202 50.367,116.434 C50.367,88.666 72.957,66.076 100.725,66.076 C128.493,66.076 151.082,88.666 151.082,116.434 C151.082,144.202 128.493,166.792 100.725,166.792 z M100.725,69.807 C75.014,69.807 54.097,90.723 54.097,116.434 C54.097,142.145 75.014,163.061 100.725,163.061 C126.435,163.061 147.352,142.145 147.352,116.434 C147.352,90.723 126.435,69.807 100.725,69.807 z M100.725,69.807" fill="#444444"/>
      <path d="M100.725,151.871 C92.567,151.871 84.603,149.032 78.303,143.877 L80.666,140.988 C86.302,145.602 93.425,148.141 100.725,148.141 C118.208,148.141 132.431,133.917 132.431,116.434 C132.431,109.136 129.891,102.013 125.281,96.373 L128.168,94.012 C133.323,100.314 136.162,108.278 136.162,116.434 C136.162,135.975 120.265,151.871 100.725,151.871 z M100.725,151.871" fill="#BFBFBF"/>
      <path d="M73.398,138.935 C68.18,132.61 65.306,124.605 65.306,116.393 C65.306,96.852 81.202,80.956 100.743,80.956 C108.9,80.956 116.864,83.795 123.165,88.95 L120.801,91.839 C115.165,87.224 108.043,84.686 100.743,84.686 C83.259,84.686 69.036,98.91 69.036,116.393 C69.036,123.74 71.606,130.903 76.276,136.558 z M73.398,138.935" fill="#BFBFBF"/>
      <path d="M100.743,144.429 C95.41,144.429 90.223,142.922 85.745,140.074 L87.747,136.926 C91.626,139.395 96.119,140.699 100.743,140.699 C114.112,140.699 124.989,129.822 124.989,116.453 C124.989,111.829 123.683,107.336 121.216,103.457 L124.364,101.454 C127.212,105.933 128.719,111.121 128.719,116.453 C128.719,131.879 116.169,144.429 100.743,144.429 z M100.743,144.429" fill="#444444"/>
      <path d="M77.103,131.433 C74.256,126.953 72.748,121.766 72.748,116.434 C72.748,101.008 85.299,88.458 100.725,88.458 C106.057,88.458 111.244,89.965 115.722,92.813 L113.72,95.961 C109.842,93.492 105.348,92.188 100.725,92.188 C87.356,92.188 76.479,103.065 76.479,116.434 C76.479,121.058 77.785,125.551 80.252,129.43 z M77.103,131.433" fill="#444444"/>
      <path d="M69.02,150.006 C68.537,150.006 68.059,149.817 67.699,149.459 C67.114,148.875 66.985,147.973 67.381,147.247 L89.762,106.215 C89.933,105.9 90.191,105.64 90.506,105.471 L131.538,83.09 C132.267,82.695 133.166,82.823 133.75,83.409 C134.336,83.992 134.464,84.895 134.069,85.621 L111.688,126.653 C111.516,126.968 111.259,127.228 110.943,127.397 L69.911,149.778 C69.632,149.931 69.326,150.006 69.02,150.006 z M92.775,108.483 L73.694,143.467 L108.678,124.385 L127.759,89.401 z M92.775,108.483" fill="#444444"/>
      <path d="M98.86,82.862 L102.59,82.862 L102.59,95.918 L98.86,95.918 z" fill="#BFBFBF"/>
      <path d="M67.153,114.569 L80.209,114.569 L80.209,118.299 L67.153,118.299 z" fill="#BFBFBF"/>
      <path d="M98.86,136.95 L102.59,136.95 L102.59,150.006 L98.86,150.006 z" fill="#BFBFBF"/>
      <path d="M121.241,114.569 L134.297,114.569 L134.297,118.299 L121.241,118.299 z" fill="#BFBFBF"/>
    </g>
  </g>
</svg>
