<?xml version="1.0" encoding="UTF-8"?>
<!DOCTYPE svg PUBLIC "-//W3C//DTD SVG 1.1//EN" "http://www.w3.org/Graphics/SVG/1.1/DTD/svg11.dtd">
<svg version="1.1" xmlns="http://www.w3.org/2000/svg" xmlns:xlink="http://www.w3.org/1999/xlink" x="0" y="0" width="200" height="200" viewBox="0, 0, 200, 200">
  <defs>
    <linearGradient id="Gradient_1" gradientUnits="userSpaceOnUse" x1="90.58" y1="96.348" x2="40.96" y2="144.355">
      <stop offset="0" stop-color="#2B5E7C" stop-opacity="0.514"/>
      <stop offset="1" stop-color="#2B5E7C"/>
    </linearGradient>
    <clipPath id="Clip_1">
      <path d="M33.173,59.941 L160.738,59.941 L160.738,166.234 L33.173,166.234 z"/>
    </clipPath>
  </defs>
  <g id="Layer_1">
    <path d="M142.629,69.116 C142.556,70.521 141.349,71.6 139.934,71.527 C138.518,71.453 137.43,70.255 137.503,68.85 C137.576,67.445 138.783,66.365 140.198,66.439 C141.613,66.512 142.702,67.711 142.629,69.116 z" fill-opacity="0" stroke="#D8D8D8" stroke-width="1" id="Oval"/>
    <path d="M37.479,63.056 L156.061,63.056 C157.163,63.056 158.057,63.221 158.057,63.425 L158.057,78.134 C158.057,78.338 157.163,78.503 156.061,78.503 L37.479,78.503 C36.376,78.503 35.482,78.338 35.482,78.134 L35.482,63.425 C35.482,63.221 36.376,63.056 37.479,63.056 z" fill="#BFBFBF"/>
    <path d="M36.469,78.503 L95.071,78.503 C95.615,78.503 96.057,79.398 96.057,80.503 L96.057,160.2 C96.057,161.304 95.615,162.2 95.071,162.2 L36.469,162.2 C35.924,162.2 35.482,161.304 35.482,160.2 L35.482,80.503 C35.482,79.398 35.924,78.503 36.469,78.503 z" fill="url(#Gradient_1)"/>
    <path d="M162.425,72.487 C162.425,73.694 161.448,74.671 160.241,74.671 C159.035,74.671 158.057,73.694 158.057,72.487 C158.057,71.281 159.035,70.303 160.241,70.303 C161.448,70.303 162.425,71.281 162.425,72.487 z" fill="#D8D8D8" id="Oval-3"/>
    <g clip-path="url(#Clip_1)">
      <path d="M154.36,59.93 L39.551,59.93 C35.936,59.93 33.173,62.694 33.173,66.308 L33.173,159.856 C33.173,163.471 35.936,166.234 39.551,166.234 L154.36,166.234 C157.974,166.234 160.738,163.471 160.738,159.856 L160.738,66.308 C160.738,62.694 157.974,59.93 154.36,59.93 z M39.551,64.182 L154.36,64.182 C155.636,64.182 156.486,65.032 156.486,66.308 L156.486,76.939 L37.425,76.939 L37.425,66.308 C37.425,65.032 38.275,64.182 39.551,64.182 z M37.425,159.856 L37.425,81.191 L94.829,81.191 L94.829,161.982 L39.551,161.982 C38.275,161.982 37.425,161.132 37.425,159.856 z M154.36,161.982 L99.082,161.982 L99.082,81.191 L156.486,81.191 L156.486,159.856 C156.486,161.132 155.636,161.982 154.36,161.982 z M154.36,161.982" fill="#444444"/>
    </g>
    <path d="M108.582,95.547 L145.7,95.547 C146.832,95.547 147.75,96.442 147.75,97.547 L147.75,102.744 C147.75,103.849 146.832,104.744 145.7,104.744 L108.582,104.744 C107.45,104.744 106.532,103.849 106.532,102.744 L106.532,97.547 C106.532,96.442 107.45,95.547 108.582,95.547 z" fill-opacity="0" stroke="#444444" stroke-width="4"/>
    <path d="M108.958,112.253 L146.076,112.253 C147.208,112.253 148.126,113.148 148.126,114.253 L148.126,119.45 C148.126,120.555 147.208,121.45 146.076,121.45 L108.958,121.45 C107.826,121.45 106.909,120.555 106.909,119.45 L106.909,114.253 C106.909,113.148 107.826,112.253 108.958,112.253 z" fill-opacity="0" stroke="#444444" stroke-width="4"/>
    <path d="M108.958,129.261 L146.076,129.261 C147.208,129.261 148.126,130.157 148.126,131.261 L148.126,136.459 C148.126,137.563 147.208,138.459 146.076,138.459 L108.958,138.459 C107.826,138.459 106.909,137.563 106.909,136.459 L106.909,131.261 C106.909,130.157 107.826,129.261 108.958,129.261 z" fill-opacity="0" stroke="#444444" stroke-width="4"/>
    <path d="M115.262,146.711 L139.772,146.711 C140.52,146.711 141.126,147.607 141.126,148.711 L141.126,153.909 C141.126,155.013 140.52,155.909 139.772,155.909 L115.262,155.909 C114.515,155.909 113.909,155.013 113.909,153.909 L113.909,148.711 C113.909,147.607 114.515,146.711 115.262,146.711 z" fill-opacity="0" stroke="#444444" stroke-width="4"/>
    <path d="M86.518,150.232 L45.021,150.043" fill-opacity="0" stroke="#FFFFFF" stroke-width="4" stroke-linecap="round"/>
    <path d="M86.518,139.371 L45.021,139.181" fill-opacity="0" stroke="#FFFFFF" stroke-width="4" stroke-linecap="round"/>
    <path d="M121.865,87.32 L106.532,87.32" fill-opacity="0" stroke="#444444" stroke-width="4" stroke-linecap="round"/>
    <g id="Group">
      <path d="M22.041,95.009 L22.041,95.009 C22.542,94.508 23.354,94.508 23.855,95.009 L26.648,97.801 C27.149,98.302 27.149,99.115 26.648,99.616 L26.648,99.616 C26.147,100.117 25.335,100.117 24.834,99.616 L22.041,96.823 C21.54,96.322 21.54,95.51 22.041,95.009 z" fill="#D8D8D8" id="Rectangle-2"/>
      <path d="M26.629,94.989 L26.629,94.989 C27.13,95.49 27.13,96.303 26.629,96.804 L23.836,99.596 C23.335,100.097 22.523,100.097 22.021,99.596 L22.021,99.596 C21.52,99.095 21.52,98.283 22.021,97.782 L24.814,94.989 C25.315,94.488 26.128,94.488 26.629,94.989 z" fill="#D8D8D8" id="Rectangle-2"/>
    </g>
    <g id="Group">
      <path d="M81.253,39.864 L81.253,39.864 C82.423,39.864 83.371,40.813 83.371,41.982 L83.371,48.502 C83.371,49.672 82.423,50.62 81.253,50.62 L81.253,50.62 C80.084,50.62 79.135,49.672 79.135,48.502 L79.135,41.982 C79.135,40.813 80.084,39.864 81.253,39.864 z" fill="#D8D8D8" id="Rectangle-2"/>
      <path d="M86.631,45.197 L86.631,45.197 C86.631,46.366 85.683,47.315 84.513,47.315 L77.994,47.315 C76.824,47.315 75.876,46.366 75.876,45.197 L75.876,45.197 C75.876,44.027 76.824,43.079 77.994,43.079 L84.513,43.079 C85.683,43.079 86.631,44.027 86.631,45.197 z" fill="#D8D8D8" id="Rectangle-2"/>
    </g>
    <g id="Group">
      <path d="M169.884,86.593 L169.884,86.593 C171.053,86.593 172.002,87.541 172.002,88.711 L172.002,95.231 C172.002,96.4 171.053,97.349 169.884,97.349 L169.884,97.349 C168.714,97.349 167.766,96.4 167.766,95.231 L167.766,88.711 C167.766,87.541 168.714,86.593 169.884,86.593 z" fill="#D8D8D8" id="Rectangle-2"/>
      <path d="M175.261,91.925 L175.261,91.925 C175.261,93.095 174.313,94.043 173.143,94.043 L166.624,94.043 C165.454,94.043 164.506,93.095 164.506,91.925 L164.506,91.925 C164.506,90.756 165.454,89.807 166.624,89.807 L173.143,89.807 C174.313,89.807 175.261,90.756 175.261,91.925 z" fill="#D8D8D8" id="Rectangle-2"/>
    </g>
    <g id="Group">
      <path d="M161.528,136.301 L161.528,136.301 C162.029,135.8 162.842,135.8 163.343,136.301 L166.136,139.094 C166.637,139.595 166.637,140.407 166.136,140.908 L166.136,140.908 C165.635,141.409 164.822,141.409 164.321,140.908 L161.528,138.116 C161.027,137.614 161.027,136.802 161.528,136.301 z" fill="#D8D8D8" id="Rectangle-2"/>
      <path d="M166.116,136.282 L166.116,136.282 C166.617,136.783 166.617,137.595 166.116,138.096 L163.323,140.889 C162.822,141.39 162.01,141.39 161.509,140.889 L161.509,140.889 C161.008,140.388 161.008,139.575 161.509,139.074 L164.302,136.282 C164.803,135.781 165.615,135.781 166.116,136.282 z" fill="#D8D8D8" id="Rectangle-2"/>
    </g>
    <path d="M65.739,70.303 C65.739,71.599 64.68,72.65 63.374,72.65 C62.068,72.65 61.01,71.599 61.01,70.303 C61.01,69.006 62.068,67.956 63.374,67.956 C64.68,67.956 65.739,69.006 65.739,70.303 z" fill="#2B5E7C" id="Oval-2"/>
    <path d="M57.789,70.303 C57.789,71.599 56.73,72.65 55.424,72.65 C54.117,72.65 53.06,71.599 53.06,70.303 C53.06,69.006 54.117,67.956 55.424,67.956 C56.73,67.956 57.789,69.006 57.789,70.303 z" fill="#2B5E7C" id="Oval-2"/>
    <path d="M49.864,70.303 C49.864,71.599 48.805,72.65 47.499,72.65 C46.193,72.65 45.135,71.599 45.135,70.303 C45.135,69.006 46.193,67.956 47.499,67.956 C48.805,67.956 49.864,69.006 49.864,70.303 z" fill="#2B5E7C" id="Oval-2"/>
    <path d="M45.135,36.314 C45.135,37.721 43.986,38.861 42.569,38.861 C41.151,38.861 40.003,37.721 40.003,36.314 C40.003,34.907 41.151,33.766 42.569,33.766 C43.986,33.766 45.135,34.907 45.135,36.314 z" fill="#D8D8D8" id="Oval-2"/>
    <path d="M115.731,55.202 C115.731,56.408 114.753,57.386 113.547,57.386 C112.34,57.386 111.363,56.408 111.363,55.202 C111.363,53.996 112.34,53.018 113.547,53.018 C114.753,53.018 115.731,53.996 115.731,55.202 z" fill="#D8D8D8" id="Oval-3"/>
    <path d="M22.379,58.366 C22.306,59.771 21.099,60.85 19.684,60.777 C18.268,60.703 17.18,59.505 17.253,58.1 C17.326,56.695 18.533,55.615 19.948,55.689 C21.363,55.762 22.452,56.961 22.379,58.366 z" fill-opacity="0" stroke="#D8D8D8" stroke-width="1" id="Oval"/>
    <path d="M152.879,40.616 C152.806,42.021 151.599,43.1 150.184,43.027 C148.768,42.953 147.68,41.755 147.753,40.35 C147.826,38.945 149.033,37.865 150.448,37.939 C151.863,38.012 152.952,39.211 152.879,40.616 z" fill-opacity="0" stroke="#D8D8D8" stroke-width="1" id="Oval"/>
    <path d="M182.75,108.288 C182.75,109.695 181.601,110.835 180.184,110.835 C178.766,110.835 177.618,109.695 177.618,108.288 C177.618,106.881 178.766,105.741 180.184,105.741 C181.601,105.741 182.75,106.881 182.75,108.288 z" fill-opacity="0" stroke="#D8D8D8" stroke-width="1" id="Oval"/>
    <path d="M27.024,120.22 L29.507,122.702 L32.019,120.19 L29.537,117.708 L27.024,120.22 z" fill-opacity="0" stroke="#D8D8D8" stroke-width="1" id="Rectangle-3"/>
    <path d="M68.958,97.2 L57.691,109.318 L54.076,105.705 L43.446,116.335 L43.446,129.942 L88.093,129.942 L88.093,116.335 z M83.841,125.69 L47.698,125.69 L47.698,118.035 L54.076,111.657 L63.218,120.8 L66.195,117.823 L60.667,112.296 L68.958,103.366 L83.841,118.248 z M83.841,125.69" fill="#FFFFFF"/>
    <path d="M54.321,102.935 C57.936,102.935 60.699,100.171 60.699,96.556 C60.699,92.942 57.936,90.178 54.321,90.178 C50.706,90.178 47.943,92.942 47.943,96.556 C47.943,100.171 50.706,102.935 54.321,102.935 z M54.321,94.43 C55.597,94.43 56.447,95.281 56.447,96.556 C56.447,97.832 55.597,98.683 54.321,98.683 C53.045,98.683 52.195,97.832 52.195,96.556 C52.195,95.281 53.045,94.43 54.321,94.43 z M54.321,94.43" fill="#FFFFFF"/>
    <path d="M148.549,70.303 L79.847,70.303" fill-opacity="0" stroke="#FFFFFF" stroke-width="4" stroke-linecap="round"/>
  </g>
</svg>
