<?xml version="1.0" encoding="UTF-8"?>
<!DOCTYPE svg PUBLIC "-//W3C//DTD SVG 1.1//EN" "http://www.w3.org/Graphics/SVG/1.1/DTD/svg11.dtd">
<svg version="1.1" xmlns="http://www.w3.org/2000/svg" xmlns:xlink="http://www.w3.org/1999/xlink" x="0" y="0" width="200" height="200" viewBox="0, 0, 200, 200">
  <defs>
    <radialGradient id="Gradient_1" gradientUnits="userSpaceOnUse" cx="99.857" cy="114.092" r="55.908">
      <stop offset="0" stop-color="#2B5E7C" stop-opacity="0.514"/>
      <stop offset="1" stop-color="#2B5E7C"/>
    </radialGradient>
    <linearGradient id="Gradient_2" gradientUnits="userSpaceOnUse" x1="123.529" y1="93.954" x2="76.185" y2="93.954">
      <stop offset="0" stop-color="#2B5E7C" stop-opacity="0.514"/>
      <stop offset="1" stop-color="#2B5E7C"/>
    </linearGradient>
    <linearGradient id="Gradient_3" gradientUnits="userSpaceOnUse" x1="123.529" y1="114.092" x2="76.185" y2="114.092">
      <stop offset="0" stop-color="#2B5E7C" stop-opacity="0.514"/>
      <stop offset="1" stop-color="#2B5E7C"/>
    </linearGradient>
    <linearGradient id="Gradient_4" gradientUnits="userSpaceOnUse" x1="123.529" y1="133.269" x2="76.185" y2="133.269">
      <stop offset="0" stop-color="#2B5E7C" stop-opacity="0.514"/>
      <stop offset="1" stop-color="#2B5E7C"/>
    </linearGradient>
  </defs>
  <g id="Layer_1">
    <g>
      <g>
        <path d="M99.857,170 C68.98,170 43.949,144.969 43.949,114.092 C43.949,83.215 68.98,58.184 99.857,58.184 C130.735,58.184 155.765,83.215 155.765,114.092 C155.765,144.969 130.735,170 99.857,170 z" fill="url(#Gradient_1)"/>
        <path d="M99.857,170 C68.98,170 43.949,144.969 43.949,114.092 C43.949,83.215 68.98,58.184 99.857,58.184 C130.735,58.184 155.765,83.215 155.765,114.092 C155.765,144.969 130.735,170 99.857,170 z" fill-opacity="0" stroke="#444444" stroke-width="4"/>
      </g>
      <g id="Group">
        <path d="M165.886,72.015 L165.886,72.015 C166.595,72.015 167.17,72.589 167.17,73.298 L167.17,78.374 C167.17,79.082 166.595,79.657 165.886,79.657 L165.886,79.657 C165.178,79.657 164.603,79.082 164.603,78.374 L164.603,73.298 C164.603,72.589 165.178,72.015 165.886,72.015 z" fill="#D8D8D8" id="Rectangle-2"/>
        <path d="M169.708,75.836 L169.708,75.836 C169.708,76.544 169.133,77.119 168.425,77.119 L163.348,77.119 C162.64,77.119 162.065,76.544 162.065,75.836 L162.065,75.836 C162.065,75.127 162.64,74.553 163.348,74.553 L168.425,74.553 C169.133,74.553 169.708,75.127 169.708,75.836 z" fill="#D8D8D8" id="Rectangle-2"/>
      </g>
      <g id="Group">
        <path d="M83.22,34.015 L83.22,34.015 C83.928,34.015 84.503,34.589 84.503,35.298 L84.503,40.374 C84.503,41.082 83.928,41.657 83.22,41.657 L83.22,41.657 C82.511,41.657 81.937,41.082 81.937,40.374 L81.937,35.298 C81.937,34.589 82.511,34.015 83.22,34.015 z" fill="#D8D8D8" id="Rectangle-2"/>
        <path d="M87.041,37.836 L87.041,37.836 C87.041,38.544 86.467,39.119 85.758,39.119 L80.682,39.119 C79.973,39.119 79.399,38.544 79.399,37.836 L79.399,37.836 C79.399,37.127 79.973,36.553 80.682,36.553 L85.758,36.553 C86.467,36.553 87.041,37.127 87.041,37.836 z" fill="#D8D8D8" id="Rectangle-2"/>
      </g>
      <g id="Group">
        <path d="M20.11,93.349 L20.11,93.349 C20.611,92.848 21.423,92.848 21.924,93.349 L24.717,96.142 C25.218,96.643 25.218,97.455 24.717,97.957 L24.717,97.957 C24.216,98.458 23.404,98.458 22.902,97.957 L20.11,95.164 C19.609,94.663 19.609,93.85 20.11,93.349 z" fill="#D8D8D8" id="Rectangle-2"/>
        <path d="M24.698,93.33 L24.698,93.33 C25.199,93.831 25.199,94.643 24.698,95.144 L21.905,97.937 C21.404,98.438 20.591,98.438 20.09,97.937 L20.09,97.937 C19.589,97.436 19.589,96.624 20.09,96.123 L22.883,93.33 C23.384,92.829 24.196,92.829 24.698,93.33 z" fill="#D8D8D8" id="Rectangle-2"/>
      </g>
      <g id="Group">
        <path d="M163.593,128.286 L163.593,128.286 C164.094,127.785 164.906,127.785 165.407,128.286 L168.2,131.079 C168.701,131.58 168.701,132.393 168.2,132.894 L168.2,132.894 C167.699,133.395 166.886,133.395 166.385,132.894 L163.593,130.101 C163.092,129.6 163.092,128.787 163.593,128.286 z" fill="#D8D8D8" id="Rectangle-2"/>
        <path d="M168.18,128.267 L168.18,128.267 C168.681,128.768 168.681,129.58 168.18,130.081 L165.388,132.874 C164.887,133.375 164.074,133.375 163.573,132.874 L163.573,132.874 C163.072,132.373 163.072,131.561 163.573,131.06 L166.366,128.267 C166.867,127.766 167.679,127.766 168.18,128.267 z" fill="#D8D8D8" id="Rectangle-2"/>
      </g>
      <path d="M73.479,60.004 C73.479,61.411 72.33,62.552 70.913,62.552 C69.496,62.552 68.347,61.411 68.347,60.004 C68.347,58.597 69.496,57.457 70.913,57.457 C72.33,57.457 73.479,58.597 73.479,60.004 z" fill="#D8D8D8" id="Oval-2"/>
      <path d="M45.279,74.562 C45.279,75.969 44.13,77.109 42.713,77.109 C41.296,77.109 40.147,75.969 40.147,74.562 C40.147,73.155 41.296,72.015 42.713,72.015 C44.13,72.015 45.279,73.155 45.279,74.562 z" fill="#D8D8D8" id="Oval-2"/>
      <path d="M121.881,47.451 C121.881,48.657 120.903,49.635 119.697,49.635 C118.491,49.635 117.513,48.657 117.513,47.451 C117.513,46.244 118.491,45.267 119.697,45.267 C120.903,45.267 121.881,46.244 121.881,47.451 z" fill="#D8D8D8" id="Oval-3"/>
      <path d="M179.618,53.576 C179.618,54.782 178.64,55.76 177.434,55.76 C176.228,55.76 175.25,54.782 175.25,53.576 C175.25,52.369 176.228,51.392 177.434,51.392 C178.64,51.392 179.618,52.369 179.618,53.576 z" fill="#D8D8D8" id="Oval-3"/>
      <path d="M55.653,52.909 C55.653,54.115 54.675,55.093 53.469,55.093 C52.263,55.093 51.285,54.115 51.285,52.909 C51.285,51.703 52.263,50.725 53.469,50.725 C54.675,50.725 55.653,51.703 55.653,52.909 z" fill="#D8D8D8" id="Oval-3"/>
      <path d="M148.279,60.864 C148.206,62.269 146.999,63.349 145.584,63.275 C144.169,63.202 143.081,62.003 143.154,60.598 C143.227,59.193 144.433,58.114 145.848,58.187 C147.264,58.261 148.352,59.459 148.279,60.864 z" fill-opacity="0" stroke="#D8D8D8" stroke-width="1" id="Oval"/>
      <path d="M158.529,32.364 C158.456,33.769 157.249,34.849 155.834,34.775 C154.419,34.702 153.331,33.503 153.404,32.098 C153.477,30.693 154.683,29.614 156.098,29.687 C157.514,29.761 158.602,30.959 158.529,32.364 z" fill-opacity="0" stroke="#D8D8D8" stroke-width="1" id="Oval"/>
      <path d="M180,100.036 C180,101.443 178.851,102.584 177.434,102.584 C176.017,102.584 174.868,101.443 174.868,100.036 C174.868,98.629 176.017,97.489 177.434,97.489 C178.851,97.489 180,98.629 180,100.036 z" fill-opacity="0" stroke="#D8D8D8" stroke-width="1" id="Oval"/>
      <path d="M33.675,135.781 L36.157,138.264 L38.669,135.752 L36.187,133.269 L33.675,135.781 z" fill-opacity="0" stroke="#D8D8D8" stroke-width="1" id="Rectangle-3"/>
      <path d="M25.093,42.784 L27.575,45.267 L30.087,42.755 L27.605,40.272 L25.093,42.784 z" fill-opacity="0" stroke="#D8D8D8" stroke-width="1" id="Rectangle-3"/>
      <g>
        <path d="M70.959,93.954 L128.756,93.954" fill="url(#Gradient_2)"/>
        <path d="M70.959,93.954 L128.756,93.954" fill-opacity="0" stroke="#444444" stroke-width="5" stroke-linecap="round"/>
      </g>
      <g>
        <path d="M70.959,114.092 L128.756,114.092" fill="url(#Gradient_3)"/>
        <path d="M70.959,114.092 L128.756,114.092" fill-opacity="0" stroke="#444444" stroke-width="5" stroke-linecap="round"/>
      </g>
      <g>
        <path d="M70.959,133.269 L128.756,133.269" fill="url(#Gradient_4)"/>
        <path d="M70.959,133.269 L128.756,133.269" fill-opacity="0" stroke="#444444" stroke-width="5" stroke-linecap="round"/>
      </g>
    </g>
  </g>
</svg>
