<?xml version="1.0" encoding="UTF-8"?>
<!DOCTYPE svg PUBLIC "-//W3C//DTD SVG 1.1//EN" "http://www.w3.org/Graphics/SVG/1.1/DTD/svg11.dtd">
<svg version="1.1" xmlns="http://www.w3.org/2000/svg" xmlns:xlink="http://www.w3.org/1999/xlink" x="0" y="0" width="200" height="200" viewBox="0, 0, 200, 200">
  <defs>
    <linearGradient id="Gradient_1" gradientUnits="userSpaceOnUse" x1="-17.456" y1="158.979" x2="43.31" y2="140.497" gradientTransform="matrix(0.826, -0.564, 0.564, 0.826, 0, 0)">
      <stop offset="0" stop-color="#2B5E7C" stop-opacity="0.514"/>
      <stop offset="1" stop-color="#2B5E7C"/>
    </linearGradient>
  </defs>
  <g id="Layer_1">
    <g>
      <path d="M102.499,127.15 C82.903,140.534 63.717,146.553 59.646,140.592 C55.575,134.632 68.161,118.95 87.757,105.566 C107.353,92.182 126.539,86.163 130.61,92.123 C134.681,98.083 122.095,113.765 102.499,127.15 z" fill="url(#Gradient_1)"/>
      <path d="M52.227,126.15 C52.227,129.798 49.267,132.759 45.619,132.759 C41.969,132.759 39.012,129.798 39.012,126.15 C39.012,122.5 41.969,119.542 45.619,119.542 C49.267,119.542 52.227,122.5 52.227,126.15 z M52.227,126.15" fill="#709DB7"/>
      <path d="M45.62,134.96 C40.76,134.96 36.809,131.009 36.809,126.151 C36.809,121.293 40.76,117.34 45.62,117.34 C50.478,117.34 54.43,121.293 54.43,126.151 C54.43,131.009 50.478,134.96 45.62,134.96 z M45.62,121.745 C43.191,121.745 41.214,123.721 41.214,126.151 C41.214,128.58 43.191,130.557 45.62,130.557 C48.049,130.557 50.025,128.58 50.025,126.151 C50.025,123.721 48.049,121.745 45.62,121.745 z M45.62,121.745" fill="#2B5E7C"/>
      <g id="Group">
        <path d="M165.887,73.939 L165.887,73.939 C166.595,73.939 167.17,74.514 167.17,75.222 L167.17,80.299 C167.17,81.007 166.595,81.582 165.887,81.582 L165.887,81.582 C165.178,81.582 164.603,81.007 164.603,80.299 L164.603,75.222 C164.603,74.514 165.178,73.939 165.887,73.939 z" fill="#D8D8D8" id="Rectangle-2"/>
        <path d="M169.708,77.76 L169.708,77.76 C169.708,78.469 169.133,79.043 168.425,79.043 L163.348,79.043 C162.64,79.043 162.065,78.469 162.065,77.76 L162.065,77.76 C162.065,77.052 162.64,76.477 163.348,76.477 L168.425,76.477 C169.133,76.477 169.708,77.052 169.708,77.76 z" fill="#D8D8D8" id="Rectangle-2"/>
      </g>
      <g id="Group">
        <path d="M83.22,35.939 L83.22,35.939 C83.928,35.939 84.503,36.514 84.503,37.222 L84.503,42.299 C84.503,43.007 83.928,43.582 83.22,43.582 L83.22,43.582 C82.511,43.582 81.937,43.007 81.937,42.299 L81.937,37.222 C81.937,36.514 82.511,35.939 83.22,35.939 z" fill="#D8D8D8" id="Rectangle-2"/>
        <path d="M87.041,39.76 L87.041,39.76 C87.041,40.469 86.466,41.043 85.758,41.043 L80.682,41.043 C79.973,41.043 79.399,40.469 79.399,39.76 L79.399,39.76 C79.399,39.052 79.973,38.477 80.682,38.477 L85.758,38.477 C86.466,38.477 87.041,39.052 87.041,39.76 z" fill="#D8D8D8" id="Rectangle-2"/>
      </g>
      <g id="Group">
        <path d="M20.11,95.274 L20.11,95.274 C20.611,94.773 21.423,94.773 21.924,95.274 L24.717,98.067 C25.218,98.568 25.218,99.38 24.717,99.881 L24.717,99.881 C24.216,100.382 23.404,100.382 22.902,99.881 L20.11,97.088 C19.609,96.587 19.609,95.775 20.11,95.274 z" fill="#D8D8D8" id="Rectangle-2"/>
        <path d="M24.698,95.255 L24.698,95.255 C25.199,95.756 25.199,96.568 24.698,97.069 L21.905,99.862 C21.404,100.363 20.591,100.363 20.09,99.862 L20.09,99.862 C19.589,99.361 19.589,98.548 20.09,98.047 L22.883,95.255 C23.384,94.753 24.196,94.753 24.698,95.255 z" fill="#D8D8D8" id="Rectangle-2"/>
      </g>
      <g id="Group">
        <path d="M163.593,130.211 L163.593,130.211 C164.094,129.71 164.906,129.71 165.407,130.211 L168.2,133.004 C168.701,133.505 168.701,134.317 168.2,134.818 L168.2,134.818 C167.699,135.319 166.886,135.319 166.385,134.818 L163.593,132.026 C163.092,131.524 163.092,130.712 163.593,130.211 z" fill="#D8D8D8" id="Rectangle-2"/>
        <path d="M168.18,130.192 L168.18,130.192 C168.681,130.693 168.681,131.505 168.18,132.006 L165.388,134.799 C164.887,135.3 164.074,135.3 163.573,134.799 L163.573,134.799 C163.072,134.298 163.072,133.485 163.573,132.984 L166.366,130.192 C166.867,129.691 167.679,129.691 168.18,130.192 z" fill="#D8D8D8" id="Rectangle-2"/>
      </g>
      <path d="M73.479,61.929 C73.479,63.336 72.33,64.476 70.913,64.476 C69.496,64.476 68.347,63.336 68.347,61.929 C68.347,60.522 69.496,59.382 70.913,59.382 C72.33,59.382 73.479,60.522 73.479,61.929 z" fill="#D8D8D8" id="Oval-2"/>
      <path d="M45.279,76.487 C45.279,77.894 44.13,79.034 42.713,79.034 C41.296,79.034 40.147,77.894 40.147,76.487 C40.147,75.08 41.296,73.939 42.713,73.939 C44.13,73.939 45.279,75.08 45.279,76.487 z" fill="#D8D8D8" id="Oval-2"/>
      <path d="M121.881,49.375 C121.881,50.581 120.903,51.559 119.697,51.559 C118.491,51.559 117.513,50.581 117.513,49.375 C117.513,48.169 118.491,47.191 119.697,47.191 C120.903,47.191 121.881,48.169 121.881,49.375 z" fill="#D8D8D8" id="Oval-3"/>
      <path d="M179.618,55.5 C179.618,56.706 178.64,57.684 177.434,57.684 C176.228,57.684 175.25,56.706 175.25,55.5 C175.25,54.294 176.228,53.316 177.434,53.316 C178.64,53.316 179.618,54.294 179.618,55.5 z" fill="#D8D8D8" id="Oval-3"/>
      <path d="M55.653,54.834 C55.653,56.04 54.675,57.018 53.469,57.018 C52.263,57.018 51.285,56.04 51.285,54.834 C51.285,53.627 52.263,52.65 53.469,52.65 C54.675,52.65 55.653,53.627 55.653,54.834 z" fill="#D8D8D8" id="Oval-3"/>
      <path d="M148.279,62.789 C148.206,64.194 146.999,65.273 145.584,65.2 C144.169,65.126 143.081,63.928 143.154,62.523 C143.227,61.118 144.433,60.038 145.848,60.112 C147.264,60.185 148.352,61.384 148.279,62.789 z" fill-opacity="0" stroke="#D8D8D8" stroke-width="1" id="Oval"/>
      <path d="M158.529,34.289 C158.456,35.694 157.249,36.773 155.834,36.7 C154.419,36.626 153.331,35.428 153.404,34.023 C153.477,32.618 154.683,31.538 156.098,31.612 C157.514,31.685 158.602,32.884 158.529,34.289 z" fill-opacity="0" stroke="#D8D8D8" stroke-width="1" id="Oval"/>
      <path d="M180,101.961 C180,103.368 178.851,104.508 177.434,104.508 C176.017,104.508 174.868,103.368 174.868,101.961 C174.868,100.554 176.017,99.414 177.434,99.414 C178.851,99.414 180,100.554 180,101.961 z" fill-opacity="0" stroke="#D8D8D8" stroke-width="1" id="Oval"/>
      <path d="M25.093,127.333 L27.575,129.816 L30.087,127.304 L27.605,124.821 L25.093,127.333 z" fill-opacity="0" stroke="#D8D8D8" stroke-width="1" id="Rectangle-3"/>
      <path d="M25.093,44.709 L27.575,47.191 L30.087,44.679 L27.605,42.197 L25.093,44.709 z" fill-opacity="0" stroke="#D8D8D8" stroke-width="1" id="Rectangle-3"/>
      <path d="M123.775,132.598 L121.026,129.157 C145.368,109.697 158.966,88.055 152.656,78.819 C149.637,74.402 142.722,73.911 137.476,74.271 L137.171,69.877 C146.367,69.243 152.974,71.475 156.293,76.334 C164.167,87.86 150.795,110.997 123.775,132.598 z M123.775,132.598" fill="#444444"/>
      <path d="M53.115,165.208 C45.56,165.208 39.885,163.06 36.881,158.661 C33.51,153.729 33.892,146.634 37.987,138.145 L41.952,140.056 C39.604,144.93 37.448,151.684 40.519,156.176 C46.512,164.952 69.545,161.112 95.283,147.045 L97.395,150.91 C80.166,160.327 64.505,165.207 53.115,165.208 z M53.115,165.208" fill="#444444"/>
      <path d="M57.037,118.926 L53.875,115.857 C61.247,108.262 70.324,100.708 80.125,94.014 C88.845,88.057 97.72,83.016 106.506,79.034 L108.326,83.045 C99.77,86.924 91.118,91.838 82.611,97.65 C73.051,104.182 64.207,111.539 57.037,118.926 z M57.037,118.926" fill="#444444"/>
      <path d="M64.972,145.651 C61.295,145.652 58.705,144.576 57.24,142.435 C54.636,138.622 56.55,132.557 62.777,124.896 C68.377,118.007 76.901,110.497 86.775,103.75 C105.74,90.796 127.896,82.013 133.553,90.294 C139.211,98.578 122.978,116.025 104.018,128.981 C100.707,131.242 97.33,133.358 93.98,135.268 L91.799,131.443 C95.046,129.589 98.32,127.537 101.532,125.345 C122.605,110.947 132.417,96.44 129.915,92.779 C127.416,89.121 110.331,92.991 89.264,107.387 C79.727,113.9 71.534,121.106 66.196,127.677 C60.7,134.436 59.898,138.512 60.878,139.951 C61.775,141.256 64.739,141.595 68.816,140.856 L69.603,145.19 C67.906,145.497 66.36,145.651 64.972,145.651 z M64.972,145.651" fill="#444444"/>
      <path d="M131.375,75.489 C131.375,80.356 127.431,84.3 122.566,84.3 C117.7,84.3 113.754,80.356 113.754,75.489 C113.754,70.623 117.7,66.679 122.566,66.679 C127.431,66.679 131.375,70.623 131.375,75.489 z M131.375,75.489" fill="#709DB7"/>
      <path d="M122.565,86.502 C116.492,86.502 111.552,81.561 111.552,75.49 C111.552,69.417 116.492,64.476 122.565,64.476 C128.637,64.476 133.577,69.417 133.577,75.49 C133.577,81.561 128.637,86.502 122.565,86.502 z M122.565,68.882 C118.922,68.882 115.957,71.847 115.957,75.49 C115.957,79.133 118.922,82.097 122.565,82.097 C126.209,82.097 129.172,79.133 129.172,75.49 C129.172,71.847 126.209,68.882 122.565,68.882 z M122.565,68.882" fill="#2B5E7C"/>
      <path d="M87.324,137.162 C87.324,140.811 84.364,143.771 80.715,143.771 C77.066,143.771 74.108,140.811 74.108,137.162 C74.108,133.513 77.066,130.555 80.715,130.555 C84.364,130.555 87.324,133.513 87.324,137.162 z M87.324,137.162" fill="#2B5E7C"/>
      <path d="M80.716,145.973 C75.857,145.973 71.906,142.02 71.906,137.163 C71.906,132.304 75.857,128.353 80.716,128.353 C85.575,128.353 89.526,132.304 89.526,137.163 C89.526,142.02 85.575,145.973 80.716,145.973 z M80.716,132.759 C78.288,132.759 76.311,134.734 76.311,137.163 C76.311,139.592 78.288,141.568 80.716,141.568 C83.145,141.568 85.121,139.592 85.121,137.163 C85.121,134.734 83.145,132.759 80.716,132.759 z M80.716,132.759" fill="#444444"/>
      <path d="M153.4,106.326 C153.4,109.976 150.443,112.935 146.793,112.935 C143.143,112.935 140.186,109.976 140.186,106.326 C140.186,102.676 143.143,99.718 146.793,99.718 C150.443,99.718 153.4,102.676 153.4,106.326 z M153.4,106.326" fill="#2B5E7C"/>
      <path d="M146.938,115.137 C142.079,115.137 138.127,111.183 138.127,106.325 C138.127,101.468 142.079,97.516 146.938,97.516 C151.797,97.516 155.748,101.468 155.748,106.325 C155.748,111.183 151.797,115.137 146.938,115.137 z M146.938,101.92 C144.51,101.92 142.533,103.896 142.533,106.325 C142.533,108.754 144.51,110.73 146.938,110.73 C149.366,110.73 151.343,108.754 151.343,106.325 C151.343,103.896 149.366,101.92 146.938,101.92 z M146.938,101.92" fill="#444444"/>
      <path d="M47.821,159.189 C47.821,162.839 44.863,165.798 41.214,165.798 C37.564,165.798 34.606,162.839 34.606,159.189 C34.606,155.54 37.564,152.581 41.214,152.581 C44.863,152.581 47.821,155.54 47.821,159.189 z M47.821,159.189" fill="#709DB7"/>
      <path d="M118.159,139.364 C118.159,144.23 114.216,148.176 109.35,148.176 C104.483,148.176 100.538,144.23 100.538,139.364 C100.538,134.499 104.483,130.555 109.35,130.555 C114.216,130.555 118.159,134.499 118.159,139.364 z M118.159,139.364" fill="#2B5E7C"/>
      <path d="M109.494,150.379 C103.422,150.379 98.481,145.437 98.481,139.364 C98.481,133.294 103.422,128.352 109.494,128.352 C115.566,128.352 120.507,133.294 120.507,139.364 C120.507,145.437 115.566,150.379 109.494,150.379 z M109.494,132.759 C105.85,132.759 102.886,135.721 102.886,139.364 C102.886,143.008 105.85,145.973 109.494,145.973 C113.138,145.973 116.102,143.008 116.102,139.364 C116.102,135.721 113.138,132.759 109.494,132.759 z M109.494,132.759" fill="#444444"/>
      <path d="M62.262,91.409 C61.044,91.409 60.058,90.422 60.058,89.206 L60.058,80.395 C60.058,79.179 61.044,78.193 62.262,78.193 C63.479,78.193 64.463,79.179 64.463,80.395 L64.463,89.206 C64.463,90.422 63.479,91.409 62.262,91.409 z M62.262,91.409" fill="#D8D8D8"/>
      <path d="M66.667,87.002 L57.855,87.002 C56.637,87.002 55.653,86.017 55.653,84.8 C55.653,83.585 56.637,82.597 57.855,82.597 L66.667,82.597 C67.883,82.597 68.869,83.585 68.869,84.8 C68.869,86.017 67.883,87.002 66.667,87.002 z M66.667,87.002" fill="#D8D8D8"/>
      <path d="M135.924,163.593 C134.706,163.593 133.722,162.608 133.722,161.391 L133.722,152.58 C133.722,151.365 134.706,150.379 135.924,150.379 C137.142,150.379 138.127,151.365 138.127,152.58 L138.127,161.391 C138.127,162.608 137.142,163.593 135.924,163.593 z M135.924,163.593" fill="#D8D8D8"/>
      <path d="M140.331,159.188 L131.519,159.188 C130.303,159.188 129.317,158.203 129.317,156.985 C129.317,155.768 130.303,154.783 131.519,154.783 L140.331,154.783 C141.548,154.783 142.533,155.768 142.533,156.985 C142.533,158.203 141.548,159.188 140.331,159.188 z M140.331,159.188" fill="#D8D8D8"/>
      <path d="M41.214,168 C36.355,168 32.403,164.046 32.403,159.188 C32.403,154.331 36.355,150.379 41.214,150.379 C46.073,150.379 50.024,154.331 50.024,159.188 C50.024,164.046 46.073,168 41.214,168 z M41.214,154.783 C38.786,154.783 36.809,156.759 36.809,159.188 C36.809,161.618 38.786,163.593 41.214,163.593 C43.642,163.593 45.619,161.618 45.619,159.188 C45.619,156.759 43.642,154.783 41.214,154.783 z M41.214,154.783" fill="#2B5E7C"/>
    </g>
  </g>
</svg>
