<?xml version="1.0" encoding="UTF-8"?>
<!DOCTYPE svg PUBLIC "-//W3C//DTD SVG 1.1//EN" "http://www.w3.org/Graphics/SVG/1.1/DTD/svg11.dtd">
<svg version="1.1" xmlns="http://www.w3.org/2000/svg" xmlns:xlink="http://www.w3.org/1999/xlink" x="0" y="0" width="400" height="300" viewBox="0, 0, 400, 300">
  <defs>
    <linearGradient id="Gradient_1" gradientUnits="userSpaceOnUse" x1="942.13" y1="464.098" x2="934.199" y2="445.726">
      <stop offset="0" stop-color="#000000"/>
      <stop offset="1" stop-color="#2B5E7C"/>
    </linearGradient>
    <clipPath id="Clip_1">
      <path d="M22.556,161.462 L180.028,161.462 L180.028,302 L22.556,302 z"/>
    </clipPath>
  </defs>
  <g id="Layer_1">
    <g>
      <g>
        <path d="M518.947,-78.188 L661.801,-99.05 C668.917,-100.089 675.529,-95.162 676.568,-88.046 L691.133,11.686 C692.172,18.803 687.245,25.414 680.129,26.453 L537.275,47.316 C530.159,48.355 523.547,43.428 522.508,36.312 L507.943,-63.42 C506.904,-70.537 511.831,-77.148 518.947,-78.188 z" fill="#DDDDDD"/>
        <path d="M518.947,-78.188 L661.801,-99.05 C668.917,-100.089 675.529,-95.162 676.568,-88.046 L691.133,11.686 C692.172,18.803 687.245,25.414 680.129,26.453 L537.275,47.316 C530.159,48.355 523.547,43.428 522.508,36.312 L507.943,-63.42 C506.904,-70.537 511.831,-77.148 518.947,-78.188 z" fill-opacity="0" stroke="#FFFFFF" stroke-width="4"/>
      </g>
      <path d="M576.846,-26.709 C568.329,-25.465 560.415,-31.362 559.171,-39.879 C557.927,-48.397 563.824,-56.31 572.342,-57.554 C580.859,-58.798 588.772,-52.902 590.016,-44.384 C591.26,-35.866 585.364,-27.953 576.846,-26.709 z" fill="#FFFFFF"/>
      <path d="M663.709,14.251 L639.548,17.643 L564.542,28.597 L548.637,30.736 L572.606,-14.539 L583.982,-2.214 L606.109,-47.405 z" fill="#FFFFFF"/>
    </g>
    <g>
      <g>
        <path d="M549.804,-62.373 L694.173,-62.373 C701.365,-62.373 707.195,-56.542 707.195,-49.35 L707.195,51.439 C707.195,58.631 701.365,64.462 694.173,64.462 L549.804,64.462 C542.612,64.462 536.782,58.631 536.782,51.439 L536.782,-49.35 C536.782,-56.542 542.612,-62.373 549.804,-62.373 z" fill="#DDDDDD"/>
        <path d="M549.804,-62.373 L694.173,-62.373 C701.365,-62.373 707.195,-56.542 707.195,-49.35 L707.195,51.439 C707.195,58.631 701.365,64.462 694.173,64.462 L549.804,64.462 C542.612,64.462 536.782,58.631 536.782,51.439 L536.782,-49.35 C536.782,-56.542 542.612,-62.373 549.804,-62.373 z" fill-opacity="0" stroke="#FFFFFF" stroke-width="4"/>
      </g>
    </g>
    <g>
      <path d="M71.149,-15.631 L71.149,-126.849 Q71.149,-129.14 72.039,-130.624 Q72.929,-132.109 74.252,-132.109 L85.643,-132.109 Q86.966,-132.109 87.855,-130.624 Q88.745,-129.14 88.745,-126.849 L88.745,-15.631 Q88.745,-13.426 87.855,-11.941 Q86.966,-10.456 85.643,-10.456 L74.252,-10.456 Q72.929,-10.456 72.039,-11.941 Q71.149,-13.426 71.149,-15.631 z" fill="#2C5E7C"/>
      <g>
        <path d="M99.056,-13.045 L99.056,-86.682 Q99.056,-87.88 100.011,-88.657 Q100.966,-89.434 102.44,-89.434 L130.27,-89.434 Q131.688,-89.434 132.643,-88.657 Q133.598,-87.88 133.598,-86.682 L133.598,-73.786 Q133.598,-72.587 132.643,-71.811 Q131.688,-71.034 130.27,-71.034 L116.846,-71.034 L116.846,-28.274 L130.27,-28.274 Q131.688,-28.274 132.643,-27.497 Q133.598,-26.721 133.598,-25.567 L133.598,-13.045 Q133.598,-11.891 132.643,-11.114 Q131.688,-10.338 130.27,-10.338 L102.44,-10.338 Q100.966,-10.338 100.011,-11.114 Q99.056,-11.891 99.056,-13.045 z" fill="#2C5E7C"/>
        <path d="M172.633,-86.726 L172.633,-13.09 Q172.633,-11.891 171.678,-11.114 Q170.723,-10.338 169.25,-10.338 L141.42,-10.338 Q140.001,-10.338 139.046,-11.114 Q138.091,-11.891 138.091,-13.09 L138.091,-25.497 Q138.091,-26.695 139.046,-27.472 Q140.001,-28.249 141.42,-28.249 L154.844,-28.249 L154.844,-71.078 L141.42,-71.078 Q140.001,-71.078 139.046,-71.855 Q138.091,-72.632 138.091,-73.786 L138.091,-86.726 Q138.091,-87.88 139.046,-88.657 Q140.001,-89.434 141.42,-89.434 L169.25,-89.434 Q170.723,-89.434 171.678,-88.657 Q172.633,-87.88 172.633,-86.726 z" fill="#2C5E7C"/>
      </g>
      <path d="M-199.734,-48.164 L-199.734,-51.677 Q-199.734,-56.41 -196.465,-59.493 L-165.464,-88.392 Q-163.557,-90.041 -162.113,-89.073 Q-160.67,-88.105 -160.67,-85.452 L-160.67,-73.118 Q-160.67,-67.812 -165.464,-63.437 L-179.957,-49.956 L-165.464,-36.404 Q-160.67,-32.03 -160.67,-26.723 L-160.67,-14.389 Q-160.67,-11.736 -162.113,-10.804 Q-163.557,-9.872 -165.464,-11.449 L-196.465,-40.419 Q-199.734,-43.431 -199.734,-48.164 z" fill="#3B3B3B"/>
      <path d="M-138.699,-95.687 L-138.699,-130.464 Q-138.699,-131.18 -137.809,-131.644 Q-136.919,-132.109 -135.597,-132.109 L-124.205,-132.109 Q-122.883,-132.109 -121.993,-131.644 Q-121.103,-131.18 -121.103,-130.464 L-121.103,-95.687 Q-121.103,-94.997 -121.993,-94.533 Q-122.883,-94.069 -124.205,-94.069 L-135.597,-94.069 Q-136.919,-94.069 -137.809,-94.533 Q-138.699,-94.997 -138.699,-95.687 z" fill="#3B3B3B"/>
      <path d="M-115.133,-95.687 L-115.133,-107.011 Q-115.133,-107.727 -114.243,-108.192 Q-113.353,-108.656 -112.031,-108.656 L-100.639,-108.656 Q-99.317,-108.656 -98.427,-108.192 Q-97.537,-107.727 -97.537,-107.011 L-97.537,-95.687 Q-97.537,-94.997 -98.427,-94.533 Q-99.317,-94.069 -100.639,-94.069 L-112.031,-94.069 Q-113.353,-94.069 -114.243,-94.533 Q-115.133,-94.997 -115.133,-95.687 z" fill="#3B3B3B"/>
      <path d="M-121.103,-86.728 L-121.103,-13.206 Q-121.103,-12.009 -122.057,-11.233 Q-123.01,-10.458 -124.481,-10.458 L-152.268,-10.458 Q-153.684,-10.458 -154.638,-11.233 Q-155.591,-12.009 -155.591,-13.206 L-155.591,-25.593 Q-155.591,-26.79 -154.638,-27.565 Q-153.684,-28.341 -152.268,-28.341 L-138.865,-28.341 L-138.865,-71.104 L-152.268,-71.104 Q-153.684,-71.104 -154.638,-71.879 Q-155.591,-72.655 -155.591,-73.807 L-155.591,-86.728 Q-155.591,-87.88 -154.638,-88.655 Q-153.684,-89.431 -152.268,-89.431 L-124.481,-89.431 Q-123.01,-89.431 -122.057,-88.655 Q-121.103,-87.88 -121.103,-86.728 z" fill="#3B3B3B"/>
      <g>
        <path d="M62.711,-51.725 L62.711,-48.211 Q62.711,-43.479 59.442,-40.395 L28.44,-11.497 Q26.533,-9.848 25.09,-10.816 Q23.646,-11.784 23.646,-14.437 L23.646,-26.771 Q23.646,-32.077 28.44,-36.451 L42.933,-49.932 L28.44,-63.485 Q23.646,-67.859 23.646,-73.166 L23.646,-85.499 Q23.646,-88.152 25.09,-89.085 Q26.533,-90.017 28.44,-88.439 L59.442,-59.469 Q62.711,-56.458 62.711,-51.725 z" fill="#2C5E7C"/>
        <path d="M-15.921,-95.687 L-15.921,-130.464 Q-15.921,-131.18 -15.031,-131.644 Q-14.141,-132.109 -12.818,-132.109 L-1.427,-132.109 Q-0.105,-132.109 0.785,-131.644 Q1.675,-131.18 1.675,-130.464 L1.675,-95.687 Q1.675,-94.997 0.785,-94.533 Q-0.105,-94.069 -1.427,-94.069 L-12.818,-94.069 Q-14.141,-94.069 -15.031,-94.533 Q-15.921,-94.997 -15.921,-95.687 z" fill="#2C5E7C"/>
        <path d="M-15.921,-13.161 L-15.921,-86.683 Q-15.921,-87.88 -14.967,-88.655 Q-14.014,-89.431 -12.543,-89.431 L15.244,-89.431 Q16.661,-89.431 17.614,-88.655 Q18.568,-87.88 18.568,-86.683 L18.568,-74.295 Q18.568,-73.099 17.614,-72.323 Q16.661,-71.548 15.244,-71.548 L1.841,-71.548 L1.841,-28.785 L15.244,-28.785 Q16.661,-28.785 17.614,-28.009 Q18.568,-27.234 18.568,-26.081 L18.568,-13.161 Q18.568,-12.009 17.614,-11.233 Q16.661,-10.458 15.244,-10.458 L-12.543,-10.458 Q-14.014,-10.458 -14.967,-11.233 Q-15.921,-12.009 -15.921,-13.161 z" fill="#2C5E7C"/>
      </g>
      <path d="M-115.761,-14.839 L-115.761,-84.933 Q-115.761,-86.927 -114.807,-88.183 Q-113.854,-89.438 -112.437,-89.438 L-100.233,-89.438 Q-98.762,-89.438 -97.836,-88.146 Q-96.909,-86.853 -96.909,-84.933 L-96.909,-14.839 Q-96.909,-12.845 -97.863,-11.589 Q-98.816,-10.333 -100.233,-10.333 L-112.437,-10.333 Q-113.908,-10.333 -114.835,-11.589 Q-115.761,-12.845 -115.761,-14.839 z" fill="#3B3B3B"/>
      <path d="M-89.537,-89.429 L-79.076,-89.429 Q-76.733,-89.429 -74.663,-87.664 Q-72.593,-85.899 -71.721,-83.088 L-56.847,-38.198 L-42.027,-83.088 Q-41.155,-85.899 -39.085,-87.664 Q-37.015,-89.429 -34.672,-89.429 L-24.157,-89.429 Q-22.25,-89.429 -21.65,-87.556 Q-21.378,-86.835 -21.405,-85.718 Q-21.432,-84.602 -21.923,-83.088 L-45.46,-16.797 Q-46.44,-13.987 -48.538,-12.222 Q-50.636,-10.456 -52.869,-10.456 L-60.879,-10.456 Q-63.112,-10.456 -65.183,-12.222 Q-67.253,-13.987 -68.234,-16.797 L-91.771,-83.088 Q-92.316,-84.674 -92.316,-85.755 Q-92.316,-89.429 -89.537,-89.429 z" fill="#3B3B3B"/>
      <g>
        <path d="M222.269,-48.167 L222.269,-51.68 Q222.269,-56.413 225.538,-59.496 L256.539,-88.395 Q258.446,-90.044 259.89,-89.076 Q261.333,-88.108 261.333,-85.455 L261.333,-73.121 Q261.333,-67.815 256.539,-63.44 L242.046,-49.959 L256.539,-36.407 Q261.333,-32.033 261.333,-26.726 L261.333,-14.392 Q261.333,-11.739 259.89,-10.807 Q258.446,-9.875 256.539,-11.452 L225.538,-40.422 Q222.269,-43.434 222.269,-48.167 z" fill="#2C5E7C"/>
        <path d="M220.269,-51.605 L220.269,-48.091 Q220.269,-43.359 217,-40.275 L185.998,-11.377 Q184.091,-9.728 182.648,-10.696 Q181.204,-11.664 181.204,-14.317 L181.204,-26.651 Q181.204,-31.957 185.998,-36.331 L200.491,-49.812 L185.998,-63.365 Q181.204,-67.739 181.204,-73.045 L181.204,-85.379 Q181.204,-88.032 182.648,-88.965 Q184.091,-89.897 185.998,-88.319 L217,-59.349 Q220.269,-56.338 220.269,-51.605 z" fill="#2C5E7C"/>
      </g>
    </g>
    <g>
      <g>
        <path d="M846.069,286.145 L876.378,286.145 C878.973,286.145 881.084,284.049 881.084,281.474 L881.084,272.106 C881.084,269.531 878.973,267.436 876.378,267.436 L846.069,267.436 C843.474,267.436 841.363,269.531 841.363,272.106 L841.363,281.474 C841.363,284.049 843.474,286.145 846.069,286.145 z M846.069,286.145" fill="#DDDDDD"/>
        <path d="M924.28,281.474 L924.28,272.106 C924.28,269.531 922.169,267.436 919.574,267.436 L889.265,267.436 C886.669,267.436 884.559,269.531 884.559,272.106 L884.559,281.474 C884.559,284.049 886.669,286.145 889.265,286.145 L919.574,286.145 C922.169,286.145 924.28,284.049 924.28,281.474 z M924.28,281.474" fill="#DDDDDD"/>
        <path d="M967.475,281.474 L967.475,272.106 C967.475,269.531 965.364,267.436 962.769,267.436 L932.46,267.436 C929.865,267.436 927.754,269.531 927.754,272.106 L927.754,281.474 C927.754,284.049 929.865,286.145 932.46,286.145 L962.769,286.145 C965.364,286.145 967.475,284.049 967.475,281.474 z M967.475,281.474" fill="#DDDDDD"/>
        <path d="M1010.671,281.474 L1010.671,272.106 C1010.671,269.531 1008.56,267.436 1005.965,267.436 L975.656,267.436 C973.06,267.436 970.95,269.531 970.95,272.106 L970.95,281.474 C970.95,284.049 973.06,286.145 975.656,286.145 L1005.965,286.145 C1008.56,286.145 1010.671,284.049 1010.671,281.474 z M1010.671,281.474" fill="#DDDDDD"/>
        <path d="M1053.866,281.474 L1053.866,272.106 C1053.866,269.531 1051.755,267.436 1049.16,267.436 L1018.851,267.436 C1016.256,267.436 1014.145,269.531 1014.145,272.106 L1014.145,281.474 C1014.145,284.049 1016.256,286.145 1018.851,286.145 L1049.16,286.145 C1051.755,286.145 1053.866,284.049 1053.866,281.474 z M1053.866,281.474" fill="#DDDDDD"/>
        <path d="M869.614,262.709 L899.923,262.709 C902.518,262.709 904.629,260.614 904.629,258.038 L904.629,248.671 C904.629,246.095 902.518,244 899.923,244 L869.614,244 C867.02,244 864.908,246.095 864.908,248.671 L864.908,258.038 C864.908,260.614 867.02,262.709 869.614,262.709 z M869.614,262.709" fill="#DDDDDD"/>
        <path d="M913.264,262.709 L943.573,262.709 C946.168,262.709 948.279,260.614 948.279,258.038 L948.279,248.671 C948.279,246.095 946.168,244 943.573,244 L913.264,244 C910.669,244 908.558,246.095 908.558,248.671 L908.558,258.038 C908.558,260.614 910.669,262.709 913.264,262.709 z M913.264,262.709" fill="#DDDDDD"/>
        <path d="M956.962,262.709 L987.271,262.709 C989.866,262.709 991.977,260.614 991.977,258.038 L991.977,248.671 C991.977,246.095 989.866,244 987.271,244 L956.962,244 C954.369,244 952.256,246.095 952.256,248.671 L952.256,258.038 C952.256,260.614 954.369,262.709 956.962,262.709 z M956.962,262.709" fill="#DDDDDD"/>
        <path d="M1000.613,262.709 L1030.922,262.709 C1033.517,262.709 1035.628,260.614 1035.628,258.038 L1035.628,248.671 C1035.628,246.095 1033.517,244 1030.922,244 L1000.613,244 C998.017,244 995.907,246.095 995.907,248.671 L995.907,258.038 C995.907,260.614 998.017,262.709 1000.613,262.709 z M1000.613,262.709" fill="#DDDDDD"/>
        <path d="M1044.263,262.709 L1074.572,262.709 C1077.167,262.709 1079.278,260.614 1079.278,258.038 L1079.278,248.671 C1079.278,246.095 1077.167,244 1074.572,244 L1044.263,244 C1041.668,244 1039.557,246.095 1039.557,248.671 L1039.557,258.038 C1039.557,260.614 1041.668,262.709 1044.263,262.709 z M1044.263,262.709" fill="#DDDDDD"/>
        <path d="M1000.613,309.581 L1030.922,309.581 C1033.517,309.581 1035.628,307.486 1035.628,304.91 L1035.628,295.543 C1035.628,292.967 1033.517,290.872 1030.922,290.872 L1000.613,290.872 C998.019,290.872 995.907,292.967 995.907,295.543 L995.907,304.91 C995.907,307.486 998.019,309.581 1000.613,309.581 z M1000.613,309.581" fill="#DDDDDD"/>
        <path d="M1044.263,309.581 L1074.572,309.581 C1077.167,309.581 1079.278,307.486 1079.278,304.91 L1079.278,295.543 C1079.278,292.967 1077.167,290.872 1074.572,290.872 L1044.263,290.872 C1041.668,290.872 1039.557,292.967 1039.557,295.543 L1039.557,304.91 C1039.557,307.486 1041.668,309.581 1044.263,309.581 z M1044.263,309.581" fill="#DDDDDD"/>
        <path d="M876.378,314.306 L846.069,314.306 C843.474,314.306 841.363,316.401 841.363,318.977 L841.363,328.346 C841.363,330.92 843.474,333.017 846.069,333.017 L876.378,333.017 C878.973,333.017 881.084,330.92 881.084,328.346 L881.084,318.977 C881.084,316.401 878.973,314.306 876.378,314.306 z M876.378,314.306" fill="#DDDDDD"/>
        <path d="M919.574,314.306 L889.265,314.306 C886.669,314.306 884.559,316.401 884.559,318.977 L884.559,328.346 C884.559,330.92 886.669,333.017 889.265,333.017 L919.574,333.017 C922.169,333.017 924.28,330.92 924.28,328.346 L924.28,318.977 C924.28,316.401 922.169,314.306 919.574,314.306 z M919.574,314.306" fill="#DDDDDD"/>
        <path d="M962.769,314.306 L932.46,314.306 C929.865,314.306 927.754,316.401 927.754,318.977 L927.754,328.346 C927.754,330.92 929.865,333.017 932.46,333.017 L962.769,333.017 C965.364,333.017 967.475,330.92 967.475,328.346 L967.475,318.977 C967.475,316.401 965.364,314.306 962.769,314.306 z M962.769,314.306" fill="#DDDDDD"/>
        <path d="M1005.965,314.306 L975.656,314.306 C973.06,314.306 970.95,316.401 970.95,318.977 L970.95,328.346 C970.95,330.92 973.06,333.017 975.656,333.017 L1005.965,333.017 C1008.56,333.017 1010.671,330.92 1010.671,328.346 L1010.671,318.977 C1010.671,316.401 1008.56,314.306 1005.965,314.306 z M1005.965,314.306" fill="#DDDDDD"/>
        <path d="M1049.16,314.306 L1018.851,314.306 C1016.256,314.306 1014.145,316.401 1014.145,318.977 L1014.145,328.346 C1014.145,330.92 1016.256,333.017 1018.851,333.017 L1049.16,333.017 C1051.755,333.017 1053.866,330.92 1053.866,328.346 L1053.866,318.977 C1053.866,316.401 1051.755,314.306 1049.16,314.306 z M1049.16,314.306" fill="#DDDDDD"/>
        <path d="M869.614,290.871 C867.02,290.871 864.908,292.967 864.908,295.542 L864.908,304.91 C864.908,307.485 867.02,309.58 869.614,309.58 L899.923,309.58 C902.518,309.58 904.629,307.485 904.629,304.91 L904.629,295.542 C904.629,292.967 902.518,290.871 899.923,290.871 z M869.614,290.871" fill="#DDDDDD"/>
        <path d="M869.614,290.873 C867.02,290.873 864.908,292.968 864.908,295.544 L864.908,304.911 C864.908,307.487 867.02,309.582 869.614,309.582 L899.923,309.582 C902.518,309.582 904.629,307.487 904.629,304.911 L904.629,295.544 C904.629,292.968 902.518,290.873 899.923,290.873 z M869.614,290.873" fill="#DDDDDD"/>
        <path d="M913.264,309.582 L943.573,309.582 C946.168,309.582 948.279,307.487 948.279,304.911 L948.279,295.542 C948.279,292.967 946.168,290.871 943.573,290.871 L913.264,290.871 C910.669,290.871 908.558,292.967 908.558,295.542 L908.558,304.911 C908.558,307.487 910.669,309.582 913.264,309.582 z M913.264,309.582" fill="#DDDDDD"/>
        <path d="M956.962,290.873 C954.369,290.873 952.256,292.968 952.256,295.544 L952.256,304.911 C952.256,307.487 954.369,309.582 956.962,309.582 L987.271,309.582 C989.866,309.582 991.977,307.487 991.977,304.911 L991.977,295.544 C991.977,292.968 989.866,290.873 987.271,290.873 z M956.962,290.873" fill="#DDDDDD"/>
        <path d="M1000.613,356.638 L1030.922,356.638 C1033.517,356.638 1035.628,354.543 1035.628,351.967 L1035.628,342.6 C1035.628,340.024 1033.517,337.929 1030.922,337.929 L1000.613,337.929 C998.019,337.929 995.907,340.024 995.907,342.6 L995.907,351.967 C995.907,354.543 998.019,356.638 1000.613,356.638 z M1000.613,356.638" fill="#DDDDDD"/>
        <path d="M1044.263,356.638 L1074.572,356.638 C1077.167,356.638 1079.278,354.543 1079.278,351.967 L1079.278,342.6 C1079.278,340.024 1077.167,337.929 1074.572,337.929 L1044.263,337.929 C1041.668,337.929 1039.557,340.024 1039.557,342.6 L1039.557,351.967 C1039.557,354.543 1041.668,356.638 1044.263,356.638 z M1044.263,356.638" fill="#DDDDDD"/>
        <path d="M876.378,361.363 L846.069,361.363 C843.474,361.363 841.363,363.458 841.363,366.034 L841.363,375.403 C841.363,377.977 843.474,380.073 846.069,380.073 L876.378,380.073 C878.973,380.073 881.084,377.977 881.084,375.403 L881.084,366.034 C881.084,363.458 878.973,361.363 876.378,361.363 z M876.378,361.363" fill="#DDDDDD"/>
        <path d="M919.574,361.363 L889.265,361.363 C886.669,361.363 884.559,363.458 884.559,366.034 L884.559,375.403 C884.559,377.977 886.669,380.073 889.265,380.073 L919.574,380.073 C922.169,380.073 924.28,377.977 924.28,375.403 L924.28,366.034 C924.28,363.458 922.169,361.363 919.574,361.363 z M919.574,361.363" fill="#DDDDDD"/>
        <path d="M962.769,361.363 L932.46,361.363 C929.865,361.363 927.754,363.458 927.754,366.034 L927.754,375.403 C927.754,377.977 929.865,380.073 932.46,380.073 L962.769,380.073 C965.364,380.073 967.475,377.977 967.475,375.403 L967.475,366.034 C967.475,363.458 965.364,361.363 962.769,361.363 z M962.769,361.363" fill="#DDDDDD"/>
        <path d="M1005.965,361.363 L975.656,361.363 C973.06,361.363 970.95,363.458 970.95,366.034 L970.95,375.403 C970.95,377.977 973.06,380.073 975.656,380.073 L1005.965,380.073 C1008.56,380.073 1010.671,377.977 1010.671,375.403 L1010.671,366.034 C1010.671,363.458 1008.56,361.363 1005.965,361.363 z M1005.965,361.363" fill="#DDDDDD"/>
        <path d="M1049.16,361.363 L1018.851,361.363 C1016.256,361.363 1014.145,363.458 1014.145,366.034 L1014.145,375.403 C1014.145,377.977 1016.256,380.073 1018.851,380.073 L1049.16,380.073 C1051.755,380.073 1053.866,377.977 1053.866,375.403 L1053.866,366.034 C1053.866,363.458 1051.755,361.363 1049.16,361.363 z M1049.16,361.363" fill="#DDDDDD"/>
        <path d="M869.614,337.93 C867.02,337.93 864.908,340.025 864.908,342.6 L864.908,351.968 C864.908,354.543 867.02,356.639 869.614,356.639 L899.923,356.639 C902.518,356.639 904.629,354.543 904.629,351.968 L904.629,342.6 C904.629,340.025 902.518,337.93 899.923,337.93 z M869.614,337.93" fill="#DDDDDD"/>
        <path d="M913.264,356.639 L943.573,356.639 C946.168,356.639 948.279,354.543 948.279,351.968 L948.279,342.599 C948.279,340.023 946.168,337.928 943.573,337.928 L913.264,337.928 C910.669,337.928 908.558,340.023 908.558,342.599 L908.558,351.968 C908.558,354.543 910.669,356.639 913.264,356.639 z M913.264,356.639" fill="#DDDDDD"/>
        <path d="M956.962,337.93 C954.369,337.93 952.256,340.025 952.256,342.6 L952.256,351.968 C952.256,354.543 954.369,356.639 956.962,356.639 L987.271,356.639 C989.866,356.639 991.977,354.543 991.977,351.968 L991.977,342.6 C991.977,340.025 989.866,337.93 987.271,337.93 z M956.962,337.93" fill="#DDDDDD"/>
        <path d="M1000.613,403.354 L1030.922,403.354 C1033.517,403.354 1035.628,401.258 1035.628,398.683 L1035.628,389.315 C1035.628,386.74 1033.517,384.645 1030.922,384.645 L1000.613,384.645 C998.019,384.645 995.907,386.74 995.907,389.315 L995.907,398.683 C995.907,401.258 998.019,403.354 1000.613,403.354 z M1000.613,403.354" fill="#DDDDDD"/>
        <path d="M1044.263,403.354 L1074.572,403.354 C1077.167,403.354 1079.278,401.258 1079.278,398.683 L1079.278,389.315 C1079.278,386.74 1077.167,384.645 1074.572,384.645 L1044.263,384.645 C1041.668,384.645 1039.557,386.74 1039.557,389.315 L1039.557,398.683 C1039.557,401.258 1041.668,403.354 1044.263,403.354 z M1044.263,403.354" fill="#DDDDDD"/>
        <path d="M869.614,384.646 C867.02,384.646 864.908,386.741 864.908,389.316 L864.908,398.684 C864.908,401.259 867.02,403.354 869.614,403.354 L899.923,403.354 C902.518,403.354 904.629,401.259 904.629,398.684 L904.629,389.316 C904.629,386.741 902.518,384.646 899.923,384.646 z M869.614,384.646" fill="#DDDDDD"/>
        <path d="M913.264,403.354 L943.573,403.354 C946.168,403.354 948.279,401.259 948.279,398.684 L948.279,389.315 C948.279,386.739 946.168,384.644 943.573,384.644 L913.264,384.644 C910.669,384.644 908.558,386.739 908.558,389.315 L908.558,398.684 C908.558,401.259 910.669,403.354 913.264,403.354 z M913.264,403.354" fill="#DDDDDD"/>
        <path d="M956.962,384.646 C954.369,384.646 952.256,386.741 952.256,389.316 L952.256,398.684 C952.256,401.259 954.369,403.354 956.962,403.354 L987.271,403.354 C989.866,403.354 991.977,401.259 991.977,398.684 L991.977,389.316 C991.977,386.741 989.866,384.646 987.271,384.646 z M956.962,384.646" fill="#DDDDDD"/>
        <path d="M629.428,286.145 L659.737,286.145 C662.332,286.145 664.443,284.049 664.443,281.474 L664.443,272.106 C664.443,269.531 662.332,267.436 659.737,267.436 L629.428,267.436 C626.833,267.436 624.722,269.531 624.722,272.106 L624.722,281.474 C624.722,284.049 626.833,286.145 629.428,286.145 z M629.428,286.145" fill="#DDDDDD"/>
        <path d="M707.638,281.474 L707.638,272.106 C707.638,269.531 705.527,267.436 702.932,267.436 L672.623,267.436 C670.028,267.436 667.917,269.531 667.917,272.106 L667.917,281.474 C667.917,284.049 670.028,286.145 672.623,286.145 L702.932,286.145 C705.527,286.145 707.638,284.049 707.638,281.474 z M707.638,281.474" fill="#DDDDDD"/>
        <path d="M750.834,281.474 L750.834,272.106 C750.834,269.531 748.723,267.436 746.128,267.436 L715.819,267.436 C713.224,267.436 711.113,269.531 711.113,272.106 L711.113,281.474 C711.113,284.049 713.224,286.145 715.819,286.145 L746.128,286.145 C748.723,286.145 750.834,284.049 750.834,281.474 z M750.834,281.474" fill="#DDDDDD"/>
        <path d="M794.029,281.474 L794.029,272.106 C794.029,269.531 791.918,267.436 789.323,267.436 L759.014,267.436 C756.419,267.436 754.308,269.531 754.308,272.106 L754.308,281.474 C754.308,284.049 756.419,286.145 759.014,286.145 L789.323,286.145 C791.918,286.145 794.029,284.049 794.029,281.474 z M794.029,281.474" fill="#DDDDDD"/>
        <path d="M837.225,281.474 L837.225,272.106 C837.225,269.531 835.114,267.436 832.519,267.436 L802.21,267.436 C799.615,267.436 797.504,269.531 797.504,272.106 L797.504,281.474 C797.504,284.049 799.615,286.145 802.21,286.145 L832.519,286.145 C835.114,286.145 837.225,284.049 837.225,281.474 z M837.225,281.474" fill="#DDDDDD"/>
        <path d="M650.754,262.709 L681.062,262.709 C683.658,262.709 685.769,260.614 685.769,258.038 L685.769,248.671 C685.769,246.095 683.658,244 681.062,244 L650.754,244 C648.16,244 646.047,246.095 646.047,248.671 L646.047,258.038 C646.047,260.614 648.16,262.709 650.754,262.709 z M650.754,262.709" fill="#DDDDDD"/>
        <path d="M694.404,262.709 L724.713,262.709 C727.308,262.709 729.419,260.614 729.419,258.038 L729.419,248.671 C729.419,246.095 727.308,244 724.713,244 L694.404,244 C691.809,244 689.698,246.095 689.698,248.671 L689.698,258.038 C689.698,260.614 691.809,262.709 694.404,262.709 z M694.404,262.709" fill="#DDDDDD"/>
        <path d="M738.102,262.709 L768.411,262.709 C771.006,262.709 773.117,260.614 773.117,258.038 L773.117,248.671 C773.117,246.095 771.006,244 768.411,244 L738.102,244 C735.508,244 733.396,246.095 733.396,248.671 L733.396,258.038 C733.396,260.614 735.508,262.709 738.102,262.709 z M738.102,262.709" fill="#DDDDDD"/>
        <path d="M781.753,262.709 L812.062,262.709 C814.656,262.709 816.768,260.614 816.768,258.038 L816.768,248.671 C816.768,246.095 814.656,244 812.062,244 L781.753,244 C779.157,244 777.046,246.095 777.046,248.671 L777.046,258.038 C777.046,260.614 779.157,262.709 781.753,262.709 z M781.753,262.709" fill="#DDDDDD"/>
        <path d="M825.403,262.709 L855.712,262.709 C858.307,262.709 860.418,260.614 860.418,258.038 L860.418,248.671 C860.418,246.095 858.307,244 855.712,244 L825.403,244 C822.808,244 820.697,246.095 820.697,248.671 L820.697,258.038 C820.697,260.614 822.808,262.709 825.403,262.709 z M825.403,262.709" fill="#DDDDDD"/>
        <path d="M781.753,309.581 L812.062,309.581 C814.656,309.581 816.768,307.486 816.768,304.91 L816.768,295.543 C816.768,292.967 814.656,290.872 812.062,290.872 L781.753,290.872 C779.159,290.872 777.046,292.967 777.046,295.543 L777.046,304.91 C777.046,307.486 779.159,309.581 781.753,309.581 z M781.753,309.581" fill="#DDDDDD"/>
        <path d="M825.403,309.581 L855.712,309.581 C858.307,309.581 860.418,307.486 860.418,304.91 L860.418,295.543 C860.418,292.967 858.307,290.872 855.712,290.872 L825.403,290.872 C822.808,290.872 820.697,292.967 820.697,295.543 L820.697,304.91 C820.697,307.486 822.808,309.581 825.403,309.581 z M825.403,309.581" fill="#DDDDDD"/>
        <path d="M659.737,314.306 L629.428,314.306 C626.833,314.306 624.722,316.401 624.722,318.977 L624.722,328.346 C624.722,330.92 626.833,333.017 629.428,333.017 L659.737,333.017 C662.332,333.017 664.443,330.92 664.443,328.346 L664.443,318.977 C664.443,316.401 662.332,314.306 659.737,314.306 z M659.737,314.306" fill="#DDDDDD"/>
        <path d="M702.932,314.306 L672.623,314.306 C670.028,314.306 667.917,316.401 667.917,318.977 L667.917,328.346 C667.917,330.92 670.028,333.017 672.623,333.017 L702.932,333.017 C705.527,333.017 707.638,330.92 707.638,328.346 L707.638,318.977 C707.638,316.401 705.527,314.306 702.932,314.306 z M702.932,314.306" fill="#DDDDDD"/>
        <path d="M746.128,314.306 L715.819,314.306 C713.224,314.306 711.113,316.401 711.113,318.977 L711.113,328.346 C711.113,330.92 713.224,333.017 715.819,333.017 L746.128,333.017 C748.723,333.017 750.834,330.92 750.834,328.346 L750.834,318.977 C750.834,316.401 748.723,314.306 746.128,314.306 z M746.128,314.306" fill="#DDDDDD"/>
        <path d="M789.323,314.306 L759.014,314.306 C756.419,314.306 754.308,316.401 754.308,318.977 L754.308,328.346 C754.308,330.92 756.419,333.017 759.014,333.017 L789.323,333.017 C791.918,333.017 794.029,330.92 794.029,328.346 L794.029,318.977 C794.029,316.401 791.918,314.306 789.323,314.306 z M789.323,314.306" fill="#DDDDDD"/>
        <path d="M832.519,314.306 L802.21,314.306 C799.615,314.306 797.504,316.401 797.504,318.977 L797.504,328.346 C797.504,330.92 799.615,333.017 802.21,333.017 L832.519,333.017 C835.114,333.017 837.225,330.92 837.225,328.346 L837.225,318.977 C837.225,316.401 835.114,314.306 832.519,314.306 z M832.519,314.306" fill="#DDDDDD"/>
        <path d="M650.753,290.871 C648.16,290.871 646.047,292.967 646.047,295.542 L646.047,304.91 C646.047,307.485 648.16,309.58 650.753,309.58 L681.062,309.58 C683.657,309.58 685.769,307.485 685.769,304.91 L685.769,295.542 C685.769,292.967 683.657,290.871 681.062,290.871 z M650.753,290.871" fill="#DDDDDD"/>
        <path d="M650.754,290.873 C648.16,290.873 646.047,292.968 646.047,295.544 L646.047,304.911 C646.047,307.487 648.16,309.582 650.754,309.582 L681.062,309.582 C683.658,309.582 685.769,307.487 685.769,304.911 L685.769,295.544 C685.769,292.968 683.658,290.873 681.062,290.873 z M650.754,290.873" fill="#DDDDDD"/>
        <path d="M694.404,309.582 L724.713,309.582 C727.308,309.582 729.419,307.487 729.419,304.911 L729.419,295.542 C729.419,292.967 727.308,290.871 724.713,290.871 L694.404,290.871 C691.809,290.871 689.698,292.967 689.698,295.542 L689.698,304.911 C689.698,307.487 691.809,309.582 694.404,309.582 z M694.404,309.582" fill="#DDDDDD"/>
        <path d="M738.102,290.873 C735.508,290.873 733.396,292.968 733.396,295.544 L733.396,304.911 C733.396,307.487 735.508,309.582 738.102,309.582 L768.411,309.582 C771.006,309.582 773.117,307.487 773.117,304.911 L773.117,295.544 C773.117,292.968 771.006,290.873 768.411,290.873 z M738.102,290.873" fill="#DDDDDD"/>
        <path d="M781.753,356.638 L812.062,356.638 C814.656,356.638 816.768,354.543 816.768,351.967 L816.768,342.6 C816.768,340.024 814.656,337.929 812.062,337.929 L781.753,337.929 C779.159,337.929 777.046,340.024 777.046,342.6 L777.046,351.967 C777.046,354.543 779.159,356.638 781.753,356.638 z M781.753,356.638" fill="#DDDDDD"/>
        <path d="M825.403,356.638 L855.712,356.638 C858.307,356.638 860.418,354.543 860.418,351.967 L860.418,342.6 C860.418,340.024 858.307,337.929 855.712,337.929 L825.403,337.929 C822.808,337.929 820.697,340.024 820.697,342.6 L820.697,351.967 C820.697,354.543 822.808,356.638 825.403,356.638 z M825.403,356.638" fill="#DDDDDD"/>
        <path d="M659.737,361.363 L629.428,361.363 C626.833,361.363 624.722,363.458 624.722,366.034 L624.722,375.403 C624.722,377.977 626.833,380.073 629.428,380.073 L659.737,380.073 C662.332,380.073 664.443,377.977 664.443,375.403 L664.443,366.034 C664.443,363.458 662.332,361.363 659.737,361.363 z M659.737,361.363" fill="#DDDDDD"/>
        <path d="M702.932,361.363 L672.623,361.363 C670.028,361.363 667.917,363.458 667.917,366.034 L667.917,375.403 C667.917,377.977 670.028,380.073 672.623,380.073 L702.932,380.073 C705.527,380.073 707.638,377.977 707.638,375.403 L707.638,366.034 C707.638,363.458 705.527,361.363 702.932,361.363 z M702.932,361.363" fill="#DDDDDD"/>
        <path d="M746.128,361.363 L715.819,361.363 C713.224,361.363 711.113,363.458 711.113,366.034 L711.113,375.403 C711.113,377.977 713.224,380.074 715.819,380.074 L746.128,380.074 C748.723,380.074 750.834,377.977 750.834,375.403 L750.834,366.034 C750.834,363.458 748.723,361.363 746.128,361.363 z M746.128,361.363" fill="#DDDDDD"/>
        <path d="M789.323,361.363 L759.014,361.363 C756.419,361.363 754.308,363.458 754.308,366.034 L754.308,375.403 C754.308,377.977 756.419,380.073 759.014,380.073 L789.323,380.073 C791.918,380.073 794.029,377.977 794.029,375.403 L794.029,366.034 C794.029,363.458 791.918,361.363 789.323,361.363 z M789.323,361.363" fill="#DDDDDD"/>
        <path d="M832.519,361.363 L802.21,361.363 C799.615,361.363 797.504,363.458 797.504,366.034 L797.504,375.403 C797.504,377.977 799.615,380.074 802.21,380.074 L832.519,380.074 C835.114,380.074 837.225,377.977 837.225,375.403 L837.225,366.034 C837.225,363.458 835.114,361.363 832.519,361.363 z M832.519,361.363" fill="#DDDDDD"/>
        <path d="M650.754,337.93 C648.16,337.93 646.047,340.025 646.047,342.6 L646.047,351.968 C646.047,354.543 648.16,356.639 650.754,356.639 L681.062,356.639 C683.658,356.639 685.769,354.543 685.769,351.968 L685.769,342.6 C685.769,340.025 683.658,337.93 681.062,337.93 z M650.754,337.93" fill="#DDDDDD"/>
        <path d="M694.404,356.639 L724.713,356.639 C727.308,356.639 729.419,354.543 729.419,351.968 L729.419,342.599 C729.419,340.023 727.308,337.928 724.713,337.928 L694.404,337.928 C691.809,337.928 689.698,340.023 689.698,342.599 L689.698,351.968 C689.698,354.543 691.809,356.639 694.404,356.639 z M694.404,356.639" fill="#DDDDDD"/>
        <path d="M738.102,337.93 C735.508,337.93 733.396,340.025 733.396,342.6 L733.396,351.968 C733.396,354.543 735.508,356.639 738.102,356.639 L768.411,356.639 C771.006,356.639 773.117,354.543 773.117,351.968 L773.117,342.6 C773.117,340.025 771.006,337.93 768.411,337.93 z M738.102,337.93" fill="#DDDDDD"/>
        <path d="M781.753,403.354 L812.062,403.354 C814.656,403.354 816.768,401.258 816.768,398.683 L816.768,389.315 C816.768,386.74 814.656,384.645 812.062,384.645 L781.753,384.645 C779.159,384.645 777.046,386.74 777.046,389.315 L777.046,398.683 C777.046,401.258 779.159,403.354 781.753,403.354 z M781.753,403.354" fill="#DDDDDD"/>
        <path d="M825.403,403.354 L855.712,403.354 C858.307,403.354 860.418,401.258 860.418,398.683 L860.418,389.315 C860.418,386.74 858.307,384.645 855.712,384.645 L825.403,384.645 C822.808,384.645 820.697,386.74 820.697,389.315 L820.697,398.683 C820.697,401.258 822.808,403.354 825.403,403.354 z M825.403,403.354" fill="#DDDDDD"/>
        <path d="M650.754,384.646 C648.16,384.646 646.047,386.741 646.047,389.316 L646.047,398.684 C646.047,401.259 648.16,403.354 650.754,403.354 L681.062,403.354 C683.658,403.354 685.769,401.259 685.769,398.684 L685.769,389.316 C685.769,386.741 683.658,384.646 681.062,384.646 z M650.754,384.646" fill="#DDDDDD"/>
        <path d="M694.404,403.354 L724.713,403.354 C727.308,403.354 729.419,401.259 729.419,398.684 L729.419,389.315 C729.419,386.739 727.308,384.644 724.713,384.644 L694.404,384.644 C691.809,384.644 689.698,386.739 689.698,389.315 L689.698,398.684 C689.698,401.259 691.809,403.354 694.404,403.354 z M694.404,403.354" fill="#DDDDDD"/>
        <path d="M738.102,384.646 C735.508,384.646 733.396,386.741 733.396,389.316 L733.396,398.684 C733.396,401.259 735.508,403.354 738.102,403.354 L768.411,403.354 C771.006,403.354 773.117,401.259 773.117,398.684 L773.117,389.316 C773.117,386.741 771.006,384.646 768.411,384.646 z M738.102,384.646" fill="#DDDDDD"/>
        <path d="M846.069,426.79 L876.378,426.79 C878.973,426.79 881.084,424.695 881.084,422.119 L881.084,412.752 C881.084,410.176 878.973,408.081 876.378,408.081 L846.069,408.081 C843.474,408.081 841.363,410.176 841.363,412.752 L841.363,422.119 C841.363,424.695 843.474,426.79 846.069,426.79 z M846.069,426.79" fill="#DDDDDD"/>
        <path d="M924.28,422.119 L924.28,412.752 C924.28,410.176 922.169,408.081 919.574,408.081 L889.265,408.081 C886.669,408.081 884.559,410.176 884.559,412.752 L884.559,422.119 C884.559,424.695 886.669,426.79 889.265,426.79 L919.574,426.79 C922.169,426.79 924.28,424.695 924.28,422.119 z M924.28,422.119" fill="#DDDDDD"/>
        <path d="M967.475,422.119 L967.475,412.752 C967.475,410.176 965.364,408.081 962.769,408.081 L932.46,408.081 C929.865,408.081 927.754,410.176 927.754,412.752 L927.754,422.119 C927.754,424.695 929.865,426.79 932.46,426.79 L962.769,426.79 C965.364,426.79 967.475,424.695 967.475,422.119 z M967.475,422.119" fill="#DDDDDD"/>
        <path d="M1010.671,422.119 L1010.671,412.752 C1010.671,410.176 1008.56,408.081 1005.965,408.081 L975.656,408.081 C973.06,408.081 970.95,410.176 970.95,412.752 L970.95,422.119 C970.95,424.695 973.06,426.79 975.656,426.79 L1005.965,426.79 C1008.56,426.79 1010.671,424.695 1010.671,422.119 z M1010.671,422.119" fill="#DDDDDD"/>
        <path d="M1053.866,422.119 L1053.866,412.752 C1053.866,410.176 1051.755,408.081 1049.16,408.081 L1018.851,408.081 C1016.256,408.081 1014.145,410.176 1014.145,412.752 L1014.145,422.119 C1014.145,424.695 1016.256,426.79 1018.851,426.79 L1049.16,426.79 C1051.755,426.79 1053.866,424.695 1053.866,422.119 z M1053.866,422.119" fill="#DDDDDD"/>
        <path d="M869.614,403.354 L899.923,403.354 C902.518,403.354 904.629,401.259 904.629,398.684 L904.629,389.316 C904.629,386.741 902.518,384.646 899.923,384.646 L869.614,384.646 C867.02,384.646 864.908,386.741 864.908,389.316 L864.908,398.684 C864.908,401.259 867.02,403.354 869.614,403.354 z M869.614,403.354" fill="#DDDDDD"/>
        <path d="M913.264,403.354 L943.573,403.354 C946.168,403.354 948.279,401.259 948.279,398.684 L948.279,389.316 C948.279,386.741 946.168,384.646 943.573,384.646 L913.264,384.646 C910.669,384.646 908.558,386.741 908.558,389.316 L908.558,398.684 C908.558,401.259 910.669,403.354 913.264,403.354 z M913.264,403.354" fill="#DDDDDD"/>
        <path d="M956.962,403.354 L987.271,403.354 C989.866,403.354 991.977,401.259 991.977,398.684 L991.977,389.316 C991.977,386.741 989.866,384.646 987.271,384.646 L956.962,384.646 C954.369,384.646 952.256,386.741 952.256,389.316 L952.256,398.684 C952.256,401.259 954.369,403.354 956.962,403.354 z M956.962,403.354" fill="#DDDDDD"/>
        <path d="M1000.613,403.354 L1030.922,403.354 C1033.517,403.354 1035.628,401.259 1035.628,398.684 L1035.628,389.316 C1035.628,386.741 1033.517,384.646 1030.922,384.646 L1000.613,384.646 C998.017,384.646 995.907,386.741 995.907,389.316 L995.907,398.684 C995.907,401.259 998.017,403.354 1000.613,403.354 z M1000.613,403.354" fill="#DDDDDD"/>
        <path d="M1044.263,403.354 L1074.572,403.354 C1077.167,403.354 1079.278,401.259 1079.278,398.684 L1079.278,389.316 C1079.278,386.741 1077.167,384.646 1074.572,384.646 L1044.263,384.646 C1041.668,384.646 1039.557,386.741 1039.557,389.316 L1039.557,398.684 C1039.557,401.259 1041.668,403.354 1044.263,403.354 z M1044.263,403.354" fill="#DDDDDD"/>
        <path d="M1000.613,450.227 L1030.922,450.227 C1033.517,450.227 1035.628,448.131 1035.628,445.556 L1035.628,436.188 C1035.628,433.613 1033.517,431.518 1030.922,431.518 L1000.613,431.518 C998.019,431.518 995.907,433.613 995.907,436.188 L995.907,445.556 C995.907,448.131 998.019,450.227 1000.613,450.227 z M1000.613,450.227" fill="#DDDDDD"/>
        <path d="M1044.263,450.227 L1074.572,450.227 C1077.167,450.227 1079.278,448.131 1079.278,445.556 L1079.278,436.188 C1079.278,433.613 1077.167,431.518 1074.572,431.518 L1044.263,431.518 C1041.668,431.518 1039.557,433.613 1039.557,436.188 L1039.557,445.556 C1039.557,448.131 1041.668,450.227 1044.263,450.227 z M1044.263,450.227" fill="#DDDDDD"/>
        <path d="M876.378,454.952 L846.069,454.952 C843.474,454.952 841.363,457.047 841.363,459.622 L841.363,468.991 C841.363,471.565 843.474,473.662 846.069,473.662 L876.378,473.662 C878.973,473.662 881.084,471.565 881.084,468.991 L881.084,459.622 C881.084,457.047 878.973,454.952 876.378,454.952 z M876.378,454.952" fill="#DDDDDD"/>
        <path d="M919.574,454.952 L889.265,454.952 C886.669,454.952 884.559,457.047 884.559,459.622 L884.559,468.991 C884.559,471.565 886.669,473.662 889.265,473.662 L919.574,473.662 C922.169,473.662 924.28,471.565 924.28,468.991 L924.28,459.622 C924.28,457.047 922.169,454.952 919.574,454.952 z M919.574,454.952" fill="#DDDDDD"/>
        <path d="M962.769,454.952 L932.46,454.952 C929.865,454.952 927.754,457.047 927.754,459.622 L927.754,468.991 C927.754,471.565 929.865,473.662 932.46,473.662 L962.769,473.662 C965.364,473.662 967.475,471.565 967.475,468.991 L967.475,459.622 C967.475,457.047 965.364,454.952 962.769,454.952 z M962.769,454.952" fill="#DDDDDD"/>
        <path d="M1005.965,454.952 L975.656,454.952 C973.06,454.952 970.95,457.047 970.95,459.622 L970.95,468.991 C970.95,471.565 973.06,473.662 975.656,473.662 L1005.965,473.662 C1008.56,473.662 1010.671,471.565 1010.671,468.991 L1010.671,459.622 C1010.671,457.047 1008.56,454.952 1005.965,454.952 z M1005.965,454.952" fill="#DDDDDD"/>
        <path d="M1049.16,454.952 L1018.851,454.952 C1016.256,454.952 1014.145,457.047 1014.145,459.622 L1014.145,468.991 C1014.145,471.565 1016.256,473.662 1018.851,473.662 L1049.16,473.662 C1051.755,473.662 1053.866,471.565 1053.866,468.991 L1053.866,459.622 C1053.866,457.047 1051.755,454.952 1049.16,454.952 z M1049.16,454.952" fill="#DDDDDD"/>
        <path d="M869.614,431.517 C867.02,431.517 864.908,433.612 864.908,436.188 L864.908,445.555 C864.908,448.131 867.02,450.226 869.614,450.226 L899.923,450.226 C902.518,450.226 904.629,448.131 904.629,445.555 L904.629,436.188 C904.629,433.612 902.518,431.517 899.923,431.517 z M869.614,431.517" fill="#DDDDDD"/>
        <path d="M869.614,431.518 C867.02,431.518 864.908,433.614 864.908,436.189 L864.908,445.557 C864.908,448.132 867.02,450.227 869.614,450.227 L899.923,450.227 C902.518,450.227 904.629,448.132 904.629,445.557 L904.629,436.189 C904.629,433.614 902.518,431.518 899.923,431.518 z M869.614,431.518" fill="#DDDDDD"/>
        <path d="M913.264,450.227 L943.573,450.227 C946.168,450.227 948.279,448.132 948.279,445.557 L948.279,436.188 C948.279,433.612 946.168,431.517 943.573,431.517 L913.264,431.517 C910.669,431.517 908.558,433.612 908.558,436.188 L908.558,445.557 C908.558,448.132 910.669,450.227 913.264,450.227 z M913.264,450.227" fill="#DDDDDD"/>
        <path d="M956.962,431.518 C954.369,431.518 952.256,433.614 952.256,436.189 L952.256,445.557 C952.256,448.132 954.369,450.227 956.962,450.227 L987.271,450.227 C989.866,450.227 991.977,448.132 991.977,445.557 L991.977,436.189 C991.977,433.614 989.866,431.518 987.271,431.518 z M956.962,431.518" fill="#DDDDDD"/>
        <path d="M1000.613,497.283 L1030.922,497.283 C1033.517,497.283 1035.628,495.188 1035.628,492.613 L1035.628,483.245 C1035.628,480.67 1033.517,478.574 1030.922,478.574 L1000.613,478.574 C998.019,478.574 995.907,480.67 995.907,483.245 L995.907,492.613 C995.907,495.188 998.019,497.283 1000.613,497.283 z M1000.613,497.283" fill="#DDDDDD"/>
        <path d="M1044.263,497.283 L1074.572,497.283 C1077.167,497.283 1079.278,495.188 1079.278,492.613 L1079.278,483.245 C1079.278,480.67 1077.167,478.574 1074.572,478.574 L1044.263,478.574 C1041.668,478.574 1039.557,480.67 1039.557,483.245 L1039.557,492.613 C1039.557,495.188 1041.668,497.283 1044.263,497.283 z M1044.263,497.283" fill="#DDDDDD"/>
        <path d="M876.378,502.009 L846.069,502.009 C843.474,502.009 841.363,504.104 841.363,506.679 L841.363,516.048 C841.363,518.622 843.474,520.719 846.069,520.719 L876.378,520.719 C878.973,520.719 881.084,518.622 881.084,516.048 L881.084,506.679 C881.084,504.104 878.973,502.009 876.378,502.009 z M876.378,502.009" fill="#DDDDDD"/>
        <path d="M919.574,502.009 L889.265,502.009 C886.669,502.009 884.559,504.104 884.559,506.679 L884.559,516.048 C884.559,518.622 886.669,520.719 889.265,520.719 L919.574,520.719 C922.169,520.719 924.28,518.622 924.28,516.048 L924.28,506.679 C924.28,504.104 922.169,502.009 919.574,502.009 z M919.574,502.009" fill="#DDDDDD"/>
        <path d="M962.769,502.009 L932.46,502.009 C929.865,502.009 927.754,504.104 927.754,506.679 L927.754,516.048 C927.754,518.622 929.865,520.719 932.46,520.719 L962.769,520.719 C965.364,520.719 967.475,518.622 967.475,516.048 L967.475,506.679 C967.475,504.104 965.364,502.009 962.769,502.009 z M962.769,502.009" fill="#DDDDDD"/>
        <path d="M1005.965,502.009 L975.656,502.009 C973.06,502.009 970.95,504.104 970.95,506.679 L970.95,516.048 C970.95,518.622 973.06,520.719 975.656,520.719 L1005.965,520.719 C1008.56,520.719 1010.671,518.622 1010.671,516.048 L1010.671,506.679 C1010.671,504.104 1008.56,502.009 1005.965,502.009 z M1005.965,502.009" fill="#DDDDDD"/>
        <path d="M1049.16,502.009 L1018.851,502.009 C1016.256,502.009 1014.145,504.104 1014.145,506.679 L1014.145,516.048 C1014.145,518.622 1016.256,520.719 1018.851,520.719 L1049.16,520.719 C1051.755,520.719 1053.866,518.622 1053.866,516.048 L1053.866,506.679 C1053.866,504.104 1051.755,502.009 1049.16,502.009 z M1049.16,502.009" fill="#DDDDDD"/>
        <path d="M869.614,478.575 C867.02,478.575 864.908,480.67 864.908,483.246 L864.908,492.613 C864.908,495.189 867.02,497.284 869.614,497.284 L899.923,497.284 C902.518,497.284 904.629,495.189 904.629,492.613 L904.629,483.246 C904.629,480.67 902.518,478.575 899.923,478.575 z M869.614,478.575" fill="#DDDDDD"/>
        <path d="M913.264,497.284 L943.573,497.284 C946.168,497.284 948.279,495.189 948.279,492.613 L948.279,483.244 C948.279,480.669 946.168,478.574 943.573,478.574 L913.264,478.574 C910.669,478.574 908.558,480.669 908.558,483.244 L908.558,492.613 C908.558,495.189 910.669,497.284 913.264,497.284 z M913.264,497.284" fill="#DDDDDD"/>
        <path d="M956.962,478.575 C954.369,478.575 952.256,480.67 952.256,483.246 L952.256,492.613 C952.256,495.189 954.369,497.284 956.962,497.284 L987.271,497.284 C989.866,497.284 991.977,495.189 991.977,492.613 L991.977,483.246 C991.977,480.67 989.866,478.575 987.271,478.575 z M956.962,478.575" fill="#DDDDDD"/>
        <path d="M1000.613,543.999 L1030.922,543.999 C1033.517,543.999 1035.628,541.904 1035.628,539.328 L1035.628,529.961 C1035.628,527.385 1033.517,525.29 1030.922,525.29 L1000.613,525.29 C998.019,525.29 995.907,527.385 995.907,529.961 L995.907,539.328 C995.907,541.904 998.019,543.999 1000.613,543.999 z M1000.613,543.999" fill="#DDDDDD"/>
        <path d="M1044.263,543.999 L1074.572,543.999 C1077.167,543.999 1079.278,541.904 1079.278,539.328 L1079.278,529.961 C1079.278,527.385 1077.167,525.29 1074.572,525.29 L1044.263,525.29 C1041.668,525.29 1039.557,527.385 1039.557,529.961 L1039.557,539.328 C1039.557,541.904 1041.668,543.999 1044.263,543.999 z M1044.263,543.999" fill="#DDDDDD"/>
        <path d="M869.614,525.291 C867.02,525.291 864.908,527.386 864.908,529.962 L864.908,539.329 C864.908,541.905 867.02,544 869.614,544 L899.923,544 C902.518,544 904.629,541.905 904.629,539.329 L904.629,529.962 C904.629,527.386 902.518,525.291 899.923,525.291 z M869.614,525.291" fill="#DDDDDD"/>
        <path d="M913.264,544 L943.573,544 C946.168,544 948.279,541.905 948.279,539.329 L948.279,529.96 C948.279,527.385 946.168,525.29 943.573,525.29 L913.264,525.29 C910.669,525.29 908.558,527.385 908.558,529.96 L908.558,539.329 C908.558,541.905 910.669,544 913.264,544 z M913.264,544" fill="#DDDDDD"/>
        <path d="M956.962,525.291 C954.369,525.291 952.256,527.386 952.256,529.962 L952.256,539.329 C952.256,541.905 954.369,544 956.962,544 L987.271,544 C989.866,544 991.977,541.905 991.977,539.329 L991.977,529.962 C991.977,527.386 989.866,525.291 987.271,525.291 z M956.962,525.291" fill="#DDDDDD"/>
        <path d="M629.428,426.79 L659.737,426.79 C662.332,426.79 664.443,424.695 664.443,422.119 L664.443,412.752 C664.443,410.176 662.332,408.081 659.737,408.081 L629.428,408.081 C626.833,408.081 624.722,410.176 624.722,412.752 L624.722,422.119 C624.722,424.695 626.833,426.79 629.428,426.79 z M629.428,426.79" fill="#DDDDDD"/>
        <path d="M707.638,422.119 L707.638,412.752 C707.638,410.176 705.527,408.081 702.932,408.081 L672.623,408.081 C670.028,408.081 667.917,410.176 667.917,412.752 L667.917,422.119 C667.917,424.695 670.028,426.79 672.623,426.79 L702.932,426.79 C705.527,426.79 707.638,424.695 707.638,422.119 z M707.638,422.119" fill="#DDDDDD"/>
        <path d="M750.834,422.119 L750.834,412.752 C750.834,410.176 748.723,408.081 746.128,408.081 L715.819,408.081 C713.224,408.081 711.113,410.176 711.113,412.752 L711.113,422.119 C711.113,424.695 713.224,426.79 715.819,426.79 L746.128,426.79 C748.723,426.79 750.834,424.695 750.834,422.119 z M750.834,422.119" fill="#DDDDDD"/>
        <path d="M794.029,422.119 L794.029,412.752 C794.029,410.176 791.918,408.081 789.323,408.081 L759.014,408.081 C756.419,408.081 754.308,410.176 754.308,412.752 L754.308,422.119 C754.308,424.695 756.419,426.79 759.014,426.79 L789.323,426.79 C791.918,426.79 794.029,424.695 794.029,422.119 z M794.029,422.119" fill="#DDDDDD"/>
        <path d="M837.225,422.119 L837.225,412.752 C837.225,410.176 835.114,408.081 832.519,408.081 L802.21,408.081 C799.615,408.081 797.504,410.176 797.504,412.752 L797.504,422.119 C797.504,424.695 799.615,426.79 802.21,426.79 L832.519,426.79 C835.114,426.79 837.225,424.695 837.225,422.119 z M837.225,422.119" fill="#DDDDDD"/>
        <path d="M650.754,403.354 L681.062,403.354 C683.658,403.354 685.769,401.259 685.769,398.684 L685.769,389.316 C685.769,386.741 683.658,384.646 681.062,384.646 L650.754,384.646 C648.16,384.646 646.047,386.741 646.047,389.316 L646.047,398.684 C646.047,401.259 648.16,403.354 650.754,403.354 z M650.754,403.354" fill="#DDDDDD"/>
        <path d="M694.404,403.354 L724.713,403.354 C727.308,403.354 729.419,401.259 729.419,398.684 L729.419,389.316 C729.419,386.741 727.308,384.646 724.713,384.646 L694.404,384.646 C691.809,384.646 689.698,386.741 689.698,389.316 L689.698,398.684 C689.698,401.259 691.809,403.354 694.404,403.354 z M694.404,403.354" fill="#DDDDDD"/>
        <path d="M738.102,403.354 L768.411,403.354 C771.006,403.354 773.117,401.259 773.117,398.684 L773.117,389.316 C773.117,386.741 771.006,384.646 768.411,384.646 L738.102,384.646 C735.508,384.646 733.396,386.741 733.396,389.316 L733.396,398.684 C733.396,401.259 735.508,403.354 738.102,403.354 z M738.102,403.354" fill="#DDDDDD"/>
        <path d="M781.753,403.354 L812.062,403.354 C814.656,403.354 816.768,401.259 816.768,398.684 L816.768,389.316 C816.768,386.741 814.656,384.646 812.062,384.646 L781.753,384.646 C779.157,384.646 777.046,386.741 777.046,389.316 L777.046,398.684 C777.046,401.259 779.157,403.354 781.753,403.354 z M781.753,403.354" fill="#DDDDDD"/>
        <path d="M825.403,403.354 L855.712,403.354 C858.307,403.354 860.418,401.259 860.418,398.684 L860.418,389.316 C860.418,386.741 858.307,384.646 855.712,384.646 L825.403,384.646 C822.808,384.646 820.697,386.741 820.697,389.316 L820.697,398.684 C820.697,401.259 822.808,403.354 825.403,403.354 z M825.403,403.354" fill="#DDDDDD"/>
        <path d="M781.753,450.227 L812.062,450.227 C814.656,450.227 816.768,448.131 816.768,445.556 L816.768,436.188 C816.768,433.613 814.656,431.518 812.062,431.518 L781.753,431.518 C779.159,431.518 777.046,433.613 777.046,436.188 L777.046,445.556 C777.046,448.131 779.159,450.227 781.753,450.227 z M781.753,450.227" fill="#DDDDDD"/>
        <path d="M825.403,450.227 L855.712,450.227 C858.307,450.227 860.418,448.131 860.418,445.556 L860.418,436.188 C860.418,433.613 858.307,431.518 855.712,431.518 L825.403,431.518 C822.808,431.518 820.697,433.613 820.697,436.188 L820.697,445.556 C820.697,448.131 822.808,450.227 825.403,450.227 z M825.403,450.227" fill="#DDDDDD"/>
        <path d="M659.737,454.952 L629.428,454.952 C626.833,454.952 624.722,457.047 624.722,459.622 L624.722,468.991 C624.722,471.565 626.833,473.662 629.428,473.662 L659.737,473.662 C662.332,473.662 664.443,471.565 664.443,468.991 L664.443,459.622 C664.443,457.047 662.332,454.952 659.737,454.952 z M659.737,454.952" fill="#DDDDDD"/>
        <path d="M702.932,454.952 L672.623,454.952 C670.028,454.952 667.917,457.047 667.917,459.622 L667.917,468.991 C667.917,471.565 670.028,473.662 672.623,473.662 L702.932,473.662 C705.527,473.662 707.638,471.565 707.638,468.991 L707.638,459.622 C707.638,457.047 705.527,454.952 702.932,454.952 z M702.932,454.952" fill="#DDDDDD"/>
        <path d="M746.128,454.952 L715.819,454.952 C713.224,454.952 711.113,457.047 711.113,459.622 L711.113,468.991 C711.113,471.565 713.224,473.662 715.819,473.662 L746.128,473.662 C748.723,473.662 750.834,471.565 750.834,468.991 L750.834,459.622 C750.834,457.047 748.723,454.952 746.128,454.952 z M746.128,454.952" fill="#DDDDDD"/>
        <path d="M789.323,454.952 L759.014,454.952 C756.419,454.952 754.308,457.047 754.308,459.622 L754.308,468.991 C754.308,471.565 756.419,473.662 759.014,473.662 L789.323,473.662 C791.918,473.662 794.029,471.565 794.029,468.991 L794.029,459.622 C794.029,457.047 791.918,454.952 789.323,454.952 z M789.323,454.952" fill="#DDDDDD"/>
        <path d="M832.519,454.952 L802.21,454.952 C799.615,454.952 797.504,457.047 797.504,459.622 L797.504,468.991 C797.504,471.565 799.615,473.662 802.21,473.662 L832.519,473.662 C835.114,473.662 837.225,471.565 837.225,468.991 L837.225,459.622 C837.225,457.047 835.114,454.952 832.519,454.952 z M832.519,454.952" fill="#DDDDDD"/>
        <path d="M650.753,431.517 C648.16,431.517 646.047,433.612 646.047,436.188 L646.047,445.555 C646.047,448.131 648.16,450.226 650.753,450.226 L681.062,450.226 C683.657,450.226 685.769,448.131 685.769,445.555 L685.769,436.188 C685.769,433.612 683.657,431.517 681.062,431.517 z M650.753,431.517" fill="#DDDDDD"/>
        <path d="M650.754,431.518 C648.16,431.518 646.047,433.614 646.047,436.189 L646.047,445.557 C646.047,448.132 648.16,450.227 650.754,450.227 L681.062,450.227 C683.658,450.227 685.769,448.132 685.769,445.557 L685.769,436.189 C685.769,433.614 683.658,431.518 681.062,431.518 z M650.754,431.518" fill="#DDDDDD"/>
        <path d="M694.404,450.227 L724.713,450.227 C727.308,450.227 729.419,448.132 729.419,445.557 L729.419,436.188 C729.419,433.612 727.308,431.517 724.713,431.517 L694.404,431.517 C691.809,431.517 689.698,433.612 689.698,436.188 L689.698,445.557 C689.698,448.132 691.809,450.227 694.404,450.227 z M694.404,450.227" fill="#DDDDDD"/>
        <path d="M738.102,431.518 C735.508,431.518 733.396,433.614 733.396,436.189 L733.396,445.557 C733.396,448.132 735.508,450.227 738.102,450.227 L768.411,450.227 C771.006,450.227 773.117,448.132 773.117,445.557 L773.117,436.189 C773.117,433.614 771.006,431.518 768.411,431.518 z M738.102,431.518" fill="#DDDDDD"/>
        <path d="M781.753,497.283 L812.062,497.283 C814.656,497.283 816.768,495.188 816.768,492.613 L816.768,483.245 C816.768,480.67 814.656,478.574 812.062,478.574 L781.753,478.574 C779.159,478.574 777.046,480.67 777.046,483.245 L777.046,492.613 C777.046,495.188 779.159,497.283 781.753,497.283 z M781.753,497.283" fill="#DDDDDD"/>
        <path d="M825.403,497.283 L855.712,497.283 C858.307,497.283 860.418,495.188 860.418,492.613 L860.418,483.245 C860.418,480.67 858.307,478.574 855.712,478.574 L825.403,478.574 C822.808,478.574 820.697,480.67 820.697,483.245 L820.697,492.613 C820.697,495.188 822.808,497.283 825.403,497.283 z M825.403,497.283" fill="#DDDDDD"/>
        <path d="M659.737,502.009 L629.428,502.009 C626.833,502.009 624.722,504.104 624.722,506.679 L624.722,516.048 C624.722,518.622 626.833,520.719 629.428,520.719 L659.737,520.719 C662.332,520.719 664.443,518.622 664.443,516.048 L664.443,506.679 C664.443,504.104 662.332,502.009 659.737,502.009 z M659.737,502.009" fill="#DDDDDD"/>
        <path d="M702.932,502.009 L672.623,502.009 C670.028,502.009 667.917,504.104 667.917,506.679 L667.917,516.048 C667.917,518.622 670.028,520.719 672.623,520.719 L702.932,520.719 C705.527,520.719 707.638,518.622 707.638,516.048 L707.638,506.679 C707.638,504.104 705.527,502.009 702.932,502.009 z M702.932,502.009" fill="#DDDDDD"/>
        <path d="M746.128,502.009 L715.819,502.009 C713.224,502.009 711.113,504.104 711.113,506.679 L711.113,516.048 C711.113,518.622 713.224,520.719 715.819,520.719 L746.128,520.719 C748.723,520.719 750.834,518.622 750.834,516.048 L750.834,506.679 C750.834,504.104 748.723,502.009 746.128,502.009 z M746.128,502.009" fill="#DDDDDD"/>
        <path d="M789.323,502.009 L759.014,502.009 C756.419,502.009 754.308,504.104 754.308,506.679 L754.308,516.048 C754.308,518.622 756.419,520.719 759.014,520.719 L789.323,520.719 C791.918,520.719 794.029,518.622 794.029,516.048 L794.029,506.679 C794.029,504.104 791.918,502.009 789.323,502.009 z M789.323,502.009" fill="#DDDDDD"/>
        <path d="M832.519,502.009 L802.21,502.009 C799.615,502.009 797.504,504.104 797.504,506.679 L797.504,516.048 C797.504,518.622 799.615,520.719 802.21,520.719 L832.519,520.719 C835.114,520.719 837.225,518.622 837.225,516.048 L837.225,506.679 C837.225,504.104 835.114,502.009 832.519,502.009 z M832.519,502.009" fill="#DDDDDD"/>
        <path d="M650.754,478.575 C648.16,478.575 646.047,480.67 646.047,483.246 L646.047,492.613 C646.047,495.189 648.16,497.284 650.754,497.284 L681.062,497.284 C683.658,497.284 685.769,495.189 685.769,492.613 L685.769,483.246 C685.769,480.67 683.658,478.575 681.062,478.575 z M650.754,478.575" fill="#DDDDDD"/>
        <path d="M694.404,497.284 L724.713,497.284 C727.308,497.284 729.419,495.189 729.419,492.613 L729.419,483.244 C729.419,480.669 727.308,478.574 724.713,478.574 L694.404,478.574 C691.809,478.574 689.698,480.669 689.698,483.244 L689.698,492.613 C689.698,495.189 691.809,497.284 694.404,497.284 z M694.404,497.284" fill="#DDDDDD"/>
        <path d="M738.102,478.575 C735.508,478.575 733.396,480.67 733.396,483.246 L733.396,492.613 C733.396,495.189 735.508,497.284 738.102,497.284 L768.411,497.284 C771.006,497.284 773.117,495.189 773.117,492.613 L773.117,483.246 C773.117,480.67 771.006,478.575 768.411,478.575 z M738.102,478.575" fill="#DDDDDD"/>
        <path d="M781.753,543.999 L812.062,543.999 C814.656,543.999 816.768,541.904 816.768,539.329 L816.768,529.961 C816.768,527.386 814.656,525.29 812.062,525.29 L781.753,525.29 C779.159,525.29 777.046,527.386 777.046,529.961 L777.046,539.329 C777.046,541.904 779.159,543.999 781.753,543.999 z M781.753,543.999" fill="#DDDDDD"/>
        <path d="M825.403,543.999 L855.712,543.999 C858.307,543.999 860.418,541.904 860.418,539.329 L860.418,529.961 C860.418,527.386 858.307,525.29 855.712,525.29 L825.403,525.29 C822.808,525.29 820.697,527.386 820.697,529.961 L820.697,539.329 C820.697,541.904 822.808,543.999 825.403,543.999 z M825.403,543.999" fill="#DDDDDD"/>
        <path d="M650.754,525.291 C648.16,525.291 646.047,527.386 646.047,529.962 L646.047,539.329 C646.047,541.905 648.16,544 650.754,544 L681.062,544 C683.658,544 685.769,541.905 685.769,539.329 L685.769,529.962 C685.769,527.386 683.658,525.291 681.062,525.291 z M650.754,525.291" fill="#DDDDDD"/>
        <path d="M694.404,544 L724.713,544 C727.308,544 729.419,541.905 729.419,539.329 L729.419,529.96 C729.419,527.385 727.308,525.29 724.713,525.29 L694.404,525.29 C691.809,525.29 689.698,527.385 689.698,529.96 L689.698,539.329 C689.698,541.905 691.809,544 694.404,544 z M694.404,544" fill="#DDDDDD"/>
        <path d="M738.102,525.291 C735.508,525.291 733.396,527.386 733.396,529.962 L733.396,539.329 C733.396,541.905 735.508,544 738.102,544 L768.411,544 C771.006,544 773.117,541.905 773.117,539.329 L773.117,529.962 C773.117,527.386 771.006,525.291 768.411,525.291 z M738.102,525.291" fill="#DDDDDD"/>
      </g>
      <g>
        <g>
          <path d="M748.308,435.128 L748.308,430.81 Q748.308,424.993 752.326,421.203 L790.43,385.685 Q792.773,383.658 794.548,384.847 Q796.322,386.037 796.322,389.298 L796.322,404.457 Q796.322,410.979 790.43,416.356 L772.617,432.925 L790.43,449.582 Q796.322,454.959 796.322,461.481 L796.322,476.64 Q796.322,479.901 794.548,481.047 Q792.773,482.192 790.43,480.253 L752.326,444.647 Q748.308,440.945 748.308,435.128 z" fill="#2B5E7C"/>
          <path d="M823.326,376.718 L823.326,333.974 Q823.326,333.094 824.42,332.523 Q825.514,331.952 827.139,331.952 L841.14,331.952 Q842.766,331.952 843.859,332.523 Q844.953,333.094 844.953,333.974 L844.953,376.718 Q844.953,377.566 843.859,378.136 Q842.766,378.707 841.14,378.707 L827.139,378.707 Q825.514,378.707 824.42,378.136 Q823.326,377.566 823.326,376.718 z" fill="#2B5E7C"/>
          <path d="M844.953,387.73 L844.953,478.095 Q844.953,479.566 843.781,480.519 Q842.609,481.472 840.801,481.472 L806.649,481.472 Q804.908,481.472 803.736,480.519 Q802.564,479.566 802.564,478.095 L802.564,462.869 Q802.564,461.399 803.736,460.445 Q804.908,459.492 806.649,459.492 L823.122,459.492 L823.122,406.933 L806.649,406.933 Q804.908,406.933 803.736,405.98 Q802.564,405.026 802.564,403.61 L802.564,387.73 Q802.564,386.314 803.736,385.361 Q804.908,384.407 806.649,384.407 L840.801,384.407 Q842.609,384.407 843.781,385.361 Q844.953,386.314 844.953,387.73 z" fill="#2B5E7C"/>
        </g>
        <g>
          <path d="M907.677,434.977 L907.677,430.658 Q907.677,424.842 911.695,421.052 L949.799,385.533 Q952.142,383.506 953.917,384.696 Q955.692,385.886 955.692,389.147 L955.692,404.306 Q955.692,410.828 949.799,416.204 L931.986,432.774 L945.733,445.668 Q928.415,459.857 926.071,457.918 L911.695,444.496 Q907.677,440.794 907.677,434.977 z" fill="#2B5E7C"/>
          <path d="M905.219,430.751 L905.219,435.07 Q905.219,440.887 901.201,444.677 L863.098,480.195 Q860.754,482.222 858.98,481.032 Q857.205,479.842 857.205,476.581 L857.205,461.422 Q857.205,454.9 863.098,449.524 L880.911,432.955 L863.098,416.297 Q857.205,410.921 857.205,404.399 L857.205,389.24 Q857.205,385.979 858.98,384.833 Q860.754,383.687 863.098,385.626 L901.201,421.233 Q905.219,424.934 905.219,430.751 z" fill="#2B5E7C"/>
        </g>
      </g>
      <g>
        <path d="M983.706,472.463 C989.932,472.463 994.998,467.467 994.998,461.327 C994.998,455.185 989.932,450.189 983.706,450.189 C977.48,450.189 972.415,455.185 972.415,461.327 C972.415,467.467 977.48,472.463 983.706,472.463 z M983.706,472.463" fill="#797979"/>
        <path d="M1007.049,505.438 L997.945,477.612 C997.468,476.152 995.876,475.008 994.32,475.008 L976.527,475.008 L955.257,467.782 C955.181,467.78 955.106,467.781 955.031,467.784 L954.732,467.344 C953.783,465.949 952.512,466.103 951.554,466.505 L948.792,462.444 C948.612,462.18 948.686,461.807 948.955,461.629 L955.971,456.986 C957.444,456.012 957.837,454.037 956.849,452.585 L953.053,447.004 C952.064,445.551 950.063,445.162 948.59,446.137 L947.106,447.119 L946.818,446.696 C945.72,445.082 943.496,444.65 941.86,445.733 L928.152,454.805 C926.516,455.887 926.078,458.081 927.176,459.695 L929.471,463.128 C930.569,464.742 932.793,465.174 934.43,464.091 L948.176,455.019 C949.813,453.937 950.251,451.743 949.153,450.129 L948.566,449.266 L950.05,448.283 C950.318,448.106 950.697,448.179 950.877,448.444 L954.673,454.025 C954.853,454.289 954.778,454.663 954.511,454.84 L947.495,459.483 C946.022,460.458 945.628,462.432 946.616,463.884 L949.378,467.945 C948.638,468.667 948.012,469.768 948.961,471.164 L954.709,479.614 C956.146,481.727 958.319,480.289 959.032,479.817 C959.647,479.41 961.342,478.286 960.881,476.632 L971.882,482.403 C972.015,482.497 972.153,482.578 972.296,482.649 L972.296,540.475 C972.296,542.419 973.899,544 975.87,544 L979.682,544 C981.652,544 983.255,542.419 983.255,540.475 L983.255,512.432 L985.11,512.432 L985.11,540.475 C985.11,542.419 986.713,544 988.683,544 L992.496,544 C994.467,544 996.07,542.419 996.07,540.475 L996.07,499.147 L998.364,506.16 C998.842,507.619 1000.434,508.762 1001.988,508.762 L1004.595,508.762 C1005.48,508.762 1006.258,508.395 1006.732,507.753 C1007.205,507.112 1007.32,506.269 1007.049,505.438 z M1007.049,505.438" fill="#797979"/>
      </g>
      <path d="M947.122,447.163 L946.818,446.696 C945.72,445.083 943.496,444.651 941.86,445.733 L928.152,454.805 C926.516,455.888 926.078,458.081 927.176,459.695 L929.471,463.128 C930.569,464.742 932.794,465.174 934.43,464.091 L948.177,455.019 C949.813,453.937 950.251,451.743 949.153,450.129 L948.566,449.266 z" fill="url(#Gradient_1)"/>
    </g>
    <path d="M248.524,199.873 C221.324,192.06 207.573,201.751 197.054,212.271 C186.534,222.79 173.395,239.498 160.661,246.23 C88.528,284.367 80.638,299.951 80.638,299.951 L188.137,299.951 L290.101,299.951 L323.112,299.951 L400,299.951 C400,299.951 285.557,210.51 248.524,199.873 z" fill="#CCCCCC"/>
    <g clip-path="url(#Clip_1)">
      <path d="M33.357,273.625 L25.216,299.95 L36.518,299.95 L45.567,273.735 L48.152,253.339 L56.776,253.339 L64.529,274.482 L59.789,299.95 L70.768,299.95 L76.163,271.095 L70.768,255.886 L68.814,249.017 L98.512,265.834 L92.929,275.514 L105.875,282.972 L119.559,259.204 L106.626,251.749 L101.244,261.079 L66.672,241.49 L64.797,234.943 L68.197,221.204 L69.657,233.767 L71.999,239.858 L81.267,245.281 C81.267,245.281 77.525,231.192 77.421,231.625 C77.318,232.057 75.981,206.754 74.449,205.406 C72.918,204.057 64.848,205.004 64.848,205.004 L63.162,200.356 C69.603,199.047 74.436,193.501 74.799,186.782 L45.903,182.95 C45.69,183.941 45.567,184.959 45.567,186.004 C45.567,191.077 48.152,195.551 52.063,198.176 L51.809,198.149 L46.023,203.01 C46.023,203.01 41.52,201.328 38.619,202.393 C35.718,203.457 22.184,215.972 22.351,216.614 C22.118,218.657 22.351,238.25 22.351,238.25 L35.273,241.452 z M30.571,230.391 L30.571,223.922 L36.062,218.918 L36.062,231.625 z M30.571,230.391" fill="#CFCFCF"/>
    </g>
    <path d="M74.666,183.996 L79.057,184.572 C79.647,171.529 73.97,162.987 63.711,161.623 C62.868,161.513 62.025,161.462 61.209,161.462 C52.118,161.462 45.503,168.115 42.904,179.78 L46.733,180.287 z M74.666,183.996" fill="#CFCFCF"/>
    <g>
      <g>
        <path d="M124.269,250.486 L124.269,247.636 Q124.269,243.796 126.92,241.295 L152.07,217.852 Q153.617,216.514 154.788,217.299 Q155.959,218.085 155.959,220.237 L155.959,230.242 Q155.959,234.547 152.07,238.096 L140.313,249.032 L152.07,260.026 Q155.959,263.575 155.959,267.879 L155.959,277.885 Q155.959,280.037 154.788,280.794 Q153.617,281.55 152.07,280.27 L126.92,256.769 Q124.269,254.325 124.269,250.486 z" fill="#FFFFFF"/>
        <path d="M173.782,211.934 L173.782,183.721 Q173.782,183.14 174.504,182.764 Q175.226,182.387 176.299,182.387 L185.54,182.387 Q186.613,182.387 187.335,182.764 Q188.057,183.14 188.057,183.721 L188.057,211.934 Q188.057,212.493 187.335,212.87 Q186.613,213.247 185.54,213.247 L176.299,213.247 Q175.226,213.247 174.504,212.87 Q173.782,212.493 173.782,211.934 z" fill="#FFFFFF"/>
        <path d="M188.057,219.202 L188.057,278.845 Q188.057,279.816 187.283,280.445 Q186.51,281.074 185.316,281.074 L162.775,281.074 Q161.626,281.074 160.852,280.445 Q160.079,279.816 160.079,278.845 L160.079,268.796 Q160.079,267.825 160.852,267.196 Q161.626,266.567 162.775,266.567 L173.648,266.567 L173.648,231.876 L162.775,231.876 Q161.626,231.876 160.852,231.247 Q160.079,230.618 160.079,229.683 L160.079,219.202 Q160.079,218.267 160.852,217.638 Q161.626,217.009 162.775,217.009 L185.316,217.009 Q186.51,217.009 187.283,217.638 Q188.057,218.267 188.057,219.202 z" fill="#FFFFFF"/>
      </g>
      <g>
        <path d="M229.457,250.386 L229.457,247.536 Q229.457,243.697 232.109,241.195 L257.258,217.752 Q258.805,216.414 259.976,217.199 Q261.147,217.985 261.147,220.137 L261.147,230.143 Q261.147,234.447 257.258,237.996 L245.501,248.932 L257.258,259.926 Q261.147,263.475 261.147,267.78 L261.147,277.785 Q261.147,279.937 259.976,280.694 Q258.805,281.45 257.258,280.17 L232.109,256.669 Q229.457,254.226 229.457,250.386 z" fill="#FFFFFF"/>
        <path d="M227.834,247.597 L227.834,250.447 Q227.834,254.287 225.182,256.788 L200.033,280.231 Q198.486,281.569 197.315,280.784 Q196.144,279.999 196.144,277.846 L196.144,267.841 Q196.144,263.536 200.033,259.988 L211.79,249.051 L200.033,238.057 Q196.144,234.508 196.144,230.204 L196.144,220.198 Q196.144,218.046 197.315,217.29 Q198.486,216.533 200.033,217.813 L225.182,241.315 Q227.834,243.758 227.834,247.597 z" fill="#FFFFFF"/>
      </g>
    </g>
    <path d="M79.099,299.951 C79.099,299.951 116.118,257.561 170.004,268.249 C198.23,273.848 205.649,263.704 231.667,261.074 C257.685,258.444 267.057,244 299.057,250.01 C330.338,255.885 400,299.951 400,299.951 L79.099,299.951 z" fill="#D6D6D6"/>
  </g>
</svg>
