<?xml version="1.0" encoding="UTF-8"?>
<!DOCTYPE svg PUBLIC "-//W3C//DTD SVG 1.1//EN" "http://www.w3.org/Graphics/SVG/1.1/DTD/svg11.dtd">
<svg version="1.1" xmlns="http://www.w3.org/2000/svg" xmlns:xlink="http://www.w3.org/1999/xlink" x="0" y="0" width="400" height="300" viewBox="0, 0, 400, 300">
  <defs>
    <clipPath id="Clip_1">
      <path d="M701.89,164.128 L859.361,164.128 L859.361,304.667 L701.89,304.667 z"/>
    </clipPath>
  </defs>
  <g id="Layer_1">
    <g>
      <path d="M927.856,202.539 C900.657,194.727 886.906,204.418 876.386,214.937 C865.867,225.457 852.728,242.165 839.994,248.897 C767.861,287.034 759.971,302.617 759.971,302.617 L867.47,302.617 L969.434,302.617 L1002.445,302.617 L1079.333,302.617 C1079.333,302.617 964.889,213.176 927.856,202.539 z" fill="#CCCCCC"/>
      <g clip-path="url(#Clip_1)">
        <path d="M712.691,276.292 L704.55,302.617 L715.851,302.617 L724.9,276.401 L727.485,256.006 L736.109,256.006 L743.863,277.149 L739.122,302.617 L750.101,302.617 L755.497,273.762 L750.101,258.553 L748.148,251.684 L777.846,268.5 L772.262,278.18 L785.209,285.639 L798.892,261.871 L785.959,254.416 L780.578,263.746 L746.005,244.156 L744.13,237.609 L747.531,223.871 L748.991,236.434 L751.332,242.525 L760.601,247.947 C760.601,247.947 756.858,233.859 756.755,234.291 C756.651,234.724 755.314,209.421 753.783,208.072 C752.251,206.724 744.182,207.671 744.182,207.671 L742.495,203.023 C748.936,201.714 753.769,196.168 754.132,189.449 L725.236,185.617 C725.024,186.608 724.9,187.626 724.9,188.671 C724.9,193.744 727.485,198.217 731.396,200.843 L731.142,200.816 L725.356,205.676 C725.356,205.676 720.853,203.995 717.952,205.059 C715.051,206.124 701.517,218.638 701.684,219.281 C701.451,221.324 701.684,240.917 701.684,240.917 L714.607,244.119 z M709.904,233.057 L709.904,226.589 L715.395,221.584 L715.395,234.291 z M709.904,233.057" fill="#CFCFCF"/>
      </g>
      <path d="M753.999,186.662 L758.39,187.238 C758.98,174.196 753.303,165.654 743.044,164.289 C742.201,164.18 741.357,164.128 740.542,164.128 C731.451,164.128 724.836,170.782 722.237,182.446 L726.066,182.954 z M753.999,186.662" fill="#CFCFCF"/>
      <path d="M758.432,302.617 C758.432,302.617 795.451,260.228 849.336,270.916 C877.563,276.514 884.982,266.371 911,263.741 C937.018,261.111 946.389,246.667 978.389,252.676 C1009.67,258.551 1079.333,302.617 1079.333,302.617 L758.432,302.617 z" fill="#D6D6D6"/>
    </g>
    <g>
      <g>
        <g>
          <path d="M532.701,0.532 L588.165,6.804 C590.928,7.116 592.914,9.61 592.602,12.373 L588.223,51.094 C587.911,53.857 585.418,55.844 582.655,55.531 L527.191,49.26 C524.428,48.947 522.441,46.454 522.754,43.691 L527.132,4.97 C527.445,2.207 529.938,0.22 532.701,0.532 z" fill="#DDDDDD"/>
          <path d="M532.701,0.532 L588.165,6.804 C590.928,7.116 592.914,9.61 592.602,12.373 L588.223,51.094 C587.911,53.857 585.418,55.844 582.655,55.531 L527.191,49.26 C524.428,48.947 522.441,46.454 522.754,43.691 L527.132,4.97 C527.445,2.207 529.938,0.22 532.701,0.532 z" fill-opacity="0" stroke="#FFFFFF" stroke-width="4"/>
        </g>
        <path d="M548.915,25.218 C545.608,24.844 543.23,21.86 543.604,18.553 C543.978,15.246 546.962,12.868 550.269,13.242 C553.576,13.616 555.954,16.6 555.58,19.907 C555.206,23.214 552.222,25.592 548.915,25.218 z" fill="#FFFFFF"/>
        <path d="M577.356,49.088 L567.988,47.976 L538.867,44.683 L532.71,43.916 L546.131,29.35 L549.17,35.079 L561.894,20.363 z" fill="#FFFFFF"/>
      </g>
      <g>
        <g>
          <path d="M477.645,45.945 L536.374,30.341 C539.299,29.563 542.301,31.305 543.078,34.23 L553.973,75.231 C554.75,78.157 553.009,81.158 550.083,81.936 L491.355,97.541 C488.429,98.318 485.427,96.576 484.65,93.651 L473.755,52.65 C472.978,49.725 474.72,46.723 477.645,45.945 z" fill="#DDDDDD"/>
          <path d="M477.645,45.945 L536.374,30.341 C539.299,29.563 542.301,31.305 543.078,34.23 L553.973,75.231 C554.75,78.157 553.009,81.158 550.083,81.936 L491.355,97.541 C488.429,98.318 485.427,96.576 484.65,93.651 L473.755,52.65 C472.978,49.725 474.72,46.723 477.645,45.945 z" fill-opacity="0" stroke="#FFFFFF" stroke-width="4"/>
        </g>
        <path d="M504.068,64.367 C500.567,65.297 496.974,63.213 496.043,59.711 C495.113,56.209 497.197,52.616 500.699,51.686 C504.201,50.755 507.794,52.84 508.724,56.342 C509.654,59.843 507.57,63.436 504.068,64.367 z" fill="#FFFFFF"/>
        <path d="M542.363,77.309 L532.423,79.892 L501.588,88.085 L495.04,89.746 L502.882,69.659 L508.232,74.265 L515.308,54.303 z" fill="#FFFFFF"/>
      </g>
      <g>
        <g>
          <path d="M553.371,60.477 L613.246,45.353 C616.229,44.599 619.258,46.407 620.011,49.39 L630.57,91.191 C631.323,94.174 629.516,97.202 626.533,97.956 L566.658,113.08 C563.675,113.833 560.646,112.026 559.893,109.043 L549.334,67.242 C548.581,64.259 550.388,61.23 553.371,60.477 z" fill="#DDDDDD"/>
          <path d="M553.371,60.477 L613.246,45.353 C616.229,44.599 619.258,46.407 620.011,49.39 L630.57,91.191 C631.323,94.174 629.516,97.202 626.533,97.956 L566.658,113.08 C563.675,113.833 560.646,112.026 559.893,109.043 L549.334,67.242 C548.581,64.259 550.388,61.23 553.371,60.477 z" fill-opacity="0" stroke="#FFFFFF" stroke-width="4"/>
        </g>
        <path d="M579.994,79.541 C576.424,80.443 572.799,78.28 571.897,74.71 C570.995,71.14 573.158,67.515 576.728,66.613 C580.298,65.711 583.924,67.874 584.825,71.444 C585.727,75.014 583.564,78.639 579.994,79.541 z" fill="#FFFFFF"/>
        <path d="M618.747,93.172 L608.615,95.672 L577.177,103.613 L570.503,105.219 L578.722,84.905 L584.101,89.652 L591.541,69.455 z" fill="#FFFFFF"/>
      </g>
      <g>
        <g>
          <path d="M476.162,63.21 L532.921,79.296 C535.748,80.098 537.391,83.039 536.589,85.867 L525.359,125.492 C524.557,128.32 521.615,129.962 518.788,129.161 L462.029,113.074 C459.202,112.273 457.559,109.331 458.361,106.504 L469.591,66.878 C470.393,64.051 473.335,62.408 476.162,63.21 z" fill="#DDDDDD"/>
          <path d="M476.162,63.21 L532.921,79.296 C535.748,80.098 537.391,83.039 536.589,85.867 L525.359,125.492 C524.557,128.32 521.615,129.962 518.788,129.161 L462.029,113.074 C459.202,112.273 457.559,109.331 458.361,106.504 L469.591,66.878 C470.393,64.051 473.335,62.408 476.162,63.21 z" fill-opacity="0" stroke="#FFFFFF" stroke-width="4"/>
        </g>
        <path d="M488.756,91.85 C485.372,90.891 483.406,87.37 484.365,83.986 C485.325,80.602 488.846,78.636 492.23,79.595 C495.614,80.554 497.58,84.075 496.621,87.459 C495.662,90.843 492.141,92.809 488.756,91.85 z" fill="#FFFFFF"/>
        <path d="M514.306,121.637 L504.729,118.866 L474.928,110.419 L468.639,108.56 L485.142,95.68 L487.325,102.177 L503.127,89.021 z" fill="#FFFFFF"/>
      </g>
      <g>
        <g>
          <path d="M634.842,146.985 L634.842,248.625 C634.842,255.878 628.963,261.757 621.71,261.757 L476.123,261.757 C468.871,261.757 462.991,255.878 462.991,248.625 L462.991,146.985" fill="#ABABAB"/>
          <path d="M634.842,146.985 L634.842,248.625 C634.842,255.878 628.963,261.757 621.71,261.757 L476.123,261.757 C468.871,261.757 462.991,255.878 462.991,248.625 L462.991,146.985" fill-opacity="0" stroke="#FFFFFF" stroke-width="4" stroke-linecap="round"/>
        </g>
      </g>
      <g>
        <g>
          <path d="M575.267,100.607 L630.163,133.363 C632.898,134.994 633.792,138.534 632.16,141.269 L609.292,179.594 C607.66,182.329 604.12,183.223 601.386,181.591 L546.489,148.835 C543.755,147.204 542.861,143.664 544.492,140.929 L567.361,102.604 C568.992,99.869 572.532,98.975 575.267,100.607 z" fill="#DDDDDD"/>
          <path d="M575.267,100.607 L630.163,133.363 C632.898,134.994 633.792,138.534 632.16,141.269 L609.292,179.594 C607.66,182.329 604.12,183.223 601.386,181.591 L546.489,148.835 C543.755,147.204 542.861,143.664 544.492,140.929 L567.361,102.604 C568.992,99.869 572.532,98.975 575.267,100.607 z" fill-opacity="0" stroke="#FFFFFF" stroke-width="4"/>
        </g>
        <path d="M580.3,134.28 C577.027,132.327 575.956,128.09 577.909,124.817 C579.862,121.544 584.099,120.474 587.372,122.427 C590.646,124.38 591.716,128.616 589.763,131.89 C587.81,135.163 583.573,136.233 580.3,134.28 z" fill="#FFFFFF"/>
        <path d="M598.688,172.623 L589.441,167.036 L560.618,149.837 L554.557,146.128 L575.442,137.275 L575.905,144.687 L596.134,135.349 z" fill="#FFFFFF"/>
      </g>
      <g>
        <g>
          <path d="M634.842,216.009 L634.842,248.625 C634.842,255.878 628.963,261.757 621.71,261.757 L476.123,261.757 C468.871,261.757 462.991,255.878 462.991,248.625 L462.991,216.009" fill="#FFFFFF"/>
          <path d="M634.842,216.009 L634.842,248.625 C634.842,255.878 628.963,261.757 621.71,261.757 L476.123,261.757 C468.871,261.757 462.991,255.878 462.991,248.625 L462.991,216.009" fill-opacity="0" stroke="#FFFFFF" stroke-width="4" stroke-linecap="round"/>
        </g>
      </g>
      <g>
        <g>
          <path d="M521.011,245.894 L521.011,244.752 Q521.011,243.215 522.073,242.213 L532.143,232.825 Q532.763,232.29 533.232,232.604 Q533.701,232.919 533.701,233.78 L533.701,237.787 Q533.701,239.511 532.143,240.932 L527.435,245.311 L532.143,249.714 Q533.701,251.135 533.701,252.859 L533.701,256.865 Q533.701,257.727 533.232,258.03 Q532.763,258.333 532.143,257.82 L522.073,248.409 Q521.011,247.431 521.011,245.894 z" fill="#B5B5B5"/>
          <path d="M540.838,230.455 L540.838,219.158 Q540.838,218.925 541.127,218.774 Q541.416,218.624 541.846,218.624 L545.547,218.624 Q545.976,218.624 546.265,218.774 Q546.554,218.925 546.554,219.158 L546.554,230.455 Q546.554,230.68 546.265,230.83 Q545.976,230.981 545.547,230.981 L541.846,230.981 Q541.416,230.981 541.127,230.83 Q540.838,230.68 540.838,230.455 z" fill="#B5B5B5"/>
          <path d="M546.554,233.366 L546.554,257.25 Q546.554,257.639 546.245,257.891 Q545.935,258.143 545.457,258.143 L536.43,258.143 Q535.97,258.143 535.66,257.891 Q535.351,257.639 535.351,257.25 L535.351,253.226 Q535.351,252.837 535.66,252.585 Q535.97,252.333 536.43,252.333 L540.784,252.333 L540.784,238.441 L536.43,238.441 Q535.97,238.441 535.66,238.189 Q535.351,237.938 535.351,237.563 L535.351,233.366 Q535.351,232.992 535.66,232.74 Q535.97,232.488 536.43,232.488 L545.457,232.488 Q545.935,232.488 546.245,232.74 Q546.554,232.992 546.554,233.366 z" fill="#B5B5B5"/>
        </g>
        <g>
          <path d="M563.133,245.854 L563.133,244.712 Q563.133,243.175 564.195,242.173 L574.266,232.785 Q574.885,232.25 575.354,232.564 Q575.823,232.879 575.823,233.74 L575.823,237.747 Q575.823,239.471 574.266,240.892 L569.558,245.271 L574.266,249.674 Q575.823,251.095 575.823,252.819 L575.823,256.825 Q575.823,257.687 575.354,257.99 Q574.885,258.293 574.266,257.78 L564.195,248.369 Q563.133,247.391 563.133,245.854 z" fill="#B5B5B5"/>
          <path d="M562.483,244.737 L562.483,245.878 Q562.483,247.416 561.421,248.417 L551.35,257.805 Q550.731,258.341 550.262,258.026 Q549.793,257.712 549.793,256.85 L549.793,252.843 Q549.793,251.119 551.35,249.698 L556.058,245.319 L551.35,240.916 Q549.793,239.495 549.793,237.772 L549.793,233.765 Q549.793,232.903 550.262,232.6 Q550.731,232.297 551.35,232.81 L561.421,242.221 Q562.483,243.199 562.483,244.737 z" fill="#B5B5B5"/>
        </g>
      </g>
      <g>
        <g>
          <path d="M470.123,124.898 L544.393,106.138 C548.093,105.203 551.85,107.445 552.785,111.145 L565.882,162.996 C566.817,166.696 564.575,170.453 560.875,171.388 L486.604,190.148 C482.905,191.082 479.148,188.841 478.213,185.141 L465.116,133.289 C464.181,129.59 466.423,125.833 470.123,124.898 z" fill="#DDDDDD"/>
          <path d="M470.123,124.898 L544.393,106.138 C548.093,105.203 551.85,107.445 552.785,111.145 L565.882,162.996 C566.817,166.696 564.575,170.453 560.875,171.388 L486.604,190.148 C482.905,191.082 479.148,188.841 478.213,185.141 L465.116,133.289 C464.181,129.59 466.423,125.833 470.123,124.898 z" fill-opacity="0" stroke="#FFFFFF" stroke-width="4"/>
        </g>
        <path d="M503.267,148.666 C498.839,149.785 494.342,147.101 493.223,142.673 C492.105,138.245 494.788,133.748 499.216,132.629 C503.645,131.511 508.141,134.194 509.26,138.622 C510.378,143.051 507.695,147.547 503.267,148.666 z" fill="#FFFFFF"/>
        <path d="M551.337,165.574 L538.768,168.675 L499.772,178.526 L491.493,180.517 L501.689,155.32 L508.362,161.208 L517.59,136.155 z" fill="#FFFFFF"/>
      </g>
    </g>
    <g>
      <g>
        <g>
          <path d="M451.453,-258.433 L451.453,-260.094 Q451.453,-262.332 452.999,-263.79 L467.657,-277.454 Q468.559,-278.233 469.241,-277.776 Q469.924,-277.318 469.924,-276.063 L469.924,-270.232 Q469.924,-267.723 467.657,-265.655 L460.805,-259.281 L467.657,-252.873 Q469.924,-250.804 469.924,-248.295 L469.924,-242.464 Q469.924,-241.209 469.241,-240.769 Q468.559,-240.328 467.657,-241.074 L452.999,-254.771 Q451.453,-256.195 451.453,-258.433 z" fill="#B5B5B5"/>
          <path d="M480.312,-280.903 L480.312,-297.346 Q480.312,-297.685 480.733,-297.904 Q481.154,-298.124 481.779,-298.124 L487.165,-298.124 Q487.79,-298.124 488.211,-297.904 Q488.632,-297.685 488.632,-297.346 L488.632,-280.903 Q488.632,-280.577 488.211,-280.357 Q487.79,-280.138 487.165,-280.138 L481.779,-280.138 Q481.154,-280.138 480.733,-280.357 Q480.312,-280.577 480.312,-280.903 z" fill="#B5B5B5"/>
          <path d="M488.632,-276.667 L488.632,-241.904 Q488.632,-241.338 488.181,-240.972 Q487.73,-240.605 487.035,-240.605 L473.897,-240.605 Q473.227,-240.605 472.776,-240.972 Q472.325,-241.338 472.325,-241.904 L472.325,-247.761 Q472.325,-248.327 472.776,-248.694 Q473.227,-249.06 473.897,-249.06 L480.234,-249.06 L480.234,-269.28 L473.897,-269.28 Q473.227,-269.28 472.776,-269.646 Q472.325,-270.013 472.325,-270.558 L472.325,-276.667 Q472.325,-277.211 472.776,-277.578 Q473.227,-277.945 473.897,-277.945 L487.035,-277.945 Q487.73,-277.945 488.181,-277.578 Q488.632,-277.211 488.632,-276.667 z" fill="#B5B5B5"/>
        </g>
        <g>
          <path d="M512.761,-258.491 L512.761,-260.153 Q512.761,-262.39 514.307,-263.848 L528.965,-277.512 Q529.867,-278.292 530.549,-277.834 Q531.232,-277.376 531.232,-276.122 L531.232,-270.29 Q531.232,-267.781 528.965,-265.713 L522.113,-259.339 L528.965,-252.931 Q531.232,-250.863 531.232,-248.354 L531.232,-242.522 Q531.232,-241.268 530.549,-240.827 Q529.867,-240.386 528.965,-241.132 L514.307,-254.829 Q512.761,-256.253 512.761,-258.491 z" fill="#B5B5B5"/>
          <path d="M511.816,-260.117 L511.816,-258.456 Q511.816,-256.218 510.27,-254.76 L495.612,-241.096 Q494.71,-240.316 494.028,-240.774 Q493.345,-241.232 493.345,-242.486 L493.345,-248.318 Q493.345,-250.827 495.612,-252.895 L502.464,-259.269 L495.612,-265.677 Q493.345,-267.745 493.345,-270.254 L493.345,-276.086 Q493.345,-277.34 494.028,-277.781 Q494.71,-278.222 495.612,-277.476 L510.27,-263.779 Q511.816,-262.355 511.816,-260.117 z" fill="#B5B5B5"/>
        </g>
      </g>
      <path d="M355.856,-171.042 L477.829,-171.042 C481.979,-171.042 485.342,-167.678 485.342,-163.528 L485.342,-163.528 C485.342,-159.379 481.979,-156.015 477.829,-156.015 L355.856,-156.015 C351.706,-156.015 348.342,-159.379 348.342,-163.528 L348.342,-163.528 C348.342,-167.678 351.706,-171.042 355.856,-171.042 z" fill="#FFFFFF"/>
      <path d="M355.856,-145.633 L477.829,-145.633 C481.979,-145.633 485.342,-142.269 485.342,-138.12 L485.342,-138.12 C485.342,-133.97 481.979,-130.607 477.829,-130.607 L355.856,-130.607 C351.706,-130.607 348.342,-133.97 348.342,-138.12 L348.342,-138.12 C348.342,-142.269 351.706,-145.633 355.856,-145.633 z" fill="#FFFFFF"/>
      <path d="M504.856,-145.633 L626.829,-145.633 C630.979,-145.633 634.342,-142.269 634.342,-138.12 L634.342,-138.12 C634.342,-133.97 630.979,-130.607 626.829,-130.607 L504.856,-130.607 C500.706,-130.607 497.342,-133.97 497.342,-138.12 L497.342,-138.12 C497.342,-142.269 500.706,-145.633 504.856,-145.633 z" fill="#FFFFFF"/>
      <path d="M355.856,-118.498 L477.829,-118.498 C481.979,-118.498 485.342,-115.134 485.342,-110.984 L485.342,-110.984 C485.342,-106.835 481.979,-103.471 477.829,-103.471 L355.856,-103.471 C351.706,-103.471 348.342,-106.835 348.342,-110.984 L348.342,-110.984 C348.342,-115.134 351.706,-118.498 355.856,-118.498 z" fill="#FFFFFF"/>
      <path d="M504.856,-118.498 L626.829,-118.498 C630.979,-118.498 634.342,-115.134 634.342,-110.984 L634.342,-110.984 C634.342,-106.835 630.979,-103.471 626.829,-103.471 L504.856,-103.471 C500.706,-103.471 497.342,-106.835 497.342,-110.984 L497.342,-110.984 C497.342,-115.134 500.706,-118.498 504.856,-118.498 z" fill="#FFFFFF"/>
      <path d="M505.939,-94.12 L625.329,-94.12 C630.307,-94.12 634.342,-90.085 634.342,-85.107 L634.342,-85.107 C634.342,-80.129 630.307,-76.094 625.329,-76.094 L505.939,-76.094 C500.961,-76.094 496.925,-80.129 496.925,-85.107 L496.925,-85.107 C496.925,-90.085 500.961,-94.12 505.939,-94.12 z" fill="#959595"/>
      <path d="M504.856,-171.042 L626.829,-171.042 C630.979,-171.042 634.342,-167.678 634.342,-163.528 L634.342,-163.528 C634.342,-159.379 630.979,-156.015 626.829,-156.015 L504.856,-156.015 C500.706,-156.015 497.342,-159.379 497.342,-163.528 L497.342,-163.528 C497.342,-167.678 500.706,-171.042 504.856,-171.042 z" fill="#FFFFFF"/>
      <path d="M432.676,-195.923 L549.009,-195.923 C551.034,-195.923 552.676,-194.282 552.676,-192.257 L552.676,-192.257 C552.676,-190.232 551.034,-188.59 549.009,-188.59 L432.676,-188.59 C430.651,-188.59 429.009,-190.232 429.009,-192.257 L429.009,-192.257 C429.009,-194.282 430.651,-195.923 432.676,-195.923 z" fill="#959595"/>
      <path d="M456.865,-210.95 L524.819,-210.95 C526.844,-210.95 528.486,-209.308 528.486,-207.283 L528.486,-207.283 C528.486,-205.258 526.844,-203.617 524.819,-203.617 L456.865,-203.617 C454.84,-203.617 453.199,-205.258 453.199,-207.283 L453.199,-207.283 C453.199,-209.308 454.84,-210.95 456.865,-210.95 z" fill="#B5B5B5"/>
      <path d="M625.472,-85.331 Q625.569,-85.233 625.569,-85.107 Q625.569,-84.981 625.472,-84.883 L620.939,-80.35 Q620.842,-80.253 620.715,-80.253 Q620.589,-80.253 620.492,-80.35 L620.005,-80.837 Q619.908,-80.934 619.908,-81.061 Q619.908,-81.187 620.005,-81.284 L623.828,-85.107 L620.005,-88.93 Q619.908,-89.027 619.908,-89.153 Q619.908,-89.28 620.005,-89.377 L620.492,-89.863 Q620.589,-89.961 620.715,-89.961 Q620.842,-89.961 620.939,-89.863 z M629.207,-85.331 Q629.304,-85.233 629.304,-85.107 Q629.304,-84.981 629.207,-84.883 L624.674,-80.35 Q624.577,-80.253 624.451,-80.253 Q624.324,-80.253 624.227,-80.35 L623.74,-80.837 Q623.643,-80.934 623.643,-81.061 Q623.643,-81.187 623.74,-81.284 L627.607,-85.093 L623.74,-88.93 Q623.643,-89.027 623.643,-89.153 Q623.643,-89.28 623.74,-89.377 L624.227,-89.863 Q624.324,-89.961 624.451,-89.961 Q624.577,-89.961 624.674,-89.863 z" fill="#FFFFFF"/>
    </g>
    <g>
      <path d="M53.772,36.719 L53.772,16.832 Q53.772,16.422 53.931,16.157 Q54.09,15.891 54.327,15.891 L56.364,15.891 Q56.6,15.891 56.759,16.157 Q56.918,16.422 56.918,16.832 L56.918,36.719 Q56.918,37.114 56.759,37.379 Q56.6,37.645 56.364,37.645 L54.327,37.645 Q54.09,37.645 53.931,37.379 Q53.772,37.114 53.772,36.719 z" fill="#787878"/>
      <g>
        <path d="M58.762,37.182 L58.762,24.014 Q58.762,23.8 58.933,23.661 Q59.104,23.522 59.367,23.522 L64.343,23.522 Q64.597,23.522 64.768,23.661 Q64.939,23.8 64.939,24.014 L64.939,26.32 Q64.939,26.535 64.768,26.674 Q64.597,26.812 64.343,26.812 L61.943,26.812 L61.943,34.459 L64.343,34.459 Q64.597,34.459 64.768,34.597 Q64.939,34.736 64.939,34.943 L64.939,37.182 Q64.939,37.388 64.768,37.527 Q64.597,37.666 64.343,37.666 L59.367,37.666 Q59.104,37.666 58.933,37.527 Q58.762,37.388 58.762,37.182 z" fill="#787878"/>
        <path d="M71.919,24.006 L71.919,37.174 Q71.919,37.388 71.748,37.527 Q71.577,37.666 71.314,37.666 L66.337,37.666 Q66.084,37.666 65.913,37.527 Q65.742,37.388 65.742,37.174 L65.742,34.955 Q65.742,34.741 65.913,34.602 Q66.084,34.463 66.337,34.463 L68.738,34.463 L68.738,26.804 L66.337,26.804 Q66.084,26.804 65.913,26.666 Q65.742,26.527 65.742,26.32 L65.742,24.006 Q65.742,23.8 65.913,23.661 Q66.084,23.522 66.337,23.522 L71.314,23.522 Q71.577,23.522 71.748,23.661 Q71.919,23.8 71.919,24.006 z" fill="#787878"/>
      </g>
      <path d="M5.333,30.902 L5.333,30.274 Q5.333,29.427 5.918,28.876 L11.461,23.709 Q11.802,23.414 12.061,23.587 Q12.319,23.76 12.319,24.234 L12.319,26.44 Q12.319,27.389 11.461,28.171 L8.87,30.581 L11.461,33.005 Q12.319,33.787 12.319,34.736 L12.319,36.941 Q12.319,37.416 12.061,37.582 Q11.802,37.749 11.461,37.467 L5.918,32.287 Q5.333,31.748 5.333,30.902 z" fill="#787878"/>
      <path d="M16.247,22.404 L16.247,16.185 Q16.247,16.057 16.407,15.974 Q16.566,15.891 16.802,15.891 L18.839,15.891 Q19.076,15.891 19.235,15.974 Q19.394,16.057 19.394,16.185 L19.394,22.404 Q19.394,22.527 19.235,22.61 Q19.076,22.693 18.839,22.693 L16.802,22.693 Q16.566,22.693 16.407,22.61 Q16.247,22.527 16.247,22.404 z" fill="#787878"/>
      <path d="M20.461,22.404 L20.461,20.379 Q20.461,20.251 20.621,20.168 Q20.78,20.085 21.016,20.085 L23.053,20.085 Q23.29,20.085 23.449,20.168 Q23.608,20.251 23.608,20.379 L23.608,22.404 Q23.608,22.527 23.449,22.61 Q23.29,22.693 23.053,22.693 L21.016,22.693 Q20.78,22.693 20.621,22.61 Q20.461,22.527 20.461,22.404 z" fill="#787878"/>
      <path d="M19.394,24.006 L19.394,37.153 Q19.394,37.367 19.223,37.506 Q19.053,37.644 18.79,37.644 L13.821,37.644 Q13.568,37.644 13.397,37.506 Q13.227,37.367 13.227,37.153 L13.227,34.938 Q13.227,34.724 13.397,34.585 Q13.568,34.447 13.821,34.447 L16.218,34.447 L16.218,26.8 L13.821,26.8 Q13.568,26.8 13.397,26.661 Q13.227,26.523 13.227,26.316 L13.227,24.006 Q13.227,23.8 13.397,23.661 Q13.568,23.523 13.821,23.523 L18.79,23.523 Q19.053,23.523 19.223,23.661 Q19.394,23.8 19.394,24.006 z" fill="#787878"/>
      <g>
        <path d="M52.263,30.265 L52.263,30.893 Q52.263,31.74 51.678,32.291 L46.135,37.459 Q45.794,37.753 45.536,37.58 Q45.277,37.407 45.277,36.933 L45.277,34.727 Q45.277,33.779 46.135,32.996 L48.726,30.586 L46.135,28.162 Q45.277,27.38 45.277,26.431 L45.277,24.226 Q45.277,23.751 45.536,23.585 Q45.794,23.418 46.135,23.7 L51.678,28.88 Q52.263,29.419 52.263,30.265 z" fill="#787878"/>
        <path d="M38.202,22.404 L38.202,16.185 Q38.202,16.057 38.361,15.974 Q38.521,15.891 38.757,15.891 L40.794,15.891 Q41.03,15.891 41.19,15.974 Q41.349,16.057 41.349,16.185 L41.349,22.404 Q41.349,22.527 41.19,22.61 Q41.03,22.693 40.794,22.693 L38.757,22.693 Q38.521,22.693 38.361,22.61 Q38.202,22.527 38.202,22.404 z" fill="#787878"/>
        <path d="M38.202,37.161 L38.202,24.014 Q38.202,23.8 38.373,23.661 Q38.543,23.523 38.806,23.523 L43.775,23.523 Q44.028,23.523 44.199,23.661 Q44.369,23.8 44.369,24.014 L44.369,26.229 Q44.369,26.443 44.199,26.582 Q44.028,26.721 43.775,26.721 L41.378,26.721 L41.378,34.367 L43.775,34.367 Q44.028,34.367 44.199,34.506 Q44.369,34.645 44.369,34.851 L44.369,37.161 Q44.369,37.367 44.199,37.506 Q44.028,37.644 43.775,37.644 L38.806,37.644 Q38.543,37.644 38.373,37.506 Q38.202,37.367 38.202,37.161 z" fill="#787878"/>
      </g>
      <path d="M20.349,36.861 L20.349,24.327 Q20.349,23.97 20.52,23.746 Q20.69,23.521 20.943,23.521 L23.126,23.521 Q23.389,23.521 23.555,23.753 Q23.72,23.984 23.72,24.327 L23.72,36.861 Q23.72,37.218 23.55,37.442 Q23.379,37.667 23.126,37.667 L20.943,37.667 Q20.68,37.667 20.515,37.442 Q20.349,37.218 20.349,36.861 z" fill="#787878"/>
      <path d="M25.038,23.523 L26.909,23.523 Q27.328,23.523 27.698,23.839 Q28.068,24.154 28.224,24.657 L30.884,32.684 L33.534,24.657 Q33.69,24.154 34.06,23.839 Q34.43,23.523 34.849,23.523 L36.73,23.523 Q37.071,23.523 37.178,23.858 Q37.226,23.987 37.222,24.187 Q37.217,24.386 37.129,24.657 L32.92,36.511 Q32.745,37.013 32.37,37.329 Q31.995,37.645 31.595,37.645 L30.163,37.645 Q29.764,37.645 29.393,37.329 Q29.023,37.013 28.848,36.511 L24.639,24.657 Q24.542,24.373 24.542,24.18 Q24.542,23.523 25.038,23.523 z" fill="#787878"/>
      <g>
        <path d="M80.794,30.901 L80.794,30.273 Q80.794,29.427 81.379,28.876 L86.922,23.708 Q87.263,23.413 87.522,23.586 Q87.78,23.759 87.78,24.234 L87.78,26.439 Q87.78,27.388 86.922,28.17 L84.331,30.581 L86.922,33.004 Q87.78,33.787 87.78,34.735 L87.78,36.941 Q87.78,37.415 87.522,37.582 Q87.263,37.749 86.922,37.467 L81.379,32.286 Q80.794,31.748 80.794,30.901 z" fill="#787878"/>
        <path d="M80.437,30.287 L80.437,30.915 Q80.437,31.761 79.852,32.313 L74.309,37.48 Q73.968,37.775 73.71,37.602 Q73.451,37.429 73.451,36.954 L73.451,34.749 Q73.451,33.8 74.309,33.018 L76.9,30.607 L74.309,28.184 Q73.451,27.402 73.451,26.453 L73.451,24.247 Q73.451,23.773 73.71,23.606 Q73.968,23.439 74.309,23.722 L79.852,28.902 Q80.437,29.44 80.437,30.287 z" fill="#787878"/>
      </g>
    </g>
    <g>
      <path d="M15.167,320.865 L396.5,320.865 C398.709,320.865 400.5,322.655 400.5,324.865 L400.5,330.865 C400.5,333.074 398.709,334.865 396.5,334.865 L15.167,334.865 C12.958,334.865 11.167,333.074 11.167,330.865 L11.167,324.865 C11.167,322.655 12.958,320.865 15.167,320.865 z" fill="#959595"/>
      <path d="M15.167,320.865 L396.5,320.865 C398.709,320.865 400.5,322.655 400.5,324.865 L400.5,330.865 C400.5,333.074 398.709,334.865 396.5,334.865 L15.167,334.865 C12.958,334.865 11.167,333.074 11.167,330.865 L11.167,324.865 C11.167,322.655 12.958,320.865 15.167,320.865 z" fill-opacity="0" stroke="#959595" stroke-width="1"/>
    </g>
    <path d="M47.161,324.635 L97.741,324.635 C99.248,324.635 100.47,325.857 100.47,327.365 L100.47,327.365 C100.47,328.872 99.248,330.094 97.741,330.094 L47.161,330.094 C45.654,330.094 44.432,328.872 44.432,327.365 L44.432,327.365 C44.432,325.857 45.654,324.635 47.161,324.635 z" fill="#FFFFFF"/>
    <path d="M338.161,324.635 L388.741,324.635 C390.248,324.635 391.47,325.857 391.47,327.365 L391.47,327.365 C391.47,328.872 390.248,330.094 388.741,330.094 L338.161,330.094 C336.654,330.094 335.432,328.872 335.432,327.365 L335.432,327.365 C335.432,325.857 336.654,324.635 338.161,324.635 z" fill="#FFFFFF"/>
    <path d="M129.589,324.635 L140.059,324.635 C141.566,324.635 142.788,325.857 142.788,327.365 L142.788,327.365 C142.788,328.872 141.566,330.094 140.059,330.094 L129.589,330.094 C128.082,330.094 126.86,328.872 126.86,327.365 L126.86,327.365 C126.86,325.857 128.082,324.635 129.589,324.635 z" fill="#FFFFFF"/>
    <path d="M47.161,361.435 L57.63,361.435 C59.138,361.435 60.36,362.657 60.36,364.165 L60.36,364.165 C60.36,365.672 59.138,366.894 57.63,366.894 L47.161,366.894 C45.654,366.894 44.432,365.672 44.432,364.165 L44.432,364.165 C44.432,362.657 45.654,361.435 47.161,361.435 z" fill="#B1B1B1"/>
    <path d="M47.161,361.435 L57.63,361.435 C59.138,361.435 60.36,362.657 60.36,364.165 L60.36,364.165 C60.36,365.672 59.138,366.894 57.63,366.894 L47.161,366.894 C45.654,366.894 44.432,365.672 44.432,364.165 L44.432,364.165 C44.432,362.657 45.654,361.435 47.161,361.435 z" fill="#B1B1B1"/>
    <path d="M129.589,361.435 L140.059,361.435 C141.566,361.435 142.788,362.657 142.788,364.165 L142.788,364.165 C142.788,365.672 141.566,366.894 140.059,366.894 L129.589,366.894 C128.082,366.894 126.86,365.672 126.86,364.165 L126.86,364.165 C126.86,362.657 128.082,361.435 129.589,361.435 z" fill="#B1B1B1"/>
    <path d="M129.589,341.635 L140.059,341.635 C141.566,341.635 142.788,342.857 142.788,344.365 L142.788,344.365 C142.788,345.872 141.566,347.094 140.059,347.094 L129.589,347.094 C128.082,347.094 126.86,345.872 126.86,344.365 L126.86,344.365 C126.86,342.857 128.082,341.635 129.589,341.635 z" fill="#B1B1B1"/>
    <path d="M129.589,381.435 L140.059,381.435 C141.566,381.435 142.788,382.657 142.788,384.165 L142.788,384.165 C142.788,385.672 141.566,386.894 140.059,386.894 L129.589,386.894 C128.082,386.894 126.86,385.672 126.86,384.165 L126.86,384.165 C126.86,382.657 128.082,381.435 129.589,381.435 z" fill="#B1B1B1"/>
    <path d="M129.589,401.035 L140.059,401.035 C141.566,401.035 142.788,402.257 142.788,403.765 L142.788,403.765 C142.788,405.272 141.566,406.494 140.059,406.494 L129.589,406.494 C128.082,406.494 126.86,405.272 126.86,403.765 L126.86,403.765 C126.86,402.257 128.082,401.035 129.589,401.035 z" fill="#B1B1B1"/>
    <path d="M129.589,421.435 L140.059,421.435 C141.566,421.435 142.788,422.657 142.788,424.165 L142.788,424.165 C142.788,425.672 141.566,426.894 140.059,426.894 L129.589,426.894 C128.082,426.894 126.86,425.672 126.86,424.165 L126.86,424.165 C126.86,422.657 128.082,421.435 129.589,421.435 z" fill="#B1B1B1"/>
    <path d="M129.589,440.635 L140.059,440.635 C141.566,440.635 142.788,441.857 142.788,443.365 L142.788,443.365 C142.788,444.872 141.566,446.094 140.059,446.094 L129.589,446.094 C128.082,446.094 126.86,444.872 126.86,443.365 L126.86,443.365 C126.86,441.857 128.082,440.635 129.589,440.635 z" fill="#B1B1B1"/>
    <path d="M129.589,461.435 L140.059,461.435 C141.566,461.435 142.788,462.657 142.788,464.165 L142.788,464.165 C142.788,465.672 141.566,466.894 140.059,466.894 L129.589,466.894 C128.082,466.894 126.86,465.672 126.86,464.165 L126.86,464.165 C126.86,462.657 128.082,461.435 129.589,461.435 z" fill="#B1B1B1"/>
    <path d="M129.589,480.835 L140.059,480.835 C141.566,480.835 142.788,482.057 142.788,483.565 L142.788,483.565 C142.788,485.072 141.566,486.294 140.059,486.294 L129.589,486.294 C128.082,486.294 126.86,485.072 126.86,483.565 L126.86,483.565 C126.86,482.057 128.082,480.835 129.589,480.835 z" fill="#B1B1B1"/>
    <path d="M251.928,330.094 L241.459,330.094 C239.952,330.094 238.73,328.872 238.73,327.365 L238.73,327.365 C238.73,325.857 239.952,324.635 241.459,324.635 L251.928,324.635 C253.435,324.635 254.657,325.857 254.657,327.365 L254.657,327.365 C254.657,328.872 253.435,330.094 251.928,330.094 z" fill="#FFFFFF"/>
    <path d="M168.6,324.635 L209.757,324.635 C211.264,324.635 212.486,325.857 212.486,327.365 L212.486,327.365 C212.486,328.872 211.264,330.094 209.757,330.094 L168.6,330.094 C167.093,330.094 165.871,328.872 165.871,327.365 L165.871,327.365 C165.871,325.857 167.093,324.635 168.6,324.635 z" fill="#FFFFFF"/>
    <path d="M47.161,341.635 L88.318,341.635 C89.825,341.635 91.047,342.857 91.047,344.365 L91.047,344.365 C91.047,345.872 89.825,347.094 88.318,347.094 L47.161,347.094 C45.654,347.094 44.432,345.872 44.432,344.365 L44.432,344.365 C44.432,342.857 45.654,341.635 47.161,341.635 z" fill="#B1B1B1"/>
    <path d="M46.434,401.035 L87.59,401.035 C89.097,401.035 90.319,402.257 90.319,403.765 L90.319,403.765 C90.319,405.272 89.097,406.494 87.59,406.494 L46.434,406.494 C44.926,406.494 43.704,405.272 43.704,403.765 L43.704,403.765 C43.704,402.257 44.926,401.035 46.434,401.035 z" fill="#B1B1B1"/>
    <path d="M47.161,421.435 L88.318,421.435 C89.825,421.435 91.047,422.657 91.047,424.165 L91.047,424.165 C91.047,425.672 89.825,426.894 88.318,426.894 L47.161,426.894 C45.654,426.894 44.432,425.672 44.432,424.165 L44.432,424.165 C44.432,422.657 45.654,421.435 47.161,421.435 z" fill="#B1B1B1"/>
    <path d="M47.161,440.635 L88.318,440.635 C89.825,440.635 91.047,441.857 91.047,443.365 L91.047,443.365 C91.047,444.872 89.825,446.094 88.318,446.094 L47.161,446.094 C45.654,446.094 44.432,444.872 44.432,443.365 L44.432,443.365 C44.432,441.857 45.654,440.635 47.161,440.635 z" fill="#B1B1B1"/>
    <path d="M168.6,361.435 L209.757,361.435 C211.264,361.435 212.486,362.657 212.486,364.165 L212.486,364.165 C212.486,365.672 211.264,366.894 209.757,366.894 L168.6,366.894 C167.093,366.894 165.871,365.672 165.871,364.165 L165.871,364.165 C165.871,362.657 167.093,361.435 168.6,361.435 z" fill="#B1B1B1"/>
    <path d="M168.6,401.035 L209.757,401.035 C211.264,401.035 212.486,402.257 212.486,403.765 L212.486,403.765 C212.486,405.272 211.264,406.494 209.757,406.494 L168.6,406.494 C167.093,406.494 165.871,405.272 165.871,403.765 L165.871,403.765 C165.871,402.257 167.093,401.035 168.6,401.035 z" fill="#B1B1B1"/>
    <path d="M168.6,480.835 L209.757,480.835 C211.264,480.835 212.486,482.057 212.486,483.565 L212.486,483.565 C212.486,485.072 211.264,486.294 209.757,486.294 L168.6,486.294 C167.093,486.294 165.871,485.072 165.871,483.565 L165.871,483.565 C165.871,482.057 167.093,480.835 168.6,480.835 z" fill="#B1B1B1"/>
    <path d="M262.062,324.635 L303.219,324.635 C304.726,324.635 305.948,325.857 305.948,327.365 L305.948,327.365 C305.948,328.872 304.726,330.094 303.219,330.094 L262.062,330.094 C260.555,330.094 259.333,328.872 259.333,327.365 L259.333,327.365 C259.333,325.857 260.555,324.635 262.062,324.635 z" fill="#FFFFFF"/>
    <path d="M67.062,361.435 L108.219,361.435 C109.726,361.435 110.948,362.657 110.948,364.165 L110.948,364.165 C110.948,365.672 109.726,366.894 108.219,366.894 L67.062,366.894 C65.555,366.894 64.333,365.672 64.333,364.165 L64.333,364.165 C64.333,362.657 65.555,361.435 67.062,361.435 z" fill="#B1B1B1"/>
    <path d="M47.161,480.835 L57.63,480.835 C59.138,480.835 60.36,482.057 60.36,483.565 L60.36,483.565 C60.36,485.072 59.138,486.294 57.63,486.294 L47.161,486.294 C45.654,486.294 44.432,485.072 44.432,483.565 L44.432,483.565 C44.432,482.057 45.654,480.835 47.161,480.835 z" fill="#B1B1B1"/>
    <path d="M67.062,480.835 L108.219,480.835 C109.726,480.835 110.948,482.057 110.948,483.565 L110.948,483.565 C110.948,485.072 109.726,486.294 108.219,486.294 L67.062,486.294 C65.555,486.294 64.333,485.072 64.333,483.565 L64.333,483.565 C64.333,482.057 65.555,480.835 67.062,480.835 z" fill="#B1B1B1"/>
    <path d="M241.459,381.435 L251.928,381.435 C253.435,381.435 254.657,382.657 254.657,384.165 L254.657,384.165 C254.657,385.672 253.435,386.894 251.928,386.894 L241.459,386.894 C239.952,386.894 238.73,385.672 238.73,384.165 L238.73,384.165 C238.73,382.657 239.952,381.435 241.459,381.435 z" fill="#B1B1B1"/>
    <path d="M262.062,381.435 L303.219,381.435 C304.726,381.435 305.948,382.657 305.948,384.165 L305.948,384.165 C305.948,385.672 304.726,386.894 303.219,386.894 L262.062,386.894 C260.555,386.894 259.333,385.672 259.333,384.165 L259.333,384.165 C259.333,382.657 260.555,381.435 262.062,381.435 z" fill="#B1B1B1"/>
    <path d="M235.869,440.635 L286.448,440.635 C287.955,440.635 289.177,441.857 289.177,443.365 L289.177,443.365 C289.177,444.872 287.955,446.094 286.448,446.094 L235.869,446.094 C234.361,446.094 233.139,444.872 233.139,443.365 L233.139,443.365 C233.139,441.857 234.361,440.635 235.869,440.635 z" fill="#B1B1B1"/>
    <path d="M233.959,480.835 L284.538,480.835 C286.046,480.835 287.267,482.057 287.267,483.565 L287.267,483.565 C287.267,485.072 286.046,486.294 284.538,486.294 L233.959,486.294 C232.452,486.294 231.23,485.072 231.23,483.565 L231.23,483.565 C231.23,482.057 232.452,480.835 233.959,480.835 z" fill="#B1B1B1"/>
    <path d="M235.869,460.635 L246.338,460.635 C247.845,460.635 249.067,461.857 249.067,463.365 L249.067,463.365 C249.067,464.872 247.845,466.094 246.338,466.094 L235.869,466.094 C234.361,466.094 233.139,464.872 233.139,463.365 L233.139,463.365 C233.139,461.857 234.361,460.635 235.869,460.635 z" fill="#B1B1B1"/>
    <path d="M256.472,460.635 L297.629,460.635 C299.136,460.635 300.358,461.857 300.358,463.365 L300.358,463.365 C300.358,464.872 299.136,466.094 297.629,466.094 L256.472,466.094 C254.965,466.094 253.743,464.872 253.743,463.365 L253.743,463.365 C253.743,461.857 254.965,460.635 256.472,460.635 z" fill="#B1B1B1"/>
    <path d="M241.459,421.435 L251.928,421.435 C253.435,421.435 254.657,422.657 254.657,424.165 L254.657,424.165 C254.657,425.672 253.435,426.894 251.928,426.894 L241.459,426.894 C239.952,426.894 238.73,425.672 238.73,424.165 L238.73,424.165 C238.73,422.657 239.952,421.435 241.459,421.435 z" fill="#B1B1B1"/>
    <path d="M262.062,421.435 L303.219,421.435 C304.726,421.435 305.948,422.657 305.948,424.165 L305.948,424.165 C305.948,425.672 304.726,426.894 303.219,426.894 L262.062,426.894 C260.555,426.894 259.333,425.672 259.333,424.165 L259.333,424.165 C259.333,422.657 260.555,421.435 262.062,421.435 z" fill="#B1B1B1"/>
    <path d="M168.6,440.635 L179.069,440.635 C180.576,440.635 181.798,441.857 181.798,443.365 L181.798,443.365 C181.798,444.872 180.576,446.094 179.069,446.094 L168.6,446.094 C167.093,446.094 165.871,444.872 165.871,443.365 L165.871,443.365 C165.871,441.857 167.093,440.635 168.6,440.635 z" fill="#B1B1B1"/>
    <path d="M338.161,341.635 L379.318,341.635 C380.825,341.635 382.047,342.857 382.047,344.365 L382.047,344.365 C382.047,345.872 380.825,347.094 379.318,347.094 L338.161,347.094 C336.654,347.094 335.432,345.872 335.432,344.365 L335.432,344.365 C335.432,342.857 336.654,341.635 338.161,341.635 z" fill="#B1B1B1"/>
    <path d="M338.161,361.435 L379.318,361.435 C380.825,361.435 382.047,362.657 382.047,364.165 L382.047,364.165 C382.047,365.672 380.825,366.894 379.318,366.894 L338.161,366.894 C336.654,366.894 335.432,365.672 335.432,364.165 L335.432,364.165 C335.432,362.657 336.654,361.435 338.161,361.435 z" fill="#B1B1B1"/>
    <path d="M338.161,401.035 L379.318,401.035 C380.825,401.035 382.047,402.257 382.047,403.765 L382.047,403.765 C382.047,405.272 380.825,406.494 379.318,406.494 L338.161,406.494 C336.654,406.494 335.432,405.272 335.432,403.765 L335.432,403.765 C335.432,402.257 336.654,401.035 338.161,401.035 z" fill="#B1B1B1"/>
    <path d="M338.161,440.635 L379.318,440.635 C380.825,440.635 382.047,441.857 382.047,443.365 L382.047,443.365 C382.047,444.872 380.825,446.094 379.318,446.094 L338.161,446.094 C336.654,446.094 335.432,444.872 335.432,443.365 L335.432,443.365 C335.432,441.857 336.654,440.635 338.161,440.635 z" fill="#B1B1B1"/>
    <path d="M338.161,480.835 L379.318,480.835 C380.825,480.835 382.047,482.057 382.047,483.565 L382.047,483.565 C382.047,485.072 380.825,486.294 379.318,486.294 L338.161,486.294 C336.654,486.294 335.432,485.072 335.432,483.565 L335.432,483.565 C335.432,482.057 336.654,480.835 338.161,480.835 z" fill="#B1B1B1"/>
    <path d="M338.161,381.435 L366.383,381.435 C367.891,381.435 369.142,382.657 369.142,384.165 C369.142,385.659 367.858,386.894 366.351,386.894 L338.161,386.894 C336.654,386.894 335.432,385.672 335.432,384.165 L335.432,384.165 C335.432,382.657 336.654,381.435 338.161,381.435 z" fill="#B1B1B1"/>
    <path d="M47.161,381.435 L75.383,381.435 C76.891,381.435 78.142,382.657 78.142,384.165 C78.142,385.659 76.858,386.894 75.351,386.894 L47.161,386.894 C45.654,386.894 44.432,385.672 44.432,384.165 L44.432,384.165 C44.432,382.657 45.654,381.435 47.161,381.435 z" fill="#B1B1B1"/>
    <path d="M87.271,461.435 L97.741,461.435 C99.248,461.435 100.47,462.657 100.47,464.165 L100.47,464.165 C100.47,465.672 99.248,466.894 97.741,466.894 L87.271,466.894 C85.764,466.894 84.542,465.672 84.542,464.165 L84.542,464.165 C84.542,462.657 85.764,461.435 87.271,461.435 z" fill="#B1B1B1"/>
    <path d="M47.161,461.435 L75.383,461.435 C76.891,461.435 78.142,462.657 78.142,464.165 C78.142,465.659 76.858,466.894 75.351,466.894 L47.161,466.894 C45.654,466.894 44.432,465.672 44.432,464.165 L44.432,464.165 C44.432,462.657 45.654,461.435 47.161,461.435 z" fill="#B1B1B1"/>
    <path d="M13.667,374.85 L398,374.85" fill-opacity="0" stroke="#959595" stroke-width="1" stroke-linecap="round"/>
    <path d="M13.667,354.865 L398,354.865" fill-opacity="0" stroke="#959595" stroke-width="1" stroke-linecap="round"/>
    <path d="M13.667,394.85 L398,394.85" fill-opacity="0" stroke="#959595" stroke-width="1" stroke-linecap="round"/>
    <path d="M13.667,414.85 L398,414.85" fill-opacity="0" stroke="#959595" stroke-width="1" stroke-linecap="round"/>
    <path d="M13.667,434.85 L398,434.85" fill-opacity="0" stroke="#959595" stroke-width="1" stroke-linecap="round"/>
    <path d="M13.667,454.85 L398,454.85" fill-opacity="0" stroke="#959595" stroke-width="1" stroke-linecap="round"/>
    <path d="M13.667,474.85 L398,474.85" fill-opacity="0" stroke="#959595" stroke-width="1" stroke-linecap="round"/>
    <path d="M18.01,324.286 L21.167,324.286 C22.271,324.286 23.167,325.182 23.167,326.286 L23.167,329.443 C23.167,330.547 22.271,331.443 21.167,331.443 L18.01,331.443 C16.906,331.443 16.01,330.547 16.01,329.443 L16.01,326.286 C16.01,325.182 16.906,324.286 18.01,324.286 z" fill-opacity="0" stroke="#FFFFFF" stroke-width="1"/>
    <path d="M18.01,341.286 L21.167,341.286 C22.271,341.286 23.167,342.182 23.167,343.286 L23.167,346.443 C23.167,347.547 22.271,348.443 21.167,348.443 L18.01,348.443 C16.906,348.443 16.01,347.547 16.01,346.443 L16.01,343.286 C16.01,342.182 16.906,341.286 18.01,341.286 z" fill-opacity="0" stroke="#FFFFFF" stroke-width="1"/>
    <path d="M18.01,361.086 L21.167,361.086 C22.271,361.086 23.167,361.982 23.167,363.086 L23.167,366.243 C23.167,367.347 22.271,368.243 21.167,368.243 L18.01,368.243 C16.906,368.243 16.01,367.347 16.01,366.243 L16.01,363.086 C16.01,361.982 16.906,361.086 18.01,361.086 z" fill-opacity="0" stroke="#FFFFFF" stroke-width="1"/>
    <path d="M18.01,400.686 L21.167,400.686 C22.271,400.686 23.167,401.582 23.167,402.686 L23.167,405.843 C23.167,406.947 22.271,407.843 21.167,407.843 L18.01,407.843 C16.906,407.843 16.01,406.947 16.01,405.843 L16.01,402.686 C16.01,401.582 16.906,400.686 18.01,400.686 z" fill-opacity="0" stroke="#FFFFFF" stroke-width="1"/>
    <path d="M18.01,461.086 L21.167,461.086 C22.271,461.086 23.167,461.982 23.167,463.086 L23.167,466.243 C23.167,467.347 22.271,468.243 21.167,468.243 L18.01,468.243 C16.906,468.243 16.01,467.347 16.01,466.243 L16.01,463.086 C16.01,461.982 16.906,461.086 18.01,461.086 z" fill-opacity="0" stroke="#FFFFFF" stroke-width="1"/>
    <path d="M18.01,440.286 L21.167,440.286 C22.271,440.286 23.167,441.182 23.167,442.286 L23.167,445.443 C23.167,446.547 22.271,447.443 21.167,447.443 L18.01,447.443 C16.906,447.443 16.01,446.547 16.01,445.443 L16.01,442.286 C16.01,441.182 16.906,440.286 18.01,440.286 z" fill-opacity="0" stroke="#FFFFFF" stroke-width="1"/>
    <path d="M18.01,480.486 L21.167,480.486 C22.271,480.486 23.167,481.382 23.167,482.486 L23.167,485.643 C23.167,486.747 22.271,487.643 21.167,487.643 L18.01,487.643 C16.906,487.643 16.01,486.747 16.01,485.643 L16.01,482.486 C16.01,481.382 16.906,480.486 18.01,480.486 z" fill-opacity="0" stroke="#FFFFFF" stroke-width="1"/>
    <path d="M18.01,381.086 L21.167,381.086 C22.271,381.086 23.167,381.982 23.167,383.086 L23.167,386.243 C23.167,387.347 22.271,388.243 21.167,388.243 L18.01,388.243 C16.906,388.243 16.01,387.347 16.01,386.243 L16.01,383.086 C16.01,381.982 16.906,381.086 18.01,381.086 z" fill-opacity="0" stroke="#FFFFFF" stroke-width="1"/>
    <path d="M18.01,421.086 L21.167,421.086 C22.271,421.086 23.167,421.982 23.167,423.086 L23.167,426.243 C23.167,427.347 22.271,428.243 21.167,428.243 L18.01,428.243 C16.906,428.243 16.01,427.347 16.01,426.243 L16.01,423.086 C16.01,421.982 16.906,421.086 18.01,421.086 z" fill-opacity="0" stroke="#FFFFFF" stroke-width="1"/>
    <g>
      <path d="M461.658,380.364 L842.991,380.364 C845.2,380.364 846.991,382.155 846.991,384.364 L846.991,550.599 C846.991,552.808 845.2,554.599 842.991,554.599 L461.658,554.599 C459.448,554.599 457.658,552.808 457.658,550.599 L457.658,384.364 C457.658,382.155 459.448,380.364 461.658,380.364 z" fill="#E5E5E5"/>
      <g>
        <path d="M506.096,364.719 L506.096,344.832 Q506.096,344.422 506.255,344.157 Q506.414,343.891 506.651,343.891 L508.688,343.891 Q508.924,343.891 509.083,344.157 Q509.243,344.422 509.243,344.832 L509.243,364.719 Q509.243,365.114 509.083,365.379 Q508.924,365.645 508.688,365.645 L506.651,365.645 Q506.414,365.645 506.255,365.379 Q506.096,365.114 506.096,364.719 z" fill="#787878"/>
        <g>
          <path d="M511.086,365.182 L511.086,352.014 Q511.086,351.8 511.257,351.661 Q511.428,351.522 511.691,351.522 L516.668,351.522 Q516.921,351.522 517.092,351.661 Q517.263,351.8 517.263,352.014 L517.263,354.32 Q517.263,354.535 517.092,354.674 Q516.921,354.812 516.668,354.812 L514.267,354.812 L514.267,362.459 L516.668,362.459 Q516.921,362.459 517.092,362.597 Q517.263,362.736 517.263,362.943 L517.263,365.182 Q517.263,365.388 517.092,365.527 Q516.921,365.666 516.668,365.666 L511.691,365.666 Q511.428,365.666 511.257,365.527 Q511.086,365.388 511.086,365.182 z" fill="#787878"/>
          <path d="M524.243,352.006 L524.243,365.174 Q524.243,365.388 524.072,365.527 Q523.901,365.666 523.638,365.666 L518.662,365.666 Q518.408,365.666 518.237,365.527 Q518.066,365.388 518.066,365.174 L518.066,362.955 Q518.066,362.741 518.237,362.602 Q518.408,362.463 518.662,362.463 L521.062,362.463 L521.062,354.804 L518.662,354.804 Q518.408,354.804 518.237,354.666 Q518.066,354.527 518.066,354.32 L518.066,352.006 Q518.066,351.8 518.237,351.661 Q518.408,351.522 518.662,351.522 L523.638,351.522 Q523.901,351.522 524.072,351.661 Q524.243,351.8 524.243,352.006 z" fill="#787878"/>
        </g>
        <path d="M457.658,358.902 L457.658,358.274 Q457.658,357.427 458.242,356.876 L463.786,351.709 Q464.127,351.414 464.385,351.587 Q464.643,351.76 464.643,352.234 L464.643,354.44 Q464.643,355.389 463.786,356.171 L461.194,358.581 L463.786,361.005 Q464.643,361.787 464.643,362.736 L464.643,364.941 Q464.643,365.416 464.385,365.583 Q464.127,365.749 463.786,365.467 L458.242,360.287 Q457.658,359.748 457.658,358.902 z" fill="#787878"/>
        <path d="M468.572,350.404 L468.572,344.185 Q468.572,344.057 468.731,343.974 Q468.89,343.891 469.126,343.891 L471.163,343.891 Q471.4,343.891 471.559,343.974 Q471.718,344.057 471.718,344.185 L471.718,350.404 Q471.718,350.527 471.559,350.61 Q471.4,350.693 471.163,350.693 L469.126,350.693 Q468.89,350.693 468.731,350.61 Q468.572,350.527 468.572,350.404 z" fill="#787878"/>
        <path d="M472.786,350.404 L472.786,348.379 Q472.786,348.251 472.945,348.168 Q473.104,348.085 473.34,348.085 L475.377,348.085 Q475.614,348.085 475.773,348.168 Q475.932,348.251 475.932,348.379 L475.932,350.404 Q475.932,350.527 475.773,350.61 Q475.614,350.693 475.377,350.693 L473.34,350.693 Q473.104,350.693 472.945,350.61 Q472.786,350.527 472.786,350.404 z" fill="#787878"/>
        <path d="M471.718,352.006 L471.718,365.153 Q471.718,365.367 471.548,365.506 Q471.377,365.644 471.114,365.644 L466.145,365.644 Q465.892,365.644 465.722,365.506 Q465.551,365.367 465.551,365.153 L465.551,362.938 Q465.551,362.724 465.722,362.585 Q465.892,362.447 466.145,362.447 L468.542,362.447 L468.542,354.8 L466.145,354.8 Q465.892,354.8 465.722,354.661 Q465.551,354.523 465.551,354.316 L465.551,352.006 Q465.551,351.8 465.722,351.661 Q465.892,351.523 466.145,351.523 L471.114,351.523 Q471.377,351.523 471.548,351.661 Q471.718,351.8 471.718,352.006 z" fill="#787878"/>
        <g>
          <path d="M504.587,358.265 L504.587,358.893 Q504.587,359.74 504.003,360.291 L498.459,365.459 Q498.118,365.753 497.86,365.58 Q497.602,365.407 497.602,364.933 L497.602,362.727 Q497.602,361.779 498.459,360.996 L501.051,358.586 L498.459,356.162 Q497.602,355.38 497.602,354.431 L497.602,352.226 Q497.602,351.751 497.86,351.585 Q498.118,351.418 498.459,351.7 L504.003,356.88 Q504.587,357.419 504.587,358.265 z" fill="#787878"/>
          <path d="M490.527,350.404 L490.527,344.185 Q490.527,344.057 490.686,343.974 Q490.845,343.891 491.081,343.891 L493.118,343.891 Q493.355,343.891 493.514,343.974 Q493.673,344.057 493.673,344.185 L493.673,350.404 Q493.673,350.527 493.514,350.61 Q493.355,350.693 493.118,350.693 L491.081,350.693 Q490.845,350.693 490.686,350.61 Q490.527,350.527 490.527,350.404 z" fill="#787878"/>
          <path d="M490.527,365.161 L490.527,352.014 Q490.527,351.8 490.697,351.661 Q490.868,351.523 491.131,351.523 L496.099,351.523 Q496.353,351.523 496.523,351.661 Q496.694,351.8 496.694,352.014 L496.694,354.229 Q496.694,354.443 496.523,354.582 Q496.353,354.721 496.099,354.721 L493.703,354.721 L493.703,362.367 L496.099,362.367 Q496.353,362.367 496.523,362.506 Q496.694,362.645 496.694,362.851 L496.694,365.161 Q496.694,365.367 496.523,365.506 Q496.353,365.644 496.099,365.644 L491.131,365.644 Q490.868,365.644 490.697,365.506 Q490.527,365.367 490.527,365.161 z" fill="#787878"/>
        </g>
        <path d="M472.673,364.861 L472.673,352.327 Q472.673,351.97 472.844,351.746 Q473.014,351.521 473.268,351.521 L475.45,351.521 Q475.713,351.521 475.879,351.753 Q476.044,351.984 476.044,352.327 L476.044,364.861 Q476.044,365.218 475.874,365.442 Q475.703,365.667 475.45,365.667 L473.268,365.667 Q473.005,365.667 472.839,365.442 Q472.673,365.218 472.673,364.861 z" fill="#787878"/>
        <path d="M477.363,351.523 L479.233,351.523 Q479.652,351.523 480.022,351.839 Q480.393,352.154 480.549,352.657 L483.208,360.684 L485.858,352.657 Q486.014,352.154 486.384,351.839 Q486.755,351.523 487.173,351.523 L489.054,351.523 Q489.395,351.523 489.502,351.858 Q489.551,351.987 489.546,352.187 Q489.541,352.386 489.453,352.657 L485.244,364.511 Q485.069,365.013 484.694,365.329 Q484.319,365.645 483.919,365.645 L482.487,365.645 Q482.088,365.645 481.718,365.329 Q481.347,365.013 481.172,364.511 L476.963,352.657 Q476.866,352.373 476.866,352.18 Q476.866,351.523 477.363,351.523 z" fill="#787878"/>
        <g>
          <path d="M533.119,358.901 L533.119,358.273 Q533.119,357.427 533.703,356.876 L539.247,351.708 Q539.588,351.413 539.846,351.586 Q540.104,351.759 540.104,352.234 L540.104,354.439 Q540.104,355.388 539.247,356.17 L536.655,358.581 L539.247,361.004 Q540.104,361.787 540.104,362.735 L540.104,364.941 Q540.104,365.415 539.846,365.582 Q539.588,365.749 539.247,365.467 L533.703,360.286 Q533.119,359.748 533.119,358.901 z" fill="#787878"/>
          <path d="M532.761,358.287 L532.761,358.915 Q532.761,359.761 532.177,360.313 L526.633,365.48 Q526.292,365.775 526.034,365.602 Q525.776,365.429 525.776,364.954 L525.776,362.749 Q525.776,361.8 526.633,361.018 L529.224,358.607 L526.633,356.184 Q525.776,355.402 525.776,354.453 L525.776,352.247 Q525.776,351.773 526.034,351.606 Q526.292,351.439 526.633,351.722 L532.177,356.902 Q532.761,357.44 532.761,358.287 z" fill="#787878"/>
        </g>
      </g>
      <g>
        <path d="M462.158,380.864 L843.491,380.864 C845.7,380.864 847.491,382.655 847.491,384.864 L847.491,390.864 C847.491,393.073 845.7,394.864 843.491,394.864 L462.158,394.864 C459.948,394.864 458.158,393.073 458.158,390.864 L458.158,384.864 C458.158,382.655 459.948,380.864 462.158,380.864 z" fill="#959595"/>
        <path d="M462.158,380.864 L843.491,380.864 C845.7,380.864 847.491,382.655 847.491,384.864 L847.491,390.864 C847.491,393.073 845.7,394.864 843.491,394.864 L462.158,394.864 C459.948,394.864 458.158,393.073 458.158,390.864 L458.158,384.864 C458.158,382.655 459.948,380.864 462.158,380.864 z" fill-opacity="0" stroke="#959595" stroke-width="1"/>
      </g>
      <path d="M494.152,384.635 L544.732,384.635 C546.239,384.635 547.461,385.857 547.461,387.364 L547.461,387.364 C547.461,388.872 546.239,390.093 544.732,390.093 L494.152,390.093 C492.645,390.093 491.423,388.872 491.423,387.364 L491.423,387.364 C491.423,385.857 492.645,384.635 494.152,384.635 z" fill="#FFFFFF"/>
      <path d="M785.152,384.635 L835.732,384.635 C837.239,384.635 838.461,385.857 838.461,387.364 L838.461,387.364 C838.461,388.872 837.239,390.093 835.732,390.093 L785.152,390.093 C783.645,390.093 782.423,388.872 782.423,387.364 L782.423,387.364 C782.423,385.857 783.645,384.635 785.152,384.635 z" fill="#FFFFFF"/>
      <path d="M688.45,421.435 L739.029,421.435 C740.536,421.435 741.758,422.657 741.758,424.164 L741.758,424.164 C741.758,425.672 740.536,426.893 739.029,426.893 L688.45,426.893 C686.943,426.893 685.721,425.672 685.721,424.164 L685.721,424.164 C685.721,422.657 686.943,421.435 688.45,421.435 z" fill="#B1B1B1"/>
      <path d="M576.58,384.635 L587.049,384.635 C588.557,384.635 589.779,385.857 589.779,387.364 L589.779,387.364 C589.779,388.872 588.557,390.093 587.049,390.093 L576.58,390.093 C575.073,390.093 573.851,388.872 573.851,387.364 L573.851,387.364 C573.851,385.857 575.073,384.635 576.58,384.635 z" fill="#FFFFFF"/>
      <path d="M494.152,421.435 L504.621,421.435 C506.129,421.435 507.35,422.657 507.35,424.164 L507.35,424.164 C507.35,425.672 506.129,426.893 504.621,426.893 L494.152,426.893 C492.645,426.893 491.423,425.672 491.423,424.164 L491.423,424.164 C491.423,422.657 492.645,421.435 494.152,421.435 z" fill="#B1B1B1"/>
      <path d="M494.152,421.435 L504.621,421.435 C506.129,421.435 507.35,422.657 507.35,424.164 L507.35,424.164 C507.35,425.672 506.129,426.893 504.621,426.893 L494.152,426.893 C492.645,426.893 491.423,425.672 491.423,424.164 L491.423,424.164 C491.423,422.657 492.645,421.435 494.152,421.435 z" fill="#B1B1B1"/>
      <path d="M576.58,421.435 L587.049,421.435 C588.557,421.435 589.779,422.657 589.779,424.164 L589.779,424.164 C589.779,425.672 588.557,426.893 587.049,426.893 L576.58,426.893 C575.073,426.893 573.851,425.672 573.851,424.164 L573.851,424.164 C573.851,422.657 575.073,421.435 576.58,421.435 z" fill="#B1B1B1"/>
      <path d="M576.58,401.635 L587.049,401.635 C588.557,401.635 589.779,402.857 589.779,404.364 L589.779,404.364 C589.779,405.872 588.557,407.093 587.049,407.093 L576.58,407.093 C575.073,407.093 573.851,405.872 573.851,404.364 L573.851,404.364 C573.851,402.857 575.073,401.635 576.58,401.635 z" fill="#B1B1B1"/>
      <path d="M576.58,441.435 L587.049,441.435 C588.557,441.435 589.779,442.657 589.779,444.164 L589.779,444.164 C589.779,445.672 588.557,446.893 587.049,446.893 L576.58,446.893 C575.073,446.893 573.851,445.672 573.851,444.164 L573.851,444.164 C573.851,442.657 575.073,441.435 576.58,441.435 z" fill="#B1B1B1"/>
      <path d="M576.58,461.035 L587.049,461.035 C588.557,461.035 589.779,462.257 589.779,463.764 L589.779,463.764 C589.779,465.272 588.557,466.493 587.049,466.493 L576.58,466.493 C575.073,466.493 573.851,465.272 573.851,463.764 L573.851,463.764 C573.851,462.257 575.073,461.035 576.58,461.035 z" fill="#B1B1B1"/>
      <path d="M576.58,481.435 L587.049,481.435 C588.557,481.435 589.779,482.657 589.779,484.164 L589.779,484.164 C589.779,485.672 588.557,486.893 587.049,486.893 L576.58,486.893 C575.073,486.893 573.851,485.672 573.851,484.164 L573.851,484.164 C573.851,482.657 575.073,481.435 576.58,481.435 z" fill="#B1B1B1"/>
      <path d="M576.58,500.635 L587.049,500.635 C588.557,500.635 589.779,501.857 589.779,503.364 L589.779,503.364 C589.779,504.872 588.557,506.093 587.049,506.093 L576.58,506.093 C575.073,506.093 573.851,504.872 573.851,503.364 L573.851,503.364 C573.851,501.857 575.073,500.635 576.58,500.635 z" fill="#B1B1B1"/>
      <path d="M576.58,521.435 L587.049,521.435 C588.557,521.435 589.779,522.657 589.779,524.164 L589.779,524.164 C589.779,525.672 588.557,526.893 587.049,526.893 L576.58,526.893 C575.073,526.893 573.851,525.672 573.851,524.164 L573.851,524.164 C573.851,522.657 575.073,521.435 576.58,521.435 z" fill="#B1B1B1"/>
      <path d="M576.58,540.835 L587.049,540.835 C588.557,540.835 589.779,542.057 589.779,543.564 L589.779,543.564 C589.779,545.072 588.557,546.293 587.049,546.293 L576.58,546.293 C575.073,546.293 573.851,545.072 573.851,543.564 L573.851,543.564 C573.851,542.057 575.073,540.835 576.58,540.835 z" fill="#B1B1B1"/>
      <path d="M698.919,390.093 L688.45,390.093 C686.943,390.093 685.721,388.872 685.721,387.364 L685.721,387.364 C685.721,385.857 686.943,384.635 688.45,384.635 L698.919,384.635 C700.426,384.635 701.648,385.857 701.648,387.364 L701.648,387.364 C701.648,388.872 700.426,390.093 698.919,390.093 z" fill="#FFFFFF"/>
      <path d="M615.591,384.635 L656.748,384.635 C658.255,384.635 659.477,385.857 659.477,387.364 L659.477,387.364 C659.477,388.872 658.255,390.093 656.748,390.093 L615.591,390.093 C614.084,390.093 612.862,388.872 612.862,387.364 L612.862,387.364 C612.862,385.857 614.084,384.635 615.591,384.635 z" fill="#FFFFFF"/>
      <path d="M494.152,401.635 L535.309,401.635 C536.816,401.635 538.038,402.857 538.038,404.364 L538.038,404.364 C538.038,405.872 536.816,407.093 535.309,407.093 L494.152,407.093 C492.645,407.093 491.423,405.872 491.423,404.364 L491.423,404.364 C491.423,402.857 492.645,401.635 494.152,401.635 z" fill="#B1B1B1"/>
      <path d="M493.424,461.035 L534.581,461.035 C536.088,461.035 537.31,462.257 537.31,463.764 L537.31,463.764 C537.31,465.272 536.088,466.493 534.581,466.493 L493.424,466.493 C491.917,466.493 490.695,465.272 490.695,463.764 L490.695,463.764 C490.695,462.257 491.917,461.035 493.424,461.035 z" fill="#B1B1B1"/>
      <path d="M494.152,481.435 L535.309,481.435 C536.816,481.435 538.038,482.657 538.038,484.164 L538.038,484.164 C538.038,485.672 536.816,486.893 535.309,486.893 L494.152,486.893 C492.645,486.893 491.423,485.672 491.423,484.164 L491.423,484.164 C491.423,482.657 492.645,481.435 494.152,481.435 z" fill="#B1B1B1"/>
      <path d="M494.152,500.635 L535.309,500.635 C536.816,500.635 538.038,501.857 538.038,503.364 L538.038,503.364 C538.038,504.872 536.816,506.093 535.309,506.093 L494.152,506.093 C492.645,506.093 491.423,504.872 491.423,503.364 L491.423,503.364 C491.423,501.857 492.645,500.635 494.152,500.635 z" fill="#B1B1B1"/>
      <path d="M615.591,421.435 L656.748,421.435 C658.255,421.435 659.477,422.657 659.477,424.164 L659.477,424.164 C659.477,425.672 658.255,426.893 656.748,426.893 L615.591,426.893 C614.084,426.893 612.862,425.672 612.862,424.164 L612.862,424.164 C612.862,422.657 614.084,421.435 615.591,421.435 z" fill="#B1B1B1"/>
      <path d="M615.591,461.035 L656.748,461.035 C658.255,461.035 659.477,462.257 659.477,463.764 L659.477,463.764 C659.477,465.272 658.255,466.493 656.748,466.493 L615.591,466.493 C614.084,466.493 612.862,465.272 612.862,463.764 L612.862,463.764 C612.862,462.257 614.084,461.035 615.591,461.035 z" fill="#B1B1B1"/>
      <path d="M615.591,540.835 L656.748,540.835 C658.255,540.835 659.477,542.057 659.477,543.564 L659.477,543.564 C659.477,545.072 658.255,546.293 656.748,546.293 L615.591,546.293 C614.084,546.293 612.862,545.072 612.862,543.564 L612.862,543.564 C612.862,542.057 614.084,540.835 615.591,540.835 z" fill="#B1B1B1"/>
      <path d="M709.053,384.635 L750.21,384.635 C751.717,384.635 752.939,385.857 752.939,387.364 L752.939,387.364 C752.939,388.872 751.717,390.093 750.21,390.093 L709.053,390.093 C707.546,390.093 706.324,388.872 706.324,387.364 L706.324,387.364 C706.324,385.857 707.546,384.635 709.053,384.635 z" fill="#FFFFFF"/>
      <path d="M514.053,421.435 L555.21,421.435 C556.717,421.435 557.939,422.657 557.939,424.164 L557.939,424.164 C557.939,425.672 556.717,426.893 555.21,426.893 L514.053,426.893 C512.546,426.893 511.324,425.672 511.324,424.164 L511.324,424.164 C511.324,422.657 512.546,421.435 514.053,421.435 z" fill="#B1B1B1"/>
      <path d="M494.152,540.835 L504.621,540.835 C506.129,540.835 507.35,542.057 507.35,543.564 L507.35,543.564 C507.35,545.072 506.129,546.293 504.621,546.293 L494.152,546.293 C492.645,546.293 491.423,545.072 491.423,543.564 L491.423,543.564 C491.423,542.057 492.645,540.835 494.152,540.835 z" fill="#B1B1B1"/>
      <path d="M514.053,540.835 L555.21,540.835 C556.717,540.835 557.939,542.057 557.939,543.564 L557.939,543.564 C557.939,545.072 556.717,546.293 555.21,546.293 L514.053,546.293 C512.546,546.293 511.324,545.072 511.324,543.564 L511.324,543.564 C511.324,542.057 512.546,540.835 514.053,540.835 z" fill="#B1B1B1"/>
      <path d="M688.45,441.435 L698.919,441.435 C700.426,441.435 701.648,442.657 701.648,444.164 L701.648,444.164 C701.648,445.672 700.426,446.893 698.919,446.893 L688.45,446.893 C686.943,446.893 685.721,445.672 685.721,444.164 L685.721,444.164 C685.721,442.657 686.943,441.435 688.45,441.435 z" fill="#B1B1B1"/>
      <path d="M709.053,441.435 L750.21,441.435 C751.717,441.435 752.939,442.657 752.939,444.164 L752.939,444.164 C752.939,445.672 751.717,446.893 750.21,446.893 L709.053,446.893 C707.546,446.893 706.324,445.672 706.324,444.164 L706.324,444.164 C706.324,442.657 707.546,441.435 709.053,441.435 z" fill="#B1B1B1"/>
      <path d="M682.86,500.635 L733.439,500.635 C734.946,500.635 736.168,501.857 736.168,503.364 L736.168,503.364 C736.168,504.872 734.946,506.093 733.439,506.093 L682.86,506.093 C681.352,506.093 680.13,504.872 680.13,503.364 L680.13,503.364 C680.13,501.857 681.352,500.635 682.86,500.635 z" fill="#B1B1B1"/>
      <path d="M680.95,540.835 L731.529,540.835 C733.036,540.835 734.258,542.057 734.258,543.564 L734.258,543.564 C734.258,545.072 733.036,546.293 731.529,546.293 L680.95,546.293 C679.443,546.293 678.221,545.072 678.221,543.564 L678.221,543.564 C678.221,542.057 679.443,540.835 680.95,540.835 z" fill="#B1B1B1"/>
      <path d="M682.86,520.635 L693.329,520.635 C694.836,520.635 696.058,521.857 696.058,523.364 L696.058,523.364 C696.058,524.872 694.836,526.094 693.329,526.094 L682.86,526.094 C681.352,526.094 680.13,524.872 680.13,523.364 L680.13,523.364 C680.13,521.857 681.352,520.635 682.86,520.635 z" fill="#B1B1B1"/>
      <path d="M703.463,520.635 L744.62,520.635 C746.127,520.635 747.349,521.857 747.349,523.364 L747.349,523.364 C747.349,524.872 746.127,526.094 744.62,526.094 L703.463,526.094 C701.956,526.094 700.734,524.872 700.734,523.364 L700.734,523.364 C700.734,521.857 701.956,520.635 703.463,520.635 z" fill="#B1B1B1"/>
      <path d="M688.45,481.435 L698.919,481.435 C700.426,481.435 701.648,482.657 701.648,484.164 L701.648,484.164 C701.648,485.672 700.426,486.893 698.919,486.893 L688.45,486.893 C686.943,486.893 685.721,485.672 685.721,484.164 L685.721,484.164 C685.721,482.657 686.943,481.435 688.45,481.435 z" fill="#B1B1B1"/>
      <path d="M709.053,481.435 L750.21,481.435 C751.717,481.435 752.939,482.657 752.939,484.164 L752.939,484.164 C752.939,485.672 751.717,486.893 750.21,486.893 L709.053,486.893 C707.546,486.893 706.324,485.672 706.324,484.164 L706.324,484.164 C706.324,482.657 707.546,481.435 709.053,481.435 z" fill="#B1B1B1"/>
      <path d="M615.591,500.635 L626.06,500.635 C627.567,500.635 628.789,501.857 628.789,503.364 L628.789,503.364 C628.789,504.872 627.567,506.093 626.06,506.093 L615.591,506.093 C614.084,506.093 612.862,504.872 612.862,503.364 L612.862,503.364 C612.862,501.857 614.084,500.635 615.591,500.635 z" fill="#B1B1B1"/>
      <path d="M785.152,401.635 L826.309,401.635 C827.816,401.635 829.038,402.857 829.038,404.364 L829.038,404.364 C829.038,405.872 827.816,407.093 826.309,407.093 L785.152,407.093 C783.645,407.093 782.423,405.872 782.423,404.364 L782.423,404.364 C782.423,402.857 783.645,401.635 785.152,401.635 z" fill="#B1B1B1"/>
      <path d="M785.152,421.435 L826.309,421.435 C827.816,421.435 829.038,422.657 829.038,424.164 L829.038,424.164 C829.038,425.672 827.816,426.893 826.309,426.893 L785.152,426.893 C783.645,426.893 782.423,425.672 782.423,424.164 L782.423,424.164 C782.423,422.657 783.645,421.435 785.152,421.435 z" fill="#B1B1B1"/>
      <path d="M785.152,461.035 L826.309,461.035 C827.816,461.035 829.038,462.257 829.038,463.764 L829.038,463.764 C829.038,465.272 827.816,466.493 826.309,466.493 L785.152,466.493 C783.645,466.493 782.423,465.272 782.423,463.764 L782.423,463.764 C782.423,462.257 783.645,461.035 785.152,461.035 z" fill="#B1B1B1"/>
      <path d="M785.152,500.635 L826.309,500.635 C827.816,500.635 829.038,501.857 829.038,503.364 L829.038,503.364 C829.038,504.872 827.816,506.093 826.309,506.093 L785.152,506.093 C783.645,506.093 782.423,504.872 782.423,503.364 L782.423,503.364 C782.423,501.857 783.645,500.635 785.152,500.635 z" fill="#B1B1B1"/>
      <path d="M785.152,540.835 L826.309,540.835 C827.816,540.835 829.038,542.057 829.038,543.564 L829.038,543.564 C829.038,545.072 827.816,546.293 826.309,546.293 L785.152,546.293 C783.645,546.293 782.423,545.072 782.423,543.564 L782.423,543.564 C782.423,542.057 783.645,540.835 785.152,540.835 z" fill="#B1B1B1"/>
      <path d="M785.152,441.435 L813.374,441.435 C814.882,441.435 816.133,442.657 816.133,444.164 C816.133,445.659 814.849,446.893 813.342,446.893 L785.152,446.893 C783.645,446.893 782.423,445.672 782.423,444.164 L782.423,444.164 C782.423,442.657 783.645,441.435 785.152,441.435 z" fill="#B1B1B1"/>
      <path d="M494.152,441.435 L522.374,441.435 C523.882,441.435 525.133,442.657 525.133,444.164 C525.133,445.659 523.849,446.893 522.342,446.893 L494.152,446.893 C492.645,446.893 491.423,445.672 491.423,444.164 L491.423,444.164 C491.423,442.657 492.645,441.435 494.152,441.435 z" fill="#B1B1B1"/>
      <path d="M534.262,521.435 L544.732,521.435 C546.239,521.435 547.461,522.657 547.461,524.164 L547.461,524.164 C547.461,525.672 546.239,526.893 544.732,526.893 L534.262,526.893 C532.755,526.893 531.533,525.672 531.533,524.164 L531.533,524.164 C531.533,522.657 532.755,521.435 534.262,521.435 z" fill="#B1B1B1"/>
      <path d="M494.152,521.435 L522.374,521.435 C523.882,521.435 525.133,522.657 525.133,524.164 C525.133,525.659 523.849,526.893 522.342,526.893 L494.152,526.893 C492.645,526.893 491.423,525.672 491.423,524.164 L491.423,524.164 C491.423,522.657 492.645,521.435 494.152,521.435 z" fill="#B1B1B1"/>
      <path d="M460.658,434.849 L844.991,434.849" fill-opacity="0" stroke="#959595" stroke-width="1" stroke-linecap="round"/>
      <path d="M460.658,414.864 L844.991,414.864" fill-opacity="0" stroke="#959595" stroke-width="1" stroke-linecap="round"/>
      <path d="M460.658,454.849 L844.991,454.849" fill-opacity="0" stroke="#959595" stroke-width="1" stroke-linecap="round"/>
      <path d="M460.658,474.849 L844.991,474.849" fill-opacity="0" stroke="#959595" stroke-width="1" stroke-linecap="round"/>
      <path d="M460.658,494.849 L844.991,494.849" fill-opacity="0" stroke="#959595" stroke-width="1" stroke-linecap="round"/>
      <path d="M460.658,514.849 L844.991,514.849" fill-opacity="0" stroke="#959595" stroke-width="1" stroke-linecap="round"/>
      <path d="M460.658,534.849 L844.991,534.849" fill-opacity="0" stroke="#959595" stroke-width="1" stroke-linecap="round"/>
      <g>
        <path d="M461.658,567.359 L533.31,567.359 C535.519,567.359 537.31,569.15 537.31,571.359 L537.31,577.359 C537.31,579.569 535.519,581.359 533.31,581.359 L461.658,581.359 C459.448,581.359 457.658,579.569 457.658,577.359 L457.658,571.359 C457.658,569.15 459.448,567.359 461.658,567.359 z" fill="#FFFFFF"/>
        <path d="M528.958,575.892 Q528.849,576 528.701,576 Q528.553,576 528.445,575.892 L525.893,573.34 Q525.785,573.232 525.785,573.083 Q525.785,572.935 525.893,572.827 Q526.001,572.719 526.149,572.719 L531.253,572.719 Q531.401,572.719 531.51,572.827 Q531.618,572.935 531.618,573.083 Q531.618,573.232 531.51,573.34 z" fill="#959595"/>
        <path d="M466.059,572.724 L471.388,572.724 C472.291,572.724 473.024,573.456 473.024,574.359 L473.035,574.402 C473.035,575.305 472.291,575.995 471.388,575.995 L466.059,575.995 C465.155,575.995 464.423,575.263 464.423,574.359 L464.423,574.359 C464.423,573.456 465.155,572.724 466.059,572.724 z" fill="#959595"/>
        <path d="M476.27,572.724 L495.657,572.724 C496.56,572.724 497.292,573.456 497.292,574.359 L497.292,574.359 C497.292,575.263 496.56,575.995 495.657,575.995 L476.27,575.995 C475.366,575.995 474.634,575.263 474.634,574.359 L474.634,574.359 C474.634,573.456 475.366,572.724 476.27,572.724 z" fill="#959595"/>
      </g>
      <g>
        <path d="M576.424,567.359 L582.424,567.359 C584.633,567.359 586.424,569.15 586.424,571.359 L586.424,577.359 C586.424,579.569 584.633,581.359 582.424,581.359 L576.424,581.359 C574.215,581.359 572.424,579.569 572.424,577.359 L572.424,571.359 C572.424,569.15 574.215,567.359 576.424,567.359 z" fill="#FFFFFF"/>
        <path d="M592.091,567.359 L598.091,567.359 C600.3,567.359 602.091,569.15 602.091,571.359 L602.091,577.359 C602.091,579.569 600.3,581.359 598.091,581.359 L592.091,581.359 C589.882,581.359 588.091,579.569 588.091,577.359 L588.091,571.359 C588.091,569.15 589.882,567.359 592.091,567.359 z" fill="#FFFFFF"/>
        <path d="M608.091,567.359 L614.091,567.359 C616.3,567.359 618.091,569.15 618.091,571.359 L618.091,577.359 C618.091,579.569 616.3,581.359 614.091,581.359 L608.091,581.359 C605.882,581.359 604.091,579.569 604.091,577.359 L604.091,571.359 C604.091,569.15 605.882,567.359 608.091,567.359 z" fill="#FFFFFF"/>
        <path d="M623.758,567.359 L629.758,567.359 C631.967,567.359 633.758,569.15 633.758,571.359 L633.758,577.359 C633.758,579.569 631.967,581.359 629.758,581.359 L623.758,581.359 C621.548,581.359 619.758,579.569 619.758,577.359 L619.758,571.359 C619.758,569.15 621.548,567.359 623.758,567.359 z" fill="#FFFFFF"/>
        <path d="M639.612,567.359 L645.612,567.359 C647.821,567.359 649.612,569.15 649.612,571.359 L649.612,577.359 C649.612,579.569 647.821,581.359 645.612,581.359 L639.612,581.359 C637.403,581.359 635.612,579.569 635.612,577.359 L635.612,571.359 C635.612,569.15 637.403,567.359 639.612,567.359 z" fill="#FFFFFF"/>
        <path d="M655.612,567.359 L661.612,567.359 C663.821,567.359 665.612,569.15 665.612,571.359 L665.612,577.359 C665.612,579.569 663.821,581.359 661.612,581.359 L655.612,581.359 C653.403,581.359 651.612,579.569 651.612,577.359 L651.612,571.359 C651.612,569.15 653.403,567.359 655.612,567.359 z" fill="#FFFFFF"/>
        <path d="M675.65,574.209 Q675.715,574.275 675.715,574.359 Q675.715,574.444 675.65,574.51 L672.61,577.55 Q672.544,577.615 672.459,577.615 Q672.375,577.615 672.309,577.55 L671.983,577.224 Q671.918,577.159 671.918,577.074 Q671.918,576.989 671.983,576.924 L674.547,574.359 L671.983,571.795 Q671.918,571.73 671.918,571.645 Q671.918,571.56 671.983,571.495 L672.309,571.169 Q672.375,571.104 672.459,571.104 Q672.544,571.104 672.61,571.169 z M678.156,574.209 Q678.221,574.275 678.221,574.359 Q678.221,574.444 678.156,574.51 L675.115,577.55 Q675.05,577.615 674.965,577.615 Q674.88,577.615 674.815,577.55 L674.489,577.224 Q674.423,577.159 674.423,577.074 Q674.423,576.989 674.489,576.924 L677.053,574.359 L674.489,571.795 Q674.423,571.73 674.423,571.645 Q674.423,571.56 674.489,571.495 L674.815,571.169 Q674.88,571.104 674.965,571.104 Q675.05,571.104 675.115,571.169 z" fill="#959595"/>
        <path d="M563.689,574.51 Q563.623,574.444 563.623,574.359 Q563.623,574.275 563.689,574.209 L566.729,571.169 Q566.794,571.104 566.879,571.104 Q566.964,571.104 567.029,571.169 L567.356,571.495 Q567.421,571.56 567.421,571.645 Q567.421,571.73 567.356,571.795 L564.791,574.359 L567.356,576.924 Q567.421,576.989 567.421,577.074 Q567.421,577.159 567.356,577.224 L567.029,577.55 Q566.964,577.615 566.879,577.615 Q566.794,577.615 566.729,577.55 z M561.183,574.51 Q561.118,574.444 561.118,574.359 Q561.118,574.275 561.183,574.209 L564.224,571.169 Q564.289,571.104 564.374,571.104 Q564.459,571.104 564.524,571.169 L564.85,571.495 Q564.915,571.56 564.915,571.645 Q564.915,571.73 564.85,571.795 L562.286,574.359 L564.85,576.924 Q564.915,576.989 564.915,577.074 Q564.915,577.159 564.85,577.224 L564.524,577.55 Q564.459,577.615 564.374,577.615 Q564.289,577.615 564.224,577.55 z" fill="#959595"/>
      </g>
      <path d="M465.001,384.286 L468.158,384.286 C469.262,384.286 470.158,385.182 470.158,386.286 L470.158,389.442 C470.158,390.547 469.262,391.442 468.158,391.442 L465.001,391.442 C463.897,391.442 463.001,390.547 463.001,389.442 L463.001,386.286 C463.001,385.182 463.897,384.286 465.001,384.286 z" fill-opacity="0" stroke="#FFFFFF" stroke-width="1"/>
      <path d="M465.001,401.286 L468.158,401.286 C469.262,401.286 470.158,402.182 470.158,403.286 L470.158,406.442 C470.158,407.547 469.262,408.442 468.158,408.442 L465.001,408.442 C463.897,408.442 463.001,407.547 463.001,406.442 L463.001,403.286 C463.001,402.182 463.897,401.286 465.001,401.286 z" fill-opacity="0" stroke="#FFFFFF" stroke-width="1"/>
      <path d="M465.001,421.086 L468.158,421.086 C469.262,421.086 470.158,421.982 470.158,423.086 L470.158,426.242 C470.158,427.347 469.262,428.242 468.158,428.242 L465.001,428.242 C463.897,428.242 463.001,427.347 463.001,426.242 L463.001,423.086 C463.001,421.982 463.897,421.086 465.001,421.086 z" fill-opacity="0" stroke="#FFFFFF" stroke-width="1"/>
      <path d="M465.001,460.686 L468.158,460.686 C469.262,460.686 470.158,461.582 470.158,462.686 L470.158,465.842 C470.158,466.947 469.262,467.842 468.158,467.842 L465.001,467.842 C463.897,467.842 463.001,466.947 463.001,465.842 L463.001,462.686 C463.001,461.582 463.897,460.686 465.001,460.686 z" fill-opacity="0" stroke="#FFFFFF" stroke-width="1"/>
      <path d="M465.001,521.086 L468.158,521.086 C469.262,521.086 470.158,521.982 470.158,523.086 L470.158,526.242 C470.158,527.347 469.262,528.242 468.158,528.242 L465.001,528.242 C463.897,528.242 463.001,527.347 463.001,526.242 L463.001,523.086 C463.001,521.982 463.897,521.086 465.001,521.086 z" fill-opacity="0" stroke="#FFFFFF" stroke-width="1"/>
      <path d="M465.001,500.286 L468.158,500.286 C469.262,500.286 470.158,501.182 470.158,502.286 L470.158,505.442 C470.158,506.547 469.262,507.442 468.158,507.442 L465.001,507.442 C463.897,507.442 463.001,506.547 463.001,505.442 L463.001,502.286 C463.001,501.182 463.897,500.286 465.001,500.286 z" fill-opacity="0" stroke="#FFFFFF" stroke-width="1"/>
      <path d="M465.001,540.486 L468.158,540.486 C469.262,540.486 470.158,541.382 470.158,542.486 L470.158,545.642 C470.158,546.747 469.262,547.642 468.158,547.642 L465.001,547.642 C463.897,547.642 463.001,546.747 463.001,545.642 L463.001,542.486 C463.001,541.382 463.897,540.486 465.001,540.486 z" fill-opacity="0" stroke="#FFFFFF" stroke-width="1"/>
      <path d="M465.001,441.086 L468.158,441.086 C469.262,441.086 470.158,441.982 470.158,443.086 L470.158,446.242 C470.158,447.347 469.262,448.242 468.158,448.242 L465.001,448.242 C463.897,448.242 463.001,447.347 463.001,446.242 L463.001,443.086 C463.001,441.982 463.897,441.086 465.001,441.086 z" fill-opacity="0" stroke="#FFFFFF" stroke-width="1"/>
      <path d="M465.001,481.086 L468.158,481.086 C469.262,481.086 470.158,481.982 470.158,483.086 L470.158,486.242 C470.158,487.347 469.262,488.242 468.158,488.242 L465.001,488.242 C463.897,488.242 463.001,487.347 463.001,486.242 L463.001,483.086 C463.001,481.982 463.897,481.086 465.001,481.086 z" fill-opacity="0" stroke="#FFFFFF" stroke-width="1"/>
    </g>
    <g>
      <path d="M9.333,48.026 L116.21,48.026 C118.419,48.026 120.21,49.817 120.21,52.026 L120.21,58.026 C120.21,60.235 118.419,62.026 116.21,62.026 L9.333,62.026 C7.124,62.026 5.333,60.235 5.333,58.026 L5.333,52.026 C5.333,49.817 7.124,48.026 9.333,48.026 z" fill="#FFFFFF"/>
      <path d="M13.734,53.391 L19.064,53.391 C19.967,53.391 20.699,54.123 20.699,55.026 L20.711,55.068 C20.711,55.972 19.967,56.661 19.064,56.661 L13.734,56.661 C12.831,56.661 12.099,55.929 12.099,55.026 L12.099,55.026 C12.099,54.123 12.831,53.391 13.734,53.391 z" fill="#959595"/>
      <path d="M23.945,53.391 L43.332,53.391 C44.236,53.391 44.968,54.123 44.968,55.026 L44.968,55.026 C44.968,55.929 44.236,56.661 43.332,56.661 L23.945,56.661 C23.042,56.661 22.31,55.929 22.31,55.026 L22.31,55.026 C22.31,54.123 23.042,53.391 23.945,53.391 z" fill="#959595"/>
      <path d="M112.848,55.777 Q113.373,55.253 113.373,54.517 Q113.373,53.782 112.85,53.259 Q112.327,52.736 111.592,52.736 Q110.857,52.736 110.334,53.259 Q109.811,53.782 109.811,54.517 Q109.811,55.253 110.334,55.775 Q110.857,56.298 111.592,56.298 Q112.327,56.298 112.848,55.777 z M115.408,57.824 Q115.408,58.031 115.257,58.182 Q115.106,58.333 114.899,58.333 Q114.685,58.333 114.541,58.182 L113.178,56.823 Q112.466,57.316 111.592,57.316 Q111.024,57.316 110.505,57.095 Q109.986,56.874 109.61,56.499 Q109.235,56.123 109.014,55.604 Q108.794,55.086 108.794,54.517 Q108.794,53.949 109.014,53.43 Q109.235,52.911 109.61,52.536 Q109.986,52.16 110.505,51.939 Q111.024,51.719 111.592,51.719 Q112.16,51.719 112.679,51.939 Q113.198,52.16 113.574,52.536 Q113.949,52.911 114.17,53.43 Q114.39,53.949 114.39,54.517 Q114.39,55.392 113.897,56.103 L115.261,57.467 Q115.408,57.614 115.408,57.824 z" fill="#959595"/>
    </g>
    <g>
      <g>
        <path d="M11.032,69.13 L386.771,69.13 C389.642,69.13 391.97,71.369 391.97,74.13 L391.97,104.13 C391.97,106.892 389.642,109.13 386.771,109.13 L11.032,109.13 C8.161,109.13 5.833,106.892 5.833,104.13 L5.833,74.13 C5.833,71.369 8.161,69.13 11.032,69.13 z" fill="#FFFFFF"/>
        <path d="M11.032,69.13 L386.771,69.13 C389.642,69.13 391.97,71.369 391.97,74.13 L391.97,104.13 C391.97,106.892 389.642,109.13 386.771,109.13 L11.032,109.13 C8.161,109.13 5.833,106.892 5.833,104.13 L5.833,74.13 C5.833,71.369 8.161,69.13 11.032,69.13 z" fill-opacity="0" stroke="#717171" stroke-width="0.5"/>
      </g>
      <path d="M330.391,75.935 L382.236,75.935 C383.781,75.935 385.033,77.157 385.033,78.665 L385.033,78.665 C385.033,80.172 383.781,81.394 382.236,81.394 L330.391,81.394 C328.846,81.394 327.594,80.172 327.594,78.665 L327.594,78.665 C327.594,77.157 328.846,75.935 330.391,75.935 z" fill="#B1B1B1"/>
      <path d="M17.121,76.977 L136.364,76.977 C138.44,76.977 140.122,78.618 140.122,80.644 L140.122,80.644 C140.122,82.669 138.44,84.31 136.364,84.31 L17.121,84.31 C15.045,84.31 13.363,82.669 13.363,80.644 L13.363,80.644 C13.363,78.618 15.045,76.977 17.121,76.977 z" fill="#959595"/>
      <path d="M17.121,92.477 L86.774,92.477 C88.85,92.477 90.533,94.118 90.533,96.144 L90.533,96.144 C90.533,98.169 88.85,99.81 86.774,99.81 L17.121,99.81 C15.045,99.81 13.363,98.169 13.363,96.144 L13.363,96.144 C13.363,94.118 15.045,92.477 17.121,92.477 z" fill="#B5B5B5"/>
      <path d="M173.645,92.477 L243.298,92.477 C245.374,92.477 247.057,94.118 247.057,96.144 L247.057,96.144 C247.057,98.169 245.374,99.81 243.298,99.81 L173.645,99.81 C171.569,99.81 169.886,98.169 169.886,96.144 L169.886,96.144 C169.886,94.118 171.569,92.477 173.645,92.477 z" fill="#B5B5B5"/>
      <path d="M204.395,92.477 L274.049,92.477 C276.124,92.477 277.807,94.118 277.807,96.144 L277.807,96.144 C277.807,98.169 276.124,99.81 274.049,99.81 L204.395,99.81 C202.32,99.81 200.637,98.169 200.637,96.144 L200.637,96.144 C200.637,94.118 202.32,92.477 204.395,92.477 z" fill="#B5B5B5"/>
      <path d="M100.848,92.477 L155.005,92.477 C156.619,92.477 157.927,94.118 157.927,96.144 L157.927,96.144 C157.927,98.169 156.619,99.81 155.005,99.81 L100.848,99.81 C99.234,99.81 97.926,98.169 97.926,96.144 L97.926,96.144 C97.926,94.118 99.234,92.477 100.848,92.477 z" fill="#B5B5B5"/>
    </g>
    <g>
      <g>
        <path d="M11.032,109.13 L386.771,109.13 C389.642,109.13 391.97,111.369 391.97,114.13 L391.97,144.13 C391.97,146.892 389.642,149.13 386.771,149.13 L11.032,149.13 C8.161,149.13 5.833,146.892 5.833,144.13 L5.833,114.13 C5.833,111.369 8.161,109.13 11.032,109.13 z" fill="#FFFFFF"/>
        <path d="M11.032,109.13 L386.771,109.13 C389.642,109.13 391.97,111.369 391.97,114.13 L391.97,144.13 C391.97,146.892 389.642,149.13 386.771,149.13 L11.032,149.13 C8.161,149.13 5.833,146.892 5.833,144.13 L5.833,114.13 C5.833,111.369 8.161,109.13 11.032,109.13 z" fill-opacity="0" stroke="#717171" stroke-width="0.5"/>
      </g>
      <path d="M330.391,115.935 L382.236,115.935 C383.781,115.935 385.033,117.157 385.033,118.665 L385.033,118.665 C385.033,120.172 383.781,121.394 382.236,121.394 L330.391,121.394 C328.846,121.394 327.594,120.172 327.594,118.665 L327.594,118.665 C327.594,117.157 328.846,115.935 330.391,115.935 z" fill="#B1B1B1"/>
      <path d="M17.121,116.977 L136.364,116.977 C138.44,116.977 140.123,118.618 140.123,120.644 L140.123,120.644 C140.123,122.669 138.44,124.31 136.364,124.31 L17.121,124.31 C15.045,124.31 13.363,122.669 13.363,120.644 L13.363,120.644 C13.363,118.618 15.045,116.977 17.121,116.977 z" fill="#959595"/>
      <path d="M17.121,132.477 L86.774,132.477 C88.85,132.477 90.533,134.118 90.533,136.144 L90.533,136.144 C90.533,138.169 88.85,139.81 86.774,139.81 L17.121,139.81 C15.045,139.81 13.363,138.169 13.363,136.144 L13.363,136.144 C13.363,134.118 15.045,132.477 17.121,132.477 z" fill="#B5B5B5"/>
      <path d="M100.848,132.477 L155.005,132.477 C156.619,132.477 157.927,134.118 157.927,136.144 L157.927,136.144 C157.927,138.169 156.619,139.81 155.005,139.81 L100.848,139.81 C99.234,139.81 97.926,138.169 97.926,136.144 L97.926,136.144 C97.926,134.118 99.234,132.477 100.848,132.477 z" fill="#B5B5B5"/>
    </g>
    <g>
      <g>
        <path d="M11.032,149.13 L386.771,149.13 C389.642,149.13 391.97,151.369 391.97,154.13 L391.97,184.13 C391.97,186.892 389.642,189.13 386.771,189.13 L11.032,189.13 C8.161,189.13 5.833,186.892 5.833,184.13 L5.833,154.13 C5.833,151.369 8.161,149.13 11.032,149.13 z" fill="#FFFFFF"/>
        <path d="M11.032,149.13 L386.771,149.13 C389.642,149.13 391.97,151.369 391.97,154.13 L391.97,184.13 C391.97,186.892 389.642,189.13 386.771,189.13 L11.032,189.13 C8.161,189.13 5.833,186.892 5.833,184.13 L5.833,154.13 C5.833,151.369 8.161,149.13 11.032,149.13 z" fill-opacity="0" stroke="#717171" stroke-width="0.5"/>
      </g>
      <path d="M330.391,155.935 L382.236,155.935 C383.781,155.935 385.033,157.157 385.033,158.665 L385.033,158.665 C385.033,160.172 383.781,161.394 382.236,161.394 L330.391,161.394 C328.846,161.394 327.594,160.172 327.594,158.665 L327.594,158.665 C327.594,157.157 328.846,155.935 330.391,155.935 z" fill="#B1B1B1"/>
      <path d="M17.121,156.977 L136.364,156.977 C138.44,156.977 140.122,158.618 140.122,160.644 L140.122,160.644 C140.122,162.669 138.44,164.31 136.364,164.31 L17.121,164.31 C15.045,164.31 13.363,162.669 13.363,160.644 L13.363,160.644 C13.363,158.618 15.045,156.977 17.121,156.977 z" fill="#959595"/>
      <path d="M17.121,172.477 L86.774,172.477 C88.85,172.477 90.533,174.118 90.533,176.144 L90.533,176.144 C90.533,178.169 88.85,179.81 86.774,179.81 L17.121,179.81 C15.045,179.81 13.363,178.169 13.363,176.144 L13.363,176.144 C13.363,174.118 15.045,172.477 17.121,172.477 z" fill="#B5B5B5"/>
    </g>
    <g>
      <g>
        <path d="M11.032,189.13 L386.771,189.13 C389.642,189.13 391.97,191.369 391.97,194.13 L391.97,224.13 C391.97,226.892 389.642,229.13 386.771,229.13 L11.032,229.13 C8.161,229.13 5.833,226.892 5.833,224.13 L5.833,194.13 C5.833,191.369 8.161,189.13 11.032,189.13 z" fill="#FFFFFF"/>
        <path d="M11.032,189.13 L386.771,189.13 C389.642,189.13 391.97,191.369 391.97,194.13 L391.97,224.13 C391.97,226.892 389.642,229.13 386.771,229.13 L11.032,229.13 C8.161,229.13 5.833,226.892 5.833,224.13 L5.833,194.13 C5.833,191.369 8.161,189.13 11.032,189.13 z" fill-opacity="0" stroke="#717171" stroke-width="0.5"/>
      </g>
      <path d="M330.391,195.935 L382.236,195.935 C383.781,195.935 385.033,197.157 385.033,198.665 L385.033,198.665 C385.033,200.172 383.781,201.394 382.236,201.394 L330.391,201.394 C328.846,201.394 327.594,200.172 327.594,198.665 L327.594,198.665 C327.594,197.157 328.846,195.935 330.391,195.935 z" fill="#B1B1B1"/>
      <path d="M17.121,196.977 L136.364,196.977 C138.44,196.977 140.122,198.618 140.122,200.644 L140.122,200.644 C140.122,202.669 138.44,204.31 136.364,204.31 L17.121,204.31 C15.045,204.31 13.363,202.669 13.363,200.644 L13.363,200.644 C13.363,198.618 15.045,196.977 17.121,196.977 z" fill="#959595"/>
      <path d="M17.121,212.477 L86.774,212.477 C88.85,212.477 90.533,214.118 90.533,216.144 L90.533,216.144 C90.533,218.169 88.85,219.81 86.774,219.81 L17.121,219.81 C15.045,219.81 13.363,218.169 13.363,216.144 L13.363,216.144 C13.363,214.118 15.045,212.477 17.121,212.477 z" fill="#B5B5B5"/>
      <path d="M100.848,212.477 L155.005,212.477 C156.619,212.477 157.927,214.118 157.927,216.144 L157.927,216.144 C157.927,218.169 156.619,219.81 155.005,219.81 L100.848,219.81 C99.234,219.81 97.926,218.169 97.926,216.144 L97.926,216.144 C97.926,214.118 99.234,212.477 100.848,212.477 z" fill="#B5B5B5"/>
    </g>
    <g>
      <path d="M234.97,241.667 L181.934,241.667 C179.858,241.667 178.176,243.308 178.176,245.333 L178.176,245.333 C178.176,247.358 179.858,249 181.934,249 L234.97,249 C237.045,249 238.728,247.358 238.728,245.333 L238.728,245.333 C238.728,243.308 237.045,241.667 234.97,241.667 z" fill="#959595"/>
      <path d="M171.422,241.104 L171.422,244.065 Q171.422,244.236 171.296,244.362 Q171.171,244.488 170.999,244.488 L168.039,244.488 Q167.761,244.488 167.649,244.223 Q167.536,243.965 167.741,243.767 L168.653,242.855 Q167.675,241.95 166.347,241.95 Q165.66,241.95 165.035,242.218 Q164.411,242.485 163.955,242.941 Q163.499,243.397 163.231,244.022 Q162.964,244.646 162.964,245.333 Q162.964,246.021 163.231,246.645 Q163.499,247.27 163.955,247.725 Q164.411,248.181 165.035,248.449 Q165.66,248.717 166.347,248.717 Q167.133,248.717 167.834,248.373 Q168.534,248.029 169.017,247.402 Q169.063,247.336 169.169,247.322 Q169.268,247.322 169.334,247.382 L170.239,248.294 Q170.299,248.347 170.302,248.429 Q170.305,248.512 170.252,248.578 Q169.532,249.45 168.508,249.929 Q167.484,250.408 166.347,250.408 Q165.316,250.408 164.378,250.005 Q163.439,249.602 162.759,248.922 Q162.078,248.241 161.675,247.303 Q161.272,246.364 161.272,245.333 Q161.272,244.302 161.675,243.364 Q162.078,242.426 162.759,241.745 Q163.439,241.065 164.378,240.661 Q165.316,240.258 166.347,240.258 Q167.318,240.258 168.227,240.625 Q169.136,240.992 169.843,241.659 L170.702,240.807 Q170.893,240.602 171.164,240.714 Q171.422,240.827 171.422,241.104 z" fill="#959595"/>
    </g>
  </g>
</svg>
