<?xml version="1.0" encoding="UTF-8"?>
<!DOCTYPE svg PUBLIC "-//W3C//DTD SVG 1.1//EN" "http://www.w3.org/Graphics/SVG/1.1/DTD/svg11.dtd">
<svg version="1.1" xmlns="http://www.w3.org/2000/svg" xmlns:xlink="http://www.w3.org/1999/xlink" x="0" y="0" width="400" height="300" viewBox="0, 0, 400, 300">
  <defs>
    <clipPath id="Clip_1">
      <path d="M701.89,164.128 L859.361,164.128 L859.361,304.667 L701.89,304.667 z"/>
    </clipPath>
  </defs>
  <g id="Layer_1">
    <path d="M9.333,52.365 L390.667,52.365 C392.876,52.365 394.667,54.155 394.667,56.365 L394.667,222.6 C394.667,224.809 392.876,226.6 390.667,226.6 L9.333,226.6 C7.124,226.6 5.333,224.809 5.333,222.6 L5.333,56.365 C5.333,54.155 7.124,52.365 9.333,52.365 z" fill="#E5E5E5"/>
    <g>
      <path d="M53.772,36.719 L53.772,16.832 Q53.772,16.422 53.931,16.157 Q54.09,15.891 54.327,15.891 L56.364,15.891 Q56.6,15.891 56.759,16.157 Q56.918,16.422 56.918,16.832 L56.918,36.719 Q56.918,37.114 56.759,37.379 Q56.6,37.645 56.364,37.645 L54.327,37.645 Q54.09,37.645 53.931,37.379 Q53.772,37.114 53.772,36.719 z" fill="#787878"/>
      <g>
        <path d="M58.762,37.182 L58.762,24.014 Q58.762,23.8 58.933,23.661 Q59.104,23.522 59.367,23.522 L64.343,23.522 Q64.597,23.522 64.768,23.661 Q64.939,23.8 64.939,24.014 L64.939,26.32 Q64.939,26.535 64.768,26.674 Q64.597,26.812 64.343,26.812 L61.943,26.812 L61.943,34.459 L64.343,34.459 Q64.597,34.459 64.768,34.597 Q64.939,34.736 64.939,34.943 L64.939,37.182 Q64.939,37.388 64.768,37.527 Q64.597,37.666 64.343,37.666 L59.367,37.666 Q59.104,37.666 58.933,37.527 Q58.762,37.388 58.762,37.182 z" fill="#787878"/>
        <path d="M71.919,24.006 L71.919,37.174 Q71.919,37.388 71.748,37.527 Q71.577,37.666 71.314,37.666 L66.337,37.666 Q66.084,37.666 65.913,37.527 Q65.742,37.388 65.742,37.174 L65.742,34.955 Q65.742,34.741 65.913,34.602 Q66.084,34.463 66.337,34.463 L68.738,34.463 L68.738,26.804 L66.337,26.804 Q66.084,26.804 65.913,26.666 Q65.742,26.527 65.742,26.32 L65.742,24.006 Q65.742,23.8 65.913,23.661 Q66.084,23.522 66.337,23.522 L71.314,23.522 Q71.577,23.522 71.748,23.661 Q71.919,23.8 71.919,24.006 z" fill="#787878"/>
      </g>
      <path d="M5.333,30.902 L5.333,30.274 Q5.333,29.427 5.918,28.876 L11.461,23.709 Q11.802,23.414 12.061,23.587 Q12.319,23.76 12.319,24.234 L12.319,26.44 Q12.319,27.389 11.461,28.171 L8.87,30.581 L11.461,33.005 Q12.319,33.787 12.319,34.736 L12.319,36.941 Q12.319,37.416 12.061,37.582 Q11.802,37.749 11.461,37.467 L5.918,32.287 Q5.333,31.748 5.333,30.902 z" fill="#787878"/>
      <path d="M16.247,22.404 L16.247,16.185 Q16.247,16.057 16.407,15.974 Q16.566,15.891 16.802,15.891 L18.839,15.891 Q19.076,15.891 19.235,15.974 Q19.394,16.057 19.394,16.185 L19.394,22.404 Q19.394,22.527 19.235,22.61 Q19.076,22.693 18.839,22.693 L16.802,22.693 Q16.566,22.693 16.407,22.61 Q16.247,22.527 16.247,22.404 z" fill="#787878"/>
      <path d="M20.461,22.404 L20.461,20.379 Q20.461,20.251 20.621,20.168 Q20.78,20.085 21.016,20.085 L23.053,20.085 Q23.29,20.085 23.449,20.168 Q23.608,20.251 23.608,20.379 L23.608,22.404 Q23.608,22.527 23.449,22.61 Q23.29,22.693 23.053,22.693 L21.016,22.693 Q20.78,22.693 20.621,22.61 Q20.461,22.527 20.461,22.404 z" fill="#787878"/>
      <path d="M19.394,24.006 L19.394,37.153 Q19.394,37.367 19.223,37.506 Q19.053,37.644 18.79,37.644 L13.821,37.644 Q13.568,37.644 13.397,37.506 Q13.227,37.367 13.227,37.153 L13.227,34.938 Q13.227,34.724 13.397,34.585 Q13.568,34.447 13.821,34.447 L16.218,34.447 L16.218,26.8 L13.821,26.8 Q13.568,26.8 13.397,26.661 Q13.227,26.523 13.227,26.316 L13.227,24.006 Q13.227,23.8 13.397,23.661 Q13.568,23.523 13.821,23.523 L18.79,23.523 Q19.053,23.523 19.223,23.661 Q19.394,23.8 19.394,24.006 z" fill="#787878"/>
      <g>
        <path d="M52.263,30.265 L52.263,30.893 Q52.263,31.74 51.678,32.291 L46.135,37.459 Q45.794,37.753 45.536,37.58 Q45.277,37.407 45.277,36.933 L45.277,34.727 Q45.277,33.779 46.135,32.996 L48.726,30.586 L46.135,28.162 Q45.277,27.38 45.277,26.431 L45.277,24.226 Q45.277,23.751 45.536,23.585 Q45.794,23.418 46.135,23.7 L51.678,28.88 Q52.263,29.419 52.263,30.265 z" fill="#787878"/>
        <path d="M38.202,22.404 L38.202,16.185 Q38.202,16.057 38.361,15.974 Q38.521,15.891 38.757,15.891 L40.794,15.891 Q41.03,15.891 41.19,15.974 Q41.349,16.057 41.349,16.185 L41.349,22.404 Q41.349,22.527 41.19,22.61 Q41.03,22.693 40.794,22.693 L38.757,22.693 Q38.521,22.693 38.361,22.61 Q38.202,22.527 38.202,22.404 z" fill="#787878"/>
        <path d="M38.202,37.161 L38.202,24.014 Q38.202,23.8 38.373,23.661 Q38.543,23.523 38.806,23.523 L43.775,23.523 Q44.028,23.523 44.199,23.661 Q44.369,23.8 44.369,24.014 L44.369,26.229 Q44.369,26.443 44.199,26.582 Q44.028,26.721 43.775,26.721 L41.378,26.721 L41.378,34.367 L43.775,34.367 Q44.028,34.367 44.199,34.506 Q44.369,34.645 44.369,34.851 L44.369,37.161 Q44.369,37.367 44.199,37.506 Q44.028,37.644 43.775,37.644 L38.806,37.644 Q38.543,37.644 38.373,37.506 Q38.202,37.367 38.202,37.161 z" fill="#787878"/>
      </g>
      <path d="M20.349,36.861 L20.349,24.327 Q20.349,23.97 20.52,23.746 Q20.69,23.521 20.943,23.521 L23.126,23.521 Q23.389,23.521 23.555,23.753 Q23.72,23.984 23.72,24.327 L23.72,36.861 Q23.72,37.218 23.55,37.442 Q23.379,37.667 23.126,37.667 L20.943,37.667 Q20.68,37.667 20.515,37.442 Q20.349,37.218 20.349,36.861 z" fill="#787878"/>
      <path d="M25.038,23.523 L26.909,23.523 Q27.328,23.523 27.698,23.839 Q28.068,24.154 28.224,24.657 L30.884,32.684 L33.534,24.657 Q33.69,24.154 34.06,23.839 Q34.43,23.523 34.849,23.523 L36.73,23.523 Q37.071,23.523 37.178,23.858 Q37.226,23.987 37.222,24.187 Q37.217,24.386 37.129,24.657 L32.92,36.511 Q32.745,37.013 32.37,37.329 Q31.995,37.645 31.595,37.645 L30.163,37.645 Q29.764,37.645 29.393,37.329 Q29.023,37.013 28.848,36.511 L24.639,24.657 Q24.542,24.373 24.542,24.18 Q24.542,23.523 25.038,23.523 z" fill="#787878"/>
      <g>
        <path d="M80.794,30.901 L80.794,30.273 Q80.794,29.427 81.379,28.876 L86.922,23.708 Q87.263,23.413 87.522,23.586 Q87.78,23.759 87.78,24.234 L87.78,26.439 Q87.78,27.388 86.922,28.17 L84.331,30.581 L86.922,33.004 Q87.78,33.787 87.78,34.735 L87.78,36.941 Q87.78,37.415 87.522,37.582 Q87.263,37.749 86.922,37.467 L81.379,32.286 Q80.794,31.748 80.794,30.901 z" fill="#787878"/>
        <path d="M80.437,30.287 L80.437,30.915 Q80.437,31.761 79.852,32.313 L74.309,37.48 Q73.968,37.775 73.71,37.602 Q73.451,37.429 73.451,36.954 L73.451,34.749 Q73.451,33.8 74.309,33.018 L76.9,30.607 L74.309,28.184 Q73.451,27.402 73.451,26.453 L73.451,24.247 Q73.451,23.773 73.71,23.606 Q73.968,23.439 74.309,23.722 L79.852,28.902 Q80.437,29.44 80.437,30.287 z" fill="#787878"/>
      </g>
    </g>
    <g>
      <path d="M927.856,202.539 C900.657,194.727 886.906,204.418 876.386,214.937 C865.867,225.457 852.728,242.165 839.994,248.897 C767.861,287.034 759.971,302.617 759.971,302.617 L867.47,302.617 L969.434,302.617 L1002.445,302.617 L1079.333,302.617 C1079.333,302.617 964.889,213.176 927.856,202.539 z" fill="#CCCCCC"/>
      <g clip-path="url(#Clip_1)">
        <path d="M712.691,276.292 L704.55,302.617 L715.851,302.617 L724.9,276.401 L727.485,256.006 L736.109,256.006 L743.863,277.149 L739.122,302.617 L750.101,302.617 L755.497,273.762 L750.101,258.553 L748.148,251.684 L777.846,268.5 L772.262,278.18 L785.209,285.639 L798.892,261.871 L785.959,254.416 L780.578,263.746 L746.005,244.156 L744.13,237.609 L747.531,223.871 L748.991,236.434 L751.332,242.525 L760.601,247.947 C760.601,247.947 756.858,233.859 756.755,234.291 C756.651,234.724 755.314,209.421 753.783,208.072 C752.251,206.724 744.182,207.671 744.182,207.671 L742.495,203.023 C748.936,201.714 753.769,196.168 754.132,189.449 L725.236,185.617 C725.024,186.608 724.9,187.626 724.9,188.671 C724.9,193.744 727.485,198.217 731.396,200.843 L731.142,200.816 L725.356,205.676 C725.356,205.676 720.853,203.995 717.952,205.059 C715.051,206.124 701.517,218.638 701.684,219.281 C701.451,221.324 701.684,240.917 701.684,240.917 L714.607,244.119 z M709.904,233.057 L709.904,226.589 L715.395,221.584 L715.395,234.291 z M709.904,233.057" fill="#CFCFCF"/>
      </g>
      <path d="M753.999,186.662 L758.39,187.238 C758.98,174.196 753.303,165.654 743.044,164.289 C742.201,164.18 741.357,164.128 740.542,164.128 C731.451,164.128 724.836,170.782 722.237,182.446 L726.066,182.954 z M753.999,186.662" fill="#CFCFCF"/>
      <path d="M758.432,302.617 C758.432,302.617 795.451,260.228 849.336,270.916 C877.563,276.514 884.982,266.371 911,263.741 C937.018,261.111 946.389,246.667 978.389,252.676 C1009.67,258.551 1079.333,302.617 1079.333,302.617 L758.432,302.617 z" fill="#D6D6D6"/>
    </g>
    <g>
      <g>
        <g>
          <path d="M532.701,0.532 L588.165,6.804 C590.928,7.116 592.914,9.61 592.602,12.373 L588.223,51.094 C587.911,53.857 585.418,55.844 582.655,55.531 L527.191,49.26 C524.428,48.947 522.441,46.454 522.754,43.691 L527.132,4.97 C527.445,2.207 529.938,0.22 532.701,0.532 z" fill="#DDDDDD"/>
          <path d="M532.701,0.532 L588.165,6.804 C590.928,7.116 592.914,9.61 592.602,12.373 L588.223,51.094 C587.911,53.857 585.418,55.844 582.655,55.531 L527.191,49.26 C524.428,48.947 522.441,46.454 522.754,43.691 L527.132,4.97 C527.445,2.207 529.938,0.22 532.701,0.532 z" fill-opacity="0" stroke="#FFFFFF" stroke-width="4"/>
        </g>
        <path d="M548.915,25.218 C545.608,24.844 543.23,21.86 543.604,18.553 C543.978,15.246 546.962,12.868 550.269,13.242 C553.576,13.616 555.954,16.6 555.58,19.907 C555.206,23.214 552.222,25.592 548.915,25.218 z" fill="#FFFFFF"/>
        <path d="M577.356,49.088 L567.988,47.976 L538.867,44.683 L532.71,43.916 L546.131,29.35 L549.17,35.079 L561.894,20.363 z" fill="#FFFFFF"/>
      </g>
      <g>
        <g>
          <path d="M477.645,45.945 L536.374,30.341 C539.299,29.563 542.301,31.305 543.078,34.23 L553.973,75.231 C554.75,78.157 553.009,81.158 550.083,81.936 L491.355,97.541 C488.429,98.318 485.427,96.576 484.65,93.651 L473.755,52.65 C472.978,49.725 474.72,46.723 477.645,45.945 z" fill="#DDDDDD"/>
          <path d="M477.645,45.945 L536.374,30.341 C539.299,29.563 542.301,31.305 543.078,34.23 L553.973,75.231 C554.75,78.157 553.009,81.158 550.083,81.936 L491.355,97.541 C488.429,98.318 485.427,96.576 484.65,93.651 L473.755,52.65 C472.978,49.725 474.72,46.723 477.645,45.945 z" fill-opacity="0" stroke="#FFFFFF" stroke-width="4"/>
        </g>
        <path d="M504.068,64.367 C500.567,65.297 496.974,63.213 496.043,59.711 C495.113,56.209 497.197,52.616 500.699,51.686 C504.201,50.755 507.794,52.84 508.724,56.342 C509.654,59.843 507.57,63.436 504.068,64.367 z" fill="#FFFFFF"/>
        <path d="M542.363,77.309 L532.423,79.892 L501.588,88.085 L495.04,89.746 L502.882,69.659 L508.232,74.265 L515.308,54.303 z" fill="#FFFFFF"/>
      </g>
      <g>
        <g>
          <path d="M553.371,60.477 L613.246,45.353 C616.229,44.599 619.258,46.407 620.011,49.39 L630.57,91.191 C631.323,94.174 629.516,97.202 626.533,97.956 L566.658,113.08 C563.675,113.833 560.646,112.026 559.893,109.043 L549.334,67.242 C548.581,64.259 550.388,61.23 553.371,60.477 z" fill="#DDDDDD"/>
          <path d="M553.371,60.477 L613.246,45.353 C616.229,44.599 619.258,46.407 620.011,49.39 L630.57,91.191 C631.323,94.174 629.516,97.202 626.533,97.956 L566.658,113.08 C563.675,113.833 560.646,112.026 559.893,109.043 L549.334,67.242 C548.581,64.259 550.388,61.23 553.371,60.477 z" fill-opacity="0" stroke="#FFFFFF" stroke-width="4"/>
        </g>
        <path d="M579.994,79.541 C576.424,80.443 572.799,78.28 571.897,74.71 C570.995,71.14 573.158,67.515 576.728,66.613 C580.298,65.711 583.924,67.874 584.825,71.444 C585.727,75.014 583.564,78.639 579.994,79.541 z" fill="#FFFFFF"/>
        <path d="M618.747,93.172 L608.615,95.672 L577.177,103.613 L570.503,105.219 L578.722,84.905 L584.101,89.652 L591.541,69.455 z" fill="#FFFFFF"/>
      </g>
      <g>
        <g>
          <path d="M476.162,63.21 L532.921,79.296 C535.748,80.098 537.391,83.039 536.589,85.867 L525.359,125.492 C524.557,128.32 521.615,129.962 518.788,129.161 L462.029,113.074 C459.202,112.273 457.559,109.331 458.361,106.504 L469.591,66.878 C470.393,64.051 473.335,62.408 476.162,63.21 z" fill="#DDDDDD"/>
          <path d="M476.162,63.21 L532.921,79.296 C535.748,80.098 537.391,83.039 536.589,85.867 L525.359,125.492 C524.557,128.32 521.615,129.962 518.788,129.161 L462.029,113.074 C459.202,112.273 457.559,109.331 458.361,106.504 L469.591,66.878 C470.393,64.051 473.335,62.408 476.162,63.21 z" fill-opacity="0" stroke="#FFFFFF" stroke-width="4"/>
        </g>
        <path d="M488.756,91.85 C485.372,90.891 483.406,87.37 484.365,83.986 C485.325,80.602 488.846,78.636 492.23,79.595 C495.614,80.554 497.58,84.075 496.621,87.459 C495.662,90.843 492.141,92.809 488.756,91.85 z" fill="#FFFFFF"/>
        <path d="M514.306,121.637 L504.729,118.866 L474.928,110.419 L468.639,108.56 L485.142,95.68 L487.325,102.177 L503.127,89.021 z" fill="#FFFFFF"/>
      </g>
      <g>
        <g>
          <path d="M634.842,146.985 L634.842,248.625 C634.842,255.878 628.963,261.757 621.71,261.757 L476.123,261.757 C468.871,261.757 462.991,255.878 462.991,248.625 L462.991,146.985" fill="#ABABAB"/>
          <path d="M634.842,146.985 L634.842,248.625 C634.842,255.878 628.963,261.757 621.71,261.757 L476.123,261.757 C468.871,261.757 462.991,255.878 462.991,248.625 L462.991,146.985" fill-opacity="0" stroke="#FFFFFF" stroke-width="4" stroke-linecap="round"/>
        </g>
      </g>
      <g>
        <g>
          <path d="M575.267,100.607 L630.163,133.363 C632.898,134.994 633.792,138.534 632.16,141.269 L609.292,179.594 C607.66,182.329 604.12,183.223 601.386,181.591 L546.489,148.835 C543.755,147.204 542.861,143.664 544.492,140.929 L567.361,102.604 C568.992,99.869 572.532,98.975 575.267,100.607 z" fill="#DDDDDD"/>
          <path d="M575.267,100.607 L630.163,133.363 C632.898,134.994 633.792,138.534 632.16,141.269 L609.292,179.594 C607.66,182.329 604.12,183.223 601.386,181.591 L546.489,148.835 C543.755,147.204 542.861,143.664 544.492,140.929 L567.361,102.604 C568.992,99.869 572.532,98.975 575.267,100.607 z" fill-opacity="0" stroke="#FFFFFF" stroke-width="4"/>
        </g>
        <path d="M580.3,134.28 C577.027,132.327 575.956,128.09 577.909,124.817 C579.862,121.544 584.099,120.474 587.372,122.427 C590.646,124.38 591.716,128.616 589.763,131.89 C587.81,135.163 583.573,136.233 580.3,134.28 z" fill="#FFFFFF"/>
        <path d="M598.688,172.623 L589.441,167.036 L560.618,149.837 L554.557,146.128 L575.442,137.275 L575.905,144.687 L596.134,135.349 z" fill="#FFFFFF"/>
      </g>
      <g>
        <g>
          <path d="M634.842,216.009 L634.842,248.625 C634.842,255.878 628.963,261.757 621.71,261.757 L476.123,261.757 C468.871,261.757 462.991,255.878 462.991,248.625 L462.991,216.009" fill="#FFFFFF"/>
          <path d="M634.842,216.009 L634.842,248.625 C634.842,255.878 628.963,261.757 621.71,261.757 L476.123,261.757 C468.871,261.757 462.991,255.878 462.991,248.625 L462.991,216.009" fill-opacity="0" stroke="#FFFFFF" stroke-width="4" stroke-linecap="round"/>
        </g>
      </g>
      <g>
        <g>
          <path d="M521.011,245.894 L521.011,244.752 Q521.011,243.215 522.073,242.213 L532.143,232.825 Q532.763,232.29 533.232,232.604 Q533.701,232.919 533.701,233.78 L533.701,237.787 Q533.701,239.511 532.143,240.932 L527.435,245.311 L532.143,249.714 Q533.701,251.135 533.701,252.859 L533.701,256.865 Q533.701,257.727 533.232,258.03 Q532.763,258.333 532.143,257.82 L522.073,248.409 Q521.011,247.431 521.011,245.894 z" fill="#B5B5B5"/>
          <path d="M540.838,230.455 L540.838,219.158 Q540.838,218.925 541.127,218.774 Q541.416,218.624 541.846,218.624 L545.547,218.624 Q545.976,218.624 546.265,218.774 Q546.554,218.925 546.554,219.158 L546.554,230.455 Q546.554,230.68 546.265,230.83 Q545.976,230.981 545.547,230.981 L541.846,230.981 Q541.416,230.981 541.127,230.83 Q540.838,230.68 540.838,230.455 z" fill="#B5B5B5"/>
          <path d="M546.554,233.366 L546.554,257.25 Q546.554,257.639 546.245,257.891 Q545.935,258.143 545.457,258.143 L536.43,258.143 Q535.97,258.143 535.66,257.891 Q535.351,257.639 535.351,257.25 L535.351,253.226 Q535.351,252.837 535.66,252.585 Q535.97,252.333 536.43,252.333 L540.784,252.333 L540.784,238.441 L536.43,238.441 Q535.97,238.441 535.66,238.189 Q535.351,237.938 535.351,237.563 L535.351,233.366 Q535.351,232.992 535.66,232.74 Q535.97,232.488 536.43,232.488 L545.457,232.488 Q545.935,232.488 546.245,232.74 Q546.554,232.992 546.554,233.366 z" fill="#B5B5B5"/>
        </g>
        <g>
          <path d="M563.133,245.854 L563.133,244.712 Q563.133,243.175 564.195,242.173 L574.266,232.785 Q574.885,232.25 575.354,232.564 Q575.823,232.879 575.823,233.74 L575.823,237.747 Q575.823,239.471 574.266,240.892 L569.558,245.271 L574.266,249.674 Q575.823,251.095 575.823,252.819 L575.823,256.825 Q575.823,257.687 575.354,257.99 Q574.885,258.293 574.266,257.78 L564.195,248.369 Q563.133,247.391 563.133,245.854 z" fill="#B5B5B5"/>
          <path d="M562.483,244.737 L562.483,245.878 Q562.483,247.416 561.421,248.417 L551.35,257.805 Q550.731,258.341 550.262,258.026 Q549.793,257.712 549.793,256.85 L549.793,252.843 Q549.793,251.119 551.35,249.698 L556.058,245.319 L551.35,240.916 Q549.793,239.495 549.793,237.772 L549.793,233.765 Q549.793,232.903 550.262,232.6 Q550.731,232.297 551.35,232.81 L561.421,242.221 Q562.483,243.199 562.483,244.737 z" fill="#B5B5B5"/>
        </g>
      </g>
      <g>
        <g>
          <path d="M470.123,124.898 L544.393,106.138 C548.093,105.203 551.85,107.445 552.785,111.145 L565.882,162.996 C566.817,166.696 564.575,170.453 560.875,171.388 L486.604,190.148 C482.905,191.082 479.148,188.841 478.213,185.141 L465.116,133.289 C464.181,129.59 466.423,125.833 470.123,124.898 z" fill="#DDDDDD"/>
          <path d="M470.123,124.898 L544.393,106.138 C548.093,105.203 551.85,107.445 552.785,111.145 L565.882,162.996 C566.817,166.696 564.575,170.453 560.875,171.388 L486.604,190.148 C482.905,191.082 479.148,188.841 478.213,185.141 L465.116,133.289 C464.181,129.59 466.423,125.833 470.123,124.898 z" fill-opacity="0" stroke="#FFFFFF" stroke-width="4"/>
        </g>
        <path d="M503.267,148.666 C498.839,149.785 494.342,147.101 493.223,142.673 C492.105,138.245 494.788,133.748 499.216,132.629 C503.645,131.511 508.141,134.194 509.26,138.622 C510.378,143.051 507.695,147.547 503.267,148.666 z" fill="#FFFFFF"/>
        <path d="M551.337,165.574 L538.768,168.675 L499.772,178.526 L491.493,180.517 L501.689,155.32 L508.362,161.208 L517.59,136.155 z" fill="#FFFFFF"/>
      </g>
    </g>
    <g>
      <g>
        <g>
          <path d="M451.453,-257.433 L451.453,-259.094 Q451.453,-261.332 452.999,-262.79 L467.657,-276.454 Q468.559,-277.233 469.241,-276.776 Q469.924,-276.318 469.924,-275.063 L469.924,-269.232 Q469.924,-266.723 467.657,-264.655 L460.805,-258.281 L467.657,-251.873 Q469.924,-249.804 469.924,-247.295 L469.924,-241.464 Q469.924,-240.209 469.241,-239.769 Q468.559,-239.328 467.657,-240.074 L452.999,-253.771 Q451.453,-255.195 451.453,-257.433 z" fill="#B5B5B5"/>
          <path d="M480.312,-279.903 L480.312,-296.346 Q480.312,-296.685 480.733,-296.904 Q481.154,-297.124 481.779,-297.124 L487.165,-297.124 Q487.79,-297.124 488.211,-296.904 Q488.632,-296.685 488.632,-296.346 L488.632,-279.903 Q488.632,-279.577 488.211,-279.357 Q487.79,-279.138 487.165,-279.138 L481.779,-279.138 Q481.154,-279.138 480.733,-279.357 Q480.312,-279.577 480.312,-279.903 z" fill="#B5B5B5"/>
          <path d="M488.632,-275.667 L488.632,-240.904 Q488.632,-240.338 488.181,-239.972 Q487.73,-239.605 487.035,-239.605 L473.897,-239.605 Q473.227,-239.605 472.776,-239.972 Q472.325,-240.338 472.325,-240.904 L472.325,-246.761 Q472.325,-247.327 472.776,-247.694 Q473.227,-248.06 473.897,-248.06 L480.234,-248.06 L480.234,-268.28 L473.897,-268.28 Q473.227,-268.28 472.776,-268.646 Q472.325,-269.013 472.325,-269.558 L472.325,-275.667 Q472.325,-276.211 472.776,-276.578 Q473.227,-276.945 473.897,-276.945 L487.035,-276.945 Q487.73,-276.945 488.181,-276.578 Q488.632,-276.211 488.632,-275.667 z" fill="#B5B5B5"/>
        </g>
        <g>
          <path d="M512.761,-257.491 L512.761,-259.153 Q512.761,-261.39 514.307,-262.848 L528.965,-276.512 Q529.867,-277.292 530.549,-276.834 Q531.232,-276.376 531.232,-275.122 L531.232,-269.29 Q531.232,-266.781 528.965,-264.713 L522.113,-258.339 L528.965,-251.931 Q531.232,-249.863 531.232,-247.354 L531.232,-241.522 Q531.232,-240.268 530.549,-239.827 Q529.867,-239.386 528.965,-240.132 L514.307,-253.829 Q512.761,-255.253 512.761,-257.491 z" fill="#B5B5B5"/>
          <path d="M511.816,-259.117 L511.816,-257.456 Q511.816,-255.218 510.27,-253.76 L495.612,-240.096 Q494.71,-239.316 494.028,-239.774 Q493.345,-240.232 493.345,-241.486 L493.345,-247.318 Q493.345,-249.827 495.612,-251.895 L502.464,-258.269 L495.612,-264.677 Q493.345,-266.745 493.345,-269.254 L493.345,-275.086 Q493.345,-276.34 494.028,-276.781 Q494.71,-277.222 495.612,-276.476 L510.27,-262.779 Q511.816,-261.355 511.816,-259.117 z" fill="#B5B5B5"/>
        </g>
      </g>
      <path d="M355.856,-170.042 L477.829,-170.042 C481.979,-170.042 485.342,-166.678 485.342,-162.528 L485.342,-162.528 C485.342,-158.379 481.979,-155.015 477.829,-155.015 L355.856,-155.015 C351.706,-155.015 348.342,-158.379 348.342,-162.528 L348.342,-162.528 C348.342,-166.678 351.706,-170.042 355.856,-170.042 z" fill="#FFFFFF"/>
      <path d="M355.856,-144.633 L477.829,-144.633 C481.979,-144.633 485.342,-141.269 485.342,-137.12 L485.342,-137.12 C485.342,-132.97 481.979,-129.607 477.829,-129.607 L355.856,-129.607 C351.706,-129.607 348.342,-132.97 348.342,-137.12 L348.342,-137.12 C348.342,-141.269 351.706,-144.633 355.856,-144.633 z" fill="#FFFFFF"/>
      <path d="M504.856,-144.633 L626.829,-144.633 C630.979,-144.633 634.342,-141.269 634.342,-137.12 L634.342,-137.12 C634.342,-132.97 630.979,-129.607 626.829,-129.607 L504.856,-129.607 C500.706,-129.607 497.342,-132.97 497.342,-137.12 L497.342,-137.12 C497.342,-141.269 500.706,-144.633 504.856,-144.633 z" fill="#FFFFFF"/>
      <path d="M355.856,-117.498 L477.829,-117.498 C481.979,-117.498 485.342,-114.134 485.342,-109.984 L485.342,-109.984 C485.342,-105.835 481.979,-102.471 477.829,-102.471 L355.856,-102.471 C351.706,-102.471 348.342,-105.835 348.342,-109.984 L348.342,-109.984 C348.342,-114.134 351.706,-117.498 355.856,-117.498 z" fill="#FFFFFF"/>
      <path d="M504.856,-117.498 L626.829,-117.498 C630.979,-117.498 634.342,-114.134 634.342,-109.984 L634.342,-109.984 C634.342,-105.835 630.979,-102.471 626.829,-102.471 L504.856,-102.471 C500.706,-102.471 497.342,-105.835 497.342,-109.984 L497.342,-109.984 C497.342,-114.134 500.706,-117.498 504.856,-117.498 z" fill="#FFFFFF"/>
      <path d="M505.939,-93.12 L625.329,-93.12 C630.307,-93.12 634.342,-89.085 634.342,-84.107 L634.342,-84.107 C634.342,-79.129 630.307,-75.094 625.329,-75.094 L505.939,-75.094 C500.961,-75.094 496.925,-79.129 496.925,-84.107 L496.925,-84.107 C496.925,-89.085 500.961,-93.12 505.939,-93.12 z" fill="#959595"/>
      <path d="M504.856,-170.042 L626.829,-170.042 C630.979,-170.042 634.342,-166.678 634.342,-162.528 L634.342,-162.528 C634.342,-158.379 630.979,-155.015 626.829,-155.015 L504.856,-155.015 C500.706,-155.015 497.342,-158.379 497.342,-162.528 L497.342,-162.528 C497.342,-166.678 500.706,-170.042 504.856,-170.042 z" fill="#FFFFFF"/>
      <path d="M432.676,-194.923 L549.009,-194.923 C551.034,-194.923 552.676,-193.282 552.676,-191.257 L552.676,-191.257 C552.676,-189.232 551.034,-187.59 549.009,-187.59 L432.676,-187.59 C430.651,-187.59 429.009,-189.232 429.009,-191.257 L429.009,-191.257 C429.009,-193.282 430.651,-194.923 432.676,-194.923 z" fill="#959595"/>
      <path d="M456.865,-209.95 L524.819,-209.95 C526.844,-209.95 528.486,-208.308 528.486,-206.283 L528.486,-206.283 C528.486,-204.258 526.844,-202.617 524.819,-202.617 L456.865,-202.617 C454.84,-202.617 453.199,-204.258 453.199,-206.283 L453.199,-206.283 C453.199,-208.308 454.84,-209.95 456.865,-209.95 z" fill="#B5B5B5"/>
      <path d="M625.472,-84.331 Q625.569,-84.233 625.569,-84.107 Q625.569,-83.981 625.472,-83.883 L620.939,-79.35 Q620.842,-79.253 620.715,-79.253 Q620.589,-79.253 620.492,-79.35 L620.005,-79.837 Q619.908,-79.934 619.908,-80.061 Q619.908,-80.187 620.005,-80.284 L623.828,-84.107 L620.005,-87.93 Q619.908,-88.027 619.908,-88.153 Q619.908,-88.28 620.005,-88.377 L620.492,-88.863 Q620.589,-88.961 620.715,-88.961 Q620.842,-88.961 620.939,-88.863 z M629.207,-84.331 Q629.304,-84.233 629.304,-84.107 Q629.304,-83.981 629.207,-83.883 L624.674,-79.35 Q624.577,-79.253 624.451,-79.253 Q624.324,-79.253 624.227,-79.35 L623.74,-79.837 Q623.643,-79.934 623.643,-80.061 Q623.643,-80.187 623.74,-80.284 L627.607,-84.093 L623.74,-87.93 Q623.643,-88.027 623.643,-88.153 Q623.643,-88.28 623.74,-88.377 L624.227,-88.863 Q624.324,-88.961 624.451,-88.961 Q624.577,-88.961 624.674,-88.863 z" fill="#FFFFFF"/>
    </g>
    <g>
      <path d="M9.833,52.865 L391.167,52.865 C393.376,52.865 395.167,54.655 395.167,56.865 L395.167,62.865 C395.167,65.074 393.376,66.865 391.167,66.865 L9.833,66.865 C7.624,66.865 5.833,65.074 5.833,62.865 L5.833,56.865 C5.833,54.655 7.624,52.865 9.833,52.865 z" fill="#959595"/>
      <path d="M9.833,52.865 L391.167,52.865 C393.376,52.865 395.167,54.655 395.167,56.865 L395.167,62.865 C395.167,65.074 393.376,66.865 391.167,66.865 L9.833,66.865 C7.624,66.865 5.833,65.074 5.833,62.865 L5.833,56.865 C5.833,54.655 7.624,52.865 9.833,52.865 z" fill-opacity="0" stroke="#959595" stroke-width="1"/>
    </g>
    <path d="M41.828,56.635 L92.407,56.635 C93.914,56.635 95.136,57.857 95.136,59.365 L95.136,59.365 C95.136,60.872 93.914,62.094 92.407,62.094 L41.828,62.094 C40.321,62.094 39.099,60.872 39.099,59.365 L39.099,59.365 C39.099,57.857 40.321,56.635 41.828,56.635 z" fill="#FFFFFF"/>
    <path d="M332.828,56.635 L383.407,56.635 C384.914,56.635 386.136,57.857 386.136,59.365 L386.136,59.365 C386.136,60.872 384.914,62.094 383.407,62.094 L332.828,62.094 C331.321,62.094 330.099,60.872 330.099,59.365 L330.099,59.365 C330.099,57.857 331.321,56.635 332.828,56.635 z" fill="#FFFFFF"/>
    <path d="M236.126,93.435 L286.705,93.435 C288.212,93.435 289.434,94.657 289.434,96.165 L289.434,96.165 C289.434,97.672 288.212,98.894 286.705,98.894 L236.126,98.894 C234.618,98.894 233.396,97.672 233.396,96.165 L233.396,96.165 C233.396,94.657 234.618,93.435 236.126,93.435 z" fill="#B1B1B1"/>
    <path d="M124.256,56.635 L134.725,56.635 C136.232,56.635 137.454,57.857 137.454,59.365 L137.454,59.365 C137.454,60.872 136.232,62.094 134.725,62.094 L124.256,62.094 C122.749,62.094 121.527,60.872 121.527,59.365 L121.527,59.365 C121.527,57.857 122.749,56.635 124.256,56.635 z" fill="#FFFFFF"/>
    <path d="M41.828,93.435 L52.297,93.435 C53.804,93.435 55.026,94.657 55.026,96.165 L55.026,96.165 C55.026,97.672 53.804,98.894 52.297,98.894 L41.828,98.894 C40.321,98.894 39.099,97.672 39.099,96.165 L39.099,96.165 C39.099,94.657 40.321,93.435 41.828,93.435 z" fill="#B1B1B1"/>
    <path d="M41.828,93.435 L52.297,93.435 C53.804,93.435 55.026,94.657 55.026,96.165 L55.026,96.165 C55.026,97.672 53.804,98.894 52.297,98.894 L41.828,98.894 C40.321,98.894 39.099,97.672 39.099,96.165 L39.099,96.165 C39.099,94.657 40.321,93.435 41.828,93.435 z" fill="#B1B1B1"/>
    <path d="M124.256,93.435 L134.725,93.435 C136.232,93.435 137.454,94.657 137.454,96.165 L137.454,96.165 C137.454,97.672 136.232,98.894 134.725,98.894 L124.256,98.894 C122.749,98.894 121.527,97.672 121.527,96.165 L121.527,96.165 C121.527,94.657 122.749,93.435 124.256,93.435 z" fill="#B1B1B1"/>
    <path d="M124.256,73.635 L134.725,73.635 C136.232,73.635 137.454,74.857 137.454,76.365 L137.454,76.365 C137.454,77.872 136.232,79.094 134.725,79.094 L124.256,79.094 C122.749,79.094 121.527,77.872 121.527,76.365 L121.527,76.365 C121.527,74.857 122.749,73.635 124.256,73.635 z" fill="#B1B1B1"/>
    <path d="M124.256,113.435 L134.725,113.435 C136.232,113.435 137.454,114.657 137.454,116.165 L137.454,116.165 C137.454,117.672 136.232,118.894 134.725,118.894 L124.256,118.894 C122.749,118.894 121.527,117.672 121.527,116.165 L121.527,116.165 C121.527,114.657 122.749,113.435 124.256,113.435 z" fill="#B1B1B1"/>
    <path d="M124.256,133.035 L134.725,133.035 C136.232,133.035 137.454,134.257 137.454,135.765 L137.454,135.765 C137.454,137.272 136.232,138.494 134.725,138.494 L124.256,138.494 C122.749,138.494 121.527,137.272 121.527,135.765 L121.527,135.765 C121.527,134.257 122.749,133.035 124.256,133.035 z" fill="#B1B1B1"/>
    <path d="M124.256,153.435 L134.725,153.435 C136.232,153.435 137.454,154.657 137.454,156.165 L137.454,156.165 C137.454,157.672 136.232,158.894 134.725,158.894 L124.256,158.894 C122.749,158.894 121.527,157.672 121.527,156.165 L121.527,156.165 C121.527,154.657 122.749,153.435 124.256,153.435 z" fill="#B1B1B1"/>
    <path d="M124.256,172.635 L134.725,172.635 C136.232,172.635 137.454,173.857 137.454,175.365 L137.454,175.365 C137.454,176.872 136.232,178.094 134.725,178.094 L124.256,178.094 C122.749,178.094 121.527,176.872 121.527,175.365 L121.527,175.365 C121.527,173.857 122.749,172.635 124.256,172.635 z" fill="#B1B1B1"/>
    <path d="M124.256,193.435 L134.725,193.435 C136.232,193.435 137.454,194.657 137.454,196.165 L137.454,196.165 C137.454,197.672 136.232,198.894 134.725,198.894 L124.256,198.894 C122.749,198.894 121.527,197.672 121.527,196.165 L121.527,196.165 C121.527,194.657 122.749,193.435 124.256,193.435 z" fill="#B1B1B1"/>
    <path d="M124.256,212.835 L134.725,212.835 C136.232,212.835 137.454,214.057 137.454,215.565 L137.454,215.565 C137.454,217.072 136.232,218.294 134.725,218.294 L124.256,218.294 C122.749,218.294 121.527,217.072 121.527,215.565 L121.527,215.565 C121.527,214.057 122.749,212.835 124.256,212.835 z" fill="#B1B1B1"/>
    <path d="M246.595,62.094 L236.126,62.094 C234.618,62.094 233.396,60.872 233.396,59.365 L233.396,59.365 C233.396,57.857 234.618,56.635 236.126,56.635 L246.595,56.635 C248.102,56.635 249.324,57.857 249.324,59.365 L249.324,59.365 C249.324,60.872 248.102,62.094 246.595,62.094 z" fill="#FFFFFF"/>
    <path d="M163.267,56.635 L204.423,56.635 C205.931,56.635 207.153,57.857 207.153,59.365 L207.153,59.365 C207.153,60.872 205.931,62.094 204.423,62.094 L163.267,62.094 C161.76,62.094 160.538,60.872 160.538,59.365 L160.538,59.365 C160.538,57.857 161.76,56.635 163.267,56.635 z" fill="#FFFFFF"/>
    <path d="M41.828,73.635 L82.985,73.635 C84.492,73.635 85.714,74.857 85.714,76.365 L85.714,76.365 C85.714,77.872 84.492,79.094 82.985,79.094 L41.828,79.094 C40.321,79.094 39.099,77.872 39.099,76.365 L39.099,76.365 C39.099,74.857 40.321,73.635 41.828,73.635 z" fill="#B1B1B1"/>
    <path d="M41.1,133.035 L82.257,133.035 C83.764,133.035 84.986,134.257 84.986,135.765 L84.986,135.765 C84.986,137.272 83.764,138.494 82.257,138.494 L41.1,138.494 C39.593,138.494 38.371,137.272 38.371,135.765 L38.371,135.765 C38.371,134.257 39.593,133.035 41.1,133.035 z" fill="#B1B1B1"/>
    <path d="M41.828,153.435 L82.985,153.435 C84.492,153.435 85.714,154.657 85.714,156.165 L85.714,156.165 C85.714,157.672 84.492,158.894 82.985,158.894 L41.828,158.894 C40.321,158.894 39.099,157.672 39.099,156.165 L39.099,156.165 C39.099,154.657 40.321,153.435 41.828,153.435 z" fill="#B1B1B1"/>
    <path d="M41.828,172.635 L82.985,172.635 C84.492,172.635 85.714,173.857 85.714,175.365 L85.714,175.365 C85.714,176.872 84.492,178.094 82.985,178.094 L41.828,178.094 C40.321,178.094 39.099,176.872 39.099,175.365 L39.099,175.365 C39.099,173.857 40.321,172.635 41.828,172.635 z" fill="#B1B1B1"/>
    <path d="M163.267,93.435 L204.423,93.435 C205.931,93.435 207.153,94.657 207.153,96.165 L207.153,96.165 C207.153,97.672 205.931,98.894 204.423,98.894 L163.267,98.894 C161.76,98.894 160.538,97.672 160.538,96.165 L160.538,96.165 C160.538,94.657 161.76,93.435 163.267,93.435 z" fill="#B1B1B1"/>
    <path d="M163.267,133.035 L204.423,133.035 C205.931,133.035 207.153,134.257 207.153,135.765 L207.153,135.765 C207.153,137.272 205.931,138.494 204.423,138.494 L163.267,138.494 C161.76,138.494 160.538,137.272 160.538,135.765 L160.538,135.765 C160.538,134.257 161.76,133.035 163.267,133.035 z" fill="#B1B1B1"/>
    <path d="M163.267,212.835 L204.423,212.835 C205.931,212.835 207.153,214.057 207.153,215.565 L207.153,215.565 C207.153,217.072 205.931,218.294 204.423,218.294 L163.267,218.294 C161.76,218.294 160.538,217.072 160.538,215.565 L160.538,215.565 C160.538,214.057 161.76,212.835 163.267,212.835 z" fill="#B1B1B1"/>
    <path d="M256.729,56.635 L297.886,56.635 C299.393,56.635 300.615,57.857 300.615,59.365 L300.615,59.365 C300.615,60.872 299.393,62.094 297.886,62.094 L256.729,62.094 C255.222,62.094 254,60.872 254,59.365 L254,59.365 C254,57.857 255.222,56.635 256.729,56.635 z" fill="#FFFFFF"/>
    <path d="M61.729,93.435 L102.886,93.435 C104.393,93.435 105.615,94.657 105.615,96.165 L105.615,96.165 C105.615,97.672 104.393,98.894 102.886,98.894 L61.729,98.894 C60.222,98.894 59,97.672 59,96.165 L59,96.165 C59,94.657 60.222,93.435 61.729,93.435 z" fill="#B1B1B1"/>
    <path d="M41.828,212.835 L52.297,212.835 C53.804,212.835 55.026,214.057 55.026,215.565 L55.026,215.565 C55.026,217.072 53.804,218.294 52.297,218.294 L41.828,218.294 C40.321,218.294 39.099,217.072 39.099,215.565 L39.099,215.565 C39.099,214.057 40.321,212.835 41.828,212.835 z" fill="#B1B1B1"/>
    <path d="M61.729,212.835 L102.886,212.835 C104.393,212.835 105.615,214.057 105.615,215.565 L105.615,215.565 C105.615,217.072 104.393,218.294 102.886,218.294 L61.729,218.294 C60.222,218.294 59,217.072 59,215.565 L59,215.565 C59,214.057 60.222,212.835 61.729,212.835 z" fill="#B1B1B1"/>
    <path d="M236.126,113.435 L246.595,113.435 C248.102,113.435 249.324,114.657 249.324,116.165 L249.324,116.165 C249.324,117.672 248.102,118.894 246.595,118.894 L236.126,118.894 C234.618,118.894 233.396,117.672 233.396,116.165 L233.396,116.165 C233.396,114.657 234.618,113.435 236.126,113.435 z" fill="#B1B1B1"/>
    <path d="M256.729,113.435 L297.886,113.435 C299.393,113.435 300.615,114.657 300.615,116.165 L300.615,116.165 C300.615,117.672 299.393,118.894 297.886,118.894 L256.729,118.894 C255.222,118.894 254,117.672 254,116.165 L254,116.165 C254,114.657 255.222,113.435 256.729,113.435 z" fill="#B1B1B1"/>
    <path d="M230.535,172.635 L281.115,172.635 C282.622,172.635 283.844,173.857 283.844,175.365 L283.844,175.365 C283.844,176.872 282.622,178.094 281.115,178.094 L230.535,178.094 C229.028,178.094 227.806,176.872 227.806,175.365 L227.806,175.365 C227.806,173.857 229.028,172.635 230.535,172.635 z" fill="#B1B1B1"/>
    <path d="M228.626,212.835 L279.205,212.835 C280.712,212.835 281.934,214.057 281.934,215.565 L281.934,215.565 C281.934,217.072 280.712,218.294 279.205,218.294 L228.626,218.294 C227.118,218.294 225.896,217.072 225.896,215.565 L225.896,215.565 C225.896,214.057 227.118,212.835 228.626,212.835 z" fill="#B1B1B1"/>
    <path d="M230.535,192.635 L241.004,192.635 C242.512,192.635 243.733,193.857 243.733,195.365 L243.733,195.365 C243.733,196.872 242.512,198.094 241.004,198.094 L230.535,198.094 C229.028,198.094 227.806,196.872 227.806,195.365 L227.806,195.365 C227.806,193.857 229.028,192.635 230.535,192.635 z" fill="#B1B1B1"/>
    <path d="M251.139,192.635 L292.295,192.635 C293.803,192.635 295.024,193.857 295.024,195.365 L295.024,195.365 C295.024,196.872 293.803,198.094 292.295,198.094 L251.139,198.094 C249.631,198.094 248.41,196.872 248.41,195.365 L248.41,195.365 C248.41,193.857 249.631,192.635 251.139,192.635 z" fill="#B1B1B1"/>
    <path d="M236.126,153.435 L246.595,153.435 C248.102,153.435 249.324,154.657 249.324,156.165 L249.324,156.165 C249.324,157.672 248.102,158.894 246.595,158.894 L236.126,158.894 C234.618,158.894 233.396,157.672 233.396,156.165 L233.396,156.165 C233.396,154.657 234.618,153.435 236.126,153.435 z" fill="#B1B1B1"/>
    <path d="M256.729,153.435 L297.886,153.435 C299.393,153.435 300.615,154.657 300.615,156.165 L300.615,156.165 C300.615,157.672 299.393,158.894 297.886,158.894 L256.729,158.894 C255.222,158.894 254,157.672 254,156.165 L254,156.165 C254,154.657 255.222,153.435 256.729,153.435 z" fill="#B1B1B1"/>
    <path d="M163.267,172.635 L173.736,172.635 C175.243,172.635 176.465,173.857 176.465,175.365 L176.465,175.365 C176.465,176.872 175.243,178.094 173.736,178.094 L163.267,178.094 C161.76,178.094 160.538,176.872 160.538,175.365 L160.538,175.365 C160.538,173.857 161.76,172.635 163.267,172.635 z" fill="#B1B1B1"/>
    <path d="M332.828,73.635 L373.985,73.635 C375.492,73.635 376.714,74.857 376.714,76.365 L376.714,76.365 C376.714,77.872 375.492,79.094 373.985,79.094 L332.828,79.094 C331.321,79.094 330.099,77.872 330.099,76.365 L330.099,76.365 C330.099,74.857 331.321,73.635 332.828,73.635 z" fill="#B1B1B1"/>
    <path d="M332.828,93.435 L373.985,93.435 C375.492,93.435 376.714,94.657 376.714,96.165 L376.714,96.165 C376.714,97.672 375.492,98.894 373.985,98.894 L332.828,98.894 C331.321,98.894 330.099,97.672 330.099,96.165 L330.099,96.165 C330.099,94.657 331.321,93.435 332.828,93.435 z" fill="#B1B1B1"/>
    <path d="M332.828,133.035 L373.985,133.035 C375.492,133.035 376.714,134.257 376.714,135.765 L376.714,135.765 C376.714,137.272 375.492,138.494 373.985,138.494 L332.828,138.494 C331.321,138.494 330.099,137.272 330.099,135.765 L330.099,135.765 C330.099,134.257 331.321,133.035 332.828,133.035 z" fill="#B1B1B1"/>
    <path d="M332.828,172.635 L373.985,172.635 C375.492,172.635 376.714,173.857 376.714,175.365 L376.714,175.365 C376.714,176.872 375.492,178.094 373.985,178.094 L332.828,178.094 C331.321,178.094 330.099,176.872 330.099,175.365 L330.099,175.365 C330.099,173.857 331.321,172.635 332.828,172.635 z" fill="#B1B1B1"/>
    <path d="M332.828,212.835 L373.985,212.835 C375.492,212.835 376.714,214.057 376.714,215.565 L376.714,215.565 C376.714,217.072 375.492,218.294 373.985,218.294 L332.828,218.294 C331.321,218.294 330.099,217.072 330.099,215.565 L330.099,215.565 C330.099,214.057 331.321,212.835 332.828,212.835 z" fill="#B1B1B1"/>
    <path d="M332.828,113.435 L361.05,113.435 C362.557,113.435 363.809,114.657 363.809,116.165 C363.809,117.659 362.525,118.894 361.017,118.894 L332.828,118.894 C331.321,118.894 330.099,117.672 330.099,116.165 L330.099,116.165 C330.099,114.657 331.321,113.435 332.828,113.435 z" fill="#B1B1B1"/>
    <path d="M41.828,113.435 L70.05,113.435 C71.557,113.435 72.809,114.657 72.809,116.165 C72.809,117.659 71.525,118.894 70.017,118.894 L41.828,118.894 C40.321,118.894 39.099,117.672 39.099,116.165 L39.099,116.165 C39.099,114.657 40.321,113.435 41.828,113.435 z" fill="#B1B1B1"/>
    <path d="M81.938,193.435 L92.407,193.435 C93.914,193.435 95.136,194.657 95.136,196.165 L95.136,196.165 C95.136,197.672 93.914,198.894 92.407,198.894 L81.938,198.894 C80.431,198.894 79.209,197.672 79.209,196.165 L79.209,196.165 C79.209,194.657 80.431,193.435 81.938,193.435 z" fill="#B1B1B1"/>
    <path d="M41.828,193.435 L70.05,193.435 C71.557,193.435 72.809,194.657 72.809,196.165 C72.809,197.659 71.525,198.894 70.017,198.894 L41.828,198.894 C40.321,198.894 39.099,197.672 39.099,196.165 L39.099,196.165 C39.099,194.657 40.321,193.435 41.828,193.435 z" fill="#B1B1B1"/>
    <path d="M8.333,106.85 L392.667,106.85" fill-opacity="0" stroke="#959595" stroke-width="1" stroke-linecap="round"/>
    <path d="M8.333,86.865 L392.667,86.865" fill-opacity="0" stroke="#959595" stroke-width="1" stroke-linecap="round"/>
    <path d="M8.333,126.85 L392.667,126.85" fill-opacity="0" stroke="#959595" stroke-width="1" stroke-linecap="round"/>
    <path d="M8.333,146.85 L392.667,146.85" fill-opacity="0" stroke="#959595" stroke-width="1" stroke-linecap="round"/>
    <path d="M8.333,166.85 L392.667,166.85" fill-opacity="0" stroke="#959595" stroke-width="1" stroke-linecap="round"/>
    <path d="M8.333,186.85 L392.667,186.85" fill-opacity="0" stroke="#959595" stroke-width="1" stroke-linecap="round"/>
    <path d="M8.333,206.85 L392.667,206.85" fill-opacity="0" stroke="#959595" stroke-width="1" stroke-linecap="round"/>
    <g>
      <path d="M9.333,239.359 L80.986,239.359 C83.195,239.359 84.986,241.15 84.986,243.359 L84.986,249.359 C84.986,251.569 83.195,253.359 80.986,253.359 L9.333,253.359 C7.124,253.359 5.333,251.569 5.333,249.359 L5.333,243.359 C5.333,241.15 7.124,239.359 9.333,239.359 z" fill="#FFFFFF"/>
      <path d="M76.633,247.892 Q76.525,248 76.377,248 Q76.229,248 76.121,247.892 L73.569,245.34 Q73.46,245.231 73.46,245.083 Q73.46,244.935 73.569,244.827 Q73.677,244.719 73.825,244.719 L78.929,244.719 Q79.077,244.719 79.185,244.827 Q79.294,244.935 79.294,245.083 Q79.294,245.231 79.185,245.34 z" fill="#959595"/>
      <path d="M13.734,244.724 L19.064,244.724 C19.967,244.724 20.699,245.456 20.699,246.359 L20.711,246.402 C20.711,247.305 19.967,247.995 19.064,247.995 L13.734,247.995 C12.831,247.995 12.099,247.263 12.099,246.359 L12.099,246.359 C12.099,245.456 12.831,244.724 13.734,244.724 z" fill="#959595"/>
      <path d="M23.945,244.724 L43.332,244.724 C44.236,244.724 44.968,245.456 44.968,246.359 L44.968,246.359 C44.968,247.263 44.236,247.995 43.332,247.995 L23.945,247.995 C23.042,247.995 22.31,247.263 22.31,246.359 L22.31,246.359 C22.31,245.456 23.042,244.724 23.945,244.724 z" fill="#959595"/>
    </g>
    <g>
      <path d="M124.1,239.359 L130.1,239.359 C132.309,239.359 134.1,241.15 134.1,243.359 L134.1,249.359 C134.1,251.569 132.309,253.359 130.1,253.359 L124.1,253.359 C121.891,253.359 120.1,251.569 120.1,249.359 L120.1,243.359 C120.1,241.15 121.891,239.359 124.1,239.359 z" fill="#FFFFFF"/>
      <path d="M139.767,239.359 L145.767,239.359 C147.976,239.359 149.767,241.15 149.767,243.359 L149.767,249.359 C149.767,251.569 147.976,253.359 145.767,253.359 L139.767,253.359 C137.557,253.359 135.767,251.569 135.767,249.359 L135.767,243.359 C135.767,241.15 137.557,239.359 139.767,239.359 z" fill="#FFFFFF"/>
      <path d="M155.767,239.359 L161.767,239.359 C163.976,239.359 165.767,241.15 165.767,243.359 L165.767,249.359 C165.767,251.569 163.976,253.359 161.767,253.359 L155.767,253.359 C153.557,253.359 151.767,251.569 151.767,249.359 L151.767,243.359 C151.767,241.15 153.557,239.359 155.767,239.359 z" fill="#FFFFFF"/>
      <path d="M171.433,239.359 L177.433,239.359 C179.642,239.359 181.433,241.15 181.433,243.359 L181.433,249.359 C181.433,251.569 179.642,253.359 177.433,253.359 L171.433,253.359 C169.224,253.359 167.433,251.569 167.433,249.359 L167.433,243.359 C167.433,241.15 169.224,239.359 171.433,239.359 z" fill="#FFFFFF"/>
      <path d="M187.287,239.359 L193.287,239.359 C195.497,239.359 197.287,241.15 197.287,243.359 L197.287,249.359 C197.287,251.569 195.497,253.359 193.287,253.359 L187.287,253.359 C185.078,253.359 183.287,251.569 183.287,249.359 L183.287,243.359 C183.287,241.15 185.078,239.359 187.287,239.359 z" fill="#FFFFFF"/>
      <path d="M203.287,239.359 L209.287,239.359 C211.497,239.359 213.287,241.15 213.287,243.359 L213.287,249.359 C213.287,251.569 211.497,253.359 209.287,253.359 L203.287,253.359 C201.078,253.359 199.287,251.569 199.287,249.359 L199.287,243.359 C199.287,241.15 201.078,239.359 203.287,239.359 z" fill="#FFFFFF"/>
      <path d="M223.326,246.209 Q223.391,246.275 223.391,246.359 Q223.391,246.444 223.326,246.509 L220.285,249.55 Q220.22,249.615 220.135,249.615 Q220.05,249.615 219.985,249.55 L219.659,249.224 Q219.594,249.158 219.594,249.074 Q219.594,248.989 219.659,248.924 L222.223,246.359 L219.659,243.795 Q219.594,243.73 219.594,243.645 Q219.594,243.56 219.659,243.495 L219.985,243.169 Q220.05,243.104 220.135,243.104 Q220.22,243.104 220.285,243.169 z M225.831,246.209 Q225.896,246.275 225.896,246.359 Q225.896,246.444 225.831,246.509 L222.791,249.55 Q222.725,249.615 222.641,249.615 Q222.556,249.615 222.491,249.55 L222.164,249.224 Q222.099,249.158 222.099,249.074 Q222.099,248.989 222.164,248.924 L224.729,246.359 L222.164,243.795 Q222.099,243.73 222.099,243.645 Q222.099,243.56 222.164,243.495 L222.491,243.169 Q222.556,243.104 222.641,243.104 Q222.725,243.104 222.791,243.169 z" fill="#959595"/>
      <path d="M111.364,246.509 Q111.299,246.444 111.299,246.359 Q111.299,246.275 111.364,246.209 L114.405,243.169 Q114.47,243.104 114.555,243.104 Q114.64,243.104 114.705,243.169 L115.031,243.495 Q115.097,243.56 115.097,243.645 Q115.097,243.73 115.031,243.795 L112.467,246.359 L115.031,248.924 Q115.097,248.989 115.097,249.074 Q115.097,249.158 115.031,249.224 L114.705,249.55 Q114.64,249.615 114.555,249.615 Q114.47,249.615 114.405,249.55 z M108.859,246.509 Q108.794,246.444 108.794,246.359 Q108.794,246.275 108.859,246.209 L111.899,243.169 Q111.965,243.104 112.049,243.104 Q112.134,243.104 112.2,243.169 L112.526,243.495 Q112.591,243.56 112.591,243.645 Q112.591,243.73 112.526,243.795 L109.962,246.359 L112.526,248.924 Q112.591,248.989 112.591,249.074 Q112.591,249.158 112.526,249.224 L112.2,249.55 Q112.134,249.615 112.049,249.615 Q111.965,249.615 111.899,249.55 z" fill="#959595"/>
    </g>
    <path d="M12.677,56.286 L15.833,56.286 C16.938,56.286 17.833,57.182 17.833,58.286 L17.833,61.443 C17.833,62.547 16.938,63.443 15.833,63.443 L12.677,63.443 C11.572,63.443 10.677,62.547 10.677,61.443 L10.677,58.286 C10.677,57.182 11.572,56.286 12.677,56.286 z" fill-opacity="0" stroke="#FFFFFF" stroke-width="1"/>
    <path d="M12.677,73.286 L15.833,73.286 C16.938,73.286 17.833,74.182 17.833,75.286 L17.833,78.443 C17.833,79.547 16.938,80.443 15.833,80.443 L12.677,80.443 C11.572,80.443 10.677,79.547 10.677,78.443 L10.677,75.286 C10.677,74.182 11.572,73.286 12.677,73.286 z" fill-opacity="0" stroke="#FFFFFF" stroke-width="1"/>
    <path d="M12.677,93.086 L15.833,93.086 C16.938,93.086 17.833,93.982 17.833,95.086 L17.833,98.243 C17.833,99.347 16.938,100.243 15.833,100.243 L12.677,100.243 C11.572,100.243 10.677,99.347 10.677,98.243 L10.677,95.086 C10.677,93.982 11.572,93.086 12.677,93.086 z" fill-opacity="0" stroke="#FFFFFF" stroke-width="1"/>
    <path d="M12.677,132.686 L15.833,132.686 C16.938,132.686 17.833,133.582 17.833,134.686 L17.833,137.843 C17.833,138.947 16.938,139.843 15.833,139.843 L12.677,139.843 C11.572,139.843 10.677,138.947 10.677,137.843 L10.677,134.686 C10.677,133.582 11.572,132.686 12.677,132.686 z" fill-opacity="0" stroke="#FFFFFF" stroke-width="1"/>
    <path d="M12.677,193.086 L15.833,193.086 C16.938,193.086 17.833,193.982 17.833,195.086 L17.833,198.243 C17.833,199.347 16.938,200.243 15.833,200.243 L12.677,200.243 C11.572,200.243 10.677,199.347 10.677,198.243 L10.677,195.086 C10.677,193.982 11.572,193.086 12.677,193.086 z" fill-opacity="0" stroke="#FFFFFF" stroke-width="1"/>
    <path d="M12.677,172.286 L15.833,172.286 C16.938,172.286 17.833,173.182 17.833,174.286 L17.833,177.443 C17.833,178.547 16.938,179.443 15.833,179.443 L12.677,179.443 C11.572,179.443 10.677,178.547 10.677,177.443 L10.677,174.286 C10.677,173.182 11.572,172.286 12.677,172.286 z" fill-opacity="0" stroke="#FFFFFF" stroke-width="1"/>
    <path d="M12.677,212.486 L15.833,212.486 C16.938,212.486 17.833,213.382 17.833,214.486 L17.833,217.643 C17.833,218.747 16.938,219.643 15.833,219.643 L12.677,219.643 C11.572,219.643 10.677,218.747 10.677,217.643 L10.677,214.486 C10.677,213.382 11.572,212.486 12.677,212.486 z" fill-opacity="0" stroke="#FFFFFF" stroke-width="1"/>
    <path d="M12.677,113.086 L15.833,113.086 C16.938,113.086 17.833,113.982 17.833,115.086 L17.833,118.243 C17.833,119.347 16.938,120.243 15.833,120.243 L12.677,120.243 C11.572,120.243 10.677,119.347 10.677,118.243 L10.677,115.086 C10.677,113.982 11.572,113.086 12.677,113.086 z" fill-opacity="0" stroke="#FFFFFF" stroke-width="1"/>
    <path d="M12.677,153.086 L15.833,153.086 C16.938,153.086 17.833,153.982 17.833,155.086 L17.833,158.243 C17.833,159.347 16.938,160.243 15.833,160.243 L12.677,160.243 C11.572,160.243 10.677,159.347 10.677,158.243 L10.677,155.086 C10.677,153.982 11.572,153.086 12.677,153.086 z" fill-opacity="0" stroke="#FFFFFF" stroke-width="1"/>
  </g>
</svg>
