<?xml version="1.0" encoding="UTF-8"?>
<!DOCTYPE svg PUBLIC "-//W3C//DTD SVG 1.1//EN" "http://www.w3.org/Graphics/SVG/1.1/DTD/svg11.dtd">
<svg version="1.1" xmlns="http://www.w3.org/2000/svg" xmlns:xlink="http://www.w3.org/1999/xlink" x="0" y="0" width="400" height="300" viewBox="0, 0, 400, 300">
  <defs>
    <clipPath id="Clip_1">
      <path d="M-360.11,336.128 L-202.639,336.128 L-202.639,476.667 L-360.11,476.667 z"/>
    </clipPath>
  </defs>
  <g id="Layer_1">
    <g>
      <g>
        <path d="M184.284,12.753 L239.748,19.024 C242.511,19.337 244.498,21.83 244.185,24.593 L239.807,63.315 C239.494,66.078 237.001,68.064 234.238,67.752 L178.774,61.48 C176.011,61.168 174.025,58.675 174.337,55.911 L178.716,17.19 C179.028,14.427 181.521,12.44 184.284,12.753 z" fill="#DDDDDD"/>
        <path d="M184.284,12.753 L239.748,19.024 C242.511,19.337 244.498,21.83 244.185,24.593 L239.807,63.315 C239.494,66.078 237.001,68.064 234.238,67.752 L178.774,61.48 C176.011,61.168 174.025,58.675 174.337,55.911 L178.716,17.19 C179.028,14.427 181.521,12.44 184.284,12.753 z" fill-opacity="0" stroke="#FFFFFF" stroke-width="4"/>
      </g>
      <path d="M200.498,37.438 C197.191,37.064 194.813,34.08 195.187,30.773 C195.561,27.466 198.545,25.089 201.852,25.463 C205.159,25.837 207.537,28.821 207.163,32.128 C206.789,35.435 203.805,37.812 200.498,37.438 z" fill="#FFFFFF"/>
      <path d="M228.939,61.308 L219.572,60.197 L190.45,56.904 L184.293,56.137 L197.714,41.571 L200.753,47.299 L213.477,32.583 z" fill="#FFFFFF"/>
    </g>
    <g>
      <g>
        <path d="M129.229,58.166 L187.957,42.561 C190.882,41.784 193.884,43.525 194.662,46.451 L205.556,87.451 C206.333,90.377 204.592,93.379 201.666,94.156 L142.938,109.761 C140.012,110.538 137.01,108.797 136.233,105.871 L125.339,64.871 C124.561,61.945 126.303,58.943 129.229,58.166 z" fill="#DDDDDD"/>
        <path d="M129.229,58.166 L187.957,42.561 C190.882,41.784 193.884,43.525 194.662,46.451 L205.556,87.451 C206.333,90.377 204.592,93.379 201.666,94.156 L142.938,109.761 C140.012,110.538 137.01,108.797 136.233,105.871 L125.339,64.871 C124.561,61.945 126.303,58.943 129.229,58.166 z" fill-opacity="0" stroke="#FFFFFF" stroke-width="4"/>
      </g>
      <path d="M155.652,76.587 C152.15,77.517 148.557,75.433 147.627,71.931 C146.696,68.43 148.781,64.837 152.282,63.906 C155.784,62.976 159.377,65.06 160.307,68.562 C161.238,72.064 159.153,75.657 155.652,76.587 z" fill="#FFFFFF"/>
      <path d="M193.946,89.53 L184.006,92.112 L153.171,100.306 L146.624,101.966 L154.465,81.88 L159.815,86.486 L166.891,66.524 z" fill="#FFFFFF"/>
    </g>
    <g>
      <g>
        <path d="M204.954,72.697 L264.829,57.573 C267.812,56.82 270.841,58.627 271.594,61.61 L282.153,103.411 C282.906,106.394 281.099,109.423 278.116,110.176 L218.241,125.3 C215.258,126.054 212.229,124.247 211.476,121.264 L200.917,79.462 C200.164,76.48 201.971,73.451 204.954,72.697 z" fill="#DDDDDD"/>
        <path d="M204.954,72.697 L264.829,57.573 C267.812,56.82 270.841,58.627 271.594,61.61 L282.153,103.411 C282.906,106.394 281.099,109.423 278.116,110.176 L218.241,125.3 C215.258,126.054 212.229,124.247 211.476,121.264 L200.917,79.462 C200.164,76.48 201.971,73.451 204.954,72.697 z" fill-opacity="0" stroke="#FFFFFF" stroke-width="4"/>
      </g>
      <path d="M231.577,91.762 C228.007,92.663 224.382,90.5 223.48,86.93 C222.578,83.36 224.741,79.735 228.311,78.833 C231.881,77.932 235.507,80.095 236.408,83.665 C237.31,87.235 235.147,90.86 231.577,91.762 z" fill="#FFFFFF"/>
      <path d="M270.33,105.393 L260.198,107.893 L228.76,115.834 L222.086,117.439 L230.305,97.126 L235.684,101.873 L243.124,81.676 z" fill="#FFFFFF"/>
    </g>
    <g>
      <g>
        <path d="M127.745,75.43 L184.504,91.517 C187.331,92.318 188.974,95.26 188.173,98.087 L176.942,137.713 C176.14,140.54 173.199,142.183 170.371,141.382 L113.613,125.295 C110.785,124.493 109.142,121.552 109.944,118.724 L121.175,79.099 C121.976,76.271 124.918,74.629 127.745,75.43 z" fill="#DDDDDD"/>
        <path d="M127.745,75.43 L184.504,91.517 C187.331,92.318 188.974,95.26 188.173,98.087 L176.942,137.713 C176.14,140.54 173.199,142.183 170.371,141.382 L113.613,125.295 C110.785,124.493 109.142,121.552 109.944,118.724 L121.175,79.099 C121.976,76.271 124.918,74.629 127.745,75.43 z" fill-opacity="0" stroke="#FFFFFF" stroke-width="4"/>
      </g>
      <path d="M140.34,104.071 C136.955,103.111 134.989,99.59 135.949,96.206 C136.908,92.822 140.429,90.856 143.813,91.815 C147.197,92.774 149.163,96.295 148.204,99.68 C147.245,103.064 143.724,105.03 140.34,104.071 z" fill="#FFFFFF"/>
      <path d="M165.89,133.858 L156.312,131.086 L126.511,122.64 L120.223,120.78 L136.725,107.901 L138.908,114.397 L154.71,101.242 z" fill="#FFFFFF"/>
    </g>
    <g>
      <path d="M71.149,-15.631 L71.149,-126.849 Q71.149,-129.14 72.039,-130.624 Q72.929,-132.109 74.252,-132.109 L85.643,-132.109 Q86.966,-132.109 87.855,-130.624 Q88.745,-129.14 88.745,-126.849 L88.745,-15.631 Q88.745,-13.426 87.855,-11.941 Q86.966,-10.456 85.643,-10.456 L74.252,-10.456 Q72.929,-10.456 72.039,-11.941 Q71.149,-13.426 71.149,-15.631 z" fill="#2C5E7C"/>
      <g>
        <path d="M99.056,-13.045 L99.056,-86.682 Q99.056,-87.88 100.011,-88.657 Q100.966,-89.434 102.44,-89.434 L130.27,-89.434 Q131.688,-89.434 132.643,-88.657 Q133.598,-87.88 133.598,-86.682 L133.598,-73.786 Q133.598,-72.587 132.643,-71.811 Q131.688,-71.034 130.27,-71.034 L116.846,-71.034 L116.846,-28.274 L130.27,-28.274 Q131.688,-28.274 132.643,-27.497 Q133.598,-26.721 133.598,-25.567 L133.598,-13.045 Q133.598,-11.891 132.643,-11.114 Q131.688,-10.338 130.27,-10.338 L102.44,-10.338 Q100.966,-10.338 100.011,-11.114 Q99.056,-11.891 99.056,-13.045 z" fill="#2C5E7C"/>
        <path d="M172.633,-86.726 L172.633,-13.09 Q172.633,-11.891 171.678,-11.114 Q170.723,-10.338 169.25,-10.338 L141.42,-10.338 Q140.001,-10.338 139.046,-11.114 Q138.091,-11.891 138.091,-13.09 L138.091,-25.497 Q138.091,-26.695 139.046,-27.472 Q140.001,-28.249 141.42,-28.249 L154.844,-28.249 L154.844,-71.078 L141.42,-71.078 Q140.001,-71.078 139.046,-71.855 Q138.091,-72.632 138.091,-73.786 L138.091,-86.726 Q138.091,-87.88 139.046,-88.657 Q140.001,-89.434 141.42,-89.434 L169.25,-89.434 Q170.723,-89.434 171.678,-88.657 Q172.633,-87.88 172.633,-86.726 z" fill="#2C5E7C"/>
      </g>
      <path d="M-199.734,-48.164 L-199.734,-51.677 Q-199.734,-56.41 -196.465,-59.493 L-165.464,-88.392 Q-163.557,-90.041 -162.113,-89.073 Q-160.67,-88.105 -160.67,-85.452 L-160.67,-73.118 Q-160.67,-67.812 -165.464,-63.437 L-179.957,-49.956 L-165.464,-36.404 Q-160.67,-32.03 -160.67,-26.723 L-160.67,-14.389 Q-160.67,-11.736 -162.113,-10.804 Q-163.557,-9.872 -165.464,-11.449 L-196.465,-40.419 Q-199.734,-43.431 -199.734,-48.164 z" fill="#3B3B3B"/>
      <path d="M-138.699,-95.687 L-138.699,-130.464 Q-138.699,-131.18 -137.809,-131.644 Q-136.919,-132.109 -135.597,-132.109 L-124.205,-132.109 Q-122.883,-132.109 -121.993,-131.644 Q-121.103,-131.18 -121.103,-130.464 L-121.103,-95.687 Q-121.103,-94.997 -121.993,-94.533 Q-122.883,-94.069 -124.205,-94.069 L-135.597,-94.069 Q-136.919,-94.069 -137.809,-94.533 Q-138.699,-94.997 -138.699,-95.687 z" fill="#3B3B3B"/>
      <path d="M-115.133,-95.687 L-115.133,-107.011 Q-115.133,-107.727 -114.243,-108.192 Q-113.353,-108.656 -112.031,-108.656 L-100.639,-108.656 Q-99.317,-108.656 -98.427,-108.192 Q-97.537,-107.727 -97.537,-107.011 L-97.537,-95.687 Q-97.537,-94.997 -98.427,-94.533 Q-99.317,-94.069 -100.639,-94.069 L-112.031,-94.069 Q-113.353,-94.069 -114.243,-94.533 Q-115.133,-94.997 -115.133,-95.687 z" fill="#3B3B3B"/>
      <path d="M-121.103,-86.728 L-121.103,-13.206 Q-121.103,-12.009 -122.057,-11.233 Q-123.01,-10.458 -124.481,-10.458 L-152.268,-10.458 Q-153.684,-10.458 -154.638,-11.233 Q-155.591,-12.009 -155.591,-13.206 L-155.591,-25.593 Q-155.591,-26.79 -154.638,-27.565 Q-153.684,-28.341 -152.268,-28.341 L-138.865,-28.341 L-138.865,-71.104 L-152.268,-71.104 Q-153.684,-71.104 -154.638,-71.879 Q-155.591,-72.655 -155.591,-73.807 L-155.591,-86.728 Q-155.591,-87.88 -154.638,-88.655 Q-153.684,-89.431 -152.268,-89.431 L-124.481,-89.431 Q-123.01,-89.431 -122.057,-88.655 Q-121.103,-87.88 -121.103,-86.728 z" fill="#3B3B3B"/>
      <g>
        <path d="M62.711,-51.725 L62.711,-48.211 Q62.711,-43.479 59.442,-40.395 L28.44,-11.497 Q26.533,-9.848 25.09,-10.816 Q23.646,-11.784 23.646,-14.437 L23.646,-26.771 Q23.646,-32.077 28.44,-36.451 L42.933,-49.932 L28.44,-63.485 Q23.646,-67.859 23.646,-73.166 L23.646,-85.499 Q23.646,-88.152 25.09,-89.085 Q26.533,-90.017 28.44,-88.439 L59.442,-59.469 Q62.711,-56.458 62.711,-51.725 z" fill="#2C5E7C"/>
        <path d="M-15.921,-95.687 L-15.921,-130.464 Q-15.921,-131.18 -15.031,-131.644 Q-14.141,-132.109 -12.818,-132.109 L-1.427,-132.109 Q-0.105,-132.109 0.785,-131.644 Q1.675,-131.18 1.675,-130.464 L1.675,-95.687 Q1.675,-94.997 0.785,-94.533 Q-0.105,-94.069 -1.427,-94.069 L-12.818,-94.069 Q-14.141,-94.069 -15.031,-94.533 Q-15.921,-94.997 -15.921,-95.687 z" fill="#2C5E7C"/>
        <path d="M-15.921,-13.161 L-15.921,-86.683 Q-15.921,-87.88 -14.967,-88.655 Q-14.014,-89.431 -12.543,-89.431 L15.244,-89.431 Q16.661,-89.431 17.614,-88.655 Q18.568,-87.88 18.568,-86.683 L18.568,-74.295 Q18.568,-73.099 17.614,-72.323 Q16.661,-71.548 15.244,-71.548 L1.841,-71.548 L1.841,-28.785 L15.244,-28.785 Q16.661,-28.785 17.614,-28.009 Q18.568,-27.234 18.568,-26.081 L18.568,-13.161 Q18.568,-12.009 17.614,-11.233 Q16.661,-10.458 15.244,-10.458 L-12.543,-10.458 Q-14.014,-10.458 -14.967,-11.233 Q-15.921,-12.009 -15.921,-13.161 z" fill="#2C5E7C"/>
      </g>
      <path d="M-115.761,-14.839 L-115.761,-84.933 Q-115.761,-86.927 -114.807,-88.183 Q-113.854,-89.438 -112.437,-89.438 L-100.233,-89.438 Q-98.762,-89.438 -97.836,-88.146 Q-96.909,-86.853 -96.909,-84.933 L-96.909,-14.839 Q-96.909,-12.845 -97.863,-11.589 Q-98.816,-10.333 -100.233,-10.333 L-112.437,-10.333 Q-113.908,-10.333 -114.835,-11.589 Q-115.761,-12.845 -115.761,-14.839 z" fill="#3B3B3B"/>
      <path d="M-89.537,-89.429 L-79.076,-89.429 Q-76.733,-89.429 -74.663,-87.664 Q-72.593,-85.899 -71.721,-83.088 L-56.847,-38.198 L-42.027,-83.088 Q-41.155,-85.899 -39.085,-87.664 Q-37.015,-89.429 -34.672,-89.429 L-24.157,-89.429 Q-22.25,-89.429 -21.65,-87.556 Q-21.378,-86.835 -21.405,-85.718 Q-21.432,-84.602 -21.923,-83.088 L-45.46,-16.797 Q-46.44,-13.987 -48.538,-12.222 Q-50.636,-10.456 -52.869,-10.456 L-60.879,-10.456 Q-63.112,-10.456 -65.183,-12.222 Q-67.253,-13.987 -68.234,-16.797 L-91.771,-83.088 Q-92.316,-84.674 -92.316,-85.755 Q-92.316,-89.429 -89.537,-89.429 z" fill="#3B3B3B"/>
      <g>
        <path d="M222.269,-48.167 L222.269,-51.68 Q222.269,-56.413 225.538,-59.496 L256.539,-88.395 Q258.446,-90.044 259.89,-89.076 Q261.333,-88.108 261.333,-85.455 L261.333,-73.121 Q261.333,-67.815 256.539,-63.44 L242.046,-49.959 L256.539,-36.407 Q261.333,-32.033 261.333,-26.726 L261.333,-14.392 Q261.333,-11.739 259.89,-10.807 Q258.446,-9.875 256.539,-11.452 L225.538,-40.422 Q222.269,-43.434 222.269,-48.167 z" fill="#2C5E7C"/>
        <path d="M220.269,-51.605 L220.269,-48.091 Q220.269,-43.359 217,-40.275 L185.998,-11.377 Q184.091,-9.728 182.648,-10.696 Q181.204,-11.664 181.204,-14.317 L181.204,-26.651 Q181.204,-31.957 185.998,-36.331 L200.491,-49.812 L185.998,-63.365 Q181.204,-67.739 181.204,-73.045 L181.204,-85.379 Q181.204,-88.032 182.648,-88.965 Q184.091,-89.897 185.998,-88.319 L217,-59.349 Q220.269,-56.338 220.269,-51.605 z" fill="#2C5E7C"/>
      </g>
    </g>
    <path d="M-134.144,374.539 C-161.343,366.727 -175.094,376.418 -185.614,386.937 C-196.133,397.457 -209.272,414.165 -222.006,420.897 C-294.139,459.034 -302.029,474.617 -302.029,474.617 L-194.53,474.617 L-92.566,474.617 L-59.555,474.617 L17.333,474.617 C17.333,474.617 -97.11,385.176 -134.144,374.539 z" fill="#CCCCCC"/>
    <g clip-path="url(#Clip_1)">
      <path d="M-349.309,448.292 L-357.45,474.617 L-346.149,474.617 L-337.1,448.401 L-334.515,428.006 L-325.891,428.006 L-318.137,449.149 L-322.878,474.617 L-311.899,474.617 L-306.503,445.762 L-311.899,430.553 L-313.852,423.684 L-284.154,440.5 L-289.738,450.18 L-276.791,457.639 L-263.108,433.871 L-276.041,426.416 L-281.422,435.746 L-315.995,416.156 L-317.87,409.609 L-314.469,395.871 L-313.009,408.434 L-310.668,414.525 L-301.399,419.947 C-301.399,419.947 -305.142,405.859 -305.245,406.291 C-305.349,406.724 -306.686,381.421 -308.217,380.072 C-309.749,378.724 -317.818,379.671 -317.818,379.671 L-319.505,375.023 C-313.064,373.714 -308.231,368.168 -307.868,361.449 L-336.764,357.617 C-336.976,358.608 -337.1,359.626 -337.1,360.671 C-337.1,365.744 -334.515,370.217 -330.604,372.843 L-330.858,372.816 L-336.644,377.676 C-336.644,377.676 -341.147,375.995 -344.048,377.059 C-346.949,378.124 -360.483,390.638 -360.316,391.281 C-360.549,393.324 -360.316,412.917 -360.316,412.917 L-347.393,416.119 z M-352.096,405.057 L-352.096,398.589 L-346.605,393.584 L-346.605,406.291 z M-352.096,405.057" fill="#CFCFCF"/>
    </g>
    <path d="M-308.001,358.662 L-303.61,359.238 C-303.02,346.196 -308.697,337.654 -318.956,336.289 C-319.799,336.18 -320.643,336.128 -321.458,336.128 C-330.549,336.128 -337.164,342.782 -339.763,354.446 L-335.934,354.954 z M-308.001,358.662" fill="#CFCFCF"/>
    <g>
      <g>
        <path d="M286.426,159.205 L286.426,260.846 C286.426,268.098 280.546,273.978 273.294,273.978 L127.706,273.978 C120.454,273.978 114.574,268.098 114.574,260.846 L114.574,159.205" fill="#ABABAB"/>
        <path d="M286.426,159.205 L286.426,260.846 C286.426,268.098 280.546,273.978 273.294,273.978 L127.706,273.978 C120.454,273.978 114.574,268.098 114.574,260.846 L114.574,159.205" fill-opacity="0" stroke="#FFFFFF" stroke-width="4" stroke-linecap="round"/>
      </g>
    </g>
    <g>
      <g>
        <path d="M226.85,112.827 L281.746,145.583 C284.481,147.215 285.375,150.755 283.743,153.489 L260.875,191.815 C259.243,194.549 255.704,195.444 252.969,193.812 L198.073,161.056 C195.338,159.424 194.444,155.884 196.075,153.15 L218.944,114.824 C220.576,112.089 224.115,111.195 226.85,112.827 z" fill="#DDDDDD"/>
        <path d="M226.85,112.827 L281.746,145.583 C284.481,147.215 285.375,150.755 283.743,153.489 L260.875,191.815 C259.243,194.549 255.704,195.444 252.969,193.812 L198.073,161.056 C195.338,159.424 194.444,155.884 196.075,153.15 L218.944,114.824 C220.576,112.089 224.115,111.195 226.85,112.827 z" fill-opacity="0" stroke="#FFFFFF" stroke-width="4"/>
      </g>
      <path d="M231.883,146.5 C228.61,144.547 227.539,140.311 229.493,137.037 C231.446,133.764 235.682,132.694 238.955,134.647 C242.229,136.6 243.299,140.837 241.346,144.11 C239.393,147.383 235.156,148.453 231.883,146.5 z" fill="#FFFFFF"/>
      <path d="M250.271,184.843 L241.025,179.257 L212.201,162.058 L206.14,158.348 L227.026,149.495 L227.488,156.908 L247.717,147.57 z" fill="#FFFFFF"/>
    </g>
    <path d="M-303.568,474.617 C-303.568,474.617 -266.549,432.228 -212.664,442.916 C-184.437,448.514 -177.018,438.371 -151,435.741 C-124.982,433.111 -115.61,418.667 -83.61,424.676 C-52.33,430.551 17.333,474.617 17.333,474.617 L-303.568,474.617 z" fill="#D6D6D6"/>
    <g>
      <g>
        <path d="M286.426,228.229 L286.426,260.846 C286.426,268.098 280.546,273.978 273.294,273.978 L127.706,273.978 C120.454,273.978 114.574,268.098 114.574,260.846 L114.574,228.229" fill="#FFFFFF"/>
        <path d="M286.426,228.229 L286.426,260.846 C286.426,268.098 280.546,273.978 273.294,273.978 L127.706,273.978 C120.454,273.978 114.574,268.098 114.574,260.846 L114.574,228.229" fill-opacity="0" stroke="#FFFFFF" stroke-width="4" stroke-linecap="round"/>
      </g>
    </g>
    <g>
      <g>
        <path d="M172.594,258.114 L172.594,256.973 Q172.594,255.435 173.656,254.434 L183.727,245.046 Q184.346,244.51 184.815,244.825 Q185.284,245.139 185.284,246.001 L185.284,250.008 Q185.284,251.731 183.727,253.152 L179.019,257.532 L183.727,261.935 Q185.284,263.355 185.284,265.079 L185.284,269.086 Q185.284,269.948 184.815,270.251 Q184.346,270.554 183.727,270.041 L173.656,260.63 Q172.594,259.652 172.594,258.114 z" fill="#B5B5B5"/>
        <path d="M192.421,242.676 L192.421,231.378 Q192.421,231.146 192.71,230.995 Q193,230.844 193.429,230.844 L197.13,230.844 Q197.559,230.844 197.848,230.995 Q198.137,231.146 198.137,231.378 L198.137,242.676 Q198.137,242.9 197.848,243.051 Q197.559,243.202 197.13,243.202 L193.429,243.202 Q193,243.202 192.71,243.051 Q192.421,242.9 192.421,242.676 z" fill="#B5B5B5"/>
        <path d="M198.137,245.587 L198.137,269.471 Q198.137,269.859 197.828,270.111 Q197.518,270.363 197.04,270.363 L188.013,270.363 Q187.553,270.363 187.244,270.111 Q186.934,269.859 186.934,269.471 L186.934,265.446 Q186.934,265.058 187.244,264.806 Q187.553,264.554 188.013,264.554 L192.367,264.554 L192.367,250.662 L188.013,250.662 Q187.553,250.662 187.244,250.41 Q186.934,250.158 186.934,249.784 L186.934,245.587 Q186.934,245.212 187.244,244.96 Q187.553,244.708 188.013,244.708 L197.04,244.708 Q197.518,244.708 197.828,244.96 Q198.137,245.212 198.137,245.587 z" fill="#B5B5B5"/>
      </g>
      <g>
        <path d="M214.716,258.074 L214.716,256.933 Q214.716,255.395 215.778,254.394 L225.849,245.006 Q226.468,244.47 226.937,244.785 Q227.406,245.099 227.406,245.961 L227.406,249.968 Q227.406,251.691 225.849,253.112 L221.141,257.492 L225.849,261.895 Q227.406,263.315 227.406,265.039 L227.406,269.046 Q227.406,269.908 226.937,270.211 Q226.468,270.514 225.849,270.001 L215.778,260.59 Q214.716,259.612 214.716,258.074 z" fill="#B5B5B5"/>
        <path d="M214.066,256.957 L214.066,258.099 Q214.066,259.636 213.004,260.638 L202.933,270.026 Q202.314,270.561 201.845,270.247 Q201.376,269.932 201.376,269.07 L201.376,265.064 Q201.376,263.34 202.933,261.919 L207.641,257.54 L202.933,253.137 Q201.376,251.716 201.376,249.992 L201.376,245.986 Q201.376,245.124 201.845,244.821 Q202.314,244.518 202.933,245.03 L213.004,254.441 Q214.066,255.42 214.066,256.957 z" fill="#B5B5B5"/>
      </g>
    </g>
    <g>
      <g>
        <path d="M121.706,137.118 L195.977,118.358 C199.677,117.424 203.434,119.665 204.368,123.365 L217.465,175.217 C218.4,178.917 216.158,182.674 212.458,183.608 L138.188,202.368 C134.488,203.303 130.731,201.061 129.796,197.361 L116.699,145.51 C115.764,141.81 118.006,138.053 121.706,137.118 z" fill="#DDDDDD"/>
        <path d="M121.706,137.118 L195.977,118.358 C199.677,117.424 203.434,119.665 204.368,123.365 L217.465,175.217 C218.4,178.917 216.158,182.674 212.458,183.608 L138.188,202.368 C134.488,203.303 130.731,201.061 129.796,197.361 L116.699,145.51 C115.764,141.81 118.006,138.053 121.706,137.118 z" fill-opacity="0" stroke="#FFFFFF" stroke-width="4"/>
      </g>
      <path d="M154.85,160.886 C150.422,162.005 145.925,159.322 144.807,154.894 C143.688,150.465 146.371,145.968 150.799,144.85 C155.228,143.731 159.725,146.414 160.843,150.843 C161.962,155.271 159.279,159.768 154.85,160.886 z" fill="#FFFFFF"/>
      <path d="M202.921,177.795 L190.352,180.896 L151.356,190.746 L143.077,192.738 L153.272,167.54 L159.945,173.428 L169.173,148.375 z" fill="#FFFFFF"/>
    </g>
  </g>
</svg>
