<?xml version="1.0" encoding="UTF-8"?>
<!DOCTYPE svg PUBLIC "-//W3C//DTD SVG 1.1//EN" "http://www.w3.org/Graphics/SVG/1.1/DTD/svg11.dtd">
<svg version="1.1" xmlns="http://www.w3.org/2000/svg" xmlns:xlink="http://www.w3.org/1999/xlink" x="0" y="0" width="400" height="300" viewBox="0, 0, 400, 300">
  <defs>
    <clipPath id="Clip_1">
      <path d="M701.89,164.128 L859.361,164.128 L859.361,304.667 L701.89,304.667 z"/>
    </clipPath>
  </defs>
  <g id="Layer_1">
    <g>
      <path d="M71.149,-15.631 L71.149,-126.849 Q71.149,-129.14 72.039,-130.624 Q72.929,-132.109 74.252,-132.109 L85.643,-132.109 Q86.966,-132.109 87.855,-130.624 Q88.745,-129.14 88.745,-126.849 L88.745,-15.631 Q88.745,-13.426 87.855,-11.941 Q86.966,-10.456 85.643,-10.456 L74.252,-10.456 Q72.929,-10.456 72.039,-11.941 Q71.149,-13.426 71.149,-15.631 z" fill="#2C5E7C"/>
      <g>
        <path d="M99.056,-13.045 L99.056,-86.682 Q99.056,-87.88 100.011,-88.657 Q100.966,-89.434 102.44,-89.434 L130.27,-89.434 Q131.688,-89.434 132.643,-88.657 Q133.598,-87.88 133.598,-86.682 L133.598,-73.786 Q133.598,-72.587 132.643,-71.811 Q131.688,-71.034 130.27,-71.034 L116.846,-71.034 L116.846,-28.274 L130.27,-28.274 Q131.688,-28.274 132.643,-27.497 Q133.598,-26.721 133.598,-25.567 L133.598,-13.045 Q133.598,-11.891 132.643,-11.114 Q131.688,-10.338 130.27,-10.338 L102.44,-10.338 Q100.966,-10.338 100.011,-11.114 Q99.056,-11.891 99.056,-13.045 z" fill="#2C5E7C"/>
        <path d="M172.633,-86.726 L172.633,-13.09 Q172.633,-11.891 171.678,-11.114 Q170.723,-10.338 169.25,-10.338 L141.42,-10.338 Q140.001,-10.338 139.046,-11.114 Q138.091,-11.891 138.091,-13.09 L138.091,-25.497 Q138.091,-26.695 139.046,-27.472 Q140.001,-28.249 141.42,-28.249 L154.844,-28.249 L154.844,-71.078 L141.42,-71.078 Q140.001,-71.078 139.046,-71.855 Q138.091,-72.632 138.091,-73.786 L138.091,-86.726 Q138.091,-87.88 139.046,-88.657 Q140.001,-89.434 141.42,-89.434 L169.25,-89.434 Q170.723,-89.434 171.678,-88.657 Q172.633,-87.88 172.633,-86.726 z" fill="#2C5E7C"/>
      </g>
      <path d="M-199.734,-48.164 L-199.734,-51.677 Q-199.734,-56.41 -196.465,-59.493 L-165.464,-88.392 Q-163.557,-90.041 -162.113,-89.073 Q-160.67,-88.105 -160.67,-85.452 L-160.67,-73.118 Q-160.67,-67.812 -165.464,-63.437 L-179.957,-49.956 L-165.464,-36.404 Q-160.67,-32.03 -160.67,-26.723 L-160.67,-14.389 Q-160.67,-11.736 -162.113,-10.804 Q-163.557,-9.872 -165.464,-11.449 L-196.465,-40.419 Q-199.734,-43.431 -199.734,-48.164 z" fill="#3B3B3B"/>
      <path d="M-138.699,-95.687 L-138.699,-130.464 Q-138.699,-131.18 -137.809,-131.644 Q-136.919,-132.109 -135.597,-132.109 L-124.205,-132.109 Q-122.883,-132.109 -121.993,-131.644 Q-121.103,-131.18 -121.103,-130.464 L-121.103,-95.687 Q-121.103,-94.997 -121.993,-94.533 Q-122.883,-94.069 -124.205,-94.069 L-135.597,-94.069 Q-136.919,-94.069 -137.809,-94.533 Q-138.699,-94.997 -138.699,-95.687 z" fill="#3B3B3B"/>
      <path d="M-115.133,-95.687 L-115.133,-107.011 Q-115.133,-107.727 -114.243,-108.192 Q-113.353,-108.656 -112.031,-108.656 L-100.639,-108.656 Q-99.317,-108.656 -98.427,-108.192 Q-97.537,-107.727 -97.537,-107.011 L-97.537,-95.687 Q-97.537,-94.997 -98.427,-94.533 Q-99.317,-94.069 -100.639,-94.069 L-112.031,-94.069 Q-113.353,-94.069 -114.243,-94.533 Q-115.133,-94.997 -115.133,-95.687 z" fill="#3B3B3B"/>
      <path d="M-121.103,-86.728 L-121.103,-13.206 Q-121.103,-12.009 -122.057,-11.233 Q-123.01,-10.458 -124.481,-10.458 L-152.268,-10.458 Q-153.684,-10.458 -154.638,-11.233 Q-155.591,-12.009 -155.591,-13.206 L-155.591,-25.593 Q-155.591,-26.79 -154.638,-27.565 Q-153.684,-28.341 -152.268,-28.341 L-138.865,-28.341 L-138.865,-71.104 L-152.268,-71.104 Q-153.684,-71.104 -154.638,-71.879 Q-155.591,-72.655 -155.591,-73.807 L-155.591,-86.728 Q-155.591,-87.88 -154.638,-88.655 Q-153.684,-89.431 -152.268,-89.431 L-124.481,-89.431 Q-123.01,-89.431 -122.057,-88.655 Q-121.103,-87.88 -121.103,-86.728 z" fill="#3B3B3B"/>
      <g>
        <path d="M62.711,-51.725 L62.711,-48.211 Q62.711,-43.479 59.442,-40.395 L28.44,-11.497 Q26.533,-9.848 25.09,-10.816 Q23.646,-11.784 23.646,-14.437 L23.646,-26.771 Q23.646,-32.077 28.44,-36.451 L42.933,-49.932 L28.44,-63.485 Q23.646,-67.859 23.646,-73.166 L23.646,-85.499 Q23.646,-88.152 25.09,-89.085 Q26.533,-90.017 28.44,-88.439 L59.442,-59.469 Q62.711,-56.458 62.711,-51.725 z" fill="#2C5E7C"/>
        <path d="M-15.921,-95.687 L-15.921,-130.464 Q-15.921,-131.18 -15.031,-131.644 Q-14.141,-132.109 -12.818,-132.109 L-1.427,-132.109 Q-0.105,-132.109 0.785,-131.644 Q1.675,-131.18 1.675,-130.464 L1.675,-95.687 Q1.675,-94.997 0.785,-94.533 Q-0.105,-94.069 -1.427,-94.069 L-12.818,-94.069 Q-14.141,-94.069 -15.031,-94.533 Q-15.921,-94.997 -15.921,-95.687 z" fill="#2C5E7C"/>
        <path d="M-15.921,-13.161 L-15.921,-86.683 Q-15.921,-87.88 -14.967,-88.655 Q-14.014,-89.431 -12.543,-89.431 L15.244,-89.431 Q16.661,-89.431 17.614,-88.655 Q18.568,-87.88 18.568,-86.683 L18.568,-74.295 Q18.568,-73.099 17.614,-72.323 Q16.661,-71.548 15.244,-71.548 L1.841,-71.548 L1.841,-28.785 L15.244,-28.785 Q16.661,-28.785 17.614,-28.009 Q18.568,-27.234 18.568,-26.081 L18.568,-13.161 Q18.568,-12.009 17.614,-11.233 Q16.661,-10.458 15.244,-10.458 L-12.543,-10.458 Q-14.014,-10.458 -14.967,-11.233 Q-15.921,-12.009 -15.921,-13.161 z" fill="#2C5E7C"/>
      </g>
      <path d="M-115.761,-14.839 L-115.761,-84.933 Q-115.761,-86.927 -114.807,-88.183 Q-113.854,-89.438 -112.437,-89.438 L-100.233,-89.438 Q-98.762,-89.438 -97.836,-88.146 Q-96.909,-86.853 -96.909,-84.933 L-96.909,-14.839 Q-96.909,-12.845 -97.863,-11.589 Q-98.816,-10.333 -100.233,-10.333 L-112.437,-10.333 Q-113.908,-10.333 -114.835,-11.589 Q-115.761,-12.845 -115.761,-14.839 z" fill="#3B3B3B"/>
      <path d="M-89.537,-89.429 L-79.076,-89.429 Q-76.733,-89.429 -74.663,-87.664 Q-72.593,-85.899 -71.721,-83.088 L-56.847,-38.198 L-42.027,-83.088 Q-41.155,-85.899 -39.085,-87.664 Q-37.015,-89.429 -34.672,-89.429 L-24.157,-89.429 Q-22.25,-89.429 -21.65,-87.556 Q-21.378,-86.835 -21.405,-85.718 Q-21.432,-84.602 -21.923,-83.088 L-45.46,-16.797 Q-46.44,-13.987 -48.538,-12.222 Q-50.636,-10.456 -52.869,-10.456 L-60.879,-10.456 Q-63.112,-10.456 -65.183,-12.222 Q-67.253,-13.987 -68.234,-16.797 L-91.771,-83.088 Q-92.316,-84.674 -92.316,-85.755 Q-92.316,-89.429 -89.537,-89.429 z" fill="#3B3B3B"/>
      <g>
        <path d="M222.269,-48.167 L222.269,-51.68 Q222.269,-56.413 225.538,-59.496 L256.539,-88.395 Q258.446,-90.044 259.89,-89.076 Q261.333,-88.108 261.333,-85.455 L261.333,-73.121 Q261.333,-67.815 256.539,-63.44 L242.046,-49.959 L256.539,-36.407 Q261.333,-32.033 261.333,-26.726 L261.333,-14.392 Q261.333,-11.739 259.89,-10.807 Q258.446,-9.875 256.539,-11.452 L225.538,-40.422 Q222.269,-43.434 222.269,-48.167 z" fill="#2C5E7C"/>
        <path d="M220.269,-51.605 L220.269,-48.091 Q220.269,-43.359 217,-40.275 L185.998,-11.377 Q184.091,-9.728 182.648,-10.696 Q181.204,-11.664 181.204,-14.317 L181.204,-26.651 Q181.204,-31.957 185.998,-36.331 L200.491,-49.812 L185.998,-63.365 Q181.204,-67.739 181.204,-73.045 L181.204,-85.379 Q181.204,-88.032 182.648,-88.965 Q184.091,-89.897 185.998,-88.319 L217,-59.349 Q220.269,-56.338 220.269,-51.605 z" fill="#2C5E7C"/>
      </g>
    </g>
    <g>
      <path d="M927.856,202.539 C900.657,194.727 886.906,204.418 876.386,214.937 C865.867,225.457 852.728,242.165 839.994,248.897 C767.861,287.034 759.971,302.617 759.971,302.617 L867.47,302.617 L969.434,302.617 L1002.445,302.617 L1079.333,302.617 C1079.333,302.617 964.889,213.176 927.856,202.539 z" fill="#CCCCCC"/>
      <g clip-path="url(#Clip_1)">
        <path d="M712.691,276.292 L704.55,302.617 L715.851,302.617 L724.9,276.401 L727.485,256.006 L736.109,256.006 L743.863,277.149 L739.122,302.617 L750.101,302.617 L755.497,273.762 L750.101,258.553 L748.148,251.684 L777.846,268.5 L772.262,278.18 L785.209,285.639 L798.892,261.871 L785.959,254.416 L780.578,263.746 L746.005,244.156 L744.13,237.609 L747.531,223.871 L748.991,236.434 L751.332,242.525 L760.601,247.947 C760.601,247.947 756.858,233.859 756.755,234.291 C756.651,234.724 755.314,209.421 753.783,208.072 C752.251,206.724 744.182,207.671 744.182,207.671 L742.495,203.023 C748.936,201.714 753.769,196.168 754.132,189.449 L725.236,185.617 C725.024,186.608 724.9,187.626 724.9,188.671 C724.9,193.744 727.485,198.217 731.396,200.843 L731.142,200.816 L725.356,205.676 C725.356,205.676 720.853,203.995 717.952,205.059 C715.051,206.124 701.517,218.638 701.684,219.281 C701.451,221.324 701.684,240.917 701.684,240.917 L714.607,244.119 z M709.904,233.057 L709.904,226.589 L715.395,221.584 L715.395,234.291 z M709.904,233.057" fill="#CFCFCF"/>
      </g>
      <path d="M753.999,186.662 L758.39,187.238 C758.98,174.196 753.303,165.654 743.044,164.289 C742.201,164.18 741.357,164.128 740.542,164.128 C731.451,164.128 724.836,170.782 722.237,182.446 L726.066,182.954 z M753.999,186.662" fill="#CFCFCF"/>
      <path d="M758.432,302.617 C758.432,302.617 795.451,260.228 849.336,270.916 C877.563,276.514 884.982,266.371 911,263.741 C937.018,261.111 946.389,246.667 978.389,252.676 C1009.67,258.551 1079.333,302.617 1079.333,302.617 L758.432,302.617 z" fill="#D6D6D6"/>
    </g>
    <g>
      <g>
        <g>
          <path d="M532.701,0.532 L588.165,6.804 C590.928,7.116 592.914,9.61 592.602,12.373 L588.223,51.094 C587.911,53.857 585.418,55.844 582.655,55.531 L527.191,49.26 C524.428,48.947 522.441,46.454 522.754,43.691 L527.132,4.97 C527.445,2.207 529.938,0.22 532.701,0.532 z" fill="#DDDDDD"/>
          <path d="M532.701,0.532 L588.165,6.804 C590.928,7.116 592.914,9.61 592.602,12.373 L588.223,51.094 C587.911,53.857 585.418,55.844 582.655,55.531 L527.191,49.26 C524.428,48.947 522.441,46.454 522.754,43.691 L527.132,4.97 C527.445,2.207 529.938,0.22 532.701,0.532 z" fill-opacity="0" stroke="#FFFFFF" stroke-width="4"/>
        </g>
        <path d="M548.915,25.218 C545.608,24.844 543.23,21.86 543.604,18.553 C543.978,15.246 546.962,12.868 550.269,13.242 C553.576,13.616 555.954,16.6 555.58,19.907 C555.206,23.214 552.222,25.592 548.915,25.218 z" fill="#FFFFFF"/>
        <path d="M577.356,49.088 L567.988,47.976 L538.867,44.683 L532.71,43.916 L546.131,29.35 L549.17,35.079 L561.894,20.363 z" fill="#FFFFFF"/>
      </g>
      <g>
        <g>
          <path d="M477.645,45.945 L536.374,30.341 C539.299,29.563 542.301,31.305 543.078,34.23 L553.973,75.231 C554.75,78.157 553.009,81.158 550.083,81.936 L491.355,97.541 C488.429,98.318 485.427,96.576 484.65,93.651 L473.755,52.65 C472.978,49.725 474.72,46.723 477.645,45.945 z" fill="#DDDDDD"/>
          <path d="M477.645,45.945 L536.374,30.341 C539.299,29.563 542.301,31.305 543.078,34.23 L553.973,75.231 C554.75,78.157 553.009,81.158 550.083,81.936 L491.355,97.541 C488.429,98.318 485.427,96.576 484.65,93.651 L473.755,52.65 C472.978,49.725 474.72,46.723 477.645,45.945 z" fill-opacity="0" stroke="#FFFFFF" stroke-width="4"/>
        </g>
        <path d="M504.068,64.367 C500.567,65.297 496.974,63.213 496.043,59.711 C495.113,56.209 497.197,52.616 500.699,51.686 C504.201,50.755 507.794,52.84 508.724,56.342 C509.654,59.843 507.57,63.436 504.068,64.367 z" fill="#FFFFFF"/>
        <path d="M542.363,77.309 L532.423,79.892 L501.588,88.085 L495.04,89.746 L502.882,69.659 L508.232,74.265 L515.308,54.303 z" fill="#FFFFFF"/>
      </g>
      <g>
        <g>
          <path d="M553.371,60.477 L613.246,45.353 C616.229,44.599 619.258,46.407 620.011,49.39 L630.57,91.191 C631.323,94.174 629.516,97.202 626.533,97.956 L566.658,113.08 C563.675,113.833 560.646,112.026 559.893,109.043 L549.334,67.242 C548.581,64.259 550.388,61.23 553.371,60.477 z" fill="#DDDDDD"/>
          <path d="M553.371,60.477 L613.246,45.353 C616.229,44.599 619.258,46.407 620.011,49.39 L630.57,91.191 C631.323,94.174 629.516,97.202 626.533,97.956 L566.658,113.08 C563.675,113.833 560.646,112.026 559.893,109.043 L549.334,67.242 C548.581,64.259 550.388,61.23 553.371,60.477 z" fill-opacity="0" stroke="#FFFFFF" stroke-width="4"/>
        </g>
        <path d="M579.994,79.541 C576.424,80.443 572.799,78.28 571.897,74.71 C570.995,71.14 573.158,67.515 576.728,66.613 C580.298,65.711 583.924,67.874 584.825,71.444 C585.727,75.014 583.564,78.639 579.994,79.541 z" fill="#FFFFFF"/>
        <path d="M618.747,93.172 L608.615,95.672 L577.177,103.613 L570.503,105.219 L578.722,84.905 L584.101,89.652 L591.541,69.455 z" fill="#FFFFFF"/>
      </g>
      <g>
        <g>
          <path d="M476.162,63.21 L532.921,79.296 C535.748,80.098 537.391,83.039 536.589,85.867 L525.359,125.492 C524.557,128.32 521.615,129.962 518.788,129.161 L462.029,113.074 C459.202,112.273 457.559,109.331 458.361,106.504 L469.591,66.878 C470.393,64.051 473.335,62.408 476.162,63.21 z" fill="#DDDDDD"/>
          <path d="M476.162,63.21 L532.921,79.296 C535.748,80.098 537.391,83.039 536.589,85.867 L525.359,125.492 C524.557,128.32 521.615,129.962 518.788,129.161 L462.029,113.074 C459.202,112.273 457.559,109.331 458.361,106.504 L469.591,66.878 C470.393,64.051 473.335,62.408 476.162,63.21 z" fill-opacity="0" stroke="#FFFFFF" stroke-width="4"/>
        </g>
        <path d="M488.756,91.85 C485.372,90.891 483.406,87.37 484.365,83.986 C485.325,80.602 488.846,78.636 492.23,79.595 C495.614,80.554 497.58,84.075 496.621,87.459 C495.662,90.843 492.141,92.809 488.756,91.85 z" fill="#FFFFFF"/>
        <path d="M514.306,121.637 L504.729,118.866 L474.928,110.419 L468.639,108.56 L485.142,95.68 L487.325,102.177 L503.127,89.021 z" fill="#FFFFFF"/>
      </g>
      <g>
        <g>
          <path d="M634.842,146.985 L634.842,248.625 C634.842,255.878 628.963,261.757 621.71,261.757 L476.123,261.757 C468.871,261.757 462.991,255.878 462.991,248.625 L462.991,146.985" fill="#ABABAB"/>
          <path d="M634.842,146.985 L634.842,248.625 C634.842,255.878 628.963,261.757 621.71,261.757 L476.123,261.757 C468.871,261.757 462.991,255.878 462.991,248.625 L462.991,146.985" fill-opacity="0" stroke="#FFFFFF" stroke-width="4" stroke-linecap="round"/>
        </g>
      </g>
      <g>
        <g>
          <path d="M575.267,100.607 L630.163,133.363 C632.898,134.994 633.792,138.534 632.16,141.269 L609.292,179.594 C607.66,182.329 604.12,183.223 601.386,181.591 L546.489,148.835 C543.755,147.204 542.861,143.664 544.492,140.929 L567.361,102.604 C568.992,99.869 572.532,98.975 575.267,100.607 z" fill="#DDDDDD"/>
          <path d="M575.267,100.607 L630.163,133.363 C632.898,134.994 633.792,138.534 632.16,141.269 L609.292,179.594 C607.66,182.329 604.12,183.223 601.386,181.591 L546.489,148.835 C543.755,147.204 542.861,143.664 544.492,140.929 L567.361,102.604 C568.992,99.869 572.532,98.975 575.267,100.607 z" fill-opacity="0" stroke="#FFFFFF" stroke-width="4"/>
        </g>
        <path d="M580.3,134.28 C577.027,132.327 575.956,128.09 577.909,124.817 C579.862,121.544 584.099,120.474 587.372,122.427 C590.646,124.38 591.716,128.616 589.763,131.89 C587.81,135.163 583.573,136.233 580.3,134.28 z" fill="#FFFFFF"/>
        <path d="M598.688,172.623 L589.441,167.036 L560.618,149.837 L554.557,146.128 L575.442,137.275 L575.905,144.687 L596.134,135.349 z" fill="#FFFFFF"/>
      </g>
      <g>
        <g>
          <path d="M634.842,216.009 L634.842,248.625 C634.842,255.878 628.963,261.757 621.71,261.757 L476.123,261.757 C468.871,261.757 462.991,255.878 462.991,248.625 L462.991,216.009" fill="#FFFFFF"/>
          <path d="M634.842,216.009 L634.842,248.625 C634.842,255.878 628.963,261.757 621.71,261.757 L476.123,261.757 C468.871,261.757 462.991,255.878 462.991,248.625 L462.991,216.009" fill-opacity="0" stroke="#FFFFFF" stroke-width="4" stroke-linecap="round"/>
        </g>
      </g>
      <g>
        <g>
          <path d="M521.011,245.894 L521.011,244.752 Q521.011,243.215 522.073,242.213 L532.143,232.825 Q532.763,232.29 533.232,232.604 Q533.701,232.919 533.701,233.78 L533.701,237.787 Q533.701,239.511 532.143,240.932 L527.435,245.311 L532.143,249.714 Q533.701,251.135 533.701,252.859 L533.701,256.865 Q533.701,257.727 533.232,258.03 Q532.763,258.333 532.143,257.82 L522.073,248.409 Q521.011,247.431 521.011,245.894 z" fill="#B5B5B5"/>
          <path d="M540.838,230.455 L540.838,219.158 Q540.838,218.925 541.127,218.774 Q541.416,218.624 541.846,218.624 L545.547,218.624 Q545.976,218.624 546.265,218.774 Q546.554,218.925 546.554,219.158 L546.554,230.455 Q546.554,230.68 546.265,230.83 Q545.976,230.981 545.547,230.981 L541.846,230.981 Q541.416,230.981 541.127,230.83 Q540.838,230.68 540.838,230.455 z" fill="#B5B5B5"/>
          <path d="M546.554,233.366 L546.554,257.25 Q546.554,257.639 546.245,257.891 Q545.935,258.143 545.457,258.143 L536.43,258.143 Q535.97,258.143 535.66,257.891 Q535.351,257.639 535.351,257.25 L535.351,253.226 Q535.351,252.837 535.66,252.585 Q535.97,252.333 536.43,252.333 L540.784,252.333 L540.784,238.441 L536.43,238.441 Q535.97,238.441 535.66,238.189 Q535.351,237.938 535.351,237.563 L535.351,233.366 Q535.351,232.992 535.66,232.74 Q535.97,232.488 536.43,232.488 L545.457,232.488 Q545.935,232.488 546.245,232.74 Q546.554,232.992 546.554,233.366 z" fill="#B5B5B5"/>
        </g>
        <g>
          <path d="M563.133,245.854 L563.133,244.712 Q563.133,243.175 564.195,242.173 L574.266,232.785 Q574.885,232.25 575.354,232.564 Q575.823,232.879 575.823,233.74 L575.823,237.747 Q575.823,239.471 574.266,240.892 L569.558,245.271 L574.266,249.674 Q575.823,251.095 575.823,252.819 L575.823,256.825 Q575.823,257.687 575.354,257.99 Q574.885,258.293 574.266,257.78 L564.195,248.369 Q563.133,247.391 563.133,245.854 z" fill="#B5B5B5"/>
          <path d="M562.483,244.737 L562.483,245.878 Q562.483,247.416 561.421,248.417 L551.35,257.805 Q550.731,258.341 550.262,258.026 Q549.793,257.712 549.793,256.85 L549.793,252.843 Q549.793,251.119 551.35,249.698 L556.058,245.319 L551.35,240.916 Q549.793,239.495 549.793,237.772 L549.793,233.765 Q549.793,232.903 550.262,232.6 Q550.731,232.297 551.35,232.81 L561.421,242.221 Q562.483,243.199 562.483,244.737 z" fill="#B5B5B5"/>
        </g>
      </g>
      <g>
        <g>
          <path d="M470.123,124.898 L544.393,106.138 C548.093,105.203 551.85,107.445 552.785,111.145 L565.882,162.996 C566.817,166.696 564.575,170.453 560.875,171.388 L486.604,190.148 C482.905,191.082 479.148,188.841 478.213,185.141 L465.116,133.289 C464.181,129.59 466.423,125.833 470.123,124.898 z" fill="#DDDDDD"/>
          <path d="M470.123,124.898 L544.393,106.138 C548.093,105.203 551.85,107.445 552.785,111.145 L565.882,162.996 C566.817,166.696 564.575,170.453 560.875,171.388 L486.604,190.148 C482.905,191.082 479.148,188.841 478.213,185.141 L465.116,133.289 C464.181,129.59 466.423,125.833 470.123,124.898 z" fill-opacity="0" stroke="#FFFFFF" stroke-width="4"/>
        </g>
        <path d="M503.267,148.666 C498.839,149.785 494.342,147.101 493.223,142.673 C492.105,138.245 494.788,133.748 499.216,132.629 C503.645,131.511 508.141,134.194 509.26,138.622 C510.378,143.051 507.695,147.547 503.267,148.666 z" fill="#FFFFFF"/>
        <path d="M551.337,165.574 L538.768,168.675 L499.772,178.526 L491.493,180.517 L501.689,155.32 L508.362,161.208 L517.59,136.155 z" fill="#FFFFFF"/>
      </g>
    </g>
    <g>
      <g>
        <path d="M-184.299,75.532 L-128.835,81.804 C-126.072,82.116 -124.086,84.61 -124.398,87.373 L-128.777,126.094 C-129.089,128.857 -131.582,130.844 -134.345,130.531 L-189.809,124.26 C-192.572,123.947 -194.559,121.454 -194.246,118.691 L-189.868,79.97 C-189.555,77.207 -187.062,75.22 -184.299,75.532 z" fill="#DDDDDD"/>
        <path d="M-184.299,75.532 L-128.835,81.804 C-126.072,82.116 -124.086,84.61 -124.398,87.373 L-128.777,126.094 C-129.089,128.857 -131.582,130.844 -134.345,130.531 L-189.809,124.26 C-192.572,123.947 -194.559,121.454 -194.246,118.691 L-189.868,79.97 C-189.555,77.207 -187.062,75.22 -184.299,75.532 z" fill-opacity="0" stroke="#FFFFFF" stroke-width="4"/>
      </g>
      <path d="M-168.085,100.218 C-171.392,99.844 -173.77,96.86 -173.396,93.553 C-173.022,90.246 -170.038,87.868 -166.731,88.242 C-163.424,88.616 -161.046,91.6 -161.42,94.907 C-161.794,98.214 -164.778,100.592 -168.085,100.218 z" fill="#FFFFFF"/>
      <path d="M-139.644,124.088 L-149.012,122.976 L-178.133,119.683 L-184.29,118.916 L-170.869,104.35 L-167.83,110.079 L-155.106,95.363 z" fill="#FFFFFF"/>
    </g>
    <g>
      <g>
        <path d="M-239.355,120.945 L-180.626,105.341 C-177.701,104.563 -174.699,106.305 -173.922,109.23 L-163.027,150.231 C-162.25,153.157 -163.991,156.158 -166.917,156.936 L-225.645,172.541 C-228.571,173.318 -231.573,171.576 -232.35,168.651 L-243.245,127.65 C-244.022,124.725 -242.28,121.723 -239.355,120.945 z" fill="#DDDDDD"/>
        <path d="M-239.355,120.945 L-180.626,105.341 C-177.701,104.563 -174.699,106.305 -173.922,109.23 L-163.027,150.231 C-162.25,153.157 -163.991,156.158 -166.917,156.936 L-225.645,172.541 C-228.571,173.318 -231.573,171.576 -232.35,168.651 L-243.245,127.65 C-244.022,124.725 -242.28,121.723 -239.355,120.945 z" fill-opacity="0" stroke="#FFFFFF" stroke-width="4"/>
      </g>
      <path d="M-212.932,139.367 C-216.433,140.297 -220.026,138.213 -220.957,134.711 C-221.887,131.209 -219.803,127.616 -216.301,126.686 C-212.799,125.755 -209.206,127.84 -208.276,131.342 C-207.346,134.843 -209.43,138.436 -212.932,139.367 z" fill="#FFFFFF"/>
      <path d="M-174.637,152.309 L-184.577,154.892 L-215.412,163.085 L-221.96,164.746 L-214.118,144.659 L-208.768,149.265 L-201.692,129.303 z" fill="#FFFFFF"/>
    </g>
    <g>
      <g>
        <path d="M-163.629,135.477 L-103.754,120.353 C-100.771,119.599 -97.742,121.407 -96.989,124.39 L-86.43,166.191 C-85.677,169.174 -87.484,172.202 -90.467,172.956 L-150.342,188.08 C-153.325,188.833 -156.354,187.026 -157.107,184.043 L-167.666,142.242 C-168.419,139.259 -166.612,136.23 -163.629,135.477 z" fill="#DDDDDD"/>
        <path d="M-163.629,135.477 L-103.754,120.353 C-100.771,119.599 -97.742,121.407 -96.989,124.39 L-86.43,166.191 C-85.677,169.174 -87.484,172.202 -90.467,172.956 L-150.342,188.08 C-153.325,188.833 -156.354,187.026 -157.107,184.043 L-167.666,142.242 C-168.419,139.259 -166.612,136.23 -163.629,135.477 z" fill-opacity="0" stroke="#FFFFFF" stroke-width="4"/>
      </g>
      <path d="M-137.006,154.541 C-140.576,155.443 -144.201,153.28 -145.103,149.71 C-146.005,146.14 -143.842,142.515 -140.272,141.613 C-136.702,140.711 -133.076,142.874 -132.175,146.444 C-131.273,150.014 -133.436,153.639 -137.006,154.541 z" fill="#FFFFFF"/>
      <path d="M-98.253,168.172 L-108.386,170.672 L-139.823,178.613 L-146.497,180.219 L-138.278,159.905 L-132.899,164.652 L-125.459,144.455 z" fill="#FFFFFF"/>
    </g>
    <g>
      <g>
        <path d="M-240.838,138.21 L-184.079,154.296 C-181.252,155.098 -179.609,158.039 -180.411,160.867 L-191.641,200.492 C-192.443,203.32 -195.385,204.962 -198.212,204.161 L-254.971,188.074 C-257.798,187.273 -259.441,184.331 -258.639,181.504 L-247.409,141.878 C-246.607,139.051 -243.665,137.408 -240.838,138.21 z" fill="#DDDDDD"/>
        <path d="M-240.838,138.21 L-184.079,154.296 C-181.252,155.098 -179.609,158.039 -180.411,160.867 L-191.641,200.492 C-192.443,203.32 -195.385,204.962 -198.212,204.161 L-254.971,188.074 C-257.798,187.273 -259.441,184.331 -258.639,181.504 L-247.409,141.878 C-246.607,139.051 -243.665,137.408 -240.838,138.21 z" fill-opacity="0" stroke="#FFFFFF" stroke-width="4"/>
      </g>
      <path d="M-228.244,166.85 C-231.628,165.891 -233.594,162.37 -232.635,158.986 C-231.675,155.602 -228.154,153.636 -224.77,154.595 C-221.386,155.554 -219.42,159.075 -220.379,162.459 C-221.338,165.843 -224.859,167.809 -228.244,166.85 z" fill="#FFFFFF"/>
      <path d="M-202.694,196.637 L-212.271,193.866 L-242.072,185.419 L-248.361,183.56 L-231.858,170.68 L-229.675,177.177 L-213.873,164.021 z" fill="#FFFFFF"/>
    </g>
    <g>
      <g>
        <path d="M-82.158,221.985 L-82.158,323.625 C-82.158,330.878 -88.037,336.757 -95.29,336.757 L-240.877,336.757 C-248.129,336.757 -254.009,330.878 -254.009,323.625 L-254.009,221.985" fill="#ABABAB"/>
        <path d="M-82.158,221.985 L-82.158,323.625 C-82.158,330.878 -88.037,336.757 -95.29,336.757 L-240.877,336.757 C-248.129,336.757 -254.009,330.878 -254.009,323.625 L-254.009,221.985" fill-opacity="0" stroke="#FFFFFF" stroke-width="4" stroke-linecap="round"/>
      </g>
    </g>
    <g>
      <g>
        <path d="M-141.733,175.607 L-86.837,208.363 C-84.102,209.994 -83.208,213.534 -84.84,216.269 L-107.708,254.594 C-109.34,257.329 -112.88,258.223 -115.614,256.591 L-170.511,223.835 C-173.245,222.204 -174.139,218.664 -172.508,215.929 L-149.639,177.604 C-148.008,174.869 -144.468,173.975 -141.733,175.607 z" fill="#DDDDDD"/>
        <path d="M-141.733,175.607 L-86.837,208.363 C-84.102,209.994 -83.208,213.534 -84.84,216.269 L-107.708,254.594 C-109.34,257.329 -112.88,258.223 -115.614,256.591 L-170.511,223.835 C-173.245,222.204 -174.139,218.664 -172.508,215.929 L-149.639,177.604 C-148.008,174.869 -144.468,173.975 -141.733,175.607 z" fill-opacity="0" stroke="#FFFFFF" stroke-width="4"/>
      </g>
      <path d="M-136.7,209.28 C-139.973,207.327 -141.044,203.09 -139.091,199.817 C-137.138,196.544 -132.901,195.474 -129.628,197.427 C-126.354,199.38 -125.284,203.616 -127.237,206.89 C-129.19,210.163 -133.427,211.233 -136.7,209.28 z" fill="#FFFFFF"/>
      <path d="M-118.312,247.623 L-127.559,242.036 L-156.382,224.837 L-162.443,221.128 L-141.558,212.275 L-141.095,219.687 L-120.866,210.349 z" fill="#FFFFFF"/>
    </g>
    <g>
      <g>
        <path d="M-82.158,291.009 L-82.158,323.625 C-82.158,330.878 -88.037,336.757 -95.29,336.757 L-240.877,336.757 C-248.129,336.757 -254.009,330.878 -254.009,323.625 L-254.009,291.009" fill="#FFFFFF"/>
        <path d="M-82.158,291.009 L-82.158,323.625 C-82.158,330.878 -88.037,336.757 -95.29,336.757 L-240.877,336.757 C-248.129,336.757 -254.009,330.878 -254.009,323.625 L-254.009,291.009" fill-opacity="0" stroke="#FFFFFF" stroke-width="4" stroke-linecap="round"/>
      </g>
    </g>
    <g>
      <g>
        <path d="M-195.989,320.894 L-195.989,319.752 Q-195.989,318.215 -194.927,317.213 L-184.857,307.825 Q-184.237,307.29 -183.768,307.604 Q-183.299,307.918 -183.299,308.78 L-183.299,312.787 Q-183.299,314.511 -184.857,315.932 L-189.565,320.311 L-184.857,324.714 Q-183.299,326.135 -183.299,327.859 L-183.299,331.865 Q-183.299,332.727 -183.768,333.03 Q-184.237,333.333 -184.857,332.82 L-194.927,323.409 Q-195.989,322.431 -195.989,320.894 z" fill="#B5B5B5"/>
        <path d="M-176.162,305.455 L-176.162,294.158 Q-176.162,293.925 -175.873,293.774 Q-175.584,293.624 -175.154,293.624 L-171.453,293.624 Q-171.024,293.624 -170.735,293.774 Q-170.446,293.925 -170.446,294.158 L-170.446,305.455 Q-170.446,305.679 -170.735,305.83 Q-171.024,305.981 -171.453,305.981 L-175.154,305.981 Q-175.584,305.981 -175.873,305.83 Q-176.162,305.679 -176.162,305.455 z" fill="#B5B5B5"/>
        <path d="M-170.446,308.366 L-170.446,332.25 Q-170.446,332.639 -170.755,332.891 Q-171.065,333.143 -171.543,333.143 L-180.57,333.143 Q-181.03,333.143 -181.34,332.891 Q-181.649,332.639 -181.649,332.25 L-181.649,328.226 Q-181.649,327.837 -181.34,327.585 Q-181.03,327.333 -180.57,327.333 L-176.216,327.333 L-176.216,313.441 L-180.57,313.441 Q-181.03,313.441 -181.34,313.189 Q-181.649,312.937 -181.649,312.563 L-181.649,308.366 Q-181.649,307.992 -181.34,307.74 Q-181.03,307.488 -180.57,307.488 L-171.543,307.488 Q-171.065,307.488 -170.755,307.74 Q-170.446,307.992 -170.446,308.366 z" fill="#B5B5B5"/>
      </g>
      <g>
        <path d="M-153.867,320.854 L-153.867,319.712 Q-153.867,318.175 -152.805,317.173 L-142.734,307.785 Q-142.115,307.25 -141.646,307.564 Q-141.177,307.878 -141.177,308.74 L-141.177,312.747 Q-141.177,314.471 -142.734,315.892 L-147.442,320.271 L-142.734,324.674 Q-141.177,326.095 -141.177,327.819 L-141.177,331.825 Q-141.177,332.687 -141.646,332.99 Q-142.115,333.293 -142.734,332.78 L-152.805,323.369 Q-153.867,322.391 -153.867,320.854 z" fill="#B5B5B5"/>
        <path d="M-154.517,319.737 L-154.517,320.878 Q-154.517,322.416 -155.579,323.417 L-165.65,332.805 Q-166.269,333.341 -166.738,333.026 Q-167.207,332.712 -167.207,331.85 L-167.207,327.843 Q-167.207,326.119 -165.65,324.698 L-160.942,320.319 L-165.65,315.916 Q-167.207,314.495 -167.207,312.772 L-167.207,308.765 Q-167.207,307.903 -166.738,307.6 Q-166.269,307.297 -165.65,307.81 L-155.579,317.221 Q-154.517,318.199 -154.517,319.737 z" fill="#B5B5B5"/>
      </g>
    </g>
    <g>
      <g>
        <path d="M160.111,74.567 L160.111,72.906 Q160.111,70.668 161.656,69.21 L176.314,55.547 Q177.216,54.767 177.899,55.224 Q178.581,55.682 178.581,56.937 L178.581,62.768 Q178.581,65.277 176.314,67.345 L169.462,73.719 L176.314,80.127 Q178.581,82.196 178.581,84.705 L178.581,90.536 Q178.581,91.791 177.899,92.231 Q177.216,92.672 176.314,91.926 L161.656,78.229 Q160.111,76.805 160.111,74.567 z" fill="#B5B5B5"/>
        <path d="M188.969,52.097 L188.969,35.654 Q188.969,35.315 189.39,35.096 Q189.811,34.876 190.436,34.876 L195.822,34.876 Q196.448,34.876 196.868,35.096 Q197.289,35.315 197.289,35.654 L197.289,52.097 Q197.289,52.423 196.868,52.643 Q196.448,52.862 195.822,52.862 L190.436,52.862 Q189.811,52.862 189.39,52.643 Q188.969,52.423 188.969,52.097 z" fill="#B5B5B5"/>
        <path d="M197.289,56.333 L197.289,91.096 Q197.289,91.662 196.838,92.028 Q196.388,92.395 195.692,92.395 L182.554,92.395 Q181.884,92.395 181.433,92.028 Q180.982,91.662 180.982,91.096 L180.982,85.239 Q180.982,84.673 181.433,84.306 Q181.884,83.94 182.554,83.94 L188.891,83.94 L188.891,63.72 L182.554,63.72 Q181.884,63.72 181.433,63.354 Q180.982,62.987 180.982,62.442 L180.982,56.333 Q180.982,55.789 181.433,55.422 Q181.884,55.055 182.554,55.055 L195.692,55.055 Q196.388,55.055 196.838,55.422 Q197.289,55.789 197.289,56.333 z" fill="#B5B5B5"/>
      </g>
      <g>
        <path d="M221.419,74.509 L221.419,72.848 Q221.419,70.61 222.964,69.152 L237.622,55.488 Q238.524,54.708 239.207,55.166 Q239.889,55.624 239.889,56.878 L239.889,62.71 Q239.889,65.219 237.622,67.287 L230.77,73.661 L237.622,80.069 Q239.889,82.137 239.889,84.646 L239.889,90.478 Q239.889,91.732 239.207,92.173 Q238.524,92.614 237.622,91.868 L222.964,78.171 Q221.419,76.747 221.419,74.509 z" fill="#B5B5B5"/>
        <path d="M220.473,72.883 L220.473,74.545 Q220.473,76.782 218.927,78.24 L204.269,91.904 Q203.368,92.684 202.685,92.226 Q202.002,91.768 202.002,90.514 L202.002,84.682 Q202.002,82.173 204.269,80.105 L211.122,73.731 L204.269,67.323 Q202.002,65.255 202.002,62.746 L202.002,56.914 Q202.002,55.66 202.685,55.219 Q203.368,54.778 204.269,55.524 L218.927,69.221 Q220.473,70.645 220.473,72.883 z" fill="#B5B5B5"/>
      </g>
    </g>
    <g>
      <g>
        <path d="M-246.877,199.898 L-172.607,181.138 C-168.907,180.203 -165.15,182.445 -164.215,186.145 L-151.118,237.996 C-150.183,241.696 -152.425,245.453 -156.125,246.388 L-230.396,265.148 C-234.095,266.082 -237.852,263.841 -238.787,260.141 L-251.884,208.289 C-252.819,204.59 -250.577,200.833 -246.877,199.898 z" fill="#DDDDDD"/>
        <path d="M-246.877,199.898 L-172.607,181.138 C-168.907,180.203 -165.15,182.445 -164.215,186.145 L-151.118,237.996 C-150.183,241.696 -152.425,245.453 -156.125,246.388 L-230.396,265.148 C-234.095,266.082 -237.852,263.841 -238.787,260.141 L-251.884,208.289 C-252.819,204.59 -250.577,200.833 -246.877,199.898 z" fill-opacity="0" stroke="#FFFFFF" stroke-width="4"/>
      </g>
      <path d="M-213.733,223.666 C-218.161,224.785 -222.658,222.101 -223.777,217.673 C-224.895,213.245 -222.212,208.748 -217.784,207.629 C-213.355,206.511 -208.859,209.194 -207.74,213.622 C-206.622,218.051 -209.305,222.547 -213.733,223.666 z" fill="#FFFFFF"/>
      <path d="M-165.663,240.574 L-178.232,243.675 L-217.228,253.526 L-225.507,255.517 L-215.311,230.32 L-208.638,236.208 L-199.41,211.155 z" fill="#FFFFFF"/>
    </g>
    <path d="M64.513,161.959 L186.487,161.959 C190.636,161.959 194,165.323 194,169.472 L194,169.472 C194,173.622 190.636,176.985 186.487,176.985 L64.513,176.985 C60.364,176.985 57,173.622 57,169.472 L57,169.472 C57,165.323 60.364,161.959 64.513,161.959 z" fill="#FFFFFF"/>
    <path d="M64.513,187.367 L186.487,187.367 C190.636,187.367 194,190.731 194,194.88 L194,194.88 C194,199.03 190.636,202.394 186.487,202.394 L64.513,202.394 C60.364,202.394 57,199.03 57,194.88 L57,194.88 C57,190.731 60.364,187.367 64.513,187.367 z" fill="#FFFFFF"/>
    <path d="M213.513,187.367 L335.487,187.367 C339.636,187.367 343,190.731 343,194.88 L343,194.88 C343,199.03 339.636,202.394 335.487,202.394 L213.513,202.394 C209.364,202.394 206,199.03 206,194.88 L206,194.88 C206,190.731 209.364,187.367 213.513,187.367 z" fill="#FFFFFF"/>
    <path d="M64.513,214.503 L186.487,214.503 C190.636,214.503 194,217.866 194,222.016 L194,222.016 C194,226.165 190.636,229.529 186.487,229.529 L64.513,229.529 C60.364,229.529 57,226.165 57,222.016 L57,222.016 C57,217.866 60.364,214.503 64.513,214.503 z" fill="#FFFFFF"/>
    <path d="M213.513,214.503 L335.487,214.503 C339.636,214.503 343,217.866 343,222.016 L343,222.016 C343,226.165 339.636,229.529 335.487,229.529 L213.513,229.529 C209.364,229.529 206,226.165 206,222.016 L206,222.016 C206,217.866 209.364,214.503 213.513,214.503 z" fill="#FFFFFF"/>
    <path d="M214.596,238.88 L333.987,238.88 C338.965,238.88 343,242.915 343,247.893 L343,247.893 C343,252.871 338.965,256.907 333.987,256.907 L214.596,256.907 C209.618,256.907 205.583,252.871 205.583,247.893 L205.583,247.893 C205.583,242.915 209.618,238.88 214.596,238.88 z" fill="#959595"/>
    <path d="M213.513,161.959 L335.487,161.959 C339.636,161.959 343,165.323 343,169.472 L343,169.472 C343,173.622 339.636,176.985 335.487,176.985 L213.513,176.985 C209.364,176.985 206,173.622 206,169.472 L206,169.472 C206,165.323 209.364,161.959 213.513,161.959 z" fill="#FFFFFF"/>
    <path d="M141.333,137.077 L257.667,137.077 C259.692,137.077 261.333,138.719 261.333,140.744 L261.333,140.744 C261.333,142.769 259.692,144.41 257.667,144.41 L141.333,144.41 C139.308,144.41 137.667,142.769 137.667,140.744 L137.667,140.744 C137.667,138.719 139.308,137.077 141.333,137.077 z" fill="#959595"/>
    <path d="M165.523,122.051 L233.477,122.051 C235.502,122.051 237.144,123.692 237.144,125.717 L237.144,125.717 C237.144,127.742 235.502,129.384 233.477,129.384 L165.523,129.384 C163.498,129.384 161.856,127.742 161.856,125.717 L161.856,125.717 C161.856,123.692 163.498,122.051 165.523,122.051 z" fill="#B5B5B5"/>
    <path d="M334.13,247.67 Q334.227,247.767 334.227,247.893 Q334.227,248.02 334.13,248.117 L329.597,252.65 Q329.499,252.747 329.373,252.747 Q329.247,252.747 329.149,252.65 L328.663,252.164 Q328.566,252.066 328.566,251.94 Q328.566,251.813 328.663,251.716 L332.486,247.893 L328.663,244.071 Q328.566,243.973 328.566,243.847 Q328.566,243.721 328.663,243.623 L329.149,243.137 Q329.247,243.04 329.373,243.04 Q329.499,243.04 329.597,243.137 z M337.865,247.67 Q337.962,247.767 337.962,247.893 Q337.962,248.02 337.865,248.117 L333.332,252.65 Q333.235,252.747 333.108,252.747 Q332.982,252.747 332.884,252.65 L332.398,252.164 Q332.301,252.066 332.301,251.94 Q332.301,251.813 332.398,251.716 L336.264,247.907 L332.398,244.071 Q332.301,243.973 332.301,243.847 Q332.301,243.721 332.398,243.623 L332.884,243.137 Q332.982,243.04 333.108,243.04 Q333.235,243.04 333.332,243.137 z" fill="#FFFFFF"/>
  </g>
</svg>
