<?xml version="1.0" encoding="UTF-8"?>
<!DOCTYPE svg PUBLIC "-//W3C//DTD SVG 1.1//EN" "http://www.w3.org/Graphics/SVG/1.1/DTD/svg11.dtd">
<svg version="1.1" xmlns="http://www.w3.org/2000/svg" xmlns:xlink="http://www.w3.org/1999/xlink" x="0" y="0" width="510" height="173" viewBox="0, 0, 510, 173">
  <g id="Layer_1">
    <path d="M7.837,189.081 L148.296,189.081 C152.624,189.081 156.133,192.59 156.133,196.919 L156.133,337.378 C156.133,341.706 152.624,345.215 148.296,345.215 L7.837,345.215 C3.509,345.215 -0,341.706 -0,337.378 L-0,196.919 C-0,192.59 3.509,189.081 7.837,189.081 z" fill="#FFFFFF"/>
    <path d="M183.366,189.081 L323.825,189.081 C328.153,189.081 331.662,192.59 331.662,196.919 L331.662,337.378 C331.662,341.706 328.153,345.215 323.825,345.215 L183.366,345.215 C179.037,345.215 175.528,341.706 175.528,337.378 L175.528,196.919 C175.528,192.59 179.037,189.081 183.366,189.081 z" fill="#FFFFFF"/>
    <g>
      <path d="M185.825,281.59 L185.825,278.836 Q185.825,275.127 188.387,272.71 L212.683,250.062 Q214.178,248.77 215.309,249.529 Q216.441,250.287 216.441,252.367 L216.441,262.033 Q216.441,266.191 212.683,269.619 L201.325,280.185 L212.683,290.806 Q216.441,294.234 216.441,298.393 L216.441,308.059 Q216.441,310.138 215.309,310.869 Q214.178,311.6 212.683,310.363 L188.387,287.659 Q185.825,285.299 185.825,281.59 z" fill="#1D1D1F"/>
      <path d="M233.659,244.345 L233.659,217.089 Q233.659,216.528 234.357,216.164 Q235.054,215.801 236.091,215.801 L245.018,215.801 Q246.055,215.801 246.752,216.164 Q247.45,216.528 247.45,217.089 L247.45,244.345 Q247.45,244.886 246.752,245.249 Q246.055,245.613 245.018,245.613 L236.091,245.613 Q235.054,245.613 234.357,245.249 Q233.659,244.886 233.659,244.345 z" fill="#1D1D1F"/>
      <path d="M247.45,251.367 L247.45,308.987 Q247.45,309.925 246.702,310.533 Q245.955,311.14 244.802,311.14 L223.025,311.14 Q221.915,311.14 221.168,310.533 Q220.421,309.925 220.421,308.987 L220.421,299.278 Q220.421,298.341 221.168,297.733 Q221.915,297.125 223.025,297.125 L233.53,297.125 L233.53,263.611 L223.025,263.611 Q221.915,263.611 221.168,263.003 Q220.421,262.395 220.421,261.492 L220.421,251.367 Q220.421,250.464 221.168,249.856 Q221.915,249.248 223.025,249.248 L244.802,249.248 Q245.955,249.248 246.702,249.856 Q247.45,250.464 247.45,251.367 z" fill="#1D1D1F"/>
    </g>
    <g>
      <path d="M274.377,142.09 L274.377,30.872 Q274.377,28.581 275.267,27.097 Q276.157,25.612 277.48,25.612 L288.871,25.612 Q290.193,25.612 291.083,27.097 Q291.973,28.581 291.973,30.872 L291.973,142.09 Q291.973,144.295 291.083,145.78 Q290.193,147.265 288.871,147.265 L277.48,147.265 Q276.157,147.265 275.267,145.78 Q274.377,144.295 274.377,142.09 z" fill="#2C5E7C"/>
      <g>
        <path d="M302.284,144.676 L302.284,71.039 Q302.284,69.841 303.239,69.064 Q304.194,68.287 305.668,68.287 L333.497,68.287 Q334.916,68.287 335.871,69.064 Q336.826,69.841 336.826,71.039 L336.826,83.935 Q336.826,85.134 335.871,85.91 Q334.916,86.687 333.497,86.687 L320.074,86.687 L320.074,129.447 L333.497,129.447 Q334.916,129.447 335.871,130.224 Q336.826,131 336.826,132.154 L336.826,144.676 Q336.826,145.83 335.871,146.607 Q334.916,147.383 333.497,147.383 L305.668,147.383 Q304.194,147.383 303.239,146.607 Q302.284,145.83 302.284,144.676 z" fill="#2C5E7C"/>
        <path d="M375.861,70.995 L375.861,144.631 Q375.861,145.83 374.906,146.607 Q373.951,147.383 372.478,147.383 L344.648,147.383 Q343.229,147.383 342.274,146.607 Q341.319,145.83 341.319,144.631 L341.319,132.224 Q341.319,131.026 342.274,130.249 Q343.229,129.472 344.648,129.472 L358.072,129.472 L358.072,86.643 L344.648,86.643 Q343.229,86.643 342.274,85.866 Q341.319,85.089 341.319,83.935 L341.319,70.995 Q341.319,69.841 342.274,69.064 Q343.229,68.287 344.648,68.287 L372.478,68.287 Q373.951,68.287 374.906,69.064 Q375.861,69.841 375.861,70.995 z" fill="#2C5E7C"/>
      </g>
      <path d="M3.494,109.557 L3.494,106.044 Q3.494,101.311 6.763,98.228 L37.764,69.329 Q39.671,67.68 41.115,68.648 Q42.558,69.616 42.558,72.269 L42.558,84.603 Q42.558,89.91 37.764,94.284 L23.271,107.765 L37.764,121.317 Q42.558,125.692 42.558,130.998 L42.558,143.332 Q42.558,145.985 41.115,146.917 Q39.671,147.849 37.764,146.272 L6.763,117.302 Q3.494,114.29 3.494,109.557 z" fill="#3B3B3B"/>
      <path d="M64.529,62.034 L64.529,27.257 Q64.529,26.541 65.419,26.077 Q66.309,25.612 67.631,25.612 L79.023,25.612 Q80.345,25.612 81.235,26.077 Q82.125,26.541 82.125,27.257 L82.125,62.034 Q82.125,62.724 81.235,63.188 Q80.345,63.652 79.023,63.652 L67.631,63.652 Q66.309,63.652 65.419,63.188 Q64.529,62.724 64.529,62.034 z" fill="#3B3B3B"/>
      <path d="M88.095,62.034 L88.095,50.71 Q88.095,49.994 88.985,49.529 Q89.875,49.065 91.197,49.065 L102.589,49.065 Q103.911,49.065 104.801,49.529 Q105.691,49.994 105.691,50.71 L105.691,62.034 Q105.691,62.724 104.801,63.188 Q103.911,63.652 102.589,63.652 L91.197,63.652 Q89.875,63.652 88.985,63.188 Q88.095,62.724 88.095,62.034 z" fill="#3B3B3B"/>
      <path d="M82.125,70.994 L82.125,144.516 Q82.125,145.712 81.171,146.488 Q80.218,147.263 78.747,147.263 L50.96,147.263 Q49.544,147.263 48.59,146.488 Q47.637,145.712 47.637,144.516 L47.637,132.128 Q47.637,130.931 48.59,130.156 Q49.544,129.38 50.96,129.38 L64.363,129.38 L64.363,86.617 L50.96,86.617 Q49.544,86.617 48.59,85.842 Q47.637,85.066 47.637,83.914 L47.637,70.994 Q47.637,69.841 48.59,69.066 Q49.544,68.29 50.96,68.29 L78.747,68.29 Q80.218,68.29 81.171,69.066 Q82.125,69.841 82.125,70.994 z" fill="#3B3B3B"/>
      <g>
        <path d="M265.939,105.996 L265.939,109.51 Q265.939,114.242 262.67,117.326 L231.668,146.224 Q229.761,147.873 228.318,146.905 Q226.874,145.937 226.874,143.284 L226.874,130.95 Q226.874,125.644 231.668,121.27 L246.161,107.789 L231.668,94.236 Q226.874,89.862 226.874,84.555 L226.874,72.222 Q226.874,69.569 228.318,68.636 Q229.761,67.704 231.668,69.282 L262.67,98.252 Q265.939,101.263 265.939,105.996 z" fill="#2C5E7C"/>
        <path d="M187.307,62.034 L187.307,27.257 Q187.307,26.541 188.197,26.077 Q189.087,25.612 190.41,25.612 L201.801,25.612 Q203.123,25.612 204.013,26.077 Q204.903,26.541 204.903,27.257 L204.903,62.034 Q204.903,62.724 204.013,63.188 Q203.123,63.652 201.801,63.652 L190.41,63.652 Q189.087,63.652 188.197,63.188 Q187.307,62.724 187.307,62.034 z" fill="#2C5E7C"/>
        <path d="M187.307,144.56 L187.307,71.038 Q187.307,69.841 188.261,69.066 Q189.214,68.29 190.685,68.29 L218.472,68.29 Q219.889,68.29 220.842,69.066 Q221.796,69.841 221.796,71.038 L221.796,83.426 Q221.796,84.622 220.842,85.398 Q219.889,86.173 218.472,86.173 L205.069,86.173 L205.069,128.936 L218.472,128.936 Q219.889,128.936 220.842,129.712 Q221.796,130.487 221.796,131.64 L221.796,144.56 Q221.796,145.712 220.842,146.488 Q219.889,147.263 218.472,147.263 L190.685,147.263 Q189.214,147.263 188.261,146.488 Q187.307,145.712 187.307,144.56 z" fill="#2C5E7C"/>
      </g>
      <path d="M87.467,142.882 L87.467,72.788 Q87.467,70.794 88.421,69.538 Q89.374,68.283 90.791,68.283 L102.995,68.283 Q104.466,68.283 105.392,69.575 Q106.319,70.868 106.319,72.788 L106.319,142.882 Q106.319,144.876 105.365,146.132 Q104.412,147.388 102.995,147.388 L90.791,147.388 Q89.32,147.388 88.393,146.132 Q87.467,144.876 87.467,142.882 z" fill="#3B3B3B"/>
      <path d="M113.691,68.292 L124.152,68.292 Q126.495,68.292 128.565,70.057 Q130.635,71.822 131.507,74.633 L146.381,119.523 L161.201,74.633 Q162.072,71.822 164.143,70.057 Q166.213,68.292 168.556,68.292 L179.071,68.292 Q180.978,68.292 181.578,70.165 Q181.85,70.886 181.823,72.003 Q181.796,73.119 181.305,74.633 L157.768,140.924 Q156.788,143.734 154.69,145.499 Q152.592,147.265 150.359,147.265 L142.349,147.265 Q140.116,147.265 138.045,145.499 Q135.975,143.734 134.994,140.924 L111.457,74.633 Q110.912,73.047 110.912,71.967 Q110.912,68.292 113.691,68.292 z" fill="#3B3B3B"/>
      <g>
        <path d="M425.497,109.554 L425.497,106.041 Q425.497,101.308 428.766,98.225 L459.767,69.326 Q461.674,67.677 463.117,68.645 Q464.561,69.613 464.561,72.266 L464.561,84.6 Q464.561,89.907 459.767,94.281 L445.274,107.762 L459.767,121.314 Q464.561,125.689 464.561,130.995 L464.561,143.329 Q464.561,145.982 463.117,146.914 Q461.674,147.846 459.767,146.269 L428.766,117.299 Q425.497,114.287 425.497,109.554 z" fill="#2C5E7C"/>
        <path d="M423.497,106.116 L423.497,109.63 Q423.497,114.362 420.228,117.446 L389.226,146.344 Q387.319,147.993 385.876,147.025 Q384.432,146.057 384.432,143.404 L384.432,131.07 Q384.432,125.764 389.226,121.39 L403.719,107.909 L389.226,94.356 Q384.432,89.982 384.432,84.676 L384.432,72.342 Q384.432,69.689 385.876,68.757 Q387.319,67.824 389.226,69.402 L420.228,98.372 Q423.497,101.383 423.497,106.116 z" fill="#2C5E7C"/>
      </g>
    </g>
    <g>
      <path d="M287.445,281.493 L287.445,278.74 Q287.445,275.03 290.007,272.614 L314.303,249.966 Q315.798,248.673 316.929,249.432 Q318.061,250.191 318.061,252.27 L318.061,261.936 Q318.061,266.095 314.303,269.523 L302.945,280.088 L314.303,290.71 Q318.061,294.138 318.061,298.297 L318.061,307.963 Q318.061,310.042 316.929,310.773 Q315.798,311.503 314.303,310.267 L290.007,287.563 Q287.445,285.202 287.445,281.493 z" fill="#2C5E7C"/>
      <path d="M285.878,278.799 L285.878,281.552 Q285.878,285.262 283.316,287.678 L259.02,310.326 Q257.525,311.619 256.394,310.86 Q255.262,310.101 255.262,308.022 L255.262,298.356 Q255.262,294.197 259.02,290.769 L270.378,280.204 L259.02,269.582 Q255.262,266.154 255.262,261.995 L255.262,252.329 Q255.262,250.25 256.394,249.519 Q257.525,248.789 259.02,250.025 L283.316,272.729 Q285.878,275.09 285.878,278.799 z" fill="#2C5E7C"/>
    </g>
    <g>
      <path d="M12.001,281.59 L12.001,278.836 Q12.001,275.127 14.563,272.711 L38.859,250.063 Q40.353,248.77 41.485,249.529 Q42.616,250.287 42.616,252.367 L42.616,262.033 Q42.616,266.192 38.859,269.62 L27.501,280.185 L38.859,290.806 Q42.616,294.235 42.616,298.393 L42.616,308.059 Q42.616,310.139 41.485,310.869 Q40.353,311.6 38.859,310.363 L14.563,287.659 Q12.001,285.299 12.001,281.59 z" fill="#1D1D1F"/>
      <path d="M62.111,241.483 L38.507,227.856 Q38.021,227.575 38.054,226.789 Q38.088,226.003 38.606,225.106 L43.07,217.374 Q43.588,216.476 44.252,216.054 Q44.916,215.632 45.402,215.913 L69.006,229.541 Q69.474,229.811 69.44,230.597 Q69.407,231.383 68.889,232.28 L64.425,240.012 Q63.906,240.909 63.243,241.331 Q62.579,241.754 62.111,241.483 z" fill="#1D1D1F"/>
      <path d="M73.625,251.367 L73.625,308.987 Q73.625,309.925 72.878,310.533 Q72.131,311.141 70.978,311.141 L49.201,311.141 Q48.091,311.141 47.344,310.533 Q46.596,309.925 46.596,308.987 L46.596,299.279 Q46.596,298.341 47.344,297.733 Q48.091,297.125 49.201,297.125 L59.705,297.125 L59.705,263.611 L49.201,263.611 Q48.091,263.611 47.344,263.003 Q46.596,262.396 46.596,261.493 L46.596,251.367 Q46.596,250.464 47.344,249.856 Q48.091,249.248 49.201,249.248 L70.978,249.248 Q72.131,249.248 72.878,249.856 Q73.625,250.464 73.625,251.367 z" fill="#1D1D1F"/>
    </g>
    <path d="M356.535,189.081 L496.994,189.081 C501.322,189.081 504.831,192.59 504.831,196.919 L504.831,337.378 C504.831,341.706 501.322,345.215 496.994,345.215 L356.535,345.215 C352.206,345.215 348.697,341.706 348.697,337.378 L348.697,196.919 C348.697,192.59 352.206,189.081 356.535,189.081 z" fill="#FFFFFF"/>
    <g>
      <path d="M376.405,268.544 L376.405,265.79 Q376.405,262.081 378.967,259.664 L403.263,237.016 Q404.758,235.724 405.889,236.482 Q407.021,237.241 407.021,239.32 L407.021,248.987 Q407.021,253.145 403.263,256.573 L391.905,267.139 L403.263,277.76 Q407.021,281.188 407.021,285.347 L407.021,295.013 Q407.021,297.092 405.889,297.823 Q404.758,298.554 403.263,297.317 L378.967,274.613 Q376.405,272.253 376.405,268.544 z" fill="#1D1D1F"/>
    </g>
    <g>
      <path d="M446.507,268.496 L446.507,265.742 Q446.507,262.033 449.069,259.616 L473.365,236.968 Q474.86,235.676 475.991,236.434 Q477.123,237.193 477.123,239.272 L477.123,248.939 Q477.123,253.097 473.365,256.525 L462.007,267.091 L473.365,277.712 Q477.123,281.14 477.123,285.299 L477.123,294.965 Q477.123,297.044 475.991,297.775 Q474.86,298.505 473.365,297.269 L449.069,274.565 Q446.507,272.205 446.507,268.496 z" fill="#2C5E7C"/>
      <path d="M444.94,265.801 L444.94,268.555 Q444.94,272.264 442.378,274.68 L418.082,297.328 Q416.587,298.621 415.456,297.862 Q414.324,297.103 414.324,295.024 L414.324,285.358 Q414.324,281.199 418.082,277.771 L429.44,267.206 L418.082,256.584 Q414.324,253.156 414.324,248.998 L414.324,239.332 Q414.324,237.252 415.456,236.522 Q416.587,235.791 418.082,237.027 L442.378,259.732 Q444.94,262.092 444.94,265.801 z" fill="#2C5E7C"/>
    </g>
    <g>
      <path d="M142.194,281.59 L142.194,278.836 Q142.194,275.127 139.632,272.71 L115.335,250.063 Q113.841,248.77 112.709,249.529 Q111.578,250.287 111.578,252.367 L111.578,262.033 Q111.578,266.191 115.335,269.62 L126.694,280.185 L115.335,290.806 Q111.578,294.234 111.578,298.393 L111.578,308.059 Q111.578,310.139 112.709,310.869 Q113.841,311.6 115.335,310.363 L139.632,287.659 Q142.194,285.299 142.194,281.59 z" fill="#2B5E7C"/>
      <path d="M92.084,241.483 L115.688,227.855 Q116.174,227.575 116.14,226.789 Q116.106,226.003 115.588,225.105 L111.124,217.374 Q110.606,216.476 109.942,216.054 Q109.278,215.632 108.792,215.913 L85.188,229.54 Q84.72,229.811 84.754,230.597 Q84.788,231.383 85.306,232.28 L89.77,240.012 Q90.288,240.909 90.952,241.331 Q91.615,241.753 92.084,241.483 z" fill="#2B5E7C"/>
      <path d="M80.569,251.367 L80.569,308.987 Q80.569,309.925 81.316,310.533 Q82.063,311.141 83.216,311.141 L104.993,311.141 Q106.103,311.141 106.851,310.533 Q107.598,309.925 107.598,308.987 L107.598,299.279 Q107.598,298.341 106.851,297.733 Q106.103,297.125 104.993,297.125 L94.489,297.125 L94.489,263.611 L104.993,263.611 Q106.103,263.611 106.851,263.003 Q107.598,262.396 107.598,261.493 L107.598,251.367 Q107.598,250.464 106.851,249.856 Q106.103,249.248 104.993,249.248 L83.216,249.248 Q82.063,249.248 81.316,249.856 Q80.569,250.464 80.569,251.367 z" fill="#2B5E7C"/>
    </g>
    <path d="M466.841,71.696 L466.837,70.663 Q466.835,70.213 467.131,69.915 Q467.426,69.617 467.876,69.615 L481.819,69.558 Q482.269,69.556 482.567,69.852 Q482.865,70.147 482.867,70.597 L482.871,71.63 Q482.873,72.081 482.577,72.373 Q482.282,72.665 481.832,72.667 L476.931,72.687 L476.979,84.322 Q476.981,84.751 476.68,85.043 Q476.379,85.336 475.95,85.338 L473.874,85.346 Q473.445,85.348 473.142,85.058 Q472.839,84.768 472.837,84.339 L472.789,72.704 L467.889,72.724 Q467.439,72.726 467.141,72.436 Q466.843,72.146 466.841,71.696 z" fill="#2B5E7C"/>
    <path d="M484.714,84.247 L484.658,70.612 Q484.656,70.162 484.951,69.853 Q485.247,69.544 485.675,69.542 L490.147,69.524 Q490.575,69.522 490.961,69.828 Q491.347,70.134 491.481,70.562 L494.76,79.932 L497.963,70.536 Q498.093,70.107 498.476,69.797 Q498.859,69.488 499.288,69.486 L503.76,69.468 Q504.188,69.466 504.481,69.773 Q504.773,70.079 504.775,70.53 L504.831,84.164 Q504.833,84.615 504.532,84.918 Q504.231,85.222 503.802,85.223 L501.825,85.231 Q501.396,85.233 501.093,84.932 Q500.789,84.631 500.788,84.181 L500.744,73.447 L496.909,84.263 Q496.757,84.67 496.374,84.963 Q495.991,85.255 495.562,85.257 L493.991,85.264 Q493.562,85.265 493.182,84.976 Q492.802,84.686 492.635,84.28 L488.724,73.496 L488.768,84.23 Q488.77,84.681 488.469,84.984 Q488.168,85.287 487.739,85.289 L485.762,85.297 Q485.333,85.299 485.024,84.998 Q484.716,84.697 484.714,84.247 z" fill="#2B5E7C"/>
  </g>
</svg>
