<?xml version="1.0" encoding="UTF-8"?>
<!DOCTYPE svg PUBLIC "-//W3C//DTD SVG 1.1//EN" "http://www.w3.org/Graphics/SVG/1.1/DTD/svg11.dtd">
<svg version="1.1" xmlns="http://www.w3.org/2000/svg" xmlns:xlink="http://www.w3.org/1999/xlink" x="0" y="0" width="500" height="173" viewBox="0, 0, 500, 173">
  <g id="Layer_1">
    <path d="M7.837,189.081 L148.296,189.081 C152.624,189.081 156.133,192.59 156.133,196.919 L156.133,337.378 C156.133,341.706 152.624,345.215 148.296,345.215 L7.837,345.215 C3.509,345.215 -0,341.706 -0,337.378 L-0,196.919 C-0,192.59 3.509,189.081 7.837,189.081 z" fill="#FFFFFF"/>
    <path d="M183.366,189.081 L323.825,189.081 C328.153,189.081 331.662,192.59 331.662,196.919 L331.662,337.378 C331.662,341.706 328.153,345.215 323.825,345.215 L183.366,345.215 C179.037,345.215 175.528,341.706 175.528,337.378 L175.528,196.919 C175.528,192.59 179.037,189.081 183.366,189.081 z" fill="#FFFFFF"/>
    <g>
      <path d="M185.825,281.59 L185.825,278.836 Q185.825,275.127 188.387,272.71 L212.683,250.062 Q214.178,248.77 215.309,249.529 Q216.441,250.287 216.441,252.367 L216.441,262.033 Q216.441,266.191 212.683,269.619 L201.325,280.185 L212.683,290.806 Q216.441,294.234 216.441,298.393 L216.441,308.059 Q216.441,310.138 215.309,310.869 Q214.178,311.6 212.683,310.363 L188.387,287.659 Q185.825,285.299 185.825,281.59 z" fill="#1D1D1F"/>
      <path d="M233.659,244.345 L233.659,217.089 Q233.659,216.528 234.357,216.164 Q235.054,215.801 236.091,215.801 L245.018,215.801 Q246.055,215.801 246.752,216.164 Q247.45,216.528 247.45,217.089 L247.45,244.345 Q247.45,244.886 246.752,245.249 Q246.055,245.613 245.018,245.613 L236.091,245.613 Q235.054,245.613 234.357,245.249 Q233.659,244.886 233.659,244.345 z" fill="#1D1D1F"/>
      <path d="M247.45,251.367 L247.45,308.987 Q247.45,309.925 246.702,310.533 Q245.955,311.14 244.802,311.14 L223.025,311.14 Q221.915,311.14 221.168,310.533 Q220.421,309.925 220.421,308.987 L220.421,299.278 Q220.421,298.341 221.168,297.733 Q221.915,297.125 223.025,297.125 L233.53,297.125 L233.53,263.611 L223.025,263.611 Q221.915,263.611 221.168,263.003 Q220.421,262.395 220.421,261.492 L220.421,251.367 Q220.421,250.464 221.168,249.856 Q221.915,249.248 223.025,249.248 L244.802,249.248 Q245.955,249.248 246.702,249.856 Q247.45,250.464 247.45,251.367 z" fill="#1D1D1F"/>
    </g>
    <path d="M290.35,142.09 L290.35,30.872 Q290.35,28.581 291.24,27.097 Q292.13,25.612 293.452,25.612 L304.844,25.612 Q306.166,25.612 307.056,27.097 Q307.946,28.581 307.946,30.872 L307.946,142.09 Q307.946,144.295 307.056,145.78 Q306.166,147.265 304.844,147.265 L293.452,147.265 Q292.13,147.265 291.24,145.78 Q290.35,144.295 290.35,142.09 z" fill="#2C5E7C"/>
    <g>
      <path d="M318.257,144.676 L318.257,71.039 Q318.257,69.841 319.212,69.064 Q320.167,68.287 321.64,68.287 L349.47,68.287 Q350.889,68.287 351.844,69.064 Q352.799,69.841 352.799,71.039 L352.799,83.935 Q352.799,85.134 351.844,85.91 Q350.889,86.687 349.47,86.687 L336.046,86.687 L336.046,129.447 L349.47,129.447 Q350.889,129.447 351.844,130.224 Q352.799,131 352.799,132.154 L352.799,144.676 Q352.799,145.83 351.844,146.607 Q350.889,147.383 349.47,147.383 L321.64,147.383 Q320.167,147.383 319.212,146.607 Q318.257,145.83 318.257,144.676 z" fill="#2C5E7C"/>
      <path d="M391.834,70.995 L391.834,144.631 Q391.834,145.83 390.879,146.607 Q389.924,147.383 388.45,147.383 L360.62,147.383 Q359.202,147.383 358.247,146.607 Q357.292,145.83 357.292,144.631 L357.292,132.224 Q357.292,131.026 358.247,130.249 Q359.202,129.472 360.62,129.472 L374.044,129.472 L374.044,86.643 L360.62,86.643 Q359.202,86.643 358.247,85.866 Q357.292,85.089 357.292,83.935 L357.292,70.995 Q357.292,69.841 358.247,69.064 Q359.202,68.287 360.62,68.287 L388.45,68.287 Q389.924,68.287 390.879,69.064 Q391.834,69.841 391.834,70.995 z" fill="#2C5E7C"/>
    </g>
    <path d="M19.466,109.557 L19.466,106.044 Q19.466,101.311 22.735,98.228 L53.736,69.329 Q55.643,67.68 57.087,68.648 Q58.531,69.616 58.531,72.269 L58.531,84.603 Q58.531,89.91 53.736,94.284 L39.244,107.765 L53.736,121.317 Q58.531,125.692 58.531,130.998 L58.531,143.332 Q58.531,145.985 57.087,146.917 Q55.643,147.849 53.736,146.272 L22.735,117.302 Q19.466,114.29 19.466,109.557 z" fill="#3B3B3B"/>
    <path d="M80.501,62.034 L80.501,27.257 Q80.501,26.541 81.391,26.077 Q82.281,25.612 83.603,25.612 L94.995,25.612 Q96.317,25.612 97.207,26.077 Q98.097,26.541 98.097,27.257 L98.097,62.034 Q98.097,62.724 97.207,63.188 Q96.317,63.652 94.995,63.652 L83.603,63.652 Q82.281,63.652 81.391,63.188 Q80.501,62.724 80.501,62.034 z" fill="#3B3B3B"/>
    <path d="M104.067,62.034 L104.067,50.71 Q104.067,49.994 104.957,49.529 Q105.847,49.065 107.17,49.065 L118.561,49.065 Q119.883,49.065 120.773,49.529 Q121.663,49.994 121.663,50.71 L121.663,62.034 Q121.663,62.724 120.773,63.188 Q119.883,63.652 118.561,63.652 L107.17,63.652 Q105.847,63.652 104.957,63.188 Q104.067,62.724 104.067,62.034 z" fill="#3B3B3B"/>
    <path d="M98.097,70.994 L98.097,144.516 Q98.097,145.712 97.144,146.488 Q96.19,147.263 94.719,147.263 L66.933,147.263 Q65.516,147.263 64.563,146.488 Q63.609,145.712 63.609,144.516 L63.609,132.128 Q63.609,130.931 64.563,130.156 Q65.516,129.38 66.933,129.38 L80.336,129.38 L80.336,86.617 L66.933,86.617 Q65.516,86.617 64.563,85.842 Q63.609,85.066 63.609,83.914 L63.609,70.994 Q63.609,69.841 64.563,69.066 Q65.516,68.29 66.933,68.29 L94.719,68.29 Q96.19,68.29 97.144,69.066 Q98.097,69.841 98.097,70.994 z" fill="#3B3B3B"/>
    <g>
      <path d="M281.911,105.996 L281.911,109.51 Q281.911,114.242 278.642,117.326 L247.641,146.224 Q245.734,147.873 244.29,146.905 Q242.846,145.937 242.846,143.284 L242.846,130.95 Q242.846,125.644 247.641,121.27 L262.134,107.789 L247.641,94.236 Q242.846,89.862 242.846,84.555 L242.846,72.222 Q242.846,69.569 244.29,68.636 Q245.734,67.704 247.641,69.282 L278.642,98.252 Q281.911,101.263 281.911,105.996 z" fill="#2C5E7C"/>
      <path d="M203.28,62.034 L203.28,27.257 Q203.28,26.541 204.17,26.077 Q205.06,25.612 206.382,25.612 L217.774,25.612 Q219.096,25.612 219.986,26.077 Q220.876,26.541 220.876,27.257 L220.876,62.034 Q220.876,62.724 219.986,63.188 Q219.096,63.652 217.774,63.652 L206.382,63.652 Q205.06,63.652 204.17,63.188 Q203.28,62.724 203.28,62.034 z" fill="#2C5E7C"/>
      <path d="M203.28,144.56 L203.28,71.038 Q203.28,69.841 204.233,69.066 Q205.187,68.29 206.658,68.29 L234.445,68.29 Q235.861,68.29 236.815,69.066 Q237.768,69.841 237.768,71.038 L237.768,83.426 Q237.768,84.622 236.815,85.398 Q235.861,86.173 234.445,86.173 L221.042,86.173 L221.042,128.936 L234.445,128.936 Q235.861,128.936 236.815,129.712 Q237.768,130.487 237.768,131.64 L237.768,144.56 Q237.768,145.712 236.815,146.488 Q235.861,147.263 234.445,147.263 L206.658,147.263 Q205.187,147.263 204.233,146.488 Q203.28,145.712 203.28,144.56 z" fill="#2C5E7C"/>
    </g>
    <path d="M103.44,142.882 L103.44,72.788 Q103.44,70.794 104.393,69.538 Q105.347,68.283 106.763,68.283 L118.968,68.283 Q120.439,68.283 121.365,69.575 Q122.291,70.868 122.291,72.788 L122.291,142.882 Q122.291,144.876 121.338,146.132 Q120.384,147.388 118.968,147.388 L106.763,147.388 Q105.292,147.388 104.366,146.132 Q103.44,144.876 103.44,142.882 z" fill="#3B3B3B"/>
    <path d="M129.664,68.292 L140.124,68.292 Q142.467,68.292 144.538,70.057 Q146.608,71.822 147.48,74.633 L162.354,119.523 L177.173,74.633 Q178.045,71.822 180.115,70.057 Q182.186,68.292 184.529,68.292 L195.044,68.292 Q196.951,68.292 197.55,70.165 Q197.823,70.886 197.795,72.003 Q197.768,73.119 197.278,74.633 L173.741,140.924 Q172.76,143.734 170.663,145.499 Q168.565,147.265 166.331,147.265 L158.322,147.265 Q156.088,147.265 154.018,145.499 Q151.947,143.734 150.967,140.924 L127.43,74.633 Q126.885,73.047 126.885,71.967 Q126.885,68.292 129.664,68.292 z" fill="#3B3B3B"/>
    <path d="M478.339,68.325 L479.09,68.645 Q480.534,69.613 480.534,72.266 L480.534,84.6 Q480.534,89.907 475.739,94.281 L461.247,107.762 L475.739,121.314 Q480.534,125.689 480.534,130.995 L480.534,143.328 Q480.534,145.982 479.09,146.914 Q477.646,147.846 475.739,146.269 L444.738,117.299 Q441.469,114.287 441.469,109.554 L441.469,106.041 Q441.469,101.308 444.738,98.225 L475.739,69.326 C477.127,68.334 476.293,68.741 478.339,68.325 z M461.836,88.693 Q461.593,88.683 461.401,88.86 L455.467,94.347 Q455.276,94.524 455.266,94.767 Q455.257,95.01 455.434,95.202 L455.84,95.641 Q456.017,95.833 456.258,95.84 Q456.499,95.847 456.691,95.67 L458.776,93.742 L463.355,98.694 Q463.523,98.877 463.767,98.882 Q464.01,98.887 464.192,98.718 L465.076,97.901 Q465.258,97.732 465.272,97.489 Q465.286,97.247 465.118,97.064 L460.539,92.112 L462.625,90.184 Q462.817,90.007 462.828,89.766 Q462.84,89.525 462.663,89.334 L462.257,88.894 Q462.079,88.702 461.836,88.693 z M471.167,80.075 Q470.922,80.058 470.74,80.227 L468.837,81.986 Q468.654,82.155 468.612,82.437 Q468.569,82.72 468.682,82.954 L470.994,88.223 L465.923,85.505 Q465.698,85.374 465.413,85.395 Q465.129,85.415 464.946,85.583 L463.043,87.343 Q462.861,87.512 462.855,87.759 Q462.85,88.007 463.027,88.199 L468.392,94.002 Q468.57,94.194 468.82,94.201 Q469.069,94.209 469.252,94.04 L470.093,93.262 Q470.276,93.093 470.286,92.846 Q470.295,92.598 470.118,92.407 L465.894,87.838 L471.79,90.913 Q472.02,91.021 472.296,90.996 Q472.572,90.971 472.754,90.802 L473.423,90.184 Q473.605,90.015 473.654,89.74 Q473.704,89.465 473.609,89.231 L471.01,83.108 L475.234,87.677 Q475.411,87.869 475.659,87.878 Q475.906,87.888 476.088,87.719 L476.93,86.941 Q477.113,86.773 477.122,86.525 Q477.132,86.278 476.955,86.086 L471.59,80.283 Q471.412,80.091 471.167,80.075 z" fill="#2C5E7C"/>
    <path d="M439.469,106.116 L439.469,109.63 Q439.469,114.362 436.2,117.446 L405.199,146.344 Q403.292,147.993 401.848,147.025 Q400.404,146.057 400.404,143.404 L400.404,131.07 Q400.404,125.764 405.199,121.39 L419.692,107.909 L405.199,94.356 Q400.404,89.982 400.404,84.676 L400.404,72.342 Q400.404,69.689 401.848,68.757 Q403.292,67.824 405.199,69.402 L436.2,98.372 Q439.469,101.383 439.469,106.116 z" fill="#2C5E7C"/>
    <g>
      <path d="M287.445,281.493 L287.445,278.74 Q287.445,275.03 290.007,272.614 L314.303,249.966 Q315.798,248.673 316.929,249.432 Q318.061,250.191 318.061,252.27 L318.061,261.936 Q318.061,266.095 314.303,269.523 L302.945,280.088 L314.303,290.71 Q318.061,294.138 318.061,298.297 L318.061,307.963 Q318.061,310.042 316.929,310.773 Q315.798,311.503 314.303,310.267 L290.007,287.563 Q287.445,285.202 287.445,281.493 z" fill="#2C5E7C"/>
      <path d="M285.878,278.799 L285.878,281.552 Q285.878,285.262 283.316,287.678 L259.02,310.326 Q257.525,311.619 256.394,310.86 Q255.262,310.101 255.262,308.022 L255.262,298.356 Q255.262,294.197 259.02,290.769 L270.378,280.204 L259.02,269.582 Q255.262,266.154 255.262,261.995 L255.262,252.329 Q255.262,250.25 256.394,249.519 Q257.525,248.789 259.02,250.025 L283.316,272.729 Q285.878,275.09 285.878,278.799 z" fill="#2C5E7C"/>
    </g>
    <g>
      <path d="M12.001,281.59 L12.001,278.836 Q12.001,275.127 14.563,272.711 L38.859,250.063 Q40.353,248.77 41.485,249.529 Q42.616,250.287 42.616,252.367 L42.616,262.033 Q42.616,266.192 38.859,269.62 L27.501,280.185 L38.859,290.806 Q42.616,294.235 42.616,298.393 L42.616,308.059 Q42.616,310.139 41.485,310.869 Q40.353,311.6 38.859,310.363 L14.563,287.659 Q12.001,285.299 12.001,281.59 z" fill="#1D1D1F"/>
      <path d="M62.111,241.483 L38.507,227.856 Q38.021,227.575 38.054,226.789 Q38.088,226.003 38.606,225.106 L43.07,217.374 Q43.588,216.476 44.252,216.054 Q44.916,215.632 45.402,215.913 L69.006,229.541 Q69.474,229.811 69.44,230.597 Q69.407,231.383 68.889,232.28 L64.425,240.012 Q63.906,240.909 63.243,241.331 Q62.579,241.754 62.111,241.483 z" fill="#1D1D1F"/>
      <path d="M73.625,251.367 L73.625,308.987 Q73.625,309.925 72.878,310.533 Q72.131,311.141 70.978,311.141 L49.201,311.141 Q48.091,311.141 47.344,310.533 Q46.596,309.925 46.596,308.987 L46.596,299.279 Q46.596,298.341 47.344,297.733 Q48.091,297.125 49.201,297.125 L59.705,297.125 L59.705,263.611 L49.201,263.611 Q48.091,263.611 47.344,263.003 Q46.596,262.396 46.596,261.493 L46.596,251.367 Q46.596,250.464 47.344,249.856 Q48.091,249.248 49.201,249.248 L70.978,249.248 Q72.131,249.248 72.878,249.856 Q73.625,250.464 73.625,251.367 z" fill="#1D1D1F"/>
    </g>
    <path d="M356.535,189.081 L496.994,189.081 C501.322,189.081 504.831,192.59 504.831,196.919 L504.831,337.378 C504.831,341.706 501.322,345.215 496.994,345.215 L356.535,345.215 C352.206,345.215 348.697,341.706 348.697,337.378 L348.697,196.919 C348.697,192.59 352.206,189.081 356.535,189.081 z" fill="#FFFFFF"/>
    <g>
      <path d="M376.405,268.544 L376.405,265.79 Q376.405,262.081 378.967,259.664 L403.263,237.016 Q404.758,235.724 405.889,236.482 Q407.021,237.241 407.021,239.32 L407.021,248.987 Q407.021,253.145 403.263,256.573 L391.905,267.139 L403.263,277.76 Q407.021,281.188 407.021,285.347 L407.021,295.013 Q407.021,297.092 405.889,297.823 Q404.758,298.554 403.263,297.317 L378.967,274.613 Q376.405,272.253 376.405,268.544 z" fill="#1D1D1F"/>
    </g>
    <g>
      <path d="M446.507,268.496 L446.507,265.742 Q446.507,262.033 449.069,259.616 L473.365,236.968 Q474.86,235.676 475.991,236.434 Q477.123,237.193 477.123,239.272 L477.123,248.939 Q477.123,253.097 473.365,256.525 L462.007,267.091 L473.365,277.712 Q477.123,281.14 477.123,285.299 L477.123,294.965 Q477.123,297.044 475.991,297.775 Q474.86,298.505 473.365,297.269 L449.069,274.565 Q446.507,272.205 446.507,268.496 z" fill="#2C5E7C"/>
      <path d="M444.94,265.801 L444.94,268.555 Q444.94,272.264 442.378,274.68 L418.082,297.328 Q416.587,298.621 415.456,297.862 Q414.324,297.103 414.324,295.024 L414.324,285.358 Q414.324,281.199 418.082,277.771 L429.44,267.206 L418.082,256.584 Q414.324,253.156 414.324,248.998 L414.324,239.332 Q414.324,237.252 415.456,236.522 Q416.587,235.791 418.082,237.027 L442.378,259.732 Q444.94,262.092 444.94,265.801 z" fill="#2C5E7C"/>
    </g>
    <g>
      <path d="M142.194,281.59 L142.194,278.836 Q142.194,275.127 139.632,272.71 L115.335,250.063 Q113.841,248.77 112.709,249.529 Q111.578,250.287 111.578,252.367 L111.578,262.033 Q111.578,266.191 115.335,269.62 L126.694,280.185 L115.335,290.806 Q111.578,294.234 111.578,298.393 L111.578,308.059 Q111.578,310.139 112.709,310.869 Q113.841,311.6 115.335,310.363 L139.632,287.659 Q142.194,285.299 142.194,281.59 z" fill="#2B5E7C"/>
      <path d="M92.084,241.483 L115.688,227.855 Q116.174,227.575 116.14,226.789 Q116.106,226.003 115.588,225.105 L111.124,217.374 Q110.606,216.476 109.942,216.054 Q109.278,215.632 108.792,215.913 L85.188,229.54 Q84.72,229.811 84.754,230.597 Q84.788,231.383 85.306,232.28 L89.77,240.012 Q90.288,240.909 90.952,241.331 Q91.615,241.753 92.084,241.483 z" fill="#2B5E7C"/>
      <path d="M80.569,251.367 L80.569,308.987 Q80.569,309.925 81.316,310.533 Q82.063,311.141 83.216,311.141 L104.993,311.141 Q106.103,311.141 106.851,310.533 Q107.598,309.925 107.598,308.987 L107.598,299.279 Q107.598,298.341 106.851,297.733 Q106.103,297.125 104.993,297.125 L94.489,297.125 L94.489,263.611 L104.993,263.611 Q106.103,263.611 106.851,263.003 Q107.598,262.396 107.598,261.493 L107.598,251.367 Q107.598,250.464 106.851,249.856 Q106.103,249.248 104.993,249.248 L83.216,249.248 Q82.063,249.248 81.316,249.856 Q80.569,250.464 80.569,251.367 z" fill="#2B5E7C"/>
    </g>
  </g>
</svg>
