<?xml version="1.0" encoding="UTF-8"?>
<!DOCTYPE svg PUBLIC "-//W3C//DTD SVG 1.1//EN" "http://www.w3.org/Graphics/SVG/1.1/DTD/svg11.dtd">
<svg version="1.1" xmlns="http://www.w3.org/2000/svg" xmlns:xlink="http://www.w3.org/1999/xlink" x="0" y="0" width="200" height="200" viewBox="0, 0, 200, 200">
  <defs>
    <linearGradient id="Gradient_1" gradientUnits="userSpaceOnUse" x1="-173.205" y1="-149.805" x2="-246.709" y2="-116.72">
      <stop offset="0" stop-color="#2B5E7C" stop-opacity="0.514"/>
      <stop offset="1" stop-color="#2B5E7C"/>
    </linearGradient>
    <linearGradient id="Gradient_2" gradientUnits="userSpaceOnUse" x1="-32.193" y1="66.146" x2="-64.723" y2="99.24" gradientTransform="matrix(-0.707, 0.707, -0.707, -0.707, 0, 0)">
      <stop offset="0" stop-color="#2B5E7C" stop-opacity="0.514"/>
      <stop offset="1" stop-color="#2B5E7C"/>
    </linearGradient>
    <linearGradient id="Gradient_3" gradientUnits="userSpaceOnUse" x1="222.724" y1="-165.729" x2="150.411" y2="-119.283">
      <stop offset="0" stop-color="#2B5E7C" stop-opacity="0.514"/>
      <stop offset="1" stop-color="#2B5E7C"/>
    </linearGradient>
    <linearGradient id="Gradient_4" gradientUnits="userSpaceOnUse" x1="421.975" y1="-113.664" x2="452.192" y2="-84.981">
      <stop offset="0" stop-color="#2B5E7C" stop-opacity="0.514"/>
      <stop offset="1" stop-color="#2B5E7C"/>
    </linearGradient>
    <linearGradient id="Gradient_5" gradientUnits="userSpaceOnUse" x1="55.305" y1="111.058" x2="133.939" y2="118.058">
      <stop offset="0" stop-color="#2B5E7C" stop-opacity="0.514"/>
      <stop offset="1" stop-color="#2B5E7C"/>
    </linearGradient>
  </defs>
  <g id="Layer_1">
    <path d="M-212.296,45.814 L-71.837,45.814 C-67.509,45.814 -64,49.323 -64,53.651 L-64,194.11 C-64,198.438 -67.509,201.947 -71.837,201.947 L-212.296,201.947 C-216.624,201.947 -220.133,198.438 -220.133,194.11 L-220.133,53.651 C-220.133,49.323 -216.624,45.814 -212.296,45.814 z" fill="#FFFFFF"/>
    <g>
      <path d="M-208.185,138.322 L-208.185,135.568 Q-208.185,131.859 -205.623,129.443 L-181.326,106.795 Q-179.832,105.502 -178.7,106.261 Q-177.569,107.019 -177.569,109.099 L-177.569,118.765 Q-177.569,122.924 -181.326,126.352 L-192.685,136.917 L-181.326,147.539 Q-177.569,150.967 -177.569,155.125 L-177.569,164.791 Q-177.569,166.871 -178.7,167.601 Q-179.832,168.332 -181.326,167.096 L-205.623,144.391 Q-208.185,142.031 -208.185,138.322 z" fill="#1D1D1F"/>
      <path d="M-160.35,101.077 L-160.35,73.822 Q-160.35,73.26 -159.653,72.897 Q-158.955,72.533 -157.919,72.533 L-148.991,72.533 Q-147.955,72.533 -147.257,72.897 Q-146.56,73.26 -146.56,73.822 L-146.56,101.077 Q-146.56,101.618 -147.257,101.982 Q-147.955,102.345 -148.991,102.345 L-157.919,102.345 Q-158.955,102.345 -159.653,101.982 Q-160.35,101.618 -160.35,101.077 z" fill="#1D1D1F"/>
      <path d="M-146.56,108.099 L-146.56,165.719 Q-146.56,166.657 -147.307,167.265 Q-148.054,167.873 -149.207,167.873 L-170.984,167.873 Q-172.094,167.873 -172.842,167.265 Q-173.589,166.657 -173.589,165.719 L-173.589,156.011 Q-173.589,155.073 -172.842,154.465 Q-172.094,153.857 -170.984,153.857 L-160.48,153.857 L-160.48,120.343 L-170.984,120.343 Q-172.094,120.343 -172.842,119.736 Q-173.589,119.128 -173.589,118.225 L-173.589,108.099 Q-173.589,107.196 -172.842,106.588 Q-172.094,105.98 -170.984,105.98 L-149.207,105.98 Q-148.054,105.98 -147.307,106.588 Q-146.56,107.196 -146.56,108.099 z" fill="#1D1D1F"/>
    </g>
    <g>
      <path d="M-106.564,138.226 L-106.564,135.472 Q-106.564,131.763 -104.002,129.346 L-79.706,106.698 Q-78.212,105.406 -77.08,106.164 Q-75.949,106.923 -75.949,109.002 L-75.949,118.668 Q-75.949,122.827 -79.706,126.255 L-91.064,136.821 L-79.706,147.442 Q-75.949,150.87 -75.949,155.029 L-75.949,164.695 Q-75.949,166.774 -77.08,167.505 Q-78.212,168.235 -79.706,166.999 L-104.002,144.295 Q-106.564,141.935 -106.564,138.226 z" fill="#2C5E7C"/>
      <path d="M-108.132,135.531 L-108.132,138.285 Q-108.132,141.994 -110.694,144.41 L-134.99,167.058 Q-136.484,168.351 -137.616,167.592 Q-138.748,166.833 -138.748,164.754 L-138.748,155.088 Q-138.748,150.929 -134.99,147.501 L-123.632,136.936 L-134.99,126.314 Q-138.748,122.886 -138.748,118.728 L-138.748,109.061 Q-138.748,106.982 -137.616,106.252 Q-136.484,105.521 -134.99,106.757 L-110.694,129.461 Q-108.132,131.822 -108.132,135.531 z" fill="#2C5E7C"/>
    </g>
    <g>
      <path d="M-176.343,-139.358 C-177.188,-153.787 -189.081,-165.313 -203.407,-165.313 C-212.109,-165.313 -220.536,-161.048 -225.764,-154.085 C-225.88,-154.147 -226.006,-154.185 -226.13,-154.249 C-226.443,-154.398 -226.765,-154.546 -227.094,-154.678 C-227.28,-154.75 -227.46,-154.812 -227.649,-154.882 C-227.969,-154.993 -228.298,-155.093 -228.634,-155.187 C-228.823,-155.235 -229.003,-155.289 -229.191,-155.329 C-229.55,-155.407 -229.918,-155.469 -230.293,-155.523 C-230.449,-155.556 -230.613,-155.588 -230.78,-155.602 C-231.311,-155.658 -231.843,-155.696 -232.39,-155.696 C-240.349,-155.696 -246.811,-149.226 -246.811,-141.275 C-246.811,-141.071 -246.805,-140.869 -246.789,-140.672 L-246.789,-140.664 C-253.455,-137.027 -258.032,-129.421 -258.032,-121.799 C-258.032,-110.445 -248.8,-101.213 -237.446,-101.213 L-198.173,-101.213 C-198.009,-101.213 -197.844,-101.221 -197.672,-101.237 L-197.578,-101.253 L-197.36,-101.237 C-197.195,-101.221 -197.031,-101.213 -196.867,-101.213 L-181.154,-101.213 C-170.528,-101.213 -161.882,-109.858 -161.882,-120.485 C-161.882,-129.281 -168.016,-137.175 -176.343,-139.358 z M-181.154,-104.422 L-196.867,-104.422 C-196.961,-104.422 -197.055,-104.428 -197.147,-104.428 L-197.578,-104.452 L-197.898,-104.428 C-197.985,-104.428 -198.079,-104.422 -198.173,-104.422 L-237.446,-104.422 C-247.031,-104.422 -254.823,-112.214 -254.823,-121.799 C-254.823,-128.459 -250.488,-135.368 -244.519,-138.231 L-243.612,-138.661 L-243.612,-139.671 C-243.612,-139.875 -243.596,-140.085 -243.588,-140.29 L-243.572,-140.548 L-243.588,-140.885 C-243.604,-141.017 -243.612,-141.143 -243.612,-141.275 C-243.612,-147.457 -238.58,-152.497 -232.39,-152.497 C-231.897,-152.497 -231.405,-152.449 -230.92,-152.387 C-230.794,-152.371 -230.67,-152.347 -230.551,-152.333 C-230.121,-152.252 -229.698,-152.168 -229.283,-152.042 C-229.229,-152.026 -229.175,-152.018 -229.111,-152.002 C-228.658,-151.862 -228.212,-151.682 -227.775,-151.487 C-227.665,-151.431 -227.555,-151.377 -227.438,-151.323 C-227.054,-151.135 -226.679,-150.922 -226.319,-150.688 C-223.228,-148.693 -221.179,-145.219 -221.179,-141.275 C-221.179,-140.392 -220.458,-139.671 -219.574,-139.671 C-218.689,-139.671 -217.97,-140.392 -217.97,-141.275 C-217.97,-145.688 -219.965,-149.64 -223.096,-152.284 C-218.503,-158.294 -210.935,-162.104 -203.407,-162.104 C-190.998,-162.104 -180.694,-152.276 -179.62,-139.851 C-181.256,-139.969 -183.706,-140.023 -186.162,-139.655 C-187.039,-139.523 -187.632,-138.701 -187.5,-137.824 C-187.382,-137.035 -186.703,-136.464 -185.92,-136.464 C-185.842,-136.464 -185.763,-136.472 -185.677,-136.486 C-182.11,-137.027 -178.392,-136.518 -178.174,-136.486 C-170.708,-135.07 -165.091,-128.201 -165.091,-120.485 C-165.091,-111.627 -172.296,-104.422 -181.154,-104.422 z M-181.154,-104.422" fill="#444444"/>
      <g id="Group">
        <path d="M-143.971,-155.558 L-143.971,-155.558 C-143.262,-155.558 -142.688,-154.983 -142.688,-154.275 L-142.688,-149.198 C-142.688,-148.49 -143.262,-147.915 -143.971,-147.915 L-143.971,-147.915 C-144.679,-147.915 -145.254,-148.49 -145.254,-149.198 L-145.254,-154.275 C-145.254,-154.983 -144.679,-155.558 -143.971,-155.558 z" fill="#D8D8D8" id="Rectangle-2"/>
        <path d="M-140.15,-151.737 L-140.15,-151.737 C-140.15,-151.028 -140.724,-150.454 -141.433,-150.454 L-146.509,-150.454 C-147.217,-150.454 -147.792,-151.028 -147.792,-151.737 L-147.792,-151.737 C-147.792,-152.445 -147.217,-153.02 -146.509,-153.02 L-141.433,-153.02 C-140.724,-153.02 -140.15,-152.445 -140.15,-151.737 z" fill="#D8D8D8" id="Rectangle-2"/>
      </g>
      <g id="Group">
        <path d="M-226.637,-193.558 L-226.637,-193.558 C-225.929,-193.558 -225.354,-192.983 -225.354,-192.275 L-225.354,-187.198 C-225.354,-186.49 -225.929,-185.915 -226.637,-185.915 L-226.637,-185.915 C-227.346,-185.915 -227.921,-186.49 -227.921,-187.198 L-227.921,-192.275 C-227.921,-192.983 -227.346,-193.558 -226.637,-193.558 z" fill="#D8D8D8" id="Rectangle-2"/>
        <path d="M-222.816,-189.737 L-222.816,-189.737 C-222.816,-189.028 -223.391,-188.454 -224.099,-188.454 L-229.176,-188.454 C-229.884,-188.454 -230.459,-189.028 -230.459,-189.737 L-230.459,-189.737 C-230.459,-190.445 -229.884,-191.02 -229.176,-191.02 L-224.099,-191.02 C-223.391,-191.02 -222.816,-190.445 -222.816,-189.737 z" fill="#D8D8D8" id="Rectangle-2"/>
      </g>
      <g id="Group">
        <path d="M-289.747,-134.223 L-289.747,-134.223 C-289.246,-134.724 -288.434,-134.724 -287.933,-134.223 L-285.14,-131.43 C-284.639,-130.929 -284.639,-130.117 -285.14,-129.616 L-285.14,-129.616 C-285.641,-129.115 -286.454,-129.115 -286.955,-129.616 L-289.747,-132.409 C-290.249,-132.91 -290.249,-133.722 -289.747,-134.223 z" fill="#D8D8D8" id="Rectangle-2"/>
        <path d="M-285.16,-134.242 L-285.16,-134.242 C-284.659,-133.741 -284.659,-132.929 -285.16,-132.428 L-287.952,-129.635 C-288.453,-129.134 -289.266,-129.134 -289.767,-129.635 L-289.767,-129.635 C-290.268,-130.136 -290.268,-130.949 -289.767,-131.45 L-286.974,-134.242 C-286.473,-134.744 -285.661,-134.744 -285.16,-134.242 z" fill="#D8D8D8" id="Rectangle-2"/>
      </g>
      <g id="Group">
        <path d="M-146.265,-99.286 L-146.265,-99.286 C-145.764,-99.787 -144.951,-99.787 -144.45,-99.286 L-141.657,-96.493 C-141.156,-95.992 -141.156,-95.18 -141.657,-94.679 L-141.657,-94.679 C-142.158,-94.178 -142.971,-94.178 -143.472,-94.679 L-146.265,-97.471 C-146.766,-97.973 -146.766,-98.785 -146.265,-99.286 z" fill="#D8D8D8" id="Rectangle-2"/>
        <path d="M-141.677,-99.305 L-141.677,-99.305 C-141.176,-98.804 -141.176,-97.992 -141.677,-97.491 L-144.47,-94.698 C-144.971,-94.197 -145.783,-94.197 -146.284,-94.698 L-146.284,-94.698 C-146.785,-95.199 -146.785,-96.012 -146.284,-96.513 L-143.491,-99.305 C-142.99,-99.806 -142.178,-99.806 -141.677,-99.305 z" fill="#D8D8D8" id="Rectangle-2"/>
      </g>
      <path d="M-236.378,-167.568 C-236.378,-166.161 -237.527,-165.021 -238.944,-165.021 C-240.362,-165.021 -241.51,-166.161 -241.51,-167.568 C-241.51,-168.975 -240.362,-170.115 -238.944,-170.115 C-237.527,-170.115 -236.378,-168.975 -236.378,-167.568 z" fill="#D8D8D8" id="Oval-2"/>
      <path d="M-264.578,-153.01 C-264.578,-151.603 -265.727,-150.463 -267.144,-150.463 C-268.562,-150.463 -269.71,-151.603 -269.71,-153.01 C-269.71,-154.417 -268.562,-155.558 -267.144,-155.558 C-265.727,-155.558 -264.578,-154.417 -264.578,-153.01 z" fill="#D8D8D8" id="Oval-2"/>
      <path d="M-187.976,-180.122 C-187.976,-178.916 -188.954,-177.938 -190.16,-177.938 C-191.367,-177.938 -192.344,-178.916 -192.344,-180.122 C-192.344,-181.328 -191.367,-182.306 -190.16,-182.306 C-188.954,-182.306 -187.976,-181.328 -187.976,-180.122 z" fill="#D8D8D8" id="Oval-3"/>
      <path d="M-130.239,-173.997 C-130.239,-172.791 -131.217,-171.813 -132.423,-171.813 C-133.63,-171.813 -134.607,-172.791 -134.607,-173.997 C-134.607,-175.203 -133.63,-176.181 -132.423,-176.181 C-131.217,-176.181 -130.239,-175.203 -130.239,-173.997 z" fill="#D8D8D8" id="Oval-3"/>
      <path d="M-254.204,-174.663 C-254.204,-173.457 -255.182,-172.479 -256.388,-172.479 C-257.594,-172.479 -258.572,-173.457 -258.572,-174.663 C-258.572,-175.87 -257.594,-176.847 -256.388,-176.847 C-255.182,-176.847 -254.204,-175.87 -254.204,-174.663 z" fill="#D8D8D8" id="Oval-3"/>
      <path d="M-161.078,-166.208 C-161.151,-164.803 -162.358,-163.724 -163.773,-163.797 C-165.189,-163.871 -166.277,-165.069 -166.204,-166.474 C-166.131,-167.879 -164.924,-168.959 -163.509,-168.885 C-162.094,-168.812 -161.005,-167.613 -161.078,-166.208 z" fill-opacity="0" stroke="#D8D8D8" stroke-width="1" id="Oval"/>
      <path d="M-150.828,-194.708 C-150.901,-193.303 -152.108,-192.224 -153.523,-192.297 C-154.939,-192.371 -156.027,-193.569 -155.954,-194.974 C-155.881,-196.379 -154.674,-197.459 -153.259,-197.385 C-151.844,-197.312 -150.755,-196.113 -150.828,-194.708 z" fill-opacity="0" stroke="#D8D8D8" stroke-width="1" id="Oval"/>
      <path d="M-129.357,-127.036 C-129.357,-125.629 -130.506,-124.489 -131.923,-124.489 C-133.341,-124.489 -134.489,-125.629 -134.489,-127.036 C-134.489,-128.443 -133.341,-129.583 -131.923,-129.583 C-130.506,-129.583 -129.357,-128.443 -129.357,-127.036 z" fill-opacity="0" stroke="#D8D8D8" stroke-width="1" id="Oval"/>
      <path d="M-275.683,-91.291 L-273.2,-88.808 L-270.688,-91.32 L-273.17,-93.803 L-275.683,-91.291 z" fill-opacity="0" stroke="#D8D8D8" stroke-width="1" id="Rectangle-3"/>
      <path d="M-284.264,-184.288 L-281.782,-181.806 L-279.27,-184.318 L-281.752,-186.8 L-284.264,-184.288 z" fill-opacity="0" stroke="#D8D8D8" stroke-width="1" id="Rectangle-3"/>
      <g>
        <path d="M-254.028,-95.163 L-232.58,-95.163 C-230.386,-95.163 -228.608,-93.367 -228.608,-91.151 L-228.608,-53.623 C-228.608,-51.407 -230.386,-49.611 -232.58,-49.611 L-254.028,-49.611 C-256.221,-49.611 -258,-51.407 -258,-53.623 L-258,-91.151 C-258,-93.367 -256.221,-95.163 -254.028,-95.163 z" fill-opacity="0" stroke="#444444" stroke-width="3"/>
        <path d="M-252.213,-85.768 L-234.909,-85.768" fill-opacity="0" stroke="#AAAAAA" stroke-width="3" stroke-linecap="round"/>
        <path d="M-252.213,-78.28 L-239.357,-78.28" fill-opacity="0" stroke="#AAAAAA" stroke-width="3" stroke-linecap="round"/>
        <path d="M-234.909,-78.28 L-234.909,-78.28" fill-opacity="0" stroke="#2B5E7C" stroke-width="3" stroke-linecap="round"/>
      </g>
      <g>
        <path d="M-220.181,-95.163 L-198.733,-95.163 C-196.539,-95.163 -194.761,-93.367 -194.761,-91.151 L-194.761,-53.623 C-194.761,-51.407 -196.539,-49.611 -198.733,-49.611 L-220.181,-49.611 C-222.375,-49.611 -224.153,-51.407 -224.153,-53.623 L-224.153,-91.151 C-224.153,-93.367 -222.375,-95.163 -220.181,-95.163 z" fill-opacity="0" stroke="#444444" stroke-width="3"/>
        <path d="M-218.366,-85.768 L-201.063,-85.768" fill-opacity="0" stroke="#AAAAAA" stroke-width="3" stroke-linecap="round"/>
        <path d="M-218.366,-78.28 L-205.511,-78.28" fill-opacity="0" stroke="#AAAAAA" stroke-width="3" stroke-linecap="round"/>
        <path d="M-201.063,-78.28 L-201.063,-78.28" fill-opacity="0" stroke="#2B5E7C" stroke-width="3" stroke-linecap="round"/>
      </g>
      <g>
        <path d="M-186.335,-95.163 L-164.887,-95.163 C-162.693,-95.163 -160.915,-93.367 -160.915,-91.151 L-160.915,-53.623 C-160.915,-51.407 -162.693,-49.611 -164.887,-49.611 L-186.335,-49.611 C-188.528,-49.611 -190.307,-51.407 -190.307,-53.623 L-190.307,-91.151 C-190.307,-93.367 -188.528,-95.163 -186.335,-95.163 z" fill-opacity="0" stroke="#444444" stroke-width="3"/>
        <path d="M-184.52,-85.768 L-167.216,-85.768" fill-opacity="0" stroke="#AAAAAA" stroke-width="3" stroke-linecap="round"/>
        <path d="M-184.52,-78.28 L-171.664,-78.28" fill-opacity="0" stroke="#AAAAAA" stroke-width="3" stroke-linecap="round"/>
        <path d="M-167.216,-78.28 L-167.216,-78.28" fill-opacity="0" stroke="#2B5E7C" stroke-width="3" stroke-linecap="round"/>
      </g>
      <path d="M-181.154,-104.422 L-196.867,-104.422 C-196.961,-104.422 -197.055,-104.428 -197.147,-104.428 L-197.578,-104.452 L-197.898,-104.428 C-197.985,-104.428 -198.079,-104.422 -198.173,-104.422 L-237.446,-104.422 C-247.031,-104.422 -254.823,-112.214 -254.823,-121.799 C-254.823,-128.459 -250.488,-135.368 -244.519,-138.231 L-243.612,-138.661 L-243.612,-139.671 C-243.612,-139.875 -243.596,-140.085 -243.588,-140.29 L-243.572,-140.548 L-243.588,-140.885 C-243.604,-141.017 -243.612,-141.143 -243.612,-141.275 C-243.612,-147.457 -238.58,-152.497 -232.39,-152.497 C-231.897,-152.497 -231.405,-152.449 -230.92,-152.387 C-230.794,-152.371 -230.67,-152.347 -230.551,-152.333 C-230.121,-152.252 -229.698,-152.168 -229.283,-152.042 C-229.229,-152.026 -229.175,-152.018 -229.111,-152.002 C-228.658,-151.862 -228.212,-151.682 -227.775,-151.487 C-227.665,-151.431 -227.555,-151.377 -227.438,-151.323 C-227.054,-151.135 -226.679,-150.922 -226.319,-150.688 C-223.228,-148.693 -221.179,-145.219 -221.179,-141.275 C-221.179,-140.392 -220.458,-139.671 -219.574,-139.671 C-218.689,-139.671 -217.97,-140.392 -217.97,-141.275 C-217.97,-145.688 -219.965,-149.64 -223.096,-152.284 C-218.503,-158.294 -210.935,-162.104 -203.407,-162.104 C-190.998,-162.104 -180.694,-152.276 -179.62,-139.851 C-181.256,-139.969 -183.706,-140.023 -186.162,-139.655 C-187.039,-139.523 -187.632,-138.701 -187.5,-137.824 C-187.382,-137.035 -186.703,-136.464 -185.92,-136.464 C-185.842,-136.464 -185.763,-136.472 -185.677,-136.486 C-182.11,-137.027 -178.392,-136.518 -178.174,-136.486 C-170.708,-135.07 -165.091,-128.201 -165.091,-120.485 C-165.091,-111.627 -172.296,-104.422 -181.154,-104.422 z M-181.154,-104.422" fill="url(#Gradient_1)"/>
    </g>
    <g>
      <g>
        <path d="M-248.671,-54.85 L-248.671,-55.016 Q-248.671,-55.24 -248.516,-55.386 L-247.049,-56.753 Q-246.959,-56.831 -246.89,-56.786 Q-246.822,-56.74 -246.822,-56.614 L-246.822,-56.031 Q-246.822,-55.78 -247.049,-55.573 L-247.735,-54.935 L-247.049,-54.293 Q-246.822,-54.086 -246.822,-53.835 L-246.822,-53.252 Q-246.822,-53.126 -246.89,-53.082 Q-246.959,-53.038 -247.049,-53.112 L-248.516,-54.483 Q-248.671,-54.626 -248.671,-54.85 z" fill="#1D1D1F"/>
        <path d="M-245.782,-57.099 L-245.782,-58.744 Q-245.782,-58.778 -245.74,-58.8 Q-245.698,-58.822 -245.636,-58.822 L-245.096,-58.822 Q-245.034,-58.822 -244.992,-58.8 Q-244.95,-58.778 -244.95,-58.744 L-244.95,-57.099 Q-244.95,-57.066 -244.992,-57.044 Q-245.034,-57.022 -245.096,-57.022 L-245.636,-57.022 Q-245.698,-57.022 -245.74,-57.044 Q-245.782,-57.066 -245.782,-57.099 z" fill="#1D1D1F"/>
        <path d="M-244.95,-56.675 L-244.95,-53.196 Q-244.95,-53.139 -244.995,-53.102 Q-245.04,-53.066 -245.11,-53.066 L-246.424,-53.066 Q-246.491,-53.066 -246.537,-53.102 Q-246.582,-53.139 -246.582,-53.196 L-246.582,-53.782 Q-246.582,-53.838 -246.537,-53.875 Q-246.491,-53.912 -246.424,-53.912 L-245.79,-53.912 L-245.79,-55.935 L-246.424,-55.935 Q-246.491,-55.935 -246.537,-55.972 Q-246.582,-56.009 -246.582,-56.063 L-246.582,-56.675 Q-246.582,-56.729 -246.537,-56.766 Q-246.491,-56.803 -246.424,-56.803 L-245.11,-56.803 Q-245.04,-56.803 -244.995,-56.766 Q-244.95,-56.729 -244.95,-56.675 z" fill="#1D1D1F"/>
      </g>
      <g>
        <path d="M-242.535,-54.856 L-242.535,-55.022 Q-242.535,-55.246 -242.38,-55.392 L-240.913,-56.759 Q-240.823,-56.837 -240.755,-56.791 Q-240.686,-56.746 -240.686,-56.62 L-240.686,-56.036 Q-240.686,-55.785 -240.913,-55.578 L-241.599,-54.94 L-240.913,-54.299 Q-240.686,-54.092 -240.686,-53.841 L-240.686,-53.257 Q-240.686,-53.132 -240.755,-53.088 Q-240.823,-53.044 -240.913,-53.118 L-242.38,-54.489 Q-242.535,-54.632 -242.535,-54.856 z" fill="#2C5E7C"/>
        <path d="M-242.629,-55.018 L-242.629,-54.852 Q-242.629,-54.628 -242.784,-54.482 L-244.251,-53.115 Q-244.341,-53.037 -244.41,-53.082 Q-244.478,-53.128 -244.478,-53.254 L-244.478,-53.837 Q-244.478,-54.089 -244.251,-54.296 L-243.565,-54.933 L-244.251,-55.575 Q-244.478,-55.782 -244.478,-56.033 L-244.478,-56.616 Q-244.478,-56.742 -244.41,-56.786 Q-244.341,-56.83 -244.251,-56.756 L-242.784,-55.385 Q-242.629,-55.242 -242.629,-55.018 z" fill="#2C5E7C"/>
      </g>
    </g>
    <g>
      <g>
        <path d="M-213.992,-54.85 L-213.992,-55.016 Q-213.992,-55.24 -213.837,-55.386 L-212.37,-56.753 Q-212.28,-56.831 -212.212,-56.786 Q-212.143,-56.74 -212.143,-56.614 L-212.143,-56.031 Q-212.143,-55.78 -212.37,-55.573 L-213.056,-54.935 L-212.37,-54.293 Q-212.143,-54.086 -212.143,-53.835 L-212.143,-53.252 Q-212.143,-53.126 -212.212,-53.082 Q-212.28,-53.038 -212.37,-53.112 L-213.837,-54.483 Q-213.992,-54.626 -213.992,-54.85 z" fill="#1D1D1F"/>
        <path d="M-211.104,-57.099 L-211.104,-58.744 Q-211.104,-58.778 -211.062,-58.8 Q-211.02,-58.822 -210.957,-58.822 L-210.418,-58.822 Q-210.355,-58.822 -210.313,-58.8 Q-210.271,-58.778 -210.271,-58.744 L-210.271,-57.099 Q-210.271,-57.066 -210.313,-57.044 Q-210.355,-57.022 -210.418,-57.022 L-210.957,-57.022 Q-211.02,-57.022 -211.062,-57.044 Q-211.104,-57.066 -211.104,-57.099 z" fill="#1D1D1F"/>
        <path d="M-210.271,-56.675 L-210.271,-53.196 Q-210.271,-53.139 -210.316,-53.102 Q-210.361,-53.066 -210.431,-53.066 L-211.746,-53.066 Q-211.813,-53.066 -211.858,-53.102 Q-211.903,-53.139 -211.903,-53.196 L-211.903,-53.782 Q-211.903,-53.838 -211.858,-53.875 Q-211.813,-53.912 -211.746,-53.912 L-211.112,-53.912 L-211.112,-55.935 L-211.746,-55.935 Q-211.813,-55.935 -211.858,-55.972 Q-211.903,-56.009 -211.903,-56.063 L-211.903,-56.675 Q-211.903,-56.729 -211.858,-56.766 Q-211.813,-56.803 -211.746,-56.803 L-210.431,-56.803 Q-210.361,-56.803 -210.316,-56.766 Q-210.271,-56.729 -210.271,-56.675 z" fill="#1D1D1F"/>
      </g>
      <g>
        <path d="M-207.856,-54.856 L-207.856,-55.022 Q-207.856,-55.246 -207.702,-55.392 L-206.235,-56.759 Q-206.144,-56.837 -206.076,-56.791 Q-206.008,-56.746 -206.008,-56.62 L-206.008,-56.036 Q-206.008,-55.785 -206.235,-55.578 L-206.92,-54.94 L-206.235,-54.299 Q-206.008,-54.092 -206.008,-53.841 L-206.008,-53.257 Q-206.008,-53.132 -206.076,-53.088 Q-206.144,-53.044 -206.235,-53.118 L-207.702,-54.489 Q-207.856,-54.632 -207.856,-54.856 z" fill="#2C5E7C"/>
        <path d="M-207.951,-55.018 L-207.951,-54.852 Q-207.951,-54.628 -208.106,-54.482 L-209.573,-53.115 Q-209.663,-53.037 -209.731,-53.082 Q-209.799,-53.128 -209.799,-53.254 L-209.799,-53.837 Q-209.799,-54.089 -209.573,-54.296 L-208.887,-54.933 L-209.573,-55.575 Q-209.799,-55.782 -209.799,-56.033 L-209.799,-56.616 Q-209.799,-56.742 -209.731,-56.786 Q-209.663,-56.83 -209.573,-56.756 L-208.106,-55.385 Q-207.951,-55.242 -207.951,-55.018 z" fill="#2C5E7C"/>
      </g>
    </g>
    <g>
      <g>
        <path d="M-180.242,-54.85 L-180.242,-55.016 Q-180.242,-55.24 -180.087,-55.386 L-178.62,-56.753 Q-178.53,-56.831 -178.462,-56.786 Q-178.393,-56.74 -178.393,-56.614 L-178.393,-56.031 Q-178.393,-55.78 -178.62,-55.573 L-179.306,-54.935 L-178.62,-54.293 Q-178.393,-54.086 -178.393,-53.835 L-178.393,-53.252 Q-178.393,-53.126 -178.462,-53.082 Q-178.53,-53.038 -178.62,-53.112 L-180.087,-54.483 Q-180.242,-54.626 -180.242,-54.85 z" fill="#1D1D1F"/>
        <path d="M-177.354,-57.099 L-177.354,-58.744 Q-177.354,-58.778 -177.312,-58.8 Q-177.269,-58.822 -177.207,-58.822 L-176.668,-58.822 Q-176.605,-58.822 -176.563,-58.8 Q-176.521,-58.778 -176.521,-58.744 L-176.521,-57.099 Q-176.521,-57.066 -176.563,-57.044 Q-176.605,-57.022 -176.668,-57.022 L-177.207,-57.022 Q-177.269,-57.022 -177.312,-57.044 Q-177.354,-57.066 -177.354,-57.099 z" fill="#1D1D1F"/>
        <path d="M-176.521,-56.675 L-176.521,-53.196 Q-176.521,-53.139 -176.566,-53.102 Q-176.611,-53.066 -176.681,-53.066 L-177.996,-53.066 Q-178.063,-53.066 -178.108,-53.102 Q-178.153,-53.139 -178.153,-53.196 L-178.153,-53.782 Q-178.153,-53.838 -178.108,-53.875 Q-178.063,-53.912 -177.996,-53.912 L-177.362,-53.912 L-177.362,-55.935 L-177.996,-55.935 Q-178.063,-55.935 -178.108,-55.972 Q-178.153,-56.009 -178.153,-56.063 L-178.153,-56.675 Q-178.153,-56.729 -178.108,-56.766 Q-178.063,-56.803 -177.996,-56.803 L-176.681,-56.803 Q-176.611,-56.803 -176.566,-56.766 Q-176.521,-56.729 -176.521,-56.675 z" fill="#1D1D1F"/>
      </g>
      <g>
        <path d="M-174.106,-54.856 L-174.106,-55.022 Q-174.106,-55.246 -173.951,-55.392 L-172.484,-56.759 Q-172.394,-56.837 -172.326,-56.791 Q-172.258,-56.746 -172.258,-56.62 L-172.258,-56.036 Q-172.258,-55.785 -172.484,-55.578 L-173.17,-54.94 L-172.484,-54.299 Q-172.258,-54.092 -172.258,-53.841 L-172.258,-53.257 Q-172.258,-53.132 -172.326,-53.088 Q-172.394,-53.044 -172.484,-53.118 L-173.951,-54.489 Q-174.106,-54.632 -174.106,-54.856 z" fill="#2C5E7C"/>
        <path d="M-174.201,-55.018 L-174.201,-54.852 Q-174.201,-54.628 -174.355,-54.482 L-175.822,-53.115 Q-175.913,-53.037 -175.981,-53.082 Q-176.049,-53.128 -176.049,-53.254 L-176.049,-53.837 Q-176.049,-54.089 -175.822,-54.296 L-175.137,-54.933 L-175.822,-55.575 Q-176.049,-55.782 -176.049,-56.033 L-176.049,-56.616 Q-176.049,-56.742 -175.981,-56.786 Q-175.913,-56.83 -175.822,-56.756 L-174.355,-55.385 Q-174.201,-55.242 -174.201,-55.018 z" fill="#2C5E7C"/>
      </g>
    </g>
    <g>
      <g id="Group">
        <path d="M-68.888,-140.643 L-68.888,-140.643 C-68.387,-141.144 -67.575,-141.144 -67.074,-140.643 L-64.281,-137.851 C-63.78,-137.35 -63.78,-136.537 -64.281,-136.036 L-64.281,-136.036 C-64.782,-135.535 -65.595,-135.535 -66.096,-136.036 L-68.888,-138.829 C-69.389,-139.33 -69.389,-140.142 -68.888,-140.643 z" fill="#D8D8D8" id="Rectangle-2"/>
        <path d="M-64.301,-140.663 L-64.301,-140.663 C-63.8,-140.162 -63.8,-139.349 -64.301,-138.848 L-67.093,-136.056 C-67.594,-135.554 -68.407,-135.554 -68.908,-136.056 L-68.908,-136.056 C-69.409,-136.557 -69.409,-137.369 -68.908,-137.87 L-66.115,-140.663 C-65.614,-141.164 -64.802,-141.164 -64.301,-140.663 z" fill="#D8D8D8" id="Rectangle-2"/>
      </g>
      <g id="Group">
        <path d="M-30.081,-197.975 L-30.081,-197.975 C-29.58,-198.476 -28.767,-198.476 -28.266,-197.975 L-25.474,-195.183 C-24.973,-194.682 -24.973,-193.869 -25.474,-193.368 L-25.474,-193.368 C-25.975,-192.867 -26.787,-192.867 -27.288,-193.368 L-30.081,-196.161 C-30.582,-196.662 -30.582,-197.474 -30.081,-197.975 z" fill="#D8D8D8" id="Rectangle-2"/>
        <path d="M-25.493,-197.995 L-25.493,-197.995 C-24.992,-197.494 -24.992,-196.681 -25.493,-196.18 L-28.286,-193.388 C-28.787,-192.886 -29.599,-192.886 -30.1,-193.388 L-30.1,-193.388 C-30.601,-193.889 -30.601,-194.701 -30.1,-195.202 L-27.308,-197.995 C-26.807,-198.496 -25.994,-198.496 -25.493,-197.995 z" fill="#D8D8D8" id="Rectangle-2"/>
      </g>
      <g id="Group">
        <path d="M48.402,-104.863 L48.402,-104.863 C48.903,-105.364 49.715,-105.364 50.217,-104.863 L53.009,-102.07 C53.51,-101.569 53.51,-100.757 53.009,-100.256 L53.009,-100.256 C52.508,-99.755 51.696,-99.755 51.195,-100.256 L48.402,-103.048 C47.901,-103.549 47.901,-104.362 48.402,-104.863 z" fill="#D8D8D8" id="Rectangle-2"/>
        <path d="M52.99,-104.882 L52.99,-104.882 C53.491,-104.381 53.491,-103.569 52.99,-103.068 L50.197,-100.275 C49.696,-99.774 48.884,-99.774 48.383,-100.275 L48.383,-100.275 C47.882,-100.776 47.882,-101.589 48.383,-102.09 L51.175,-104.882 C51.676,-105.383 52.489,-105.383 52.99,-104.882 z" fill="#D8D8D8" id="Rectangle-2"/>
      </g>
      <path d="M-41.712,-173.145 C-41.712,-171.738 -42.86,-170.597 -44.278,-170.597 C-45.695,-170.597 -46.844,-171.738 -46.844,-173.145 C-46.844,-174.552 -45.695,-175.692 -44.278,-175.692 C-42.86,-175.692 -41.712,-174.552 -41.712,-173.145 z" fill="#D8D8D8" id="Oval-2"/>
      <path d="M-69.912,-158.587 C-69.912,-157.18 -71.06,-156.04 -72.478,-156.04 C-73.895,-156.04 -75.044,-157.18 -75.044,-158.587 C-75.044,-159.994 -73.895,-161.135 -72.478,-161.135 C-71.06,-161.135 -69.912,-159.994 -69.912,-158.587 z" fill="#D8D8D8" id="Oval-2"/>
      <path d="M6.69,-185.699 C6.69,-184.492 5.712,-183.515 4.506,-183.515 C3.3,-183.515 2.322,-184.492 2.322,-185.699 C2.322,-186.905 3.3,-187.883 4.506,-187.883 C5.712,-187.883 6.69,-186.905 6.69,-185.699 z" fill="#D8D8D8" id="Oval-3"/>
      <path d="M53.385,-168.413 C53.385,-167.207 52.407,-166.229 51.201,-166.229 C49.995,-166.229 49.017,-167.207 49.017,-168.413 C49.017,-169.62 49.995,-170.597 51.201,-170.597 C52.407,-170.597 53.385,-169.62 53.385,-168.413 z" fill="#D8D8D8" id="Oval-3"/>
      <path d="M40.209,-147.574 C40.209,-146.367 39.232,-145.39 38.025,-145.39 C36.819,-145.39 35.841,-146.367 35.841,-147.574 C35.841,-148.78 36.819,-149.758 38.025,-149.758 C39.232,-149.758 40.209,-148.78 40.209,-147.574 z" fill="#D8D8D8" id="Oval-3"/>
      <path d="M-59.537,-180.24 C-59.537,-179.034 -60.515,-178.056 -61.721,-178.056 C-62.928,-178.056 -63.905,-179.034 -63.905,-180.24 C-63.905,-181.446 -62.928,-182.424 -61.721,-182.424 C-60.515,-182.424 -59.537,-181.446 -59.537,-180.24 z" fill="#D8D8D8" id="Oval-3"/>
      <path d="M33.588,-171.785 C33.515,-170.38 32.309,-169.301 30.893,-169.374 C29.478,-169.448 28.39,-170.646 28.463,-172.051 C28.536,-173.456 29.742,-174.536 31.158,-174.462 C32.573,-174.389 33.661,-173.19 33.588,-171.785 z" fill-opacity="0" stroke="#D8D8D8" stroke-width="1" id="Oval"/>
      <path d="M43.838,-200.285 C43.765,-198.88 42.559,-197.801 41.143,-197.874 C39.728,-197.948 38.64,-199.146 38.713,-200.551 C38.786,-201.956 39.992,-203.036 41.408,-202.962 C42.823,-202.889 43.911,-201.69 43.838,-200.285 z" fill-opacity="0" stroke="#D8D8D8" stroke-width="1" id="Oval"/>
      <path d="M65.309,-132.613 C65.309,-131.206 64.161,-130.065 62.743,-130.065 C61.326,-130.065 60.177,-131.206 60.177,-132.613 C60.177,-134.02 61.326,-135.16 62.743,-135.16 C64.161,-135.16 65.309,-134.02 65.309,-132.613 z" fill-opacity="0" stroke="#D8D8D8" stroke-width="1" id="Oval"/>
      <path d="M-82.016,-120.681 L-79.533,-118.199 L-77.021,-120.711 L-79.504,-123.193 L-82.016,-120.681 z" fill-opacity="0" stroke="#D8D8D8" stroke-width="1" id="Rectangle-3"/>
      <path d="M-8.43,-105.019 C-11.436,-105.333 -14.417,-104.292 -16.579,-102.13 C-18.536,-100.173 -19.61,-97.463 -19.524,-94.695 C-19.437,-91.886 -18.224,-89.311 -16.11,-87.444 C-12.29,-84.074 -6.547,-84.095 -2.75,-87.491 C-0.333,-89.659 0.88,-92.849 0.554,-96.035 L10.218,-86.371 L-11.069,-65.084 C-14.815,-61.338 -20.91,-61.338 -24.656,-65.084 L-45.942,-86.371 L-33.963,-98.351 C-33.623,-98.69 -33.44,-99.156 -33.458,-99.636 C-33.476,-100.116 -33.692,-100.567 -34.056,-100.88 C-35.288,-101.942 -36.942,-102.373 -38.481,-102.033 C-40.811,-101.519 -43.25,-102.306 -44.843,-104.086 C-47.037,-106.537 -47.051,-110.389 -44.877,-112.854 C-43.651,-114.247 -41.958,-115.044 -40.113,-115.102 C-38.266,-115.159 -36.53,-114.472 -35.224,-113.166 C-33.629,-111.571 -32.964,-109.299 -33.446,-107.084 C-33.78,-105.529 -33.352,-103.869 -32.301,-102.642 C-31.988,-102.277 -31.536,-102.059 -31.056,-102.041 C-30.575,-102.022 -30.108,-102.205 -29.768,-102.545 L-17.862,-114.451 L-8.431,-105.019 L-8.43,-105.019 z M-21.743,-134.255 C-23.337,-132.661 -25.61,-131.995 -27.821,-132.474 C-29.339,-132.805 -30.914,-132.425 -32.143,-131.431 C-32.523,-131.123 -32.755,-130.668 -32.781,-130.179 C-32.807,-129.69 -32.624,-129.213 -32.277,-128.867 L-20.305,-116.894 L-29.911,-107.288 C-29.536,-110.349 -30.575,-113.402 -32.781,-115.608 C-34.74,-117.567 -37.451,-118.641 -40.221,-118.554 C-42.81,-118.473 -45.2,-117.436 -47.019,-115.617 C-47.172,-115.463 -47.322,-115.303 -47.468,-115.139 C-50.835,-111.32 -50.814,-105.578 -47.417,-101.782 C-45.211,-99.319 -41.944,-98.107 -38.703,-98.496 L-49.606,-87.592 C-50.281,-86.918 -50.281,-85.824 -49.606,-85.15 L-27.098,-62.642 C-22.005,-57.549 -13.719,-57.549 -8.626,-62.642 L28.436,-99.704 C29.111,-100.379 29.111,-101.472 28.436,-102.147 C27.762,-102.821 26.668,-102.821 25.994,-102.147 L12.66,-88.814 L0.609,-100.865 C0.263,-101.211 -0.213,-101.394 -0.701,-101.369 C-1.189,-101.344 -1.645,-101.112 -1.952,-100.734 C-2.951,-99.505 -3.334,-97.936 -3.002,-96.429 C-2.489,-94.097 -3.278,-91.659 -5.054,-90.065 C-7.046,-88.284 -9.963,-87.94 -12.309,-89.041 C-12.399,-89.083 -12.489,-89.128 -12.577,-89.174 C-12.931,-89.361 -13.27,-89.581 -13.589,-89.836 C-13.668,-89.9 -13.747,-89.965 -13.824,-90.033 C-15.216,-91.263 -16.014,-92.956 -16.071,-94.802 C-16.128,-96.647 -15.441,-98.382 -14.137,-99.687 C-12.543,-101.28 -10.269,-101.945 -8.053,-101.465 C-6.534,-101.137 -4.96,-101.517 -3.734,-102.509 C-3.639,-102.586 -3.553,-102.672 -3.477,-102.766 C-3.25,-103.047 -3.115,-103.395 -3.096,-103.761 C-3.077,-104.128 -3.175,-104.488 -3.371,-104.791 C-3.436,-104.892 -3.513,-104.987 -3.599,-105.073 L-15.42,-116.894 L-13.506,-118.808 C-12.831,-119.482 -12.831,-120.576 -13.506,-121.25 C-14.18,-121.925 -15.274,-121.925 -15.948,-121.25 L-17.862,-119.336 L-27.447,-128.921 C-24.443,-128.608 -21.463,-129.65 -19.3,-131.812 C-17.342,-133.77 -16.269,-136.48 -16.354,-139.247 C-16.442,-142.055 -17.654,-144.63 -19.769,-146.499 C-23.588,-149.867 -29.33,-149.845 -33.125,-146.449 C-35.546,-144.286 -36.759,-141.094 -36.433,-137.908 L-45.942,-147.416 L-24.655,-168.703 C-20.91,-172.449 -14.815,-172.449 -11.069,-168.703 L10.218,-147.417 L-1.746,-135.453 C-2.098,-135.101 -2.281,-134.613 -2.248,-134.116 C-2.215,-133.619 -1.968,-133.161 -1.572,-132.858 C-0.364,-131.937 1.158,-131.59 2.604,-131.907 C4.934,-132.421 7.371,-131.635 8.964,-129.857 C11.157,-127.405 11.172,-123.554 8.997,-121.089 C7.771,-119.696 6.077,-118.898 4.233,-118.84 C2.387,-118.782 0.651,-119.469 -0.653,-120.774 C-2.25,-122.371 -2.916,-124.643 -2.434,-126.857 C-2.121,-128.31 -2.464,-129.836 -3.375,-131.043 C-3.676,-131.442 -4.135,-131.691 -4.634,-131.725 C-5.132,-131.76 -5.621,-131.577 -5.975,-131.224 L-11.063,-126.135 C-11.738,-125.461 -11.738,-124.367 -11.063,-123.692 C-10.389,-123.018 -9.295,-123.018 -8.621,-123.692 L-6.005,-126.308 C-6.263,-123.364 -5.22,-120.455 -3.096,-118.331 C-1.139,-116.374 1.572,-115.301 4.341,-115.387 C7.149,-115.475 9.721,-116.688 11.588,-118.803 C14.956,-122.621 14.935,-128.363 11.538,-132.16 C9.41,-134.536 6.292,-135.747 3.166,-135.479 L12.661,-144.974 L33.947,-123.687 C37.693,-119.941 37.693,-113.846 33.947,-110.101 L30.879,-107.032 C30.204,-106.358 30.204,-105.264 30.879,-104.589 C31.553,-103.915 32.647,-103.915 33.321,-104.589 L36.39,-107.658 C41.483,-112.751 41.483,-121.037 36.39,-126.13 L-8.626,-171.146 C-13.719,-176.239 -22.005,-176.239 -27.098,-171.146 L-49.606,-148.638 C-50.281,-147.963 -50.281,-146.87 -49.606,-146.195 L-36.489,-133.077 C-36.143,-132.732 -35.667,-132.549 -35.178,-132.574 C-34.69,-132.599 -34.235,-132.83 -33.927,-133.209 C-32.928,-134.438 -32.546,-136.007 -32.877,-137.514 C-33.39,-139.846 -32.603,-142.283 -30.823,-143.875 C-28.372,-146.068 -24.52,-146.083 -22.056,-143.909 C-20.663,-142.679 -19.865,-140.985 -19.808,-139.14 C-19.751,-137.295 -20.438,-135.56 -21.743,-134.255" fill="#444444"/>
      <path d="M-8.417,-105.027 C-11.423,-105.34 -14.403,-104.299 -16.566,-102.137 C-18.523,-100.18 -19.596,-97.47 -19.51,-94.703 C-19.423,-91.894 -18.211,-89.319 -16.096,-87.451 C-12.276,-84.082 -6.533,-84.102 -2.736,-87.499 C-0.319,-89.666 0.894,-92.857 0.568,-96.042 L10.232,-86.379 L-11.055,-65.092 C-14.801,-61.346 -20.896,-61.346 -24.642,-65.092 L-45.929,-86.379 L-33.949,-98.358 C-33.609,-98.698 -33.427,-99.163 -33.444,-99.643 C-33.462,-100.123 -33.679,-100.574 -34.043,-100.888 C-35.274,-101.949 -36.928,-102.38 -38.468,-102.041 C-40.798,-101.527 -43.236,-102.313 -44.83,-104.093 C-47.023,-106.545 -47.038,-110.396 -44.863,-112.861 C-43.637,-114.254 -41.944,-115.051 -40.099,-115.109 C-38.253,-115.167 -36.516,-114.479 -35.21,-113.173 C-33.615,-111.578 -32.95,-109.306 -33.432,-107.092 C-33.766,-105.536 -33.338,-103.876 -32.287,-102.65 C-31.974,-102.285 -31.523,-102.066 -31.042,-102.048 C-30.561,-102.03 -30.095,-102.213 -29.755,-102.553 L-17.849,-114.459 L-8.417,-105.027 L-8.417,-105.027 z" fill="url(#Gradient_2)"/>
    </g>
    <g>
      <g id="Group">
        <path d="M131.112,-146.77 L131.112,-146.77 C131.613,-147.271 132.425,-147.271 132.926,-146.77 L135.719,-143.977 C136.22,-143.476 136.22,-142.664 135.719,-142.162 L135.719,-142.162 C135.218,-141.661 134.405,-141.661 133.904,-142.162 L131.112,-144.955 C130.611,-145.456 130.611,-146.269 131.112,-146.77 z" fill="#D8D8D8" id="Rectangle-2"/>
        <path d="M135.699,-146.789 L135.699,-146.789 C136.2,-146.288 136.2,-145.476 135.699,-144.975 L132.907,-142.182 C132.406,-141.681 131.593,-141.681 131.092,-142.182 L131.092,-142.182 C130.591,-142.683 130.591,-143.495 131.092,-143.996 L133.885,-146.789 C134.386,-147.29 135.198,-147.29 135.699,-146.789 z" fill="#D8D8D8" id="Rectangle-2"/>
      </g>
      <g id="Group">
        <path d="M172.213,-207.163 L172.213,-207.163 C173.383,-207.163 174.331,-206.215 174.331,-205.045 L174.331,-198.525 C174.331,-197.355 173.383,-196.407 172.213,-196.407 L172.213,-196.407 C171.043,-196.407 170.095,-197.355 170.095,-198.525 L170.095,-205.045 C170.095,-206.215 171.043,-207.163 172.213,-207.163 z" fill="#D8D8D8" id="Rectangle-2"/>
        <path d="M177.591,-201.831 L177.591,-201.831 C177.591,-200.661 176.643,-199.712 175.473,-199.712 L168.953,-199.712 C167.783,-199.712 166.835,-200.661 166.835,-201.831 L166.835,-201.831 C166.835,-203 167.783,-203.949 168.953,-203.949 L175.473,-203.949 C176.643,-203.949 177.591,-203 177.591,-201.831 z" fill="#D8D8D8" id="Rectangle-2"/>
      </g>
      <g id="Group">
        <path d="M262.243,-163.17 L262.243,-163.17 C263.413,-163.17 264.361,-162.222 264.361,-161.052 L264.361,-154.533 C264.361,-153.363 263.413,-152.415 262.243,-152.415 L262.243,-152.415 C261.074,-152.415 260.125,-153.363 260.125,-154.533 L260.125,-161.052 C260.125,-162.222 261.074,-163.17 262.243,-163.17 z" fill="#D8D8D8" id="Rectangle-2"/>
        <path d="M267.621,-157.838 L267.621,-157.838 C267.621,-156.668 266.673,-155.72 265.503,-155.72 L258.983,-155.72 C257.814,-155.72 256.865,-156.668 256.865,-157.838 L256.865,-157.838 C256.865,-159.008 257.814,-159.956 258.983,-159.956 L265.503,-159.956 C266.673,-159.956 267.621,-159.008 267.621,-157.838 z" fill="#D8D8D8" id="Rectangle-2"/>
      </g>
      <g id="Group">
        <path d="M248.402,-110.989 L248.402,-110.989 C248.903,-111.49 249.716,-111.49 250.217,-110.989 L253.009,-108.197 C253.51,-107.695 253.51,-106.883 253.009,-106.382 L253.009,-106.382 C252.508,-105.881 251.696,-105.881 251.195,-106.382 L248.402,-109.175 C247.901,-109.676 247.901,-110.488 248.402,-110.989 z" fill="#D8D8D8" id="Rectangle-2"/>
        <path d="M252.99,-111.009 L252.99,-111.009 C253.491,-110.508 253.491,-109.695 252.99,-109.194 L250.197,-106.401 C249.696,-105.9 248.884,-105.9 248.383,-106.401 L248.383,-106.401 C247.882,-106.903 247.882,-107.715 248.383,-108.216 L251.175,-111.009 C251.676,-111.51 252.489,-111.51 252.99,-111.009 z" fill="#D8D8D8" id="Rectangle-2"/>
      </g>
      <path d="M158.288,-179.271 C158.288,-177.864 157.14,-176.724 155.722,-176.724 C154.305,-176.724 153.156,-177.864 153.156,-179.271 C153.156,-180.678 154.305,-181.819 155.722,-181.819 C157.14,-181.819 158.288,-180.678 158.288,-179.271 z" fill="#D8D8D8" id="Oval-2"/>
      <path d="M130.088,-164.714 C130.088,-163.307 128.94,-162.166 127.522,-162.166 C126.105,-162.166 124.956,-163.307 124.956,-164.714 C124.956,-166.12 126.105,-167.261 127.522,-167.261 C128.94,-167.261 130.088,-166.12 130.088,-164.714 z" fill="#D8D8D8" id="Oval-2"/>
      <path d="M206.69,-191.825 C206.69,-190.619 205.712,-189.641 204.506,-189.641 C203.3,-189.641 202.322,-190.619 202.322,-191.825 C202.322,-193.031 203.3,-194.009 204.506,-194.009 C205.712,-194.009 206.69,-193.031 206.69,-191.825 z" fill="#D8D8D8" id="Oval-3"/>
      <path d="M253.385,-174.54 C253.385,-173.334 252.407,-172.356 251.201,-172.356 C249.995,-172.356 249.017,-173.334 249.017,-174.54 C249.017,-175.746 249.995,-176.724 251.201,-176.724 C252.407,-176.724 253.385,-175.746 253.385,-174.54 z" fill="#D8D8D8" id="Oval-3"/>
      <path d="M240.209,-153.7 C240.209,-152.494 239.232,-151.516 238.025,-151.516 C236.819,-151.516 235.841,-152.494 235.841,-153.7 C235.841,-154.906 236.819,-155.884 238.025,-155.884 C239.232,-155.884 240.209,-154.906 240.209,-153.7 z" fill="#D8D8D8" id="Oval-3"/>
      <path d="M140.463,-186.367 C140.463,-185.161 139.485,-184.183 138.279,-184.183 C137.072,-184.183 136.095,-185.161 136.095,-186.367 C136.095,-187.573 137.072,-188.551 138.279,-188.551 C139.485,-188.551 140.463,-187.573 140.463,-186.367 z" fill="#D8D8D8" id="Oval-3"/>
      <path d="M233.588,-177.911 C233.515,-176.506 232.309,-175.427 230.893,-175.5 C229.478,-175.574 228.39,-176.773 228.463,-178.178 C228.536,-179.583 229.742,-180.662 231.158,-180.588 C232.573,-180.515 233.661,-179.316 233.588,-177.911 z" fill-opacity="0" stroke="#D8D8D8" stroke-width="1" id="Oval"/>
      <path d="M113.338,-188.661 C113.265,-187.256 112.059,-186.177 110.643,-186.25 C109.228,-186.324 108.14,-187.523 108.213,-188.928 C108.286,-190.333 109.492,-191.412 110.908,-191.338 C112.323,-191.265 113.411,-190.066 113.338,-188.661 z" fill-opacity="0" stroke="#D8D8D8" stroke-width="1" id="Oval"/>
      <path d="M243.838,-206.411 C243.765,-205.006 242.559,-203.927 241.143,-204 C239.728,-204.074 238.64,-205.273 238.713,-206.678 C238.786,-208.083 239.992,-209.162 241.408,-209.088 C242.823,-209.015 243.911,-207.816 243.838,-206.411 z" fill-opacity="0" stroke="#D8D8D8" stroke-width="1" id="Oval"/>
      <path d="M265.309,-138.739 C265.309,-137.332 264.161,-136.192 262.743,-136.192 C261.326,-136.192 260.177,-137.332 260.177,-138.739 C260.177,-140.146 261.326,-141.287 262.743,-141.287 C264.161,-141.287 265.309,-140.146 265.309,-138.739 z" fill-opacity="0" stroke="#D8D8D8" stroke-width="1" id="Oval"/>
      <path d="M117.984,-126.807 L120.467,-124.325 L122.979,-126.837 L120.496,-129.32 L117.984,-126.807 z" fill-opacity="0" stroke="#D8D8D8" stroke-width="1" id="Rectangle-3"/>
      <g>
        <path d="M228.271,-112.682 L224.48,-120.261 C225.284,-121.893 225.973,-123.541 226.539,-125.182 L234.563,-127.857 L234.563,-149.816 L226.539,-152.492 C225.975,-154.132 225.284,-155.781 224.48,-157.412 L228.274,-164.999 L212.748,-180.525 L205.161,-176.731 C203.53,-177.535 201.881,-178.226 200.241,-178.79 L197.565,-186.814 L175.606,-186.814 L172.931,-178.79 C171.29,-178.226 169.642,-177.535 168.01,-176.731 L160.423,-180.525 L144.897,-164.999 L148.691,-157.412 C147.887,-155.781 147.197,-154.132 146.633,-152.492 L138.609,-149.816 L138.609,-127.859 L146.633,-125.185 C147.193,-123.555 147.874,-121.922 148.671,-120.304 L146.202,-115.808 L134.77,-115.808 L134.77,-77.426 L148.204,-77.426 L148.204,-83.183 L162.762,-83.183 L168.519,-77.426 L178.909,-77.426 L178.909,-75.507 C178.909,-71.273 182.352,-67.831 186.586,-67.831 C190.819,-67.831 194.262,-71.273 194.262,-75.507 L194.262,-77.426 L207.698,-77.426 C210.871,-77.426 213.455,-80.01 213.455,-83.183 C213.455,-84.663 212.878,-86 211.958,-87.021 C212.879,-88.043 213.455,-89.38 213.455,-90.86 C213.455,-92.339 212.878,-93.676 211.958,-94.698 C212.691,-95.511 213.191,-96.527 213.367,-97.659 z M152.544,-121.155 C151.488,-123.182 150.626,-125.244 149.983,-127.278 L149.687,-128.211 L142.447,-130.625 L142.447,-147.05 L149.687,-149.463 L149.981,-150.397 C150.622,-152.43 151.484,-154.491 152.541,-156.519 L152.992,-157.389 L149.567,-164.241 L161.179,-175.854 L168.032,-172.428 L168.902,-172.879 C170.931,-173.937 172.991,-174.798 175.023,-175.44 L175.958,-175.733 L178.374,-182.976 L194.799,-182.976 L197.212,-175.735 L198.146,-175.442 C200.179,-174.801 202.24,-173.939 204.268,-172.882 L205.138,-172.43 L211.99,-175.856 L223.603,-164.243 L220.177,-157.391 L220.628,-156.521 C221.686,-154.491 222.547,-152.432 223.189,-150.399 L223.482,-149.465 L230.725,-147.048 L230.725,-130.624 L223.484,-128.211 L223.189,-127.278 C222.545,-125.244 221.684,-123.182 220.628,-121.155 L220.177,-120.285 L223.607,-113.428 L212.267,-102 C212.169,-102.129 212.065,-102.255 211.958,-102.374 C212.879,-103.396 213.455,-104.733 213.455,-106.212 C213.455,-109.206 211.15,-111.644 208.227,-111.916 C216.368,-118.441 221.129,-128.232 221.129,-138.837 C221.129,-157.883 205.632,-173.38 186.586,-173.38 C167.539,-173.38 152.042,-157.883 152.042,-138.837 C152.042,-128.36 156.805,-118.506 164.89,-111.97 L148.475,-111.97 L153.017,-120.245 z M209.617,-90.86 C209.617,-89.801 208.755,-88.941 207.698,-88.941 L192.343,-88.941 C191.286,-88.941 190.424,-89.801 190.424,-90.86 C190.424,-91.918 191.286,-92.779 192.343,-92.779 L207.698,-92.779 C208.755,-92.779 209.617,-91.918 209.617,-90.86 z M181.953,-138.837 L191.218,-138.837 L194.262,-141.88 L194.262,-150.351 C196.379,-150.351 198.1,-148.63 198.1,-146.513 L198.1,-137.712 L191.549,-131.16 L181.623,-131.16 L175.071,-137.712 L175.071,-146.513 C175.071,-148.63 176.793,-150.351 178.909,-150.351 L178.909,-141.88 z M182.748,-127.322 L190.424,-127.322 L190.424,-119.646 L182.748,-119.646 z M194.262,-128.447 L201.938,-136.123 L201.938,-146.513 C201.938,-150.747 198.496,-154.189 194.262,-154.189 L190.424,-154.189 L190.424,-143.469 L189.629,-142.675 L183.542,-142.675 L182.748,-143.469 L182.748,-154.189 L178.909,-154.189 C174.676,-154.189 171.233,-150.747 171.233,-146.513 L171.233,-136.123 L178.909,-128.447 L178.909,-119.646 L174.277,-119.646 L174.156,-119.525 C167.604,-123.753 163.557,-131.001 163.557,-138.837 C163.557,-151.536 173.887,-161.866 186.586,-161.866 C199.285,-161.866 209.615,-151.536 209.615,-138.837 C209.615,-131.058 205.729,-123.935 199.225,-119.646 L194.262,-119.646 z M213.453,-138.837 C213.453,-153.653 201.402,-165.704 186.586,-165.704 C171.77,-165.704 159.719,-153.653 159.719,-138.837 C159.719,-129.972 164.128,-121.719 171.361,-116.731 L168.598,-113.967 C160.628,-119.74 155.88,-128.978 155.88,-138.837 C155.88,-155.766 169.656,-169.542 186.586,-169.542 C203.515,-169.542 217.291,-155.766 217.291,-138.837 C217.291,-129.353 213.004,-120.602 205.685,-114.8 C205.465,-116.161 204.771,-117.351 203.773,-118.216 C209.889,-123.294 213.453,-130.771 213.453,-138.837 z M207.698,-108.131 C208.755,-108.131 209.617,-107.271 209.617,-106.212 C209.617,-105.153 208.755,-104.293 207.698,-104.293 L192.343,-104.293 C191.286,-104.293 190.424,-105.153 190.424,-106.212 C190.424,-107.271 191.286,-108.131 192.343,-108.131 z M192.343,-96.617 C191.286,-96.617 190.424,-97.477 190.424,-98.536 C190.424,-99.595 191.286,-100.455 192.343,-100.455 L207.698,-100.455 C208.755,-100.455 209.617,-99.595 209.617,-98.536 C209.617,-97.477 208.755,-96.617 207.698,-96.617 z M138.609,-111.97 L144.366,-111.97 L144.366,-81.264 L138.609,-81.264 z M170.108,-81.264 L164.351,-87.021 L148.204,-87.021 L148.204,-108.131 L168.189,-108.131 L175.866,-115.808 L200.019,-115.808 C201.076,-115.808 201.938,-114.948 201.938,-113.889 C201.938,-112.83 201.076,-111.97 200.019,-111.97 L180.034,-111.97 L171.795,-103.731 L174.509,-101.017 L178.909,-105.418 L178.909,-81.264 z M186.586,-71.669 C184.469,-71.669 182.748,-73.39 182.748,-75.507 L182.748,-108.131 L186.939,-108.131 C186.723,-107.529 186.586,-106.888 186.586,-106.212 C186.586,-104.733 187.163,-103.396 188.082,-102.374 C187.161,-101.353 186.586,-100.016 186.586,-98.536 C186.586,-97.056 187.163,-95.719 188.082,-94.698 C187.161,-93.676 186.586,-92.339 186.586,-90.86 C186.586,-89.38 187.163,-88.043 188.082,-87.021 C187.161,-86 186.586,-84.663 186.586,-83.183 C186.586,-80.685 188.196,-78.574 190.424,-77.779 L190.424,-75.507 C190.424,-73.39 188.703,-71.669 186.586,-71.669 z M207.698,-81.264 L192.343,-81.264 C191.286,-81.264 190.424,-82.124 190.424,-83.183 C190.424,-84.242 191.286,-85.102 192.343,-85.102 L207.698,-85.102 C208.755,-85.102 209.617,-84.242 209.617,-83.183 C209.617,-82.124 208.755,-81.264 207.698,-81.264 z M207.698,-81.264" fill="#444444"/>
        <path d="M194.781,-182.994 L178.356,-182.994 L175.939,-175.752 L175.005,-175.458 C172.973,-174.816 170.913,-173.955 168.883,-172.897 L168.014,-172.446 L161.161,-175.872 L149.548,-164.259 L152.974,-157.407 L152.522,-156.537 C151.466,-154.509 150.604,-152.447 149.962,-150.415 L149.669,-149.481 L142.429,-147.068 L142.429,-130.644 L149.669,-128.229 L149.964,-127.296 C150.608,-125.262 151.469,-123.2 152.525,-121.172 L152.998,-120.263 L148.457,-111.988 L164.872,-111.988 C156.787,-118.523 152.024,-128.378 152.024,-138.855 C152.024,-157.901 167.521,-173.398 186.568,-173.398 C205.614,-173.398 221.111,-157.901 221.111,-138.855 C221.111,-128.25 216.35,-118.459 208.209,-111.934 C211.132,-111.661 213.437,-109.224 213.437,-106.23 C213.437,-104.751 212.861,-103.413 211.94,-102.392 C212.047,-102.273 212.151,-102.147 212.249,-102.018 L223.589,-113.446 L220.159,-120.303 L220.61,-121.173 C221.666,-123.2 222.527,-125.262 223.171,-127.296 L223.466,-128.229 L230.707,-130.642 L230.707,-147.066 L223.464,-149.483 L223.171,-150.417 C222.529,-152.449 221.668,-154.509 220.61,-156.539 L220.159,-157.409 L223.585,-164.261 L211.972,-175.874 L205.119,-172.448 L204.25,-172.9 C202.222,-173.957 200.161,-174.819 198.128,-175.46 L197.194,-175.753 L194.781,-182.994 z" fill="url(#Gradient_3)"/>
      </g>
    </g>
    <g>
      <g>
        <path d="M457.316,-80.042 L374.415,-80.042 C372.827,-80.042 371.539,-81.33 371.539,-82.918 L371.539,-150.964 L460.192,-150.964 L460.192,-82.918 C460.192,-81.33 458.905,-80.042 457.316,-80.042" fill="#D6D6D6"/>
        <path d="M460.192,-150.964 L371.539,-150.964 L371.539,-162.864 C371.539,-164.452 372.827,-165.74 374.415,-165.74 L457.316,-165.74 C458.905,-165.74 460.192,-164.452 460.192,-162.864 L460.192,-150.964" fill="#444444"/>
        <path d="M381.143,-162.046 C383.183,-162.046 384.837,-160.392 384.837,-158.352 C384.837,-156.312 383.183,-154.658 381.143,-154.658 C379.103,-154.658 377.449,-156.312 377.449,-158.352 C377.449,-160.392 379.103,-162.046 381.143,-162.046" fill="#3C6075"/>
        <path d="M392.964,-162.046 C395.004,-162.046 396.658,-160.392 396.658,-158.352 C396.658,-156.312 395.004,-154.658 392.964,-154.658 C390.924,-154.658 389.27,-156.312 389.27,-158.352 C389.27,-160.392 390.924,-162.046 392.964,-162.046" fill="#3C6075"/>
        <path d="M405.065,-162.046 C407.105,-162.046 408.759,-160.392 408.759,-158.352 C408.759,-156.312 407.105,-154.658 405.065,-154.658 C403.024,-154.658 401.371,-156.312 401.371,-158.352 C401.371,-160.392 403.024,-162.046 405.065,-162.046" fill="#3C6075"/>
        <path d="M472.836,-87.034 L479.383,-88.645 L479.383,-96.893 L472.836,-98.504 C472.156,-101.594 470.934,-104.476 469.282,-107.06 L472.778,-112.839 L466.946,-118.671 L461.168,-115.175 C458.583,-116.826 455.702,-118.048 452.612,-118.728 L451.001,-125.275 L442.753,-125.275 L441.142,-118.728 C438.051,-118.048 435.17,-116.826 432.585,-115.174 L426.807,-118.67 L420.975,-112.838 L424.471,-107.059 C422.819,-104.475 421.598,-101.594 420.918,-98.504 L414.37,-96.892 L414.37,-88.645 L420.918,-87.034 C421.598,-83.943 422.819,-81.062 424.471,-78.478 L420.975,-72.7 L426.808,-66.867 L432.585,-70.363 C435.17,-68.711 438.051,-67.49 441.142,-66.81 L442.753,-60.263 L451.001,-60.263 L452.612,-66.81 C455.703,-67.49 458.584,-68.711 461.169,-70.363 L466.946,-66.868 L472.778,-72.7 L469.283,-78.478 C470.935,-81.062 472.156,-83.944 472.836,-87.034" fill="url(#Gradient_4)"/>
        <path d="M446.878,-113.456 C458.302,-113.456 467.563,-104.194 467.563,-92.77 C467.563,-81.345 458.302,-72.084 446.878,-72.084 C435.453,-72.084 426.192,-81.345 426.192,-92.77 C426.192,-104.194 435.453,-113.456 446.878,-113.456" fill="#FFFFFF"/>
        <path d="M446.878,-104.59 C453.405,-104.59 458.697,-99.298 458.697,-92.77 C458.697,-86.242 453.405,-80.95 446.878,-80.95 C440.35,-80.95 435.058,-86.242 435.058,-92.77 C435.058,-99.298 440.35,-104.59 446.878,-104.59" fill="#3C6075"/>
        <path d="M394.009,-129.546 L391.268,-135.764 L388.526,-129.546 L394.009,-129.546 z M387.49,-127.194 L385.979,-123.761 L383.259,-123.761 L389.907,-138.85 L392.628,-138.85 L399.276,-123.761 L396.557,-123.761 L395.045,-127.194 L387.49,-127.194" fill="#444444"/>
        <path d="M409.758,-131.307 C410.268,-131.846 410.524,-132.637 410.524,-133.68 C410.524,-134.724 410.199,-135.461 409.552,-135.894 C408.905,-136.326 407.89,-136.54 406.508,-136.54 L403.918,-136.54 L403.918,-130.497 L406.876,-130.497 C408.285,-130.497 409.246,-130.766 409.758,-131.307 z M411.56,-137.535 C412.611,-136.656 413.136,-135.303 413.136,-133.476 C413.136,-131.648 412.599,-130.309 411.528,-129.46 C410.455,-128.612 408.811,-128.187 406.594,-128.187 L403.918,-128.187 L403.918,-123.761 L401.371,-123.761 L401.371,-138.85 L406.551,-138.85 C408.84,-138.85 410.51,-138.411 411.56,-137.535" fill="#444444"/>
        <path d="M416.137,-138.85 L418.684,-138.85 L418.684,-123.761 L416.137,-123.761 z" fill="#444444"/>
        <path d="M451.565,-155.476 L417.509,-155.476 C415.921,-155.476 414.634,-156.764 414.634,-158.352 C414.634,-159.941 415.921,-161.228 417.509,-161.228 L451.565,-161.228 C453.153,-161.228 454.441,-159.941 454.441,-158.352 C454.441,-156.764 453.153,-155.476 451.565,-155.476" fill="#D8DADA"/>
      </g>
      <g id="Group">
        <path d="M482.072,-159.694 L482.072,-159.694 C482.781,-159.694 483.355,-159.119 483.355,-158.411 L483.355,-153.334 C483.355,-152.626 482.781,-152.051 482.072,-152.051 L482.072,-152.051 C481.364,-152.051 480.789,-152.626 480.789,-153.334 L480.789,-158.411 C480.789,-159.119 481.364,-159.694 482.072,-159.694 z" fill="#D8D8D8" id="Rectangle-2"/>
        <path d="M485.893,-155.872 L485.893,-155.872 C485.893,-155.164 485.319,-154.589 484.61,-154.589 L479.534,-154.589 C478.826,-154.589 478.251,-155.164 478.251,-155.872 L478.251,-155.872 C478.251,-156.581 478.826,-157.155 479.534,-157.155 L484.61,-157.155 C485.319,-157.155 485.893,-156.581 485.893,-155.872 z" fill="#D8D8D8" id="Rectangle-2"/>
      </g>
      <g id="Group">
        <path d="M399.406,-197.694 L399.406,-197.694 C400.114,-197.694 400.689,-197.119 400.689,-196.41 L400.689,-191.334 C400.689,-190.626 400.114,-190.051 399.406,-190.051 L399.406,-190.051 C398.697,-190.051 398.123,-190.626 398.123,-191.334 L398.123,-196.41 C398.123,-197.119 398.697,-197.694 399.406,-197.694 z" fill="#D8D8D8" id="Rectangle-2"/>
        <path d="M403.227,-193.872 L403.227,-193.872 C403.227,-193.164 402.652,-192.589 401.944,-192.589 L396.868,-192.589 C396.159,-192.589 395.585,-193.164 395.585,-193.872 L395.585,-193.872 C395.585,-194.581 396.159,-195.155 396.868,-195.155 L401.944,-195.155 C402.652,-195.155 403.227,-194.581 403.227,-193.872 z" fill="#D8D8D8" id="Rectangle-2"/>
      </g>
      <g id="Group">
        <path d="M336.296,-138.359 L336.296,-138.359 C336.797,-138.86 337.609,-138.86 338.11,-138.359 L340.903,-135.566 C341.404,-135.065 341.404,-134.253 340.903,-133.752 L340.903,-133.752 C340.402,-133.251 339.589,-133.251 339.088,-133.752 L336.296,-136.544 C335.795,-137.045 335.795,-137.858 336.296,-138.359 z" fill="#D8D8D8" id="Rectangle-2"/>
        <path d="M340.883,-138.378 L340.883,-138.378 C341.384,-137.877 341.384,-137.065 340.883,-136.564 L338.091,-133.771 C337.59,-133.27 336.777,-133.27 336.276,-133.771 L336.276,-133.771 C335.775,-134.272 335.775,-135.085 336.276,-135.586 L339.069,-138.378 C339.57,-138.879 340.382,-138.879 340.883,-138.378 z" fill="#D8D8D8" id="Rectangle-2"/>
      </g>
      <g id="Group">
        <path d="M479.778,-103.422 L479.778,-103.422 C480.279,-103.923 481.092,-103.923 481.593,-103.422 L484.386,-100.629 C484.887,-100.128 484.887,-99.316 484.386,-98.815 L484.386,-98.815 C483.885,-98.314 483.072,-98.314 482.571,-98.815 L479.778,-101.607 C479.277,-102.108 479.277,-102.921 479.778,-103.422 z" fill="#D8D8D8" id="Rectangle-2"/>
        <path d="M484.366,-103.441 L484.366,-103.441 C484.867,-102.94 484.867,-102.128 484.366,-101.627 L481.573,-98.834 C481.072,-98.333 480.26,-98.333 479.759,-98.834 L479.759,-98.834 C479.258,-99.335 479.258,-100.147 479.759,-100.649 L482.552,-103.441 C483.053,-103.942 483.865,-103.942 484.366,-103.441 z" fill="#D8D8D8" id="Rectangle-2"/>
      </g>
      <path d="M389.665,-171.704 C389.665,-170.297 388.516,-169.156 387.099,-169.156 C385.682,-169.156 384.533,-170.297 384.533,-171.704 C384.533,-173.111 385.682,-174.251 387.099,-174.251 C388.516,-174.251 389.665,-173.111 389.665,-171.704 z" fill="#D8D8D8" id="Oval-2"/>
      <path d="M361.465,-157.146 C361.465,-155.739 360.316,-154.599 358.899,-154.599 C357.482,-154.599 356.333,-155.739 356.333,-157.146 C356.333,-158.553 357.482,-159.694 358.899,-159.694 C360.316,-159.694 361.465,-158.553 361.465,-157.146 z" fill="#D8D8D8" id="Oval-2"/>
      <path d="M438.067,-184.258 C438.067,-183.051 437.089,-182.074 435.883,-182.074 C434.676,-182.074 433.699,-183.051 433.699,-184.258 C433.699,-185.464 434.676,-186.442 435.883,-186.442 C437.089,-186.442 438.067,-185.464 438.067,-184.258 z" fill="#D8D8D8" id="Oval-3"/>
      <path d="M495.804,-178.133 C495.804,-176.926 494.826,-175.949 493.62,-175.949 C492.414,-175.949 491.436,-176.926 491.436,-178.133 C491.436,-179.339 492.414,-180.317 493.62,-180.317 C494.826,-180.317 495.804,-179.339 495.804,-178.133 z" fill="#D8D8D8" id="Oval-3"/>
      <path d="M371.839,-178.799 C371.839,-177.593 370.861,-176.615 369.655,-176.615 C368.449,-176.615 367.471,-177.593 367.471,-178.799 C367.471,-180.005 368.449,-180.983 369.655,-180.983 C370.861,-180.983 371.839,-180.005 371.839,-178.799 z" fill="#D8D8D8" id="Oval-3"/>
      <path d="M464.965,-170.344 C464.892,-168.939 463.685,-167.859 462.27,-167.933 C460.855,-168.007 459.766,-169.205 459.839,-170.61 C459.912,-172.015 461.119,-173.095 462.534,-173.021 C463.949,-172.947 465.038,-171.749 464.965,-170.344 z" fill-opacity="0" stroke="#D8D8D8" stroke-width="1" id="Oval"/>
      <path d="M475.215,-198.844 C475.142,-197.439 473.935,-196.359 472.52,-196.433 C471.105,-196.507 470.016,-197.705 470.089,-199.11 C470.162,-200.515 471.369,-201.595 472.784,-201.521 C474.199,-201.447 475.288,-200.249 475.215,-198.844 z" fill-opacity="0" stroke="#D8D8D8" stroke-width="1" id="Oval"/>
      <path d="M496.686,-131.172 C496.686,-129.765 495.537,-128.624 494.12,-128.624 C492.703,-128.624 491.554,-129.765 491.554,-131.172 C491.554,-132.579 492.703,-133.719 494.12,-133.719 C495.537,-133.719 496.686,-132.579 496.686,-131.172 z" fill-opacity="0" stroke="#D8D8D8" stroke-width="1" id="Oval"/>
      <path d="M350.361,-95.427 L352.843,-92.944 L355.355,-95.456 L352.873,-97.939 L350.361,-95.427 z" fill-opacity="0" stroke="#D8D8D8" stroke-width="1" id="Rectangle-3"/>
      <path d="M341.779,-188.424 L344.261,-185.942 L346.773,-188.454 L344.291,-190.936 L341.779,-188.424 z" fill-opacity="0" stroke="#D8D8D8" stroke-width="1" id="Rectangle-3"/>
    </g>
    <g>
      <g id="Group">
        <path d="M57.027,90.501 L57.027,90.501 C57.528,90 58.34,90 58.841,90.501 L61.634,93.293 C62.135,93.794 62.135,94.607 61.634,95.108 L61.634,95.108 C61.133,95.609 60.32,95.609 59.819,95.108 L57.027,92.315 C56.525,91.814 56.525,91.002 57.027,90.501 z" fill="#D8D8D8" id="Rectangle-2"/>
        <path d="M61.614,90.481 L61.614,90.481 C62.115,90.982 62.115,91.795 61.614,92.296 L58.822,95.088 C58.32,95.589 57.508,95.589 57.007,95.088 L57.007,95.088 C56.506,94.587 56.506,93.775 57.007,93.274 L59.8,90.481 C60.301,89.98 61.113,89.98 61.614,90.481 z" fill="#D8D8D8" id="Rectangle-2"/>
      </g>
      <g id="Group">
        <path d="M78.772,33.169 L78.772,33.169 C79.273,32.668 80.086,32.668 80.587,33.169 L83.38,35.961 C83.881,36.462 83.881,37.275 83.38,37.776 L83.38,37.776 C82.879,38.277 82.066,38.277 81.565,37.776 L78.772,34.983 C78.271,34.482 78.271,33.67 78.772,33.169 z" fill="#D8D8D8" id="Rectangle-2"/>
        <path d="M83.36,33.149 L83.36,33.149 C83.861,33.65 83.861,34.463 83.36,34.964 L80.567,37.756 C80.066,38.257 79.254,38.257 78.753,37.756 L78.753,37.756 C78.252,37.255 78.252,36.443 78.753,35.942 L81.546,33.149 C82.047,32.648 82.859,32.648 83.36,33.149 z" fill="#D8D8D8" id="Rectangle-2"/>
      </g>
      <g id="Group">
        <path d="M138.873,121.587 L138.873,121.587 C139.374,121.085 140.187,121.085 140.688,121.587 L143.48,124.379 C143.981,124.88 143.981,125.693 143.48,126.194 L143.48,126.194 C142.979,126.695 142.167,126.695 141.666,126.194 L138.873,123.401 C138.372,122.9 138.372,122.088 138.873,121.587 z" fill="#D8D8D8" id="Rectangle-2"/>
        <path d="M143.461,121.567 L143.461,121.567 C143.962,122.068 143.962,122.881 143.461,123.382 L140.668,126.174 C140.167,126.675 139.355,126.675 138.854,126.174 L138.854,126.174 C138.353,125.673 138.353,124.861 138.854,124.36 L141.646,121.567 C142.147,121.066 142.96,121.066 143.461,121.567 z" fill="#D8D8D8" id="Rectangle-2"/>
      </g>
      <path d="M67.142,57.999 C67.142,59.406 65.993,60.546 64.576,60.546 C63.158,60.546 62.01,59.406 62.01,57.999 C62.01,56.592 63.158,55.452 64.576,55.452 C65.993,55.452 67.142,56.592 67.142,57.999 z" fill="#D8D8D8" id="Oval-2"/>
      <path d="M38.942,72.557 C38.942,73.964 37.793,75.104 36.376,75.104 C34.958,75.104 33.81,73.964 33.81,72.557 C33.81,71.15 34.958,70.009 36.376,70.009 C37.793,70.009 38.942,71.15 38.942,72.557 z" fill="#D8D8D8" id="Oval-2"/>
      <path d="M115.543,45.445 C115.543,46.651 114.566,47.629 113.359,47.629 C112.153,47.629 111.175,46.651 111.175,45.445 C111.175,44.239 112.153,43.261 113.359,43.261 C114.566,43.261 115.543,44.239 115.543,45.445 z" fill="#D8D8D8" id="Oval-3"/>
      <path d="M157.794,59.923 C157.794,61.129 156.816,62.107 155.61,62.107 C154.403,62.107 153.426,61.129 153.426,59.923 C153.426,58.717 154.403,57.739 155.61,57.739 C156.816,57.739 157.794,58.717 157.794,59.923 z" fill="#D8D8D8" id="Oval-3"/>
      <path d="M149.063,83.57 C149.063,84.776 148.085,85.754 146.879,85.754 C145.673,85.754 144.695,84.776 144.695,83.57 C144.695,82.364 145.673,81.386 146.879,81.386 C148.085,81.386 149.063,82.364 149.063,83.57 z" fill="#D8D8D8" id="Oval-3"/>
      <path d="M49.316,50.904 C49.316,52.11 48.338,53.088 47.132,53.088 C45.926,53.088 44.948,52.11 44.948,50.904 C44.948,49.697 45.926,48.72 47.132,48.72 C48.338,48.72 49.316,49.697 49.316,50.904 z" fill="#D8D8D8" id="Oval-3"/>
      <path d="M128.547,63.727 C128.474,65.132 127.267,66.212 125.852,66.138 C124.437,66.064 123.349,64.866 123.422,63.461 C123.495,62.056 124.701,60.976 126.116,61.05 C127.532,61.124 128.62,62.322 128.547,63.727 z" fill-opacity="0" stroke="#D8D8D8" stroke-width="1" id="Oval"/>
      <path d="M152.691,30.859 C152.618,32.264 151.412,33.343 149.997,33.27 C148.581,33.196 147.493,31.998 147.566,30.593 C147.639,29.188 148.846,28.108 150.261,28.182 C151.676,28.255 152.764,29.454 152.691,30.859 z" fill-opacity="0" stroke="#D8D8D8" stroke-width="1" id="Oval"/>
      <path d="M174.163,98.531 C174.163,99.938 173.014,101.078 171.597,101.078 C170.179,101.078 169.03,99.938 169.03,98.531 C169.03,97.124 170.179,95.984 171.597,95.984 C173.014,95.984 174.163,97.124 174.163,98.531 z" fill-opacity="0" stroke="#D8D8D8" stroke-width="1" id="Oval"/>
      <path d="M30.58,101.573 L33.063,104.056 L35.575,101.544 L33.092,99.061 L30.58,101.573 z" fill-opacity="0" stroke="#D8D8D8" stroke-width="1" id="Rectangle-3"/>
      <g>
        <path d="M108.364,125.847 C104.772,125.847 101.298,125.121 98.038,123.69 C97.195,123.32 96.246,123.524 95.625,124.13 C95.618,124.136 95.611,124.141 95.605,124.148 L88.234,131.518 L82.227,131.518 C81.015,131.518 80.032,132.501 80.032,133.713 L80.032,138.435 L77.881,138.435 C76.669,138.435 75.686,139.418 75.686,140.63 L75.686,142.781 L70.32,142.781 C69.108,142.781 68.126,143.763 68.126,144.975 L68.126,151.633 L65.036,154.717 L55.155,154.717 L55.155,151.616 L55.155,146.029 L55.155,142.065 L84.337,112.88 C84.343,112.874 84.348,112.868 84.354,112.861 C84.96,112.24 85.165,111.291 84.795,110.447 C83.365,107.188 82.64,103.714 82.64,100.123 C82.64,85.939 94.18,74.398 108.365,74.398 C122.549,74.398 134.089,85.938 134.089,100.123 C134.089,114.307 122.548,125.847 108.364,125.847 z" fill="url(#Gradient_5)"/>
        <path d="M108.365,125.847 C104.773,125.847 101.298,125.121 98.039,123.69 C97.196,123.32 96.246,123.524 95.625,124.13 C95.618,124.136 95.611,124.141 95.605,124.148 L88.234,131.518 L82.227,131.518 C81.015,131.518 80.032,132.501 80.032,133.713 L80.032,138.435 L77.881,138.435 C76.669,138.435 75.687,139.418 75.687,140.63 L75.687,142.781 L70.32,142.781 C69.109,142.781 68.126,143.763 68.126,144.975 L68.126,151.633 L65.037,154.717 L55.155,154.717 L55.155,151.616 L81.978,124.793 C82.749,124.021 82.749,122.771 81.978,122 C81.207,121.228 79.956,121.228 79.185,122 L55.155,146.029 L55.155,142.065 L84.337,112.881 C84.343,112.874 84.348,112.868 84.355,112.861 C84.96,112.24 85.165,111.291 84.795,110.447 C83.365,107.188 82.64,103.714 82.64,100.123 C82.64,85.939 94.18,74.399 108.365,74.399 C122.549,74.399 134.089,85.938 134.089,100.123 C134.089,114.307 122.549,125.847 108.365,125.847 z M108.365,70.009 C91.76,70.009 78.251,83.518 78.251,100.123 C78.251,103.814 78.907,107.401 80.202,110.808 L51.408,139.604 C50.997,140.015 50.766,140.573 50.766,141.155 L50.766,156.912 C50.766,158.124 51.748,159.106 52.96,159.106 L65.945,159.106 C66.526,159.106 67.084,158.876 67.495,158.465 L71.871,154.095 C72.283,153.684 72.515,153.125 72.515,152.543 L72.515,147.17 L77.881,147.17 C79.093,147.17 80.075,146.187 80.075,144.975 L80.075,142.824 L82.226,142.824 C83.438,142.824 84.421,141.842 84.421,140.63 L84.421,135.907 L89.143,135.907 C89.725,135.907 90.283,135.676 90.695,135.265 L97.677,128.283 C101.084,129.579 104.672,130.236 108.364,130.236 C124.969,130.236 138.478,116.727 138.478,100.122 C138.478,83.518 124.969,70.009 108.365,70.009" fill="#444444"/>
        <path d="M117.446,94.789 C115.333,94.789 113.615,93.07 113.615,90.958 C113.615,88.845 115.333,87.127 117.446,87.127 C119.558,87.127 121.277,88.845 121.277,90.958 C121.277,93.07 119.558,94.789 117.446,94.789 z M117.446,82.738 C112.913,82.738 109.226,86.425 109.226,90.958 C109.226,95.49 112.913,99.178 117.446,99.178 C121.978,99.178 125.666,95.49 125.666,90.958 C125.666,86.425 121.979,82.738 117.446,82.738" fill="#444444"/>
      </g>
    </g>
  </g>
</svg>
