<?xml version="1.0" encoding="UTF-8"?>
<!DOCTYPE svg PUBLIC "-//W3C//DTD SVG 1.1//EN" "http://www.w3.org/Graphics/SVG/1.1/DTD/svg11.dtd">
<svg version="1.1" xmlns="http://www.w3.org/2000/svg" xmlns:xlink="http://www.w3.org/1999/xlink" x="0" y="0" width="200" height="200" viewBox="0, 0, 200, 200">
  <defs>
    <linearGradient id="Gradient_1" gradientUnits="userSpaceOnUse" x1="-32.193" y1="66.146" x2="-64.723" y2="99.24" gradientTransform="matrix(-0.707, 0.707, -0.707, -0.707, 0, 0)">
      <stop offset="0" stop-color="#2B5E7C" stop-opacity="0.514"/>
      <stop offset="1" stop-color="#2B5E7C"/>
    </linearGradient>
    <linearGradient id="Gradient_2" gradientUnits="userSpaceOnUse" x1="222.724" y1="-165.729" x2="150.411" y2="-119.283">
      <stop offset="0" stop-color="#2B5E7C" stop-opacity="0.514"/>
      <stop offset="1" stop-color="#2B5E7C"/>
    </linearGradient>
    <linearGradient id="Gradient_3" gradientUnits="userSpaceOnUse" x1="108.005" y1="111.056" x2="138.818" y2="133.211">
      <stop offset="0" stop-color="#2B5E7C" stop-opacity="0.514"/>
      <stop offset="1" stop-color="#2B5E7C"/>
    </linearGradient>
  </defs>
  <g id="Layer_1">
    <g id="invoice">
      <g id="Group-19">
        <path d="M444.427,-8.137 L371.938,-8.137 L367.711,-11.686 L368.997,-107.52 L371.388,-111.646 L443.525,-110.881 L444.854,-108.031 L445.366,-96.053 z" fill="#82CBFF" id="Path"/>
        <path d="M385.529,-16.112 L427.921,-16.112 L431.792,-20.122 L433.399,-23.439 L433.69,-96.381 L429.231,-102.082 L424.424,-103.17 L384.315,-102.536 L382.729,-97.877 L376.941,-95.428 L376.535,-24.666 L382.006,-21.256 z" fill="#FFFFFF" id="Path-12"/>
        <path d="M419.593,-57.998 C419.593,-51.967 414.704,-47.078 408.673,-47.078 C402.642,-47.078 397.753,-51.967 397.753,-57.998 C397.753,-64.029 402.642,-68.918 408.673,-68.918 C414.704,-68.918 419.593,-64.029 419.593,-57.998 z" fill-opacity="0" stroke="#444444" stroke-width="2" id="Oval-7"/>
        <path d="M417.808,-94.899 L464.437,-94.899 L464.437,-23.709 L459.74,-23.709 L456.811,-26.638 L453.682,-26.638 L450.635,-23.591 L446.104,-23.591 L442.986,-26.709 L439.551,-26.709 L437.059,-24.217 L431.732,-24.217 L428.87,-27.078 L425.394,-27.078 L422.049,-23.733 L418.251,-23.733" fill="#4DB5FF" id="path-1"/>
        <path d="M426.544,-101.451 L473.173,-101.451 L473.173,-23.709 L468.476,-23.709 L465.547,-26.638 L462.418,-26.638 L459.371,-23.591 L454.84,-23.591 L451.722,-26.709 L448.287,-26.709 L445.795,-24.217 L440.468,-24.217 L437.606,-27.078 L434.13,-27.078 L430.785,-23.733 L426.987,-23.733" fill="#82CBFF" id="Path"/>
      </g>
      <path d="M425.74,-83.547 L453.259,-83.547 C454.276,-83.547 455.102,-84.37 455.102,-85.384 C455.102,-86.399 454.276,-87.221 453.259,-87.221 L425.74,-87.221 C424.723,-87.221 423.897,-86.399 423.897,-85.384 C423.897,-84.37 424.723,-83.547 425.74,-83.547 z" fill="#444444" id="Fill-1"/>
      <path d="M451.416,-75.364 C451.416,-74.349 452.241,-73.528 453.259,-73.528 L457.19,-73.528 C458.208,-73.528 459.033,-74.349 459.033,-75.364 C459.033,-76.378 458.208,-77.201 457.19,-77.201 L453.259,-77.201 C452.241,-77.201 451.416,-76.378 451.416,-75.364 z" fill="#444444" id="Fill-2"/>
      <path d="M425.74,-73.528 L445.396,-73.528 C446.413,-73.528 447.239,-74.349 447.239,-75.364 C447.239,-76.378 446.413,-77.201 445.396,-77.201 L425.74,-77.201 C424.723,-77.201 423.897,-76.378 423.897,-75.364 C423.897,-74.349 424.723,-73.528 425.74,-73.528 z" fill="#444444" id="Fill-3"/>
      <path d="M425.74,-63.122 L453.259,-63.122 C454.276,-63.122 455.102,-63.943 455.102,-64.959 C455.102,-65.972 454.276,-66.795 453.259,-66.795 L425.74,-66.795 C424.723,-66.795 423.897,-65.972 423.897,-64.959 C423.897,-63.943 424.723,-63.122 425.74,-63.122 z" fill="#444444" id="Fill-7"/>
      <path d="M457.19,-56.774 L453.259,-56.774 C452.241,-56.774 451.416,-55.953 451.416,-54.938 C451.416,-53.924 452.241,-53.101 453.259,-53.101 L457.19,-53.101 C458.208,-53.101 459.033,-53.924 459.033,-54.938 C459.033,-55.953 458.208,-56.774 457.19,-56.774 z" fill="#444444" id="Fill-8"/>
      <path d="M457.19,-37.183 L449.327,-37.183 C448.31,-37.183 447.485,-36.362 447.485,-35.346 C447.485,-34.333 448.31,-33.51 449.327,-33.51 L457.19,-33.51 C458.208,-33.51 459.033,-34.333 459.033,-35.346 C459.033,-36.362 458.208,-37.183 457.19,-37.183 z" fill="#444444" id="Fill-10"/>
      <path d="M425.74,-53.101 L445.396,-53.101 C446.413,-53.101 447.239,-53.924 447.239,-54.938 C447.239,-55.953 446.413,-56.774 445.396,-56.774 L425.74,-56.774 C424.723,-56.774 423.897,-55.953 423.897,-54.938 C423.897,-53.924 424.723,-53.101 425.74,-53.101 z" fill="#444444" id="Fill-11"/>
      <path d="M465.052,-97.242 L447.239,-97.242 L447.239,-107.159 C447.239,-110.332 444.649,-112.914 441.464,-112.914 L372.451,-112.914 C369.267,-112.914 366.677,-110.332 366.677,-107.159 L366.677,-11.837 C366.677,-8.664 369.267,-6.083 372.451,-6.083 L441.464,-6.083 C444.649,-6.083 447.239,-8.664 447.239,-11.837 L447.239,-21.756 L451.292,-21.756 C452.311,-21.756 453.135,-22.577 453.135,-23.592 C453.135,-24.74 454.072,-25.674 455.224,-25.674 C456.376,-25.674 457.313,-24.74 457.313,-23.592 C457.313,-22.577 458.138,-21.756 459.155,-21.756 L465.052,-21.756 C466.069,-21.756 466.895,-22.577 466.895,-23.592 L466.895,-95.405 C466.895,-96.419 466.069,-97.242 465.052,-97.242 z M443.553,-11.837 C443.553,-10.69 442.616,-9.756 441.464,-9.756 L372.451,-9.756 C371.3,-9.756 370.363,-10.69 370.363,-11.837 L370.363,-107.159 C370.363,-108.307 371.3,-109.241 372.451,-109.241 L441.464,-109.241 C442.616,-109.241 443.553,-108.307 443.553,-107.159 L443.553,-97.242 L437.534,-97.242 C434.215,-97.242 431.514,-99.933 431.514,-103.24 C431.514,-104.256 430.689,-105.077 429.672,-105.077 L384.244,-105.077 C383.227,-105.077 382.401,-104.256 382.401,-103.24 C382.401,-99.933 379.701,-97.242 376.383,-97.242 C375.364,-97.242 374.54,-96.419 374.54,-95.405 L374.54,-23.592 C374.54,-22.577 375.364,-21.756 376.383,-21.756 C379.701,-21.756 382.401,-19.064 382.401,-15.755 C382.401,-14.741 383.227,-13.919 384.244,-13.919 L429.672,-13.919 C430.689,-13.919 431.514,-14.741 431.514,-15.755 C431.514,-19.064 434.215,-21.756 437.534,-21.756 C438.552,-21.756 439.377,-22.577 439.377,-23.592 C439.377,-24.74 440.314,-25.674 441.464,-25.674 C442.616,-25.674 443.553,-24.74 443.553,-23.592 L443.553,-11.837 z M416.036,-23.592 C416.036,-22.577 416.86,-21.756 417.879,-21.756 L423.775,-21.756 C424.792,-21.756 425.618,-22.577 425.618,-23.592 C425.618,-24.74 426.555,-25.674 427.707,-25.674 C428.857,-25.674 429.794,-24.74 429.794,-23.592 C429.794,-23.071 430.013,-22.601 430.364,-22.267 C429.184,-20.978 428.351,-19.371 428.006,-17.592 L385.912,-17.592 C385.163,-21.457 382.102,-24.508 378.224,-25.254 L378.224,-93.743 C382.102,-94.489 385.163,-97.54 385.912,-101.404 L428.004,-101.404 C428.304,-99.853 428.978,-98.434 429.927,-97.242 L417.879,-97.242 C416.86,-97.242 416.036,-96.419 416.036,-95.405 L416.036,-23.592 z M463.209,-25.429 L460.697,-25.429 C459.926,-27.704 457.764,-29.348 455.224,-29.348 C452.684,-29.348 450.522,-27.704 449.752,-25.429 L446.938,-25.429 C446.166,-27.704 444.004,-29.348 441.464,-29.348 C438.925,-29.348 436.763,-27.704 435.993,-25.429 L433.178,-25.429 C432.408,-27.704 430.246,-29.348 427.707,-29.348 C425.167,-29.348 423.005,-27.704 422.233,-25.429 L419.721,-25.429 L419.721,-93.568 L463.209,-93.568 L463.209,-25.429 z" fill="#444444" id="Fill-13"/>
    </g>
    <path d="M-212.296,45.814 L-71.837,45.814 C-67.509,45.814 -64,49.323 -64,53.651 L-64,194.11 C-64,198.438 -67.509,201.947 -71.837,201.947 L-212.296,201.947 C-216.624,201.947 -220.133,198.438 -220.133,194.11 L-220.133,53.651 C-220.133,49.323 -216.624,45.814 -212.296,45.814 z" fill="#FFFFFF"/>
    <g>
      <path d="M-208.185,138.322 L-208.185,135.568 Q-208.185,131.859 -205.623,129.443 L-181.326,106.795 Q-179.832,105.502 -178.7,106.261 Q-177.569,107.019 -177.569,109.099 L-177.569,118.765 Q-177.569,122.924 -181.326,126.352 L-192.685,136.917 L-181.326,147.539 Q-177.569,150.967 -177.569,155.125 L-177.569,164.791 Q-177.569,166.871 -178.7,167.601 Q-179.832,168.332 -181.326,167.096 L-205.623,144.391 Q-208.185,142.031 -208.185,138.322 z" fill="#1D1D1F"/>
      <path d="M-160.35,101.077 L-160.35,73.822 Q-160.35,73.26 -159.653,72.897 Q-158.955,72.533 -157.919,72.533 L-148.991,72.533 Q-147.955,72.533 -147.257,72.897 Q-146.56,73.26 -146.56,73.822 L-146.56,101.077 Q-146.56,101.618 -147.257,101.982 Q-147.955,102.345 -148.991,102.345 L-157.919,102.345 Q-158.955,102.345 -159.653,101.982 Q-160.35,101.618 -160.35,101.077 z" fill="#1D1D1F"/>
      <path d="M-146.56,108.099 L-146.56,165.719 Q-146.56,166.657 -147.307,167.265 Q-148.054,167.873 -149.207,167.873 L-170.984,167.873 Q-172.094,167.873 -172.842,167.265 Q-173.589,166.657 -173.589,165.719 L-173.589,156.011 Q-173.589,155.073 -172.842,154.465 Q-172.094,153.857 -170.984,153.857 L-160.48,153.857 L-160.48,120.343 L-170.984,120.343 Q-172.094,120.343 -172.842,119.736 Q-173.589,119.128 -173.589,118.225 L-173.589,108.099 Q-173.589,107.196 -172.842,106.588 Q-172.094,105.98 -170.984,105.98 L-149.207,105.98 Q-148.054,105.98 -147.307,106.588 Q-146.56,107.196 -146.56,108.099 z" fill="#1D1D1F"/>
    </g>
    <g>
      <path d="M-106.564,138.226 L-106.564,135.472 Q-106.564,131.763 -104.002,129.346 L-79.706,106.698 Q-78.212,105.406 -77.08,106.164 Q-75.949,106.923 -75.949,109.002 L-75.949,118.668 Q-75.949,122.827 -79.706,126.255 L-91.064,136.821 L-79.706,147.442 Q-75.949,150.87 -75.949,155.029 L-75.949,164.695 Q-75.949,166.774 -77.08,167.505 Q-78.212,168.235 -79.706,166.999 L-104.002,144.295 Q-106.564,141.935 -106.564,138.226 z" fill="#2C5E7C"/>
      <path d="M-108.132,135.531 L-108.132,138.285 Q-108.132,141.994 -110.694,144.41 L-134.99,167.058 Q-136.484,168.351 -137.616,167.592 Q-138.748,166.833 -138.748,164.754 L-138.748,155.088 Q-138.748,150.929 -134.99,147.501 L-123.632,136.936 L-134.99,126.314 Q-138.748,122.886 -138.748,118.728 L-138.748,109.061 Q-138.748,106.982 -137.616,106.252 Q-136.484,105.521 -134.99,106.757 L-110.694,129.461 Q-108.132,131.822 -108.132,135.531 z" fill="#2C5E7C"/>
    </g>
    <g id="Group">
      <path d="M166.029,68.442 L166.029,68.442 C166.738,68.442 167.312,69.017 167.312,69.725 L167.312,74.802 C167.312,75.51 166.738,76.085 166.029,76.085 L166.029,76.085 C165.321,76.085 164.746,75.51 164.746,74.802 L164.746,69.725 C164.746,69.017 165.321,68.442 166.029,68.442 z" fill="#D8D8D8" id="Rectangle-2"/>
      <path d="M169.85,72.263 L169.85,72.263 C169.85,72.972 169.276,73.546 168.567,73.546 L163.491,73.546 C162.783,73.546 162.208,72.972 162.208,72.263 L162.208,72.263 C162.208,71.555 162.783,70.98 163.491,70.98 L168.567,70.98 C169.276,70.98 169.85,71.555 169.85,72.263 z" fill="#D8D8D8" id="Rectangle-2"/>
    </g>
    <g id="Group">
      <path d="M83.363,30.442 L83.363,30.442 C84.071,30.442 84.646,31.017 84.646,31.725 L84.646,36.802 C84.646,37.51 84.071,38.085 83.363,38.085 L83.363,38.085 C82.654,38.085 82.079,37.51 82.079,36.802 L82.079,31.725 C82.079,31.017 82.654,30.442 83.363,30.442 z" fill="#D8D8D8" id="Rectangle-2"/>
      <path d="M87.184,34.263 L87.184,34.263 C87.184,34.972 86.609,35.546 85.901,35.546 L80.824,35.546 C80.116,35.546 79.541,34.972 79.541,34.263 L79.541,34.263 C79.541,33.555 80.116,32.98 80.824,32.98 L85.901,32.98 C86.609,32.98 87.184,33.555 87.184,34.263 z" fill="#D8D8D8" id="Rectangle-2"/>
    </g>
    <g id="Group">
      <path d="M20.253,89.777 L20.253,89.777 C20.754,89.276 21.566,89.276 22.067,89.777 L24.86,92.57 C25.361,93.071 25.361,93.883 24.86,94.384 L24.86,94.384 C24.359,94.885 23.546,94.885 23.045,94.384 L20.253,91.591 C19.751,91.09 19.751,90.278 20.253,89.777 z" fill="#D8D8D8" id="Rectangle-2"/>
      <path d="M24.84,89.758 L24.84,89.758 C25.341,90.259 25.341,91.071 24.84,91.572 L22.048,94.365 C21.546,94.866 20.734,94.866 20.233,94.365 L20.233,94.365 C19.732,93.864 19.732,93.051 20.233,92.55 L23.026,89.758 C23.527,89.256 24.339,89.256 24.84,89.758 z" fill="#D8D8D8" id="Rectangle-2"/>
    </g>
    <g id="Group">
      <path d="M163.735,109.424 L163.735,109.424 C164.236,108.923 165.049,108.923 165.55,109.424 L168.343,112.217 C168.844,112.718 168.844,113.53 168.343,114.031 L168.343,114.031 C167.842,114.532 167.029,114.532 166.528,114.031 L163.735,111.239 C163.234,110.737 163.234,109.925 163.735,109.424 z" fill="#D8D8D8" id="Rectangle-2"/>
      <path d="M168.323,109.405 L168.323,109.405 C168.824,109.906 168.824,110.718 168.323,111.219 L165.53,114.012 C165.029,114.513 164.217,114.513 163.716,114.012 L163.716,114.012 C163.215,113.511 163.215,112.698 163.716,112.197 L166.509,109.405 C167.01,108.903 167.822,108.903 168.323,109.405 z" fill="#D8D8D8" id="Rectangle-2"/>
    </g>
    <path d="M73.622,56.432 C73.622,57.839 72.473,58.979 71.056,58.979 C69.638,58.979 68.49,57.839 68.49,56.432 C68.49,55.025 69.638,53.885 71.056,53.885 C72.473,53.885 73.622,55.025 73.622,56.432 z" fill="#D8D8D8" id="Oval-2"/>
    <path d="M45.422,70.99 C45.422,72.397 44.273,73.537 42.856,73.537 C41.438,73.537 40.29,72.397 40.29,70.99 C40.29,69.583 41.438,68.442 42.856,68.442 C44.273,68.442 45.422,69.583 45.422,70.99 z" fill="#D8D8D8" id="Oval-2"/>
    <path d="M122.024,43.878 C122.024,45.084 121.046,46.062 119.84,46.062 C118.633,46.062 117.656,45.084 117.656,43.878 C117.656,42.672 118.633,41.694 119.84,41.694 C121.046,41.694 122.024,42.672 122.024,43.878 z" fill="#D8D8D8" id="Oval-3"/>
    <path d="M179.761,50.003 C179.761,51.209 178.783,52.187 177.577,52.187 C176.37,52.187 175.393,51.209 175.393,50.003 C175.393,48.797 176.37,47.819 177.577,47.819 C178.783,47.819 179.761,48.797 179.761,50.003 z" fill="#D8D8D8" id="Oval-3"/>
    <path d="M55.796,49.337 C55.796,50.543 54.818,51.521 53.612,51.521 C52.406,51.521 51.428,50.543 51.428,49.337 C51.428,48.13 52.406,47.153 53.612,47.153 C54.818,47.153 55.796,48.13 55.796,49.337 z" fill="#D8D8D8" id="Oval-3"/>
    <path d="M148.922,57.792 C148.849,59.197 147.642,60.276 146.227,60.203 C144.811,60.129 143.723,58.931 143.796,57.526 C143.869,56.121 145.076,55.041 146.491,55.115 C147.906,55.188 148.995,56.387 148.922,57.792 z" fill-opacity="0" stroke="#D8D8D8" stroke-width="1" id="Oval"/>
    <path d="M159.172,29.292 C159.099,30.697 157.892,31.776 156.477,31.703 C155.061,31.629 153.973,30.431 154.046,29.026 C154.119,27.621 155.326,26.541 156.741,26.615 C158.156,26.688 159.245,27.887 159.172,29.292 z" fill-opacity="0" stroke="#D8D8D8" stroke-width="1" id="Oval"/>
    <path d="M51.928,106.981 C51.928,108.388 50.779,109.529 49.362,109.529 C47.945,109.529 46.796,108.388 46.796,106.981 C46.796,105.574 47.945,104.434 49.362,104.434 C50.779,104.434 51.928,105.574 51.928,106.981 z" fill-opacity="0" stroke="#D8D8D8" stroke-width="1" id="Oval"/>
    <path d="M34.317,132.709 L36.8,135.192 L39.312,132.68 L36.83,130.197 L34.317,132.709 z" fill-opacity="0" stroke="#D8D8D8" stroke-width="1" id="Rectangle-3"/>
    <path d="M25.736,39.712 L28.218,42.194 L30.73,39.682 L28.248,37.2 L25.736,39.712 z" fill-opacity="0" stroke="#D8D8D8" stroke-width="1" id="Rectangle-3"/>
    <g>
      <g>
        <path d="M-248.671,-54.85 L-248.671,-55.016 Q-248.671,-55.24 -248.516,-55.386 L-247.049,-56.753 Q-246.959,-56.831 -246.89,-56.786 Q-246.822,-56.74 -246.822,-56.614 L-246.822,-56.031 Q-246.822,-55.78 -247.049,-55.573 L-247.735,-54.935 L-247.049,-54.293 Q-246.822,-54.086 -246.822,-53.835 L-246.822,-53.252 Q-246.822,-53.126 -246.89,-53.082 Q-246.959,-53.038 -247.049,-53.112 L-248.516,-54.483 Q-248.671,-54.626 -248.671,-54.85 z" fill="#1D1D1F"/>
        <path d="M-245.782,-57.099 L-245.782,-58.744 Q-245.782,-58.778 -245.74,-58.8 Q-245.698,-58.822 -245.636,-58.822 L-245.096,-58.822 Q-245.034,-58.822 -244.992,-58.8 Q-244.95,-58.778 -244.95,-58.744 L-244.95,-57.099 Q-244.95,-57.066 -244.992,-57.044 Q-245.034,-57.022 -245.096,-57.022 L-245.636,-57.022 Q-245.698,-57.022 -245.74,-57.044 Q-245.782,-57.066 -245.782,-57.099 z" fill="#1D1D1F"/>
        <path d="M-244.95,-56.675 L-244.95,-53.196 Q-244.95,-53.139 -244.995,-53.102 Q-245.04,-53.066 -245.11,-53.066 L-246.424,-53.066 Q-246.491,-53.066 -246.537,-53.102 Q-246.582,-53.139 -246.582,-53.196 L-246.582,-53.782 Q-246.582,-53.838 -246.537,-53.875 Q-246.491,-53.912 -246.424,-53.912 L-245.79,-53.912 L-245.79,-55.935 L-246.424,-55.935 Q-246.491,-55.935 -246.537,-55.972 Q-246.582,-56.009 -246.582,-56.063 L-246.582,-56.675 Q-246.582,-56.729 -246.537,-56.766 Q-246.491,-56.803 -246.424,-56.803 L-245.11,-56.803 Q-245.04,-56.803 -244.995,-56.766 Q-244.95,-56.729 -244.95,-56.675 z" fill="#1D1D1F"/>
      </g>
      <g>
        <path d="M-242.535,-54.856 L-242.535,-55.022 Q-242.535,-55.246 -242.38,-55.392 L-240.913,-56.759 Q-240.823,-56.837 -240.755,-56.791 Q-240.686,-56.746 -240.686,-56.62 L-240.686,-56.036 Q-240.686,-55.785 -240.913,-55.578 L-241.599,-54.94 L-240.913,-54.299 Q-240.686,-54.092 -240.686,-53.841 L-240.686,-53.257 Q-240.686,-53.132 -240.755,-53.088 Q-240.823,-53.044 -240.913,-53.118 L-242.38,-54.489 Q-242.535,-54.632 -242.535,-54.856 z" fill="#2C5E7C"/>
        <path d="M-242.629,-55.018 L-242.629,-54.852 Q-242.629,-54.628 -242.784,-54.482 L-244.251,-53.115 Q-244.341,-53.037 -244.41,-53.082 Q-244.478,-53.128 -244.478,-53.254 L-244.478,-53.837 Q-244.478,-54.089 -244.251,-54.296 L-243.565,-54.933 L-244.251,-55.575 Q-244.478,-55.782 -244.478,-56.033 L-244.478,-56.616 Q-244.478,-56.742 -244.41,-56.786 Q-244.341,-56.83 -244.251,-56.756 L-242.784,-55.385 Q-242.629,-55.242 -242.629,-55.018 z" fill="#2C5E7C"/>
      </g>
    </g>
    <g>
      <g>
        <path d="M-213.992,-54.85 L-213.992,-55.016 Q-213.992,-55.24 -213.837,-55.386 L-212.37,-56.753 Q-212.28,-56.831 -212.212,-56.786 Q-212.143,-56.74 -212.143,-56.614 L-212.143,-56.031 Q-212.143,-55.78 -212.37,-55.573 L-213.056,-54.935 L-212.37,-54.293 Q-212.143,-54.086 -212.143,-53.835 L-212.143,-53.252 Q-212.143,-53.126 -212.212,-53.082 Q-212.28,-53.038 -212.37,-53.112 L-213.837,-54.483 Q-213.992,-54.626 -213.992,-54.85 z" fill="#1D1D1F"/>
        <path d="M-211.104,-57.099 L-211.104,-58.744 Q-211.104,-58.778 -211.062,-58.8 Q-211.02,-58.822 -210.957,-58.822 L-210.418,-58.822 Q-210.355,-58.822 -210.313,-58.8 Q-210.271,-58.778 -210.271,-58.744 L-210.271,-57.099 Q-210.271,-57.066 -210.313,-57.044 Q-210.355,-57.022 -210.418,-57.022 L-210.957,-57.022 Q-211.02,-57.022 -211.062,-57.044 Q-211.104,-57.066 -211.104,-57.099 z" fill="#1D1D1F"/>
        <path d="M-210.271,-56.675 L-210.271,-53.196 Q-210.271,-53.139 -210.316,-53.102 Q-210.361,-53.066 -210.431,-53.066 L-211.746,-53.066 Q-211.813,-53.066 -211.858,-53.102 Q-211.903,-53.139 -211.903,-53.196 L-211.903,-53.782 Q-211.903,-53.838 -211.858,-53.875 Q-211.813,-53.912 -211.746,-53.912 L-211.112,-53.912 L-211.112,-55.935 L-211.746,-55.935 Q-211.813,-55.935 -211.858,-55.972 Q-211.903,-56.009 -211.903,-56.063 L-211.903,-56.675 Q-211.903,-56.729 -211.858,-56.766 Q-211.813,-56.803 -211.746,-56.803 L-210.431,-56.803 Q-210.361,-56.803 -210.316,-56.766 Q-210.271,-56.729 -210.271,-56.675 z" fill="#1D1D1F"/>
      </g>
      <g>
        <path d="M-207.856,-54.856 L-207.856,-55.022 Q-207.856,-55.246 -207.702,-55.392 L-206.235,-56.759 Q-206.144,-56.837 -206.076,-56.791 Q-206.008,-56.746 -206.008,-56.62 L-206.008,-56.036 Q-206.008,-55.785 -206.235,-55.578 L-206.92,-54.94 L-206.235,-54.299 Q-206.008,-54.092 -206.008,-53.841 L-206.008,-53.257 Q-206.008,-53.132 -206.076,-53.088 Q-206.144,-53.044 -206.235,-53.118 L-207.702,-54.489 Q-207.856,-54.632 -207.856,-54.856 z" fill="#2C5E7C"/>
        <path d="M-207.951,-55.018 L-207.951,-54.852 Q-207.951,-54.628 -208.106,-54.482 L-209.573,-53.115 Q-209.663,-53.037 -209.731,-53.082 Q-209.799,-53.128 -209.799,-53.254 L-209.799,-53.837 Q-209.799,-54.089 -209.573,-54.296 L-208.887,-54.933 L-209.573,-55.575 Q-209.799,-55.782 -209.799,-56.033 L-209.799,-56.616 Q-209.799,-56.742 -209.731,-56.786 Q-209.663,-56.83 -209.573,-56.756 L-208.106,-55.385 Q-207.951,-55.242 -207.951,-55.018 z" fill="#2C5E7C"/>
      </g>
    </g>
    <g>
      <g>
        <path d="M-180.242,-54.85 L-180.242,-55.016 Q-180.242,-55.24 -180.087,-55.386 L-178.62,-56.753 Q-178.53,-56.831 -178.462,-56.786 Q-178.393,-56.74 -178.393,-56.614 L-178.393,-56.031 Q-178.393,-55.78 -178.62,-55.573 L-179.306,-54.935 L-178.62,-54.293 Q-178.393,-54.086 -178.393,-53.835 L-178.393,-53.252 Q-178.393,-53.126 -178.462,-53.082 Q-178.53,-53.038 -178.62,-53.112 L-180.087,-54.483 Q-180.242,-54.626 -180.242,-54.85 z" fill="#1D1D1F"/>
        <path d="M-177.354,-57.099 L-177.354,-58.744 Q-177.354,-58.778 -177.312,-58.8 Q-177.269,-58.822 -177.207,-58.822 L-176.668,-58.822 Q-176.605,-58.822 -176.563,-58.8 Q-176.521,-58.778 -176.521,-58.744 L-176.521,-57.099 Q-176.521,-57.066 -176.563,-57.044 Q-176.605,-57.022 -176.668,-57.022 L-177.207,-57.022 Q-177.269,-57.022 -177.312,-57.044 Q-177.354,-57.066 -177.354,-57.099 z" fill="#1D1D1F"/>
        <path d="M-176.521,-56.675 L-176.521,-53.196 Q-176.521,-53.139 -176.566,-53.102 Q-176.611,-53.066 -176.681,-53.066 L-177.996,-53.066 Q-178.063,-53.066 -178.108,-53.102 Q-178.153,-53.139 -178.153,-53.196 L-178.153,-53.782 Q-178.153,-53.838 -178.108,-53.875 Q-178.063,-53.912 -177.996,-53.912 L-177.362,-53.912 L-177.362,-55.935 L-177.996,-55.935 Q-178.063,-55.935 -178.108,-55.972 Q-178.153,-56.009 -178.153,-56.063 L-178.153,-56.675 Q-178.153,-56.729 -178.108,-56.766 Q-178.063,-56.803 -177.996,-56.803 L-176.681,-56.803 Q-176.611,-56.803 -176.566,-56.766 Q-176.521,-56.729 -176.521,-56.675 z" fill="#1D1D1F"/>
      </g>
      <g>
        <path d="M-174.106,-54.856 L-174.106,-55.022 Q-174.106,-55.246 -173.951,-55.392 L-172.484,-56.759 Q-172.394,-56.837 -172.326,-56.791 Q-172.258,-56.746 -172.258,-56.62 L-172.258,-56.036 Q-172.258,-55.785 -172.484,-55.578 L-173.17,-54.94 L-172.484,-54.299 Q-172.258,-54.092 -172.258,-53.841 L-172.258,-53.257 Q-172.258,-53.132 -172.326,-53.088 Q-172.394,-53.044 -172.484,-53.118 L-173.951,-54.489 Q-174.106,-54.632 -174.106,-54.856 z" fill="#2C5E7C"/>
        <path d="M-174.201,-55.018 L-174.201,-54.852 Q-174.201,-54.628 -174.355,-54.482 L-175.822,-53.115 Q-175.913,-53.037 -175.981,-53.082 Q-176.049,-53.128 -176.049,-53.254 L-176.049,-53.837 Q-176.049,-54.089 -175.822,-54.296 L-175.137,-54.933 L-175.822,-55.575 Q-176.049,-55.782 -176.049,-56.033 L-176.049,-56.616 Q-176.049,-56.742 -175.981,-56.786 Q-175.913,-56.83 -175.822,-56.756 L-174.355,-55.385 Q-174.201,-55.242 -174.201,-55.018 z" fill="#2C5E7C"/>
      </g>
    </g>
    <g>
      <g id="Group">
        <path d="M-68.888,-140.643 L-68.888,-140.643 C-68.387,-141.144 -67.575,-141.144 -67.074,-140.643 L-64.281,-137.851 C-63.78,-137.35 -63.78,-136.537 -64.281,-136.036 L-64.281,-136.036 C-64.782,-135.535 -65.595,-135.535 -66.096,-136.036 L-68.888,-138.829 C-69.389,-139.33 -69.389,-140.142 -68.888,-140.643 z" fill="#D8D8D8" id="Rectangle-2"/>
        <path d="M-64.301,-140.663 L-64.301,-140.663 C-63.8,-140.162 -63.8,-139.349 -64.301,-138.848 L-67.093,-136.056 C-67.594,-135.554 -68.407,-135.554 -68.908,-136.056 L-68.908,-136.056 C-69.409,-136.557 -69.409,-137.369 -68.908,-137.87 L-66.115,-140.663 C-65.614,-141.164 -64.802,-141.164 -64.301,-140.663 z" fill="#D8D8D8" id="Rectangle-2"/>
      </g>
      <g id="Group">
        <path d="M-30.081,-197.975 L-30.081,-197.975 C-29.58,-198.476 -28.767,-198.476 -28.266,-197.975 L-25.474,-195.183 C-24.973,-194.682 -24.973,-193.869 -25.474,-193.368 L-25.474,-193.368 C-25.975,-192.867 -26.787,-192.867 -27.288,-193.368 L-30.081,-196.161 C-30.582,-196.662 -30.582,-197.474 -30.081,-197.975 z" fill="#D8D8D8" id="Rectangle-2"/>
        <path d="M-25.493,-197.995 L-25.493,-197.995 C-24.992,-197.494 -24.992,-196.681 -25.493,-196.18 L-28.286,-193.388 C-28.787,-192.886 -29.599,-192.886 -30.1,-193.388 L-30.1,-193.388 C-30.601,-193.889 -30.601,-194.701 -30.1,-195.202 L-27.308,-197.995 C-26.807,-198.496 -25.994,-198.496 -25.493,-197.995 z" fill="#D8D8D8" id="Rectangle-2"/>
      </g>
      <g id="Group">
        <path d="M48.402,-104.863 L48.402,-104.863 C48.903,-105.364 49.715,-105.364 50.217,-104.863 L53.009,-102.07 C53.51,-101.569 53.51,-100.757 53.009,-100.256 L53.009,-100.256 C52.508,-99.755 51.696,-99.755 51.195,-100.256 L48.402,-103.048 C47.901,-103.549 47.901,-104.362 48.402,-104.863 z" fill="#D8D8D8" id="Rectangle-2"/>
        <path d="M52.99,-104.882 L52.99,-104.882 C53.491,-104.381 53.491,-103.569 52.99,-103.068 L50.197,-100.275 C49.696,-99.774 48.884,-99.774 48.383,-100.275 L48.383,-100.275 C47.882,-100.776 47.882,-101.589 48.383,-102.09 L51.175,-104.882 C51.676,-105.383 52.489,-105.383 52.99,-104.882 z" fill="#D8D8D8" id="Rectangle-2"/>
      </g>
      <path d="M-41.712,-173.145 C-41.712,-171.738 -42.86,-170.597 -44.278,-170.597 C-45.695,-170.597 -46.844,-171.738 -46.844,-173.145 C-46.844,-174.552 -45.695,-175.692 -44.278,-175.692 C-42.86,-175.692 -41.712,-174.552 -41.712,-173.145 z" fill="#D8D8D8" id="Oval-2"/>
      <path d="M-69.912,-158.587 C-69.912,-157.18 -71.06,-156.04 -72.478,-156.04 C-73.895,-156.04 -75.044,-157.18 -75.044,-158.587 C-75.044,-159.994 -73.895,-161.135 -72.478,-161.135 C-71.06,-161.135 -69.912,-159.994 -69.912,-158.587 z" fill="#D8D8D8" id="Oval-2"/>
      <path d="M6.69,-185.699 C6.69,-184.492 5.712,-183.515 4.506,-183.515 C3.3,-183.515 2.322,-184.492 2.322,-185.699 C2.322,-186.905 3.3,-187.883 4.506,-187.883 C5.712,-187.883 6.69,-186.905 6.69,-185.699 z" fill="#D8D8D8" id="Oval-3"/>
      <path d="M53.385,-168.413 C53.385,-167.207 52.407,-166.229 51.201,-166.229 C49.995,-166.229 49.017,-167.207 49.017,-168.413 C49.017,-169.62 49.995,-170.597 51.201,-170.597 C52.407,-170.597 53.385,-169.62 53.385,-168.413 z" fill="#D8D8D8" id="Oval-3"/>
      <path d="M40.209,-147.574 C40.209,-146.367 39.232,-145.39 38.025,-145.39 C36.819,-145.39 35.841,-146.367 35.841,-147.574 C35.841,-148.78 36.819,-149.758 38.025,-149.758 C39.232,-149.758 40.209,-148.78 40.209,-147.574 z" fill="#D8D8D8" id="Oval-3"/>
      <path d="M-59.537,-180.24 C-59.537,-179.034 -60.515,-178.056 -61.721,-178.056 C-62.928,-178.056 -63.905,-179.034 -63.905,-180.24 C-63.905,-181.446 -62.928,-182.424 -61.721,-182.424 C-60.515,-182.424 -59.537,-181.446 -59.537,-180.24 z" fill="#D8D8D8" id="Oval-3"/>
      <path d="M33.588,-171.785 C33.515,-170.38 32.309,-169.301 30.893,-169.374 C29.478,-169.448 28.39,-170.646 28.463,-172.051 C28.536,-173.456 29.742,-174.536 31.158,-174.462 C32.573,-174.389 33.661,-173.19 33.588,-171.785 z" fill-opacity="0" stroke="#D8D8D8" stroke-width="1" id="Oval"/>
      <path d="M43.838,-200.285 C43.765,-198.88 42.559,-197.801 41.143,-197.874 C39.728,-197.948 38.64,-199.146 38.713,-200.551 C38.786,-201.956 39.992,-203.036 41.408,-202.962 C42.823,-202.889 43.911,-201.69 43.838,-200.285 z" fill-opacity="0" stroke="#D8D8D8" stroke-width="1" id="Oval"/>
      <path d="M65.309,-132.613 C65.309,-131.206 64.161,-130.065 62.743,-130.065 C61.326,-130.065 60.177,-131.206 60.177,-132.613 C60.177,-134.02 61.326,-135.16 62.743,-135.16 C64.161,-135.16 65.309,-134.02 65.309,-132.613 z" fill-opacity="0" stroke="#D8D8D8" stroke-width="1" id="Oval"/>
      <path d="M-82.016,-120.681 L-79.533,-118.199 L-77.021,-120.711 L-79.504,-123.193 L-82.016,-120.681 z" fill-opacity="0" stroke="#D8D8D8" stroke-width="1" id="Rectangle-3"/>
      <path d="M-8.43,-105.019 C-11.436,-105.333 -14.417,-104.292 -16.579,-102.13 C-18.536,-100.173 -19.61,-97.463 -19.524,-94.695 C-19.437,-91.886 -18.224,-89.311 -16.11,-87.444 C-12.29,-84.074 -6.547,-84.095 -2.75,-87.491 C-0.333,-89.659 0.88,-92.849 0.554,-96.035 L10.218,-86.371 L-11.069,-65.084 C-14.815,-61.338 -20.91,-61.338 -24.656,-65.084 L-45.942,-86.371 L-33.963,-98.351 C-33.623,-98.69 -33.44,-99.156 -33.458,-99.636 C-33.476,-100.116 -33.692,-100.567 -34.056,-100.88 C-35.288,-101.942 -36.942,-102.373 -38.481,-102.033 C-40.811,-101.519 -43.25,-102.306 -44.843,-104.086 C-47.037,-106.537 -47.051,-110.389 -44.877,-112.854 C-43.651,-114.247 -41.958,-115.044 -40.113,-115.102 C-38.266,-115.159 -36.53,-114.472 -35.224,-113.166 C-33.629,-111.571 -32.964,-109.299 -33.446,-107.084 C-33.78,-105.529 -33.352,-103.869 -32.301,-102.642 C-31.988,-102.277 -31.536,-102.059 -31.056,-102.041 C-30.575,-102.022 -30.108,-102.205 -29.768,-102.545 L-17.862,-114.451 L-8.431,-105.019 L-8.43,-105.019 z M-21.743,-134.255 C-23.337,-132.661 -25.61,-131.995 -27.821,-132.474 C-29.339,-132.805 -30.914,-132.425 -32.143,-131.431 C-32.523,-131.123 -32.755,-130.668 -32.781,-130.179 C-32.807,-129.69 -32.624,-129.213 -32.277,-128.867 L-20.305,-116.894 L-29.911,-107.288 C-29.536,-110.349 -30.575,-113.402 -32.781,-115.608 C-34.74,-117.567 -37.451,-118.641 -40.221,-118.554 C-42.81,-118.473 -45.2,-117.436 -47.019,-115.617 C-47.172,-115.463 -47.322,-115.303 -47.468,-115.139 C-50.835,-111.32 -50.814,-105.578 -47.417,-101.782 C-45.211,-99.319 -41.944,-98.107 -38.703,-98.496 L-49.606,-87.592 C-50.281,-86.918 -50.281,-85.824 -49.606,-85.15 L-27.098,-62.642 C-22.005,-57.549 -13.719,-57.549 -8.626,-62.642 L28.436,-99.704 C29.111,-100.379 29.111,-101.472 28.436,-102.147 C27.762,-102.821 26.668,-102.821 25.994,-102.147 L12.66,-88.814 L0.609,-100.865 C0.263,-101.211 -0.213,-101.394 -0.701,-101.369 C-1.189,-101.344 -1.645,-101.112 -1.952,-100.734 C-2.951,-99.505 -3.334,-97.936 -3.002,-96.429 C-2.489,-94.097 -3.278,-91.659 -5.054,-90.065 C-7.046,-88.284 -9.963,-87.94 -12.309,-89.041 C-12.399,-89.083 -12.489,-89.128 -12.577,-89.174 C-12.931,-89.361 -13.27,-89.581 -13.589,-89.836 C-13.668,-89.9 -13.747,-89.965 -13.824,-90.033 C-15.216,-91.263 -16.014,-92.956 -16.071,-94.802 C-16.128,-96.647 -15.441,-98.382 -14.137,-99.687 C-12.543,-101.28 -10.269,-101.945 -8.053,-101.465 C-6.534,-101.137 -4.96,-101.517 -3.734,-102.509 C-3.639,-102.586 -3.553,-102.672 -3.477,-102.766 C-3.25,-103.047 -3.115,-103.395 -3.096,-103.761 C-3.077,-104.128 -3.175,-104.488 -3.371,-104.791 C-3.436,-104.892 -3.513,-104.987 -3.599,-105.073 L-15.42,-116.894 L-13.506,-118.808 C-12.831,-119.482 -12.831,-120.576 -13.506,-121.25 C-14.18,-121.925 -15.274,-121.925 -15.948,-121.25 L-17.862,-119.336 L-27.447,-128.921 C-24.443,-128.608 -21.463,-129.65 -19.3,-131.812 C-17.342,-133.77 -16.269,-136.48 -16.354,-139.247 C-16.442,-142.055 -17.654,-144.63 -19.769,-146.499 C-23.588,-149.867 -29.33,-149.845 -33.125,-146.449 C-35.546,-144.286 -36.759,-141.094 -36.433,-137.908 L-45.942,-147.416 L-24.655,-168.703 C-20.91,-172.449 -14.815,-172.449 -11.069,-168.703 L10.218,-147.417 L-1.746,-135.453 C-2.098,-135.101 -2.281,-134.613 -2.248,-134.116 C-2.215,-133.619 -1.968,-133.161 -1.572,-132.858 C-0.364,-131.937 1.158,-131.59 2.604,-131.907 C4.934,-132.421 7.371,-131.635 8.964,-129.857 C11.157,-127.405 11.172,-123.554 8.997,-121.089 C7.771,-119.696 6.077,-118.898 4.233,-118.84 C2.387,-118.782 0.651,-119.469 -0.653,-120.774 C-2.25,-122.371 -2.916,-124.643 -2.434,-126.857 C-2.121,-128.31 -2.464,-129.836 -3.375,-131.043 C-3.676,-131.442 -4.135,-131.691 -4.634,-131.725 C-5.132,-131.76 -5.621,-131.577 -5.975,-131.224 L-11.063,-126.135 C-11.738,-125.461 -11.738,-124.367 -11.063,-123.692 C-10.389,-123.018 -9.295,-123.018 -8.621,-123.692 L-6.005,-126.308 C-6.263,-123.364 -5.22,-120.455 -3.096,-118.331 C-1.139,-116.374 1.572,-115.301 4.341,-115.387 C7.149,-115.475 9.721,-116.688 11.588,-118.803 C14.956,-122.621 14.935,-128.363 11.538,-132.16 C9.41,-134.536 6.292,-135.747 3.166,-135.479 L12.661,-144.974 L33.947,-123.687 C37.693,-119.941 37.693,-113.846 33.947,-110.101 L30.879,-107.032 C30.204,-106.358 30.204,-105.264 30.879,-104.589 C31.553,-103.915 32.647,-103.915 33.321,-104.589 L36.39,-107.658 C41.483,-112.751 41.483,-121.037 36.39,-126.13 L-8.626,-171.146 C-13.719,-176.239 -22.005,-176.239 -27.098,-171.146 L-49.606,-148.638 C-50.281,-147.963 -50.281,-146.87 -49.606,-146.195 L-36.489,-133.077 C-36.143,-132.732 -35.667,-132.549 -35.178,-132.574 C-34.69,-132.599 -34.235,-132.83 -33.927,-133.209 C-32.928,-134.438 -32.546,-136.007 -32.877,-137.514 C-33.39,-139.846 -32.603,-142.283 -30.823,-143.875 C-28.372,-146.068 -24.52,-146.083 -22.056,-143.909 C-20.663,-142.679 -19.865,-140.985 -19.808,-139.14 C-19.751,-137.295 -20.438,-135.56 -21.743,-134.255" fill="#444444"/>
      <path d="M-8.417,-105.027 C-11.423,-105.34 -14.403,-104.299 -16.566,-102.137 C-18.523,-100.18 -19.596,-97.47 -19.51,-94.703 C-19.423,-91.894 -18.211,-89.319 -16.096,-87.451 C-12.276,-84.082 -6.533,-84.102 -2.736,-87.499 C-0.319,-89.666 0.894,-92.857 0.568,-96.042 L10.232,-86.379 L-11.055,-65.092 C-14.801,-61.346 -20.896,-61.346 -24.642,-65.092 L-45.929,-86.379 L-33.949,-98.358 C-33.609,-98.698 -33.427,-99.163 -33.444,-99.643 C-33.462,-100.123 -33.679,-100.574 -34.043,-100.888 C-35.274,-101.949 -36.928,-102.38 -38.468,-102.041 C-40.798,-101.527 -43.236,-102.313 -44.83,-104.093 C-47.023,-106.545 -47.038,-110.396 -44.863,-112.861 C-43.637,-114.254 -41.944,-115.051 -40.099,-115.109 C-38.253,-115.167 -36.516,-114.479 -35.21,-113.173 C-33.615,-111.578 -32.95,-109.306 -33.432,-107.092 C-33.766,-105.536 -33.338,-103.876 -32.287,-102.65 C-31.974,-102.285 -31.523,-102.066 -31.042,-102.048 C-30.561,-102.03 -30.095,-102.213 -29.755,-102.553 L-17.849,-114.459 L-8.417,-105.027 L-8.417,-105.027 z" fill="url(#Gradient_1)"/>
    </g>
    <g>
      <g id="Group">
        <path d="M131.112,-146.77 L131.112,-146.77 C131.613,-147.271 132.425,-147.271 132.926,-146.77 L135.719,-143.977 C136.22,-143.476 136.22,-142.664 135.719,-142.162 L135.719,-142.162 C135.218,-141.661 134.405,-141.661 133.904,-142.162 L131.112,-144.955 C130.611,-145.456 130.611,-146.269 131.112,-146.77 z" fill="#D8D8D8" id="Rectangle-2"/>
        <path d="M135.699,-146.789 L135.699,-146.789 C136.2,-146.288 136.2,-145.476 135.699,-144.975 L132.907,-142.182 C132.406,-141.681 131.593,-141.681 131.092,-142.182 L131.092,-142.182 C130.591,-142.683 130.591,-143.495 131.092,-143.996 L133.885,-146.789 C134.386,-147.29 135.198,-147.29 135.699,-146.789 z" fill="#D8D8D8" id="Rectangle-2"/>
      </g>
      <g id="Group">
        <path d="M172.213,-207.163 L172.213,-207.163 C173.383,-207.163 174.331,-206.215 174.331,-205.045 L174.331,-198.525 C174.331,-197.355 173.383,-196.407 172.213,-196.407 L172.213,-196.407 C171.043,-196.407 170.095,-197.355 170.095,-198.525 L170.095,-205.045 C170.095,-206.215 171.043,-207.163 172.213,-207.163 z" fill="#D8D8D8" id="Rectangle-2"/>
        <path d="M177.591,-201.831 L177.591,-201.831 C177.591,-200.661 176.643,-199.712 175.473,-199.712 L168.953,-199.712 C167.783,-199.712 166.835,-200.661 166.835,-201.831 L166.835,-201.831 C166.835,-203 167.783,-203.949 168.953,-203.949 L175.473,-203.949 C176.643,-203.949 177.591,-203 177.591,-201.831 z" fill="#D8D8D8" id="Rectangle-2"/>
      </g>
      <g id="Group">
        <path d="M262.243,-163.17 L262.243,-163.17 C263.413,-163.17 264.361,-162.222 264.361,-161.052 L264.361,-154.533 C264.361,-153.363 263.413,-152.415 262.243,-152.415 L262.243,-152.415 C261.074,-152.415 260.125,-153.363 260.125,-154.533 L260.125,-161.052 C260.125,-162.222 261.074,-163.17 262.243,-163.17 z" fill="#D8D8D8" id="Rectangle-2"/>
        <path d="M267.621,-157.838 L267.621,-157.838 C267.621,-156.668 266.673,-155.72 265.503,-155.72 L258.983,-155.72 C257.814,-155.72 256.865,-156.668 256.865,-157.838 L256.865,-157.838 C256.865,-159.008 257.814,-159.956 258.983,-159.956 L265.503,-159.956 C266.673,-159.956 267.621,-159.008 267.621,-157.838 z" fill="#D8D8D8" id="Rectangle-2"/>
      </g>
      <g id="Group">
        <path d="M248.402,-110.989 L248.402,-110.989 C248.903,-111.49 249.716,-111.49 250.217,-110.989 L253.009,-108.197 C253.51,-107.695 253.51,-106.883 253.009,-106.382 L253.009,-106.382 C252.508,-105.881 251.696,-105.881 251.195,-106.382 L248.402,-109.175 C247.901,-109.676 247.901,-110.488 248.402,-110.989 z" fill="#D8D8D8" id="Rectangle-2"/>
        <path d="M252.99,-111.009 L252.99,-111.009 C253.491,-110.508 253.491,-109.695 252.99,-109.194 L250.197,-106.401 C249.696,-105.9 248.884,-105.9 248.383,-106.401 L248.383,-106.401 C247.882,-106.903 247.882,-107.715 248.383,-108.216 L251.175,-111.009 C251.676,-111.51 252.489,-111.51 252.99,-111.009 z" fill="#D8D8D8" id="Rectangle-2"/>
      </g>
      <path d="M158.288,-179.271 C158.288,-177.864 157.14,-176.724 155.722,-176.724 C154.305,-176.724 153.156,-177.864 153.156,-179.271 C153.156,-180.678 154.305,-181.819 155.722,-181.819 C157.14,-181.819 158.288,-180.678 158.288,-179.271 z" fill="#D8D8D8" id="Oval-2"/>
      <path d="M130.088,-164.714 C130.088,-163.307 128.94,-162.166 127.522,-162.166 C126.105,-162.166 124.956,-163.307 124.956,-164.714 C124.956,-166.12 126.105,-167.261 127.522,-167.261 C128.94,-167.261 130.088,-166.12 130.088,-164.714 z" fill="#D8D8D8" id="Oval-2"/>
      <path d="M206.69,-191.825 C206.69,-190.619 205.712,-189.641 204.506,-189.641 C203.3,-189.641 202.322,-190.619 202.322,-191.825 C202.322,-193.031 203.3,-194.009 204.506,-194.009 C205.712,-194.009 206.69,-193.031 206.69,-191.825 z" fill="#D8D8D8" id="Oval-3"/>
      <path d="M253.385,-174.54 C253.385,-173.334 252.407,-172.356 251.201,-172.356 C249.995,-172.356 249.017,-173.334 249.017,-174.54 C249.017,-175.746 249.995,-176.724 251.201,-176.724 C252.407,-176.724 253.385,-175.746 253.385,-174.54 z" fill="#D8D8D8" id="Oval-3"/>
      <path d="M240.209,-153.7 C240.209,-152.494 239.232,-151.516 238.025,-151.516 C236.819,-151.516 235.841,-152.494 235.841,-153.7 C235.841,-154.906 236.819,-155.884 238.025,-155.884 C239.232,-155.884 240.209,-154.906 240.209,-153.7 z" fill="#D8D8D8" id="Oval-3"/>
      <path d="M140.463,-186.367 C140.463,-185.161 139.485,-184.183 138.279,-184.183 C137.072,-184.183 136.095,-185.161 136.095,-186.367 C136.095,-187.573 137.072,-188.551 138.279,-188.551 C139.485,-188.551 140.463,-187.573 140.463,-186.367 z" fill="#D8D8D8" id="Oval-3"/>
      <path d="M233.588,-177.911 C233.515,-176.506 232.309,-175.427 230.893,-175.5 C229.478,-175.574 228.39,-176.773 228.463,-178.178 C228.536,-179.583 229.742,-180.662 231.158,-180.588 C232.573,-180.515 233.661,-179.316 233.588,-177.911 z" fill-opacity="0" stroke="#D8D8D8" stroke-width="1" id="Oval"/>
      <path d="M113.338,-188.661 C113.265,-187.256 112.059,-186.177 110.643,-186.25 C109.228,-186.324 108.14,-187.523 108.213,-188.928 C108.286,-190.333 109.492,-191.412 110.908,-191.338 C112.323,-191.265 113.411,-190.066 113.338,-188.661 z" fill-opacity="0" stroke="#D8D8D8" stroke-width="1" id="Oval"/>
      <path d="M243.838,-206.411 C243.765,-205.006 242.559,-203.927 241.143,-204 C239.728,-204.074 238.64,-205.273 238.713,-206.678 C238.786,-208.083 239.992,-209.162 241.408,-209.088 C242.823,-209.015 243.911,-207.816 243.838,-206.411 z" fill-opacity="0" stroke="#D8D8D8" stroke-width="1" id="Oval"/>
      <path d="M265.309,-138.739 C265.309,-137.332 264.161,-136.192 262.743,-136.192 C261.326,-136.192 260.177,-137.332 260.177,-138.739 C260.177,-140.146 261.326,-141.287 262.743,-141.287 C264.161,-141.287 265.309,-140.146 265.309,-138.739 z" fill-opacity="0" stroke="#D8D8D8" stroke-width="1" id="Oval"/>
      <path d="M117.984,-126.807 L120.467,-124.325 L122.979,-126.837 L120.496,-129.32 L117.984,-126.807 z" fill-opacity="0" stroke="#D8D8D8" stroke-width="1" id="Rectangle-3"/>
      <g>
        <path d="M228.271,-112.682 L224.48,-120.261 C225.284,-121.893 225.973,-123.541 226.539,-125.182 L234.563,-127.857 L234.563,-149.816 L226.539,-152.492 C225.975,-154.132 225.284,-155.781 224.48,-157.412 L228.274,-164.999 L212.748,-180.525 L205.161,-176.731 C203.53,-177.535 201.881,-178.226 200.241,-178.79 L197.565,-186.814 L175.606,-186.814 L172.931,-178.79 C171.29,-178.226 169.642,-177.535 168.01,-176.731 L160.423,-180.525 L144.897,-164.999 L148.691,-157.412 C147.887,-155.781 147.197,-154.132 146.633,-152.492 L138.609,-149.816 L138.609,-127.859 L146.633,-125.185 C147.193,-123.555 147.874,-121.922 148.671,-120.304 L146.202,-115.808 L134.77,-115.808 L134.77,-77.426 L148.204,-77.426 L148.204,-83.183 L162.762,-83.183 L168.519,-77.426 L178.909,-77.426 L178.909,-75.507 C178.909,-71.273 182.352,-67.831 186.586,-67.831 C190.819,-67.831 194.262,-71.273 194.262,-75.507 L194.262,-77.426 L207.698,-77.426 C210.871,-77.426 213.455,-80.01 213.455,-83.183 C213.455,-84.663 212.878,-86 211.958,-87.021 C212.879,-88.043 213.455,-89.38 213.455,-90.86 C213.455,-92.339 212.878,-93.676 211.958,-94.698 C212.691,-95.511 213.191,-96.527 213.367,-97.659 z M152.544,-121.155 C151.488,-123.182 150.626,-125.244 149.983,-127.278 L149.687,-128.211 L142.447,-130.625 L142.447,-147.05 L149.687,-149.463 L149.981,-150.397 C150.622,-152.43 151.484,-154.491 152.541,-156.519 L152.992,-157.389 L149.567,-164.241 L161.179,-175.854 L168.032,-172.428 L168.902,-172.879 C170.931,-173.937 172.991,-174.798 175.023,-175.44 L175.958,-175.733 L178.374,-182.976 L194.799,-182.976 L197.212,-175.735 L198.146,-175.442 C200.179,-174.801 202.24,-173.939 204.268,-172.882 L205.138,-172.43 L211.99,-175.856 L223.603,-164.243 L220.177,-157.391 L220.628,-156.521 C221.686,-154.491 222.547,-152.432 223.189,-150.399 L223.482,-149.465 L230.725,-147.048 L230.725,-130.624 L223.484,-128.211 L223.189,-127.278 C222.545,-125.244 221.684,-123.182 220.628,-121.155 L220.177,-120.285 L223.607,-113.428 L212.267,-102 C212.169,-102.129 212.065,-102.255 211.958,-102.374 C212.879,-103.396 213.455,-104.733 213.455,-106.212 C213.455,-109.206 211.15,-111.644 208.227,-111.916 C216.368,-118.441 221.129,-128.232 221.129,-138.837 C221.129,-157.883 205.632,-173.38 186.586,-173.38 C167.539,-173.38 152.042,-157.883 152.042,-138.837 C152.042,-128.36 156.805,-118.506 164.89,-111.97 L148.475,-111.97 L153.017,-120.245 z M209.617,-90.86 C209.617,-89.801 208.755,-88.941 207.698,-88.941 L192.343,-88.941 C191.286,-88.941 190.424,-89.801 190.424,-90.86 C190.424,-91.918 191.286,-92.779 192.343,-92.779 L207.698,-92.779 C208.755,-92.779 209.617,-91.918 209.617,-90.86 z M181.953,-138.837 L191.218,-138.837 L194.262,-141.88 L194.262,-150.351 C196.379,-150.351 198.1,-148.63 198.1,-146.513 L198.1,-137.712 L191.549,-131.16 L181.623,-131.16 L175.071,-137.712 L175.071,-146.513 C175.071,-148.63 176.793,-150.351 178.909,-150.351 L178.909,-141.88 z M182.748,-127.322 L190.424,-127.322 L190.424,-119.646 L182.748,-119.646 z M194.262,-128.447 L201.938,-136.123 L201.938,-146.513 C201.938,-150.747 198.496,-154.189 194.262,-154.189 L190.424,-154.189 L190.424,-143.469 L189.629,-142.675 L183.542,-142.675 L182.748,-143.469 L182.748,-154.189 L178.909,-154.189 C174.676,-154.189 171.233,-150.747 171.233,-146.513 L171.233,-136.123 L178.909,-128.447 L178.909,-119.646 L174.277,-119.646 L174.156,-119.525 C167.604,-123.753 163.557,-131.001 163.557,-138.837 C163.557,-151.536 173.887,-161.866 186.586,-161.866 C199.285,-161.866 209.615,-151.536 209.615,-138.837 C209.615,-131.058 205.729,-123.935 199.225,-119.646 L194.262,-119.646 z M213.453,-138.837 C213.453,-153.653 201.402,-165.704 186.586,-165.704 C171.77,-165.704 159.719,-153.653 159.719,-138.837 C159.719,-129.972 164.128,-121.719 171.361,-116.731 L168.598,-113.967 C160.628,-119.74 155.88,-128.978 155.88,-138.837 C155.88,-155.766 169.656,-169.542 186.586,-169.542 C203.515,-169.542 217.291,-155.766 217.291,-138.837 C217.291,-129.353 213.004,-120.602 205.685,-114.8 C205.465,-116.161 204.771,-117.351 203.773,-118.216 C209.889,-123.294 213.453,-130.771 213.453,-138.837 z M207.698,-108.131 C208.755,-108.131 209.617,-107.271 209.617,-106.212 C209.617,-105.153 208.755,-104.293 207.698,-104.293 L192.343,-104.293 C191.286,-104.293 190.424,-105.153 190.424,-106.212 C190.424,-107.271 191.286,-108.131 192.343,-108.131 z M192.343,-96.617 C191.286,-96.617 190.424,-97.477 190.424,-98.536 C190.424,-99.595 191.286,-100.455 192.343,-100.455 L207.698,-100.455 C208.755,-100.455 209.617,-99.595 209.617,-98.536 C209.617,-97.477 208.755,-96.617 207.698,-96.617 z M138.609,-111.97 L144.366,-111.97 L144.366,-81.264 L138.609,-81.264 z M170.108,-81.264 L164.351,-87.021 L148.204,-87.021 L148.204,-108.131 L168.189,-108.131 L175.866,-115.808 L200.019,-115.808 C201.076,-115.808 201.938,-114.948 201.938,-113.889 C201.938,-112.83 201.076,-111.97 200.019,-111.97 L180.034,-111.97 L171.795,-103.731 L174.509,-101.017 L178.909,-105.418 L178.909,-81.264 z M186.586,-71.669 C184.469,-71.669 182.748,-73.39 182.748,-75.507 L182.748,-108.131 L186.939,-108.131 C186.723,-107.529 186.586,-106.888 186.586,-106.212 C186.586,-104.733 187.163,-103.396 188.082,-102.374 C187.161,-101.353 186.586,-100.016 186.586,-98.536 C186.586,-97.056 187.163,-95.719 188.082,-94.698 C187.161,-93.676 186.586,-92.339 186.586,-90.86 C186.586,-89.38 187.163,-88.043 188.082,-87.021 C187.161,-86 186.586,-84.663 186.586,-83.183 C186.586,-80.685 188.196,-78.574 190.424,-77.779 L190.424,-75.507 C190.424,-73.39 188.703,-71.669 186.586,-71.669 z M207.698,-81.264 L192.343,-81.264 C191.286,-81.264 190.424,-82.124 190.424,-83.183 C190.424,-84.242 191.286,-85.102 192.343,-85.102 L207.698,-85.102 C208.755,-85.102 209.617,-84.242 209.617,-83.183 C209.617,-82.124 208.755,-81.264 207.698,-81.264 z M207.698,-81.264" fill="#444444"/>
        <path d="M194.781,-182.994 L178.356,-182.994 L175.939,-175.752 L175.005,-175.458 C172.973,-174.816 170.913,-173.955 168.883,-172.897 L168.014,-172.446 L161.161,-175.872 L149.548,-164.259 L152.974,-157.407 L152.522,-156.537 C151.466,-154.509 150.604,-152.447 149.962,-150.415 L149.669,-149.481 L142.429,-147.068 L142.429,-130.644 L149.669,-128.229 L149.964,-127.296 C150.608,-125.262 151.469,-123.2 152.525,-121.172 L152.998,-120.263 L148.457,-111.988 L164.872,-111.988 C156.787,-118.523 152.024,-128.378 152.024,-138.855 C152.024,-157.901 167.521,-173.398 186.568,-173.398 C205.614,-173.398 221.111,-157.901 221.111,-138.855 C221.111,-128.25 216.35,-118.459 208.209,-111.934 C211.132,-111.661 213.437,-109.224 213.437,-106.23 C213.437,-104.751 212.861,-103.413 211.94,-102.392 C212.047,-102.273 212.151,-102.147 212.249,-102.018 L223.589,-113.446 L220.159,-120.303 L220.61,-121.173 C221.666,-123.2 222.527,-125.262 223.171,-127.296 L223.466,-128.229 L230.707,-130.642 L230.707,-147.066 L223.464,-149.483 L223.171,-150.417 C222.529,-152.449 221.668,-154.509 220.61,-156.539 L220.159,-157.409 L223.585,-164.261 L211.972,-175.874 L205.119,-172.448 L204.25,-172.9 C202.222,-173.957 200.161,-174.819 198.128,-175.46 L197.194,-175.753 L194.781,-182.994 z" fill="url(#Gradient_2)"/>
      </g>
    </g>
    <g>
      <path d="M143.346,144.677 L60.445,144.677 C58.857,144.677 57.569,143.39 57.569,141.802 L57.569,73.755 L146.222,73.755 L146.222,141.802 C146.222,143.39 144.935,144.677 143.346,144.677" fill="#D6D6D6"/>
      <path d="M146.222,73.755 L57.569,73.755 L57.569,61.855 C57.569,60.267 58.857,58.979 60.445,58.979 L143.346,58.979 C144.935,58.979 146.222,60.267 146.222,61.855 L146.222,73.755" fill="#444444"/>
      <path d="M67.173,62.673 C69.213,62.673 70.867,64.327 70.867,66.367 C70.867,68.407 69.213,70.061 67.173,70.061 C65.133,70.061 63.479,68.407 63.479,66.367 C63.479,64.327 65.133,62.673 67.173,62.673" fill="#3C6075"/>
      <path d="M78.994,62.673 C81.034,62.673 82.688,64.327 82.688,66.367 C82.688,68.408 81.034,70.061 78.994,70.061 C76.954,70.061 75.3,68.408 75.3,66.367 C75.3,64.327 76.954,62.673 78.994,62.673" fill="#3C6075"/>
      <path d="M91.094,62.673 C93.135,62.673 94.789,64.327 94.789,66.367 C94.789,68.408 93.135,70.061 91.094,70.061 C89.054,70.061 87.4,68.408 87.4,66.367 C87.4,64.327 89.054,62.673 91.094,62.673" fill="#3C6075"/>
      <path d="M158.866,137.685 L165.413,136.074 L165.413,127.826 L158.866,126.215 C158.186,123.125 156.964,120.244 155.312,117.659 L158.808,111.881 L152.976,106.049 L147.197,109.545 C144.613,107.893 141.732,106.672 138.642,105.992 L137.031,99.444 L128.783,99.444 L127.172,105.992 C124.081,106.672 121.2,107.893 118.615,109.545 L112.837,106.049 L107.005,111.882 L110.501,117.66 C108.849,120.244 107.628,123.125 106.948,126.216 L100.4,127.827 L100.4,136.075 L106.948,137.686 C107.628,140.776 108.849,143.657 110.501,146.242 L107.005,152.02 L112.837,157.852 L118.615,154.356 C121.2,156.008 124.081,157.23 127.172,157.91 L128.783,164.456 L137.031,164.456 L138.642,157.91 C141.732,157.23 144.614,156.008 147.198,154.356 L152.976,157.851 L158.808,152.019 L155.312,146.242 C156.964,143.657 158.186,140.775 158.866,137.685" fill="url(#Gradient_3)"/>
      <path d="M132.907,111.264 C144.332,111.264 153.593,120.525 153.593,131.949 C153.593,143.374 144.332,152.635 132.907,152.635 C121.483,152.635 112.221,143.374 112.221,131.949 C112.221,120.525 121.483,111.264 132.907,111.264" fill="#FFFFFF"/>
      <path d="M132.907,120.13 C139.435,120.13 144.727,125.422 144.727,131.949 C144.727,138.477 139.435,143.769 132.907,143.769 C126.38,143.769 121.088,138.477 121.088,131.949 C121.088,125.422 126.38,120.13 132.907,120.13" fill="#3C6075"/>
      <path d="M80.039,95.173 L77.298,88.956 L74.556,95.173 L80.039,95.173 z M73.52,97.525 L72.009,100.958 L69.288,100.958 L75.937,85.869 L78.658,85.869 L85.306,100.958 L82.587,100.958 L81.075,97.525 L73.52,97.525" fill="#444444"/>
      <path d="M95.788,93.413 C96.298,92.873 96.554,92.083 96.554,91.039 C96.554,89.996 96.229,89.258 95.582,88.826 C94.935,88.393 93.92,88.179 92.538,88.179 L89.948,88.179 L89.948,94.223 L92.905,94.223 C94.315,94.223 95.276,93.954 95.788,93.413 z M97.59,87.185 C98.641,88.063 99.166,89.416 99.166,91.243 C99.166,93.072 98.629,94.411 97.558,95.259 C96.485,96.108 94.841,96.533 92.624,96.533 L89.948,96.533 L89.948,100.958 L87.4,100.958 L87.4,85.869 L92.581,85.869 C94.87,85.869 96.539,86.308 97.59,87.185" fill="#444444"/>
      <path d="M102.166,85.869 L104.714,85.869 L104.714,100.958 L102.166,100.958 z" fill="#444444"/>
      <path d="M137.595,69.243 L103.539,69.243 C101.951,69.243 100.664,67.956 100.664,66.367 C100.664,64.779 101.951,63.491 103.539,63.491 L137.595,63.491 C139.183,63.491 140.47,64.779 140.47,66.367 C140.47,67.956 139.183,69.243 137.595,69.243" fill="#D8DADA"/>
    </g>
  </g>
</svg>
