<?xml version="1.0" encoding="UTF-8"?>
<!DOCTYPE svg PUBLIC "-//W3C//DTD SVG 1.1//EN" "http://www.w3.org/Graphics/SVG/1.1/DTD/svg11.dtd">
<svg version="1.1" xmlns="http://www.w3.org/2000/svg" xmlns:xlink="http://www.w3.org/1999/xlink" x="0" y="0" width="200" height="200" viewBox="0, 0, 200, 200">
  <defs>
    <linearGradient id="Gradient_1" gradientUnits="userSpaceOnUse" x1="136.795" y1="74.195" x2="63.291" y2="107.28">
      <stop offset="0" stop-color="#2B5E7C" stop-opacity="0.514"/>
      <stop offset="1" stop-color="#2B5E7C"/>
    </linearGradient>
  </defs>
  <g id="Layer_1">
    <g id="invoice">
      <g id="Group-19">
        <path d="M444.427,-8.137 L371.938,-8.137 L367.711,-11.686 L368.997,-107.52 L371.388,-111.646 L443.525,-110.881 L444.854,-108.031 L445.366,-96.053 z" fill="#82CBFF" id="Path"/>
        <path d="M385.529,-16.112 L427.921,-16.112 L431.792,-20.122 L433.399,-23.439 L433.69,-96.381 L429.231,-102.082 L424.424,-103.17 L384.315,-102.536 L382.729,-97.877 L376.941,-95.428 L376.535,-24.666 L382.006,-21.256 z" fill="#FFFFFF" id="Path-12"/>
        <path d="M419.593,-57.998 C419.593,-51.967 414.704,-47.078 408.673,-47.078 C402.642,-47.078 397.753,-51.967 397.753,-57.998 C397.753,-64.029 402.642,-68.918 408.673,-68.918 C414.704,-68.918 419.593,-64.029 419.593,-57.998 z" fill-opacity="0" stroke="#444444" stroke-width="2" id="Oval-7"/>
        <path d="M417.808,-94.899 L464.437,-94.899 L464.437,-23.709 L459.74,-23.709 L456.811,-26.638 L453.682,-26.638 L450.635,-23.591 L446.104,-23.591 L442.986,-26.709 L439.551,-26.709 L437.059,-24.217 L431.732,-24.217 L428.87,-27.078 L425.394,-27.078 L422.049,-23.733 L418.251,-23.733" fill="#4DB5FF" id="path-1"/>
        <path d="M426.544,-101.451 L473.173,-101.451 L473.173,-23.709 L468.476,-23.709 L465.547,-26.638 L462.418,-26.638 L459.371,-23.591 L454.84,-23.591 L451.722,-26.709 L448.287,-26.709 L445.795,-24.217 L440.468,-24.217 L437.606,-27.078 L434.13,-27.078 L430.785,-23.733 L426.987,-23.733" fill="#82CBFF" id="Path"/>
      </g>
      <path d="M425.74,-83.547 L453.259,-83.547 C454.276,-83.547 455.102,-84.37 455.102,-85.384 C455.102,-86.399 454.276,-87.221 453.259,-87.221 L425.74,-87.221 C424.723,-87.221 423.897,-86.399 423.897,-85.384 C423.897,-84.37 424.723,-83.547 425.74,-83.547 z" fill="#444444" id="Fill-1"/>
      <path d="M451.416,-75.364 C451.416,-74.349 452.241,-73.528 453.259,-73.528 L457.19,-73.528 C458.208,-73.528 459.033,-74.349 459.033,-75.364 C459.033,-76.378 458.208,-77.201 457.19,-77.201 L453.259,-77.201 C452.241,-77.201 451.416,-76.378 451.416,-75.364 z" fill="#444444" id="Fill-2"/>
      <path d="M425.74,-73.528 L445.396,-73.528 C446.413,-73.528 447.239,-74.349 447.239,-75.364 C447.239,-76.378 446.413,-77.201 445.396,-77.201 L425.74,-77.201 C424.723,-77.201 423.897,-76.378 423.897,-75.364 C423.897,-74.349 424.723,-73.528 425.74,-73.528 z" fill="#444444" id="Fill-3"/>
      <path d="M425.74,-63.122 L453.259,-63.122 C454.276,-63.122 455.102,-63.943 455.102,-64.959 C455.102,-65.972 454.276,-66.795 453.259,-66.795 L425.74,-66.795 C424.723,-66.795 423.897,-65.972 423.897,-64.959 C423.897,-63.943 424.723,-63.122 425.74,-63.122 z" fill="#444444" id="Fill-7"/>
      <path d="M457.19,-56.774 L453.259,-56.774 C452.241,-56.774 451.416,-55.953 451.416,-54.938 C451.416,-53.924 452.241,-53.101 453.259,-53.101 L457.19,-53.101 C458.208,-53.101 459.033,-53.924 459.033,-54.938 C459.033,-55.953 458.208,-56.774 457.19,-56.774 z" fill="#444444" id="Fill-8"/>
      <path d="M457.19,-37.183 L449.327,-37.183 C448.31,-37.183 447.485,-36.362 447.485,-35.346 C447.485,-34.333 448.31,-33.51 449.327,-33.51 L457.19,-33.51 C458.208,-33.51 459.033,-34.333 459.033,-35.346 C459.033,-36.362 458.208,-37.183 457.19,-37.183 z" fill="#444444" id="Fill-10"/>
      <path d="M425.74,-53.101 L445.396,-53.101 C446.413,-53.101 447.239,-53.924 447.239,-54.938 C447.239,-55.953 446.413,-56.774 445.396,-56.774 L425.74,-56.774 C424.723,-56.774 423.897,-55.953 423.897,-54.938 C423.897,-53.924 424.723,-53.101 425.74,-53.101 z" fill="#444444" id="Fill-11"/>
      <path d="M465.052,-97.242 L447.239,-97.242 L447.239,-107.159 C447.239,-110.332 444.649,-112.914 441.464,-112.914 L372.451,-112.914 C369.267,-112.914 366.677,-110.332 366.677,-107.159 L366.677,-11.837 C366.677,-8.664 369.267,-6.083 372.451,-6.083 L441.464,-6.083 C444.649,-6.083 447.239,-8.664 447.239,-11.837 L447.239,-21.756 L451.292,-21.756 C452.311,-21.756 453.135,-22.577 453.135,-23.592 C453.135,-24.74 454.072,-25.674 455.224,-25.674 C456.376,-25.674 457.313,-24.74 457.313,-23.592 C457.313,-22.577 458.138,-21.756 459.155,-21.756 L465.052,-21.756 C466.069,-21.756 466.895,-22.577 466.895,-23.592 L466.895,-95.405 C466.895,-96.419 466.069,-97.242 465.052,-97.242 z M443.553,-11.837 C443.553,-10.69 442.616,-9.756 441.464,-9.756 L372.451,-9.756 C371.3,-9.756 370.363,-10.69 370.363,-11.837 L370.363,-107.159 C370.363,-108.307 371.3,-109.241 372.451,-109.241 L441.464,-109.241 C442.616,-109.241 443.553,-108.307 443.553,-107.159 L443.553,-97.242 L437.534,-97.242 C434.215,-97.242 431.514,-99.933 431.514,-103.24 C431.514,-104.256 430.689,-105.077 429.672,-105.077 L384.244,-105.077 C383.227,-105.077 382.401,-104.256 382.401,-103.24 C382.401,-99.933 379.701,-97.242 376.383,-97.242 C375.364,-97.242 374.54,-96.419 374.54,-95.405 L374.54,-23.592 C374.54,-22.577 375.364,-21.756 376.383,-21.756 C379.701,-21.756 382.401,-19.064 382.401,-15.755 C382.401,-14.741 383.227,-13.919 384.244,-13.919 L429.672,-13.919 C430.689,-13.919 431.514,-14.741 431.514,-15.755 C431.514,-19.064 434.215,-21.756 437.534,-21.756 C438.552,-21.756 439.377,-22.577 439.377,-23.592 C439.377,-24.74 440.314,-25.674 441.464,-25.674 C442.616,-25.674 443.553,-24.74 443.553,-23.592 L443.553,-11.837 z M416.036,-23.592 C416.036,-22.577 416.86,-21.756 417.879,-21.756 L423.775,-21.756 C424.792,-21.756 425.618,-22.577 425.618,-23.592 C425.618,-24.74 426.555,-25.674 427.707,-25.674 C428.857,-25.674 429.794,-24.74 429.794,-23.592 C429.794,-23.071 430.013,-22.601 430.364,-22.267 C429.184,-20.978 428.351,-19.371 428.006,-17.592 L385.912,-17.592 C385.163,-21.457 382.102,-24.508 378.224,-25.254 L378.224,-93.743 C382.102,-94.489 385.163,-97.54 385.912,-101.404 L428.004,-101.404 C428.304,-99.853 428.978,-98.434 429.927,-97.242 L417.879,-97.242 C416.86,-97.242 416.036,-96.419 416.036,-95.405 L416.036,-23.592 z M463.209,-25.429 L460.697,-25.429 C459.926,-27.704 457.764,-29.348 455.224,-29.348 C452.684,-29.348 450.522,-27.704 449.752,-25.429 L446.938,-25.429 C446.166,-27.704 444.004,-29.348 441.464,-29.348 C438.925,-29.348 436.763,-27.704 435.993,-25.429 L433.178,-25.429 C432.408,-27.704 430.246,-29.348 427.707,-29.348 C425.167,-29.348 423.005,-27.704 422.233,-25.429 L419.721,-25.429 L419.721,-93.568 L463.209,-93.568 L463.209,-25.429 z" fill="#444444" id="Fill-13"/>
    </g>
    <g>
      <path d="M133.657,84.642 C132.812,70.213 120.919,58.687 106.593,58.687 C97.891,58.687 89.464,62.952 84.236,69.915 C84.12,69.853 83.994,69.815 83.87,69.751 C83.557,69.602 83.235,69.454 82.906,69.322 C82.72,69.25 82.54,69.188 82.351,69.118 C82.031,69.007 81.702,68.907 81.366,68.813 C81.177,68.765 80.997,68.711 80.809,68.671 C80.45,68.593 80.082,68.531 79.707,68.477 C79.551,68.444 79.387,68.412 79.22,68.398 C78.689,68.342 78.157,68.304 77.61,68.304 C69.651,68.304 63.189,74.774 63.189,82.725 C63.189,82.929 63.195,83.131 63.211,83.328 L63.211,83.336 C56.545,86.973 51.968,94.579 51.968,102.201 C51.968,113.555 61.2,122.787 72.554,122.787 L111.827,122.787 C111.991,122.787 112.156,122.779 112.328,122.763 L112.422,122.747 L112.64,122.763 C112.805,122.779 112.969,122.787 113.133,122.787 L128.846,122.787 C139.472,122.787 148.118,114.142 148.118,103.515 C148.118,94.719 141.984,86.825 133.657,84.642 z M128.846,119.578 L113.133,119.578 C113.039,119.578 112.945,119.572 112.853,119.572 L112.422,119.548 L112.102,119.572 C112.015,119.572 111.921,119.578 111.827,119.578 L72.554,119.578 C62.969,119.578 55.177,111.786 55.177,102.201 C55.177,95.541 59.512,88.632 65.481,85.769 L66.388,85.339 L66.388,84.329 C66.388,84.125 66.404,83.915 66.412,83.71 L66.428,83.452 L66.412,83.115 C66.396,82.983 66.388,82.857 66.388,82.725 C66.388,76.543 71.42,71.503 77.61,71.503 C78.103,71.503 78.595,71.551 79.08,71.613 C79.206,71.629 79.33,71.653 79.449,71.667 C79.879,71.748 80.302,71.832 80.717,71.958 C80.771,71.974 80.825,71.982 80.889,71.998 C81.342,72.138 81.788,72.319 82.225,72.513 C82.335,72.569 82.445,72.623 82.562,72.677 C82.946,72.865 83.321,73.078 83.681,73.312 C86.772,75.307 88.821,78.781 88.821,82.725 C88.821,83.608 89.542,84.329 90.426,84.329 C91.311,84.329 92.03,83.608 92.03,82.725 C92.03,78.312 90.035,74.36 86.904,71.716 C91.497,65.706 99.065,61.896 106.593,61.896 C119.002,61.896 129.306,71.724 130.38,84.149 C128.744,84.031 126.294,83.977 123.838,84.345 C122.961,84.477 122.368,85.299 122.5,86.176 C122.618,86.965 123.297,87.536 124.08,87.536 C124.158,87.536 124.237,87.528 124.323,87.514 C127.89,86.973 131.608,87.482 131.826,87.514 C139.292,88.93 144.909,95.799 144.909,103.515 C144.909,112.373 137.704,119.578 128.846,119.578 z M128.846,119.578" fill="#444444"/>
      <g id="Group">
        <path d="M166.029,68.442 L166.029,68.442 C166.738,68.442 167.312,69.017 167.312,69.725 L167.312,74.802 C167.312,75.51 166.738,76.085 166.029,76.085 L166.029,76.085 C165.321,76.085 164.746,75.51 164.746,74.802 L164.746,69.725 C164.746,69.017 165.321,68.442 166.029,68.442 z" fill="#D8D8D8" id="Rectangle-2"/>
        <path d="M169.85,72.263 L169.85,72.263 C169.85,72.972 169.276,73.546 168.567,73.546 L163.491,73.546 C162.783,73.546 162.208,72.972 162.208,72.263 L162.208,72.263 C162.208,71.555 162.783,70.98 163.491,70.98 L168.567,70.98 C169.276,70.98 169.85,71.555 169.85,72.263 z" fill="#D8D8D8" id="Rectangle-2"/>
      </g>
      <g id="Group">
        <path d="M83.363,30.442 L83.363,30.442 C84.071,30.442 84.646,31.017 84.646,31.725 L84.646,36.802 C84.646,37.51 84.071,38.085 83.363,38.085 L83.363,38.085 C82.654,38.085 82.079,37.51 82.079,36.802 L82.079,31.725 C82.079,31.017 82.654,30.442 83.363,30.442 z" fill="#D8D8D8" id="Rectangle-2"/>
        <path d="M87.184,34.263 L87.184,34.263 C87.184,34.972 86.609,35.546 85.901,35.546 L80.824,35.546 C80.116,35.546 79.541,34.972 79.541,34.263 L79.541,34.263 C79.541,33.555 80.116,32.98 80.824,32.98 L85.901,32.98 C86.609,32.98 87.184,33.555 87.184,34.263 z" fill="#D8D8D8" id="Rectangle-2"/>
      </g>
      <g id="Group">
        <path d="M20.253,89.777 L20.253,89.777 C20.754,89.276 21.566,89.276 22.067,89.777 L24.86,92.57 C25.361,93.071 25.361,93.883 24.86,94.384 L24.86,94.384 C24.359,94.885 23.546,94.885 23.045,94.384 L20.253,91.591 C19.751,91.09 19.751,90.278 20.253,89.777 z" fill="#D8D8D8" id="Rectangle-2"/>
        <path d="M24.84,89.758 L24.84,89.758 C25.341,90.259 25.341,91.071 24.84,91.572 L22.048,94.365 C21.546,94.866 20.734,94.866 20.233,94.365 L20.233,94.365 C19.732,93.864 19.732,93.051 20.233,92.55 L23.026,89.758 C23.527,89.256 24.339,89.256 24.84,89.758 z" fill="#D8D8D8" id="Rectangle-2"/>
      </g>
      <g id="Group">
        <path d="M163.735,124.714 L163.735,124.714 C164.236,124.213 165.049,124.213 165.55,124.714 L168.343,127.507 C168.844,128.008 168.844,128.82 168.343,129.321 L168.343,129.321 C167.841,129.822 167.029,129.822 166.528,129.321 L163.735,126.529 C163.234,126.027 163.234,125.215 163.735,124.714 z" fill="#D8D8D8" id="Rectangle-2"/>
        <path d="M168.323,124.695 L168.323,124.695 C168.824,125.196 168.824,126.008 168.323,126.509 L165.53,129.302 C165.029,129.803 164.217,129.803 163.716,129.302 L163.716,129.302 C163.215,128.801 163.215,127.988 163.716,127.487 L166.509,124.695 C167.01,124.194 167.822,124.194 168.323,124.695 z" fill="#D8D8D8" id="Rectangle-2"/>
      </g>
      <path d="M73.622,56.432 C73.622,57.839 72.473,58.979 71.056,58.979 C69.638,58.979 68.49,57.839 68.49,56.432 C68.49,55.025 69.638,53.885 71.056,53.885 C72.473,53.885 73.622,55.025 73.622,56.432 z" fill="#D8D8D8" id="Oval-2"/>
      <path d="M45.422,70.99 C45.422,72.397 44.273,73.537 42.856,73.537 C41.438,73.537 40.29,72.397 40.29,70.99 C40.29,69.583 41.438,68.442 42.856,68.442 C44.273,68.442 45.422,69.583 45.422,70.99 z" fill="#D8D8D8" id="Oval-2"/>
      <path d="M122.024,43.878 C122.024,45.084 121.046,46.062 119.84,46.062 C118.633,46.062 117.656,45.084 117.656,43.878 C117.656,42.672 118.633,41.694 119.84,41.694 C121.046,41.694 122.024,42.672 122.024,43.878 z" fill="#D8D8D8" id="Oval-3"/>
      <path d="M179.761,50.003 C179.761,51.209 178.783,52.187 177.577,52.187 C176.37,52.187 175.393,51.209 175.393,50.003 C175.393,48.797 176.37,47.819 177.577,47.819 C178.783,47.819 179.761,48.797 179.761,50.003 z" fill="#D8D8D8" id="Oval-3"/>
      <path d="M55.796,49.337 C55.796,50.543 54.818,51.521 53.612,51.521 C52.406,51.521 51.428,50.543 51.428,49.337 C51.428,48.13 52.406,47.153 53.612,47.153 C54.818,47.153 55.796,48.13 55.796,49.337 z" fill="#D8D8D8" id="Oval-3"/>
      <path d="M148.922,57.792 C148.849,59.197 147.642,60.276 146.227,60.203 C144.811,60.129 143.723,58.931 143.796,57.526 C143.869,56.121 145.076,55.041 146.491,55.115 C147.906,55.188 148.995,56.387 148.922,57.792 z" fill-opacity="0" stroke="#D8D8D8" stroke-width="1" id="Oval"/>
      <path d="M159.172,29.292 C159.099,30.697 157.892,31.776 156.477,31.703 C155.061,31.629 153.973,30.431 154.046,29.026 C154.119,27.621 155.326,26.541 156.741,26.615 C158.156,26.688 159.245,27.887 159.172,29.292 z" fill-opacity="0" stroke="#D8D8D8" stroke-width="1" id="Oval"/>
      <path d="M180.643,96.964 C180.643,98.371 179.494,99.511 178.077,99.511 C176.659,99.511 175.511,98.371 175.511,96.964 C175.511,95.557 176.659,94.417 178.077,94.417 C179.494,94.417 180.643,95.557 180.643,96.964 z" fill-opacity="0" stroke="#D8D8D8" stroke-width="1" id="Oval"/>
      <path d="M34.317,132.709 L36.8,135.192 L39.312,132.68 L36.83,130.197 L34.317,132.709 z" fill-opacity="0" stroke="#D8D8D8" stroke-width="1" id="Rectangle-3"/>
      <path d="M25.736,39.712 L28.218,42.194 L30.73,39.682 L28.248,37.2 L25.736,39.712 z" fill-opacity="0" stroke="#D8D8D8" stroke-width="1" id="Rectangle-3"/>
      <g>
        <path d="M55.972,128.837 L77.42,128.837 C79.614,128.837 81.392,130.633 81.392,132.849 L81.392,170.377 C81.392,172.593 79.614,174.389 77.42,174.389 L55.972,174.389 C53.779,174.389 52,172.593 52,170.377 L52,132.849 C52,130.633 53.779,128.837 55.972,128.837 z" fill-opacity="0" stroke="#444444" stroke-width="3"/>
        <path d="M57.787,138.232 L75.091,138.232" fill-opacity="0" stroke="#AAAAAA" stroke-width="3" stroke-linecap="round"/>
        <path d="M57.787,145.72 L70.643,145.72" fill-opacity="0" stroke="#AAAAAA" stroke-width="3" stroke-linecap="round"/>
        <path d="M75.091,145.72 L75.091,145.72" fill-opacity="0" stroke="#2B5E7C" stroke-width="3" stroke-linecap="round"/>
      </g>
      <g>
        <path d="M89.819,128.837 L111.267,128.837 C113.461,128.837 115.239,130.633 115.239,132.849 L115.239,170.377 C115.239,172.593 113.461,174.389 111.267,174.389 L89.819,174.389 C87.625,174.389 85.847,172.593 85.847,170.377 L85.847,132.849 C85.847,130.633 87.625,128.837 89.819,128.837 z" fill-opacity="0" stroke="#444444" stroke-width="3"/>
        <path d="M91.634,138.232 L108.937,138.232" fill-opacity="0" stroke="#AAAAAA" stroke-width="3" stroke-linecap="round"/>
        <path d="M91.634,145.72 L104.489,145.72" fill-opacity="0" stroke="#AAAAAA" stroke-width="3" stroke-linecap="round"/>
        <path d="M108.937,145.72 L108.937,145.72" fill-opacity="0" stroke="#2B5E7C" stroke-width="3" stroke-linecap="round"/>
      </g>
      <g>
        <path d="M123.665,128.837 L145.113,128.837 C147.307,128.837 149.085,130.633 149.085,132.849 L149.085,170.377 C149.085,172.593 147.307,174.389 145.113,174.389 L123.665,174.389 C121.472,174.389 119.693,172.593 119.693,170.377 L119.693,132.849 C119.693,130.633 121.472,128.837 123.665,128.837 z" fill-opacity="0" stroke="#444444" stroke-width="3"/>
        <path d="M125.48,138.232 L142.784,138.232" fill-opacity="0" stroke="#AAAAAA" stroke-width="3" stroke-linecap="round"/>
        <path d="M125.48,145.72 L138.336,145.72" fill-opacity="0" stroke="#AAAAAA" stroke-width="3" stroke-linecap="round"/>
        <path d="M142.784,145.72 L142.784,145.72" fill-opacity="0" stroke="#2B5E7C" stroke-width="3" stroke-linecap="round"/>
      </g>
      <path d="M128.846,119.578 L113.133,119.578 C113.039,119.578 112.945,119.572 112.853,119.572 L112.422,119.548 L112.102,119.572 C112.015,119.572 111.921,119.578 111.827,119.578 L72.554,119.578 C62.969,119.578 55.177,111.786 55.177,102.201 C55.177,95.541 59.512,88.632 65.481,85.769 L66.388,85.339 L66.388,84.329 C66.388,84.125 66.404,83.915 66.412,83.71 L66.428,83.452 L66.412,83.115 C66.396,82.983 66.388,82.857 66.388,82.725 C66.388,76.543 71.42,71.503 77.61,71.503 C78.103,71.503 78.595,71.551 79.08,71.613 C79.206,71.629 79.33,71.653 79.449,71.667 C79.879,71.748 80.302,71.832 80.717,71.958 C80.771,71.974 80.825,71.982 80.889,71.998 C81.342,72.138 81.788,72.319 82.225,72.513 C82.335,72.569 82.445,72.623 82.562,72.677 C82.946,72.865 83.321,73.078 83.681,73.312 C86.772,75.307 88.821,78.781 88.821,82.725 C88.821,83.608 89.542,84.329 90.426,84.329 C91.311,84.329 92.03,83.608 92.03,82.725 C92.03,78.312 90.035,74.36 86.904,71.716 C91.497,65.706 99.065,61.896 106.593,61.896 C119.002,61.896 129.306,71.724 130.38,84.149 C128.744,84.031 126.294,83.977 123.838,84.345 C122.961,84.477 122.368,85.299 122.5,86.176 C122.618,86.965 123.297,87.536 124.08,87.536 C124.158,87.536 124.237,87.528 124.323,87.514 C127.89,86.973 131.608,87.482 131.826,87.514 C139.292,88.93 144.909,95.799 144.909,103.515 C144.909,112.373 137.704,119.578 128.846,119.578 z M128.846,119.578" fill="url(#Gradient_1)"/>
    </g>
    <path d="M-212.296,45.814 L-71.837,45.814 C-67.509,45.814 -64,49.323 -64,53.651 L-64,194.11 C-64,198.438 -67.509,201.947 -71.837,201.947 L-212.296,201.947 C-216.624,201.947 -220.133,198.438 -220.133,194.11 L-220.133,53.651 C-220.133,49.323 -216.624,45.814 -212.296,45.814 z" fill="#FFFFFF"/>
    <g>
      <path d="M-208.185,138.322 L-208.185,135.568 Q-208.185,131.859 -205.623,129.443 L-181.326,106.795 Q-179.832,105.502 -178.7,106.261 Q-177.569,107.019 -177.569,109.099 L-177.569,118.765 Q-177.569,122.924 -181.326,126.352 L-192.685,136.917 L-181.326,147.539 Q-177.569,150.967 -177.569,155.125 L-177.569,164.791 Q-177.569,166.871 -178.7,167.601 Q-179.832,168.332 -181.326,167.096 L-205.623,144.391 Q-208.185,142.031 -208.185,138.322 z" fill="#1D1D1F"/>
      <path d="M-160.35,101.077 L-160.35,73.822 Q-160.35,73.26 -159.653,72.897 Q-158.955,72.533 -157.919,72.533 L-148.991,72.533 Q-147.955,72.533 -147.257,72.897 Q-146.56,73.26 -146.56,73.822 L-146.56,101.077 Q-146.56,101.618 -147.257,101.982 Q-147.955,102.345 -148.991,102.345 L-157.919,102.345 Q-158.955,102.345 -159.653,101.982 Q-160.35,101.618 -160.35,101.077 z" fill="#1D1D1F"/>
      <path d="M-146.56,108.099 L-146.56,165.719 Q-146.56,166.657 -147.307,167.265 Q-148.054,167.873 -149.207,167.873 L-170.984,167.873 Q-172.094,167.873 -172.842,167.265 Q-173.589,166.657 -173.589,165.719 L-173.589,156.011 Q-173.589,155.073 -172.842,154.465 Q-172.094,153.857 -170.984,153.857 L-160.48,153.857 L-160.48,120.343 L-170.984,120.343 Q-172.094,120.343 -172.842,119.736 Q-173.589,119.128 -173.589,118.225 L-173.589,108.099 Q-173.589,107.196 -172.842,106.588 Q-172.094,105.98 -170.984,105.98 L-149.207,105.98 Q-148.054,105.98 -147.307,106.588 Q-146.56,107.196 -146.56,108.099 z" fill="#1D1D1F"/>
    </g>
    <g>
      <path d="M-106.564,138.226 L-106.564,135.472 Q-106.564,131.763 -104.002,129.346 L-79.706,106.698 Q-78.212,105.406 -77.08,106.164 Q-75.949,106.923 -75.949,109.002 L-75.949,118.668 Q-75.949,122.827 -79.706,126.255 L-91.064,136.821 L-79.706,147.442 Q-75.949,150.87 -75.949,155.029 L-75.949,164.695 Q-75.949,166.774 -77.08,167.505 Q-78.212,168.235 -79.706,166.999 L-104.002,144.295 Q-106.564,141.935 -106.564,138.226 z" fill="#2C5E7C"/>
      <path d="M-108.132,135.531 L-108.132,138.285 Q-108.132,141.994 -110.694,144.41 L-134.99,167.058 Q-136.484,168.351 -137.616,167.592 Q-138.748,166.833 -138.748,164.754 L-138.748,155.088 Q-138.748,150.929 -134.99,147.501 L-123.632,136.936 L-134.99,126.314 Q-138.748,122.886 -138.748,118.728 L-138.748,109.061 Q-138.748,106.982 -137.616,106.252 Q-136.484,105.521 -134.99,106.757 L-110.694,129.461 Q-108.132,131.822 -108.132,135.531 z" fill="#2C5E7C"/>
    </g>
    <g>
      <g>
        <path d="M61.329,169.151 L61.329,168.985 Q61.329,168.761 61.484,168.615 L62.951,167.247 Q63.041,167.169 63.11,167.215 Q63.178,167.261 63.178,167.386 L63.178,167.97 Q63.178,168.221 62.951,168.428 L62.265,169.066 L62.951,169.707 Q63.178,169.914 63.178,170.166 L63.178,170.749 Q63.178,170.875 63.11,170.919 Q63.041,170.963 62.951,170.888 L61.484,169.517 Q61.329,169.375 61.329,169.151 z" fill="#1D1D1F"/>
        <path d="M64.218,166.902 L64.218,165.256 Q64.218,165.223 64.26,165.201 Q64.302,165.179 64.364,165.179 L64.903,165.179 Q64.966,165.179 65.008,165.201 Q65.05,165.223 65.05,165.256 L65.05,166.902 Q65.05,166.935 65.008,166.957 Q64.966,166.979 64.903,166.979 L64.364,166.979 Q64.302,166.979 64.26,166.957 Q64.218,166.935 64.218,166.902 z" fill="#1D1D1F"/>
        <path d="M65.05,167.326 L65.05,170.805 Q65.05,170.862 65.005,170.898 Q64.96,170.935 64.89,170.935 L63.576,170.935 Q63.508,170.935 63.463,170.898 Q63.418,170.862 63.418,170.805 L63.418,170.219 Q63.418,170.162 63.463,170.126 Q63.508,170.089 63.576,170.089 L64.21,170.089 L64.21,168.065 L63.576,168.065 Q63.508,168.065 63.463,168.029 Q63.418,167.992 63.418,167.938 L63.418,167.326 Q63.418,167.272 63.463,167.235 Q63.508,167.198 63.576,167.198 L64.89,167.198 Q64.96,167.198 65.005,167.235 Q65.05,167.272 65.05,167.326 z" fill="#1D1D1F"/>
      </g>
      <g>
        <path d="M67.465,169.145 L67.465,168.979 Q67.465,168.755 67.62,168.609 L69.087,167.242 Q69.177,167.163 69.245,167.209 Q69.314,167.255 69.314,167.381 L69.314,167.964 Q69.314,168.215 69.087,168.422 L68.401,169.06 L69.087,169.702 Q69.314,169.909 69.314,170.16 L69.314,170.743 Q69.314,170.869 69.245,170.913 Q69.177,170.957 69.087,170.882 L67.62,169.512 Q67.465,169.369 67.465,169.145 z" fill="#2C5E7C"/>
        <path d="M67.371,168.982 L67.371,169.149 Q67.371,169.373 67.216,169.519 L65.749,170.886 Q65.659,170.964 65.59,170.918 Q65.522,170.872 65.522,170.747 L65.522,170.163 Q65.522,169.912 65.749,169.705 L66.435,169.067 L65.749,168.426 Q65.522,168.219 65.522,167.968 L65.522,167.384 Q65.522,167.259 65.59,167.215 Q65.659,167.17 65.749,167.245 L67.216,168.616 Q67.371,168.758 67.371,168.982 z" fill="#2C5E7C"/>
      </g>
    </g>
    <g>
      <g>
        <path d="M96.008,169.151 L96.008,168.985 Q96.008,168.761 96.163,168.615 L97.63,167.247 Q97.72,167.169 97.788,167.215 Q97.856,167.261 97.856,167.386 L97.856,167.97 Q97.856,168.221 97.63,168.428 L96.944,169.066 L97.63,169.707 Q97.856,169.914 97.856,170.166 L97.856,170.749 Q97.856,170.875 97.788,170.919 Q97.72,170.963 97.63,170.888 L96.163,169.517 Q96.008,169.375 96.008,169.151 z" fill="#1D1D1F"/>
        <path d="M98.896,166.902 L98.896,165.256 Q98.896,165.223 98.938,165.201 Q98.98,165.179 99.043,165.179 L99.582,165.179 Q99.644,165.179 99.687,165.201 Q99.729,165.223 99.729,165.256 L99.729,166.902 Q99.729,166.935 99.687,166.957 Q99.644,166.979 99.582,166.979 L99.043,166.979 Q98.98,166.979 98.938,166.957 Q98.896,166.935 98.896,166.902 z" fill="#1D1D1F"/>
        <path d="M99.729,167.326 L99.729,170.805 Q99.729,170.862 99.684,170.898 Q99.638,170.935 99.569,170.935 L98.254,170.935 Q98.187,170.935 98.142,170.898 Q98.097,170.862 98.097,170.805 L98.097,170.219 Q98.097,170.162 98.142,170.126 Q98.187,170.089 98.254,170.089 L98.888,170.089 L98.888,168.065 L98.254,168.065 Q98.187,168.065 98.142,168.029 Q98.097,167.992 98.097,167.938 L98.097,167.326 Q98.097,167.272 98.142,167.235 Q98.187,167.198 98.254,167.198 L99.569,167.198 Q99.638,167.198 99.684,167.235 Q99.729,167.272 99.729,167.326 z" fill="#1D1D1F"/>
      </g>
      <g>
        <path d="M102.144,169.145 L102.144,168.979 Q102.144,168.755 102.298,168.609 L103.765,167.242 Q103.856,167.163 103.924,167.209 Q103.992,167.255 103.992,167.381 L103.992,167.964 Q103.992,168.215 103.765,168.422 L103.079,169.06 L103.765,169.702 Q103.992,169.909 103.992,170.16 L103.992,170.743 Q103.992,170.869 103.924,170.913 Q103.856,170.957 103.765,170.882 L102.298,169.512 Q102.144,169.369 102.144,169.145 z" fill="#2C5E7C"/>
        <path d="M102.049,168.982 L102.049,169.149 Q102.049,169.373 101.894,169.519 L100.427,170.886 Q100.337,170.964 100.269,170.918 Q100.2,170.872 100.2,170.747 L100.2,170.163 Q100.2,169.912 100.427,169.705 L101.113,169.067 L100.427,168.426 Q100.2,168.219 100.2,167.968 L100.2,167.384 Q100.2,167.259 100.269,167.215 Q100.337,167.17 100.427,167.245 L101.894,168.616 Q102.049,168.758 102.049,168.982 z" fill="#2C5E7C"/>
      </g>
    </g>
    <g>
      <g>
        <path d="M129.758,169.151 L129.758,168.985 Q129.758,168.761 129.913,168.615 L131.38,167.247 Q131.47,167.169 131.538,167.215 Q131.606,167.261 131.606,167.386 L131.606,167.97 Q131.606,168.221 131.38,168.428 L130.694,169.066 L131.38,169.707 Q131.606,169.914 131.606,170.166 L131.606,170.749 Q131.606,170.875 131.538,170.919 Q131.47,170.963 131.38,170.888 L129.913,169.517 Q129.758,169.375 129.758,169.151 z" fill="#1D1D1F"/>
        <path d="M132.646,166.902 L132.646,165.256 Q132.646,165.223 132.688,165.201 Q132.73,165.179 132.793,165.179 L133.332,165.179 Q133.394,165.179 133.437,165.201 Q133.479,165.223 133.479,165.256 L133.479,166.902 Q133.479,166.935 133.437,166.957 Q133.394,166.979 133.332,166.979 L132.793,166.979 Q132.73,166.979 132.688,166.957 Q132.646,166.935 132.646,166.902 z" fill="#1D1D1F"/>
        <path d="M133.479,167.326 L133.479,170.805 Q133.479,170.862 133.434,170.898 Q133.388,170.935 133.319,170.935 L132.004,170.935 Q131.937,170.935 131.892,170.898 Q131.847,170.862 131.847,170.805 L131.847,170.219 Q131.847,170.162 131.892,170.126 Q131.937,170.089 132.004,170.089 L132.638,170.089 L132.638,168.065 L132.004,168.065 Q131.937,168.065 131.892,168.029 Q131.847,167.992 131.847,167.938 L131.847,167.326 Q131.847,167.272 131.892,167.235 Q131.937,167.198 132.004,167.198 L133.319,167.198 Q133.388,167.198 133.434,167.235 Q133.479,167.272 133.479,167.326 z" fill="#1D1D1F"/>
      </g>
      <g>
        <path d="M135.894,169.145 L135.894,168.979 Q135.894,168.755 136.048,168.609 L137.515,167.242 Q137.606,167.163 137.674,167.209 Q137.742,167.255 137.742,167.381 L137.742,167.964 Q137.742,168.215 137.515,168.422 L136.829,169.06 L137.515,169.702 Q137.742,169.909 137.742,170.16 L137.742,170.743 Q137.742,170.869 137.674,170.913 Q137.606,170.957 137.515,170.882 L136.048,169.512 Q135.894,169.369 135.894,169.145 z" fill="#2C5E7C"/>
        <path d="M135.799,168.982 L135.799,169.149 Q135.799,169.373 135.644,169.519 L134.177,170.886 Q134.087,170.964 134.019,170.918 Q133.95,170.872 133.95,170.747 L133.95,170.163 Q133.95,169.912 134.177,169.705 L134.863,169.067 L134.177,168.426 Q133.95,168.219 133.95,167.968 L133.95,167.384 Q133.95,167.259 134.019,167.215 Q134.087,167.17 134.177,167.245 L135.644,168.616 Q135.799,168.758 135.799,168.982 z" fill="#2C5E7C"/>
      </g>
    </g>
  </g>
</svg>
