<?xml version="1.0" encoding="utf-8"?>
<!-- Generator: Adobe Illustrator 19.2.0, SVG Export Plug-In . SVG Version: 6.00 Build 0)  -->
<svg version="1.1" id="Layer_1" xmlns="http://www.w3.org/2000/svg" xmlns:xlink="http://www.w3.org/1999/xlink" x="0px" y="0px"
	 viewBox="0 0 512 512" style="enable-background:new 0 0 512 512;" xml:space="preserve">
<style type="text/css">
	.st0{fill:#444444;}
	.st1{fill:url(#SVGID_1_);}
	.st2{fill:url(#SVGID_2_);}
	.st3{fill:#FFFFFF;}
	.st4{fill:#D6D6D6;}
	.st5{fill:#D8D8D8;}
	.st6{fill-opacity:0;stroke:#D8D8D8;}
</style>
<g>
	<g>
		<path class="st0" d="M408.5,373c0,2,0,4,0,6c-1.3,7-4,13.2-9,18.3c-8,8.2-15.9,16.4-23.8,24.6c-3.9,4.1-8.5,7.1-14.1,8.4
			c-2.2,0.5-4.5,0.8-6.7,1.2c-0.2,0-0.4,0-0.6,0c-0.4-0.1-0.7-0.4-1.1-0.4c-9-0.4-15.9-4.7-22.1-10.9c-14-13.8-28.1-27.4-42.2-41.1
			c-7.2-7-14.4-14-21.5-21c-4.4-4.3-4.4-8.9-0.2-13.4c2.8-3,5.7-6,7.8-8.1c-4.2-4.7-8.3-9.3-12.4-13.9c-0.5,0.4-0.8,0.7-1.1,1
			c-29.6,30.1-59.3,60-88.7,90.4c-20.4,21.1-54.5,15.2-65.9-11.8c-1.6-3.8-2.3-7.9-3.4-11.9c0-3,0-6,0-8.9
			c1.9-14.3,11-23.8,21.2-32.9c27.4-24.8,54.4-49.9,81.6-74.9c0.9-0.8,1.9-1.4,2.9-2.2c-9.4-9-18.6-17.3-27-26.2
			c-12.4-13-26.2-23.8-42.3-31.8c-2.3-1.1-4.4-3.2-5.9-5.3c-8-11-15.8-22.1-23.7-33.2c-2.3-3.2-2-6.9,0.6-9.8
			c7.3-7.9,14.6-15.7,21.9-23.6c4.1-4.4,8.7-4.9,13.6-1.6c10.7,7.3,21.4,14.5,31.9,21.9c2,1.4,3.9,3.4,5.2,5.6
			c4.2,6.6,8.1,13.4,12.3,20c1.2,2,2.7,3.9,4.4,5.6c14.3,14.1,28.7,28.1,43,42.1c0.8,0.7,1.5,1.5,2.4,2.3
			c9.2-8.5,18.3-16.8,27.3-25.2c0.7-0.6,0.9-2.2,0.7-3.1c-1.7-8.7-2.1-17.4-0.2-26c5.8-26.8,21.8-44.7,48.2-52.6
			c5.5-1.7,11.5-2,17.3-2.9c1.2,0,2.4,0,3.6,0c1.1,0.2,2.1,0.3,3.2,0.5c6.4,1.3,12.8,2.4,19.2,3.9c5.6,1.3,9,9.8,3.5,14.7
			c-6.2,5.5-11.7,11.6-17.6,17.4c-2.8,2.8-5.7,5.4-8.3,7.8c7.2,7.3,14,14,21,21c0.4-0.5,0.9-1.2,1.5-1.8
			c7.3-7.6,14.6-15.2,21.9-22.7c6.1-6.3,13.3-4.7,16.1,3.4c4.6,13.2,5.4,26.7,1.5,40.1c-7.5,26-24.6,42.2-50.8,48.7
			c-9.1,2.2-18.3,2.3-27.5,0.5c-1.2-0.2-3.1-0.3-3.8,0.4c-8.6,8.5-17,17.2-24.9,25.2c4.3,4.5,8.3,8.9,12.2,13c2.7-2.5,5.4-5,8-7.6
			c6.1-6.2,10-6.3,16.2-0.3c20.3,19.7,40.5,39.6,60.9,59.2C401.4,357.3,407.2,363.8,408.5,373z M222.2,283.9c-1,0.8-1.8,1.5-2.5,2.1
			c-24.3,22.4-48.6,44.8-72.9,67.2c-6.6,6.1-13.4,11.9-19.4,18.4c-10.9,11.8-4.8,32,10.7,36.1c9.8,2.6,17.9-0.6,24.8-7.6
			c28.5-28.9,57.1-57.7,85.6-86.6c0.7-0.7,1.3-1.4,2.1-2.2C241.2,302.2,231.8,293.2,222.2,283.9z M284.6,276
			c8.2-7.9,15.9-15.2,23.5-22.6c2.7-2.6,5.3-5.4,8-8c2.5-2.4,5.3-3.3,8.9-2c8.7,3,17.8,3.3,26.7,1.3c23.8-5.2,39.3-25,38.9-49.5
			c0-0.7-0.2-1.4-0.3-2.4c-7.1,6.5-13.9,12.8-20.8,19c-4.8,4.3-9.2,4.2-13.9-0.4c-10.6-10.5-21.1-21-31.6-31.6
			c-4.8-4.8-4.7-9.4,0-14.2c5.8-5.9,11.6-11.7,17.5-17.5c0.6-0.6,1.1-1.2,2.1-2.5c-3.5,0.2-6.3,0.2-9,0.6c-17.8,2-31,10.9-39.3,26.8
			c-6.2,11.9-6.8,24.5-2.9,37.3c1.5,4.8,0.2,8.8-3.4,12.1c-5.8,5.3-11.6,10.6-17.3,15.9c-4.3,4-8.6,7.9-12.1,11.2
			C268.2,258.5,276.6,267.4,284.6,276z M297.7,313.2c-0.8-0.8-1.4-1.5-2-2.1c-36.5-35.9-73-71.9-109.5-107.8c-0.6-0.6-1.3-1-1.7-1.7
			c-3.7-6.1-7.5-12.1-11-18.3c-2.8-5-6.6-8.9-11.6-12c-6.8-4.1-13.2-8.7-20-13.2c-4.3,4.6-8.4,9-12.6,13.5
			c6.3,8.7,12.4,17.2,18.6,25.6c0.4,0.5,1.1,0.9,1.7,1.2c7.3,4.4,14.7,8.7,22,13.1c1.5,0.9,3.1,1.9,4.3,3.1
			c33.3,32.2,66.5,64.4,99.7,96.5c4.1,3.9,8.1,7.8,11.8,11.4C290.9,319.4,294.3,316.4,297.7,313.2z M353.9,337.8
			c-13.2,13.6-26.2,27.1-39.4,40.7c0.7,0.8,1.1,1.3,1.6,1.8c9.9,9.7,19.8,19.5,29.7,29.2c5,4.9,11.2,4.8,16-0.2
			c8-8.2,16-16.5,24-24.8c4.9-5.1,4.7-11.4-0.3-16.3c-6.7-6.6-13.5-13.2-20.3-19.7C361.7,344.9,357.9,341.4,353.9,337.8z
			 M340.3,325.7c-4.9-5.4-9.6-10.5-14.3-15.7c-13.6,13.9-26.9,27.5-39.6,40.5c4.9,5.3,9.7,10.5,14.6,15.8
			C314.5,352.4,327.8,338.6,340.3,325.7z"/>
		<linearGradient id="SVGID_1_" gradientUnits="userSpaceOnUse" x1="121.8786" y1="346.3006" x2="250.6808" y2="346.3006">
			<stop  offset="0" style="stop-color:#2B5E7C;stop-opacity:0.514"/>
			<stop  offset="1" style="stop-color:#2B5E7C"/>
		</linearGradient>
		<path class="st1" d="M222.2,283.9c9.6,9.3,19,18.3,28.4,27.4c-0.8,0.8-1.4,1.5-2.1,2.2c-28.5,28.9-57.1,57.7-85.6,86.6
			c-6.9,7-15.1,10.1-24.8,7.6c-15.5-4.1-21.7-24.2-10.7-36.1c6-6.5,12.9-12.4,19.4-18.4c24.3-22.4,48.6-44.8,72.9-67.2
			C220.5,285.4,221.2,284.8,222.2,283.9z"/>
		<linearGradient id="SVGID_2_" gradientUnits="userSpaceOnUse" x1="259.6248" y1="210.7397" x2="390.6498" y2="210.7397">
			<stop  offset="0" style="stop-color:#2B5E7C;stop-opacity:0.514"/>
			<stop  offset="1" style="stop-color:#2B5E7C"/>
		</linearGradient>
		<path class="st2" d="M284.6,276c-8-8.6-16.4-17.5-24.9-26.7c3.6-3.3,7.8-7.3,12.1-11.2c5.8-5.3,11.5-10.6,17.3-15.9
			c3.7-3.3,4.9-7.3,3.4-12.1c-3.9-12.8-3.3-25.3,2.9-37.3c8.3-15.9,21.5-24.8,39.3-26.8c2.7-0.3,5.5-0.3,9-0.6
			c-1.1,1.3-1.6,1.9-2.1,2.5c-5.8,5.8-11.7,11.6-17.5,17.5c-4.8,4.8-4.8,9.4,0,14.2c10.5,10.6,21,21.1,31.6,31.6
			c4.6,4.6,9.1,4.8,13.9,0.4c6.9-6.2,13.6-12.4,20.8-19c0.1,1,0.3,1.7,0.3,2.4c0.5,24.5-15,44.3-38.9,49.5c-9,2-18,1.6-26.7-1.3
			c-3.7-1.3-6.4-0.3-8.9,2c-2.7,2.6-5.3,5.4-8,8C300.5,260.8,292.8,268.1,284.6,276z M332,230.2c4.9-0.3,7.7-2.1,9.3-5.5
			c1.6-3.4,1.1-6.9-1.8-9.8c-6.2-6.4-12.5-12.7-18.9-18.9c-3.8-3.7-8.8-3.7-12.5-0.1c-3.7,3.6-3.9,8.8-0.1,12.7
			c6.2,6.4,12.5,12.7,19,18.9C328.6,228.9,330.9,229.6,332,230.2z"/>
		<path class="st3" d="M297.7,313.2c-3.4,3.1-6.8,6.2-10.3,9.4c-3.7-3.5-7.8-7.4-11.8-11.4c-33.2-32.2-66.4-64.4-99.7-96.5
			c-1.3-1.2-2.8-2.2-4.3-3.1c-7.3-4.4-14.7-8.7-22-13.1c-0.6-0.4-1.3-0.7-1.7-1.2c-6.2-8.5-12.3-17-18.6-25.6
			c4.3-4.6,8.4-9,12.6-13.5c6.7,4.5,13.2,9.1,20,13.2c5,3,8.7,6.9,11.6,12c3.5,6.2,7.3,12.2,11,18.3c0.4,0.7,1.1,1.1,1.7,1.7
			c36.5,35.9,73,71.9,109.5,107.8C296.4,311.7,297,312.4,297.7,313.2z"/>
		<path class="st4" d="M353.9,337.8c3.9,3.7,7.7,7.2,11.4,10.7c6.8,6.5,13.5,13.1,20.3,19.7c5,4.9,5.2,11.2,0.3,16.3
			c-8,8.3-16,16.6-24,24.8c-4.9,5-11,5.1-16,0.2c-9.9-9.7-19.8-19.4-29.7-29.2c-0.5-0.5-0.9-1-1.6-1.8
			C327.7,364.9,340.7,351.4,353.9,337.8z"/>
		<path class="st4" d="M340.3,325.7c-12.5,13-25.8,26.7-39.3,40.6c-4.9-5.3-9.7-10.5-14.6-15.8c12.7-13,26.1-26.7,39.6-40.5
			C330.7,315.2,335.4,320.3,340.3,325.7z"/>
		<path class="st0" d="M332,230.2c-1.1-0.6-3.4-1.3-5-2.7c-6.5-6.1-12.7-12.5-19-18.9c-3.8-3.9-3.6-9.1,0.1-12.7
			c3.7-3.6,8.6-3.6,12.5,0.1c6.4,6.2,12.7,12.5,18.9,18.9c2.9,3,3.5,6.5,1.8,9.8C339.7,228.1,337,229.9,332,230.2z"/>
	</g>
	<g id="Group_12_">
		<path id="Rectangle-2_24_" class="st5" d="M447.8,209.4L447.8,209.4c2.4,0,4.3,1.9,4.3,4.3v17c0,2.4-1.9,4.3-4.3,4.3l0,0
			c-2.4,0-4.3-1.9-4.3-4.3v-17C443.6,211.3,445.5,209.4,447.8,209.4z"/>
		<path id="Rectangle-2_23_" class="st5" d="M460.6,222.2L460.6,222.2c0,2.4-1.9,4.3-4.3,4.3h-17c-2.4,0-4.3-1.9-4.3-4.3l0,0
			c0-2.4,1.9-4.3,4.3-4.3h17C458.7,217.9,460.6,219.8,460.6,222.2z"/>
	</g>
	<g id="Group_11_">
		<path id="Rectangle-2_22_" class="st5" d="M226.9,162.5L226.9,162.5c2.4,0,4.3,1.9,4.3,4.3v17c0,2.4-1.9,4.3-4.3,4.3l0,0
			c-2.4,0-4.3-1.9-4.3-4.3v-17C222.6,164.5,224.6,162.5,226.9,162.5z"/>
		<path id="Rectangle-2_13_" class="st5" d="M239.7,175.3L239.7,175.3c0,2.4-1.9,4.3-4.3,4.3h-17c-2.4,0-4.3-1.9-4.3-4.3l0,0
			c0-2.4,1.9-4.3,4.3-4.3h17C237.8,171,239.7,172.9,239.7,175.3z"/>
	</g>
	<g id="Group_6_">
		<path id="Rectangle-2_12_" class="st5" d="M134.7,264.9L134.7,264.9c1.7-1.7,4.4-1.7,6.1,0l9.3,9.3c1.7,1.7,1.7,4.4,0,6.1l0,0
			c-1.7,1.7-4.4,1.7-6.1,0l-9.3-9.3C133,269.2,133,266.5,134.7,264.9z"/>
		<path id="Rectangle-2_11_" class="st5" d="M150,264.8L150,264.8c1.7,1.7,1.7,4.4,0,6.1l-9.3,9.3c-1.7,1.7-4.4,1.7-6.1,0l0,0
			c-1.7-1.7-1.7-4.4,0-6.1l9.3-9.3C145.6,263.1,148.3,263.1,150,264.8z"/>
	</g>
	<g id="Group_5_">
		<path id="Rectangle-2_10_" class="st5" d="M176,109L176,109c1.7-1.7,4.4-1.7,6.1,0l9.3,9.3c1.7,1.7,1.7,4.4,0,6.1l0,0
			c-1.7,1.7-4.4,1.7-6.1,0l-9.3-9.3C174.3,113.4,174.3,110.7,176,109z"/>
		<path id="Rectangle-2_9_" class="st5" d="M191.3,108.9L191.3,108.9c1.7,1.7,1.7,4.4,0,6.1l-9.3,9.3c-1.7,1.7-4.4,1.7-6.1,0l0,0
			c-1.7-1.7-1.7-4.4,0-6.1l9.3-9.3C186.9,107.3,189.6,107.3,191.3,108.9z"/>
	</g>
	<path id="Oval-2_6_" class="st5" d="M118.4,96.8c0,4.7-3.8,8.5-8.6,8.5s-8.6-3.8-8.6-8.5s3.8-8.5,8.6-8.5S118.4,92.1,118.4,96.8z"
		/>
	<path id="Oval-2_3_" class="st5" d="M65.8,234.1c0,4.7-3.8,8.5-8.6,8.5c-4.7,0-8.6-3.8-8.6-8.5s3.8-8.5,8.6-8.5
		C61.9,225.5,65.8,229.4,65.8,234.1z"/>
	<path id="Oval-3_6_" class="st5" d="M267.5,131.3c0,4-3.3,7.3-7.3,7.3c-4,0-7.3-3.3-7.3-7.3c0-4,3.3-7.3,7.3-7.3
		C264.3,124,267.5,127.2,267.5,131.3z"/>
	<path id="Oval-3_5_" class="st5" d="M477.8,153.2c0,4-3.3,7.3-7.3,7.3s-7.3-3.3-7.3-7.3c0-4,3.3-7.3,7.3-7.3
		S477.8,149.2,477.8,153.2z"/>
	<path id="Oval-3_4_" class="st5" d="M396,300.4c0,4-3.3,7.3-7.3,7.3c-4,0-7.3-3.3-7.3-7.3c0-4,3.3-7.3,7.3-7.3
		C392.7,293.1,396,296.4,396,300.4z"/>
	<path id="Oval_19_" class="st6" d="M347.2,89.5c-0.2,4.7-4.3,8.3-9,8.1c-4.7-0.2-8.4-4.2-8.1-8.9c0.2-4.7,4.3-8.3,9-8.1
		C343.8,80.8,347.4,84.8,347.2,89.5z"/>
	<path id="Oval_17_" class="st6" d="M435.6,115.7c-0.2,4.7-4.3,8.3-9,8.1c-4.7-0.2-8.4-4.2-8.1-8.9c0.2-4.7,4.3-8.3,9-8.1
		C432.2,107,435.8,111,435.6,115.7z"/>
	<path id="Oval_2_" class="st6" d="M461.1,296.7c0,4.7-3.8,8.5-8.6,8.5s-8.6-3.8-8.6-8.5s3.8-8.5,8.6-8.5S461.1,292,461.1,296.7z"/>
	<path id="Rectangle-3_13_" class="st6" d="M76.9,324.2l8.3,8.3l8.4-8.4l-8.3-8.3L76.9,324.2z"/>
	<path id="Rectangle-3_11_" class="st6" d="M34.2,135.4l8.3,8.3l8.4-8.4l-8.3-8.3L34.2,135.4z"/>
	<path id="Rectangle-3_2_" class="st6" d="M435.6,367.6l8.3,8.3l8.4-8.4l-8.3-8.3L435.6,367.6z"/>
</g>
</svg>
