<?xml version="1.0" encoding="UTF-8"?>
<!DOCTYPE svg PUBLIC "-//W3C//DTD SVG 1.1//EN" "http://www.w3.org/Graphics/SVG/1.1/DTD/svg11.dtd">
<svg version="1.1" xmlns="http://www.w3.org/2000/svg" xmlns:xlink="http://www.w3.org/1999/xlink" x="0" y="0" width="200" height="200" viewBox="0, 0, 200, 200">
  <defs>
    <linearGradient id="Gradient_1" gradientUnits="userSpaceOnUse" x1="-173.205" y1="-149.805" x2="-246.709" y2="-116.72">
      <stop offset="0" stop-color="#2B5E7C" stop-opacity="0.514"/>
      <stop offset="1" stop-color="#2B5E7C"/>
    </linearGradient>
    <linearGradient id="Gradient_2" gradientUnits="userSpaceOnUse" x1="48.589" y1="-177.742" x2="16.06" y2="-144.648" gradientTransform="matrix(-0.707, 0.707, -0.707, -0.707, 0, 0)">
      <stop offset="0" stop-color="#2B5E7C" stop-opacity="0.514"/>
      <stop offset="1" stop-color="#2B5E7C"/>
    </linearGradient>
  </defs>
  <g id="Layer_1">
    <g id="invoice">
      <g id="Group-19">
        <path d="M444.427,-8.137 L371.938,-8.137 L367.711,-11.686 L368.997,-107.52 L371.388,-111.646 L443.525,-110.881 L444.854,-108.031 L445.366,-96.053 z" fill="#82CBFF" id="Path"/>
        <path d="M385.529,-16.112 L427.921,-16.112 L431.792,-20.122 L433.399,-23.439 L433.69,-96.381 L429.231,-102.082 L424.424,-103.17 L384.315,-102.536 L382.729,-97.877 L376.941,-95.428 L376.535,-24.666 L382.006,-21.256 z" fill="#FFFFFF" id="Path-12"/>
        <path d="M419.593,-57.998 C419.593,-51.967 414.704,-47.078 408.673,-47.078 C402.642,-47.078 397.753,-51.967 397.753,-57.998 C397.753,-64.029 402.642,-68.918 408.673,-68.918 C414.704,-68.918 419.593,-64.029 419.593,-57.998 z" fill-opacity="0" stroke="#444444" stroke-width="2" id="Oval-7"/>
        <path d="M417.808,-94.899 L464.437,-94.899 L464.437,-23.709 L459.74,-23.709 L456.811,-26.638 L453.682,-26.638 L450.635,-23.591 L446.104,-23.591 L442.986,-26.709 L439.551,-26.709 L437.059,-24.217 L431.732,-24.217 L428.87,-27.078 L425.394,-27.078 L422.049,-23.733 L418.251,-23.733" fill="#4DB5FF" id="path-1"/>
        <path d="M426.544,-101.451 L473.173,-101.451 L473.173,-23.709 L468.476,-23.709 L465.547,-26.638 L462.418,-26.638 L459.371,-23.591 L454.84,-23.591 L451.722,-26.709 L448.287,-26.709 L445.795,-24.217 L440.468,-24.217 L437.606,-27.078 L434.13,-27.078 L430.785,-23.733 L426.987,-23.733" fill="#82CBFF" id="Path"/>
      </g>
      <path d="M425.74,-83.547 L453.259,-83.547 C454.276,-83.547 455.102,-84.37 455.102,-85.384 C455.102,-86.399 454.276,-87.221 453.259,-87.221 L425.74,-87.221 C424.723,-87.221 423.897,-86.399 423.897,-85.384 C423.897,-84.37 424.723,-83.547 425.74,-83.547 z" fill="#444444" id="Fill-1"/>
      <path d="M451.416,-75.364 C451.416,-74.349 452.241,-73.528 453.259,-73.528 L457.19,-73.528 C458.208,-73.528 459.033,-74.349 459.033,-75.364 C459.033,-76.378 458.208,-77.201 457.19,-77.201 L453.259,-77.201 C452.241,-77.201 451.416,-76.378 451.416,-75.364 z" fill="#444444" id="Fill-2"/>
      <path d="M425.74,-73.528 L445.396,-73.528 C446.413,-73.528 447.239,-74.349 447.239,-75.364 C447.239,-76.378 446.413,-77.201 445.396,-77.201 L425.74,-77.201 C424.723,-77.201 423.897,-76.378 423.897,-75.364 C423.897,-74.349 424.723,-73.528 425.74,-73.528 z" fill="#444444" id="Fill-3"/>
      <path d="M425.74,-63.122 L453.259,-63.122 C454.276,-63.122 455.102,-63.943 455.102,-64.959 C455.102,-65.972 454.276,-66.795 453.259,-66.795 L425.74,-66.795 C424.723,-66.795 423.897,-65.972 423.897,-64.959 C423.897,-63.943 424.723,-63.122 425.74,-63.122 z" fill="#444444" id="Fill-7"/>
      <path d="M457.19,-56.774 L453.259,-56.774 C452.241,-56.774 451.416,-55.953 451.416,-54.938 C451.416,-53.924 452.241,-53.101 453.259,-53.101 L457.19,-53.101 C458.208,-53.101 459.033,-53.924 459.033,-54.938 C459.033,-55.953 458.208,-56.774 457.19,-56.774 z" fill="#444444" id="Fill-8"/>
      <path d="M457.19,-37.183 L449.327,-37.183 C448.31,-37.183 447.485,-36.362 447.485,-35.346 C447.485,-34.333 448.31,-33.51 449.327,-33.51 L457.19,-33.51 C458.208,-33.51 459.033,-34.333 459.033,-35.346 C459.033,-36.362 458.208,-37.183 457.19,-37.183 z" fill="#444444" id="Fill-10"/>
      <path d="M425.74,-53.101 L445.396,-53.101 C446.413,-53.101 447.239,-53.924 447.239,-54.938 C447.239,-55.953 446.413,-56.774 445.396,-56.774 L425.74,-56.774 C424.723,-56.774 423.897,-55.953 423.897,-54.938 C423.897,-53.924 424.723,-53.101 425.74,-53.101 z" fill="#444444" id="Fill-11"/>
      <path d="M465.052,-97.242 L447.239,-97.242 L447.239,-107.159 C447.239,-110.332 444.649,-112.914 441.464,-112.914 L372.451,-112.914 C369.267,-112.914 366.677,-110.332 366.677,-107.159 L366.677,-11.837 C366.677,-8.664 369.267,-6.083 372.451,-6.083 L441.464,-6.083 C444.649,-6.083 447.239,-8.664 447.239,-11.837 L447.239,-21.756 L451.292,-21.756 C452.311,-21.756 453.135,-22.577 453.135,-23.592 C453.135,-24.74 454.072,-25.674 455.224,-25.674 C456.376,-25.674 457.313,-24.74 457.313,-23.592 C457.313,-22.577 458.138,-21.756 459.155,-21.756 L465.052,-21.756 C466.069,-21.756 466.895,-22.577 466.895,-23.592 L466.895,-95.405 C466.895,-96.419 466.069,-97.242 465.052,-97.242 z M443.553,-11.837 C443.553,-10.69 442.616,-9.756 441.464,-9.756 L372.451,-9.756 C371.3,-9.756 370.363,-10.69 370.363,-11.837 L370.363,-107.159 C370.363,-108.307 371.3,-109.241 372.451,-109.241 L441.464,-109.241 C442.616,-109.241 443.553,-108.307 443.553,-107.159 L443.553,-97.242 L437.534,-97.242 C434.215,-97.242 431.514,-99.933 431.514,-103.24 C431.514,-104.256 430.689,-105.077 429.672,-105.077 L384.244,-105.077 C383.227,-105.077 382.401,-104.256 382.401,-103.24 C382.401,-99.933 379.701,-97.242 376.383,-97.242 C375.364,-97.242 374.54,-96.419 374.54,-95.405 L374.54,-23.592 C374.54,-22.577 375.364,-21.756 376.383,-21.756 C379.701,-21.756 382.401,-19.064 382.401,-15.755 C382.401,-14.741 383.227,-13.919 384.244,-13.919 L429.672,-13.919 C430.689,-13.919 431.514,-14.741 431.514,-15.755 C431.514,-19.064 434.215,-21.756 437.534,-21.756 C438.552,-21.756 439.377,-22.577 439.377,-23.592 C439.377,-24.74 440.314,-25.674 441.464,-25.674 C442.616,-25.674 443.553,-24.74 443.553,-23.592 L443.553,-11.837 z M416.036,-23.592 C416.036,-22.577 416.86,-21.756 417.879,-21.756 L423.775,-21.756 C424.792,-21.756 425.618,-22.577 425.618,-23.592 C425.618,-24.74 426.555,-25.674 427.707,-25.674 C428.857,-25.674 429.794,-24.74 429.794,-23.592 C429.794,-23.071 430.013,-22.601 430.364,-22.267 C429.184,-20.978 428.351,-19.371 428.006,-17.592 L385.912,-17.592 C385.163,-21.457 382.102,-24.508 378.224,-25.254 L378.224,-93.743 C382.102,-94.489 385.163,-97.54 385.912,-101.404 L428.004,-101.404 C428.304,-99.853 428.978,-98.434 429.927,-97.242 L417.879,-97.242 C416.86,-97.242 416.036,-96.419 416.036,-95.405 L416.036,-23.592 z M463.209,-25.429 L460.697,-25.429 C459.926,-27.704 457.764,-29.348 455.224,-29.348 C452.684,-29.348 450.522,-27.704 449.752,-25.429 L446.938,-25.429 C446.166,-27.704 444.004,-29.348 441.464,-29.348 C438.925,-29.348 436.763,-27.704 435.993,-25.429 L433.178,-25.429 C432.408,-27.704 430.246,-29.348 427.707,-29.348 C425.167,-29.348 423.005,-27.704 422.233,-25.429 L419.721,-25.429 L419.721,-93.568 L463.209,-93.568 L463.209,-25.429 z" fill="#444444" id="Fill-13"/>
    </g>
    <g id="Group">
      <path d="M46.445,88.934 L46.445,88.934 C46.946,88.433 47.758,88.433 48.259,88.934 L51.052,91.726 C51.553,92.227 51.553,93.04 51.052,93.541 L51.052,93.541 C50.551,94.042 49.739,94.042 49.238,93.541 L46.445,90.748 C45.944,90.247 45.944,89.435 46.445,88.934 z" fill="#D8D8D8" id="Rectangle-2"/>
      <path d="M51.033,88.914 L51.033,88.914 C51.534,89.415 51.534,90.228 51.033,90.729 L48.24,93.521 C47.739,94.022 46.927,94.022 46.425,93.521 L46.425,93.521 C45.924,93.02 45.924,92.208 46.425,91.707 L49.218,88.914 C49.719,88.413 50.532,88.413 51.033,88.914 z" fill="#D8D8D8" id="Rectangle-2"/>
    </g>
    <g id="Group">
      <path d="M85.253,31.602 L85.253,31.602 C85.754,31.101 86.566,31.101 87.067,31.602 L89.86,34.394 C90.361,34.895 90.361,35.708 89.86,36.209 L89.86,36.209 C89.359,36.71 88.546,36.71 88.045,36.209 L85.253,33.416 C84.751,32.915 84.751,32.103 85.253,31.602 z" fill="#D8D8D8" id="Rectangle-2"/>
      <path d="M89.84,31.582 L89.84,31.582 C90.341,32.083 90.341,32.896 89.84,33.397 L87.048,36.189 C86.547,36.69 85.734,36.69 85.233,36.189 L85.233,36.189 C84.732,35.688 84.732,34.876 85.233,34.375 L88.026,31.582 C88.527,31.081 89.339,31.081 89.84,31.582 z" fill="#D8D8D8" id="Rectangle-2"/>
    </g>
    <g id="Group">
      <path d="M163.735,124.714 L163.735,124.714 C164.236,124.213 165.049,124.213 165.55,124.714 L168.343,127.507 C168.844,128.008 168.844,128.82 168.343,129.321 L168.343,129.321 C167.842,129.822 167.029,129.822 166.528,129.321 L163.735,126.529 C163.234,126.027 163.234,125.215 163.735,124.714 z" fill="#D8D8D8" id="Rectangle-2"/>
      <path d="M168.323,124.695 L168.323,124.695 C168.824,125.196 168.824,126.008 168.323,126.509 L165.53,129.302 C165.029,129.803 164.217,129.803 163.716,129.302 L163.716,129.302 C163.215,128.801 163.215,127.988 163.716,127.487 L166.509,124.695 C167.01,124.194 167.822,124.194 168.323,124.695 z" fill="#D8D8D8" id="Rectangle-2"/>
    </g>
    <path d="M73.622,56.432 C73.622,57.839 72.473,58.979 71.056,58.979 C69.638,58.979 68.49,57.839 68.49,56.432 C68.49,55.025 69.638,53.885 71.056,53.885 C72.473,53.885 73.622,55.025 73.622,56.432 z" fill="#D8D8D8" id="Oval-2"/>
    <path d="M45.422,70.99 C45.422,72.397 44.273,73.537 42.856,73.537 C41.438,73.537 40.29,72.397 40.29,70.99 C40.29,69.583 41.438,68.442 42.856,68.442 C44.273,68.442 45.422,69.583 45.422,70.99 z" fill="#D8D8D8" id="Oval-2"/>
    <path d="M122.024,43.878 C122.024,45.084 121.046,46.062 119.84,46.062 C118.633,46.062 117.656,45.084 117.656,43.878 C117.656,42.672 118.633,41.694 119.84,41.694 C121.046,41.694 122.024,42.672 122.024,43.878 z" fill="#D8D8D8" id="Oval-3"/>
    <path d="M168.718,61.163 C168.718,62.37 167.741,63.347 166.534,63.347 C165.328,63.347 164.35,62.37 164.35,61.163 C164.35,59.957 165.328,58.979 166.534,58.979 C167.741,58.979 168.718,59.957 168.718,61.163 z" fill="#D8D8D8" id="Oval-3"/>
    <path d="M155.543,82.003 C155.543,83.209 154.565,84.187 153.359,84.187 C152.153,84.187 151.175,83.209 151.175,82.003 C151.175,80.797 152.153,79.819 153.359,79.819 C154.565,79.819 155.543,80.797 155.543,82.003 z" fill="#D8D8D8" id="Oval-3"/>
    <path d="M55.796,49.337 C55.796,50.543 54.818,51.521 53.612,51.521 C52.406,51.521 51.428,50.543 51.428,49.337 C51.428,48.13 52.406,47.153 53.612,47.153 C54.818,47.153 55.796,48.13 55.796,49.337 z" fill="#D8D8D8" id="Oval-3"/>
    <path d="M148.922,57.792 C148.849,59.197 147.642,60.276 146.227,60.203 C144.811,60.129 143.723,58.931 143.796,57.526 C143.869,56.121 145.076,55.041 146.491,55.115 C147.906,55.188 148.995,56.387 148.922,57.792 z" fill-opacity="0" stroke="#D8D8D8" stroke-width="1" id="Oval"/>
    <path d="M159.172,29.292 C159.099,30.697 157.892,31.776 156.477,31.703 C155.061,31.629 153.973,30.431 154.046,29.026 C154.119,27.621 155.326,26.541 156.741,26.615 C158.156,26.688 159.245,27.887 159.172,29.292 z" fill-opacity="0" stroke="#D8D8D8" stroke-width="1" id="Oval"/>
    <path d="M180.643,96.964 C180.643,98.371 179.494,99.511 178.077,99.511 C176.659,99.511 175.511,98.371 175.511,96.964 C175.511,95.557 176.659,94.417 178.077,94.417 C179.494,94.417 180.643,95.557 180.643,96.964 z" fill-opacity="0" stroke="#D8D8D8" stroke-width="1" id="Oval"/>
    <path d="M33.317,108.896 L35.8,111.378 L38.312,108.866 L35.83,106.384 L33.317,108.896 z" fill-opacity="0" stroke="#D8D8D8" stroke-width="1" id="Rectangle-3"/>
    <path d="M-212.296,45.814 L-71.837,45.814 C-67.509,45.814 -64,49.323 -64,53.651 L-64,194.11 C-64,198.438 -67.509,201.947 -71.837,201.947 L-212.296,201.947 C-216.624,201.947 -220.133,198.438 -220.133,194.11 L-220.133,53.651 C-220.133,49.323 -216.624,45.814 -212.296,45.814 z" fill="#FFFFFF"/>
    <g>
      <path d="M-208.185,138.322 L-208.185,135.568 Q-208.185,131.859 -205.623,129.443 L-181.326,106.795 Q-179.832,105.502 -178.7,106.261 Q-177.569,107.019 -177.569,109.099 L-177.569,118.765 Q-177.569,122.924 -181.326,126.352 L-192.685,136.917 L-181.326,147.539 Q-177.569,150.967 -177.569,155.125 L-177.569,164.791 Q-177.569,166.871 -178.7,167.601 Q-179.832,168.332 -181.326,167.096 L-205.623,144.391 Q-208.185,142.031 -208.185,138.322 z" fill="#1D1D1F"/>
      <path d="M-160.35,101.077 L-160.35,73.822 Q-160.35,73.26 -159.653,72.897 Q-158.955,72.533 -157.919,72.533 L-148.991,72.533 Q-147.955,72.533 -147.257,72.897 Q-146.56,73.26 -146.56,73.822 L-146.56,101.077 Q-146.56,101.618 -147.257,101.982 Q-147.955,102.345 -148.991,102.345 L-157.919,102.345 Q-158.955,102.345 -159.653,101.982 Q-160.35,101.618 -160.35,101.077 z" fill="#1D1D1F"/>
      <path d="M-146.56,108.099 L-146.56,165.719 Q-146.56,166.657 -147.307,167.265 Q-148.054,167.873 -149.207,167.873 L-170.984,167.873 Q-172.094,167.873 -172.842,167.265 Q-173.589,166.657 -173.589,165.719 L-173.589,156.011 Q-173.589,155.073 -172.842,154.465 Q-172.094,153.857 -170.984,153.857 L-160.48,153.857 L-160.48,120.343 L-170.984,120.343 Q-172.094,120.343 -172.842,119.736 Q-173.589,119.128 -173.589,118.225 L-173.589,108.099 Q-173.589,107.196 -172.842,106.588 Q-172.094,105.98 -170.984,105.98 L-149.207,105.98 Q-148.054,105.98 -147.307,106.588 Q-146.56,107.196 -146.56,108.099 z" fill="#1D1D1F"/>
    </g>
    <g>
      <path d="M-106.564,138.226 L-106.564,135.472 Q-106.564,131.763 -104.002,129.346 L-79.706,106.698 Q-78.212,105.406 -77.08,106.164 Q-75.949,106.923 -75.949,109.002 L-75.949,118.668 Q-75.949,122.827 -79.706,126.255 L-91.064,136.821 L-79.706,147.442 Q-75.949,150.87 -75.949,155.029 L-75.949,164.695 Q-75.949,166.774 -77.08,167.505 Q-78.212,168.235 -79.706,166.999 L-104.002,144.295 Q-106.564,141.935 -106.564,138.226 z" fill="#2C5E7C"/>
      <path d="M-108.132,135.531 L-108.132,138.285 Q-108.132,141.994 -110.694,144.41 L-134.99,167.058 Q-136.484,168.351 -137.616,167.592 Q-138.748,166.833 -138.748,164.754 L-138.748,155.088 Q-138.748,150.929 -134.99,147.501 L-123.632,136.936 L-134.99,126.314 Q-138.748,122.886 -138.748,118.728 L-138.748,109.061 Q-138.748,106.982 -137.616,106.252 Q-136.484,105.521 -134.99,106.757 L-110.694,129.461 Q-108.132,131.822 -108.132,135.531 z" fill="#2C5E7C"/>
    </g>
    <g>
      <path d="M-176.343,-139.358 C-177.188,-153.787 -189.081,-165.313 -203.407,-165.313 C-212.109,-165.313 -220.536,-161.048 -225.764,-154.085 C-225.88,-154.147 -226.006,-154.185 -226.13,-154.249 C-226.443,-154.398 -226.765,-154.546 -227.094,-154.678 C-227.28,-154.75 -227.46,-154.812 -227.649,-154.882 C-227.969,-154.993 -228.298,-155.093 -228.634,-155.187 C-228.823,-155.235 -229.003,-155.289 -229.191,-155.329 C-229.55,-155.407 -229.918,-155.469 -230.293,-155.523 C-230.449,-155.556 -230.613,-155.588 -230.78,-155.602 C-231.311,-155.658 -231.843,-155.696 -232.39,-155.696 C-240.349,-155.696 -246.811,-149.226 -246.811,-141.275 C-246.811,-141.071 -246.805,-140.869 -246.789,-140.672 L-246.789,-140.664 C-253.455,-137.027 -258.032,-129.421 -258.032,-121.799 C-258.032,-110.445 -248.8,-101.213 -237.446,-101.213 L-198.173,-101.213 C-198.009,-101.213 -197.844,-101.221 -197.672,-101.237 L-197.578,-101.253 L-197.36,-101.237 C-197.195,-101.221 -197.031,-101.213 -196.867,-101.213 L-181.154,-101.213 C-170.528,-101.213 -161.882,-109.858 -161.882,-120.485 C-161.882,-129.281 -168.016,-137.175 -176.343,-139.358 z M-181.154,-104.422 L-196.867,-104.422 C-196.961,-104.422 -197.055,-104.428 -197.147,-104.428 L-197.578,-104.452 L-197.898,-104.428 C-197.985,-104.428 -198.079,-104.422 -198.173,-104.422 L-237.446,-104.422 C-247.031,-104.422 -254.823,-112.214 -254.823,-121.799 C-254.823,-128.459 -250.488,-135.368 -244.519,-138.231 L-243.612,-138.661 L-243.612,-139.671 C-243.612,-139.875 -243.596,-140.085 -243.588,-140.29 L-243.572,-140.548 L-243.588,-140.885 C-243.604,-141.017 -243.612,-141.143 -243.612,-141.275 C-243.612,-147.457 -238.58,-152.497 -232.39,-152.497 C-231.897,-152.497 -231.405,-152.449 -230.92,-152.387 C-230.794,-152.371 -230.67,-152.347 -230.551,-152.333 C-230.121,-152.252 -229.698,-152.168 -229.283,-152.042 C-229.229,-152.026 -229.175,-152.018 -229.111,-152.002 C-228.658,-151.862 -228.212,-151.682 -227.775,-151.487 C-227.665,-151.431 -227.555,-151.377 -227.438,-151.323 C-227.054,-151.135 -226.679,-150.922 -226.319,-150.688 C-223.228,-148.693 -221.179,-145.219 -221.179,-141.275 C-221.179,-140.392 -220.458,-139.671 -219.574,-139.671 C-218.689,-139.671 -217.97,-140.392 -217.97,-141.275 C-217.97,-145.688 -219.965,-149.64 -223.096,-152.284 C-218.503,-158.294 -210.935,-162.104 -203.407,-162.104 C-190.998,-162.104 -180.694,-152.276 -179.62,-139.851 C-181.256,-139.969 -183.706,-140.023 -186.162,-139.655 C-187.039,-139.523 -187.632,-138.701 -187.5,-137.824 C-187.382,-137.035 -186.703,-136.464 -185.92,-136.464 C-185.842,-136.464 -185.763,-136.472 -185.677,-136.486 C-182.11,-137.027 -178.392,-136.518 -178.174,-136.486 C-170.708,-135.07 -165.091,-128.201 -165.091,-120.485 C-165.091,-111.627 -172.296,-104.422 -181.154,-104.422 z M-181.154,-104.422" fill="#444444"/>
      <g id="Group">
        <path d="M-143.971,-155.558 L-143.971,-155.558 C-143.262,-155.558 -142.688,-154.983 -142.688,-154.275 L-142.688,-149.198 C-142.688,-148.49 -143.262,-147.915 -143.971,-147.915 L-143.971,-147.915 C-144.679,-147.915 -145.254,-148.49 -145.254,-149.198 L-145.254,-154.275 C-145.254,-154.983 -144.679,-155.558 -143.971,-155.558 z" fill="#D8D8D8" id="Rectangle-2"/>
        <path d="M-140.15,-151.737 L-140.15,-151.737 C-140.15,-151.028 -140.724,-150.454 -141.433,-150.454 L-146.509,-150.454 C-147.217,-150.454 -147.792,-151.028 -147.792,-151.737 L-147.792,-151.737 C-147.792,-152.445 -147.217,-153.02 -146.509,-153.02 L-141.433,-153.02 C-140.724,-153.02 -140.15,-152.445 -140.15,-151.737 z" fill="#D8D8D8" id="Rectangle-2"/>
      </g>
      <g id="Group">
        <path d="M-226.637,-193.558 L-226.637,-193.558 C-225.929,-193.558 -225.354,-192.983 -225.354,-192.275 L-225.354,-187.198 C-225.354,-186.49 -225.929,-185.915 -226.637,-185.915 L-226.637,-185.915 C-227.346,-185.915 -227.921,-186.49 -227.921,-187.198 L-227.921,-192.275 C-227.921,-192.983 -227.346,-193.558 -226.637,-193.558 z" fill="#D8D8D8" id="Rectangle-2"/>
        <path d="M-222.816,-189.737 L-222.816,-189.737 C-222.816,-189.028 -223.391,-188.454 -224.099,-188.454 L-229.176,-188.454 C-229.884,-188.454 -230.459,-189.028 -230.459,-189.737 L-230.459,-189.737 C-230.459,-190.445 -229.884,-191.02 -229.176,-191.02 L-224.099,-191.02 C-223.391,-191.02 -222.816,-190.445 -222.816,-189.737 z" fill="#D8D8D8" id="Rectangle-2"/>
      </g>
      <g id="Group">
        <path d="M-289.747,-134.223 L-289.747,-134.223 C-289.246,-134.724 -288.434,-134.724 -287.933,-134.223 L-285.14,-131.43 C-284.639,-130.929 -284.639,-130.117 -285.14,-129.616 L-285.14,-129.616 C-285.641,-129.115 -286.454,-129.115 -286.955,-129.616 L-289.747,-132.409 C-290.249,-132.91 -290.249,-133.722 -289.747,-134.223 z" fill="#D8D8D8" id="Rectangle-2"/>
        <path d="M-285.16,-134.242 L-285.16,-134.242 C-284.659,-133.741 -284.659,-132.929 -285.16,-132.428 L-287.952,-129.635 C-288.453,-129.134 -289.266,-129.134 -289.767,-129.635 L-289.767,-129.635 C-290.268,-130.136 -290.268,-130.949 -289.767,-131.45 L-286.974,-134.242 C-286.473,-134.744 -285.661,-134.744 -285.16,-134.242 z" fill="#D8D8D8" id="Rectangle-2"/>
      </g>
      <g id="Group">
        <path d="M-146.265,-99.286 L-146.265,-99.286 C-145.764,-99.787 -144.951,-99.787 -144.45,-99.286 L-141.657,-96.493 C-141.156,-95.992 -141.156,-95.18 -141.657,-94.679 L-141.657,-94.679 C-142.158,-94.178 -142.971,-94.178 -143.472,-94.679 L-146.265,-97.471 C-146.766,-97.973 -146.766,-98.785 -146.265,-99.286 z" fill="#D8D8D8" id="Rectangle-2"/>
        <path d="M-141.677,-99.305 L-141.677,-99.305 C-141.176,-98.804 -141.176,-97.992 -141.677,-97.491 L-144.47,-94.698 C-144.971,-94.197 -145.783,-94.197 -146.284,-94.698 L-146.284,-94.698 C-146.785,-95.199 -146.785,-96.012 -146.284,-96.513 L-143.491,-99.305 C-142.99,-99.806 -142.178,-99.806 -141.677,-99.305 z" fill="#D8D8D8" id="Rectangle-2"/>
      </g>
      <path d="M-236.378,-167.568 C-236.378,-166.161 -237.527,-165.021 -238.944,-165.021 C-240.362,-165.021 -241.51,-166.161 -241.51,-167.568 C-241.51,-168.975 -240.362,-170.115 -238.944,-170.115 C-237.527,-170.115 -236.378,-168.975 -236.378,-167.568 z" fill="#D8D8D8" id="Oval-2"/>
      <path d="M-264.578,-153.01 C-264.578,-151.603 -265.727,-150.463 -267.144,-150.463 C-268.562,-150.463 -269.71,-151.603 -269.71,-153.01 C-269.71,-154.417 -268.562,-155.558 -267.144,-155.558 C-265.727,-155.558 -264.578,-154.417 -264.578,-153.01 z" fill="#D8D8D8" id="Oval-2"/>
      <path d="M-187.976,-180.122 C-187.976,-178.916 -188.954,-177.938 -190.16,-177.938 C-191.367,-177.938 -192.344,-178.916 -192.344,-180.122 C-192.344,-181.328 -191.367,-182.306 -190.16,-182.306 C-188.954,-182.306 -187.976,-181.328 -187.976,-180.122 z" fill="#D8D8D8" id="Oval-3"/>
      <path d="M-130.239,-173.997 C-130.239,-172.791 -131.217,-171.813 -132.423,-171.813 C-133.63,-171.813 -134.607,-172.791 -134.607,-173.997 C-134.607,-175.203 -133.63,-176.181 -132.423,-176.181 C-131.217,-176.181 -130.239,-175.203 -130.239,-173.997 z" fill="#D8D8D8" id="Oval-3"/>
      <path d="M-254.204,-174.663 C-254.204,-173.457 -255.182,-172.479 -256.388,-172.479 C-257.594,-172.479 -258.572,-173.457 -258.572,-174.663 C-258.572,-175.87 -257.594,-176.847 -256.388,-176.847 C-255.182,-176.847 -254.204,-175.87 -254.204,-174.663 z" fill="#D8D8D8" id="Oval-3"/>
      <path d="M-161.078,-166.208 C-161.151,-164.803 -162.358,-163.724 -163.773,-163.797 C-165.189,-163.871 -166.277,-165.069 -166.204,-166.474 C-166.131,-167.879 -164.924,-168.959 -163.509,-168.885 C-162.094,-168.812 -161.005,-167.613 -161.078,-166.208 z" fill-opacity="0" stroke="#D8D8D8" stroke-width="1" id="Oval"/>
      <path d="M-150.828,-194.708 C-150.901,-193.303 -152.108,-192.224 -153.523,-192.297 C-154.939,-192.371 -156.027,-193.569 -155.954,-194.974 C-155.881,-196.379 -154.674,-197.459 -153.259,-197.385 C-151.844,-197.312 -150.755,-196.113 -150.828,-194.708 z" fill-opacity="0" stroke="#D8D8D8" stroke-width="1" id="Oval"/>
      <path d="M-129.357,-127.036 C-129.357,-125.629 -130.506,-124.489 -131.923,-124.489 C-133.341,-124.489 -134.489,-125.629 -134.489,-127.036 C-134.489,-128.443 -133.341,-129.583 -131.923,-129.583 C-130.506,-129.583 -129.357,-128.443 -129.357,-127.036 z" fill-opacity="0" stroke="#D8D8D8" stroke-width="1" id="Oval"/>
      <path d="M-275.683,-91.291 L-273.2,-88.808 L-270.688,-91.32 L-273.17,-93.803 L-275.683,-91.291 z" fill-opacity="0" stroke="#D8D8D8" stroke-width="1" id="Rectangle-3"/>
      <path d="M-284.264,-184.288 L-281.782,-181.806 L-279.27,-184.318 L-281.752,-186.8 L-284.264,-184.288 z" fill-opacity="0" stroke="#D8D8D8" stroke-width="1" id="Rectangle-3"/>
      <g>
        <path d="M-254.028,-95.163 L-232.58,-95.163 C-230.386,-95.163 -228.608,-93.367 -228.608,-91.151 L-228.608,-53.623 C-228.608,-51.407 -230.386,-49.611 -232.58,-49.611 L-254.028,-49.611 C-256.221,-49.611 -258,-51.407 -258,-53.623 L-258,-91.151 C-258,-93.367 -256.221,-95.163 -254.028,-95.163 z" fill-opacity="0" stroke="#444444" stroke-width="3"/>
        <path d="M-252.213,-85.768 L-234.909,-85.768" fill-opacity="0" stroke="#AAAAAA" stroke-width="3" stroke-linecap="round"/>
        <path d="M-252.213,-78.28 L-239.357,-78.28" fill-opacity="0" stroke="#AAAAAA" stroke-width="3" stroke-linecap="round"/>
        <path d="M-234.909,-78.28 L-234.909,-78.28" fill-opacity="0" stroke="#2B5E7C" stroke-width="3" stroke-linecap="round"/>
      </g>
      <g>
        <path d="M-220.181,-95.163 L-198.733,-95.163 C-196.539,-95.163 -194.761,-93.367 -194.761,-91.151 L-194.761,-53.623 C-194.761,-51.407 -196.539,-49.611 -198.733,-49.611 L-220.181,-49.611 C-222.375,-49.611 -224.153,-51.407 -224.153,-53.623 L-224.153,-91.151 C-224.153,-93.367 -222.375,-95.163 -220.181,-95.163 z" fill-opacity="0" stroke="#444444" stroke-width="3"/>
        <path d="M-218.366,-85.768 L-201.063,-85.768" fill-opacity="0" stroke="#AAAAAA" stroke-width="3" stroke-linecap="round"/>
        <path d="M-218.366,-78.28 L-205.511,-78.28" fill-opacity="0" stroke="#AAAAAA" stroke-width="3" stroke-linecap="round"/>
        <path d="M-201.063,-78.28 L-201.063,-78.28" fill-opacity="0" stroke="#2B5E7C" stroke-width="3" stroke-linecap="round"/>
      </g>
      <g>
        <path d="M-186.335,-95.163 L-164.887,-95.163 C-162.693,-95.163 -160.915,-93.367 -160.915,-91.151 L-160.915,-53.623 C-160.915,-51.407 -162.693,-49.611 -164.887,-49.611 L-186.335,-49.611 C-188.528,-49.611 -190.307,-51.407 -190.307,-53.623 L-190.307,-91.151 C-190.307,-93.367 -188.528,-95.163 -186.335,-95.163 z" fill-opacity="0" stroke="#444444" stroke-width="3"/>
        <path d="M-184.52,-85.768 L-167.216,-85.768" fill-opacity="0" stroke="#AAAAAA" stroke-width="3" stroke-linecap="round"/>
        <path d="M-184.52,-78.28 L-171.664,-78.28" fill-opacity="0" stroke="#AAAAAA" stroke-width="3" stroke-linecap="round"/>
        <path d="M-167.216,-78.28 L-167.216,-78.28" fill-opacity="0" stroke="#2B5E7C" stroke-width="3" stroke-linecap="round"/>
      </g>
      <path d="M-181.154,-104.422 L-196.867,-104.422 C-196.961,-104.422 -197.055,-104.428 -197.147,-104.428 L-197.578,-104.452 L-197.898,-104.428 C-197.985,-104.428 -198.079,-104.422 -198.173,-104.422 L-237.446,-104.422 C-247.031,-104.422 -254.823,-112.214 -254.823,-121.799 C-254.823,-128.459 -250.488,-135.368 -244.519,-138.231 L-243.612,-138.661 L-243.612,-139.671 C-243.612,-139.875 -243.596,-140.085 -243.588,-140.29 L-243.572,-140.548 L-243.588,-140.885 C-243.604,-141.017 -243.612,-141.143 -243.612,-141.275 C-243.612,-147.457 -238.58,-152.497 -232.39,-152.497 C-231.897,-152.497 -231.405,-152.449 -230.92,-152.387 C-230.794,-152.371 -230.67,-152.347 -230.551,-152.333 C-230.121,-152.252 -229.698,-152.168 -229.283,-152.042 C-229.229,-152.026 -229.175,-152.018 -229.111,-152.002 C-228.658,-151.862 -228.212,-151.682 -227.775,-151.487 C-227.665,-151.431 -227.555,-151.377 -227.438,-151.323 C-227.054,-151.135 -226.679,-150.922 -226.319,-150.688 C-223.228,-148.693 -221.179,-145.219 -221.179,-141.275 C-221.179,-140.392 -220.458,-139.671 -219.574,-139.671 C-218.689,-139.671 -217.97,-140.392 -217.97,-141.275 C-217.97,-145.688 -219.965,-149.64 -223.096,-152.284 C-218.503,-158.294 -210.935,-162.104 -203.407,-162.104 C-190.998,-162.104 -180.694,-152.276 -179.62,-139.851 C-181.256,-139.969 -183.706,-140.023 -186.162,-139.655 C-187.039,-139.523 -187.632,-138.701 -187.5,-137.824 C-187.382,-137.035 -186.703,-136.464 -185.92,-136.464 C-185.842,-136.464 -185.763,-136.472 -185.677,-136.486 C-182.11,-137.027 -178.392,-136.518 -178.174,-136.486 C-170.708,-135.07 -165.091,-128.201 -165.091,-120.485 C-165.091,-111.627 -172.296,-104.422 -181.154,-104.422 z M-181.154,-104.422" fill="url(#Gradient_1)"/>
    </g>
    <g>
      <g>
        <path d="M-248.671,-54.85 L-248.671,-55.016 Q-248.671,-55.24 -248.516,-55.386 L-247.049,-56.753 Q-246.959,-56.831 -246.89,-56.786 Q-246.822,-56.74 -246.822,-56.614 L-246.822,-56.031 Q-246.822,-55.78 -247.049,-55.573 L-247.735,-54.935 L-247.049,-54.293 Q-246.822,-54.086 -246.822,-53.835 L-246.822,-53.252 Q-246.822,-53.126 -246.89,-53.082 Q-246.959,-53.038 -247.049,-53.112 L-248.516,-54.483 Q-248.671,-54.626 -248.671,-54.85 z" fill="#1D1D1F"/>
        <path d="M-245.782,-57.099 L-245.782,-58.744 Q-245.782,-58.778 -245.74,-58.8 Q-245.698,-58.822 -245.636,-58.822 L-245.096,-58.822 Q-245.034,-58.822 -244.992,-58.8 Q-244.95,-58.778 -244.95,-58.744 L-244.95,-57.099 Q-244.95,-57.066 -244.992,-57.044 Q-245.034,-57.022 -245.096,-57.022 L-245.636,-57.022 Q-245.698,-57.022 -245.74,-57.044 Q-245.782,-57.066 -245.782,-57.099 z" fill="#1D1D1F"/>
        <path d="M-244.95,-56.675 L-244.95,-53.196 Q-244.95,-53.139 -244.995,-53.102 Q-245.04,-53.066 -245.11,-53.066 L-246.424,-53.066 Q-246.491,-53.066 -246.537,-53.102 Q-246.582,-53.139 -246.582,-53.196 L-246.582,-53.782 Q-246.582,-53.838 -246.537,-53.875 Q-246.491,-53.912 -246.424,-53.912 L-245.79,-53.912 L-245.79,-55.935 L-246.424,-55.935 Q-246.491,-55.935 -246.537,-55.972 Q-246.582,-56.009 -246.582,-56.063 L-246.582,-56.675 Q-246.582,-56.729 -246.537,-56.766 Q-246.491,-56.803 -246.424,-56.803 L-245.11,-56.803 Q-245.04,-56.803 -244.995,-56.766 Q-244.95,-56.729 -244.95,-56.675 z" fill="#1D1D1F"/>
      </g>
      <g>
        <path d="M-242.535,-54.856 L-242.535,-55.022 Q-242.535,-55.246 -242.38,-55.392 L-240.913,-56.759 Q-240.823,-56.837 -240.755,-56.791 Q-240.686,-56.746 -240.686,-56.62 L-240.686,-56.036 Q-240.686,-55.785 -240.913,-55.578 L-241.599,-54.94 L-240.913,-54.299 Q-240.686,-54.092 -240.686,-53.841 L-240.686,-53.257 Q-240.686,-53.132 -240.755,-53.088 Q-240.823,-53.044 -240.913,-53.118 L-242.38,-54.489 Q-242.535,-54.632 -242.535,-54.856 z" fill="#2C5E7C"/>
        <path d="M-242.629,-55.018 L-242.629,-54.852 Q-242.629,-54.628 -242.784,-54.482 L-244.251,-53.115 Q-244.341,-53.037 -244.41,-53.082 Q-244.478,-53.128 -244.478,-53.254 L-244.478,-53.837 Q-244.478,-54.089 -244.251,-54.296 L-243.565,-54.933 L-244.251,-55.575 Q-244.478,-55.782 -244.478,-56.033 L-244.478,-56.616 Q-244.478,-56.742 -244.41,-56.786 Q-244.341,-56.83 -244.251,-56.756 L-242.784,-55.385 Q-242.629,-55.242 -242.629,-55.018 z" fill="#2C5E7C"/>
      </g>
    </g>
    <g>
      <g>
        <path d="M-213.992,-54.85 L-213.992,-55.016 Q-213.992,-55.24 -213.837,-55.386 L-212.37,-56.753 Q-212.28,-56.831 -212.212,-56.786 Q-212.143,-56.74 -212.143,-56.614 L-212.143,-56.031 Q-212.143,-55.78 -212.37,-55.573 L-213.056,-54.935 L-212.37,-54.293 Q-212.143,-54.086 -212.143,-53.835 L-212.143,-53.252 Q-212.143,-53.126 -212.212,-53.082 Q-212.28,-53.038 -212.37,-53.112 L-213.837,-54.483 Q-213.992,-54.626 -213.992,-54.85 z" fill="#1D1D1F"/>
        <path d="M-211.104,-57.099 L-211.104,-58.744 Q-211.104,-58.778 -211.062,-58.8 Q-211.02,-58.822 -210.957,-58.822 L-210.418,-58.822 Q-210.355,-58.822 -210.313,-58.8 Q-210.271,-58.778 -210.271,-58.744 L-210.271,-57.099 Q-210.271,-57.066 -210.313,-57.044 Q-210.355,-57.022 -210.418,-57.022 L-210.957,-57.022 Q-211.02,-57.022 -211.062,-57.044 Q-211.104,-57.066 -211.104,-57.099 z" fill="#1D1D1F"/>
        <path d="M-210.271,-56.675 L-210.271,-53.196 Q-210.271,-53.139 -210.316,-53.102 Q-210.361,-53.066 -210.431,-53.066 L-211.746,-53.066 Q-211.813,-53.066 -211.858,-53.102 Q-211.903,-53.139 -211.903,-53.196 L-211.903,-53.782 Q-211.903,-53.838 -211.858,-53.875 Q-211.813,-53.912 -211.746,-53.912 L-211.112,-53.912 L-211.112,-55.935 L-211.746,-55.935 Q-211.813,-55.935 -211.858,-55.972 Q-211.903,-56.009 -211.903,-56.063 L-211.903,-56.675 Q-211.903,-56.729 -211.858,-56.766 Q-211.813,-56.803 -211.746,-56.803 L-210.431,-56.803 Q-210.361,-56.803 -210.316,-56.766 Q-210.271,-56.729 -210.271,-56.675 z" fill="#1D1D1F"/>
      </g>
      <g>
        <path d="M-207.856,-54.856 L-207.856,-55.022 Q-207.856,-55.246 -207.702,-55.392 L-206.235,-56.759 Q-206.144,-56.837 -206.076,-56.791 Q-206.008,-56.746 -206.008,-56.62 L-206.008,-56.036 Q-206.008,-55.785 -206.235,-55.578 L-206.92,-54.94 L-206.235,-54.299 Q-206.008,-54.092 -206.008,-53.841 L-206.008,-53.257 Q-206.008,-53.132 -206.076,-53.088 Q-206.144,-53.044 -206.235,-53.118 L-207.702,-54.489 Q-207.856,-54.632 -207.856,-54.856 z" fill="#2C5E7C"/>
        <path d="M-207.951,-55.018 L-207.951,-54.852 Q-207.951,-54.628 -208.106,-54.482 L-209.573,-53.115 Q-209.663,-53.037 -209.731,-53.082 Q-209.799,-53.128 -209.799,-53.254 L-209.799,-53.837 Q-209.799,-54.089 -209.573,-54.296 L-208.887,-54.933 L-209.573,-55.575 Q-209.799,-55.782 -209.799,-56.033 L-209.799,-56.616 Q-209.799,-56.742 -209.731,-56.786 Q-209.663,-56.83 -209.573,-56.756 L-208.106,-55.385 Q-207.951,-55.242 -207.951,-55.018 z" fill="#2C5E7C"/>
      </g>
    </g>
    <g>
      <g>
        <path d="M-180.242,-54.85 L-180.242,-55.016 Q-180.242,-55.24 -180.087,-55.386 L-178.62,-56.753 Q-178.53,-56.831 -178.462,-56.786 Q-178.393,-56.74 -178.393,-56.614 L-178.393,-56.031 Q-178.393,-55.78 -178.62,-55.573 L-179.306,-54.935 L-178.62,-54.293 Q-178.393,-54.086 -178.393,-53.835 L-178.393,-53.252 Q-178.393,-53.126 -178.462,-53.082 Q-178.53,-53.038 -178.62,-53.112 L-180.087,-54.483 Q-180.242,-54.626 -180.242,-54.85 z" fill="#1D1D1F"/>
        <path d="M-177.354,-57.099 L-177.354,-58.744 Q-177.354,-58.778 -177.312,-58.8 Q-177.269,-58.822 -177.207,-58.822 L-176.668,-58.822 Q-176.605,-58.822 -176.563,-58.8 Q-176.521,-58.778 -176.521,-58.744 L-176.521,-57.099 Q-176.521,-57.066 -176.563,-57.044 Q-176.605,-57.022 -176.668,-57.022 L-177.207,-57.022 Q-177.269,-57.022 -177.312,-57.044 Q-177.354,-57.066 -177.354,-57.099 z" fill="#1D1D1F"/>
        <path d="M-176.521,-56.675 L-176.521,-53.196 Q-176.521,-53.139 -176.566,-53.102 Q-176.611,-53.066 -176.681,-53.066 L-177.996,-53.066 Q-178.063,-53.066 -178.108,-53.102 Q-178.153,-53.139 -178.153,-53.196 L-178.153,-53.782 Q-178.153,-53.838 -178.108,-53.875 Q-178.063,-53.912 -177.996,-53.912 L-177.362,-53.912 L-177.362,-55.935 L-177.996,-55.935 Q-178.063,-55.935 -178.108,-55.972 Q-178.153,-56.009 -178.153,-56.063 L-178.153,-56.675 Q-178.153,-56.729 -178.108,-56.766 Q-178.063,-56.803 -177.996,-56.803 L-176.681,-56.803 Q-176.611,-56.803 -176.566,-56.766 Q-176.521,-56.729 -176.521,-56.675 z" fill="#1D1D1F"/>
      </g>
      <g>
        <path d="M-174.106,-54.856 L-174.106,-55.022 Q-174.106,-55.246 -173.951,-55.392 L-172.484,-56.759 Q-172.394,-56.837 -172.326,-56.791 Q-172.258,-56.746 -172.258,-56.62 L-172.258,-56.036 Q-172.258,-55.785 -172.484,-55.578 L-173.17,-54.94 L-172.484,-54.299 Q-172.258,-54.092 -172.258,-53.841 L-172.258,-53.257 Q-172.258,-53.132 -172.326,-53.088 Q-172.394,-53.044 -172.484,-53.118 L-173.951,-54.489 Q-174.106,-54.632 -174.106,-54.856 z" fill="#2C5E7C"/>
        <path d="M-174.201,-55.018 L-174.201,-54.852 Q-174.201,-54.628 -174.355,-54.482 L-175.822,-53.115 Q-175.913,-53.037 -175.981,-53.082 Q-176.049,-53.128 -176.049,-53.254 L-176.049,-53.837 Q-176.049,-54.089 -175.822,-54.296 L-175.137,-54.933 L-175.822,-55.575 Q-176.049,-55.782 -176.049,-56.033 L-176.049,-56.616 Q-176.049,-56.742 -175.981,-56.786 Q-175.913,-56.83 -175.822,-56.756 L-174.355,-55.385 Q-174.201,-55.242 -174.201,-55.018 z" fill="#2C5E7C"/>
      </g>
    </g>
    <path d="M106.903,124.558 C103.897,124.244 100.916,125.285 98.754,127.447 C96.797,129.404 95.724,132.114 95.81,134.882 C95.897,137.691 97.109,140.266 99.224,142.133 C103.043,145.502 108.786,145.482 112.583,142.085 C115,139.918 116.214,136.728 115.888,133.542 L125.551,143.206 L104.264,164.493 C100.518,168.239 94.424,168.239 90.678,164.493 L69.391,143.206 L81.371,131.226 C81.71,130.887 81.893,130.421 81.875,129.941 C81.858,129.461 81.641,129.01 81.277,128.697 C80.046,127.635 78.392,127.204 76.852,127.544 C74.522,128.058 72.084,127.271 70.49,125.491 C68.297,123.04 68.282,119.188 70.456,116.723 C71.683,115.33 73.376,114.533 75.22,114.475 C77.067,114.417 78.803,115.105 80.109,116.411 C81.704,118.006 82.369,120.278 81.887,122.492 C81.553,124.048 81.981,125.708 83.033,126.935 C83.346,127.3 83.797,127.518 84.277,127.536 C84.758,127.555 85.225,127.372 85.565,127.032 L97.471,115.126 L106.903,124.558 L106.903,124.558 z M93.591,95.322 C91.996,96.916 89.723,97.582 87.512,97.103 C85.994,96.772 84.419,97.152 83.191,98.146 C82.81,98.454 82.578,98.909 82.552,99.398 C82.526,99.887 82.71,100.364 83.056,100.71 L95.029,112.683 L85.422,122.289 C85.797,119.228 84.759,116.175 82.553,113.968 C80.594,112.01 77.882,110.936 75.112,111.023 C72.523,111.103 70.134,112.141 68.315,113.96 C68.161,114.114 68.011,114.274 67.866,114.438 C64.498,118.257 64.52,123.999 67.916,127.795 C70.122,130.258 73.39,131.47 76.631,131.081 L65.727,141.985 C65.052,142.659 65.053,143.753 65.727,144.427 L88.235,166.935 C93.328,172.028 101.614,172.028 106.707,166.935 L143.77,129.873 C144.444,129.198 144.444,128.104 143.77,127.43 C143.095,126.755 142.002,126.755 141.327,127.43 L127.994,140.763 L115.942,128.712 C115.597,128.366 115.121,128.183 114.632,128.208 C114.144,128.233 113.689,128.465 113.381,128.843 C112.382,130.072 112,131.641 112.331,133.148 C112.844,135.48 112.056,137.918 110.279,139.511 C108.287,141.293 105.371,141.637 103.024,140.536 C102.934,140.494 102.845,140.449 102.756,140.403 C102.402,140.216 102.063,139.996 101.745,139.741 C101.665,139.677 101.587,139.612 101.509,139.544 C100.118,138.314 99.319,136.621 99.262,134.775 C99.205,132.93 99.892,131.194 101.197,129.89 C102.79,128.296 105.064,127.632 107.28,128.111 C108.799,128.44 110.373,128.06 111.599,127.068 C111.695,126.991 111.78,126.904 111.856,126.811 C112.083,126.53 112.218,126.182 112.238,125.816 C112.257,125.449 112.159,125.089 111.962,124.786 C111.897,124.685 111.821,124.59 111.734,124.503 L99.914,112.683 L101.828,110.769 C102.502,110.095 102.502,109.001 101.828,108.327 C101.153,107.652 100.06,107.652 99.385,108.327 L97.471,110.241 L87.887,100.656 C90.89,100.969 93.871,99.927 96.033,97.765 C97.991,95.807 99.065,93.097 98.979,90.33 C98.892,87.522 97.68,84.946 95.564,83.078 C91.746,79.71 86.004,79.732 82.208,83.127 C79.787,85.291 78.574,88.483 78.9,91.669 L69.392,82.161 L90.678,60.874 C94.424,57.128 100.518,57.128 104.264,60.873 L125.551,82.16 L113.588,94.124 C113.235,94.476 113.052,94.964 113.086,95.461 C113.119,95.958 113.365,96.416 113.762,96.718 C114.97,97.64 116.491,97.987 117.937,97.67 C120.267,97.156 122.705,97.942 124.297,99.72 C126.49,102.171 126.505,106.023 124.331,108.488 C123.104,109.881 121.411,110.679 119.566,110.737 C117.72,110.794 115.985,110.108 114.68,108.803 C113.084,107.206 112.418,104.934 112.9,102.719 C113.212,101.267 112.869,99.741 111.958,98.534 C111.658,98.135 111.198,97.886 110.7,97.852 C110.201,97.817 109.712,98 109.358,98.353 L104.27,103.442 C103.595,104.116 103.595,105.21 104.27,105.884 C104.944,106.559 106.038,106.559 106.713,105.884 L109.329,103.268 C109.071,106.213 110.113,109.122 112.237,111.245 C114.195,113.203 116.905,114.276 119.674,114.19 C122.482,114.102 125.055,112.889 126.921,110.774 C130.289,106.955 130.268,101.213 126.871,97.417 C124.743,95.041 121.626,93.83 118.499,94.098 L127.994,84.603 L149.281,105.89 C153.026,109.636 153.026,115.73 149.281,119.476 L146.212,122.545 C145.538,123.219 145.538,124.313 146.212,124.987 C146.887,125.662 147.98,125.662 148.655,124.987 L151.723,121.919 C156.816,116.826 156.816,108.54 151.723,103.447 L106.707,58.431 C101.614,53.338 93.328,53.338 88.235,58.431 L65.727,80.939 C65.052,81.613 65.052,82.707 65.727,83.382 L78.845,96.499 C79.19,96.845 79.667,97.028 80.155,97.003 C80.643,96.978 81.098,96.746 81.407,96.368 C82.405,95.139 82.788,93.57 82.456,92.063 C81.943,89.731 82.73,87.294 84.51,85.702 C86.962,83.509 90.813,83.494 93.278,85.668 C94.67,86.898 95.469,88.592 95.526,90.437 C95.583,92.282 94.896,94.017 93.591,95.322" fill="#444444"/>
    <path d="M106.917,124.55 C103.911,124.237 100.93,125.278 98.768,127.44 C96.811,129.397 95.737,132.106 95.823,134.874 C95.91,137.683 97.123,140.258 99.237,142.126 C103.057,145.495 108.8,145.475 112.597,142.078 C115.014,139.91 116.227,136.72 115.901,133.535 L125.565,143.198 L104.278,164.485 C100.532,168.231 94.437,168.231 90.692,164.485 L69.405,143.198 L81.384,131.219 C81.724,130.879 81.907,130.414 81.889,129.933 C81.871,129.454 81.655,129.003 81.291,128.689 C80.059,127.628 78.405,127.197 76.866,127.536 C74.536,128.05 72.098,127.264 70.504,125.484 C68.311,123.032 68.296,119.181 70.47,116.716 C71.696,115.323 73.39,114.525 75.234,114.468 C77.081,114.41 78.817,115.098 80.123,116.404 C81.718,117.999 82.383,120.271 81.901,122.485 C81.567,124.04 81.995,125.701 83.046,126.927 C83.359,127.292 83.811,127.51 84.291,127.529 C84.772,127.547 85.239,127.364 85.579,127.024 L97.485,115.118 L106.917,124.55 L106.917,124.55 z" fill="url(#Gradient_2)"/>
  </g>
</svg>
