<?xml version="1.0" encoding="UTF-8"?>
<!DOCTYPE svg PUBLIC "-//W3C//DTD SVG 1.1//EN" "http://www.w3.org/Graphics/SVG/1.1/DTD/svg11.dtd">
<svg version="1.1" xmlns="http://www.w3.org/2000/svg" xmlns:xlink="http://www.w3.org/1999/xlink" x="0" y="0" width="1920" height="1280" viewBox="0, 0, 1920, 1280">
  <defs>
    <clipPath id="Clip_1">
      <path d="M578.645,0.47 L1337.628,0.47 L1337.628,211.2 L578.645,211.2 z M1273.476,199.2 L1279.476,199.2 C1279.476,200.857 1280.819,202.2 1282.476,202.2 L1300.476,202.2 C1302.133,202.2 1303.476,200.857 1303.476,199.2 L1309.476,199.2 L1309.476,199.2 C1309.476,200.857 1310.82,202.2 1312.476,202.2 L1317.177,202.2 C1322.984,202.178 1327.61,197.099 1328.48,190.548 C1328.699,188.906 1327.544,187.398 1325.902,187.179 L1325.628,187.171 L1325.628,181.158 C1327.285,181.158 1328.628,179.815 1328.628,178.158 L1328.628,160.158 C1328.628,158.501 1327.285,157.158 1325.628,157.158 L1325.628,151.158 C1327.285,151.158 1328.628,149.815 1328.628,148.158 L1328.628,130.158 C1328.628,128.501 1327.285,127.158 1325.628,127.158 L1325.628,121.158 C1327.285,121.158 1328.628,119.815 1328.628,118.158 L1328.628,100.158 C1328.628,98.501 1327.285,97.158 1325.628,97.158 L1325.628,91.158 C1327.285,91.158 1328.628,89.815 1328.628,88.158 L1328.628,70.158 C1328.628,68.501 1327.285,67.158 1325.628,67.158 L1325.628,61.158 C1327.285,61.158 1328.628,59.815 1328.628,58.158 L1328.628,40.158 C1328.628,38.501 1327.285,37.158 1325.628,37.158 L1325.628,31.158 C1327.285,31.158 1328.628,29.815 1328.628,28.158 L1328.628,23.329 C1328.612,17.02 1325.123,11.447 1319.968,9.888 L1319.371,9.771 C1317.751,9.942 1316.85,10.238 1316.228,11.892 L1316.115,12.47 L1310.121,12.471 C1310.121,10.814 1308.778,9.471 1307.121,9.47 L1289.121,9.471 C1287.464,9.471 1286.121,10.814 1286.121,12.47 L1280.121,12.471 C1280.121,10.814 1278.778,9.471 1277.121,9.47 L1259.121,9.471 C1257.464,9.471 1256.121,10.814 1256.121,12.47 L1250.121,12.471 C1250.121,10.814 1248.778,9.471 1247.121,9.47 L1229.121,9.471 C1227.464,9.471 1226.121,10.814 1226.121,12.47 L1220.121,12.471 C1220.121,10.814 1218.778,9.471 1217.121,9.47 L1199.121,9.471 C1197.464,9.471 1196.121,10.814 1196.121,12.47 L1190.121,12.471 C1190.121,10.814 1188.778,9.471 1187.121,9.47 L1169.121,9.471 C1167.464,9.471 1166.121,10.814 1166.121,12.47 L1160.121,12.471 C1160.121,10.814 1158.778,9.471 1157.121,9.47 L1139.121,9.471 C1137.464,9.471 1136.121,10.814 1136.121,12.47 L1130.121,12.471 C1130.121,10.814 1128.778,9.471 1127.121,9.47 L1109.121,9.471 C1107.464,9.471 1106.121,10.814 1106.121,12.47 L1100.121,12.471 C1100.121,10.814 1098.778,9.471 1097.121,9.47 L1079.121,9.471 C1077.464,9.471 1076.121,10.814 1076.121,12.47 L1070.121,12.471 C1070.121,10.814 1068.778,9.471 1067.121,9.47 L1049.121,9.471 C1047.464,9.471 1046.121,10.814 1046.121,12.47 L1040.121,12.471 C1040.121,10.814 1038.778,9.471 1037.121,9.47 L1019.121,9.471 C1017.464,9.471 1016.121,10.814 1016.121,12.47 L1010.121,12.471 C1010.121,10.814 1008.778,9.471 1007.121,9.47 L989.121,9.471 C987.464,9.471 986.121,10.814 986.121,12.47 L980.121,12.471 C980.121,10.814 978.778,9.471 977.121,9.47 L959.121,9.471 C957.464,9.471 956.121,10.814 956.121,12.47 L956.121,12.471 L950.121,12.471 L950.121,12.471 C950.121,10.814 948.778,9.471 947.121,9.47 L929.121,9.471 C927.464,9.471 926.121,10.814 926.121,12.47 L926.121,12.471 L920.121,12.471 L920.121,12.471 C920.121,10.814 918.778,9.471 917.121,9.47 L899.121,9.471 C897.464,9.471 896.121,10.814 896.121,12.47 L896.121,12.471 L890.121,12.471 L890.121,12.471 C890.121,10.814 888.778,9.471 887.121,9.47 L869.121,9.471 C867.464,9.471 866.121,10.814 866.121,12.47 L866.121,12.471 L860.121,12.471 L860.121,12.471 C860.121,10.814 858.778,9.471 857.121,9.47 L839.121,9.471 C837.464,9.471 836.121,10.814 836.121,12.47 L836.121,12.471 L830.121,12.471 L830.121,12.471 C830.121,10.814 828.778,9.471 827.121,9.47 L809.121,9.471 C807.464,9.471 806.121,10.814 806.121,12.47 L806.121,12.471 L800.121,12.471 L800.121,12.471 C800.121,10.814 798.778,9.471 797.121,9.47 L779.121,9.471 C777.464,9.471 776.121,10.814 776.121,12.47 L776.121,12.471 L770.121,12.471 L770.121,12.471 C770.121,10.814 768.778,9.471 767.121,9.47 L749.121,9.471 C747.464,9.471 746.121,10.814 746.121,12.47 L746.121,12.471 L740.121,12.471 L740.121,12.471 C740.121,10.814 738.778,9.471 737.121,9.47 L719.121,9.471 C717.464,9.471 716.121,10.814 716.121,12.47 L716.121,12.471 L710.121,12.471 L710.121,12.471 C710.121,10.814 708.778,9.471 707.121,9.47 L689.121,9.471 C687.464,9.471 686.121,10.814 686.121,12.47 L686.121,12.471 L680.121,12.471 L680.121,12.471 C680.121,10.814 678.778,9.471 677.121,9.47 L659.121,9.471 C657.464,9.471 656.121,10.814 656.121,12.47 L656.121,12.471 L650.121,12.471 L650.121,12.471 C650.121,10.814 648.778,9.471 647.121,9.47 L629.121,9.471 C627.464,9.471 626.121,10.814 626.121,12.47 L626.121,12.471 L620.121,12.471 L620.121,12.471 C620.121,10.814 618.778,9.471 617.121,9.47 L599.121,9.471 C597.464,9.471 596.121,10.814 596.121,12.47 C596.185,13.108 596.103,12.889 596.221,13.167 C594.684,14.001 595.407,13.502 594.058,14.673 L593.682,14.411 C592.768,14.016 593.326,14.192 591.968,14.042 C590.906,14.345 590.183,14.541 589.602,15.573 C588.33,17.857 587.645,20.556 587.645,23.365 L587.645,34.838 C587.645,36.495 588.988,37.838 590.645,37.838 L590.645,43.838 C588.988,43.838 587.645,45.181 587.645,46.838 L587.645,64.838 C587.645,66.495 588.988,67.838 590.645,67.838 L590.645,73.838 C588.988,73.838 587.645,75.181 587.645,76.838 L587.645,94.838 C587.645,96.495 588.988,97.838 590.645,97.838 L590.645,103.838 C588.988,103.838 587.645,105.181 587.645,106.838 L587.645,124.838 C587.645,126.495 588.988,127.838 590.645,127.838 L590.645,133.838 C588.988,133.838 587.645,135.181 587.645,136.838 L587.645,154.838 C587.645,156.495 588.988,157.838 590.645,157.838 L590.645,163.838 C588.988,163.838 587.645,165.181 587.645,166.838 L587.645,184.838 C587.645,186.495 588.988,187.838 590.645,187.838 L590.645,188.306 C590.717,190.15 590.93,192.048 591.784,193.719 C591.585,193.85 591.707,193.768 591.417,193.967 C590.145,195.028 589.973,196.92 591.034,198.192 C593.138,200.716 596.008,202.2 599.121,202.2 L610.476,202.2 C612.133,202.2 613.476,200.857 613.476,199.2 L619.476,199.2 C619.476,200.857 620.82,202.2 622.476,202.2 L640.476,202.2 C642.133,202.2 643.476,200.857 643.476,199.2 L649.476,199.2 C649.476,200.857 650.82,202.2 652.476,202.2 L670.476,202.2 C672.133,202.2 673.476,200.857 673.476,199.2 L679.476,199.2 C679.476,200.857 680.82,202.2 682.476,202.2 L700.476,202.2 C702.133,202.2 703.476,200.857 703.476,199.2 L709.476,199.2 C709.476,200.857 710.82,202.2 712.476,202.2 L730.476,202.2 C732.133,202.2 733.476,200.857 733.476,199.2 L739.476,199.2 C739.476,200.857 740.82,202.2 742.476,202.2 L760.476,202.2 C762.133,202.2 763.476,200.857 763.476,199.2 L769.476,199.2 C769.476,200.857 770.82,202.2 772.476,202.2 L790.476,202.2 C792.133,202.2 793.476,200.857 793.476,199.2 L799.476,199.2 C799.476,200.857 800.82,202.2 802.476,202.2 L820.476,202.2 C822.133,202.2 823.476,200.857 823.476,199.2 L829.476,199.2 C829.476,200.857 830.82,202.2 832.476,202.2 L850.476,202.2 C852.133,202.2 853.476,200.857 853.476,199.2 L859.476,199.2 C859.476,200.857 860.82,202.2 862.476,202.2 L880.476,202.2 C882.133,202.2 883.476,200.857 883.476,199.2 L889.476,199.2 C889.476,200.857 890.82,202.2 892.476,202.2 L910.476,202.2 C912.133,202.2 913.476,200.857 913.476,199.2 L919.476,199.2 C919.476,200.857 920.82,202.2 922.476,202.2 L940.476,202.2 C942.133,202.2 943.476,200.857 943.476,199.2 L949.476,199.2 C949.476,200.857 950.82,202.2 952.476,202.2 L970.476,202.2 C972.133,202.2 973.476,200.857 973.476,199.2 L979.476,199.2 C979.476,200.857 980.82,202.2 982.476,202.2 L1000.476,202.2 C1002.133,202.2 1003.476,200.857 1003.476,199.2 L1009.476,199.2 C1009.476,200.857 1010.82,202.2 1012.476,202.2 L1030.476,202.2 C1032.133,202.2 1033.476,200.857 1033.476,199.2 L1039.476,199.2 C1039.476,200.857 1040.819,202.2 1042.476,202.2 L1060.476,202.2 C1062.133,202.2 1063.476,200.857 1063.476,199.2 L1069.476,199.2 C1069.476,200.857 1070.819,202.2 1072.476,202.2 L1090.476,202.2 C1092.133,202.2 1093.476,200.857 1093.476,199.2 L1099.476,199.2 C1099.476,200.857 1100.819,202.2 1102.476,202.2 L1120.476,202.2 C1122.133,202.2 1123.476,200.857 1123.476,199.2 L1129.476,199.2 C1129.476,200.857 1130.819,202.2 1132.476,202.2 L1150.476,202.2 C1152.133,202.2 1153.476,200.857 1153.476,199.2 L1159.476,199.2 C1159.476,200.857 1160.819,202.2 1162.476,202.2 L1180.476,202.2 C1182.133,202.2 1183.476,200.857 1183.476,199.2 L1189.476,199.2 C1189.476,200.857 1190.819,202.2 1192.476,202.2 L1210.476,202.2 C1212.133,202.2 1213.476,200.857 1213.476,199.2 L1219.476,199.2 C1219.476,200.857 1220.819,202.2 1222.476,202.2 L1240.476,202.2 C1242.133,202.2 1243.476,200.857 1243.476,199.2 L1249.476,199.2 C1249.476,200.857 1250.819,202.2 1252.476,202.2 L1270.476,202.2 C1272.133,202.2 1273.476,200.857 1273.476,199.2 z"/>
    </clipPath>
    <filter id="Shadow_2">
      <feGaussianBlur in="SourceAlpha" stdDeviation="4"/>
      <feOffset dx="0" dy="0" result="offsetblur"/>
      <feFlood flood-color="#000000"/>
      <feComposite in2="offsetblur" operator="in"/>
    </filter>
    <clipPath id="Clip_3">
      <path d="M904.575,266.743 L1015.425,266.743 L1015.425,460.624 L904.575,460.624 z M960.582,274.802 C960.564,274.795 960.576,274.798 960.545,274.798 L960,274.743 L959.455,274.798 C959.424,274.798 959.436,274.795 959.418,274.802 C959.207,274.823 959.402,274.801 958.872,275.025 C958.342,275.24 958.495,275.119 958.332,275.252 C958.314,275.259 958.325,275.253 958.303,275.275 L957.879,275.622 L911.454,322.047 C910.282,323.219 910.282,325.118 911.454,326.29 C912.625,327.461 914.525,327.461 915.696,326.29 L957,284.986 L957,402.266 C957,403.923 958.343,405.266 960,405.266 C961.657,405.266 963,403.923 963,402.266 L963,284.986 L1004.304,326.29 C1005.475,327.461 1007.375,327.461 1008.546,326.29 C1009.718,325.118 1009.718,323.219 1008.546,322.047 L962.121,275.622 L961.698,275.276 C961.675,275.253 961.686,275.259 961.668,275.252 C961.505,275.118 961.658,275.24 961.128,275.025 C960.598,274.801 960.793,274.824 960.582,274.802 z M960,428.554 C958.343,428.554 957,429.897 957,431.554 L957,449.624 C957,451.281 958.343,452.624 960,452.624 C961.657,452.624 963,451.281 963,449.624 L963,431.554 C963,429.897 961.657,428.554 960,428.554 z"/>
    </clipPath>
    <filter id="Shadow_4">
      <feGaussianBlur in="SourceAlpha" stdDeviation="2.5"/>
      <feOffset dx="0" dy="2" result="offsetblur"/>
      <feFlood flood-color="#000000"/>
      <feComposite in2="offsetblur" operator="in"/>
    </filter>
  </defs>
  <g id="Layer_1">
    <path d="M1329.149,1280 L590.851,1280 C586.808,1280 583.529,1270.547 583.529,1258.884 L583.529,0 L1336.471,0 L1336.471,1258.884 C1336.471,1270.547 1333.194,1280 1329.149,1280" fill="#EAEAEA"/>
    <g>
      <path d="M1273.476,199.2 C1273.476,200.857 1272.133,202.2 1270.476,202.2 L1252.476,202.2 C1250.819,202.2 1249.476,200.857 1249.476,199.2 L1243.476,199.2 C1243.476,200.857 1242.133,202.2 1240.476,202.2 L1222.476,202.2 C1220.819,202.2 1219.476,200.857 1219.476,199.2 L1213.476,199.2 C1213.476,200.857 1212.133,202.2 1210.476,202.2 L1192.476,202.2 C1190.819,202.2 1189.476,200.857 1189.476,199.2 L1183.476,199.2 C1183.476,200.857 1182.133,202.2 1180.476,202.2 L1162.476,202.2 C1160.819,202.2 1159.476,200.857 1159.476,199.2 L1153.476,199.2 C1153.476,200.857 1152.133,202.2 1150.476,202.2 L1132.476,202.2 C1130.819,202.2 1129.476,200.857 1129.476,199.2 L1123.476,199.2 C1123.476,200.857 1122.133,202.2 1120.476,202.2 L1102.476,202.2 C1100.819,202.2 1099.476,200.857 1099.476,199.2 L1093.476,199.2 C1093.476,200.857 1092.133,202.2 1090.476,202.2 L1072.476,202.2 C1070.819,202.2 1069.476,200.857 1069.476,199.2 L1063.476,199.2 C1063.476,200.857 1062.133,202.2 1060.476,202.2 L1042.476,202.2 C1040.819,202.2 1039.476,200.857 1039.476,199.2 L1033.476,199.2 C1033.476,200.857 1032.133,202.2 1030.476,202.2 L1012.476,202.2 C1010.82,202.2 1009.476,200.857 1009.476,199.2 L1003.476,199.2 C1003.476,200.857 1002.133,202.2 1000.476,202.2 L982.476,202.2 C980.82,202.2 979.476,200.857 979.476,199.2 L973.476,199.2 C973.476,200.857 972.133,202.2 970.476,202.2 L952.476,202.2 C950.82,202.2 949.476,200.857 949.476,199.2 L943.476,199.2 C943.476,200.857 942.133,202.2 940.476,202.2 L922.476,202.2 C920.82,202.2 919.476,200.857 919.476,199.2 L913.476,199.2 C913.476,200.857 912.133,202.2 910.476,202.2 L892.476,202.2 C890.82,202.2 889.476,200.857 889.476,199.2 L883.476,199.2 C883.476,200.857 882.133,202.2 880.476,202.2 L862.476,202.2 C860.82,202.2 859.476,200.857 859.476,199.2 L853.476,199.2 C853.476,200.857 852.133,202.2 850.476,202.2 L832.476,202.2 C830.82,202.2 829.476,200.857 829.476,199.2 L823.476,199.2 C823.476,200.857 822.133,202.2 820.476,202.2 L802.476,202.2 C800.82,202.2 799.476,200.857 799.476,199.2 L793.476,199.2 C793.476,200.857 792.133,202.2 790.476,202.2 L772.476,202.2 C770.82,202.2 769.476,200.857 769.476,199.2 L763.476,199.2 C763.476,200.857 762.133,202.2 760.476,202.2 L742.476,202.2 C740.82,202.2 739.476,200.857 739.476,199.2 L733.476,199.2 C733.476,200.857 732.133,202.2 730.476,202.2 L712.476,202.2 C710.82,202.2 709.476,200.857 709.476,199.2 L703.476,199.2 C703.476,200.857 702.133,202.2 700.476,202.2 L682.476,202.2 C680.82,202.2 679.476,200.857 679.476,199.2 L673.476,199.2 C673.476,200.857 672.133,202.2 670.476,202.2 L652.476,202.2 C650.82,202.2 649.476,200.857 649.476,199.2 L643.476,199.2 C643.476,200.857 642.133,202.2 640.476,202.2 L622.476,202.2 C620.82,202.2 619.476,200.857 619.476,199.2 L613.476,199.2 C613.476,200.857 612.133,202.2 610.476,202.2 L599.121,202.2 C596.008,202.2 593.138,200.716 591.034,198.192 C589.973,196.92 590.145,195.028 591.417,193.967 C591.707,193.768 591.585,193.85 591.784,193.719 C590.93,192.048 590.717,190.15 590.645,188.306 L590.645,187.838 C588.988,187.838 587.645,186.495 587.645,184.838 L587.645,166.838 C587.645,165.181 588.988,163.838 590.645,163.838 L590.645,157.838 C588.988,157.838 587.645,156.495 587.645,154.838 L587.645,136.838 C587.645,135.181 588.988,133.838 590.645,133.838 L590.645,127.838 C588.988,127.838 587.645,126.495 587.645,124.838 L587.645,106.838 C587.645,105.181 588.988,103.838 590.645,103.838 L590.645,97.838 C588.988,97.838 587.645,96.495 587.645,94.838 L587.645,76.838 C587.645,75.181 588.988,73.838 590.645,73.838 L590.645,67.838 C588.988,67.838 587.645,66.495 587.645,64.838 L587.645,46.838 C587.645,45.181 588.988,43.838 590.645,43.838 L590.645,37.838 C588.988,37.838 587.645,36.495 587.645,34.838 L587.645,23.365 C587.645,20.556 588.33,17.857 589.602,15.573 C590.183,14.541 590.906,14.345 591.968,14.042 C593.326,14.192 592.768,14.016 593.682,14.411 L594.058,14.673 C595.407,13.502 594.684,14.001 596.221,13.167 C596.103,12.889 596.185,13.108 596.121,12.47 C596.121,10.814 597.464,9.471 599.121,9.471 L617.121,9.47 C618.778,9.471 620.121,10.814 620.121,12.471 L620.121,12.471 L626.121,12.471 L626.121,12.47 C626.121,10.814 627.464,9.471 629.121,9.471 L647.121,9.47 C648.778,9.471 650.121,10.814 650.121,12.471 L650.121,12.471 L656.121,12.471 L656.121,12.47 C656.121,10.814 657.464,9.471 659.121,9.471 L677.121,9.47 C678.778,9.471 680.121,10.814 680.121,12.471 L680.121,12.471 L686.121,12.471 L686.121,12.47 C686.121,10.814 687.464,9.471 689.121,9.471 L707.121,9.47 C708.778,9.471 710.121,10.814 710.121,12.471 L710.121,12.471 L716.121,12.471 L716.121,12.47 C716.121,10.814 717.464,9.471 719.121,9.471 L737.121,9.47 C738.778,9.471 740.121,10.814 740.121,12.471 L740.121,12.471 L746.121,12.471 L746.121,12.47 C746.121,10.814 747.464,9.471 749.121,9.471 L767.121,9.47 C768.778,9.471 770.121,10.814 770.121,12.471 L770.121,12.471 L776.121,12.471 L776.121,12.47 C776.121,10.814 777.464,9.471 779.121,9.471 L797.121,9.47 C798.778,9.471 800.121,10.814 800.121,12.471 L800.121,12.471 L806.121,12.471 L806.121,12.47 C806.121,10.814 807.464,9.471 809.121,9.471 L827.121,9.47 C828.778,9.471 830.121,10.814 830.121,12.471 L830.121,12.471 L836.121,12.471 L836.121,12.47 C836.121,10.814 837.464,9.471 839.121,9.471 L857.121,9.47 C858.778,9.471 860.121,10.814 860.121,12.471 L860.121,12.471 L866.121,12.471 L866.121,12.47 C866.121,10.814 867.464,9.471 869.121,9.471 L887.121,9.47 C888.778,9.471 890.121,10.814 890.121,12.471 L890.121,12.471 L896.121,12.471 L896.121,12.47 C896.121,10.814 897.464,9.471 899.121,9.471 L917.121,9.47 C918.778,9.471 920.121,10.814 920.121,12.471 L920.121,12.471 L926.121,12.471 L926.121,12.47 C926.121,10.814 927.464,9.471 929.121,9.471 L947.121,9.47 C948.778,9.471 950.121,10.814 950.121,12.471 L950.121,12.471 L956.121,12.471 L956.121,12.47 C956.121,10.814 957.464,9.471 959.121,9.471 L977.121,9.47 C978.778,9.471 980.121,10.814 980.121,12.471 L986.121,12.47 C986.121,10.814 987.464,9.471 989.121,9.471 L1007.121,9.47 C1008.778,9.471 1010.121,10.814 1010.121,12.471 L1016.121,12.47 C1016.121,10.814 1017.464,9.471 1019.121,9.471 L1037.121,9.47 C1038.778,9.471 1040.121,10.814 1040.121,12.471 L1046.121,12.47 C1046.121,10.814 1047.464,9.471 1049.121,9.471 L1067.121,9.47 C1068.778,9.471 1070.121,10.814 1070.121,12.471 L1076.121,12.47 C1076.121,10.814 1077.464,9.471 1079.121,9.471 L1097.121,9.47 C1098.778,9.471 1100.121,10.814 1100.121,12.471 L1106.121,12.47 C1106.121,10.814 1107.464,9.471 1109.121,9.471 L1127.121,9.47 C1128.778,9.471 1130.121,10.814 1130.121,12.471 L1136.121,12.47 C1136.121,10.814 1137.464,9.471 1139.121,9.471 L1157.121,9.47 C1158.778,9.471 1160.121,10.814 1160.121,12.471 L1166.121,12.47 C1166.121,10.814 1167.464,9.471 1169.121,9.471 L1187.121,9.47 C1188.778,9.471 1190.121,10.814 1190.121,12.471 L1196.121,12.47 C1196.121,10.814 1197.464,9.471 1199.121,9.471 L1217.121,9.47 C1218.778,9.471 1220.121,10.814 1220.121,12.471 L1226.121,12.47 C1226.121,10.814 1227.464,9.471 1229.121,9.471 L1247.121,9.47 C1248.778,9.471 1250.121,10.814 1250.121,12.471 L1256.121,12.47 C1256.121,10.814 1257.464,9.471 1259.121,9.471 L1277.121,9.47 C1278.778,9.471 1280.121,10.814 1280.121,12.471 L1286.121,12.47 C1286.121,10.814 1287.464,9.471 1289.121,9.471 L1307.121,9.47 C1308.778,9.471 1310.121,10.814 1310.121,12.471 L1316.115,12.47 L1316.228,11.892 C1316.85,10.238 1317.751,9.942 1319.371,9.771 L1319.968,9.888 C1325.123,11.447 1328.612,17.02 1328.628,23.329 L1328.628,28.158 C1328.628,29.815 1327.285,31.158 1325.628,31.158 L1325.628,37.158 C1327.285,37.158 1328.628,38.501 1328.628,40.158 L1328.628,58.158 C1328.628,59.815 1327.285,61.158 1325.628,61.158 L1325.628,67.158 C1327.285,67.158 1328.628,68.501 1328.628,70.158 L1328.628,88.158 C1328.628,89.815 1327.285,91.158 1325.628,91.158 L1325.628,97.158 C1327.285,97.158 1328.628,98.501 1328.628,100.158 L1328.628,118.158 C1328.628,119.815 1327.285,121.158 1325.628,121.158 L1325.628,127.158 C1327.285,127.158 1328.628,128.501 1328.628,130.158 L1328.628,148.158 C1328.628,149.815 1327.285,151.158 1325.628,151.158 L1325.628,157.158 C1327.285,157.158 1328.628,158.501 1328.628,160.158 L1328.628,178.158 C1328.628,179.815 1327.285,181.158 1325.628,181.158 L1325.628,187.171 L1325.902,187.179 C1327.544,187.398 1328.699,188.906 1328.48,190.548 C1327.61,197.099 1322.984,202.178 1317.177,202.2 L1312.476,202.2 C1310.82,202.2 1309.476,200.857 1309.476,199.2 L1309.476,199.2 L1303.476,199.2 C1303.476,200.857 1302.133,202.2 1300.476,202.2 L1282.476,202.2 C1280.819,202.2 1279.476,200.857 1279.476,199.2 L1273.476,199.2 z" clip-path="url(#Clip_1)" filter="url(#Shadow_2)" fill="rgba(0,0,0,0.75)"/>
      <path d="M599.121,12.471 L1317.151,12.471 C1321.833,12.471 1325.628,17.348 1325.628,23.365 L1325.628,188.306 C1325.628,194.323 1321.833,199.2 1317.151,199.2 L599.121,199.2 C594.44,199.2 590.645,194.323 590.645,188.306 L590.645,23.365 C590.645,17.348 594.44,12.471 599.121,12.471 z" fill="#FFFFFF"/>
      <path d="M599.121,12.471 L1317.151,12.471 C1321.833,12.471 1325.628,17.348 1325.628,23.365 L1325.628,188.306 C1325.628,194.323 1321.833,199.2 1317.151,199.2 L599.121,199.2 C594.44,199.2 590.645,194.323 590.645,188.306 L590.645,23.365 C590.645,17.348 594.44,12.471 599.121,12.471 z" fill-opacity="0" stroke="#4C35F1" stroke-width="6" stroke-dasharray="18,12" stroke-linecap="round" stroke-linejoin="round"/>
    </g>
    <g>
      <path d="M960,428.554 C961.657,428.554 963,429.897 963,431.554 L963,449.624 C963,451.281 961.657,452.624 960,452.624 C958.343,452.624 957,451.281 957,449.624 L957,431.554 C957,429.897 958.343,428.554 960,428.554 z M960.582,274.802 C960.793,274.824 960.598,274.801 961.128,275.025 C961.658,275.24 961.505,275.118 961.668,275.252 C961.686,275.259 961.675,275.253 961.698,275.276 L962.121,275.622 L1008.546,322.047 C1009.718,323.219 1009.718,325.118 1008.546,326.29 C1007.375,327.461 1005.475,327.461 1004.304,326.29 L963,284.986 L963,402.266 C963,403.923 961.657,405.266 960,405.266 C958.343,405.266 957,403.923 957,402.266 L957,284.986 L915.696,326.29 C914.525,327.461 912.625,327.461 911.454,326.29 C910.282,325.118 910.282,323.219 911.454,322.047 L957.879,275.622 L958.303,275.275 C958.325,275.253 958.314,275.259 958.332,275.252 C958.495,275.119 958.342,275.24 958.872,275.025 C959.402,274.801 959.207,274.823 959.418,274.802 C959.436,274.795 959.424,274.798 959.455,274.798 L960,274.743 L960.545,274.798 C960.576,274.798 960.564,274.795 960.582,274.802 z" clip-path="url(#Clip_3)" filter="url(#Shadow_4)" fill="rgba(0,0,0,0.75)"/>
      <path d="M960,277.743 L960,402.266 M960,449.624 L960,431.554 M1006.425,324.168 L960,277.743 M913.575,324.168 L960,277.743" fill-opacity="0" stroke="#4C35F1" stroke-width="6" stroke-linecap="round"/>
    </g>
    <g>
      <g id="shapes-and-symbols">
        <path d="M1004.518,519.51 L911.755,519.51 C901.087,519.522 892.442,528.167 892.43,538.835 L892.43,739.821 C892.442,750.489 901.087,759.134 911.755,759.146 L1004.518,759.146 C1015.186,759.134 1023.831,750.489 1023.843,739.821 L1023.843,538.835 C1023.831,528.167 1015.186,519.522 1004.518,519.51 z M984.343,527.24 L982.024,538.835 L934.25,538.835 L931.931,527.24 z M1016.113,739.821 C1016.106,746.222 1010.919,751.409 1004.518,751.416 L911.755,751.416 C905.354,751.409 900.167,746.222 900.16,739.821 L900.16,538.835 C900.167,532.434 905.354,527.247 911.755,527.24 L924.047,527.24 L927.291,543.458 C927.652,545.265 929.238,546.565 931.081,546.565 L985.192,546.565 C987.035,546.565 988.621,545.265 988.982,543.458 L992.226,527.24 L1004.518,527.24 C1010.919,527.247 1016.106,532.434 1016.113,538.835 z" fill="#FFFFFF"/>
        <path d="M934.946,735.956 L911.755,735.956 C909.621,735.956 907.89,737.686 907.89,739.821 C907.89,741.955 909.621,743.686 911.755,743.686 L934.946,743.686 C937.081,743.686 938.811,741.955 938.811,739.821 C938.811,737.686 937.081,735.956 934.946,735.956 z" fill="#FFFFFF"/>
        <path d="M950.406,735.956 L946.541,735.956 C944.407,735.956 942.676,737.686 942.676,739.821 C942.676,741.955 944.407,743.686 946.541,743.686 L950.406,743.686 C952.541,743.686 954.271,741.955 954.271,739.821 C954.271,737.686 952.541,735.956 950.406,735.956 z" fill="#FFFFFF"/>
      </g>
    </g>
    <g>
      <g>
        <path d="M930.275,647.474 L930.275,646.236 Q930.275,644.568 931.427,643.482 L942.349,633.3 Q943.021,632.719 943.53,633.06 Q944.039,633.401 944.039,634.336 L944.039,638.681 Q944.039,640.551 942.349,642.092 L937.243,646.842 L942.349,651.617 Q944.039,653.158 944.039,655.028 L944.039,659.374 Q944.039,660.309 943.53,660.637 Q943.021,660.965 942.349,660.41 L931.427,650.202 Q930.275,649.141 930.275,647.474 z" fill="#FFFFFF"/>
        <path d="M951.78,630.729 L951.78,618.476 Q951.78,618.224 952.093,618.06 Q952.407,617.896 952.873,617.896 L956.887,617.896 Q957.353,617.896 957.666,618.06 Q957.98,618.224 957.98,618.476 L957.98,630.729 Q957.98,630.972 957.666,631.136 Q957.353,631.299 956.887,631.299 L952.873,631.299 Q952.407,631.299 952.093,631.136 Q951.78,630.972 951.78,630.729 z" fill="#FFFFFF"/>
        <path d="M957.98,633.886 L957.98,659.791 Q957.98,660.212 957.644,660.486 Q957.308,660.759 956.789,660.759 L946.999,660.759 Q946.5,660.759 946.164,660.486 Q945.828,660.212 945.828,659.791 L945.828,655.426 Q945.828,655.005 946.164,654.731 Q946.5,654.458 946.999,654.458 L951.722,654.458 L951.722,639.391 L946.999,639.391 Q946.5,639.391 946.164,639.118 Q945.828,638.844 945.828,638.438 L945.828,633.886 Q945.828,633.48 946.164,633.207 Q946.5,632.934 946.999,632.934 L956.789,632.934 Q957.308,632.934 957.644,633.207 Q957.98,633.48 957.98,633.886 z" fill="#FFFFFF"/>
      </g>
      <g>
        <path d="M975.961,647.43 L975.961,646.192 Q975.961,644.525 977.113,643.438 L988.036,633.257 Q988.707,632.675 989.216,633.016 Q989.725,633.358 989.725,634.292 L989.725,638.638 Q989.725,640.508 988.036,642.049 L982.929,646.799 L988.036,651.574 Q989.725,653.115 989.725,654.985 L989.725,659.331 Q989.725,660.265 989.216,660.594 Q988.707,660.922 988.036,660.366 L977.113,650.159 Q975.961,649.098 975.961,647.43 z" fill="#FFFFFF"/>
        <path d="M975.256,646.219 L975.256,647.457 Q975.256,649.125 974.104,650.211 L963.181,660.393 Q962.509,660.974 962.001,660.633 Q961.492,660.292 961.492,659.357 L961.492,655.011 Q961.492,653.142 963.181,651.601 L968.288,646.851 L963.181,642.076 Q961.492,640.534 961.492,638.665 L961.492,634.319 Q961.492,633.384 962.001,633.056 Q962.509,632.727 963.181,633.283 L974.104,643.49 Q975.256,644.552 975.256,646.219 z" fill="#FFFFFF"/>
      </g>
    </g>
    <path d="M642.858,65.455 L826.312,65.455 C832.965,65.455 838.359,70.848 838.359,77.502 L838.359,134.169 C838.359,140.822 832.965,146.216 826.312,146.216 L642.858,146.216 C636.204,146.216 630.811,140.822 630.811,134.169 L630.811,77.502 C630.811,70.848 636.204,65.455 642.858,65.455 z" fill="#959595"/>
    <path d="M671.055,91.847 Q671.408,92.2 671.408,92.659 Q671.408,93.118 671.055,93.471 L657.184,107.341 L671.055,121.212 Q671.408,121.565 671.408,122.024 Q671.408,122.482 671.055,122.835 L669.29,124.6 Q668.937,124.953 668.478,124.953 Q668.019,124.953 667.666,124.6 L651.219,108.153 Q650.866,107.8 650.866,107.341 Q650.866,106.882 651.219,106.529 L667.666,90.082 Q668.019,89.729 668.478,89.729 Q668.937,89.729 669.29,90.082 z" fill="#FFFFFF"/>
    <path d="M1256.167,105.287 Q1258.814,102.64 1258.814,98.899 Q1258.814,95.157 1256.167,92.51 Q1253.52,89.863 1249.779,89.863 Q1246.038,89.863 1243.391,92.51 Q1240.743,95.157 1240.743,98.899 Q1240.743,102.64 1243.391,105.287 Q1246.038,107.934 1249.779,107.934 Q1253.52,107.934 1256.167,105.287 z M1285.92,116.969 Q1285.92,115.134 1284.579,113.793 Q1283.238,112.451 1281.402,112.451 Q1279.567,112.451 1278.226,113.793 Q1276.885,115.134 1276.885,116.969 Q1276.885,118.84 1278.208,120.163 Q1279.532,121.487 1281.402,121.487 Q1283.273,121.487 1284.596,120.163 Q1285.92,118.84 1285.92,116.969 z M1285.92,80.828 Q1285.92,78.993 1284.579,77.651 Q1283.238,76.31 1281.402,76.31 Q1279.567,76.31 1278.226,77.651 Q1276.885,78.993 1276.885,80.828 Q1276.885,82.699 1278.208,84.022 Q1279.532,85.346 1281.402,85.346 Q1283.273,85.346 1284.596,84.022 Q1285.92,82.699 1285.92,80.828 z M1272.367,95.687 L1272.367,102.216 Q1272.367,102.569 1272.12,102.904 Q1271.873,103.24 1271.555,103.275 L1266.085,104.122 Q1265.696,105.357 1264.955,106.804 Q1266.155,108.499 1268.132,110.863 Q1268.379,111.251 1268.379,111.569 Q1268.379,111.993 1268.132,112.24 Q1267.32,113.299 1265.22,115.399 Q1263.12,117.499 1262.449,117.499 Q1262.061,117.499 1261.708,117.251 L1257.649,114.075 Q1256.344,114.746 1254.932,115.169 Q1254.543,118.981 1254.12,120.64 Q1253.873,121.487 1253.061,121.487 L1246.496,121.487 Q1246.108,121.487 1245.791,121.222 Q1245.473,120.957 1245.438,120.604 L1244.626,115.204 Q1243.426,114.851 1241.979,114.11 L1237.814,117.251 Q1237.567,117.499 1237.108,117.499 Q1236.72,117.499 1236.367,117.216 Q1231.285,112.522 1231.285,111.569 Q1231.285,111.251 1231.532,110.899 Q1231.885,110.404 1232.979,109.028 Q1234.073,107.651 1234.638,106.875 Q1233.826,105.322 1233.402,103.981 L1228.038,103.134 Q1227.685,103.099 1227.438,102.799 Q1227.191,102.499 1227.191,102.11 L1227.191,95.581 Q1227.191,95.228 1227.438,94.893 Q1227.685,94.557 1228.002,94.522 L1233.473,93.675 Q1233.861,92.44 1234.602,90.993 Q1233.402,89.299 1231.426,86.934 Q1231.179,86.546 1231.179,86.228 Q1231.179,85.804 1231.426,85.522 Q1232.202,84.463 1234.32,82.381 Q1236.438,80.299 1237.108,80.299 Q1237.496,80.299 1237.849,80.546 L1241.908,83.722 Q1243.108,83.087 1244.626,82.593 Q1245.014,78.781 1245.438,77.157 Q1245.685,76.31 1246.496,76.31 L1253.061,76.31 Q1253.449,76.31 1253.767,76.575 Q1254.085,76.84 1254.12,77.193 L1254.932,82.593 Q1256.132,82.946 1257.579,83.687 L1261.743,80.546 Q1262.026,80.299 1262.449,80.299 Q1262.838,80.299 1263.191,80.581 Q1268.273,85.275 1268.273,86.228 Q1268.273,86.51 1268.026,86.899 Q1267.602,87.463 1266.543,88.804 Q1265.485,90.146 1264.955,90.922 Q1265.767,92.616 1266.155,93.816 L1271.52,94.628 Q1271.873,94.699 1272.12,94.999 Q1272.367,95.299 1272.367,95.687 z M1294.955,114.499 L1294.955,119.44 Q1294.955,120.004 1289.696,120.534 Q1289.273,121.487 1288.638,122.369 Q1290.438,126.357 1290.438,127.24 Q1290.438,127.381 1290.296,127.487 Q1285.99,129.993 1285.92,129.993 Q1285.638,129.993 1284.296,128.334 Q1282.955,126.675 1282.461,125.934 Q1281.755,126.004 1281.402,126.004 Q1281.049,126.004 1280.344,125.934 Q1279.849,126.675 1278.508,128.334 Q1277.167,129.993 1276.885,129.993 Q1276.814,129.993 1272.508,127.487 Q1272.367,127.381 1272.367,127.24 Q1272.367,126.357 1274.167,122.369 Q1273.532,121.487 1273.108,120.534 Q1267.849,120.004 1267.849,119.44 L1267.849,114.499 Q1267.849,113.934 1273.108,113.404 Q1273.567,112.381 1274.167,111.569 Q1272.367,107.581 1272.367,106.699 Q1272.367,106.557 1272.508,106.451 Q1272.649,106.381 1273.743,105.746 Q1274.838,105.11 1275.826,104.546 Q1276.814,103.981 1276.885,103.981 Q1277.167,103.981 1278.508,105.622 Q1279.849,107.263 1280.344,108.004 Q1281.049,107.934 1281.402,107.934 Q1281.755,107.934 1282.461,108.004 Q1284.261,105.499 1285.708,104.051 L1285.92,103.981 Q1286.061,103.981 1290.296,106.451 Q1290.438,106.557 1290.438,106.699 Q1290.438,107.581 1288.638,111.569 Q1289.238,112.381 1289.696,113.404 Q1294.955,113.934 1294.955,114.499 z M1294.955,78.357 L1294.955,83.299 Q1294.955,83.863 1289.696,84.393 Q1289.273,85.346 1288.638,86.228 Q1290.438,90.216 1290.438,91.099 Q1290.438,91.24 1290.296,91.346 Q1285.99,93.851 1285.92,93.851 Q1285.638,93.851 1284.296,92.193 Q1282.955,90.534 1282.461,89.793 Q1281.755,89.863 1281.402,89.863 Q1281.049,89.863 1280.344,89.793 Q1279.849,90.534 1278.508,92.193 Q1277.167,93.851 1276.885,93.851 Q1276.814,93.851 1272.508,91.346 Q1272.367,91.24 1272.367,91.099 Q1272.367,90.216 1274.167,86.228 Q1273.532,85.346 1273.108,84.393 Q1267.849,83.863 1267.849,83.299 L1267.849,78.357 Q1267.849,77.793 1273.108,77.263 Q1273.567,76.24 1274.167,75.428 Q1272.367,71.44 1272.367,70.557 Q1272.367,70.416 1272.508,70.31 Q1272.649,70.24 1273.743,69.604 Q1274.838,68.969 1275.826,68.404 Q1276.814,67.84 1276.885,67.84 Q1277.167,67.84 1278.508,69.481 Q1279.849,71.122 1280.344,71.863 Q1281.049,71.793 1281.402,71.793 Q1281.755,71.793 1282.461,71.863 Q1284.261,69.357 1285.708,67.91 L1285.92,67.84 Q1286.061,67.84 1290.296,70.31 Q1290.438,70.416 1290.438,70.557 Q1290.438,71.44 1288.638,75.428 Q1289.238,76.24 1289.696,77.263 Q1294.955,77.793 1294.955,78.357 z" fill="#959595"/>
    <path d="M705.493,97.151 L794.07,97.151 C798.866,97.151 802.754,101.039 802.754,105.835 L802.754,105.835 C802.754,110.631 798.866,114.519 794.07,114.519 L705.493,114.519 C700.697,114.519 696.809,110.631 696.809,105.835 L696.809,105.835 C696.809,101.039 700.697,97.151 705.493,97.151 z" fill="#FFFFFF"/>
  </g>
</svg>
