<?xml version="1.0" encoding="UTF-8"?>
<!DOCTYPE svg PUBLIC "-//W3C//DTD SVG 1.1//EN" "http://www.w3.org/Graphics/SVG/1.1/DTD/svg11.dtd">
<svg version="1.1" xmlns="http://www.w3.org/2000/svg" xmlns:xlink="http://www.w3.org/1999/xlink" x="0" y="0" width="1920" height="1280" viewBox="0, 0, 1920, 1280">
  <defs>
    <clipPath id="Clip_1">
      <path d="M523.747,599.737 L655.886,599.737 L655.886,683.34 L523.747,683.34 z M646.886,638.511 L634.886,638.511 C633.23,638.511 631.887,639.854 631.886,641.511 C631.887,643.168 633.23,644.511 634.886,644.511 L646.886,644.511 C648.543,644.511 649.887,643.168 649.886,641.511 C649.887,639.854 648.543,638.511 646.886,638.511 z M564.149,607.737 C562.988,607.737 562.356,607.699 561.455,608.561 L530.625,639.39 L530.279,639.814 C530.257,639.836 530.263,639.825 530.255,639.843 C530.122,640.007 530.244,639.853 530.028,640.384 C529.805,640.913 529.827,640.719 529.805,640.929 C529.798,640.947 529.802,640.935 529.802,640.966 L529.747,641.511 L529.802,642.056 C529.802,642.087 529.798,642.076 529.805,642.093 C529.827,642.304 529.805,642.109 530.028,642.638 C530.244,643.169 530.122,643.016 530.255,643.179 C530.263,643.197 530.257,643.186 530.279,643.208 L530.625,643.632 L561.455,674.461 C562.626,675.633 564.526,675.633 565.697,674.461 C566.869,673.29 566.869,671.391 565.697,670.219 L539.99,644.511 L615.438,644.511 C617.095,644.511 618.438,643.168 618.438,641.511 C618.438,639.854 617.095,638.511 615.438,638.511 L539.99,638.511 L565.697,612.803 C566.869,611.632 566.869,609.732 565.697,608.561 C564.926,607.931 565.414,608.253 564.149,607.737 z"/>
    </clipPath>
    <filter id="Shadow_2">
      <feGaussianBlur in="SourceAlpha" stdDeviation="2.5"/>
      <feOffset dx="0" dy="2" result="offsetblur"/>
      <feFlood flood-color="#000000"/>
      <feComposite in2="offsetblur" operator="in"/>
    </filter>
    <clipPath id="Clip_3">
      <path d="M1264.113,599.737 L1396.253,599.737 L1396.253,683.34 L1264.113,683.34 z M1285.113,638.511 L1273.113,638.511 C1271.457,638.511 1270.114,639.854 1270.113,641.511 C1270.114,643.168 1271.457,644.511 1273.113,644.511 L1285.113,644.511 C1286.77,644.511 1288.114,643.168 1288.113,641.511 C1288.114,639.854 1286.77,638.511 1285.113,638.511 z M1356.997,607.737 C1355.836,607.737 1355.204,607.699 1354.303,608.561 C1353.131,609.732 1353.131,611.632 1354.303,612.803 L1380.01,638.511 L1304.562,638.511 C1302.905,638.511 1301.562,639.854 1301.562,641.511 C1301.562,643.168 1302.905,644.511 1304.562,644.511 L1380.01,644.511 L1354.303,670.219 C1353.131,671.391 1353.131,673.29 1354.303,674.461 C1355.474,675.633 1357.374,675.633 1358.545,674.461 L1389.374,643.632 L1389.721,643.208 C1389.743,643.186 1389.737,643.197 1389.745,643.179 C1389.878,643.016 1389.756,643.169 1389.972,642.638 C1390.195,642.109 1390.173,642.304 1390.194,642.093 C1390.202,642.076 1390.198,642.087 1390.198,642.056 L1390.253,641.511 L1390.198,640.966 C1390.198,640.935 1390.202,640.947 1390.194,640.929 C1390.173,640.719 1390.195,640.913 1389.972,640.384 C1389.756,639.853 1389.878,640.007 1389.745,639.843 C1389.737,639.825 1389.743,639.836 1389.721,639.814 L1389.374,639.39 L1358.545,608.561 C1357.774,607.931 1358.262,608.253 1356.997,607.737 z"/>
    </clipPath>
    <filter id="Shadow_4">
      <feGaussianBlur in="SourceAlpha" stdDeviation="2.5"/>
      <feOffset dx="0" dy="2" result="offsetblur"/>
      <feFlood flood-color="#000000"/>
      <feComposite in2="offsetblur" operator="in"/>
    </filter>
    <clipPath id="Clip_5">
      <path d="M920.921,906.984 L1000.579,906.984 L1000.579,1043.123 L920.921,1043.123 z M960.75,914.984 C959.093,914.984 957.75,916.327 957.75,917.984 L957.75,929.984 C957.75,931.64 959.093,932.984 960.75,932.984 C962.407,932.984 963.75,931.64 963.75,929.984 L963.75,917.984 C963.75,916.327 962.407,914.984 960.75,914.984 z M960.75,946.432 C959.093,946.432 957.75,947.775 957.75,949.432 L957.75,1024.88 L932.042,999.173 C930.871,998.001 928.971,998.001 927.8,999.173 C926.628,1000.344 926.628,1002.244 927.8,1003.415 L958.629,1034.244 L959.053,1034.591 C959.075,1034.613 959.064,1034.607 959.082,1034.615 C959.245,1034.748 959.092,1034.626 959.623,1034.843 C960.152,1035.065 959.958,1035.043 960.168,1035.064 C960.186,1035.072 960.174,1035.068 960.205,1035.068 L960.75,1035.123 L961.295,1035.068 C961.326,1035.068 961.314,1035.072 961.332,1035.064 C961.542,1035.043 961.348,1035.065 961.877,1034.843 C962.408,1034.626 962.255,1034.748 962.418,1034.615 C962.436,1034.607 962.425,1034.613 962.447,1034.591 L962.871,1034.244 L993.7,1003.415 C994.872,1002.244 994.872,1000.344 993.7,999.173 C992.529,998.001 990.629,998.001 989.458,999.173 L963.75,1024.88 L963.75,949.432 C963.75,947.775 962.407,946.432 960.75,946.432 z"/>
    </clipPath>
    <filter id="Shadow_6">
      <feGaussianBlur in="SourceAlpha" stdDeviation="2.5"/>
      <feOffset dx="0" dy="2" result="offsetblur"/>
      <feFlood flood-color="#000000"/>
      <feComposite in2="offsetblur" operator="in"/>
    </filter>
    <clipPath id="Clip_7">
      <path d="M920.421,236.877 L1000.079,236.877 L1000.079,373.016 L920.421,373.016 z M960.832,244.935 C960.814,244.928 960.826,244.932 960.795,244.932 L960.25,244.877 L959.705,244.932 C959.674,244.932 959.686,244.928 959.668,244.935 C959.457,244.957 959.652,244.935 959.122,245.158 C958.592,245.374 958.745,245.252 958.582,245.385 C958.564,245.393 958.575,245.387 958.553,245.409 L958.129,245.755 L927.299,276.584 C926.128,277.756 926.128,279.656 927.299,280.827 C928.471,281.999 930.371,281.999 931.542,280.827 L957.25,255.119 L957.25,330.568 C957.25,332.224 958.593,333.568 960.25,333.568 C961.907,333.568 963.25,332.224 963.25,330.568 L963.25,255.119 L988.958,280.827 C990.129,281.999 992.029,281.999 993.2,280.827 C994.372,279.656 994.372,277.756 993.2,276.584 L962.371,245.755 L961.947,245.409 C961.925,245.387 961.936,245.393 961.918,245.385 C961.755,245.252 961.908,245.374 961.378,245.158 C960.848,244.935 961.043,244.957 960.832,244.935 z M960.25,347.016 C958.593,347.016 957.25,348.359 957.25,350.016 L957.25,362.016 C957.25,363.673 958.593,365.016 960.25,365.016 C961.907,365.016 963.25,363.673 963.25,362.016 L963.25,350.016 C963.25,348.359 961.907,347.016 960.25,347.016 z"/>
    </clipPath>
    <filter id="Shadow_8">
      <feGaussianBlur in="SourceAlpha" stdDeviation="2.5"/>
      <feOffset dx="0" dy="2" result="offsetblur"/>
      <feFlood flood-color="#000000"/>
      <feComposite in2="offsetblur" operator="in"/>
    </filter>
    <clipPath id="Clip_9">
      <path d="M983.446,590.61 L1041.99,590.61 L1041.99,692.448 L983.446,692.448 z M994.22,598.652 C991.788,599.563 992.733,598.978 991.233,600.132 C988.946,602.293 988.84,605.9 991.001,608.189 L1022.456,641.511 L991.001,674.837 C988.84,677.126 988.946,680.732 991.233,682.894 C992.335,683.933 993.743,684.448 995.145,684.448 C996.659,684.448 998.171,683.848 999.29,682.664 L1034.436,645.427 C1036.508,643.229 1036.508,639.798 1034.436,637.602 L999.29,600.366 C997.701,598.988 996.384,598.446 994.22,598.652 z"/>
    </clipPath>
    <filter id="Shadow_10">
      <feGaussianBlur in="SourceAlpha" stdDeviation="2.5"/>
      <feOffset dx="0" dy="2" result="offsetblur"/>
      <feFlood flood-color="#000000"/>
      <feComposite in2="offsetblur" operator="in"/>
    </filter>
    <clipPath id="Clip_11">
      <path d="M878.01,590.652 L936.555,590.652 L936.555,692.448 L878.01,692.448 z M925.782,598.652 C923.492,598.718 922.463,598.632 920.71,600.364 L885.564,637.6 C883.492,639.796 883.492,643.229 885.564,645.425 L920.712,682.662 C921.833,683.85 923.343,684.448 924.857,684.448 C926.259,684.448 927.667,683.931 928.767,682.892 C931.058,680.732 931.16,677.125 929,674.835 L897.548,641.511 L929,608.187 C931.16,605.898 931.056,602.29 928.767,600.131 C927.268,598.977 928.213,599.561 925.782,598.652 z"/>
    </clipPath>
    <filter id="Shadow_12">
      <feGaussianBlur in="SourceAlpha" stdDeviation="2.5"/>
      <feOffset dx="0" dy="2" result="offsetblur"/>
      <feFlood flood-color="#000000"/>
      <feComposite in2="offsetblur" operator="in"/>
    </filter>
    <clipPath id="Clip_13">
      <path d="M939.941,573.106 L980.061,573.106 L980.061,709.924 L939.941,709.924 z M968.068,581.106 C964.91,581.902 963.584,582.496 962.725,585.937 L946.007,695.364 C945.532,698.476 947.669,701.385 950.781,701.859 C951.074,701.903 951.362,701.924 951.649,701.924 C954.417,701.924 956.845,699.905 957.277,697.085 L973.995,587.659 C974.47,584.547 972.332,581.638 969.221,581.163 L968.068,581.106 z"/>
    </clipPath>
    <filter id="Shadow_14">
      <feGaussianBlur in="SourceAlpha" stdDeviation="2.5"/>
      <feOffset dx="0" dy="2" result="offsetblur"/>
      <feFlood flood-color="#000000"/>
      <feComposite in2="offsetblur" operator="in"/>
    </filter>
    <clipPath id="Clip_15">
      <path d="M566.545,1101.511 L1353.455,1101.511 L1353.455,1173.523 L566.545,1173.523 z M942.19,1162.523 L946.19,1162.523 C946.19,1163.628 947.085,1164.523 948.19,1164.523 L960.19,1164.523 C961.294,1164.523 962.19,1163.628 962.19,1162.523 L962.19,1162.523 L966.19,1162.523 L966.19,1162.523 C966.19,1163.628 967.085,1164.523 968.19,1164.523 L980.19,1164.523 C981.294,1164.523 982.19,1163.628 982.19,1162.523 L982.19,1162.523 L986.19,1162.523 C986.19,1163.628 987.085,1164.523 988.19,1164.523 L1000.19,1164.523 C1001.294,1164.523 1002.19,1163.628 1002.19,1162.523 L1006.19,1162.523 C1006.19,1163.628 1007.085,1164.523 1008.19,1164.523 L1020.19,1164.523 C1021.294,1164.523 1022.19,1163.628 1022.19,1162.523 L1026.189,1162.523 C1026.19,1163.628 1027.085,1164.523 1028.189,1164.523 L1040.189,1164.523 C1041.294,1164.523 1042.19,1163.628 1042.189,1162.523 L1046.189,1162.523 C1046.19,1163.628 1047.085,1164.523 1048.189,1164.523 L1060.189,1164.523 C1061.294,1164.523 1062.19,1163.628 1062.189,1162.523 L1066.189,1162.523 C1066.19,1163.628 1067.085,1164.523 1068.189,1164.523 L1080.189,1164.523 C1081.294,1164.523 1082.19,1163.628 1082.189,1162.523 L1086.189,1162.523 C1086.19,1163.628 1087.085,1164.523 1088.189,1164.523 L1100.189,1164.523 C1101.294,1164.523 1102.19,1163.628 1102.189,1162.523 L1106.189,1162.523 C1106.19,1163.628 1107.085,1164.523 1108.189,1164.523 L1120.189,1164.523 C1121.294,1164.523 1122.19,1163.628 1122.189,1162.523 L1126.189,1162.523 C1126.19,1163.628 1127.085,1164.523 1128.189,1164.523 L1140.189,1164.523 C1141.294,1164.523 1142.19,1163.628 1142.189,1162.523 L1146.189,1162.523 C1146.19,1163.628 1147.085,1164.523 1148.189,1164.523 L1160.189,1164.523 C1161.294,1164.523 1162.19,1163.628 1162.189,1162.523 L1166.189,1162.523 C1166.19,1163.628 1167.085,1164.523 1168.189,1164.523 L1180.189,1164.523 C1181.294,1164.523 1182.19,1163.628 1182.189,1162.523 L1186.189,1162.523 C1186.19,1163.628 1187.085,1164.523 1188.189,1164.523 L1200.189,1164.523 C1201.294,1164.523 1202.19,1163.628 1202.189,1162.523 L1206.189,1162.523 C1206.19,1163.628 1207.085,1164.523 1208.189,1164.523 L1220.189,1164.523 C1221.294,1164.523 1222.19,1163.628 1222.189,1162.523 L1226.189,1162.523 C1226.19,1163.628 1227.085,1164.523 1228.189,1164.523 L1240.189,1164.523 C1241.294,1164.523 1242.19,1163.628 1242.189,1162.523 L1246.189,1162.523 C1246.19,1163.628 1247.085,1164.523 1248.189,1164.523 L1260.189,1164.523 C1261.294,1164.523 1262.19,1163.628 1262.189,1162.523 L1266.189,1162.523 C1266.19,1163.628 1267.085,1164.523 1268.189,1164.523 L1280.189,1164.523 C1281.294,1164.523 1282.19,1163.628 1282.189,1162.523 L1286.189,1162.523 C1286.19,1163.628 1287.085,1164.523 1288.189,1164.523 L1300.189,1164.523 C1301.294,1164.523 1302.19,1163.628 1302.189,1162.523 L1306.189,1162.523 C1306.19,1163.628 1307.085,1164.523 1308.189,1164.523 L1320.189,1164.523 C1321.294,1164.523 1322.19,1163.628 1322.189,1162.523 L1326.189,1162.523 C1326.19,1163.628 1327.085,1164.523 1328.189,1164.523 L1340.189,1164.523 C1342.672,1164.523 1344.455,1162.227 1344.455,1159.605 L1344.455,1158.544 C1344.455,1157.44 1343.56,1156.544 1342.455,1156.544 L1342.455,1152.544 C1343.56,1152.544 1344.455,1151.649 1344.455,1150.544 L1344.455,1138.544 C1344.455,1137.44 1343.56,1136.544 1342.455,1136.544 L1342.455,1132.544 C1343.56,1132.544 1344.455,1131.649 1344.455,1130.544 L1344.455,1118.544 C1344.455,1117.44 1343.56,1116.544 1342.455,1116.544 L1342.455,1115.428 C1342.381,1114.479 1342.143,1113.36 1341.214,1112.878 L1341.288,1112.511 C1341.288,1111.406 1340.393,1110.511 1339.288,1110.511 L1327.288,1110.511 C1326.184,1110.511 1325.288,1111.406 1325.288,1112.511 L1321.288,1112.511 C1321.288,1111.406 1320.393,1110.511 1319.288,1110.511 L1307.288,1110.511 C1306.184,1110.511 1305.288,1111.406 1305.288,1112.511 L1301.288,1112.511 C1301.288,1111.406 1300.393,1110.511 1299.288,1110.511 L1287.288,1110.511 C1286.184,1110.511 1285.288,1111.406 1285.288,1112.511 L1281.288,1112.511 C1281.288,1111.406 1280.393,1110.511 1279.288,1110.511 L1267.288,1110.511 C1266.184,1110.511 1265.288,1111.406 1265.288,1112.511 L1261.288,1112.511 C1261.288,1111.406 1260.393,1110.511 1259.288,1110.511 L1247.288,1110.511 C1246.184,1110.511 1245.288,1111.406 1245.288,1112.511 L1241.288,1112.511 C1241.288,1111.406 1240.393,1110.511 1239.288,1110.511 L1227.288,1110.511 C1226.184,1110.511 1225.288,1111.406 1225.288,1112.511 L1221.288,1112.511 C1221.288,1111.406 1220.393,1110.511 1219.288,1110.511 L1207.288,1110.511 C1206.184,1110.511 1205.288,1111.406 1205.288,1112.511 L1201.288,1112.511 C1201.288,1111.406 1200.393,1110.511 1199.288,1110.511 L1187.288,1110.511 C1186.184,1110.511 1185.288,1111.406 1185.288,1112.511 L1181.288,1112.511 C1181.288,1111.406 1180.393,1110.511 1179.288,1110.511 L1167.288,1110.511 C1166.184,1110.511 1165.288,1111.406 1165.288,1112.511 L1161.288,1112.511 C1161.288,1111.406 1160.393,1110.511 1159.288,1110.511 L1147.288,1110.511 C1146.184,1110.511 1145.288,1111.406 1145.288,1112.511 L1141.288,1112.511 C1141.288,1111.406 1140.393,1110.511 1139.288,1110.511 L1127.288,1110.511 C1126.184,1110.511 1125.288,1111.406 1125.288,1112.511 L1121.288,1112.511 C1121.288,1111.406 1120.393,1110.511 1119.288,1110.511 L1107.288,1110.511 C1106.184,1110.511 1105.288,1111.406 1105.288,1112.511 L1101.288,1112.511 C1101.288,1111.406 1100.393,1110.511 1099.288,1110.511 L1087.288,1110.511 C1086.184,1110.511 1085.288,1111.406 1085.288,1112.511 L1081.288,1112.511 C1081.288,1111.406 1080.393,1110.511 1079.288,1110.511 L1067.288,1110.511 C1066.184,1110.511 1065.288,1111.406 1065.288,1112.511 L1061.288,1112.511 C1061.288,1111.406 1060.393,1110.511 1059.288,1110.511 L1047.288,1110.511 C1046.184,1110.511 1045.288,1111.406 1045.288,1112.511 L1041.288,1112.511 C1041.288,1111.406 1040.393,1110.511 1039.288,1110.511 L1027.288,1110.511 C1026.184,1110.511 1025.288,1111.406 1025.288,1112.511 L1021.288,1112.511 C1021.289,1111.406 1020.393,1110.511 1019.288,1110.511 L1007.288,1110.511 C1006.184,1110.511 1005.289,1111.406 1005.288,1112.511 L1001.288,1112.511 C1001.289,1111.406 1000.393,1110.511 999.288,1110.511 L987.288,1110.511 C986.184,1110.511 985.289,1111.406 985.288,1112.511 L981.288,1112.511 C981.289,1111.406 980.393,1110.511 979.288,1110.511 L967.288,1110.511 C966.088,1110.753 965.406,1111.18 965.288,1112.511 L961.288,1112.511 C961.046,1111.311 960.619,1110.629 959.288,1110.511 L947.288,1110.511 C946.184,1110.511 945.289,1111.406 945.288,1112.511 L941.288,1112.511 C941.289,1111.406 940.393,1110.511 939.288,1110.511 L927.288,1110.511 C926.184,1110.511 925.289,1111.406 925.288,1112.511 L921.288,1112.511 C921.289,1111.406 920.393,1110.511 919.288,1110.511 L907.288,1110.511 C906.184,1110.511 905.289,1111.406 905.288,1112.511 L901.288,1112.511 C901.289,1111.406 900.393,1110.511 899.288,1110.511 L887.288,1110.511 C886.184,1110.511 885.289,1111.406 885.288,1112.511 L881.288,1112.511 C881.289,1111.406 880.393,1110.511 879.288,1110.511 L867.288,1110.511 C866.184,1110.511 865.289,1111.406 865.288,1112.511 L861.288,1112.511 C861.289,1111.406 860.393,1110.511 859.288,1110.511 L847.288,1110.511 C846.184,1110.511 845.289,1111.406 845.288,1112.511 L841.288,1112.511 C841.289,1111.406 840.393,1110.511 839.288,1110.511 L827.288,1110.511 C826.184,1110.511 825.289,1111.406 825.288,1112.511 L821.288,1112.511 C821.289,1111.406 820.393,1110.511 819.288,1110.511 L807.288,1110.511 C806.184,1110.511 805.289,1111.406 805.288,1112.511 L801.288,1112.511 C801.289,1111.406 800.393,1110.511 799.288,1110.511 L787.288,1110.511 C786.184,1110.511 785.289,1111.406 785.288,1112.511 L781.288,1112.511 C781.289,1111.406 780.393,1110.511 779.288,1110.511 L767.288,1110.511 C766.184,1110.511 765.289,1111.406 765.288,1112.511 L761.288,1112.511 C761.289,1111.406 760.393,1110.511 759.288,1110.511 L747.288,1110.511 C746.184,1110.511 745.289,1111.406 745.288,1112.511 L741.288,1112.511 C741.289,1111.406 740.393,1110.511 739.288,1110.511 L727.288,1110.511 C726.184,1110.511 725.289,1111.406 725.288,1112.511 L721.288,1112.511 C721.289,1111.406 720.393,1110.511 719.288,1110.511 L707.288,1110.511 C706.184,1110.511 705.289,1111.406 705.288,1112.511 L701.288,1112.511 C701.289,1111.406 700.393,1110.511 699.288,1110.511 L687.288,1110.511 C686.184,1110.511 685.289,1111.406 685.288,1112.511 L681.288,1112.511 C681.289,1111.406 680.393,1110.511 679.288,1110.511 L667.288,1110.511 C666.184,1110.511 665.289,1111.406 665.288,1112.511 L661.288,1112.511 C661.289,1111.406 660.393,1110.511 659.288,1110.511 L647.288,1110.511 C646.184,1110.511 645.289,1111.406 645.288,1112.511 L641.288,1112.511 C641.289,1111.406 640.393,1110.511 639.288,1110.511 L627.288,1110.511 C626.184,1110.511 625.289,1111.406 625.288,1112.511 L621.288,1112.511 C621.289,1111.406 620.393,1110.511 619.288,1110.511 L607.288,1110.511 C606.184,1110.511 605.289,1111.406 605.288,1112.511 L601.288,1112.511 C601.289,1111.406 600.393,1110.511 599.288,1110.511 L587.288,1110.511 C586.184,1110.511 585.289,1111.406 585.288,1112.511 L581.214,1112.511 L581.151,1111.978 C580.511,1110.851 580.995,1111.407 579.416,1110.607 L578.627,1110.7 C576.744,1111.317 575.545,1113.277 575.545,1115.428 L575.545,1123.968 C575.545,1125.072 576.44,1125.968 577.545,1125.968 L577.545,1129.968 C576.44,1129.968 575.545,1130.863 575.545,1131.968 L575.545,1143.968 C575.545,1145.072 576.44,1145.968 577.545,1145.968 L577.545,1149.968 C576.44,1149.968 575.545,1150.863 575.545,1151.968 L575.545,1159.606 C575.545,1162.227 577.328,1164.523 579.81,1164.523 L580.19,1164.523 C581.294,1164.523 582.19,1163.628 582.189,1162.523 L586.19,1162.523 C586.19,1163.628 587.085,1164.523 588.189,1164.523 L600.19,1164.523 C601.294,1164.523 602.19,1163.628 602.189,1162.523 L606.19,1162.523 C606.19,1163.628 607.085,1164.523 608.189,1164.523 L620.19,1164.523 C621.294,1164.523 622.19,1163.628 622.189,1162.523 L626.19,1162.523 C626.19,1163.628 627.085,1164.523 628.189,1164.523 L640.19,1164.523 C641.294,1164.523 642.19,1163.628 642.189,1162.523 L646.19,1162.523 C646.19,1163.628 647.085,1164.523 648.189,1164.523 L660.19,1164.523 C661.294,1164.523 662.19,1163.628 662.189,1162.523 L666.19,1162.523 C666.19,1163.628 667.085,1164.523 668.189,1164.523 L680.19,1164.523 C681.294,1164.523 682.19,1163.628 682.189,1162.523 L686.19,1162.523 C686.19,1163.628 687.085,1164.523 688.189,1164.523 L700.19,1164.523 C701.294,1164.523 702.19,1163.628 702.189,1162.523 L706.19,1162.523 C706.19,1163.628 707.085,1164.523 708.189,1164.523 L720.19,1164.523 C721.294,1164.523 722.19,1163.628 722.189,1162.523 L726.19,1162.523 C726.19,1163.628 727.085,1164.523 728.189,1164.523 L740.19,1164.523 C741.294,1164.523 742.19,1163.628 742.189,1162.523 L746.19,1162.523 C746.19,1163.628 747.085,1164.523 748.189,1164.523 L760.19,1164.523 C761.294,1164.523 762.19,1163.628 762.189,1162.523 L766.19,1162.523 C766.19,1163.628 767.085,1164.523 768.189,1164.523 L780.19,1164.523 C781.294,1164.523 782.19,1163.628 782.189,1162.523 L786.19,1162.523 C786.19,1163.628 787.085,1164.523 788.189,1164.523 L800.19,1164.523 C801.294,1164.523 802.19,1163.628 802.189,1162.523 L806.19,1162.523 C806.19,1163.628 807.085,1164.523 808.189,1164.523 L820.19,1164.523 C821.294,1164.523 822.19,1163.628 822.189,1162.523 L826.19,1162.523 C826.19,1163.628 827.085,1164.523 828.189,1164.523 L840.19,1164.523 C841.294,1164.523 842.19,1163.628 842.19,1162.523 L846.19,1162.523 C846.19,1163.628 847.085,1164.523 848.19,1164.523 L860.19,1164.523 C861.294,1164.523 862.19,1163.628 862.19,1162.523 L866.19,1162.523 C866.19,1163.628 867.085,1164.523 868.19,1164.523 L880.19,1164.523 C881.294,1164.523 882.19,1163.628 882.19,1162.523 L886.19,1162.523 C886.19,1163.628 887.085,1164.523 888.19,1164.523 L900.19,1164.523 C901.294,1164.523 902.19,1163.628 902.19,1162.523 L906.19,1162.523 C906.19,1163.628 907.085,1164.523 908.19,1164.523 L920.19,1164.523 C921.294,1164.523 922.19,1163.628 922.19,1162.523 L926.19,1162.523 C926.19,1163.628 927.085,1164.523 928.19,1164.523 L940.19,1164.523 C941.294,1164.523 942.19,1163.628 942.19,1162.523 z"/>
    </clipPath>
    <filter id="Shadow_16">
      <feGaussianBlur in="SourceAlpha" stdDeviation="4"/>
      <feOffset dx="0" dy="0" result="offsetblur"/>
      <feFlood flood-color="#000000"/>
      <feComposite in2="offsetblur" operator="in"/>
    </filter>
  </defs>
  <g id="Layer_1">
    <path d="M1901.33,1280 L18.67,1280 C8.361,1280 0,1270.547 0,1258.884 L0,-0 L1920,-0 L1920,1258.884 C1920,1270.547 1911.645,1280 1901.33,1280" fill="#EAEAEA"/>
    <g>
      <path d="M564.149,607.737 C565.414,608.253 564.926,607.931 565.697,608.561 C566.869,609.732 566.869,611.632 565.697,612.803 L539.99,638.511 L615.438,638.511 C617.095,638.511 618.438,639.854 618.438,641.511 C618.438,643.168 617.095,644.511 615.438,644.511 L539.99,644.511 L565.697,670.219 C566.869,671.391 566.869,673.29 565.697,674.461 C564.526,675.633 562.626,675.633 561.455,674.461 L530.625,643.632 L530.279,643.208 C530.257,643.186 530.263,643.197 530.255,643.179 C530.122,643.016 530.244,643.169 530.028,642.638 C529.805,642.109 529.827,642.304 529.805,642.093 C529.798,642.076 529.802,642.087 529.802,642.056 L529.747,641.511 L529.802,640.966 C529.802,640.935 529.798,640.947 529.805,640.929 C529.827,640.719 529.805,640.913 530.028,640.384 C530.244,639.853 530.122,640.007 530.255,639.843 C530.263,639.825 530.257,639.836 530.279,639.814 L530.625,639.39 L561.455,608.561 C562.356,607.699 562.988,607.737 564.149,607.737 z M646.886,638.511 C648.543,638.511 649.887,639.854 649.886,641.511 C649.887,643.168 648.543,644.511 646.886,644.511 L634.886,644.511 C633.23,644.511 631.887,643.168 631.886,641.511 C631.887,639.854 633.23,638.511 634.886,638.511 L646.886,638.511 z" clip-path="url(#Clip_1)" filter="url(#Shadow_2)" fill="rgba(0,0,0,0.75)"/>
      <path d="M532.747,641.511 L615.438,641.511 M646.887,641.511 L634.887,641.511 M563.576,610.682 L532.747,641.511 M563.576,672.34 L532.747,641.511" fill-opacity="0" stroke="#4C35F1" stroke-width="6" stroke-linecap="round"/>
    </g>
    <g>
      <path d="M1356.997,607.737 C1358.262,608.253 1357.774,607.931 1358.545,608.561 L1389.374,639.39 L1389.721,639.814 C1389.743,639.836 1389.737,639.825 1389.745,639.843 C1389.878,640.007 1389.756,639.853 1389.972,640.384 C1390.195,640.913 1390.173,640.719 1390.194,640.929 C1390.202,640.947 1390.198,640.935 1390.198,640.966 L1390.253,641.511 L1390.198,642.056 C1390.198,642.087 1390.202,642.076 1390.194,642.093 C1390.173,642.304 1390.195,642.109 1389.972,642.638 C1389.756,643.169 1389.878,643.016 1389.745,643.179 C1389.737,643.197 1389.743,643.186 1389.721,643.208 L1389.374,643.632 L1358.545,674.461 C1357.374,675.633 1355.474,675.633 1354.303,674.461 C1353.131,673.29 1353.131,671.391 1354.303,670.219 L1380.01,644.511 L1304.562,644.511 C1302.905,644.511 1301.562,643.168 1301.562,641.511 C1301.562,639.854 1302.905,638.511 1304.562,638.511 L1380.01,638.511 L1354.303,612.803 C1353.131,611.632 1353.131,609.732 1354.303,608.561 C1355.204,607.699 1355.836,607.737 1356.997,607.737 z M1285.113,638.511 C1286.77,638.511 1288.114,639.854 1288.113,641.511 C1288.114,643.168 1286.77,644.511 1285.113,644.511 L1273.113,644.511 C1271.457,644.511 1270.114,643.168 1270.113,641.511 C1270.114,639.854 1271.457,638.511 1273.113,638.511 L1285.113,638.511 z" clip-path="url(#Clip_3)" filter="url(#Shadow_4)" fill="rgba(0,0,0,0.75)"/>
      <path d="M1387.253,641.511 L1304.562,641.511 M1273.114,641.511 L1285.114,641.511 M1356.424,672.34 L1387.253,641.511 M1356.424,610.682 L1387.253,641.511" fill-opacity="0" stroke="#4C35F1" stroke-width="6" stroke-linecap="round"/>
    </g>
    <g>
      <path d="M960.75,946.432 C962.407,946.432 963.75,947.775 963.75,949.432 L963.75,1024.88 L989.458,999.173 C990.629,998.001 992.529,998.001 993.7,999.173 C994.872,1000.344 994.872,1002.244 993.7,1003.415 L962.871,1034.244 L962.447,1034.591 C962.425,1034.613 962.436,1034.607 962.418,1034.615 C962.255,1034.748 962.408,1034.626 961.877,1034.843 C961.348,1035.065 961.542,1035.043 961.332,1035.064 C961.314,1035.072 961.326,1035.068 961.295,1035.068 L960.75,1035.123 L960.205,1035.068 C960.174,1035.068 960.186,1035.072 960.168,1035.064 C959.958,1035.043 960.152,1035.065 959.623,1034.843 C959.092,1034.626 959.245,1034.748 959.082,1034.615 C959.064,1034.607 959.075,1034.613 959.053,1034.591 L958.629,1034.244 L927.8,1003.415 C926.628,1002.244 926.628,1000.344 927.8,999.173 C928.971,998.001 930.871,998.001 932.042,999.173 L957.75,1024.88 L957.75,949.432 C957.75,947.775 959.093,946.432 960.75,946.432 z M960.75,914.984 C962.407,914.984 963.75,916.327 963.75,917.984 L963.75,929.984 C963.75,931.64 962.407,932.984 960.75,932.984 C959.093,932.984 957.75,931.64 957.75,929.984 L957.75,917.984 C957.75,916.327 959.093,914.984 960.75,914.984 z" clip-path="url(#Clip_5)" filter="url(#Shadow_6)" fill="rgba(0,0,0,0.75)"/>
      <path d="M960.75,1032.123 L960.75,949.432 M960.75,917.984 L960.75,929.984 M929.921,1001.294 L960.75,1032.123 M991.579,1001.294 L960.75,1032.123" fill-opacity="0" stroke="#4C35F1" stroke-width="6" stroke-linecap="round"/>
    </g>
    <g>
      <path d="M960.25,347.016 C961.907,347.016 963.25,348.359 963.25,350.016 L963.25,362.016 C963.25,363.673 961.907,365.016 960.25,365.016 C958.593,365.016 957.25,363.673 957.25,362.016 L957.25,350.016 C957.25,348.359 958.593,347.016 960.25,347.016 z M960.832,244.935 C961.043,244.957 960.848,244.935 961.378,245.158 C961.908,245.374 961.755,245.252 961.918,245.385 C961.936,245.393 961.925,245.387 961.947,245.409 L962.371,245.755 L993.2,276.584 C994.372,277.756 994.372,279.656 993.2,280.827 C992.029,281.999 990.129,281.999 988.958,280.827 L963.25,255.119 L963.25,330.568 C963.25,332.224 961.907,333.568 960.25,333.568 C958.593,333.568 957.25,332.224 957.25,330.568 L957.25,255.119 L931.542,280.827 C930.371,281.999 928.471,281.999 927.299,280.827 C926.128,279.656 926.128,277.756 927.299,276.584 L958.129,245.755 L958.553,245.409 C958.575,245.387 958.564,245.393 958.582,245.385 C958.745,245.252 958.592,245.374 959.122,245.158 C959.652,244.935 959.457,244.957 959.668,244.935 C959.686,244.928 959.674,244.932 959.705,244.932 L960.25,244.877 L960.795,244.932 C960.826,244.932 960.814,244.928 960.832,244.935 z" clip-path="url(#Clip_7)" filter="url(#Shadow_8)" fill="rgba(0,0,0,0.75)"/>
      <path d="M960.25,247.877 L960.25,330.568 M960.25,362.016 L960.25,350.016 M991.079,278.706 L960.25,247.877 M929.421,278.706 L960.25,247.877" fill-opacity="0" stroke="#4C35F1" stroke-width="6" stroke-linecap="round"/>
    </g>
    <path d="M960,762.222 C892.499,762.222 837.778,707.501 837.778,640 C837.778,572.499 892.499,517.778 960,517.778 C1027.501,517.778 1082.222,572.499 1082.222,640 C1082.222,707.501 1027.501,762.222 960,762.222 z" fill="#FFFFFF"/>
    <g id="signs">
      <g>
        <path d="M994.22,598.652 C996.384,598.446 997.701,598.988 999.29,600.366 L1034.436,637.602 C1036.508,639.798 1036.508,643.229 1034.436,645.427 L999.29,682.664 C998.171,683.848 996.659,684.448 995.145,684.448 C993.743,684.448 992.335,683.933 991.233,682.894 C988.946,680.732 988.84,677.126 991.001,674.837 L1022.456,641.511 L991.001,608.189 C988.84,605.9 988.946,602.293 991.233,600.132 C992.733,598.978 991.788,599.563 994.22,598.652 z" clip-path="url(#Clip_9)" filter="url(#Shadow_10)" fill="rgba(0,0,0,0.75)"/>
        <path d="M1034.436,637.602 L999.29,600.366 C997.13,598.075 993.524,597.971 991.233,600.132 C988.946,602.293 988.84,605.9 991.001,608.189 L1022.456,641.511 L991.001,674.837 C988.84,677.126 988.946,680.732 991.233,682.894 C992.335,683.933 993.743,684.448 995.145,684.448 C996.659,684.448 998.171,683.848 999.29,682.664 L1034.436,645.427 C1036.508,643.229 1036.508,639.798 1034.436,637.602 z" fill="#4C34F1"/>
      </g>
      <g>
        <path d="M925.782,598.652 C928.213,599.561 927.268,598.977 928.767,600.131 C931.056,602.29 931.16,605.898 929,608.187 L897.548,641.511 L929,674.835 C931.16,677.125 931.058,680.732 928.767,682.892 C927.667,683.931 926.259,684.448 924.857,684.448 C923.343,684.448 921.833,683.85 920.712,682.662 L885.564,645.425 C883.492,643.229 883.492,639.796 885.564,637.6 L920.71,600.364 C922.463,598.632 923.492,598.718 925.782,598.652 z" clip-path="url(#Clip_11)" filter="url(#Shadow_12)" fill="rgba(0,0,0,0.75)"/>
        <path d="M929,674.835 L897.548,641.511 L929,608.188 C931.16,605.898 931.056,602.29 928.767,600.131 C926.479,597.971 922.87,598.075 920.71,600.364 L885.564,637.6 C883.492,639.796 883.492,643.229 885.564,645.425 L920.712,682.662 C921.833,683.85 923.343,684.448 924.857,684.448 C926.259,684.448 927.667,683.931 928.767,682.892 C931.058,680.732 931.16,677.125 929,674.835 z" fill="#4C34F1"/>
      </g>
      <g>
        <path d="M968.068,581.106 L969.221,581.163 C972.332,581.638 974.47,584.547 973.995,587.659 L957.277,697.085 C956.845,699.905 954.417,701.924 951.649,701.924 C951.362,701.924 951.074,701.903 950.781,701.859 C947.669,701.385 945.532,698.476 946.007,695.364 L962.725,585.937 C963.584,582.496 964.91,581.902 968.068,581.106 z" clip-path="url(#Clip_13)" filter="url(#Shadow_14)" fill="rgba(0,0,0,0.75)"/>
        <path d="M969.221,581.163 C966.111,580.692 963.2,582.827 962.725,585.937 L946.007,695.364 C945.532,698.476 947.669,701.385 950.781,701.859 C951.074,701.903 951.362,701.924 951.649,701.924 C954.417,701.924 956.845,699.905 957.277,697.085 L973.995,587.659 C974.47,584.547 972.332,581.638 969.221,581.163 z" fill="#4C34F1"/>
      </g>
    </g>
    <g>
      <g>
        <path d="M942.19,1162.523 C942.19,1163.628 941.294,1164.523 940.19,1164.523 L928.19,1164.523 C927.085,1164.523 926.19,1163.628 926.19,1162.523 L922.19,1162.523 C922.19,1163.628 921.294,1164.523 920.19,1164.523 L908.19,1164.523 C907.085,1164.523 906.19,1163.628 906.19,1162.523 L902.19,1162.523 C902.19,1163.628 901.294,1164.523 900.19,1164.523 L888.19,1164.523 C887.085,1164.523 886.19,1163.628 886.19,1162.523 L882.19,1162.523 C882.19,1163.628 881.294,1164.523 880.19,1164.523 L868.19,1164.523 C867.085,1164.523 866.19,1163.628 866.19,1162.523 L862.19,1162.523 C862.19,1163.628 861.294,1164.523 860.19,1164.523 L848.19,1164.523 C847.085,1164.523 846.19,1163.628 846.19,1162.523 L842.19,1162.523 C842.19,1163.628 841.294,1164.523 840.19,1164.523 L828.189,1164.523 C827.085,1164.523 826.19,1163.628 826.19,1162.523 L822.189,1162.523 C822.19,1163.628 821.294,1164.523 820.19,1164.523 L808.189,1164.523 C807.085,1164.523 806.19,1163.628 806.19,1162.523 L802.189,1162.523 C802.19,1163.628 801.294,1164.523 800.19,1164.523 L788.189,1164.523 C787.085,1164.523 786.19,1163.628 786.19,1162.523 L782.189,1162.523 C782.19,1163.628 781.294,1164.523 780.19,1164.523 L768.189,1164.523 C767.085,1164.523 766.19,1163.628 766.19,1162.523 L762.189,1162.523 C762.19,1163.628 761.294,1164.523 760.19,1164.523 L748.189,1164.523 C747.085,1164.523 746.19,1163.628 746.19,1162.523 L742.189,1162.523 C742.19,1163.628 741.294,1164.523 740.19,1164.523 L728.189,1164.523 C727.085,1164.523 726.19,1163.628 726.19,1162.523 L722.189,1162.523 C722.19,1163.628 721.294,1164.523 720.19,1164.523 L708.189,1164.523 C707.085,1164.523 706.19,1163.628 706.19,1162.523 L702.189,1162.523 C702.19,1163.628 701.294,1164.523 700.19,1164.523 L688.189,1164.523 C687.085,1164.523 686.19,1163.628 686.19,1162.523 L682.189,1162.523 C682.19,1163.628 681.294,1164.523 680.19,1164.523 L668.189,1164.523 C667.085,1164.523 666.19,1163.628 666.19,1162.523 L662.189,1162.523 C662.19,1163.628 661.294,1164.523 660.19,1164.523 L648.189,1164.523 C647.085,1164.523 646.19,1163.628 646.19,1162.523 L642.189,1162.523 C642.19,1163.628 641.294,1164.523 640.19,1164.523 L628.189,1164.523 C627.085,1164.523 626.19,1163.628 626.19,1162.523 L622.189,1162.523 C622.19,1163.628 621.294,1164.523 620.19,1164.523 L608.189,1164.523 C607.085,1164.523 606.19,1163.628 606.19,1162.523 L602.189,1162.523 C602.19,1163.628 601.294,1164.523 600.19,1164.523 L588.189,1164.523 C587.085,1164.523 586.19,1163.628 586.19,1162.523 L582.189,1162.523 C582.19,1163.628 581.294,1164.523 580.19,1164.523 L579.81,1164.523 C577.328,1164.523 575.545,1162.227 575.545,1159.606 L575.545,1151.968 C575.545,1150.863 576.44,1149.968 577.545,1149.968 L577.545,1145.968 C576.44,1145.968 575.545,1145.072 575.545,1143.968 L575.545,1131.968 C575.545,1130.863 576.44,1129.968 577.545,1129.968 L577.545,1125.968 C576.44,1125.968 575.545,1125.072 575.545,1123.968 L575.545,1115.428 C575.545,1113.277 576.744,1111.317 578.627,1110.7 L579.416,1110.607 C580.995,1111.407 580.511,1110.851 581.151,1111.978 L581.214,1112.511 L585.288,1112.511 C585.289,1111.406 586.184,1110.511 587.288,1110.511 L599.288,1110.511 C600.393,1110.511 601.289,1111.406 601.288,1112.511 L605.288,1112.511 C605.289,1111.406 606.184,1110.511 607.288,1110.511 L619.288,1110.511 C620.393,1110.511 621.289,1111.406 621.288,1112.511 L625.288,1112.511 C625.289,1111.406 626.184,1110.511 627.288,1110.511 L639.288,1110.511 C640.393,1110.511 641.289,1111.406 641.288,1112.511 L645.288,1112.511 C645.289,1111.406 646.184,1110.511 647.288,1110.511 L659.288,1110.511 C660.393,1110.511 661.289,1111.406 661.288,1112.511 L665.288,1112.511 C665.289,1111.406 666.184,1110.511 667.288,1110.511 L679.288,1110.511 C680.393,1110.511 681.289,1111.406 681.288,1112.511 L685.288,1112.511 C685.289,1111.406 686.184,1110.511 687.288,1110.511 L699.288,1110.511 C700.393,1110.511 701.289,1111.406 701.288,1112.511 L705.288,1112.511 C705.289,1111.406 706.184,1110.511 707.288,1110.511 L719.288,1110.511 C720.393,1110.511 721.289,1111.406 721.288,1112.511 L725.288,1112.511 C725.289,1111.406 726.184,1110.511 727.288,1110.511 L739.288,1110.511 C740.393,1110.511 741.289,1111.406 741.288,1112.511 L745.288,1112.511 C745.289,1111.406 746.184,1110.511 747.288,1110.511 L759.288,1110.511 C760.393,1110.511 761.289,1111.406 761.288,1112.511 L765.288,1112.511 C765.289,1111.406 766.184,1110.511 767.288,1110.511 L779.288,1110.511 C780.393,1110.511 781.289,1111.406 781.288,1112.511 L785.288,1112.511 C785.289,1111.406 786.184,1110.511 787.288,1110.511 L799.288,1110.511 C800.393,1110.511 801.289,1111.406 801.288,1112.511 L805.288,1112.511 C805.289,1111.406 806.184,1110.511 807.288,1110.511 L819.288,1110.511 C820.393,1110.511 821.289,1111.406 821.288,1112.511 L825.288,1112.511 C825.289,1111.406 826.184,1110.511 827.288,1110.511 L839.288,1110.511 C840.393,1110.511 841.289,1111.406 841.288,1112.511 L845.288,1112.511 C845.289,1111.406 846.184,1110.511 847.288,1110.511 L859.288,1110.511 C860.393,1110.511 861.289,1111.406 861.288,1112.511 L865.288,1112.511 C865.289,1111.406 866.184,1110.511 867.288,1110.511 L879.288,1110.511 C880.393,1110.511 881.289,1111.406 881.288,1112.511 L885.288,1112.511 C885.289,1111.406 886.184,1110.511 887.288,1110.511 L899.288,1110.511 C900.393,1110.511 901.289,1111.406 901.288,1112.511 L905.288,1112.511 C905.289,1111.406 906.184,1110.511 907.288,1110.511 L919.288,1110.511 C920.393,1110.511 921.289,1111.406 921.288,1112.511 L925.288,1112.511 C925.289,1111.406 926.184,1110.511 927.288,1110.511 L939.288,1110.511 C940.393,1110.511 941.289,1111.406 941.288,1112.511 L945.288,1112.511 C945.289,1111.406 946.184,1110.511 947.288,1110.511 L959.288,1110.511 C960.619,1110.629 961.046,1111.311 961.288,1112.511 L965.288,1112.511 C965.406,1111.18 966.088,1110.753 967.288,1110.511 L979.288,1110.511 C980.393,1110.511 981.289,1111.406 981.288,1112.511 L985.288,1112.511 C985.289,1111.406 986.184,1110.511 987.288,1110.511 L999.288,1110.511 C1000.393,1110.511 1001.289,1111.406 1001.288,1112.511 L1005.288,1112.511 C1005.289,1111.406 1006.184,1110.511 1007.288,1110.511 L1019.288,1110.511 C1020.393,1110.511 1021.289,1111.406 1021.288,1112.511 L1025.288,1112.511 C1025.288,1111.406 1026.184,1110.511 1027.288,1110.511 L1039.288,1110.511 C1040.393,1110.511 1041.288,1111.406 1041.288,1112.511 L1045.288,1112.511 C1045.288,1111.406 1046.184,1110.511 1047.288,1110.511 L1059.288,1110.511 C1060.393,1110.511 1061.288,1111.406 1061.288,1112.511 L1065.288,1112.511 C1065.288,1111.406 1066.184,1110.511 1067.288,1110.511 L1079.288,1110.511 C1080.393,1110.511 1081.288,1111.406 1081.288,1112.511 L1085.288,1112.511 C1085.288,1111.406 1086.184,1110.511 1087.288,1110.511 L1099.288,1110.511 C1100.393,1110.511 1101.288,1111.406 1101.288,1112.511 L1105.288,1112.511 C1105.288,1111.406 1106.184,1110.511 1107.288,1110.511 L1119.288,1110.511 C1120.393,1110.511 1121.288,1111.406 1121.288,1112.511 L1125.288,1112.511 C1125.288,1111.406 1126.184,1110.511 1127.288,1110.511 L1139.288,1110.511 C1140.393,1110.511 1141.288,1111.406 1141.288,1112.511 L1145.288,1112.511 C1145.288,1111.406 1146.184,1110.511 1147.288,1110.511 L1159.288,1110.511 C1160.393,1110.511 1161.288,1111.406 1161.288,1112.511 L1165.288,1112.511 C1165.288,1111.406 1166.184,1110.511 1167.288,1110.511 L1179.288,1110.511 C1180.393,1110.511 1181.288,1111.406 1181.288,1112.511 L1185.288,1112.511 C1185.288,1111.406 1186.184,1110.511 1187.288,1110.511 L1199.288,1110.511 C1200.393,1110.511 1201.288,1111.406 1201.288,1112.511 L1205.288,1112.511 C1205.288,1111.406 1206.184,1110.511 1207.288,1110.511 L1219.288,1110.511 C1220.393,1110.511 1221.288,1111.406 1221.288,1112.511 L1225.288,1112.511 C1225.288,1111.406 1226.184,1110.511 1227.288,1110.511 L1239.288,1110.511 C1240.393,1110.511 1241.288,1111.406 1241.288,1112.511 L1245.288,1112.511 C1245.288,1111.406 1246.184,1110.511 1247.288,1110.511 L1259.288,1110.511 C1260.393,1110.511 1261.288,1111.406 1261.288,1112.511 L1265.288,1112.511 C1265.288,1111.406 1266.184,1110.511 1267.288,1110.511 L1279.288,1110.511 C1280.393,1110.511 1281.288,1111.406 1281.288,1112.511 L1285.288,1112.511 C1285.288,1111.406 1286.184,1110.511 1287.288,1110.511 L1299.288,1110.511 C1300.393,1110.511 1301.288,1111.406 1301.288,1112.511 L1305.288,1112.511 C1305.288,1111.406 1306.184,1110.511 1307.288,1110.511 L1319.288,1110.511 C1320.393,1110.511 1321.288,1111.406 1321.288,1112.511 L1325.288,1112.511 C1325.288,1111.406 1326.184,1110.511 1327.288,1110.511 L1339.288,1110.511 C1340.393,1110.511 1341.288,1111.406 1341.288,1112.511 L1341.214,1112.878 C1342.143,1113.36 1342.381,1114.479 1342.455,1115.428 L1342.455,1116.544 C1343.56,1116.544 1344.455,1117.44 1344.455,1118.544 L1344.455,1130.544 C1344.455,1131.649 1343.56,1132.544 1342.455,1132.544 L1342.455,1136.544 C1343.56,1136.544 1344.455,1137.44 1344.455,1138.544 L1344.455,1150.544 C1344.455,1151.649 1343.56,1152.544 1342.455,1152.544 L1342.455,1156.544 C1343.56,1156.544 1344.455,1157.44 1344.455,1158.544 L1344.455,1159.605 C1344.455,1162.227 1342.672,1164.523 1340.189,1164.523 L1328.189,1164.523 C1327.085,1164.523 1326.19,1163.628 1326.189,1162.523 L1322.189,1162.523 C1322.19,1163.628 1321.294,1164.523 1320.189,1164.523 L1308.189,1164.523 C1307.085,1164.523 1306.19,1163.628 1306.189,1162.523 L1302.189,1162.523 C1302.19,1163.628 1301.294,1164.523 1300.189,1164.523 L1288.189,1164.523 C1287.085,1164.523 1286.19,1163.628 1286.189,1162.523 L1282.189,1162.523 C1282.19,1163.628 1281.294,1164.523 1280.189,1164.523 L1268.189,1164.523 C1267.085,1164.523 1266.19,1163.628 1266.189,1162.523 L1262.189,1162.523 C1262.19,1163.628 1261.294,1164.523 1260.189,1164.523 L1248.189,1164.523 C1247.085,1164.523 1246.19,1163.628 1246.189,1162.523 L1242.189,1162.523 C1242.19,1163.628 1241.294,1164.523 1240.189,1164.523 L1228.189,1164.523 C1227.085,1164.523 1226.19,1163.628 1226.189,1162.523 L1222.189,1162.523 C1222.19,1163.628 1221.294,1164.523 1220.189,1164.523 L1208.189,1164.523 C1207.085,1164.523 1206.19,1163.628 1206.189,1162.523 L1202.189,1162.523 C1202.19,1163.628 1201.294,1164.523 1200.189,1164.523 L1188.189,1164.523 C1187.085,1164.523 1186.19,1163.628 1186.189,1162.523 L1182.189,1162.523 C1182.19,1163.628 1181.294,1164.523 1180.189,1164.523 L1168.189,1164.523 C1167.085,1164.523 1166.19,1163.628 1166.189,1162.523 L1162.189,1162.523 C1162.19,1163.628 1161.294,1164.523 1160.189,1164.523 L1148.189,1164.523 C1147.085,1164.523 1146.19,1163.628 1146.189,1162.523 L1142.189,1162.523 C1142.19,1163.628 1141.294,1164.523 1140.189,1164.523 L1128.189,1164.523 C1127.085,1164.523 1126.19,1163.628 1126.189,1162.523 L1122.189,1162.523 C1122.19,1163.628 1121.294,1164.523 1120.189,1164.523 L1108.189,1164.523 C1107.085,1164.523 1106.19,1163.628 1106.189,1162.523 L1102.189,1162.523 C1102.19,1163.628 1101.294,1164.523 1100.189,1164.523 L1088.189,1164.523 C1087.085,1164.523 1086.19,1163.628 1086.189,1162.523 L1082.189,1162.523 C1082.19,1163.628 1081.294,1164.523 1080.189,1164.523 L1068.189,1164.523 C1067.085,1164.523 1066.19,1163.628 1066.189,1162.523 L1062.189,1162.523 C1062.19,1163.628 1061.294,1164.523 1060.189,1164.523 L1048.189,1164.523 C1047.085,1164.523 1046.19,1163.628 1046.189,1162.523 L1042.189,1162.523 C1042.19,1163.628 1041.294,1164.523 1040.189,1164.523 L1028.189,1164.523 C1027.085,1164.523 1026.19,1163.628 1026.189,1162.523 L1022.19,1162.523 C1022.19,1163.628 1021.294,1164.523 1020.19,1164.523 L1008.19,1164.523 C1007.085,1164.523 1006.19,1163.628 1006.19,1162.523 L1002.19,1162.523 C1002.19,1163.628 1001.294,1164.523 1000.19,1164.523 L988.19,1164.523 C987.085,1164.523 986.19,1163.628 986.19,1162.523 L982.19,1162.523 L982.19,1162.523 C982.19,1163.628 981.294,1164.523 980.19,1164.523 L968.19,1164.523 C967.085,1164.523 966.19,1163.628 966.19,1162.523 L966.19,1162.523 L962.19,1162.523 L962.19,1162.523 C962.19,1163.628 961.294,1164.523 960.19,1164.523 L948.19,1164.523 C947.085,1164.523 946.19,1163.628 946.19,1162.523 L942.19,1162.523 z" clip-path="url(#Clip_15)" filter="url(#Shadow_16)" fill="rgba(0,0,0,0.75)"/>
        <path d="M1340.19,1162.523 L579.81,1162.523 C578.559,1162.523 577.545,1161.217 577.545,1159.606 L577.545,1115.429 C577.545,1113.817 578.559,1112.511 579.81,1112.511 L1340.19,1112.511 C1341.441,1112.511 1342.455,1113.817 1342.455,1115.428 L1342.455,1159.606 C1342.455,1161.217 1341.441,1162.523 1340.19,1162.523 z" fill="#FFFFFF"/>
        <path d="M1340.19,1162.523 L579.81,1162.523 C578.559,1162.523 577.545,1161.217 577.545,1159.606 L577.545,1115.429 C577.545,1113.817 578.559,1112.511 579.81,1112.511 L1340.19,1112.511 C1341.441,1112.511 1342.455,1113.817 1342.455,1115.428 L1342.455,1159.606 C1342.455,1161.217 1341.441,1162.523 1340.19,1162.523 z" fill-opacity="0" stroke="#4C35F1" stroke-width="4" stroke-dasharray="12,8" stroke-linecap="round" stroke-linejoin="round"/>
      </g>
      <path d="M587.862,1117.536 L727.072,1117.536 C728.808,1117.536 730.215,1118.978 730.215,1120.756 L730.215,1154.286 C730.215,1156.064 728.808,1157.506 727.072,1157.506 L587.862,1157.506 C586.127,1157.506 584.72,1156.064 584.72,1154.286 L584.72,1120.756 C584.72,1118.978 586.127,1117.536 587.862,1117.536 z" fill="#B1B1B1"/>
      <g>
        <g>
          <path d="M645.949,1145.914 L668.157,1145.914 C669.343,1145.914 670.328,1146.899 670.328,1148.114 C670.328,1149.319 669.318,1150.314 668.131,1150.314 L645.949,1150.314 C644.764,1150.314 643.802,1149.329 643.802,1148.114 L643.802,1148.114 C643.802,1146.899 644.764,1145.914 645.949,1145.914 z" fill="#FFFFFF"/>
          <path d="M656.96,1140.674 C653.094,1140.674 649.961,1137.463 649.961,1133.502 C649.961,1129.541 653.094,1126.33 656.96,1126.33 C660.826,1126.33 663.96,1129.541 663.96,1133.502 C663.96,1137.463 660.826,1140.674 656.96,1140.674 z" fill="#FFFFFF"/>
        </g>
      </g>
      <path d="M739.489,1117.536 L878.699,1117.536 C880.434,1117.536 881.841,1118.978 881.841,1120.756 L881.841,1154.286 C881.841,1156.064 880.434,1157.506 878.699,1157.506 L739.489,1157.506 C737.754,1157.506 736.347,1156.064 736.347,1154.286 L736.347,1120.756 C736.347,1118.978 737.754,1117.536 739.489,1117.536 z" fill="#D3D2D2"/>
      <g>
        <g>
          <path d="M797.576,1145.914 L819.783,1145.914 C820.97,1145.914 821.954,1146.899 821.954,1148.114 C821.954,1149.319 820.944,1150.314 819.757,1150.314 L797.576,1150.314 C796.39,1150.314 795.429,1149.329 795.429,1148.114 L795.429,1148.114 C795.429,1146.899 796.39,1145.914 797.576,1145.914 z" fill="#FFFFFF"/>
          <path d="M808.587,1140.674 C804.721,1140.674 801.588,1137.463 801.588,1133.502 C801.588,1129.541 804.721,1126.33 808.587,1126.33 C812.453,1126.33 815.587,1129.541 815.587,1133.502 C815.587,1137.463 812.453,1140.674 808.587,1140.674 z" fill="#FFFFFF"/>
        </g>
      </g>
      <path d="M891.116,1117.536 L1030.326,1117.536 C1032.061,1117.536 1033.468,1118.978 1033.468,1120.756 L1033.468,1154.286 C1033.468,1156.064 1032.061,1157.506 1030.326,1157.506 L891.116,1157.506 C889.38,1157.506 887.973,1156.064 887.973,1154.286 L887.973,1120.756 C887.973,1118.978 889.38,1117.536 891.116,1117.536 z" fill="#D3D2D2"/>
      <g>
        <g>
          <path d="M949.605,1145.914 L971.812,1145.914 C972.999,1145.914 973.984,1146.899 973.984,1148.114 C973.984,1149.319 972.973,1150.314 971.786,1150.314 L949.605,1150.314 C948.419,1150.314 947.458,1149.329 947.458,1148.114 L947.458,1148.114 C947.458,1146.899 948.419,1145.914 949.605,1145.914 z" fill="#FFFFFF"/>
          <path d="M960.616,1140.674 C956.75,1140.674 953.617,1137.463 953.617,1133.502 C953.617,1129.541 956.75,1126.33 960.616,1126.33 C964.482,1126.33 967.616,1129.541 967.616,1133.502 C967.616,1137.463 964.482,1140.674 960.616,1140.674 z" fill="#FFFFFF"/>
        </g>
      </g>
      <path d="M1041.957,1117.536 L1181.167,1117.536 C1182.902,1117.536 1184.309,1118.978 1184.309,1120.756 L1184.309,1154.286 C1184.309,1156.064 1182.902,1157.506 1181.167,1157.506 L1041.957,1157.506 C1040.221,1157.506 1038.814,1156.064 1038.814,1154.286 L1038.814,1120.756 C1038.814,1118.978 1040.221,1117.536 1041.957,1117.536 z" fill="#D3D2D2"/>
      <g>
        <g>
          <path d="M1100.446,1145.914 L1122.654,1145.914 C1123.84,1145.914 1124.825,1146.899 1124.825,1148.114 C1124.825,1149.319 1123.814,1150.314 1122.628,1150.314 L1100.446,1150.314 C1099.26,1150.314 1098.299,1149.329 1098.299,1148.114 L1098.299,1148.114 C1098.299,1146.899 1099.26,1145.914 1100.446,1145.914 z" fill="#FFFFFF"/>
          <path d="M1111.457,1140.674 C1107.591,1140.674 1104.458,1137.463 1104.458,1133.502 C1104.458,1129.541 1107.591,1126.33 1111.457,1126.33 C1115.323,1126.33 1118.457,1129.541 1118.457,1133.502 C1118.457,1137.463 1115.323,1140.674 1111.457,1140.674 z" fill="#FFFFFF"/>
        </g>
      </g>
      <path d="M1192.012,1117.536 L1331.222,1117.536 C1332.957,1117.536 1334.364,1118.978 1334.364,1120.756 L1334.364,1154.286 C1334.364,1156.064 1332.957,1157.506 1331.222,1157.506 L1192.012,1157.506 C1190.276,1157.506 1188.869,1156.064 1188.869,1154.286 L1188.869,1120.756 C1188.869,1118.978 1190.276,1117.536 1192.012,1117.536 z" fill="#D3D2D2"/>
      <g>
        <g>
          <path d="M1250.501,1145.914 L1272.709,1145.914 C1273.895,1145.914 1274.88,1146.899 1274.88,1148.114 C1274.88,1149.319 1273.869,1150.314 1272.683,1150.314 L1250.501,1150.314 C1249.315,1150.314 1248.354,1149.329 1248.354,1148.114 L1248.354,1148.114 C1248.354,1146.899 1249.315,1145.914 1250.501,1145.914 z" fill="#FFFFFF"/>
          <path d="M1261.512,1140.674 C1257.646,1140.674 1254.513,1137.463 1254.513,1133.502 C1254.513,1129.541 1257.646,1126.33 1261.512,1126.33 C1265.378,1126.33 1268.512,1129.541 1268.512,1133.502 C1268.512,1137.463 1265.378,1140.674 1261.512,1140.674 z" fill="#FFFFFF"/>
        </g>
      </g>
      <path d="M596.324,1150.314 z" fill="#DDDDDD"/>
    </g>
    <g>
      <g>
        <path d="M595.282,122.471 L1325.779,122.471 C1326.975,122.471 1327.944,123.717 1327.944,125.254 L1327.944,167.381 C1327.944,168.918 1326.975,170.164 1325.779,170.164 L595.282,170.164 C594.086,170.164 593.117,168.918 593.117,167.381 L593.117,125.254 C593.117,123.717 594.086,122.471 595.282,122.471 z" fill="#FFFFFF"/>
        <path d="M595.282,122.471 L1325.779,122.471 C1326.975,122.471 1327.944,123.717 1327.944,125.254 L1327.944,167.381 C1327.944,168.918 1326.975,170.164 1325.779,170.164 L595.282,170.164 C594.086,170.164 593.117,168.918 593.117,167.381 L593.117,125.254 C593.117,123.717 594.086,122.471 595.282,122.471 z" fill-opacity="0" stroke="#4C35F1" stroke-width="4" stroke-dasharray="12,8" stroke-linecap="round" stroke-linejoin="round"/>
      </g>
      <path d="M820.728,141.109 L870.115,141.109 C872.416,141.109 874.281,143.441 874.281,146.318 L874.281,146.318 C874.281,149.195 872.416,151.526 870.115,151.526 L820.728,151.526 C818.427,151.526 816.561,149.195 816.561,146.318 L816.561,146.318 C816.561,143.441 818.427,141.109 820.728,141.109 z" fill="#959595"/>
      <path d="M749.705,141.109 L799.092,141.109 C801.393,141.109 803.258,143.441 803.258,146.318 L803.258,146.318 C803.258,149.195 801.393,151.526 799.092,151.526 L749.705,151.526 C747.404,151.526 745.538,149.195 745.538,146.318 L745.538,146.318 C745.538,143.441 747.404,141.109 749.705,141.109 z" fill="#959595"/>
      <path d="M891.622,141.109 L941.01,141.109 C943.31,141.109 945.176,143.441 945.176,146.318 L945.176,146.318 C945.176,149.195 943.31,151.526 941.01,151.526 L891.622,151.526 C889.321,151.526 887.456,149.195 887.456,146.318 L887.456,146.318 C887.456,143.441 889.321,141.109 891.622,141.109 z" fill="#959595"/>
      <g>
        <path d="M683.944,153.184 L683.944,139.446 Q683.944,139.163 684.055,138.98 Q684.164,138.797 684.328,138.797 L685.735,138.797 Q685.898,138.797 686.008,138.98 Q686.118,139.163 686.118,139.446 L686.118,153.184 Q686.118,153.457 686.008,153.64 Q685.898,153.823 685.735,153.823 L684.328,153.823 Q684.164,153.823 684.055,153.64 Q683.944,153.457 683.944,153.184 z" fill="#787878"/>
        <g>
          <path d="M687.392,153.504 L687.392,144.408 Q687.392,144.26 687.51,144.164 Q687.628,144.068 687.81,144.068 L691.247,144.068 Q691.423,144.068 691.54,144.164 Q691.658,144.26 691.658,144.408 L691.658,146.001 Q691.658,146.149 691.54,146.245 Q691.423,146.341 691.247,146.341 L689.589,146.341 L689.589,151.623 L691.247,151.623 Q691.423,151.623 691.54,151.718 Q691.658,151.814 691.658,151.957 L691.658,153.504 Q691.658,153.646 691.54,153.742 Q691.423,153.838 691.247,153.838 L687.81,153.838 Q687.628,153.838 687.51,153.742 Q687.392,153.646 687.392,153.504 z" fill="#787878"/>
          <path d="M696.48,144.402 L696.48,153.498 Q696.48,153.646 696.362,153.742 Q696.244,153.838 696.062,153.838 L692.625,153.838 Q692.45,153.838 692.331,153.742 Q692.213,153.646 692.213,153.498 L692.213,151.965 Q692.213,151.817 692.331,151.722 Q692.45,151.626 692.625,151.626 L694.283,151.626 L694.283,146.335 L692.625,146.335 Q692.45,146.335 692.331,146.239 Q692.213,146.143 692.213,146.001 L692.213,144.402 Q692.213,144.26 692.331,144.164 Q692.45,144.068 692.625,144.068 L696.062,144.068 Q696.244,144.068 696.362,144.164 Q696.48,144.26 696.48,144.402 z" fill="#787878"/>
        </g>
        <path d="M650.485,149.166 L650.485,148.731 Q650.485,148.147 650.889,147.766 L654.718,144.197 Q654.954,143.993 655.132,144.113 Q655.31,144.232 655.31,144.56 L655.31,146.083 Q655.31,146.739 654.718,147.279 L652.928,148.944 L654.718,150.618 Q655.31,151.159 655.31,151.814 L655.31,153.338 Q655.31,153.665 655.132,153.78 Q654.954,153.896 654.718,153.701 L650.889,150.123 Q650.485,149.75 650.485,149.166 z" fill="#787878"/>
        <path d="M658.024,143.296 L658.024,139 Q658.024,138.911 658.134,138.854 Q658.244,138.797 658.407,138.797 L659.814,138.797 Q659.978,138.797 660.088,138.854 Q660.198,138.911 660.198,139 L660.198,143.296 Q660.198,143.381 660.088,143.438 Q659.978,143.496 659.814,143.496 L658.407,143.496 Q658.244,143.496 658.134,143.438 Q658.024,143.381 658.024,143.296 z" fill="#787878"/>
        <path d="M660.935,143.296 L660.935,141.897 Q660.935,141.808 661.045,141.751 Q661.155,141.694 661.318,141.694 L662.725,141.694 Q662.888,141.694 662.999,141.751 Q663.109,141.808 663.109,141.897 L663.109,143.296 Q663.109,143.381 662.999,143.438 Q662.888,143.496 662.725,143.496 L661.318,143.496 Q661.155,143.496 661.045,143.438 Q660.935,143.381 660.935,143.296 z" fill="#787878"/>
        <path d="M660.198,144.402 L660.198,153.484 Q660.198,153.632 660.08,153.728 Q659.962,153.823 659.78,153.823 L656.348,153.823 Q656.173,153.823 656.055,153.728 Q655.938,153.632 655.938,153.484 L655.938,151.954 Q655.938,151.806 656.055,151.71 Q656.173,151.614 656.348,151.614 L658.004,151.614 L658.004,146.332 L656.348,146.332 Q656.173,146.332 656.055,146.236 Q655.938,146.141 655.938,145.998 L655.938,144.402 Q655.938,144.26 656.055,144.164 Q656.173,144.068 656.348,144.068 L659.78,144.068 Q659.962,144.068 660.08,144.164 Q660.198,144.26 660.198,144.402 z" fill="#787878"/>
        <g>
          <path d="M682.902,148.726 L682.902,149.16 Q682.902,149.744 682.499,150.125 L678.669,153.695 Q678.434,153.898 678.256,153.779 Q678.077,153.659 678.077,153.331 L678.077,151.808 Q678.077,151.153 678.669,150.613 L680.459,148.947 L678.669,147.273 Q678.077,146.733 678.077,146.078 L678.077,144.554 Q678.077,144.226 678.256,144.111 Q678.434,143.996 678.669,144.191 L682.499,147.769 Q682.902,148.141 682.902,148.726 z" fill="#787878"/>
          <path d="M673.189,143.296 L673.189,139 Q673.189,138.912 673.299,138.854 Q673.41,138.797 673.573,138.797 L674.98,138.797 Q675.143,138.797 675.253,138.854 Q675.363,138.912 675.363,139 L675.363,143.296 Q675.363,143.381 675.253,143.438 Q675.143,143.496 674.98,143.496 L673.573,143.496 Q673.41,143.496 673.299,143.438 Q673.189,143.381 673.189,143.296 z" fill="#787878"/>
          <path d="M673.19,153.489 L673.19,144.408 Q673.19,144.26 673.308,144.164 Q673.425,144.068 673.607,144.068 L677.039,144.068 Q677.214,144.068 677.332,144.164 Q677.45,144.26 677.45,144.408 L677.45,145.938 Q677.45,146.086 677.332,146.182 Q677.214,146.277 677.039,146.277 L675.384,146.277 L675.384,151.559 L677.039,151.559 Q677.214,151.559 677.332,151.655 Q677.45,151.751 677.45,151.893 L677.45,153.489 Q677.45,153.632 677.332,153.728 Q677.214,153.823 677.039,153.823 L673.607,153.823 Q673.425,153.823 673.308,153.728 Q673.19,153.632 673.19,153.489 z" fill="#787878"/>
        </g>
        <path d="M660.858,153.282 L660.858,144.624 Q660.858,144.378 660.975,144.223 Q661.093,144.068 661.268,144.068 L662.776,144.068 Q662.957,144.068 663.071,144.227 Q663.186,144.387 663.186,144.624 L663.186,153.282 Q663.186,153.528 663.068,153.683 Q662.951,153.838 662.776,153.838 L661.268,153.838 Q661.086,153.838 660.972,153.683 Q660.858,153.528 660.858,153.282 z" fill="#787878"/>
        <path d="M664.097,144.068 L665.389,144.068 Q665.678,144.068 665.934,144.286 Q666.19,144.504 666.298,144.852 L668.134,150.397 L669.965,144.852 Q670.073,144.504 670.329,144.286 Q670.584,144.068 670.873,144.068 L672.173,144.068 Q672.408,144.068 672.482,144.3 Q672.516,144.389 672.513,144.527 Q672.509,144.665 672.448,144.852 L669.541,153.04 Q669.42,153.387 669.161,153.605 Q668.902,153.823 668.626,153.823 L667.636,153.823 Q667.361,153.823 667.105,153.605 Q666.849,153.387 666.728,153.04 L663.821,144.852 Q663.753,144.656 663.753,144.522 Q663.753,144.068 664.097,144.068 z" fill="#787878"/>
        <g>
          <path d="M702.611,149.165 L702.611,148.731 Q702.611,148.147 703.015,147.766 L706.844,144.196 Q707.08,143.993 707.258,144.112 Q707.437,144.232 707.437,144.559 L707.437,146.083 Q707.437,146.738 706.844,147.279 L705.054,148.944 L706.844,150.618 Q707.437,151.158 707.437,151.814 L707.437,153.337 Q707.437,153.665 707.258,153.78 Q707.08,153.895 706.844,153.7 L703.015,150.122 Q702.611,149.75 702.611,149.165 z" fill="#787878"/>
          <path d="M702.364,148.741 L702.364,149.175 Q702.364,149.759 701.96,150.14 L698.131,153.71 Q697.895,153.913 697.717,153.794 Q697.539,153.674 697.539,153.346 L697.539,151.823 Q697.539,151.168 698.131,150.627 L699.921,148.962 L698.131,147.288 Q697.539,146.748 697.539,146.092 L697.539,144.569 Q697.539,144.241 697.717,144.126 Q697.895,144.011 698.131,144.206 L701.96,147.784 Q702.364,148.156 702.364,148.741 z" fill="#787878"/>
        </g>
      </g>
      <g>
        <path d="M1161.569,136.782 L1307.167,136.782 C1310.177,136.782 1312.616,139.221 1312.616,142.231 L1312.616,150.404 C1312.616,153.414 1310.177,155.854 1307.167,155.854 L1161.569,155.854 C1158.56,155.854 1156.12,153.414 1156.12,150.404 L1156.12,142.231 C1156.12,139.221 1158.56,136.782 1161.569,136.782 z" fill="#FFFFFF"/>
        <path d="M1161.569,136.782 L1307.167,136.782 C1310.177,136.782 1312.616,139.221 1312.616,142.231 L1312.616,150.404 C1312.616,153.414 1310.177,155.854 1307.167,155.854 L1161.569,155.854 C1158.56,155.854 1156.12,153.414 1156.12,150.404 L1156.12,142.231 C1156.12,139.221 1158.56,136.782 1161.569,136.782 z" fill-opacity="0" stroke="#959595" stroke-width="1"/>
      </g>
      <path d="M1167.565,144.09 L1174.825,144.09 C1176.055,144.09 1177.053,145.087 1177.053,146.318 L1177.068,146.376 C1177.068,147.606 1176.055,148.546 1174.825,148.546 L1167.565,148.546 C1166.334,148.546 1165.337,147.548 1165.337,146.318 L1165.337,146.318 C1165.337,145.087 1166.334,144.09 1167.565,144.09 z" fill="#959595"/>
      <g>
        <path d="M1181.475,144.09 L1207.886,144.09 C1209.117,144.09 1210.114,145.087 1210.114,146.318 L1210.114,146.318 C1210.114,147.548 1209.117,148.546 1207.886,148.546 L1181.475,148.546 C1180.245,148.546 1179.247,147.548 1179.247,146.318 L1179.247,146.318 C1179.247,145.087 1180.245,144.09 1181.475,144.09 z" fill="#959595"/>
        <path d="M1181.475,144.09 L1207.886,144.09 C1209.117,144.09 1210.114,145.087 1210.114,146.318 L1210.114,146.318 C1210.114,147.548 1209.117,148.546 1207.886,148.546 L1181.475,148.546 C1180.245,148.546 1179.247,147.548 1179.247,146.318 L1179.247,146.318 C1179.247,145.087 1180.245,144.09 1181.475,144.09 z" fill-opacity="0" stroke="#959595" stroke-width="1"/>
      </g>
      <path d="M1181.475,144.09 L1207.886,144.09 C1209.116,144.09 1210.114,145.087 1210.114,146.318 L1210.114,146.318 C1210.114,147.548 1209.116,148.546 1207.886,148.546 L1181.475,148.546 C1180.245,148.546 1179.247,147.548 1179.247,146.318 L1179.247,146.318 C1179.247,145.087 1180.245,144.09 1181.475,144.09 z" fill="#959595"/>
      <path d="M1302.587,147.341 Q1303.302,146.626 1303.302,145.624 Q1303.302,144.623 1302.59,143.911 Q1301.877,143.199 1300.875,143.199 Q1299.874,143.199 1299.162,143.911 Q1298.45,144.623 1298.45,145.624 Q1298.45,146.626 1299.162,147.338 Q1299.874,148.051 1300.875,148.051 Q1301.877,148.051 1302.587,147.341 z M1306.074,150.13 Q1306.074,150.411 1305.868,150.617 Q1305.662,150.823 1305.381,150.823 Q1305.088,150.823 1304.893,150.617 L1303.036,148.765 Q1302.067,149.436 1300.875,149.436 Q1300.101,149.436 1299.395,149.136 Q1298.688,148.836 1298.177,148.324 Q1297.664,147.812 1297.364,147.105 Q1297.063,146.399 1297.063,145.624 Q1297.063,144.851 1297.364,144.143 Q1297.664,143.437 1298.177,142.925 Q1298.688,142.413 1299.395,142.113 Q1300.101,141.812 1300.875,141.812 Q1301.65,141.812 1302.356,142.113 Q1303.064,142.413 1303.575,142.925 Q1304.087,143.437 1304.387,144.143 Q1304.688,144.851 1304.688,145.624 Q1304.688,146.816 1304.016,147.785 L1305.874,149.643 Q1306.074,149.843 1306.074,150.13 z" fill="#959595"/>
      <path d="M939.242,148.253 Q939.132,148.39 938.983,148.39 Q938.833,148.39 938.724,148.253 L936.146,145.029 Q936.036,144.893 936.036,144.706 Q936.036,144.519 936.146,144.382 Q936.255,144.245 936.405,144.245 L941.56,144.245 Q941.711,144.245 941.819,144.382 Q941.929,144.519 941.929,144.706 Q941.929,144.893 941.819,145.029 z" fill="#FFFFFF"/>
      <g>
        <g>
          <g>
            <path d="M610.671,146.063 L627.643,146.063" fill="#888888"/>
            <path d="M610.671,146.063 L627.643,146.063" fill-opacity="0" stroke="#959595" stroke-width="1"/>
          </g>
          <g>
            <path d="M610.671,146.063 L627.643,146.063" fill="#888888"/>
            <path d="M610.671,146.063 L627.643,146.063" fill-opacity="0" stroke="#959595" stroke-width="4" stroke-linecap="round"/>
          </g>
        </g>
        <g>
          <g>
            <path d="M610.671,139.953 L627.643,139.953" fill="#888888"/>
            <path d="M610.671,139.953 L627.643,139.953" fill-opacity="0" stroke="#959595" stroke-width="1"/>
          </g>
          <g>
            <path d="M610.671,139.953 L627.643,139.953" fill="#888888"/>
            <path d="M610.671,139.953 L627.643,139.953" fill-opacity="0" stroke="#959595" stroke-width="4" stroke-linecap="round"/>
          </g>
        </g>
        <g>
          <g>
            <path d="M610.671,152.683 L627.643,152.683" fill="#888888"/>
            <path d="M610.671,152.683 L627.643,152.683" fill-opacity="0" stroke="#959595" stroke-width="1"/>
          </g>
          <g>
            <path d="M610.671,152.683 L627.643,152.683" fill="#888888"/>
            <path d="M610.671,152.683 L627.643,152.683" fill-opacity="0" stroke="#959595" stroke-width="4" stroke-linecap="round"/>
          </g>
        </g>
      </g>
    </g>
    <g>
      <g>
        <path d="M259.905,973.137 L259.905,308.608 C259.905,306.819 261.632,305.369 263.763,305.369 L322.174,305.369 C324.305,305.369 326.032,306.819 326.032,308.608 L326.032,973.137 C326.032,974.926 324.305,976.376 322.174,976.376 L263.763,976.376 C261.632,976.376 259.905,974.926 259.905,973.137 z" fill="#FFFFFF"/>
        <path d="M259.905,973.137 L259.905,308.608 C259.905,306.819 261.632,305.369 263.763,305.369 L322.174,305.369 C324.305,305.369 326.032,306.819 326.032,308.608 L326.032,973.137 C326.032,974.926 324.305,976.376 322.174,976.376 L263.763,976.376 C261.632,976.376 259.905,974.926 259.905,973.137 z" fill-opacity="0" stroke="#4C35F1" stroke-width="4" stroke-dasharray="12,8" stroke-linecap="round" stroke-linejoin="round"/>
      </g>
      <g>
        <g>
          <g>
            <path d="M286.451,322.535 L299.487,322.535" fill="#888888"/>
            <path d="M286.451,322.535 L299.487,322.535" fill-opacity="0" stroke="#959595" stroke-width="1"/>
          </g>
          <g>
            <path d="M286.451,322.535 L299.487,322.535" fill="#888888"/>
            <path d="M286.451,322.535 L299.487,322.535" fill-opacity="0" stroke="#959595" stroke-width="4" stroke-linecap="round"/>
          </g>
        </g>
        <g>
          <g>
            <path d="M286.451,317.842 L299.487,317.842" fill="#888888"/>
            <path d="M286.451,317.842 L299.487,317.842" fill-opacity="0" stroke="#959595" stroke-width="1"/>
          </g>
          <g>
            <path d="M286.451,317.842 L299.487,317.842" fill="#888888"/>
            <path d="M286.451,317.842 L299.487,317.842" fill-opacity="0" stroke="#959595" stroke-width="4" stroke-linecap="round"/>
          </g>
        </g>
        <g>
          <g>
            <path d="M286.451,327.62 L299.487,327.62" fill="#888888"/>
            <path d="M286.451,327.62 L299.487,327.62" fill-opacity="0" stroke="#959595" stroke-width="1"/>
          </g>
          <g>
            <path d="M286.451,327.62 L299.487,327.62" fill="#888888"/>
            <path d="M286.451,327.62 L299.487,327.62" fill-opacity="0" stroke="#959595" stroke-width="4" stroke-linecap="round"/>
          </g>
        </g>
      </g>
      <g>
        <path d="M276.272,338.125 L309.664,338.125 C313.447,338.125 316.514,341.192 316.514,344.975 L316.514,378.367 C316.514,382.15 313.447,385.217 309.664,385.217 L276.272,385.217 C272.49,385.217 269.423,382.15 269.423,378.367 L269.423,344.975 C269.423,341.192 272.49,338.125 276.272,338.125 z" fill="#B1B1B1"/>
        <g>
          <path d="M280.874,369.734 L305.038,369.734 C306.329,369.734 307.4,370.78 307.4,372.071 C307.4,373.351 306.3,374.407 305.009,374.407 L280.874,374.407 C279.583,374.407 278.537,373.361 278.537,372.071 L278.537,372.071 C278.537,370.78 279.583,369.734 280.874,369.734 z" fill="#FFFFFF"/>
          <path d="M292.855,364.169 C288.648,364.169 285.239,360.758 285.239,356.552 C285.239,352.345 288.648,348.935 292.855,348.935 C297.061,348.935 300.472,352.345 300.472,356.552 C300.472,360.758 297.061,364.169 292.855,364.169 z" fill="#FFFFFF"/>
        </g>
      </g>
      <g>
        <path d="M280.874,422.818 L305.038,422.818 C306.329,422.818 307.4,423.865 307.4,425.155 C307.4,426.435 306.3,427.491 305.009,427.491 L280.874,427.491 C279.583,427.491 278.537,426.445 278.537,425.155 L278.537,425.155 C278.537,423.865 279.583,422.818 280.874,422.818 z" fill="#B1B1B1"/>
        <path d="M292.855,417.253 C288.648,417.253 285.239,413.843 285.239,409.636 C285.239,405.43 288.648,402.02 292.855,402.02 C297.061,402.02 300.472,405.43 300.472,409.636 C300.472,413.843 297.061,417.253 292.855,417.253 z" fill="#B1B1B1"/>
      </g>
      <g>
        <path d="M280.874,475.475 L305.038,475.475 C306.329,475.475 307.4,476.521 307.4,477.811 C307.4,479.091 306.3,480.148 305.009,480.148 L280.874,480.148 C279.583,480.148 278.537,479.102 278.537,477.811 L278.537,477.811 C278.537,476.521 279.583,475.475 280.874,475.475 z" fill="#B1B1B1"/>
        <path d="M292.855,469.91 C288.648,469.91 285.239,466.499 285.239,462.293 C285.239,458.086 288.648,454.676 292.855,454.676 C297.061,454.676 300.472,458.086 300.472,462.293 C300.472,466.499 297.061,469.91 292.855,469.91 z" fill="#B1B1B1"/>
      </g>
      <path d="M284.495,912.66 z" fill="#DDDDDD"/>
      <g>
        <path d="M292.968,967.287 C306.369,967.287 317.233,956.423 317.233,943.022 C317.233,929.621 306.369,918.758 292.968,918.758 C279.567,918.758 268.704,929.621 268.704,943.022 C268.704,956.423 279.567,967.287 292.968,967.287 z" fill="#ABABAB"/>
        <path d="M305.993,959.685 C305.957,957.924 304.953,956.326 303.377,955.543 L297.92,952.757 C297.551,952.566 297.32,952.184 297.32,951.761 L297.32,950.092 C300.112,948.89 301.723,946.543 302.508,943.617 C303.688,943.25 304.559,942.16 304.559,940.859 L304.559,939.419 C304.559,938.307 303.914,937.346 302.994,936.865 C302.359,931.416 298.755,929.218 292.971,929.218 C292.696,929.218 292.426,929.225 292.166,929.245 C290.2,929.401 288.213,929.033 286.574,927.931 C285.895,927.472 285.324,926.983 284.92,926.474 C284.735,926.241 284.368,926.389 284.404,926.686 C284.46,927.189 284.546,927.783 284.672,928.425 C285.154,930.828 284.871,930.483 283.938,932.745 C283.429,934.002 283.096,935.389 282.94,936.865 C282.028,937.354 281.393,938.307 281.393,939.419 L281.393,940.859 C281.393,942.16 282.262,943.25 283.443,943.617 C284.22,946.543 285.832,948.89 288.632,950.092 L288.632,951.753 C288.632,952.177 288.391,952.566 288.009,952.75 L282.417,955.506 C280.89,956.333 279.944,957.939 279.944,959.67 L279.944,959.685 z M305.993,959.685" fill="#FFFFFF"/>
      </g>
    </g>
    <g id="new_page_component_top-instance">
      <g>
        <path d="M1809.108,862.579 L1552.343,862.579 C1550.937,862.579 1549.797,859.291 1549.797,855.235 L1549.797,417.421 L1811.654,417.421 L1811.654,855.235 C1811.654,859.291 1810.514,862.579 1809.108,862.579" fill="#EAEAEA"/>
        <path d="M1809.108,862.579 L1552.343,862.579 C1550.937,862.579 1549.797,859.291 1549.797,855.235 L1549.797,417.421 L1811.654,417.421 L1811.654,855.235 C1811.654,859.291 1810.514,862.579 1809.108,862.579" fill-opacity="0" stroke="#555555" stroke-width="1"/>
      </g>
      <g>
        <path d="M1555.219,421.758 L1804.935,421.758 C1806.563,421.758 1807.883,423.454 1807.883,425.547 L1807.883,482.91 C1807.883,485.002 1806.563,486.699 1804.935,486.699 L1555.219,486.699 C1553.591,486.699 1552.271,485.002 1552.271,482.91 L1552.271,425.547 C1552.271,423.454 1553.591,421.758 1555.219,421.758 z" fill="#FFFFFF"/>
        <path d="M1555.219,421.758 L1804.935,421.758 C1806.563,421.758 1807.883,423.454 1807.883,425.547 L1807.883,482.91 C1807.883,485.002 1806.563,486.699 1804.935,486.699 L1555.219,486.699 C1553.591,486.699 1552.271,485.002 1552.271,482.91 L1552.271,425.547 C1552.271,423.454 1553.591,421.758 1555.219,421.758 z" fill-opacity="0" stroke="#4C35F1" stroke-width="3" stroke-dasharray="9,6" stroke-linecap="round" stroke-linejoin="round"/>
      </g>
      <g>
        <path d="M1680.725,514.015 L1680.725,557.321 M1680.725,573.791 L1680.725,567.507 M1696.871,530.16 L1680.725,514.015 M1664.58,530.16 L1680.725,514.015" fill-opacity="0" stroke="#4C35F1" stroke-width="6" stroke-linecap="round"/>
      </g>
      <g id="shapes-and-symbols">
        <path d="M1696.207,598.096 L1663.946,598.096 C1660.236,598.1 1657.23,601.107 1657.225,604.817 L1657.225,674.715 C1657.23,678.425 1660.236,681.432 1663.946,681.436 L1696.207,681.436 C1699.918,681.432 1702.924,678.425 1702.929,674.715 L1702.929,604.817 C1702.924,601.107 1699.918,598.1 1696.207,598.096 z M1689.191,600.784 L1688.384,604.817 L1671.77,604.817 L1670.963,600.784 z M1700.24,674.715 C1700.238,676.941 1698.433,678.745 1696.207,678.748 L1663.946,678.748 C1661.721,678.745 1659.916,676.941 1659.914,674.715 L1659.914,604.817 C1659.916,602.591 1661.721,600.787 1663.946,600.784 L1668.221,600.784 L1669.349,606.425 C1669.475,607.053 1670.027,607.505 1670.668,607.505 L1689.486,607.505 C1690.127,607.505 1690.679,607.053 1690.805,606.425 L1691.933,600.784 L1696.207,600.784 C1698.433,600.787 1700.238,602.591 1700.24,604.817 z" fill="#FFFFFF"/>
        <path d="M1672.012,673.371 L1663.946,673.371 C1663.204,673.371 1662.603,673.973 1662.603,674.715 C1662.603,675.458 1663.204,676.059 1663.946,676.059 L1672.012,676.059 C1672.754,676.059 1673.356,675.458 1673.356,674.715 C1673.356,673.973 1672.754,673.371 1672.012,673.371 z" fill="#FFFFFF"/>
        <path d="M1677.389,673.371 L1676.044,673.371 C1675.302,673.371 1674.7,673.973 1674.7,674.715 C1674.7,675.458 1675.302,676.059 1676.044,676.059 L1677.389,676.059 C1678.131,676.059 1678.733,675.458 1678.733,674.715 C1678.733,673.973 1678.131,673.371 1677.389,673.371 z" fill="#FFFFFF"/>
      </g>
      <g>
        <g>
          <path d="M1670.388,642.599 L1670.388,642.169 Q1670.388,641.588 1670.788,641.211 L1674.587,637.669 Q1674.82,637.468 1674.997,637.586 Q1675.174,637.705 1675.174,638.03 L1675.174,639.541 Q1675.174,640.192 1674.587,640.727 L1672.811,642.379 L1674.587,644.04 Q1675.174,644.576 1675.174,645.226 L1675.174,646.738 Q1675.174,647.063 1674.997,647.177 Q1674.82,647.291 1674.587,647.098 L1670.788,643.548 Q1670.388,643.179 1670.388,642.599 z" fill="#FFFFFF"/>
          <path d="M1677.866,636.776 L1677.866,632.514 Q1677.866,632.427 1677.976,632.369 Q1678.085,632.313 1678.247,632.313 L1679.643,632.313 Q1679.805,632.313 1679.913,632.369 Q1680.023,632.427 1680.023,632.514 L1680.023,636.776 Q1680.023,636.86 1679.913,636.917 Q1679.805,636.974 1679.643,636.974 L1678.247,636.974 Q1678.085,636.974 1677.976,636.917 Q1677.866,636.86 1677.866,636.776 z" fill="#FFFFFF"/>
          <path d="M1680.023,637.874 L1680.023,646.883 Q1680.023,647.029 1679.906,647.125 Q1679.789,647.219 1679.609,647.219 L1676.204,647.219 Q1676.03,647.219 1675.913,647.125 Q1675.797,647.029 1675.797,646.883 L1675.797,645.365 Q1675.797,645.218 1675.913,645.123 Q1676.03,645.028 1676.204,645.028 L1677.846,645.028 L1677.846,639.788 L1676.204,639.788 Q1676.03,639.788 1675.913,639.693 Q1675.797,639.598 1675.797,639.457 L1675.797,637.874 Q1675.797,637.732 1675.913,637.637 Q1676.03,637.542 1676.204,637.542 L1679.609,637.542 Q1679.789,637.542 1679.906,637.637 Q1680.023,637.732 1680.023,637.874 z" fill="#FFFFFF"/>
        </g>
        <g>
          <path d="M1686.276,642.584 L1686.276,642.153 Q1686.276,641.574 1686.677,641.196 L1690.475,637.655 Q1690.709,637.453 1690.886,637.571 Q1691.063,637.69 1691.063,638.015 L1691.063,639.526 Q1691.063,640.176 1690.475,640.712 L1688.7,642.365 L1690.475,644.025 Q1691.063,644.561 1691.063,645.211 L1691.063,646.722 Q1691.063,647.048 1690.886,647.162 Q1690.709,647.276 1690.475,647.083 L1686.677,643.533 Q1686.276,643.164 1686.276,642.584 z" fill="#FFFFFF"/>
          <path d="M1686.031,642.163 L1686.031,642.593 Q1686.031,643.173 1685.63,643.551 L1681.832,647.092 Q1681.598,647.294 1681.421,647.175 Q1681.244,647.057 1681.244,646.732 L1681.244,645.22 Q1681.244,644.57 1681.832,644.034 L1683.608,642.382 L1681.832,640.722 Q1681.244,640.186 1681.244,639.535 L1681.244,638.024 Q1681.244,637.699 1681.421,637.585 Q1681.598,637.47 1681.832,637.664 L1685.63,641.214 Q1686.031,641.583 1686.031,642.163 z" fill="#FFFFFF"/>
        </g>
      </g>
      <path d="M1570.43,440.185 L1634.231,440.185 C1636.545,440.185 1638.421,442.061 1638.421,444.375 L1638.421,464.083 C1638.421,466.396 1636.545,468.272 1634.231,468.272 L1570.43,468.272 C1568.116,468.272 1566.24,466.396 1566.24,464.083 L1566.24,444.375 C1566.24,442.061 1568.116,440.185 1570.43,440.185 z" fill="#959595"/>
      <path d="M1580.236,449.887 Q1580.359,450.01 1580.359,450.17 Q1580.359,450.329 1580.236,450.452 L1575.412,455.276 L1580.236,460.1 Q1580.359,460.222 1580.359,460.382 Q1580.359,460.542 1580.236,460.664 L1579.622,461.278 Q1579.499,461.401 1579.34,461.401 Q1579.18,461.401 1579.057,461.278 L1573.338,455.558 Q1573.215,455.435 1573.215,455.276 Q1573.215,455.116 1573.338,454.993 L1579.057,449.274 Q1579.18,449.151 1579.34,449.151 Q1579.499,449.151 1579.622,449.274 z" fill="#FFFFFF"/>
      <path d="M1783.726,454.562 Q1784.646,453.641 1784.646,452.34 Q1784.646,451.039 1783.726,450.118 Q1782.805,449.198 1781.504,449.198 Q1780.203,449.198 1779.282,450.118 Q1778.362,451.039 1778.362,452.34 Q1778.362,453.641 1779.282,454.562 Q1780.203,455.482 1781.504,455.482 Q1782.805,455.482 1783.726,454.562 z M1794.073,458.624 Q1794.073,457.986 1793.607,457.52 Q1793.141,457.053 1792.502,457.053 Q1791.864,457.053 1791.397,457.52 Q1790.931,457.986 1790.931,458.624 Q1790.931,459.275 1791.391,459.735 Q1791.852,460.196 1792.502,460.196 Q1793.153,460.196 1793.613,459.735 Q1794.073,459.275 1794.073,458.624 z M1794.073,446.055 Q1794.073,445.417 1793.607,444.951 Q1793.141,444.484 1792.502,444.484 Q1791.864,444.484 1791.397,444.951 Q1790.931,445.417 1790.931,446.055 Q1790.931,446.706 1791.391,447.166 Q1791.852,447.626 1792.502,447.626 Q1793.153,447.626 1793.613,447.166 Q1794.073,446.706 1794.073,446.055 z M1789.36,451.223 L1789.36,453.494 Q1789.36,453.616 1789.274,453.733 Q1789.188,453.85 1789.078,453.862 L1787.175,454.157 Q1787.04,454.586 1786.782,455.089 Q1787.2,455.679 1787.887,456.501 Q1787.973,456.636 1787.973,456.746 Q1787.973,456.894 1787.887,456.98 Q1787.605,457.348 1786.874,458.078 Q1786.144,458.809 1785.911,458.809 Q1785.776,458.809 1785.653,458.723 L1784.241,457.618 Q1783.787,457.851 1783.296,457.998 Q1783.161,459.324 1783.014,459.901 Q1782.928,460.196 1782.646,460.196 L1780.363,460.196 Q1780.228,460.196 1780.117,460.104 Q1780.007,460.011 1779.994,459.889 L1779.712,458.011 Q1779.295,457.888 1778.792,457.63 L1777.343,458.723 Q1777.257,458.809 1777.098,458.809 Q1776.963,458.809 1776.84,458.71 Q1775.072,457.078 1775.072,456.746 Q1775.072,456.636 1775.158,456.513 Q1775.281,456.341 1775.661,455.863 Q1776.042,455.384 1776.238,455.114 Q1775.956,454.574 1775.809,454.107 L1773.943,453.813 Q1773.82,453.801 1773.734,453.696 Q1773.648,453.592 1773.648,453.457 L1773.648,451.186 Q1773.648,451.063 1773.734,450.947 Q1773.82,450.83 1773.931,450.818 L1775.833,450.523 Q1775.968,450.094 1776.226,449.59 Q1775.809,449.001 1775.121,448.179 Q1775.036,448.044 1775.036,447.933 Q1775.036,447.786 1775.121,447.688 Q1775.391,447.32 1776.128,446.595 Q1776.864,445.871 1777.098,445.871 Q1777.233,445.871 1777.355,445.957 L1778.767,447.062 Q1779.184,446.841 1779.712,446.669 Q1779.847,445.343 1779.994,444.779 Q1780.08,444.484 1780.363,444.484 L1782.646,444.484 Q1782.781,444.484 1782.891,444.576 Q1783.002,444.668 1783.014,444.791 L1783.296,446.669 Q1783.714,446.792 1784.217,447.05 L1785.665,445.957 Q1785.763,445.871 1785.911,445.871 Q1786.046,445.871 1786.169,445.969 Q1787.936,447.602 1787.936,447.933 Q1787.936,448.032 1787.85,448.167 Q1787.703,448.363 1787.335,448.829 Q1786.966,449.296 1786.782,449.566 Q1787.065,450.155 1787.2,450.572 L1789.065,450.855 Q1789.188,450.879 1789.274,450.984 Q1789.36,451.088 1789.36,451.223 z M1797.216,457.765 L1797.216,459.484 Q1797.216,459.68 1795.387,459.864 Q1795.239,460.196 1795.018,460.502 Q1795.645,461.889 1795.645,462.196 Q1795.645,462.245 1795.595,462.282 Q1794.098,463.154 1794.073,463.154 Q1793.975,463.154 1793.509,462.577 Q1793.042,462 1792.87,461.742 Q1792.625,461.767 1792.502,461.767 Q1792.38,461.767 1792.134,461.742 Q1791.962,462 1791.496,462.577 Q1791.029,463.154 1790.931,463.154 Q1790.906,463.154 1789.409,462.282 Q1789.36,462.245 1789.36,462.196 Q1789.36,461.889 1789.986,460.502 Q1789.765,460.196 1789.618,459.864 Q1787.789,459.68 1787.789,459.484 L1787.789,457.765 Q1787.789,457.569 1789.618,457.385 Q1789.777,457.029 1789.986,456.746 Q1789.36,455.359 1789.36,455.053 Q1789.36,455.003 1789.409,454.967 Q1789.458,454.942 1789.839,454.721 Q1790.219,454.5 1790.563,454.304 Q1790.906,454.107 1790.931,454.107 Q1791.029,454.107 1791.496,454.678 Q1791.962,455.249 1792.134,455.507 Q1792.38,455.482 1792.502,455.482 Q1792.625,455.482 1792.87,455.507 Q1793.496,454.635 1794,454.132 L1794.073,454.107 Q1794.122,454.107 1795.595,454.967 Q1795.645,455.003 1795.645,455.053 Q1795.645,455.359 1795.018,456.746 Q1795.227,457.029 1795.387,457.385 Q1797.216,457.569 1797.216,457.765 z M1797.216,445.196 L1797.216,446.915 Q1797.216,447.111 1795.387,447.295 Q1795.239,447.626 1795.018,447.933 Q1795.645,449.32 1795.645,449.627 Q1795.645,449.676 1795.595,449.713 Q1794.098,450.585 1794.073,450.585 Q1793.975,450.585 1793.509,450.008 Q1793.042,449.431 1792.87,449.173 Q1792.625,449.198 1792.502,449.198 Q1792.38,449.198 1792.134,449.173 Q1791.962,449.431 1791.496,450.008 Q1791.029,450.585 1790.931,450.585 Q1790.906,450.585 1789.409,449.713 Q1789.36,449.676 1789.36,449.627 Q1789.36,449.32 1789.986,447.933 Q1789.765,447.626 1789.618,447.295 Q1787.789,447.111 1787.789,446.915 L1787.789,445.196 Q1787.789,445 1789.618,444.816 Q1789.777,444.46 1789.986,444.177 Q1789.36,442.79 1789.36,442.483 Q1789.36,442.434 1789.409,442.397 Q1789.458,442.373 1789.839,442.152 Q1790.219,441.931 1790.563,441.735 Q1790.906,441.538 1790.931,441.538 Q1791.029,441.538 1791.496,442.109 Q1791.962,442.68 1792.134,442.938 Q1792.38,442.913 1792.502,442.913 Q1792.625,442.913 1792.87,442.938 Q1793.496,442.066 1794,441.563 L1794.073,441.538 Q1794.122,441.538 1795.595,442.397 Q1795.645,442.434 1795.645,442.483 Q1795.645,442.79 1795.018,444.177 Q1795.227,444.46 1795.387,444.816 Q1797.216,445 1797.216,445.196 z" fill="#959595"/>
      <path d="M1592.213,451.209 L1623.018,451.209 C1624.686,451.209 1626.038,452.56 1626.038,454.228 L1626.038,454.228 C1626.038,455.896 1624.686,457.249 1623.018,457.249 L1592.213,457.249 C1590.545,457.249 1589.193,455.896 1589.193,454.228 L1589.193,454.228 C1589.193,452.56 1590.545,451.209 1592.213,451.209 z" fill="#FFFFFF"/>
    </g>
  </g>
</svg>
