<?xml version="1.0" encoding="UTF-8"?>
<!DOCTYPE svg PUBLIC "-//W3C//DTD SVG 1.1//EN" "http://www.w3.org/Graphics/SVG/1.1/DTD/svg11.dtd">
<svg version="1.1" xmlns="http://www.w3.org/2000/svg" xmlns:xlink="http://www.w3.org/1999/xlink" x="0" y="0" width="1920" height="1280" viewBox="0, 0, 1920, 1280">
  <defs>
    <clipPath id="Clip_1">
      <path d="M238.073,598.226 L370.213,598.226 L370.213,681.829 L238.073,681.829 z M361.213,637 L349.213,637 C347.556,637 346.213,638.343 346.213,640 C346.213,641.657 347.556,643 349.213,643 L361.213,643 C362.87,643 364.213,641.657 364.213,640 C364.213,638.343 362.87,637 361.213,637 z M278.475,606.226 C277.314,606.226 276.682,606.188 275.781,607.049 L244.952,637.879 L244.606,638.302 C244.583,638.325 244.589,638.314 244.582,638.332 C244.448,638.495 244.57,638.342 244.355,638.872 C244.131,639.402 244.154,639.207 244.132,639.418 C244.125,639.436 244.128,639.424 244.128,639.455 L244.073,640 L244.128,640.545 C244.128,640.576 244.125,640.564 244.132,640.582 C244.153,640.793 244.131,640.598 244.355,641.128 C244.57,641.658 244.449,641.505 244.582,641.668 C244.589,641.686 244.583,641.675 244.606,641.697 L244.952,642.121 L275.781,672.95 C276.953,674.122 278.852,674.122 280.024,672.95 C281.195,671.779 281.195,669.879 280.024,668.708 L254.316,643 L329.764,643 C331.421,643 332.764,641.657 332.764,640 C332.764,638.343 331.421,637 329.764,637 L254.316,637 L280.024,611.292 C281.195,610.121 281.195,608.221 280.024,607.049 C279.253,606.42 279.741,606.742 278.475,606.226 z"/>
    </clipPath>
    <filter id="Shadow_2">
      <feGaussianBlur in="SourceAlpha" stdDeviation="2.5"/>
      <feOffset dx="0" dy="2" result="offsetblur"/>
      <feFlood flood-color="#000000"/>
      <feComposite in2="offsetblur" operator="in"/>
    </filter>
    <clipPath id="Clip_3">
      <path d="M-1.756,-2.14 L146.244,-2.14 L146.244,1280.118 L-1.756,1280.118 z M92.982,1268.118 L98.982,1268.118 C98.982,1269.775 100.325,1271.118 101.982,1271.118 L119.982,1271.118 C121.639,1271.118 122.982,1269.775 122.982,1268.118 L127.01,1268.118 C128.635,1267.98 128.008,1268.157 128.943,1267.826 C129.002,1268.085 128.947,1267.869 129.259,1268.415 C130.223,1269.762 132.097,1270.073 133.445,1269.109 C135.804,1267.422 137.244,1264.86 137.244,1262.045 L137.244,1249.479 C137.244,1247.822 135.901,1246.479 134.244,1246.479 L134.244,1240.479 C135.901,1240.479 137.244,1239.135 137.244,1237.479 L137.244,1219.479 C137.244,1217.822 135.901,1216.479 134.244,1216.479 L134.244,1210.479 C135.901,1210.479 137.244,1209.135 137.244,1207.479 L137.244,1189.479 C137.244,1187.822 135.901,1186.479 134.244,1186.479 L134.244,1180.479 C135.901,1180.479 137.244,1179.135 137.244,1177.479 L137.244,1159.479 C137.244,1157.822 135.901,1156.479 134.244,1156.479 L134.244,1150.479 C135.901,1150.479 137.244,1149.135 137.244,1147.479 L137.244,1129.479 C137.244,1127.822 135.901,1126.479 134.244,1126.479 L134.244,1120.479 C135.901,1120.479 137.244,1119.135 137.244,1117.479 L137.244,1099.479 C137.244,1097.822 135.901,1096.479 134.244,1096.479 L134.244,1090.479 C135.901,1090.479 137.244,1089.135 137.244,1087.479 L137.244,1069.479 C137.244,1067.822 135.901,1066.479 134.244,1066.479 L134.244,1060.479 C135.901,1060.479 137.244,1059.135 137.244,1057.479 L137.244,1039.479 C137.244,1037.822 135.901,1036.479 134.244,1036.479 L134.244,1030.479 C135.901,1030.479 137.244,1029.135 137.244,1027.479 L137.244,1009.479 C137.244,1007.822 135.901,1006.479 134.244,1006.479 L134.244,1000.479 C135.901,1000.479 137.244,999.135 137.244,997.479 L137.244,979.479 C137.244,977.822 135.901,976.479 134.244,976.479 L134.244,970.479 C135.901,970.479 137.244,969.135 137.244,967.479 L137.244,949.479 C137.244,947.822 135.901,946.479 134.244,946.479 L134.244,940.479 C135.901,940.479 137.244,939.135 137.244,937.479 L137.244,919.479 C137.244,917.822 135.901,916.479 134.244,916.479 L134.244,910.479 C135.901,910.479 137.244,909.135 137.244,907.479 L137.244,889.479 C137.244,887.822 135.901,886.479 134.244,886.479 L134.244,880.479 C135.901,880.479 137.244,879.135 137.244,877.479 L137.244,859.479 C137.244,857.822 135.901,856.479 134.244,856.479 L134.244,850.479 C135.901,850.479 137.244,849.135 137.244,847.479 L137.244,829.479 C137.244,827.822 135.901,826.479 134.244,826.479 L134.244,820.479 C135.901,820.479 137.244,819.135 137.244,817.479 L137.244,799.479 C137.244,797.822 135.901,796.479 134.244,796.479 L134.244,790.479 C135.901,790.479 137.244,789.135 137.244,787.479 L137.244,769.479 C137.244,767.822 135.901,766.479 134.244,766.479 L134.244,760.479 C135.901,760.479 137.244,759.135 137.244,757.479 L137.244,739.479 C137.244,737.822 135.901,736.479 134.244,736.479 L134.244,730.479 C135.901,730.479 137.244,729.135 137.244,727.479 L137.244,709.479 C137.244,707.822 135.901,706.479 134.244,706.479 L134.244,700.479 C135.901,700.479 137.244,699.135 137.244,697.479 L137.244,679.479 C137.244,677.822 135.901,676.479 134.244,676.479 L134.244,670.479 C135.901,670.479 137.244,669.135 137.244,667.479 L137.244,649.479 C137.244,647.822 135.901,646.479 134.244,646.479 L134.244,640.479 C135.901,640.479 137.244,639.135 137.244,637.479 L137.244,619.479 C137.244,617.822 135.901,616.479 134.244,616.479 L134.244,610.479 C135.901,610.479 137.244,609.135 137.244,607.479 L137.244,589.479 C137.244,587.822 135.901,586.479 134.244,586.479 L134.244,580.479 C135.901,580.479 137.244,579.135 137.244,577.479 L137.244,559.479 C137.244,557.822 135.901,556.479 134.244,556.479 L134.244,550.479 C135.901,550.479 137.244,549.135 137.244,547.479 L137.244,529.479 C137.244,527.822 135.901,526.479 134.244,526.479 L134.244,520.479 C135.901,520.479 137.244,519.135 137.244,517.479 L137.244,499.478 C137.244,497.822 135.901,496.479 134.244,496.478 L134.244,490.478 C135.901,490.479 137.244,489.135 137.244,487.478 L137.244,469.478 C137.244,467.822 135.901,466.479 134.244,466.478 L134.244,460.478 C135.901,460.479 137.244,459.135 137.244,457.478 L137.244,439.478 C137.244,437.822 135.901,436.479 134.244,436.478 L134.244,430.478 C135.901,430.479 137.244,429.135 137.244,427.478 L137.244,409.478 C137.244,407.822 135.901,406.479 134.244,406.478 L134.244,400.478 C135.901,400.479 137.244,399.135 137.244,397.478 L137.244,379.478 C137.244,377.822 135.901,376.479 134.244,376.478 L134.244,370.478 C135.901,370.479 137.244,369.135 137.244,367.478 L137.244,349.478 C137.244,347.822 135.901,346.479 134.244,346.478 L134.244,340.478 C135.901,340.479 137.244,339.135 137.244,337.478 L137.244,319.478 C137.244,317.822 135.901,316.479 134.244,316.478 L134.244,310.478 C135.901,310.479 137.244,309.135 137.244,307.478 L137.244,289.478 C137.244,287.822 135.901,286.479 134.244,286.478 L134.244,280.478 C135.901,280.479 137.244,279.135 137.244,277.478 L137.244,259.478 C137.244,257.822 135.901,256.479 134.244,256.478 L134.244,250.479 C135.901,250.479 137.244,249.135 137.244,247.479 L137.244,229.479 C137.244,227.822 135.901,226.479 134.244,226.479 L134.244,220.479 C135.901,220.479 137.244,219.135 137.244,217.479 L137.244,199.479 C137.244,197.822 135.901,196.479 134.244,196.479 L134.244,190.479 C135.901,190.479 137.244,189.135 137.244,187.479 L137.244,169.479 C137.244,167.822 135.901,166.479 134.244,166.479 L134.244,160.479 C135.901,160.479 137.244,159.135 137.244,157.479 L137.244,139.479 C137.244,137.822 135.901,136.479 134.244,136.479 L134.244,130.479 C135.901,130.479 137.244,129.135 137.244,127.479 L137.244,109.479 C137.244,107.822 135.901,106.479 134.244,106.479 L134.244,100.479 C135.901,100.479 137.244,99.135 137.244,97.479 L137.244,79.479 C137.244,77.822 135.901,76.479 134.244,76.479 L134.244,70.479 C135.901,70.479 137.244,69.135 137.244,67.479 L137.244,49.479 C137.244,47.822 135.901,46.479 134.244,46.478 L134.244,40.479 C135.901,40.479 137.244,39.135 137.244,37.478 L137.244,19.479 C137.244,17.822 135.901,16.479 134.244,16.479 L134.244,15.933 C134.006,13.948 133.398,12.499 131.637,11.386 C131.793,11.172 131.667,11.355 131.87,10.761 C132.246,9.147 131.243,7.534 129.629,7.159 C128.78,6.961 127.901,6.86 127.01,6.86 L110.961,6.86 C109.304,6.86 107.961,8.203 107.961,9.86 L101.961,9.86 C101.961,8.203 100.618,6.86 98.961,6.86 L80.961,6.86 C79.304,6.86 77.961,8.203 77.961,9.86 L71.961,9.86 C71.961,8.203 70.618,6.86 68.961,6.86 L50.961,6.86 C49.304,6.86 47.961,8.203 47.961,9.86 L41.961,9.86 C41.961,8.203 40.618,6.86 38.961,6.86 L20.961,6.86 C19.304,6.86 17.961,8.203 17.961,9.86 L17.479,9.86 C15.646,10.015 13.718,10.305 12.416,11.751 C12.056,11.407 12.29,11.591 11.659,11.274 L11.073,11.115 C9.406,11.171 8.558,11.375 7.786,13.006 C7.429,13.94 7.244,14.927 7.244,15.933 L7.244,32.045 C7.244,33.702 8.588,35.045 10.244,35.045 L10.244,41.045 C8.588,41.045 7.244,42.388 7.244,44.045 L7.244,62.045 C7.244,63.702 8.588,65.045 10.244,65.045 L10.244,71.045 C8.588,71.045 7.244,72.388 7.244,74.045 L7.244,92.045 C7.244,93.702 8.588,95.045 10.244,95.045 L10.244,101.045 C8.588,101.045 7.244,102.388 7.244,104.045 L7.244,122.045 C7.244,123.702 8.588,125.045 10.244,125.045 L10.244,131.045 C8.588,131.045 7.244,132.388 7.244,134.045 L7.244,152.045 C7.244,153.702 8.588,155.045 10.244,155.045 L10.244,161.045 C8.588,161.045 7.244,162.388 7.244,164.045 L7.244,182.045 C7.244,183.702 8.588,185.045 10.244,185.045 L10.244,191.045 C8.588,191.045 7.244,192.388 7.244,194.045 L7.244,212.045 C7.244,213.702 8.588,215.045 10.244,215.045 L10.244,221.045 C8.588,221.045 7.244,222.388 7.244,224.045 L7.244,242.045 C7.244,243.702 8.588,245.045 10.244,245.045 L10.244,251.045 C8.588,251.045 7.244,252.388 7.244,254.045 L7.244,272.045 C7.244,273.702 8.588,275.045 10.244,275.045 L10.244,281.045 C8.588,281.045 7.244,282.388 7.244,284.045 L7.244,302.045 C7.244,303.702 8.588,305.045 10.244,305.045 L10.244,311.045 C8.588,311.045 7.244,312.388 7.244,314.045 L7.244,332.045 C7.244,333.702 8.588,335.045 10.244,335.045 L10.244,341.045 C8.588,341.045 7.244,342.388 7.244,344.045 L7.244,362.045 C7.244,363.702 8.588,365.045 10.244,365.045 L10.244,371.045 C8.588,371.045 7.244,372.388 7.244,374.045 L7.244,392.045 C7.244,393.702 8.588,395.045 10.244,395.045 L10.244,401.045 C8.588,401.045 7.244,402.388 7.244,404.045 L7.244,422.045 C7.244,423.702 8.588,425.045 10.244,425.045 L10.244,431.045 C8.588,431.045 7.244,432.388 7.244,434.045 L7.244,452.045 C7.244,453.702 8.588,455.045 10.244,455.045 L10.244,461.045 C8.588,461.045 7.244,462.388 7.244,464.045 L7.244,482.045 C7.244,483.702 8.588,485.045 10.244,485.045 L10.244,491.045 C8.588,491.045 7.244,492.388 7.244,494.045 L7.244,512.045 C7.244,513.702 8.588,515.045 10.244,515.045 L10.244,521.045 C8.588,521.045 7.244,522.388 7.244,524.045 L7.244,542.045 C7.244,543.702 8.588,545.045 10.244,545.045 L10.244,551.045 C8.588,551.045 7.244,552.388 7.244,554.045 L7.244,572.045 C7.244,573.702 8.588,575.045 10.244,575.045 L10.244,581.045 C8.588,581.045 7.244,582.388 7.244,584.045 L7.244,602.045 C7.244,603.702 8.588,605.045 10.244,605.045 L10.244,611.045 C8.588,611.045 7.244,612.388 7.244,614.045 L7.244,632.045 C7.244,633.702 8.588,635.045 10.244,635.045 L10.244,641.045 C8.588,641.045 7.244,642.388 7.244,644.045 L7.244,662.045 C7.244,663.702 8.588,665.045 10.244,665.045 L10.244,671.045 C8.588,671.045 7.244,672.388 7.244,674.045 L7.244,692.045 C7.244,693.702 8.588,695.045 10.244,695.045 L10.244,701.045 C8.588,701.045 7.244,702.388 7.244,704.045 L7.244,722.045 C7.244,723.702 8.588,725.045 10.244,725.045 L10.244,731.045 C8.588,731.045 7.244,732.388 7.244,734.045 L7.244,752.045 C7.244,753.702 8.588,755.045 10.244,755.045 L10.244,761.045 C8.588,761.045 7.244,762.388 7.244,764.045 L7.244,782.045 C7.244,783.702 8.588,785.045 10.244,785.045 L10.244,791.045 C8.588,791.045 7.244,792.388 7.244,794.045 L7.244,812.045 C7.244,813.702 8.588,815.045 10.244,815.045 L10.244,821.045 C8.588,821.045 7.244,822.388 7.244,824.045 L7.244,842.045 C7.244,843.702 8.588,845.045 10.244,845.045 L10.244,851.045 C8.588,851.045 7.244,852.388 7.244,854.045 L7.244,872.045 C7.244,873.702 8.588,875.045 10.244,875.045 L10.244,881.045 C8.588,881.045 7.244,882.388 7.244,884.045 L7.244,902.045 C7.244,903.702 8.588,905.045 10.244,905.045 L10.244,911.045 C8.588,911.045 7.244,912.388 7.244,914.045 L7.244,932.045 C7.244,933.702 8.588,935.045 10.244,935.045 L10.244,941.045 C8.588,941.045 7.244,942.388 7.244,944.045 L7.244,962.045 C7.244,963.702 8.588,965.045 10.244,965.045 L10.244,971.045 C8.588,971.045 7.244,972.388 7.244,974.045 L7.244,992.045 C7.244,993.702 8.588,995.045 10.244,995.045 L10.244,1001.045 C8.588,1001.045 7.244,1002.388 7.244,1004.045 L7.244,1022.045 C7.244,1023.702 8.588,1025.045 10.244,1025.045 L10.244,1031.045 C8.588,1031.045 7.244,1032.388 7.244,1034.045 L7.244,1052.045 C7.244,1053.702 8.588,1055.045 10.244,1055.045 L10.244,1061.045 C8.588,1061.045 7.244,1062.388 7.244,1064.045 L7.244,1082.045 C7.244,1083.702 8.588,1085.045 10.244,1085.045 L10.244,1091.045 C8.588,1091.045 7.244,1092.388 7.244,1094.045 L7.244,1112.045 C7.244,1113.702 8.588,1115.045 10.244,1115.045 L10.244,1121.045 C8.588,1121.045 7.244,1122.388 7.244,1124.045 L7.244,1142.045 C7.244,1143.702 8.588,1145.045 10.244,1145.045 L10.244,1151.045 C8.588,1151.045 7.244,1152.388 7.244,1154.045 L7.244,1172.045 C7.244,1173.702 8.588,1175.045 10.244,1175.045 L10.244,1181.045 C8.588,1181.045 7.244,1182.388 7.244,1184.045 L7.244,1202.045 C7.244,1203.702 8.588,1205.045 10.244,1205.045 L10.244,1211.045 C8.588,1211.045 7.244,1212.388 7.244,1214.045 L7.244,1232.045 C7.244,1233.702 8.588,1235.045 10.244,1235.045 L10.244,1241.045 C8.588,1241.045 7.244,1242.388 7.244,1244.045 L7.244,1262.045 C7.399,1263.577 8.193,1264.579 9.701,1264.99 C9.594,1265.335 9.417,1265.666 9.381,1266.026 C9.278,1267.044 9.696,1267.967 10.436,1268.638 C12.331,1270.228 14.837,1271.118 17.479,1271.118 L29.982,1271.118 C31.639,1271.118 32.982,1269.775 32.982,1268.118 L38.982,1268.118 C38.982,1269.775 40.325,1271.118 41.982,1271.118 L59.982,1271.118 C61.639,1271.118 62.982,1269.775 62.982,1268.118 L68.982,1268.118 C68.982,1269.775 70.325,1271.118 71.982,1271.118 L89.982,1271.118 C91.639,1271.118 92.982,1269.775 92.982,1268.118 z"/>
    </clipPath>
    <filter id="Shadow_4">
      <feGaussianBlur in="SourceAlpha" stdDeviation="4"/>
      <feOffset dx="0" dy="0" result="offsetblur"/>
      <feFlood flood-color="#000000"/>
      <feComposite in2="offsetblur" operator="in"/>
    </filter>
  </defs>
  <g id="Layer_1">
    <path d="M1901.33,1280 L18.67,1280 C8.361,1280 0,1270.547 0,1258.884 L0,-0 L1920,-0 L1920,1258.884 C1920,1270.547 1911.645,1280 1901.33,1280" fill="#EAEAEA"/>
    <g>
      <path d="M278.475,606.226 C279.741,606.742 279.253,606.42 280.024,607.049 C281.195,608.221 281.195,610.121 280.024,611.292 L254.316,637 L329.764,637 C331.421,637 332.764,638.343 332.764,640 C332.764,641.657 331.421,643 329.764,643 L254.316,643 L280.024,668.708 C281.195,669.879 281.195,671.779 280.024,672.95 C278.852,674.122 276.953,674.122 275.781,672.95 L244.952,642.121 L244.606,641.697 C244.583,641.675 244.589,641.686 244.582,641.668 C244.449,641.505 244.57,641.658 244.355,641.128 C244.131,640.598 244.153,640.793 244.132,640.582 C244.125,640.564 244.128,640.576 244.128,640.545 L244.073,640 L244.128,639.455 C244.128,639.424 244.125,639.436 244.132,639.418 C244.154,639.207 244.131,639.402 244.355,638.872 C244.57,638.342 244.448,638.495 244.582,638.332 C244.589,638.314 244.583,638.325 244.606,638.302 L244.952,637.879 L275.781,607.049 C276.682,606.188 277.314,606.226 278.475,606.226 z M361.213,637 C362.87,637 364.213,638.343 364.213,640 C364.213,641.657 362.87,643 361.213,643 L349.213,643 C347.556,643 346.213,641.657 346.213,640 C346.213,638.343 347.556,637 349.213,637 L361.213,637 z" clip-path="url(#Clip_1)" filter="url(#Shadow_2)" fill="rgba(0,0,0,0.75)"/>
      <path d="M247.073,640 L329.764,640 M361.213,640 L349.213,640 M277.903,609.171 L247.073,640 M277.903,670.829 L247.073,640" fill-opacity="0" stroke="#4C35F1" stroke-width="6" stroke-linecap="round"/>
    </g>
    <g>
      <path d="M92.982,1268.118 C92.982,1269.775 91.639,1271.118 89.982,1271.118 L71.982,1271.118 C70.325,1271.118 68.982,1269.775 68.982,1268.118 L62.982,1268.118 C62.982,1269.775 61.639,1271.118 59.982,1271.118 L41.982,1271.118 C40.325,1271.118 38.982,1269.775 38.982,1268.118 L32.982,1268.118 C32.982,1269.775 31.639,1271.118 29.982,1271.118 L17.479,1271.118 C14.837,1271.118 12.331,1270.228 10.436,1268.638 C9.696,1267.967 9.278,1267.044 9.381,1266.026 C9.417,1265.666 9.594,1265.335 9.701,1264.99 C8.193,1264.579 7.399,1263.577 7.244,1262.045 L7.244,1244.045 C7.244,1242.388 8.588,1241.045 10.244,1241.045 L10.244,1235.045 C8.588,1235.045 7.244,1233.702 7.244,1232.045 L7.244,1214.045 C7.244,1212.388 8.588,1211.045 10.244,1211.045 L10.244,1205.045 C8.588,1205.045 7.244,1203.702 7.244,1202.045 L7.244,1184.045 C7.244,1182.388 8.588,1181.045 10.244,1181.045 L10.244,1175.045 C8.588,1175.045 7.244,1173.702 7.244,1172.045 L7.244,1154.045 C7.244,1152.388 8.588,1151.045 10.244,1151.045 L10.244,1145.045 C8.588,1145.045 7.244,1143.702 7.244,1142.045 L7.244,1124.045 C7.244,1122.388 8.588,1121.045 10.244,1121.045 L10.244,1115.045 C8.588,1115.045 7.244,1113.702 7.244,1112.045 L7.244,1094.045 C7.244,1092.388 8.588,1091.045 10.244,1091.045 L10.244,1085.045 C8.588,1085.045 7.244,1083.702 7.244,1082.045 L7.244,1064.045 C7.244,1062.388 8.588,1061.045 10.244,1061.045 L10.244,1055.045 C8.588,1055.045 7.244,1053.702 7.244,1052.045 L7.244,1034.045 C7.244,1032.388 8.588,1031.045 10.244,1031.045 L10.244,1025.045 C8.588,1025.045 7.244,1023.702 7.244,1022.045 L7.244,1004.045 C7.244,1002.388 8.588,1001.045 10.244,1001.045 L10.244,995.045 C8.588,995.045 7.244,993.702 7.244,992.045 L7.244,974.045 C7.244,972.388 8.588,971.045 10.244,971.045 L10.244,965.045 C8.588,965.045 7.244,963.702 7.244,962.045 L7.244,944.045 C7.244,942.388 8.588,941.045 10.244,941.045 L10.244,935.045 C8.588,935.045 7.244,933.702 7.244,932.045 L7.244,914.045 C7.244,912.388 8.588,911.045 10.244,911.045 L10.244,905.045 C8.588,905.045 7.244,903.702 7.244,902.045 L7.244,884.045 C7.244,882.388 8.588,881.045 10.244,881.045 L10.244,875.045 C8.588,875.045 7.244,873.702 7.244,872.045 L7.244,854.045 C7.244,852.388 8.588,851.045 10.244,851.045 L10.244,845.045 C8.588,845.045 7.244,843.702 7.244,842.045 L7.244,824.045 C7.244,822.388 8.588,821.045 10.244,821.045 L10.244,815.045 C8.588,815.045 7.244,813.702 7.244,812.045 L7.244,794.045 C7.244,792.388 8.588,791.045 10.244,791.045 L10.244,785.045 C8.588,785.045 7.244,783.702 7.244,782.045 L7.244,764.045 C7.244,762.388 8.588,761.045 10.244,761.045 L10.244,755.045 C8.588,755.045 7.244,753.702 7.244,752.045 L7.244,734.045 C7.244,732.388 8.588,731.045 10.244,731.045 L10.244,725.045 C8.588,725.045 7.244,723.702 7.244,722.045 L7.244,704.045 C7.244,702.388 8.588,701.045 10.244,701.045 L10.244,695.045 C8.588,695.045 7.244,693.702 7.244,692.045 L7.244,674.045 C7.244,672.388 8.588,671.045 10.244,671.045 L10.244,665.045 C8.588,665.045 7.244,663.702 7.244,662.045 L7.244,644.045 C7.244,642.388 8.588,641.045 10.244,641.045 L10.244,635.045 C8.588,635.045 7.244,633.702 7.244,632.045 L7.244,614.045 C7.244,612.388 8.588,611.045 10.244,611.045 L10.244,605.045 C8.588,605.045 7.244,603.702 7.244,602.045 L7.244,584.045 C7.244,582.388 8.588,581.045 10.244,581.045 L10.244,575.045 C8.588,575.045 7.244,573.702 7.244,572.045 L7.244,554.045 C7.244,552.388 8.588,551.045 10.244,551.045 L10.244,545.045 C8.588,545.045 7.244,543.702 7.244,542.045 L7.244,524.045 C7.244,522.388 8.588,521.045 10.244,521.045 L10.244,515.045 C8.588,515.045 7.244,513.702 7.244,512.045 L7.244,494.045 C7.244,492.388 8.588,491.045 10.244,491.045 L10.244,485.045 C8.588,485.045 7.244,483.702 7.244,482.045 L7.244,464.045 C7.244,462.388 8.588,461.045 10.244,461.045 L10.244,455.045 C8.588,455.045 7.244,453.702 7.244,452.045 L7.244,434.045 C7.244,432.388 8.588,431.045 10.244,431.045 L10.244,425.045 C8.588,425.045 7.244,423.702 7.244,422.045 L7.244,404.045 C7.244,402.388 8.588,401.045 10.244,401.045 L10.244,395.045 C8.588,395.045 7.244,393.702 7.244,392.045 L7.244,374.045 C7.244,372.388 8.588,371.045 10.244,371.045 L10.244,365.045 C8.588,365.045 7.244,363.702 7.244,362.045 L7.244,344.045 C7.244,342.388 8.588,341.045 10.244,341.045 L10.244,335.045 C8.588,335.045 7.244,333.702 7.244,332.045 L7.244,314.045 C7.244,312.388 8.588,311.045 10.244,311.045 L10.244,305.045 C8.588,305.045 7.244,303.702 7.244,302.045 L7.244,284.045 C7.244,282.388 8.588,281.045 10.244,281.045 L10.244,275.045 C8.588,275.045 7.244,273.702 7.244,272.045 L7.244,254.045 C7.244,252.388 8.588,251.045 10.244,251.045 L10.244,245.045 C8.588,245.045 7.244,243.702 7.244,242.045 L7.244,224.045 C7.244,222.388 8.588,221.045 10.244,221.045 L10.244,215.045 C8.588,215.045 7.244,213.702 7.244,212.045 L7.244,194.045 C7.244,192.388 8.588,191.045 10.244,191.045 L10.244,185.045 C8.588,185.045 7.244,183.702 7.244,182.045 L7.244,164.045 C7.244,162.388 8.588,161.045 10.244,161.045 L10.244,155.045 C8.588,155.045 7.244,153.702 7.244,152.045 L7.244,134.045 C7.244,132.388 8.588,131.045 10.244,131.045 L10.244,125.045 C8.588,125.045 7.244,123.702 7.244,122.045 L7.244,104.045 C7.244,102.388 8.588,101.045 10.244,101.045 L10.244,95.045 C8.588,95.045 7.244,93.702 7.244,92.045 L7.244,74.045 C7.244,72.388 8.588,71.045 10.244,71.045 L10.244,65.045 C8.588,65.045 7.244,63.702 7.244,62.045 L7.244,44.045 C7.244,42.388 8.588,41.045 10.244,41.045 L10.244,35.045 C8.588,35.045 7.244,33.702 7.244,32.045 L7.244,15.933 C7.244,14.927 7.429,13.94 7.786,13.006 C8.558,11.375 9.406,11.171 11.073,11.115 L11.659,11.274 C12.29,11.591 12.056,11.407 12.416,11.751 C13.718,10.305 15.646,10.015 17.479,9.86 L17.961,9.86 C17.961,8.203 19.304,6.86 20.961,6.86 L38.961,6.86 C40.618,6.86 41.961,8.203 41.961,9.86 L47.961,9.86 C47.961,8.203 49.304,6.86 50.961,6.86 L68.961,6.86 C70.618,6.86 71.961,8.203 71.961,9.86 L77.961,9.86 C77.961,8.203 79.304,6.86 80.961,6.86 L98.961,6.86 C100.618,6.86 101.961,8.203 101.961,9.86 L107.961,9.86 C107.961,8.203 109.304,6.86 110.961,6.86 L127.01,6.86 C127.901,6.86 128.78,6.961 129.629,7.159 C131.243,7.534 132.246,9.147 131.87,10.761 C131.667,11.355 131.793,11.172 131.637,11.386 C133.398,12.499 134.006,13.948 134.244,15.933 L134.244,16.479 C135.901,16.479 137.244,17.822 137.244,19.479 L137.244,37.478 C137.244,39.135 135.901,40.479 134.244,40.479 L134.244,46.478 C135.901,46.479 137.244,47.822 137.244,49.479 L137.244,67.479 C137.244,69.135 135.901,70.479 134.244,70.479 L134.244,76.479 C135.901,76.479 137.244,77.822 137.244,79.479 L137.244,97.479 C137.244,99.135 135.901,100.479 134.244,100.479 L134.244,106.479 C135.901,106.479 137.244,107.822 137.244,109.479 L137.244,127.479 C137.244,129.135 135.901,130.479 134.244,130.479 L134.244,136.479 C135.901,136.479 137.244,137.822 137.244,139.479 L137.244,157.479 C137.244,159.135 135.901,160.479 134.244,160.479 L134.244,166.479 C135.901,166.479 137.244,167.822 137.244,169.479 L137.244,187.479 C137.244,189.135 135.901,190.479 134.244,190.479 L134.244,196.479 C135.901,196.479 137.244,197.822 137.244,199.479 L137.244,217.479 C137.244,219.135 135.901,220.479 134.244,220.479 L134.244,226.479 C135.901,226.479 137.244,227.822 137.244,229.479 L137.244,247.479 C137.244,249.135 135.901,250.479 134.244,250.479 L134.244,256.478 C135.901,256.479 137.244,257.822 137.244,259.478 L137.244,277.478 C137.244,279.135 135.901,280.479 134.244,280.478 L134.244,286.478 C135.901,286.479 137.244,287.822 137.244,289.478 L137.244,307.478 C137.244,309.135 135.901,310.479 134.244,310.478 L134.244,316.478 C135.901,316.479 137.244,317.822 137.244,319.478 L137.244,337.478 C137.244,339.135 135.901,340.479 134.244,340.478 L134.244,346.478 C135.901,346.479 137.244,347.822 137.244,349.478 L137.244,367.478 C137.244,369.135 135.901,370.479 134.244,370.478 L134.244,376.478 C135.901,376.479 137.244,377.822 137.244,379.478 L137.244,397.478 C137.244,399.135 135.901,400.479 134.244,400.478 L134.244,406.478 C135.901,406.479 137.244,407.822 137.244,409.478 L137.244,427.478 C137.244,429.135 135.901,430.479 134.244,430.478 L134.244,436.478 C135.901,436.479 137.244,437.822 137.244,439.478 L137.244,457.478 C137.244,459.135 135.901,460.479 134.244,460.478 L134.244,466.478 C135.901,466.479 137.244,467.822 137.244,469.478 L137.244,487.478 C137.244,489.135 135.901,490.479 134.244,490.478 L134.244,496.478 C135.901,496.479 137.244,497.822 137.244,499.478 L137.244,517.479 C137.244,519.135 135.901,520.479 134.244,520.479 L134.244,526.479 C135.901,526.479 137.244,527.822 137.244,529.479 L137.244,547.479 C137.244,549.135 135.901,550.479 134.244,550.479 L134.244,556.479 C135.901,556.479 137.244,557.822 137.244,559.479 L137.244,577.479 C137.244,579.135 135.901,580.479 134.244,580.479 L134.244,586.479 C135.901,586.479 137.244,587.822 137.244,589.479 L137.244,607.479 C137.244,609.135 135.901,610.479 134.244,610.479 L134.244,616.479 C135.901,616.479 137.244,617.822 137.244,619.479 L137.244,637.479 C137.244,639.135 135.901,640.479 134.244,640.479 L134.244,646.479 C135.901,646.479 137.244,647.822 137.244,649.479 L137.244,667.479 C137.244,669.135 135.901,670.479 134.244,670.479 L134.244,676.479 C135.901,676.479 137.244,677.822 137.244,679.479 L137.244,697.479 C137.244,699.135 135.901,700.479 134.244,700.479 L134.244,706.479 C135.901,706.479 137.244,707.822 137.244,709.479 L137.244,727.479 C137.244,729.135 135.901,730.479 134.244,730.479 L134.244,736.479 C135.901,736.479 137.244,737.822 137.244,739.479 L137.244,757.479 C137.244,759.135 135.901,760.479 134.244,760.479 L134.244,766.479 C135.901,766.479 137.244,767.822 137.244,769.479 L137.244,787.479 C137.244,789.135 135.901,790.479 134.244,790.479 L134.244,796.479 C135.901,796.479 137.244,797.822 137.244,799.479 L137.244,817.479 C137.244,819.135 135.901,820.479 134.244,820.479 L134.244,826.479 C135.901,826.479 137.244,827.822 137.244,829.479 L137.244,847.479 C137.244,849.135 135.901,850.479 134.244,850.479 L134.244,856.479 C135.901,856.479 137.244,857.822 137.244,859.479 L137.244,877.479 C137.244,879.135 135.901,880.479 134.244,880.479 L134.244,886.479 C135.901,886.479 137.244,887.822 137.244,889.479 L137.244,907.479 C137.244,909.135 135.901,910.479 134.244,910.479 L134.244,916.479 C135.901,916.479 137.244,917.822 137.244,919.479 L137.244,937.479 C137.244,939.135 135.901,940.479 134.244,940.479 L134.244,946.479 C135.901,946.479 137.244,947.822 137.244,949.479 L137.244,967.479 C137.244,969.135 135.901,970.479 134.244,970.479 L134.244,976.479 C135.901,976.479 137.244,977.822 137.244,979.479 L137.244,997.479 C137.244,999.135 135.901,1000.479 134.244,1000.479 L134.244,1006.479 C135.901,1006.479 137.244,1007.822 137.244,1009.479 L137.244,1027.479 C137.244,1029.135 135.901,1030.479 134.244,1030.479 L134.244,1036.479 C135.901,1036.479 137.244,1037.822 137.244,1039.479 L137.244,1057.479 C137.244,1059.135 135.901,1060.479 134.244,1060.479 L134.244,1066.479 C135.901,1066.479 137.244,1067.822 137.244,1069.479 L137.244,1087.479 C137.244,1089.135 135.901,1090.479 134.244,1090.479 L134.244,1096.479 C135.901,1096.479 137.244,1097.822 137.244,1099.479 L137.244,1117.479 C137.244,1119.135 135.901,1120.479 134.244,1120.479 L134.244,1126.479 C135.901,1126.479 137.244,1127.822 137.244,1129.479 L137.244,1147.479 C137.244,1149.135 135.901,1150.479 134.244,1150.479 L134.244,1156.479 C135.901,1156.479 137.244,1157.822 137.244,1159.479 L137.244,1177.479 C137.244,1179.135 135.901,1180.479 134.244,1180.479 L134.244,1186.479 C135.901,1186.479 137.244,1187.822 137.244,1189.479 L137.244,1207.479 C137.244,1209.135 135.901,1210.479 134.244,1210.479 L134.244,1216.479 C135.901,1216.479 137.244,1217.822 137.244,1219.479 L137.244,1237.479 C137.244,1239.135 135.901,1240.479 134.244,1240.479 L134.244,1246.479 C135.901,1246.479 137.244,1247.822 137.244,1249.479 L137.244,1262.045 C137.244,1264.86 135.804,1267.422 133.445,1269.109 C132.097,1270.073 130.223,1269.762 129.259,1268.415 C128.947,1267.869 129.002,1268.085 128.943,1267.826 C128.008,1268.157 128.635,1267.98 127.01,1268.118 L122.982,1268.118 C122.982,1269.775 121.639,1271.118 119.982,1271.118 L101.982,1271.118 C100.325,1271.118 98.982,1269.775 98.982,1268.118 L92.982,1268.118 z" clip-path="url(#Clip_3)" filter="url(#Shadow_4)" fill="rgba(0,0,0,0.75)"/>
      <path d="M10.244,1262.045 L10.244,15.933 C10.244,12.579 13.483,9.86 17.479,9.86 L127.01,9.86 C131.006,9.86 134.244,12.579 134.244,15.933 L134.244,1262.045 C134.244,1265.399 131.006,1268.118 127.01,1268.118 L17.479,1268.118 C13.483,1268.118 10.244,1265.399 10.244,1262.045 z" fill="#FFFFFF"/>
      <path d="M10.244,1262.045 L10.244,15.933 C10.244,12.579 13.483,9.86 17.479,9.86 L127.01,9.86 C131.006,9.86 134.244,12.579 134.244,15.933 L134.244,1262.045 C134.244,1265.399 131.006,1268.118 127.01,1268.118 L17.479,1268.118 C13.483,1268.118 10.244,1265.399 10.244,1262.045 z" fill-opacity="0" stroke="#4C35F1" stroke-width="6" stroke-dasharray="18,12" stroke-linecap="round" stroke-linejoin="round"/>
    </g>
    <g>
      <path d="M250.135,60.269 L250.135,24.551 Q250.135,23.815 250.421,23.339 Q250.707,22.862 251.132,22.862 L254.79,22.862 Q255.214,22.862 255.501,23.339 Q255.786,23.815 255.786,24.551 L255.786,60.269 Q255.786,60.977 255.501,61.454 Q255.214,61.931 254.79,61.931 L251.132,61.931 Q250.707,61.931 250.421,61.454 Q250.135,60.977 250.135,60.269 z" fill="#787878"/>
      <g>
        <path d="M259.098,61.099 L259.098,37.451 Q259.098,37.066 259.405,36.816 Q259.711,36.566 260.184,36.566 L269.122,36.566 Q269.578,36.566 269.884,36.816 Q270.191,37.066 270.191,37.451 L270.191,41.592 Q270.191,41.977 269.884,42.227 Q269.578,42.476 269.122,42.476 L264.81,42.476 L264.81,56.209 L269.122,56.209 Q269.578,56.209 269.884,56.458 Q270.191,56.707 270.191,57.078 L270.191,61.099 Q270.191,61.47 269.884,61.719 Q269.578,61.969 269.122,61.969 L260.184,61.969 Q259.711,61.969 259.405,61.719 Q259.098,61.47 259.098,61.099 z" fill="#787878"/>
        <path d="M282.727,37.436 L282.727,61.085 Q282.727,61.47 282.42,61.719 Q282.114,61.969 281.64,61.969 L272.702,61.969 Q272.247,61.969 271.94,61.719 Q271.633,61.47 271.633,61.085 L271.633,57.1 Q271.633,56.715 271.94,56.466 Q272.247,56.217 272.702,56.217 L277.014,56.217 L277.014,42.462 L272.702,42.462 Q272.247,42.462 271.94,42.212 Q271.633,41.962 271.633,41.592 L271.633,37.436 Q271.633,37.066 271.94,36.816 Q272.247,36.566 272.702,36.566 L281.64,36.566 Q282.114,36.566 282.42,36.816 Q282.727,37.066 282.727,37.436 z" fill="#787878"/>
      </g>
      <path d="M163.14,49.821 L163.14,48.692 Q163.14,47.172 164.19,46.182 L174.146,36.902 Q174.758,36.372 175.222,36.683 Q175.686,36.994 175.686,37.846 L175.686,41.806 Q175.686,43.511 174.146,44.915 L169.491,49.245 L174.146,53.597 Q175.686,55.003 175.686,56.707 L175.686,60.668 Q175.686,61.52 175.222,61.819 Q174.758,62.118 174.146,61.612 L164.19,52.308 Q163.14,51.341 163.14,49.821 z" fill="#787878"/>
      <path d="M182.741,34.558 L182.741,23.39 Q182.741,23.16 183.028,23.011 Q183.313,22.862 183.738,22.862 L187.396,22.862 Q187.821,22.862 188.106,23.011 Q188.392,23.16 188.392,23.39 L188.392,34.558 Q188.392,34.78 188.106,34.93 Q187.821,35.079 187.396,35.079 L183.738,35.079 Q183.313,35.079 183.028,34.93 Q182.741,34.78 182.741,34.558 z" fill="#787878"/>
      <path d="M190.31,34.558 L190.31,30.921 Q190.31,30.692 190.595,30.543 Q190.882,30.393 191.306,30.393 L194.964,30.393 Q195.389,30.393 195.675,30.543 Q195.961,30.692 195.961,30.921 L195.961,34.558 Q195.961,34.78 195.675,34.93 Q195.389,35.079 194.964,35.079 L191.306,35.079 Q190.882,35.079 190.595,34.93 Q190.31,34.78 190.31,34.558 z" fill="#787878"/>
      <path d="M188.392,37.436 L188.392,61.047 Q188.392,61.432 188.086,61.681 Q187.78,61.93 187.308,61.93 L178.384,61.93 Q177.929,61.93 177.623,61.681 Q177.317,61.432 177.317,61.047 L177.317,57.07 Q177.317,56.685 177.623,56.436 Q177.929,56.187 178.384,56.187 L182.689,56.187 L182.689,42.453 L178.384,42.453 Q177.929,42.453 177.623,42.204 Q177.317,41.956 177.317,41.585 L177.317,37.436 Q177.317,37.066 177.623,36.817 Q177.929,36.568 178.384,36.568 L187.308,36.568 Q187.78,36.568 188.086,36.817 Q188.392,37.066 188.392,37.436 z" fill="#787878"/>
      <g>
        <path d="M247.425,48.677 L247.425,49.805 Q247.425,51.326 246.376,52.316 L236.419,61.596 Q235.807,62.126 235.343,61.816 Q234.879,61.504 234.879,60.652 L234.879,56.692 Q234.879,54.987 236.419,53.583 L241.073,49.253 L236.419,44.901 Q234.879,43.495 234.879,41.792 L234.879,37.831 Q234.879,36.978 235.343,36.679 Q235.807,36.38 236.419,36.886 L246.376,46.19 Q247.425,47.158 247.425,48.677 z" fill="#787878"/>
        <path d="M222.172,34.559 L222.172,23.39 Q222.172,23.16 222.458,23.011 Q222.744,22.862 223.169,22.862 L226.827,22.862 Q227.252,22.862 227.538,23.011 Q227.823,23.16 227.823,23.39 L227.823,34.559 Q227.823,34.78 227.538,34.93 Q227.252,35.079 226.827,35.079 L223.169,35.079 Q222.744,35.079 222.458,34.93 Q222.172,34.78 222.172,34.559 z" fill="#787878"/>
        <path d="M222.172,61.062 L222.172,37.45 Q222.172,37.066 222.479,36.817 Q222.785,36.568 223.257,36.568 L232.181,36.568 Q232.636,36.568 232.942,36.817 Q233.248,37.066 233.248,37.45 L233.248,41.429 Q233.248,41.813 232.942,42.062 Q232.636,42.311 232.181,42.311 L227.877,42.311 L227.877,56.045 L232.181,56.045 Q232.636,56.045 232.942,56.294 Q233.248,56.543 233.248,56.913 L233.248,61.062 Q233.248,61.432 232.942,61.681 Q232.636,61.93 232.181,61.93 L223.257,61.93 Q222.785,61.93 222.479,61.681 Q222.172,61.432 222.172,61.062 z" fill="#787878"/>
      </g>
      <path d="M190.108,60.523 L190.108,38.013 Q190.108,37.372 190.414,36.969 Q190.72,36.566 191.175,36.566 L195.095,36.566 Q195.568,36.566 195.865,36.981 Q196.162,37.395 196.162,38.013 L196.162,60.523 Q196.162,61.164 195.856,61.567 Q195.55,61.97 195.095,61.97 L191.175,61.97 Q190.703,61.97 190.406,61.567 Q190.108,61.164 190.108,60.523 z" fill="#787878"/>
      <path d="M198.53,36.568 L201.89,36.568 Q202.642,36.568 203.307,37.135 Q203.972,37.702 204.252,38.605 L209.028,53.022 L213.788,38.605 Q214.068,37.702 214.733,37.135 Q215.398,36.568 216.15,36.568 L219.528,36.568 Q220.14,36.568 220.332,37.17 Q220.42,37.401 220.411,37.76 Q220.402,38.118 220.245,38.605 L212.685,59.894 Q212.371,60.797 211.697,61.364 Q211.023,61.931 210.306,61.931 L207.734,61.931 Q207.016,61.931 206.351,61.364 Q205.687,60.797 205.371,59.894 L197.813,38.605 Q197.638,38.096 197.638,37.748 Q197.638,36.568 198.53,36.568 z" fill="#787878"/>
      <g>
        <path d="M298.668,49.82 L298.668,48.691 Q298.668,47.171 299.718,46.181 L309.673,36.9 Q310.286,36.37 310.75,36.682 Q311.213,36.993 311.213,37.844 L311.213,41.806 Q311.213,43.51 309.673,44.915 L305.019,49.244 L309.673,53.597 Q311.213,55.001 311.213,56.706 L311.213,60.667 Q311.213,61.519 310.75,61.818 Q310.286,62.117 309.673,61.611 L299.718,52.307 Q298.668,51.34 298.668,49.82 z" fill="#787878"/>
        <path d="M298.025,48.715 L298.025,49.844 Q298.025,51.364 296.975,52.354 L287.019,61.635 Q286.407,62.165 285.943,61.854 Q285.479,61.542 285.479,60.691 L285.479,56.73 Q285.479,55.025 287.019,53.621 L291.674,49.291 L287.019,44.939 Q285.479,43.534 285.479,41.83 L285.479,37.869 Q285.479,37.017 285.943,36.717 Q286.407,36.418 287.019,36.924 L296.975,46.229 Q298.025,47.196 298.025,48.715 z" fill="#787878"/>
      </g>
    </g>
    <g>
      <g>
        <g>
          <path d="M60.022,42.049 L84.467,42.049" fill="#888888"/>
          <path d="M60.022,42.049 L84.467,42.049" fill-opacity="0" stroke="#959595" stroke-width="1"/>
        </g>
        <g>
          <path d="M60.022,42.049 L84.467,42.049" fill="#888888"/>
          <path d="M60.022,42.049 L84.467,42.049" fill-opacity="0" stroke="#959595" stroke-width="4" stroke-linecap="round"/>
        </g>
      </g>
      <g>
        <g>
          <path d="M60.022,33.249 L84.467,33.249" fill="#888888"/>
          <path d="M60.022,33.249 L84.467,33.249" fill-opacity="0" stroke="#959595" stroke-width="1"/>
        </g>
        <g>
          <path d="M60.022,33.249 L84.467,33.249" fill="#888888"/>
          <path d="M60.022,33.249 L84.467,33.249" fill-opacity="0" stroke="#959595" stroke-width="4" stroke-linecap="round"/>
        </g>
      </g>
      <g>
        <g>
          <path d="M60.022,51.583 L84.467,51.583" fill="#888888"/>
          <path d="M60.022,51.583 L84.467,51.583" fill-opacity="0" stroke="#959595" stroke-width="1"/>
        </g>
        <g>
          <path d="M60.022,51.583 L84.467,51.583" fill="#888888"/>
          <path d="M60.022,51.583 L84.467,51.583" fill-opacity="0" stroke="#959595" stroke-width="4" stroke-linecap="round"/>
        </g>
      </g>
    </g>
    <g>
      <path d="M40.936,71.283 L103.552,71.283 C110.646,71.283 116.397,77.034 116.397,84.128 L116.397,146.744 C116.397,153.837 110.646,159.588 103.552,159.588 L40.936,159.588 C33.843,159.588 28.092,153.837 28.092,146.744 L28.092,84.128 C28.092,77.034 33.843,71.283 40.936,71.283 z" fill="#B1B1B1"/>
      <g>
        <path d="M49.565,130.555 L94.876,130.555 C97.297,130.555 99.306,132.517 99.306,134.937 C99.306,137.337 97.244,139.318 94.823,139.318 L49.565,139.318 C47.145,139.318 45.183,137.356 45.183,134.937 L45.183,134.937 C45.183,132.517 47.145,130.555 49.565,130.555 z" fill="#FFFFFF"/>
        <path d="M72.031,120.119 C64.143,120.119 57.75,113.724 57.75,105.836 C57.75,97.948 64.143,91.553 72.031,91.553 C79.919,91.553 86.314,97.948 86.314,105.836 C86.314,113.724 79.919,120.119 72.031,120.119 z" fill="#FFFFFF"/>
      </g>
    </g>
    <g>
      <g>
        <path d="M49.565,230.098 L94.876,230.098 C97.297,230.098 99.306,232.06 99.306,234.48 C99.306,236.88 97.244,238.861 94.823,238.861 L49.565,238.861 C47.145,238.861 45.183,236.899 45.183,234.48 L45.183,234.48 C45.183,232.06 47.145,230.098 49.565,230.098 z" fill="#B1B1B1"/>
        <path d="M72.031,219.662 C64.143,219.662 57.75,213.267 57.75,205.379 C57.75,197.491 64.143,191.097 72.031,191.097 C79.919,191.097 86.314,197.491 86.314,205.379 C86.314,213.267 79.919,219.662 72.031,219.662 z" fill="#B1B1B1"/>
      </g>
    </g>
    <g>
      <g>
        <path d="M49.565,328.839 L94.876,328.839 C97.297,328.839 99.306,330.801 99.306,333.22 C99.306,335.62 97.244,337.602 94.823,337.602 L49.565,337.602 C47.145,337.602 45.183,335.64 45.183,333.22 L45.183,333.22 C45.183,330.801 47.145,328.839 49.565,328.839 z" fill="#B1B1B1"/>
        <path d="M72.031,318.403 C64.143,318.403 57.75,312.008 57.75,304.12 C57.75,296.232 64.143,289.837 72.031,289.837 C79.919,289.837 86.314,296.232 86.314,304.12 C86.314,312.008 79.919,318.403 72.031,318.403 z" fill="#B1B1B1"/>
      </g>
    </g>
    <path d="M56.356,1148.64 z" fill="#DDDDDD"/>
    <g>
      <path d="M72.244,1251.075 C97.373,1251.075 117.744,1230.704 117.744,1205.575 C117.744,1180.446 97.373,1160.075 72.244,1160.075 C47.115,1160.075 26.744,1180.446 26.744,1205.575 C26.744,1230.704 47.115,1251.075 72.244,1251.075 z" fill="#ABABAB"/>
      <path d="M96.668,1236.82 C96.6,1233.519 94.717,1230.522 91.762,1229.053 L81.53,1223.83 C80.838,1223.471 80.404,1222.755 80.404,1221.961 L80.404,1218.832 C85.64,1216.579 88.66,1212.177 90.133,1206.69 C92.345,1206.002 93.978,1203.959 93.978,1201.519 L93.978,1198.818 C93.978,1196.734 92.769,1194.932 91.045,1194.03 C89.854,1183.812 83.095,1179.689 72.25,1179.689 C71.734,1179.689 71.228,1179.703 70.739,1179.74 C67.054,1180.032 63.328,1179.343 60.254,1177.276 C58.981,1176.415 57.909,1175.498 57.152,1174.545 C56.806,1174.107 56.117,1174.385 56.185,1174.942 C56.29,1175.885 56.45,1176.998 56.687,1178.203 C57.59,1182.709 57.061,1182.061 55.31,1186.303 C54.356,1188.661 53.732,1191.261 53.44,1194.03 C51.73,1194.946 50.539,1196.734 50.539,1198.818 L50.539,1201.519 C50.539,1203.959 52.167,1206.002 54.383,1206.69 C55.839,1212.177 58.862,1216.579 64.112,1218.832 L64.112,1221.947 C64.112,1222.741 63.661,1223.471 62.945,1223.817 L52.459,1228.985 C49.595,1230.536 47.821,1233.546 47.821,1236.793 L47.821,1236.82 z M96.668,1236.82" fill="#FFFFFF"/>
    </g>
    <path d="M960.5,551 C1009.93,551 1050,591.071 1050,640.5 C1050,689.93 1009.93,730 960.5,730 C911.071,730 871,689.93 871,640.5 C871,591.071 911.071,551 960.5,551 z M954.04,627.634 L934.341,627.634 Q933.337,627.634 932.661,628.184 Q931.985,628.734 931.985,629.551 L931.985,638.711 Q931.985,639.527 932.661,640.077 Q933.337,640.627 934.341,640.627 L943.843,640.627 L943.843,670.943 L934.341,670.943 Q933.337,670.943 932.661,671.493 Q931.985,672.043 931.985,672.891 L931.985,681.673 Q931.985,682.522 932.661,683.071 Q933.337,683.621 934.341,683.621 L954.04,683.621 Q955.083,683.621 955.759,683.071 Q956.435,682.522 956.435,681.673 L956.435,629.551 Q956.435,628.734 955.759,628.184 Q955.083,627.634 954.04,627.634 z M926.256,627.665 L924.986,628.371 L903.008,648.858 Q900.691,651.044 900.691,654.399 L900.691,656.89 Q900.691,660.245 903.008,662.38 L924.986,682.918 Q926.338,684.037 927.361,683.376 Q928.385,682.715 928.385,680.834 L928.385,672.09 Q928.385,668.328 924.986,665.227 L914.712,655.619 L924.986,646.062 Q928.385,642.961 928.385,639.199 L928.385,630.455 Q928.385,628.574 927.361,627.888 L926.256,627.665 z M965.632,627.664 L964.526,627.88 Q963.502,628.541 963.502,630.422 L963.502,639.165 Q963.502,642.927 966.901,646.028 L977.176,655.636 L966.901,665.194 Q963.502,668.295 963.502,672.057 L963.502,680.8 Q963.502,682.681 964.526,683.367 Q965.55,684.054 966.901,682.885 L988.879,662.398 Q991.197,660.212 991.197,656.857 L991.197,654.366 Q991.197,651.01 988.879,648.875 L966.901,628.337 L965.632,627.664 z M1018.18,627.579 L1016.91,628.284 L994.932,648.771 Q992.615,650.957 992.615,654.312 L992.615,656.803 Q992.615,660.158 994.932,662.293 L1016.91,682.831 Q1018.262,683.95 1019.286,683.289 Q1020.309,682.628 1020.309,680.747 L1020.309,672.003 Q1020.309,668.241 1016.91,665.14 L1006.636,655.532 L1016.91,645.975 Q1020.309,642.874 1020.309,639.112 L1020.309,630.368 Q1020.309,628.487 1019.286,627.801 L1018.18,627.579 z M954.236,597.378 L946.16,597.378 Q945.223,597.378 944.592,597.707 Q943.961,598.037 943.961,598.544 L943.961,623.199 Q943.961,623.688 944.592,624.017 Q945.223,624.346 946.16,624.346 L954.236,624.346 Q955.174,624.346 955.804,624.017 Q956.435,623.688 956.435,623.199 L956.435,598.544 Q956.435,598.037 955.804,597.707 Q955.174,597.378 954.236,597.378 z" fill="#FFFFFF"/>
  </g>
</svg>
