<?xml version="1.0" encoding="UTF-8"?>
<!DOCTYPE svg PUBLIC "-//W3C//DTD SVG 1.1//EN" "http://www.w3.org/Graphics/SVG/1.1/DTD/svg11.dtd">
<svg version="1.1" xmlns="http://www.w3.org/2000/svg" xmlns:xlink="http://www.w3.org/1999/xlink" x="0" y="0" width="1920" height="1280" viewBox="0, 0, 1920, 1280">
  <defs>
    <clipPath id="Clip_1">
      <path d="M579.96,1081.271 L1338.944,1081.271 L1338.944,1292 L579.96,1292 z M1291.467,1280 L1297.467,1280 C1297.467,1281.657 1298.81,1283 1300.467,1283 L1318.467,1283 C1320.124,1283 1321.467,1281.657 1321.467,1280 C1321.403,1279.362 1321.485,1279.582 1321.368,1279.304 C1322.904,1278.47 1322.181,1278.969 1323.53,1277.798 L1323.906,1278.06 C1325.353,1278.866 1327.18,1278.346 1327.986,1276.898 C1329.258,1274.613 1329.944,1271.915 1329.944,1269.106 L1329.944,1257.633 C1329.944,1255.976 1328.601,1254.633 1326.944,1254.633 L1326.944,1248.633 C1328.601,1248.633 1329.944,1247.29 1329.944,1245.633 L1329.944,1227.633 C1329.944,1225.976 1328.601,1224.633 1326.944,1224.633 L1326.944,1218.633 C1328.601,1218.633 1329.944,1217.29 1329.944,1215.633 L1329.944,1197.633 C1329.944,1195.976 1328.601,1194.633 1326.944,1194.633 L1326.944,1188.633 C1328.601,1188.633 1329.944,1187.29 1329.944,1185.633 L1329.944,1167.633 C1329.944,1165.976 1328.601,1164.633 1326.944,1164.633 L1326.944,1158.633 C1328.601,1158.633 1329.944,1157.29 1329.944,1155.633 L1329.944,1137.633 C1329.944,1135.976 1328.601,1134.633 1326.944,1134.633 L1326.944,1128.633 C1328.601,1128.633 1329.944,1127.29 1329.944,1125.633 L1329.944,1107.633 C1329.944,1105.976 1328.601,1104.633 1326.944,1104.633 L1326.944,1104.164 C1326.871,1102.32 1326.658,1100.423 1325.805,1098.751 L1326.171,1098.504 C1327.443,1097.443 1327.615,1095.551 1326.554,1094.278 C1324.45,1091.754 1321.58,1090.271 1318.467,1090.271 L1307.112,1090.271 C1305.455,1090.271 1304.112,1091.614 1304.112,1093.271 L1298.112,1093.271 C1298.112,1091.614 1296.769,1090.271 1295.112,1090.271 L1277.112,1090.271 C1275.455,1090.271 1274.112,1091.614 1274.112,1093.271 L1268.112,1093.271 C1268.112,1091.614 1266.769,1090.271 1265.112,1090.271 L1247.112,1090.271 C1245.455,1090.271 1244.112,1091.614 1244.112,1093.271 L1238.112,1093.271 C1238.112,1091.614 1236.769,1090.271 1235.112,1090.271 L1217.112,1090.271 C1215.455,1090.271 1214.112,1091.614 1214.112,1093.271 L1208.112,1093.271 C1208.112,1091.614 1206.769,1090.271 1205.112,1090.271 L1187.112,1090.271 C1185.455,1090.271 1184.112,1091.614 1184.112,1093.271 L1178.112,1093.271 C1178.112,1091.614 1176.769,1090.271 1175.112,1090.271 L1157.112,1090.271 C1155.455,1090.271 1154.112,1091.614 1154.112,1093.271 L1148.112,1093.271 C1148.112,1091.614 1146.769,1090.271 1145.112,1090.271 L1127.112,1090.271 C1125.455,1090.271 1124.112,1091.614 1124.112,1093.271 L1118.112,1093.271 C1118.112,1091.614 1116.769,1090.271 1115.112,1090.271 L1097.112,1090.271 C1095.455,1090.271 1094.112,1091.614 1094.112,1093.271 L1088.112,1093.271 C1088.112,1091.614 1086.769,1090.271 1085.112,1090.271 L1067.112,1090.271 C1065.455,1090.271 1064.112,1091.614 1064.112,1093.271 L1058.112,1093.271 C1058.112,1091.614 1056.769,1090.271 1055.112,1090.271 L1037.112,1090.271 C1035.455,1090.271 1034.112,1091.614 1034.112,1093.271 L1028.112,1093.271 C1028.112,1091.614 1026.769,1090.271 1025.112,1090.271 L1007.112,1090.271 C1005.455,1090.271 1004.112,1091.614 1004.112,1093.271 L998.112,1093.271 C998.112,1091.614 996.769,1090.271 995.112,1090.271 L977.112,1090.271 C975.455,1090.271 974.112,1091.614 974.112,1093.271 L968.112,1093.271 C968.112,1091.614 966.769,1090.271 965.112,1090.271 L947.112,1090.271 C945.455,1090.271 944.112,1091.614 944.112,1093.271 L938.112,1093.271 C938.112,1091.614 936.769,1090.271 935.112,1090.271 L917.112,1090.271 C915.455,1090.271 914.112,1091.614 914.112,1093.271 L908.112,1093.271 C908.112,1091.614 906.769,1090.271 905.112,1090.271 L887.112,1090.271 C885.455,1090.271 884.112,1091.614 884.112,1093.271 L878.112,1093.271 C878.112,1091.614 876.769,1090.271 875.112,1090.271 L857.112,1090.271 C855.455,1090.271 854.112,1091.614 854.112,1093.271 L848.112,1093.271 C848.112,1091.614 846.769,1090.271 845.112,1090.271 L827.112,1090.271 C825.455,1090.271 824.112,1091.614 824.112,1093.271 L818.112,1093.271 C818.112,1091.614 816.769,1090.271 815.112,1090.271 L797.112,1090.271 C795.455,1090.271 794.112,1091.614 794.112,1093.271 L788.112,1093.271 C788.112,1091.614 786.769,1090.271 785.112,1090.271 L767.112,1090.271 C765.455,1090.271 764.112,1091.614 764.112,1093.271 L758.112,1093.271 C758.112,1091.614 756.769,1090.271 755.112,1090.271 L737.112,1090.271 C735.455,1090.271 734.112,1091.614 734.112,1093.271 L728.112,1093.271 C728.112,1091.614 726.769,1090.271 725.112,1090.271 L707.112,1090.271 C705.455,1090.271 704.112,1091.614 704.112,1093.271 L698.112,1093.271 C698.112,1091.614 696.769,1090.271 695.112,1090.271 L677.112,1090.271 C675.455,1090.271 674.112,1091.614 674.112,1093.271 L668.112,1093.271 C668.112,1091.614 666.769,1090.271 665.112,1090.271 L647.112,1090.271 C645.455,1090.271 644.112,1091.614 644.112,1093.271 L638.112,1093.271 C638.112,1091.614 636.769,1090.271 635.112,1090.271 L617.112,1090.271 C615.455,1090.271 614.112,1091.614 614.112,1093.271 L608.112,1093.271 C608.112,1091.614 606.769,1090.271 605.112,1090.271 L600.411,1090.271 C594.605,1090.293 589.978,1095.371 589.108,1101.922 C588.89,1103.565 590.044,1105.073 591.687,1105.291 L591.96,1105.3 L591.96,1111.313 C590.304,1111.313 588.96,1112.656 588.96,1114.313 L588.96,1132.313 C588.96,1133.97 590.304,1135.313 591.96,1135.313 L591.96,1141.313 C590.304,1141.313 588.96,1142.656 588.96,1144.313 L588.96,1162.313 C588.96,1163.97 590.304,1165.313 591.96,1165.313 L591.96,1171.313 C590.304,1171.313 588.96,1172.656 588.96,1174.313 L588.96,1192.313 C588.96,1193.97 590.304,1195.313 591.96,1195.313 L591.96,1201.313 C590.304,1201.313 588.96,1202.656 588.96,1204.313 L588.96,1222.313 C588.96,1223.97 590.304,1225.313 591.96,1225.313 L591.96,1231.313 C590.304,1231.313 588.96,1232.656 588.96,1234.313 L588.96,1252.313 C588.96,1253.97 590.304,1255.313 591.96,1255.313 L591.96,1261.313 C590.304,1261.313 588.96,1262.656 588.96,1264.313 L588.96,1269.141 C588.976,1275.451 592.465,1281.024 597.62,1282.582 C599.207,1283.062 600.881,1282.165 601.36,1280.579 L601.473,1280 L607.467,1280 C607.467,1281.657 608.81,1283 610.467,1283 L628.467,1283 C630.124,1283 631.467,1281.657 631.467,1280 L637.467,1280 C637.467,1281.657 638.81,1283 640.467,1283 L658.467,1283 C660.124,1283 661.467,1281.657 661.467,1280 L667.467,1280 C667.467,1281.657 668.81,1283 670.467,1283 L688.467,1283 C690.124,1283 691.467,1281.657 691.467,1280 L697.467,1280 C697.467,1281.657 698.81,1283 700.467,1283 L718.467,1283 C720.124,1283 721.467,1281.657 721.467,1280 L727.467,1280 C727.467,1281.657 728.81,1283 730.467,1283 L748.467,1283 C750.124,1283 751.467,1281.657 751.467,1280 L757.467,1280 C757.467,1281.657 758.81,1283 760.467,1283 L778.467,1283 C780.124,1283 781.467,1281.657 781.467,1280 L787.467,1280 C787.467,1281.657 788.81,1283 790.467,1283 L808.467,1283 C810.124,1283 811.467,1281.657 811.467,1280 L817.467,1280 C817.467,1281.657 818.81,1283 820.467,1283 L838.467,1283 C840.124,1283 841.467,1281.657 841.467,1280 L847.467,1280 C847.467,1281.657 848.81,1283 850.467,1283 L868.467,1283 C870.124,1283 871.467,1281.657 871.467,1280 L877.467,1280 C877.467,1281.657 878.81,1283 880.467,1283 L898.467,1283 C900.124,1283 901.467,1281.657 901.467,1280 L907.467,1280 C907.467,1281.657 908.81,1283 910.467,1283 L928.467,1283 C930.124,1283 931.467,1281.657 931.467,1280 L937.467,1280 C937.467,1281.657 938.81,1283 940.467,1283 L958.467,1283 C960.124,1283 961.467,1281.657 961.467,1280 L967.467,1280 C967.467,1281.657 968.81,1283 970.467,1283 L988.467,1283 C990.124,1283 991.467,1281.657 991.467,1280 L997.467,1280 C997.467,1281.657 998.81,1283 1000.467,1283 L1018.467,1283 C1020.124,1283 1021.467,1281.657 1021.467,1280 L1027.467,1280 C1027.467,1281.657 1028.81,1283 1030.467,1283 L1048.467,1283 C1050.124,1283 1051.467,1281.657 1051.467,1280 L1057.467,1280 C1057.467,1281.657 1058.81,1283 1060.467,1283 L1078.467,1283 C1080.124,1283 1081.467,1281.657 1081.467,1280 L1087.467,1280 C1087.467,1281.657 1088.81,1283 1090.467,1283 L1108.467,1283 C1110.124,1283 1111.467,1281.657 1111.467,1280 L1117.467,1280 C1117.467,1281.657 1118.81,1283 1120.467,1283 L1138.467,1283 C1140.124,1283 1141.467,1281.657 1141.467,1280 L1147.467,1280 C1147.467,1281.657 1148.81,1283 1150.467,1283 L1168.467,1283 C1170.124,1283 1171.467,1281.657 1171.467,1280 L1177.467,1280 C1177.467,1281.657 1178.81,1283 1180.467,1283 L1198.467,1283 C1200.124,1283 1201.467,1281.657 1201.467,1280 L1207.467,1280 C1207.467,1281.657 1208.81,1283 1210.467,1283 L1228.467,1283 C1230.124,1283 1231.467,1281.657 1231.467,1280 L1237.467,1280 C1237.467,1281.657 1238.81,1283 1240.467,1283 L1258.467,1283 C1260.124,1283 1261.467,1281.657 1261.467,1280 L1267.467,1280 C1267.467,1281.657 1268.81,1283 1270.467,1283 L1288.467,1283 C1290.124,1283 1291.467,1281.657 1291.467,1280 z"/>
    </clipPath>
    <filter id="Shadow_2">
      <feGaussianBlur in="SourceAlpha" stdDeviation="4"/>
      <feOffset dx="0" dy="0" result="offsetblur"/>
      <feFlood flood-color="#000000"/>
      <feComposite in2="offsetblur" operator="in"/>
    </filter>
    <clipPath id="Clip_3">
      <path d="M902.163,831.846 L1013.013,831.846 L1013.013,1025.727 L902.163,1025.727 z M957.588,839.846 C955.932,839.846 954.588,841.19 954.588,842.846 L954.588,860.917 C954.588,862.574 955.932,863.917 957.588,863.917 C959.245,863.917 960.588,862.574 960.588,860.917 L960.588,842.846 C960.588,841.19 959.245,839.846 957.588,839.846 z M957.588,887.205 C955.932,887.205 954.588,888.548 954.588,890.205 L954.588,1007.485 L913.285,966.181 C912.113,965.009 910.214,965.009 909.042,966.181 C907.87,967.353 907.87,969.252 909.042,970.424 L955.467,1016.849 L955.891,1017.195 C955.913,1017.217 955.902,1017.211 955.92,1017.219 C956.085,1017.353 955.931,1017.23 956.465,1017.448 C956.991,1017.669 956.797,1017.648 957.006,1017.669 C957.024,1017.676 957.012,1017.672 957.044,1017.672 L957.588,1017.727 L958.132,1017.672 C958.165,1017.672 958.152,1017.676 958.171,1017.669 C958.379,1017.648 958.186,1017.669 958.711,1017.448 C959.246,1017.23 959.092,1017.353 959.256,1017.219 C959.274,1017.211 959.263,1017.217 959.285,1017.195 L959.71,1016.849 L1006.135,970.424 C1007.306,969.252 1007.306,967.353 1006.135,966.181 C1004.963,965.009 1003.064,965.009 1001.892,966.181 L960.588,1007.485 L960.588,890.205 C960.588,888.548 959.245,887.205 957.588,887.205 z"/>
    </clipPath>
    <filter id="Shadow_4">
      <feGaussianBlur in="SourceAlpha" stdDeviation="2.5"/>
      <feOffset dx="0" dy="2" result="offsetblur"/>
      <feFlood flood-color="#000000"/>
      <feComposite in2="offsetblur" operator="in"/>
    </filter>
  </defs>
  <g id="Layer_1">
    <path d="M1330.464,1280 L592.167,1280 C588.124,1280 584.845,1270.547 584.845,1258.884 L584.845,0 L1337.786,0 L1337.786,1258.884 C1337.786,1270.547 1334.51,1280 1330.464,1280" fill="#EAEAEA"/>
    <g>
      <path d="M1291.467,1280 C1291.467,1281.657 1290.124,1283 1288.467,1283 L1270.467,1283 C1268.81,1283 1267.467,1281.657 1267.467,1280 L1261.467,1280 C1261.467,1281.657 1260.124,1283 1258.467,1283 L1240.467,1283 C1238.81,1283 1237.467,1281.657 1237.467,1280 L1231.467,1280 C1231.467,1281.657 1230.124,1283 1228.467,1283 L1210.467,1283 C1208.81,1283 1207.467,1281.657 1207.467,1280 L1201.467,1280 C1201.467,1281.657 1200.124,1283 1198.467,1283 L1180.467,1283 C1178.81,1283 1177.467,1281.657 1177.467,1280 L1171.467,1280 C1171.467,1281.657 1170.124,1283 1168.467,1283 L1150.467,1283 C1148.81,1283 1147.467,1281.657 1147.467,1280 L1141.467,1280 C1141.467,1281.657 1140.124,1283 1138.467,1283 L1120.467,1283 C1118.81,1283 1117.467,1281.657 1117.467,1280 L1111.467,1280 C1111.467,1281.657 1110.124,1283 1108.467,1283 L1090.467,1283 C1088.81,1283 1087.467,1281.657 1087.467,1280 L1081.467,1280 C1081.467,1281.657 1080.124,1283 1078.467,1283 L1060.467,1283 C1058.81,1283 1057.467,1281.657 1057.467,1280 L1051.467,1280 C1051.467,1281.657 1050.124,1283 1048.467,1283 L1030.467,1283 C1028.81,1283 1027.467,1281.657 1027.467,1280 L1021.467,1280 C1021.467,1281.657 1020.124,1283 1018.467,1283 L1000.467,1283 C998.81,1283 997.467,1281.657 997.467,1280 L991.467,1280 C991.467,1281.657 990.124,1283 988.467,1283 L970.467,1283 C968.81,1283 967.467,1281.657 967.467,1280 L961.467,1280 C961.467,1281.657 960.124,1283 958.467,1283 L940.467,1283 C938.81,1283 937.467,1281.657 937.467,1280 L931.467,1280 C931.467,1281.657 930.124,1283 928.467,1283 L910.467,1283 C908.81,1283 907.467,1281.657 907.467,1280 L901.467,1280 C901.467,1281.657 900.124,1283 898.467,1283 L880.467,1283 C878.81,1283 877.467,1281.657 877.467,1280 L871.467,1280 C871.467,1281.657 870.124,1283 868.467,1283 L850.467,1283 C848.81,1283 847.467,1281.657 847.467,1280 L841.467,1280 C841.467,1281.657 840.124,1283 838.467,1283 L820.467,1283 C818.81,1283 817.467,1281.657 817.467,1280 L811.467,1280 C811.467,1281.657 810.124,1283 808.467,1283 L790.467,1283 C788.81,1283 787.467,1281.657 787.467,1280 L781.467,1280 C781.467,1281.657 780.124,1283 778.467,1283 L760.467,1283 C758.81,1283 757.467,1281.657 757.467,1280 L751.467,1280 C751.467,1281.657 750.124,1283 748.467,1283 L730.467,1283 C728.81,1283 727.467,1281.657 727.467,1280 L721.467,1280 C721.467,1281.657 720.124,1283 718.467,1283 L700.467,1283 C698.81,1283 697.467,1281.657 697.467,1280 L691.467,1280 C691.467,1281.657 690.124,1283 688.467,1283 L670.467,1283 C668.81,1283 667.467,1281.657 667.467,1280 L661.467,1280 C661.467,1281.657 660.124,1283 658.467,1283 L640.467,1283 C638.81,1283 637.467,1281.657 637.467,1280 L631.467,1280 C631.467,1281.657 630.124,1283 628.467,1283 L610.467,1283 C608.81,1283 607.467,1281.657 607.467,1280 L601.473,1280 L601.36,1280.579 C600.881,1282.165 599.207,1283.062 597.62,1282.582 C592.465,1281.024 588.976,1275.451 588.96,1269.141 L588.96,1264.313 C588.96,1262.656 590.304,1261.313 591.96,1261.313 L591.96,1255.313 C590.304,1255.313 588.96,1253.97 588.96,1252.313 L588.96,1234.313 C588.96,1232.656 590.304,1231.313 591.96,1231.313 L591.96,1225.313 C590.304,1225.313 588.96,1223.97 588.96,1222.313 L588.96,1204.313 C588.96,1202.656 590.304,1201.313 591.96,1201.313 L591.96,1195.313 C590.304,1195.313 588.96,1193.97 588.96,1192.313 L588.96,1174.313 C588.96,1172.656 590.304,1171.313 591.96,1171.313 L591.96,1165.313 C590.304,1165.313 588.96,1163.97 588.96,1162.313 L588.96,1144.313 C588.96,1142.656 590.304,1141.313 591.96,1141.313 L591.96,1135.313 C590.304,1135.313 588.96,1133.97 588.96,1132.313 L588.96,1114.313 C588.96,1112.656 590.304,1111.313 591.96,1111.313 L591.96,1105.3 L591.687,1105.291 C590.044,1105.073 588.89,1103.565 589.108,1101.922 C589.978,1095.371 594.605,1090.293 600.411,1090.271 L605.112,1090.271 C606.769,1090.271 608.112,1091.614 608.112,1093.271 L614.112,1093.271 C614.112,1091.614 615.455,1090.271 617.112,1090.271 L635.112,1090.271 C636.769,1090.271 638.112,1091.614 638.112,1093.271 L644.112,1093.271 C644.112,1091.614 645.455,1090.271 647.112,1090.271 L665.112,1090.271 C666.769,1090.271 668.112,1091.614 668.112,1093.271 L674.112,1093.271 C674.112,1091.614 675.455,1090.271 677.112,1090.271 L695.112,1090.271 C696.769,1090.271 698.112,1091.614 698.112,1093.271 L704.112,1093.271 C704.112,1091.614 705.455,1090.271 707.112,1090.271 L725.112,1090.271 C726.769,1090.271 728.112,1091.614 728.112,1093.271 L734.112,1093.271 C734.112,1091.614 735.455,1090.271 737.112,1090.271 L755.112,1090.271 C756.769,1090.271 758.112,1091.614 758.112,1093.271 L764.112,1093.271 C764.112,1091.614 765.455,1090.271 767.112,1090.271 L785.112,1090.271 C786.769,1090.271 788.112,1091.614 788.112,1093.271 L794.112,1093.271 C794.112,1091.614 795.455,1090.271 797.112,1090.271 L815.112,1090.271 C816.769,1090.271 818.112,1091.614 818.112,1093.271 L824.112,1093.271 C824.112,1091.614 825.455,1090.271 827.112,1090.271 L845.112,1090.271 C846.769,1090.271 848.112,1091.614 848.112,1093.271 L854.112,1093.271 C854.112,1091.614 855.455,1090.271 857.112,1090.271 L875.112,1090.271 C876.769,1090.271 878.112,1091.614 878.112,1093.271 L884.112,1093.271 C884.112,1091.614 885.455,1090.271 887.112,1090.271 L905.112,1090.271 C906.769,1090.271 908.112,1091.614 908.112,1093.271 L914.112,1093.271 C914.112,1091.614 915.455,1090.271 917.112,1090.271 L935.112,1090.271 C936.769,1090.271 938.112,1091.614 938.112,1093.271 L944.112,1093.271 C944.112,1091.614 945.455,1090.271 947.112,1090.271 L965.112,1090.271 C966.769,1090.271 968.112,1091.614 968.112,1093.271 L974.112,1093.271 C974.112,1091.614 975.455,1090.271 977.112,1090.271 L995.112,1090.271 C996.769,1090.271 998.112,1091.614 998.112,1093.271 L1004.112,1093.271 C1004.112,1091.614 1005.455,1090.271 1007.112,1090.271 L1025.112,1090.271 C1026.769,1090.271 1028.112,1091.614 1028.112,1093.271 L1034.112,1093.271 C1034.112,1091.614 1035.455,1090.271 1037.112,1090.271 L1055.112,1090.271 C1056.769,1090.271 1058.112,1091.614 1058.112,1093.271 L1064.112,1093.271 C1064.112,1091.614 1065.455,1090.271 1067.112,1090.271 L1085.112,1090.271 C1086.769,1090.271 1088.112,1091.614 1088.112,1093.271 L1094.112,1093.271 C1094.112,1091.614 1095.455,1090.271 1097.112,1090.271 L1115.112,1090.271 C1116.769,1090.271 1118.112,1091.614 1118.112,1093.271 L1124.112,1093.271 C1124.112,1091.614 1125.455,1090.271 1127.112,1090.271 L1145.112,1090.271 C1146.769,1090.271 1148.112,1091.614 1148.112,1093.271 L1154.112,1093.271 C1154.112,1091.614 1155.455,1090.271 1157.112,1090.271 L1175.112,1090.271 C1176.769,1090.271 1178.112,1091.614 1178.112,1093.271 L1184.112,1093.271 C1184.112,1091.614 1185.455,1090.271 1187.112,1090.271 L1205.112,1090.271 C1206.769,1090.271 1208.112,1091.614 1208.112,1093.271 L1214.112,1093.271 C1214.112,1091.614 1215.455,1090.271 1217.112,1090.271 L1235.112,1090.271 C1236.769,1090.271 1238.112,1091.614 1238.112,1093.271 L1244.112,1093.271 C1244.112,1091.614 1245.455,1090.271 1247.112,1090.271 L1265.112,1090.271 C1266.769,1090.271 1268.112,1091.614 1268.112,1093.271 L1274.112,1093.271 C1274.112,1091.614 1275.455,1090.271 1277.112,1090.271 L1295.112,1090.271 C1296.769,1090.271 1298.112,1091.614 1298.112,1093.271 L1304.112,1093.271 C1304.112,1091.614 1305.455,1090.271 1307.112,1090.271 L1318.467,1090.271 C1321.58,1090.271 1324.45,1091.754 1326.554,1094.278 C1327.615,1095.551 1327.443,1097.443 1326.171,1098.504 L1325.805,1098.751 C1326.658,1100.423 1326.871,1102.32 1326.944,1104.164 L1326.944,1104.633 C1328.601,1104.633 1329.944,1105.976 1329.944,1107.633 L1329.944,1125.633 C1329.944,1127.29 1328.601,1128.633 1326.944,1128.633 L1326.944,1134.633 C1328.601,1134.633 1329.944,1135.976 1329.944,1137.633 L1329.944,1155.633 C1329.944,1157.29 1328.601,1158.633 1326.944,1158.633 L1326.944,1164.633 C1328.601,1164.633 1329.944,1165.976 1329.944,1167.633 L1329.944,1185.633 C1329.944,1187.29 1328.601,1188.633 1326.944,1188.633 L1326.944,1194.633 C1328.601,1194.633 1329.944,1195.976 1329.944,1197.633 L1329.944,1215.633 C1329.944,1217.29 1328.601,1218.633 1326.944,1218.633 L1326.944,1224.633 C1328.601,1224.633 1329.944,1225.976 1329.944,1227.633 L1329.944,1245.633 C1329.944,1247.29 1328.601,1248.633 1326.944,1248.633 L1326.944,1254.633 C1328.601,1254.633 1329.944,1255.976 1329.944,1257.633 L1329.944,1269.106 C1329.944,1271.915 1329.258,1274.613 1327.986,1276.898 C1327.18,1278.346 1325.353,1278.866 1323.906,1278.06 L1323.53,1277.798 C1322.181,1278.969 1322.904,1278.47 1321.368,1279.304 C1321.485,1279.582 1321.403,1279.362 1321.467,1280 C1321.467,1281.657 1320.124,1283 1318.467,1283 L1300.467,1283 C1298.81,1283 1297.467,1281.657 1297.467,1280 L1291.467,1280 z" clip-path="url(#Clip_1)" filter="url(#Shadow_2)" fill="rgba(0,0,0,0.75)"/>
      <path d="M1318.467,1280 L600.437,1280 C595.755,1280 591.96,1275.123 591.96,1269.106 L591.96,1104.164 C591.96,1098.148 595.755,1093.271 600.437,1093.271 L1318.467,1093.271 C1323.149,1093.271 1326.944,1098.148 1326.944,1104.164 L1326.944,1269.106 C1326.944,1275.123 1323.149,1280 1318.467,1280 z" fill="#FFFFFF"/>
      <path d="M1318.467,1280 L600.437,1280 C595.755,1280 591.96,1275.123 591.96,1269.106 L591.96,1104.164 C591.96,1098.148 595.755,1093.271 600.437,1093.271 L1318.467,1093.271 C1323.149,1093.271 1326.944,1098.148 1326.944,1104.164 L1326.944,1269.106 C1326.944,1275.123 1323.149,1280 1318.467,1280 z" fill-opacity="0" stroke="#4C35F1" stroke-width="6" stroke-dasharray="18,12" stroke-linecap="round" stroke-linejoin="round"/>
    </g>
    <path d="M55.881,1239.663 z" fill="#DDDDDD"/>
    <g>
      <path d="M957.588,887.205 C959.245,887.205 960.588,888.548 960.588,890.205 L960.588,1007.485 L1001.892,966.181 C1003.064,965.009 1004.963,965.009 1006.135,966.181 C1007.306,967.353 1007.306,969.252 1006.135,970.424 L959.71,1016.849 L959.285,1017.195 C959.263,1017.217 959.274,1017.211 959.256,1017.219 C959.092,1017.353 959.246,1017.23 958.711,1017.448 C958.186,1017.669 958.379,1017.648 958.171,1017.669 C958.152,1017.676 958.165,1017.672 958.132,1017.672 L957.588,1017.727 L957.044,1017.672 C957.012,1017.672 957.024,1017.676 957.006,1017.669 C956.797,1017.648 956.991,1017.669 956.465,1017.448 C955.931,1017.23 956.085,1017.353 955.92,1017.219 C955.902,1017.211 955.913,1017.217 955.891,1017.195 L955.467,1016.849 L909.042,970.424 C907.87,969.252 907.87,967.353 909.042,966.181 C910.214,965.009 912.113,965.009 913.285,966.181 L954.588,1007.485 L954.588,890.205 C954.588,888.548 955.932,887.205 957.588,887.205 z M957.588,839.846 C959.245,839.846 960.588,841.19 960.588,842.846 L960.588,860.917 C960.588,862.574 959.245,863.917 957.588,863.917 C955.932,863.917 954.588,862.574 954.588,860.917 L954.588,842.846 C954.588,841.19 955.932,839.846 957.588,839.846 z" clip-path="url(#Clip_3)" filter="url(#Shadow_4)" fill="rgba(0,0,0,0.75)"/>
      <path d="M957.588,1014.727 L957.588,890.205 M957.588,842.846 L957.588,860.917 M911.163,968.302 L957.588,1014.727 M1004.013,968.302 L957.588,1014.727" fill-opacity="0" stroke="#4C35F1" stroke-width="6" stroke-linecap="round"/>
    </g>
    <g>
      <g id="shapes-and-symbols">
        <path d="M1005.833,519.51 L913.071,519.51 C902.403,519.522 893.757,528.168 893.745,538.836 L893.745,739.821 C893.757,750.489 902.403,759.135 913.071,759.147 L1005.833,759.147 C1016.502,759.135 1025.147,750.489 1025.159,739.821 L1025.159,538.836 C1025.147,528.168 1016.502,519.522 1005.833,519.51 z M985.658,527.24 L983.339,538.836 L935.565,538.836 L933.246,527.24 z M1017.429,739.821 C1017.421,746.222 1012.234,751.409 1005.833,751.417 L913.071,751.417 C906.67,751.409 901.483,746.222 901.476,739.821 L901.476,538.836 C901.483,532.435 906.67,527.248 913.071,527.24 L925.362,527.24 L928.606,543.459 C928.967,545.266 930.554,546.566 932.396,546.566 L986.508,546.566 C988.35,546.566 989.937,545.266 990.298,543.459 L993.542,527.24 L1005.833,527.24 C1012.234,527.248 1017.421,532.435 1017.429,538.836 z" fill="#FFFFFF"/>
        <path d="M936.261,735.956 L913.071,735.956 C910.936,735.956 909.206,737.687 909.206,739.821 C909.206,741.956 910.936,743.686 913.071,743.686 L936.261,743.686 C938.396,743.686 940.127,741.956 940.127,739.821 C940.127,737.687 938.396,735.956 936.261,735.956 z" fill="#FFFFFF"/>
        <path d="M951.722,735.956 L947.857,735.956 C945.722,735.956 943.992,737.687 943.992,739.821 C943.992,741.956 945.722,743.686 947.857,743.686 L951.722,743.686 C953.857,743.686 955.587,741.956 955.587,739.821 C955.587,737.687 953.857,735.956 951.722,735.956 z" fill="#FFFFFF"/>
      </g>
    </g>
    <g>
      <g>
        <path d="M931.59,647.474 L931.59,646.236 Q931.59,644.568 932.742,643.482 L943.665,633.3 Q944.337,632.719 944.846,633.06 Q945.354,633.401 945.354,634.336 L945.354,638.682 Q945.354,640.551 943.665,642.092 L938.559,646.842 L943.665,651.617 Q945.354,653.159 945.354,655.028 L945.354,659.374 Q945.354,660.309 944.846,660.637 Q944.337,660.966 943.665,660.41 L932.742,650.203 Q931.59,649.141 931.59,647.474 z" fill="#FFFFFF"/>
        <path d="M953.096,630.73 L953.096,618.476 Q953.096,618.224 953.409,618.06 Q953.723,617.897 954.189,617.897 L958.202,617.897 Q958.668,617.897 958.982,618.06 Q959.295,618.224 959.295,618.476 L959.295,630.73 Q959.295,630.973 958.982,631.136 Q958.668,631.3 958.202,631.3 L954.189,631.3 Q953.723,631.3 953.409,631.136 Q953.096,630.973 953.096,630.73 z" fill="#FFFFFF"/>
        <path d="M959.295,633.886 L959.295,659.791 Q959.295,660.213 958.959,660.486 Q958.623,660.759 958.105,660.759 L948.315,660.759 Q947.816,660.759 947.48,660.486 Q947.144,660.213 947.144,659.791 L947.144,655.426 Q947.144,655.005 947.48,654.732 Q947.816,654.458 948.315,654.458 L953.037,654.458 L953.037,639.391 L948.315,639.391 Q947.816,639.391 947.48,639.118 Q947.144,638.845 947.144,638.439 L947.144,633.886 Q947.144,633.48 947.48,633.207 Q947.816,632.934 948.315,632.934 L958.105,632.934 Q958.623,632.934 958.959,633.207 Q959.295,633.48 959.295,633.886 z" fill="#FFFFFF"/>
      </g>
      <g>
        <path d="M977.276,647.431 L977.276,646.193 Q977.276,644.525 978.428,643.439 L989.351,633.257 Q990.023,632.676 990.532,633.017 Q991.041,633.358 991.041,634.293 L991.041,638.638 Q991.041,640.508 989.351,642.049 L984.245,646.799 L989.351,651.574 Q991.041,653.115 991.041,654.985 L991.041,659.331 Q991.041,660.266 990.532,660.594 Q990.023,660.922 989.351,660.367 L978.428,650.159 Q977.276,649.098 977.276,647.431 z" fill="#FFFFFF"/>
        <path d="M976.572,646.219 L976.572,647.457 Q976.572,649.125 975.42,650.211 L964.497,660.393 Q963.825,660.974 963.316,660.633 Q962.808,660.292 962.808,659.357 L962.808,655.012 Q962.808,653.142 964.497,651.601 L969.603,646.851 L964.497,642.076 Q962.808,640.535 962.808,638.665 L962.808,634.319 Q962.808,633.384 963.316,633.056 Q963.825,632.728 964.497,633.283 L975.42,643.491 Q976.572,644.552 976.572,646.219 z" fill="#FFFFFF"/>
      </g>
    </g>
    <path d="M614.155,1104.87 L728.59,1104.87 C733.008,1104.87 736.59,1108.451 736.59,1112.87 L736.59,1260.401 C736.59,1264.819 733.008,1268.401 728.59,1268.401 L614.155,1268.401 C609.736,1268.401 606.155,1264.819 606.155,1260.401 L606.155,1112.87 C606.155,1108.451 609.736,1104.87 614.155,1104.87 z" fill="#B1B1B1"/>
    <path d="M757.232,1104.87 L871.667,1104.87 C876.085,1104.87 879.667,1108.452 879.667,1112.87 L879.667,1260.401 C879.667,1264.819 876.085,1268.401 871.667,1268.401 L757.232,1268.401 C752.813,1268.401 749.232,1264.819 749.232,1260.401 L749.232,1112.87 C749.232,1108.452 752.813,1104.87 757.232,1104.87 z" fill="#DBDBDB"/>
    <path d="M1043.51,1104.87 L1157.945,1104.87 C1162.363,1104.87 1165.945,1108.452 1165.945,1112.87 L1165.945,1260.401 C1165.945,1264.819 1162.363,1268.401 1157.945,1268.401 L1043.51,1268.401 C1039.092,1268.401 1035.51,1264.819 1035.51,1260.401 L1035.51,1112.87 C1035.51,1108.452 1039.092,1104.87 1043.51,1104.87 z" fill="#DBDBDB"/>
    <path d="M1186.587,1104.87 L1301.022,1104.87 C1305.44,1104.87 1309.022,1108.452 1309.022,1112.87 L1309.022,1260.401 C1309.022,1264.819 1305.44,1268.401 1301.022,1268.401 L1186.587,1268.401 C1182.168,1268.401 1178.587,1264.819 1178.587,1260.401 L1178.587,1112.87 C1178.587,1108.452 1182.168,1104.87 1186.587,1104.87 z" fill="#DBDBDB"/>
    <path d="M901.736,1104.87 L1016.171,1104.87 C1020.59,1104.87 1024.171,1108.452 1024.171,1112.87 L1024.171,1260.401 C1024.171,1264.819 1020.59,1268.401 1016.171,1268.401 L901.736,1268.401 C897.318,1268.401 893.736,1264.819 893.736,1260.401 L893.736,1112.87 C893.736,1108.452 897.318,1104.87 901.736,1104.87 z" fill="#DBDBDB"/>
    <g>
      <g>
        <path d="M929.969,1205.499 L985.149,1205.499 C988.097,1205.499 990.543,1207.947 990.543,1210.966 C990.543,1213.961 988.033,1216.433 985.084,1216.433 L929.969,1216.433 C927.023,1216.433 924.633,1213.985 924.633,1210.966 L924.633,1210.966 C924.633,1207.947 927.023,1205.499 929.969,1205.499 z" fill="#B1B1B1"/>
        <path d="M957.328,1192.479 C947.723,1192.479 939.937,1184.5 939.937,1174.658 C939.937,1164.817 947.723,1156.838 957.328,1156.838 C966.934,1156.838 974.722,1164.817 974.722,1174.658 C974.722,1184.5 966.934,1192.479 957.328,1192.479 z" fill="#B1B1B1"/>
      </g>
    </g>
    <g>
      <g>
        <path d="M786.83,1205.499 L842.01,1205.499 C844.958,1205.499 847.404,1207.947 847.404,1210.966 C847.404,1213.961 844.894,1216.433 841.945,1216.433 L786.83,1216.433 C783.884,1216.433 781.494,1213.985 781.494,1210.966 L781.494,1210.966 C781.494,1207.947 783.884,1205.499 786.83,1205.499 z" fill="#B1B1B1"/>
        <path d="M814.189,1192.479 C804.584,1192.479 796.798,1184.5 796.798,1174.658 C796.798,1164.817 804.584,1156.838 814.189,1156.838 C823.795,1156.838 831.583,1164.817 831.583,1174.658 C831.583,1184.5 823.795,1192.479 814.189,1192.479 z" fill="#B1B1B1"/>
      </g>
    </g>
    <g>
      <g>
        <path d="M1073.108,1205.499 L1128.288,1205.499 C1131.236,1205.499 1133.682,1207.947 1133.682,1210.966 C1133.682,1213.961 1131.172,1216.433 1128.224,1216.433 L1073.108,1216.433 C1070.162,1216.433 1067.772,1213.985 1067.772,1210.966 L1067.772,1210.966 C1067.772,1207.947 1070.162,1205.499 1073.108,1205.499 z" fill="#B1B1B1"/>
        <path d="M1100.468,1192.479 C1090.862,1192.479 1083.076,1184.5 1083.076,1174.658 C1083.076,1164.817 1090.862,1156.838 1100.468,1156.838 C1110.073,1156.838 1117.861,1164.817 1117.861,1174.658 C1117.861,1184.5 1110.073,1192.479 1100.468,1192.479 z" fill="#B1B1B1"/>
      </g>
    </g>
    <g>
      <g>
        <path d="M1216.185,1205.499 L1271.365,1205.499 C1274.313,1205.499 1276.759,1207.947 1276.759,1210.966 C1276.759,1213.961 1274.249,1216.433 1271.3,1216.433 L1216.185,1216.433 C1213.239,1216.433 1210.849,1213.985 1210.849,1210.966 L1210.849,1210.966 C1210.849,1207.947 1213.239,1205.499 1216.185,1205.499 z" fill="#B1B1B1"/>
        <path d="M1243.544,1192.479 C1233.938,1192.479 1226.153,1184.5 1226.153,1174.658 C1226.153,1164.817 1233.938,1156.838 1243.544,1156.838 C1253.15,1156.838 1260.938,1164.817 1260.938,1174.658 C1260.938,1184.5 1253.15,1192.479 1243.544,1192.479 z" fill="#B1B1B1"/>
      </g>
    </g>
    <g>
      <g>
        <path d="M643.753,1205.499 L698.933,1205.499 C701.881,1205.499 704.327,1207.947 704.327,1210.966 C704.327,1213.961 701.817,1216.433 698.869,1216.433 L643.753,1216.433 C640.807,1216.433 638.417,1213.985 638.417,1210.966 L638.417,1210.966 C638.417,1207.947 640.807,1205.499 643.753,1205.499 z" fill="#FFFFFF"/>
        <path d="M671.113,1192.479 C661.507,1192.479 653.721,1184.5 653.721,1174.658 C653.721,1164.817 661.507,1156.838 671.113,1156.838 C680.719,1156.838 688.506,1164.817 688.506,1174.658 C688.506,1184.5 680.719,1192.479 671.113,1192.479 z" fill="#FFFFFF"/>
      </g>
    </g>
  </g>
</svg>
