<?xml version="1.0" encoding="UTF-8"?>
<!DOCTYPE svg PUBLIC "-//W3C//DTD SVG 1.1//EN" "http://www.w3.org/Graphics/SVG/1.1/DTD/svg11.dtd">
<svg version="1.1" xmlns="http://www.w3.org/2000/svg" xmlns:xlink="http://www.w3.org/1999/xlink" x="0" y="0" width="400" height="300" viewBox="0, 0, 400, 300">
  <g id="Layer_1">
    <path d="M0,0 L400,0 L400,300 L0,300 L0,0 z" fill="#DDDDDD"/>
    <g>
      <path d="M47.932,256.167 L47.932,237.868 Q47.932,237.295 48.329,236.884 Q48.726,236.472 49.299,236.472 L53.62,236.472 Q54.135,236.472 54.708,236.884 Q55.281,237.295 55.649,237.868 L64.526,251.522 L64.526,237.839 Q64.526,237.266 64.93,236.869 Q65.334,236.472 65.907,236.472 L68.435,236.472 Q69.009,236.472 69.413,236.869 Q69.817,237.266 69.817,237.868 L69.817,256.167 Q69.817,256.74 69.413,257.144 Q69.009,257.548 68.435,257.548 L63.556,257.548 Q62.983,257.548 62.38,257.144 Q61.778,256.74 61.425,256.167 L53.297,243.556 L53.297,256.167 Q53.297,256.74 52.893,257.144 Q52.489,257.548 51.915,257.548 L49.329,257.548 Q48.756,257.548 48.344,257.144 Q47.932,256.74 47.932,256.167 z" fill="#FFFFFF"/>
      <path d="M75.123,255.726 Q72.83,253.609 72.83,249.487 Q72.83,245.364 75.123,243.255 Q77.416,241.146 81.715,241.146 Q86.014,241.146 88.306,243.255 Q90.599,245.364 90.599,249.487 Q90.599,253.609 88.306,255.726 Q86.014,257.842 81.715,257.842 Q77.416,257.842 75.123,255.726 z M78.841,245.673 Q77.93,246.863 77.93,249.479 Q77.93,252.095 78.841,253.301 Q79.753,254.506 81.715,254.506 Q83.677,254.506 84.595,253.301 Q85.514,252.095 85.514,249.479 Q85.514,246.863 84.595,245.673 Q83.677,244.482 81.715,244.482 Q79.753,244.482 78.841,245.673 z" fill="#FFFFFF"/>
      <path d="M103.842,238.368 L103.842,237.868 Q103.842,237.089 104.29,236.634 Q104.738,236.178 105.532,236.178 L107.354,236.178 Q108.133,236.178 108.589,236.626 Q109.045,237.075 109.045,237.868 L109.045,238.368 Q109.045,239.147 108.596,239.603 Q108.148,240.058 107.354,240.058 L105.532,240.058 Q104.753,240.058 104.297,239.603 Q103.842,239.147 103.842,238.368 z M103.9,256.652 L103.9,242.704 Q103.9,242.307 104.158,242.057 Q104.415,241.807 104.797,241.807 L108.089,241.807 Q108.486,241.807 108.736,242.064 Q108.986,242.322 108.986,242.704 L108.986,256.652 Q108.986,257.049 108.729,257.298 Q108.471,257.548 108.089,257.548 L104.797,257.548 Q104.4,257.548 104.15,257.298 Q103.9,257.049 103.9,256.652 z" fill="#FFFFFF"/>
      <path d="M112.66,256.652 L112.66,242.351 Q112.66,241.954 112.917,241.697 Q113.175,241.44 113.557,241.44 L116.849,241.44 Q117.246,241.44 117.496,241.697 Q117.746,241.954 117.746,242.351 L117.746,243.277 Q118.804,242.248 119.825,241.697 Q120.847,241.146 122.287,241.146 Q125.712,241.146 127.475,243.968 Q130.209,241.131 133.082,241.139 Q135.956,241.146 137.624,242.873 Q139.292,244.6 139.292,248.215 L139.292,256.652 Q139.292,257.049 139.042,257.298 Q138.792,257.548 138.395,257.548 L135.118,257.548 Q134.721,257.548 134.464,257.291 Q134.207,257.034 134.207,256.652 L134.207,248.215 Q134.207,244.688 131.649,244.703 Q130.091,244.703 128.431,246.951 Q128.519,247.583 128.519,248.215 L128.519,256.652 Q128.519,257.049 128.262,257.298 Q128.004,257.548 127.622,257.548 L124.345,257.548 Q123.948,257.548 123.691,257.291 Q123.433,257.034 123.433,256.652 L123.433,248.215 Q123.433,244.688 120.876,244.703 Q119.245,244.703 117.746,246.804 L117.746,256.652 Q117.746,257.049 117.488,257.298 Q117.231,257.548 116.849,257.548 L113.557,257.548 Q113.16,257.548 112.91,257.298 Q112.66,257.049 112.66,256.652 z" fill="#FFFFFF"/>
      <path d="M143.936,256.49 Q141.996,255.138 141.996,252.669 Q141.996,250.2 143.944,248.877 Q145.891,247.554 148.963,247.554 L153.828,247.554 Q153.828,245.834 153.108,245.158 Q152.387,244.482 150.587,244.482 Q148.787,244.482 148.059,245.371 Q147.332,246.261 146.273,246.261 L144.083,246.261 Q143.687,246.261 143.429,246.003 Q143.172,245.746 143.172,245.364 Q143.172,241.146 151.182,241.146 Q154.68,241.146 156.797,242.711 Q158.913,244.276 158.913,247.554 L158.913,256.652 Q158.913,257.049 158.663,257.298 Q158.413,257.548 158.017,257.548 L155.18,257.548 Q154.783,257.548 154.533,257.291 Q154.283,257.034 154.283,256.652 L154.283,256.196 Q151.961,257.857 148.926,257.85 Q145.891,257.842 143.936,256.49 z M149.316,250.89 Q148.287,250.89 147.692,251.39 Q147.096,251.89 147.096,252.683 Q147.096,253.477 147.714,253.991 Q148.331,254.506 149.463,254.506 Q151.726,254.506 153.828,253.183 L153.828,250.89 z" fill="#FFFFFF"/>
      <path d="M169.054,256.314 Q165.718,256.314 163.668,254.3 Q161.618,252.287 161.618,248.715 Q161.618,245.144 163.954,243.145 Q166.291,241.146 170.656,241.146 Q172.788,241.146 175.08,241.624 Q177.373,242.101 178.534,242.792 L178.534,256.402 Q178.534,259.679 176.374,261.245 Q174.213,262.81 170.311,262.81 Q166.409,262.81 164.3,261.833 Q162.191,260.855 162.191,258.606 Q162.191,258.21 162.448,257.952 Q162.705,257.695 163.102,257.695 L165.292,257.695 Q166.35,257.695 166.982,258.474 Q167.79,259.474 169.855,259.474 Q171.92,259.474 172.685,258.798 Q173.449,258.121 173.449,256.402 L173.449,255.711 Q171.097,256.314 169.054,256.314 z M170.348,244.703 Q166.865,244.688 166.865,248.722 Q166.865,252.757 170.26,252.757 Q171.671,252.757 173.449,252.316 L173.449,245.026 Q172.185,244.688 170.348,244.703 z" fill="#FFFFFF"/>
      <path d="M183.502,255.696 Q181.239,253.551 181.239,249.516 Q181.239,245.482 183.517,243.314 Q185.795,241.146 189.837,241.146 Q193.878,241.146 196.142,243.255 Q198.405,245.364 198.405,249.303 L198.405,250.141 Q198.405,250.538 198.148,250.795 Q197.891,251.052 197.494,251.052 L186.427,251.052 Q186.574,252.86 187.463,253.683 Q188.352,254.506 190.307,254.506 Q192.262,254.506 192.982,253.624 Q193.702,252.742 194.76,252.727 L196.95,252.727 Q197.347,252.727 197.604,252.985 Q197.862,253.242 197.862,253.639 Q197.862,257.857 189.822,257.842 Q185.765,257.842 183.502,255.696 z M186.397,247.951 L193.232,247.951 Q193.085,244.482 189.829,244.482 Q186.574,244.482 186.397,247.951 z" fill="#FFFFFF"/>
      <path d="M212.677,256.49 Q210.737,255.138 210.737,252.669 Q210.737,250.2 212.684,248.877 Q214.631,247.554 217.703,247.554 L222.568,247.554 Q222.568,245.834 221.848,245.158 Q221.128,244.482 219.327,244.482 Q217.527,244.482 216.799,245.371 Q216.072,246.261 215.013,246.261 L212.824,246.261 Q212.427,246.261 212.17,246.003 Q211.912,245.746 211.912,245.364 Q211.912,241.146 219.922,241.146 Q223.42,241.146 225.537,242.711 Q227.653,244.276 227.653,247.554 L227.653,256.652 Q227.653,257.049 227.403,257.298 Q227.154,257.548 226.757,257.548 L223.92,257.548 Q223.523,257.548 223.273,257.291 Q223.024,257.034 223.024,256.652 L223.024,256.196 Q220.701,257.857 217.666,257.85 Q214.631,257.842 212.677,256.49 z M218.056,250.89 Q217.027,250.89 216.432,251.39 Q215.837,251.89 215.837,252.683 Q215.837,253.477 216.454,253.991 Q217.071,254.506 218.203,254.506 Q220.466,254.506 222.568,253.183 L222.568,250.89 z" fill="#FFFFFF"/>
      <path d="M230.225,241.44 L233.047,241.44 Q233.679,241.44 234.238,241.8 Q234.796,242.16 235.031,242.733 L239.044,251.89 L243.042,242.733 Q243.277,242.16 243.835,241.8 Q244.394,241.44 245.026,241.44 L247.862,241.44 Q248.377,241.44 248.538,241.822 Q248.612,241.969 248.605,242.197 Q248.597,242.425 248.465,242.733 L242.116,256.255 Q241.851,256.828 241.285,257.188 Q240.719,257.548 240.117,257.548 L237.956,257.548 Q237.354,257.548 236.795,257.188 Q236.237,256.828 235.972,256.255 L229.623,242.733 Q229.476,242.41 229.476,242.189 Q229.476,241.44 230.225,241.44 z" fill="#FFFFFF"/>
      <path d="M250.545,256.49 Q248.605,255.138 248.605,252.669 Q248.605,250.2 250.553,248.877 Q252.5,247.554 255.572,247.554 L260.437,247.554 Q260.437,245.834 259.717,245.158 Q258.996,244.482 257.196,244.482 Q255.395,244.482 254.668,245.371 Q253.94,246.261 252.882,246.261 L250.692,246.261 Q250.295,246.261 250.038,246.003 Q249.781,245.746 249.781,245.364 Q249.781,241.146 257.791,241.146 Q261.289,241.146 263.406,242.711 Q265.522,244.276 265.522,247.554 L265.522,256.652 Q265.522,257.049 265.272,257.298 Q265.022,257.548 264.626,257.548 L261.789,257.548 Q261.392,257.548 261.142,257.291 Q260.892,257.034 260.892,256.652 L260.892,256.196 Q258.57,257.857 255.535,257.85 Q252.5,257.842 250.545,256.49 z M255.925,250.89 Q254.896,250.89 254.301,251.39 Q253.705,251.89 253.705,252.683 Q253.705,253.477 254.323,253.991 Q254.94,254.506 256.072,254.506 Q258.335,254.506 260.437,253.183 L260.437,250.89 z" fill="#FFFFFF"/>
      <path d="M270.041,238.368 L270.041,237.868 Q270.041,237.089 270.489,236.634 Q270.937,236.178 271.731,236.178 L273.554,236.178 Q274.333,236.178 274.788,236.626 Q275.244,237.075 275.244,237.868 L275.244,238.368 Q275.244,239.147 274.796,239.603 Q274.347,240.058 273.554,240.058 L271.731,240.058 Q270.952,240.058 270.496,239.603 Q270.041,239.147 270.041,238.368 z M270.1,256.652 L270.1,242.704 Q270.1,242.307 270.357,242.057 Q270.614,241.807 270.996,241.807 L274.288,241.807 Q274.685,241.807 274.935,242.064 Q275.185,242.322 275.185,242.704 L275.185,256.652 Q275.185,257.049 274.928,257.298 Q274.671,257.548 274.288,257.548 L270.996,257.548 Q270.599,257.548 270.35,257.298 Q270.1,257.049 270.1,256.652 z" fill="#FFFFFF"/>
      <path d="M278.859,256.652 L278.859,237.383 Q278.859,236.986 279.117,236.729 Q279.374,236.472 279.756,236.472 L283.048,236.472 Q283.43,236.472 283.687,236.729 Q283.945,236.986 283.945,237.383 L283.945,256.652 Q283.945,257.034 283.687,257.291 Q283.43,257.548 283.048,257.548 L279.756,257.548 Q279.374,257.548 279.117,257.291 Q278.859,257.034 278.859,256.652 z" fill="#FFFFFF"/>
      <path d="M288.589,256.49 Q286.649,255.138 286.649,252.669 Q286.649,250.2 288.596,248.877 Q290.544,247.554 293.616,247.554 L298.48,247.554 Q298.48,245.834 297.76,245.158 Q297.04,244.482 295.24,244.482 Q293.439,244.482 292.712,245.371 Q291.984,246.261 290.926,246.261 L288.736,246.261 Q288.339,246.261 288.082,246.003 Q287.825,245.746 287.825,245.364 Q287.825,241.146 295.835,241.146 Q299.333,241.146 301.449,242.711 Q303.566,244.276 303.566,247.554 L303.566,256.652 Q303.566,257.049 303.316,257.298 Q303.066,257.548 302.669,257.548 L299.833,257.548 Q299.436,257.548 299.186,257.291 Q298.936,257.034 298.936,256.652 L298.936,256.196 Q296.614,257.857 293.579,257.85 Q290.544,257.842 288.589,256.49 z M293.968,250.89 Q292.94,250.89 292.344,251.39 Q291.749,251.89 291.749,252.683 Q291.749,253.477 292.366,253.991 Q292.984,254.506 294.115,254.506 Q296.379,254.506 298.48,253.183 L298.48,250.89 z" fill="#FFFFFF"/>
      <path d="M307.181,237.383 Q307.181,236.986 307.439,236.729 Q307.696,236.472 308.078,236.472 L311.37,236.472 Q311.752,236.472 312.01,236.729 Q312.267,236.986 312.267,237.383 L312.267,241.895 Q314.648,241.146 316.514,241.146 Q320.13,241.146 322.261,243.299 Q324.392,245.452 324.392,249.509 Q324.392,257.842 315.059,257.842 Q312.928,257.842 310.643,257.365 Q308.357,256.887 307.181,256.196 z M312.267,245.291 L312.267,253.962 Q313.531,254.3 315.486,254.3 Q317.44,254.3 318.3,253.168 Q319.16,252.037 319.16,249.509 Q319.16,246.981 318.315,245.842 Q317.47,244.703 315.456,244.703 Q314.163,244.703 312.267,245.291 z" fill="#FFFFFF"/>
      <path d="M327.111,256.652 L327.111,237.383 Q327.111,236.986 327.368,236.729 Q327.626,236.472 328.008,236.472 L331.3,236.472 Q331.682,236.472 331.939,236.729 Q332.197,236.986 332.197,237.383 L332.197,256.652 Q332.197,257.034 331.939,257.291 Q331.682,257.548 331.3,257.548 L328.008,257.548 Q327.626,257.548 327.368,257.291 Q327.111,257.034 327.111,256.652 z" fill="#FFFFFF"/>
      <path d="M337.164,255.696 Q334.901,253.551 334.901,249.516 Q334.901,245.482 337.179,243.314 Q339.457,241.146 343.499,241.146 Q347.541,241.146 349.804,243.255 Q352.068,245.364 352.068,249.303 L352.068,250.141 Q352.068,250.538 351.81,250.795 Q351.553,251.052 351.156,251.052 L340.089,251.052 Q340.236,252.86 341.125,253.683 Q342.014,254.506 343.969,254.506 Q345.924,254.506 346.644,253.624 Q347.364,252.742 348.423,252.727 L350.612,252.727 Q351.009,252.727 351.267,252.985 Q351.524,253.242 351.524,253.639 Q351.524,257.857 343.484,257.842 Q339.428,257.842 337.164,255.696 z M340.06,247.951 L346.894,247.951 Q346.747,244.482 343.492,244.482 Q340.236,244.482 340.06,247.951 z" fill="#FFFFFF"/>
    </g>
    <g>
      <g>
        <g>
          <path d="M111.947,52.812 L254.801,31.95 C261.917,30.911 268.529,35.838 269.568,42.954 L284.133,142.686 C285.172,149.803 280.245,156.414 273.129,157.453 L130.275,178.316 C123.159,179.355 116.547,174.428 115.508,167.312 L100.943,67.58 C99.904,60.463 104.831,53.852 111.947,52.812 z" fill="#DDDDDD"/>
          <path d="M111.947,52.812 L254.801,31.95 C261.917,30.911 268.529,35.838 269.568,42.954 L284.133,142.686 C285.172,149.803 280.245,156.414 273.129,157.453 L130.275,178.316 C123.159,179.355 116.547,174.428 115.508,167.312 L100.943,67.58 C99.904,60.463 104.831,53.852 111.947,52.812 z" fill-opacity="0" stroke="#FFFFFF" stroke-width="4"/>
        </g>
        <path d="M169.846,104.291 C161.329,105.535 153.415,99.638 152.171,91.121 C150.928,82.603 156.824,74.69 165.342,73.446 C173.859,72.202 181.773,78.098 183.016,86.616 C184.26,95.134 178.364,103.047 169.846,104.291 z" fill="#FFFFFF"/>
        <path d="M256.709,145.251 L232.548,148.643 L157.542,159.597 L141.637,161.736 L165.606,116.461 L176.982,128.786 L199.109,83.595 z" fill="#FFFFFF"/>
      </g>
      <g>
        <g>
          <g>
            <path d="M142.804,68.627 L287.173,68.627 C294.365,68.627 300.195,74.458 300.195,81.65 L300.195,182.439 C300.195,189.631 294.365,195.462 287.173,195.462 L142.804,195.462 C135.612,195.462 129.782,189.631 129.782,182.439 L129.782,81.65 C129.782,74.458 135.612,68.627 142.804,68.627 z" fill="#DDDDDD"/>
            <path d="M142.804,68.627 L287.173,68.627 C294.365,68.627 300.195,74.458 300.195,81.65 L300.195,182.439 C300.195,189.631 294.365,195.462 287.173,195.462 L142.804,195.462 C135.612,195.462 129.782,189.631 129.782,182.439 L129.782,81.65 C129.782,74.458 135.612,68.627 142.804,68.627 z" fill-opacity="0" stroke="#FFFFFF" stroke-width="4"/>
          </g>
        </g>
        <g>
          <g>
            <path d="M161.073,141.934 L161.073,139.71 Q161.073,136.713 163.142,134.761 L182.771,116.464 Q183.978,115.42 184.893,116.033 Q185.807,116.646 185.807,118.325 L185.807,126.135 Q185.807,129.494 182.771,132.264 L173.595,140.799 L182.771,149.38 Q185.807,152.15 185.807,155.51 L185.807,163.319 Q185.807,164.999 184.893,165.589 Q183.978,166.179 182.771,165.18 L163.142,146.838 Q161.073,144.931 161.073,141.934 z" fill="#FFFFFF"/>
            <path d="M199.717,111.845 L199.717,89.826 Q199.717,89.372 200.281,89.078 Q200.844,88.784 201.682,88.784 L208.894,88.784 Q209.731,88.784 210.295,89.078 Q210.858,89.372 210.858,89.826 L210.858,111.845 Q210.858,112.282 210.295,112.576 Q209.731,112.87 208.894,112.87 L201.682,112.87 Q200.844,112.87 200.281,112.576 Q199.717,112.282 199.717,111.845 z" fill="#FFFFFF"/>
            <path d="M210.858,117.518 L210.858,164.068 Q210.858,164.826 210.255,165.317 Q209.651,165.808 208.72,165.808 L191.126,165.808 Q190.229,165.808 189.626,165.317 Q189.022,164.826 189.022,164.068 L189.022,156.225 Q189.022,155.467 189.626,154.976 Q190.229,154.485 191.126,154.485 L199.612,154.485 L199.612,127.41 L191.126,127.41 Q190.229,127.41 189.626,126.919 Q189.022,126.428 189.022,125.698 L189.022,117.518 Q189.022,116.788 189.626,116.297 Q190.229,115.806 191.126,115.806 L208.72,115.806 Q209.651,115.806 210.255,116.297 Q210.858,116.788 210.858,117.518 z" fill="#FFFFFF"/>
          </g>
          <g>
            <path d="M243.17,141.857 L243.17,139.632 Q243.17,136.635 245.24,134.683 L264.869,116.386 Q266.076,115.342 266.99,115.955 Q267.904,116.568 267.904,118.248 L267.904,126.057 Q267.904,129.416 264.869,132.186 L255.692,140.721 L264.869,149.302 Q267.904,152.072 267.904,155.432 L267.904,163.241 Q267.904,164.921 266.99,165.511 Q266.076,166.101 264.869,165.102 L245.24,146.76 Q243.17,144.853 243.17,141.857 z" fill="#FFFFFF"/>
            <path d="M241.904,139.68 L241.904,141.904 Q241.904,144.901 239.834,146.853 L220.206,165.15 Q218.998,166.194 218.084,165.581 Q217.17,164.968 217.17,163.289 L217.17,155.479 Q217.17,152.12 220.206,149.35 L229.382,140.815 L220.206,132.234 Q217.17,129.464 217.17,126.104 L217.17,118.295 Q217.17,116.615 218.084,116.025 Q218.998,115.435 220.206,116.434 L239.834,134.776 Q241.904,136.683 241.904,139.68 z" fill="#FFFFFF"/>
          </g>
        </g>
      </g>
    </g>
  </g>
</svg>
