<?xml version="1.0" encoding="UTF-8"?>
<!DOCTYPE svg PUBLIC "-//W3C//DTD SVG 1.1//EN" "http://www.w3.org/Graphics/SVG/1.1/DTD/svg11.dtd">
<svg version="1.1" xmlns="http://www.w3.org/2000/svg" xmlns:xlink="http://www.w3.org/1999/xlink" x="0" y="0" width="200" height="200" viewBox="0, 0, 200, 200">
  <defs>
    <linearGradient id="Gradient_1" gradientUnits="userSpaceOnUse" x1="-173.205" y1="-149.805" x2="-246.709" y2="-116.72">
      <stop offset="0" stop-color="#2B5E7C" stop-opacity="0.514"/>
      <stop offset="1" stop-color="#2B5E7C"/>
    </linearGradient>
    <linearGradient id="Gradient_2" gradientUnits="userSpaceOnUse" x1="-32.193" y1="66.146" x2="-64.723" y2="99.24" gradientTransform="matrix(-0.707, 0.707, -0.707, -0.707, 0, 0)">
      <stop offset="0" stop-color="#2B5E7C" stop-opacity="0.514"/>
      <stop offset="1" stop-color="#2B5E7C"/>
    </linearGradient>
    <linearGradient id="Gradient_3" gradientUnits="userSpaceOnUse" x1="138.057" y1="69.974" x2="65.744" y2="116.42">
      <stop offset="0" stop-color="#2B5E7C" stop-opacity="0.514"/>
      <stop offset="1" stop-color="#2B5E7C"/>
    </linearGradient>
  </defs>
  <g id="Layer_1">
    <g id="invoice">
      <g id="Group-19">
        <path d="M444.427,-8.137 L371.938,-8.137 L367.711,-11.686 L368.997,-107.52 L371.388,-111.646 L443.525,-110.881 L444.854,-108.031 L445.366,-96.053 z" fill="#82CBFF" id="Path"/>
        <path d="M385.529,-16.112 L427.921,-16.112 L431.792,-20.122 L433.399,-23.439 L433.69,-96.381 L429.231,-102.082 L424.424,-103.17 L384.315,-102.536 L382.729,-97.877 L376.941,-95.428 L376.535,-24.666 L382.006,-21.256 z" fill="#FFFFFF" id="Path-12"/>
        <path d="M419.593,-57.998 C419.593,-51.967 414.704,-47.078 408.673,-47.078 C402.642,-47.078 397.753,-51.967 397.753,-57.998 C397.753,-64.029 402.642,-68.918 408.673,-68.918 C414.704,-68.918 419.593,-64.029 419.593,-57.998 z" fill-opacity="0" stroke="#444444" stroke-width="2" id="Oval-7"/>
        <path d="M417.808,-94.899 L464.437,-94.899 L464.437,-23.709 L459.74,-23.709 L456.811,-26.638 L453.682,-26.638 L450.635,-23.591 L446.104,-23.591 L442.986,-26.709 L439.551,-26.709 L437.059,-24.217 L431.732,-24.217 L428.87,-27.078 L425.394,-27.078 L422.049,-23.733 L418.251,-23.733" fill="#4DB5FF" id="path-1"/>
        <path d="M426.544,-101.451 L473.173,-101.451 L473.173,-23.709 L468.476,-23.709 L465.547,-26.638 L462.418,-26.638 L459.371,-23.591 L454.84,-23.591 L451.722,-26.709 L448.287,-26.709 L445.795,-24.217 L440.468,-24.217 L437.606,-27.078 L434.13,-27.078 L430.785,-23.733 L426.987,-23.733" fill="#82CBFF" id="Path"/>
      </g>
      <path d="M425.74,-83.547 L453.259,-83.547 C454.276,-83.547 455.102,-84.37 455.102,-85.384 C455.102,-86.399 454.276,-87.221 453.259,-87.221 L425.74,-87.221 C424.723,-87.221 423.897,-86.399 423.897,-85.384 C423.897,-84.37 424.723,-83.547 425.74,-83.547 z" fill="#444444" id="Fill-1"/>
      <path d="M451.416,-75.364 C451.416,-74.349 452.241,-73.528 453.259,-73.528 L457.19,-73.528 C458.208,-73.528 459.033,-74.349 459.033,-75.364 C459.033,-76.378 458.208,-77.201 457.19,-77.201 L453.259,-77.201 C452.241,-77.201 451.416,-76.378 451.416,-75.364 z" fill="#444444" id="Fill-2"/>
      <path d="M425.74,-73.528 L445.396,-73.528 C446.413,-73.528 447.239,-74.349 447.239,-75.364 C447.239,-76.378 446.413,-77.201 445.396,-77.201 L425.74,-77.201 C424.723,-77.201 423.897,-76.378 423.897,-75.364 C423.897,-74.349 424.723,-73.528 425.74,-73.528 z" fill="#444444" id="Fill-3"/>
      <path d="M425.74,-63.122 L453.259,-63.122 C454.276,-63.122 455.102,-63.943 455.102,-64.959 C455.102,-65.972 454.276,-66.795 453.259,-66.795 L425.74,-66.795 C424.723,-66.795 423.897,-65.972 423.897,-64.959 C423.897,-63.943 424.723,-63.122 425.74,-63.122 z" fill="#444444" id="Fill-7"/>
      <path d="M457.19,-56.774 L453.259,-56.774 C452.241,-56.774 451.416,-55.953 451.416,-54.938 C451.416,-53.924 452.241,-53.101 453.259,-53.101 L457.19,-53.101 C458.208,-53.101 459.033,-53.924 459.033,-54.938 C459.033,-55.953 458.208,-56.774 457.19,-56.774 z" fill="#444444" id="Fill-8"/>
      <path d="M457.19,-37.183 L449.327,-37.183 C448.31,-37.183 447.485,-36.362 447.485,-35.346 C447.485,-34.333 448.31,-33.51 449.327,-33.51 L457.19,-33.51 C458.208,-33.51 459.033,-34.333 459.033,-35.346 C459.033,-36.362 458.208,-37.183 457.19,-37.183 z" fill="#444444" id="Fill-10"/>
      <path d="M425.74,-53.101 L445.396,-53.101 C446.413,-53.101 447.239,-53.924 447.239,-54.938 C447.239,-55.953 446.413,-56.774 445.396,-56.774 L425.74,-56.774 C424.723,-56.774 423.897,-55.953 423.897,-54.938 C423.897,-53.924 424.723,-53.101 425.74,-53.101 z" fill="#444444" id="Fill-11"/>
      <path d="M465.052,-97.242 L447.239,-97.242 L447.239,-107.159 C447.239,-110.332 444.649,-112.914 441.464,-112.914 L372.451,-112.914 C369.267,-112.914 366.677,-110.332 366.677,-107.159 L366.677,-11.837 C366.677,-8.664 369.267,-6.083 372.451,-6.083 L441.464,-6.083 C444.649,-6.083 447.239,-8.664 447.239,-11.837 L447.239,-21.756 L451.292,-21.756 C452.311,-21.756 453.135,-22.577 453.135,-23.592 C453.135,-24.74 454.072,-25.674 455.224,-25.674 C456.376,-25.674 457.313,-24.74 457.313,-23.592 C457.313,-22.577 458.138,-21.756 459.155,-21.756 L465.052,-21.756 C466.069,-21.756 466.895,-22.577 466.895,-23.592 L466.895,-95.405 C466.895,-96.419 466.069,-97.242 465.052,-97.242 z M443.553,-11.837 C443.553,-10.69 442.616,-9.756 441.464,-9.756 L372.451,-9.756 C371.3,-9.756 370.363,-10.69 370.363,-11.837 L370.363,-107.159 C370.363,-108.307 371.3,-109.241 372.451,-109.241 L441.464,-109.241 C442.616,-109.241 443.553,-108.307 443.553,-107.159 L443.553,-97.242 L437.534,-97.242 C434.215,-97.242 431.514,-99.933 431.514,-103.24 C431.514,-104.256 430.689,-105.077 429.672,-105.077 L384.244,-105.077 C383.227,-105.077 382.401,-104.256 382.401,-103.24 C382.401,-99.933 379.701,-97.242 376.383,-97.242 C375.364,-97.242 374.54,-96.419 374.54,-95.405 L374.54,-23.592 C374.54,-22.577 375.364,-21.756 376.383,-21.756 C379.701,-21.756 382.401,-19.064 382.401,-15.755 C382.401,-14.741 383.227,-13.919 384.244,-13.919 L429.672,-13.919 C430.689,-13.919 431.514,-14.741 431.514,-15.755 C431.514,-19.064 434.215,-21.756 437.534,-21.756 C438.552,-21.756 439.377,-22.577 439.377,-23.592 C439.377,-24.74 440.314,-25.674 441.464,-25.674 C442.616,-25.674 443.553,-24.74 443.553,-23.592 L443.553,-11.837 z M416.036,-23.592 C416.036,-22.577 416.86,-21.756 417.879,-21.756 L423.775,-21.756 C424.792,-21.756 425.618,-22.577 425.618,-23.592 C425.618,-24.74 426.555,-25.674 427.707,-25.674 C428.857,-25.674 429.794,-24.74 429.794,-23.592 C429.794,-23.071 430.013,-22.601 430.364,-22.267 C429.184,-20.978 428.351,-19.371 428.006,-17.592 L385.912,-17.592 C385.163,-21.457 382.102,-24.508 378.224,-25.254 L378.224,-93.743 C382.102,-94.489 385.163,-97.54 385.912,-101.404 L428.004,-101.404 C428.304,-99.853 428.978,-98.434 429.927,-97.242 L417.879,-97.242 C416.86,-97.242 416.036,-96.419 416.036,-95.405 L416.036,-23.592 z M463.209,-25.429 L460.697,-25.429 C459.926,-27.704 457.764,-29.348 455.224,-29.348 C452.684,-29.348 450.522,-27.704 449.752,-25.429 L446.938,-25.429 C446.166,-27.704 444.004,-29.348 441.464,-29.348 C438.925,-29.348 436.763,-27.704 435.993,-25.429 L433.178,-25.429 C432.408,-27.704 430.246,-29.348 427.707,-29.348 C425.167,-29.348 423.005,-27.704 422.233,-25.429 L419.721,-25.429 L419.721,-93.568 L463.209,-93.568 L463.209,-25.429 z" fill="#444444" id="Fill-13"/>
    </g>
    <path d="M-212.296,45.814 L-71.837,45.814 C-67.509,45.814 -64,49.323 -64,53.651 L-64,194.11 C-64,198.438 -67.509,201.947 -71.837,201.947 L-212.296,201.947 C-216.624,201.947 -220.133,198.438 -220.133,194.11 L-220.133,53.651 C-220.133,49.323 -216.624,45.814 -212.296,45.814 z" fill="#FFFFFF"/>
    <g>
      <path d="M-208.185,138.322 L-208.185,135.568 Q-208.185,131.859 -205.623,129.443 L-181.326,106.795 Q-179.832,105.502 -178.7,106.261 Q-177.569,107.019 -177.569,109.099 L-177.569,118.765 Q-177.569,122.924 -181.326,126.352 L-192.685,136.917 L-181.326,147.539 Q-177.569,150.967 -177.569,155.125 L-177.569,164.791 Q-177.569,166.871 -178.7,167.601 Q-179.832,168.332 -181.326,167.096 L-205.623,144.391 Q-208.185,142.031 -208.185,138.322 z" fill="#1D1D1F"/>
      <path d="M-160.35,101.077 L-160.35,73.822 Q-160.35,73.26 -159.653,72.897 Q-158.955,72.533 -157.919,72.533 L-148.991,72.533 Q-147.955,72.533 -147.257,72.897 Q-146.56,73.26 -146.56,73.822 L-146.56,101.077 Q-146.56,101.618 -147.257,101.982 Q-147.955,102.345 -148.991,102.345 L-157.919,102.345 Q-158.955,102.345 -159.653,101.982 Q-160.35,101.618 -160.35,101.077 z" fill="#1D1D1F"/>
      <path d="M-146.56,108.099 L-146.56,165.719 Q-146.56,166.657 -147.307,167.265 Q-148.054,167.873 -149.207,167.873 L-170.984,167.873 Q-172.094,167.873 -172.842,167.265 Q-173.589,166.657 -173.589,165.719 L-173.589,156.011 Q-173.589,155.073 -172.842,154.465 Q-172.094,153.857 -170.984,153.857 L-160.48,153.857 L-160.48,120.343 L-170.984,120.343 Q-172.094,120.343 -172.842,119.736 Q-173.589,119.128 -173.589,118.225 L-173.589,108.099 Q-173.589,107.196 -172.842,106.588 Q-172.094,105.98 -170.984,105.98 L-149.207,105.98 Q-148.054,105.98 -147.307,106.588 Q-146.56,107.196 -146.56,108.099 z" fill="#1D1D1F"/>
    </g>
    <g>
      <path d="M-106.564,138.226 L-106.564,135.472 Q-106.564,131.763 -104.002,129.346 L-79.706,106.698 Q-78.212,105.406 -77.08,106.164 Q-75.949,106.923 -75.949,109.002 L-75.949,118.668 Q-75.949,122.827 -79.706,126.255 L-91.064,136.821 L-79.706,147.442 Q-75.949,150.87 -75.949,155.029 L-75.949,164.695 Q-75.949,166.774 -77.08,167.505 Q-78.212,168.235 -79.706,166.999 L-104.002,144.295 Q-106.564,141.935 -106.564,138.226 z" fill="#2C5E7C"/>
      <path d="M-108.132,135.531 L-108.132,138.285 Q-108.132,141.994 -110.694,144.41 L-134.99,167.058 Q-136.484,168.351 -137.616,167.592 Q-138.748,166.833 -138.748,164.754 L-138.748,155.088 Q-138.748,150.929 -134.99,147.501 L-123.632,136.936 L-134.99,126.314 Q-138.748,122.886 -138.748,118.728 L-138.748,109.061 Q-138.748,106.982 -137.616,106.252 Q-136.484,105.521 -134.99,106.757 L-110.694,129.461 Q-108.132,131.822 -108.132,135.531 z" fill="#2C5E7C"/>
    </g>
    <g>
      <path d="M-176.343,-139.358 C-177.188,-153.787 -189.081,-165.313 -203.407,-165.313 C-212.109,-165.313 -220.536,-161.048 -225.764,-154.085 C-225.88,-154.147 -226.006,-154.185 -226.13,-154.249 C-226.443,-154.398 -226.765,-154.546 -227.094,-154.678 C-227.28,-154.75 -227.46,-154.812 -227.649,-154.882 C-227.969,-154.993 -228.298,-155.093 -228.634,-155.187 C-228.823,-155.235 -229.003,-155.289 -229.191,-155.329 C-229.55,-155.407 -229.918,-155.469 -230.293,-155.523 C-230.449,-155.556 -230.613,-155.588 -230.78,-155.602 C-231.311,-155.658 -231.843,-155.696 -232.39,-155.696 C-240.349,-155.696 -246.811,-149.226 -246.811,-141.275 C-246.811,-141.071 -246.805,-140.869 -246.789,-140.672 L-246.789,-140.664 C-253.455,-137.027 -258.032,-129.421 -258.032,-121.799 C-258.032,-110.445 -248.8,-101.213 -237.446,-101.213 L-198.173,-101.213 C-198.009,-101.213 -197.844,-101.221 -197.672,-101.237 L-197.578,-101.253 L-197.36,-101.237 C-197.195,-101.221 -197.031,-101.213 -196.867,-101.213 L-181.154,-101.213 C-170.528,-101.213 -161.882,-109.858 -161.882,-120.485 C-161.882,-129.281 -168.016,-137.175 -176.343,-139.358 z M-181.154,-104.422 L-196.867,-104.422 C-196.961,-104.422 -197.055,-104.428 -197.147,-104.428 L-197.578,-104.452 L-197.898,-104.428 C-197.985,-104.428 -198.079,-104.422 -198.173,-104.422 L-237.446,-104.422 C-247.031,-104.422 -254.823,-112.214 -254.823,-121.799 C-254.823,-128.459 -250.488,-135.368 -244.519,-138.231 L-243.612,-138.661 L-243.612,-139.671 C-243.612,-139.875 -243.596,-140.085 -243.588,-140.29 L-243.572,-140.548 L-243.588,-140.885 C-243.604,-141.017 -243.612,-141.143 -243.612,-141.275 C-243.612,-147.457 -238.58,-152.497 -232.39,-152.497 C-231.897,-152.497 -231.405,-152.449 -230.92,-152.387 C-230.794,-152.371 -230.67,-152.347 -230.551,-152.333 C-230.121,-152.252 -229.698,-152.168 -229.283,-152.042 C-229.229,-152.026 -229.175,-152.018 -229.111,-152.002 C-228.658,-151.862 -228.212,-151.682 -227.775,-151.487 C-227.665,-151.431 -227.555,-151.377 -227.438,-151.323 C-227.054,-151.135 -226.679,-150.922 -226.319,-150.688 C-223.228,-148.693 -221.179,-145.219 -221.179,-141.275 C-221.179,-140.392 -220.458,-139.671 -219.574,-139.671 C-218.689,-139.671 -217.97,-140.392 -217.97,-141.275 C-217.97,-145.688 -219.965,-149.64 -223.096,-152.284 C-218.503,-158.294 -210.935,-162.104 -203.407,-162.104 C-190.998,-162.104 -180.694,-152.276 -179.62,-139.851 C-181.256,-139.969 -183.706,-140.023 -186.162,-139.655 C-187.039,-139.523 -187.632,-138.701 -187.5,-137.824 C-187.382,-137.035 -186.703,-136.464 -185.92,-136.464 C-185.842,-136.464 -185.763,-136.472 -185.677,-136.486 C-182.11,-137.027 -178.392,-136.518 -178.174,-136.486 C-170.708,-135.07 -165.091,-128.201 -165.091,-120.485 C-165.091,-111.627 -172.296,-104.422 -181.154,-104.422 z M-181.154,-104.422" fill="#444444"/>
      <g id="Group">
        <path d="M-143.971,-155.558 L-143.971,-155.558 C-143.262,-155.558 -142.688,-154.983 -142.688,-154.275 L-142.688,-149.198 C-142.688,-148.49 -143.262,-147.915 -143.971,-147.915 L-143.971,-147.915 C-144.679,-147.915 -145.254,-148.49 -145.254,-149.198 L-145.254,-154.275 C-145.254,-154.983 -144.679,-155.558 -143.971,-155.558 z" fill="#D8D8D8" id="Rectangle-2"/>
        <path d="M-140.15,-151.737 L-140.15,-151.737 C-140.15,-151.028 -140.724,-150.454 -141.433,-150.454 L-146.509,-150.454 C-147.217,-150.454 -147.792,-151.028 -147.792,-151.737 L-147.792,-151.737 C-147.792,-152.445 -147.217,-153.02 -146.509,-153.02 L-141.433,-153.02 C-140.724,-153.02 -140.15,-152.445 -140.15,-151.737 z" fill="#D8D8D8" id="Rectangle-2"/>
      </g>
      <g id="Group">
        <path d="M-226.637,-193.558 L-226.637,-193.558 C-225.929,-193.558 -225.354,-192.983 -225.354,-192.275 L-225.354,-187.198 C-225.354,-186.49 -225.929,-185.915 -226.637,-185.915 L-226.637,-185.915 C-227.346,-185.915 -227.921,-186.49 -227.921,-187.198 L-227.921,-192.275 C-227.921,-192.983 -227.346,-193.558 -226.637,-193.558 z" fill="#D8D8D8" id="Rectangle-2"/>
        <path d="M-222.816,-189.737 L-222.816,-189.737 C-222.816,-189.028 -223.391,-188.454 -224.099,-188.454 L-229.176,-188.454 C-229.884,-188.454 -230.459,-189.028 -230.459,-189.737 L-230.459,-189.737 C-230.459,-190.445 -229.884,-191.02 -229.176,-191.02 L-224.099,-191.02 C-223.391,-191.02 -222.816,-190.445 -222.816,-189.737 z" fill="#D8D8D8" id="Rectangle-2"/>
      </g>
      <g id="Group">
        <path d="M-289.747,-134.223 L-289.747,-134.223 C-289.246,-134.724 -288.434,-134.724 -287.933,-134.223 L-285.14,-131.43 C-284.639,-130.929 -284.639,-130.117 -285.14,-129.616 L-285.14,-129.616 C-285.641,-129.115 -286.454,-129.115 -286.955,-129.616 L-289.747,-132.409 C-290.249,-132.91 -290.249,-133.722 -289.747,-134.223 z" fill="#D8D8D8" id="Rectangle-2"/>
        <path d="M-285.16,-134.242 L-285.16,-134.242 C-284.659,-133.741 -284.659,-132.929 -285.16,-132.428 L-287.952,-129.635 C-288.453,-129.134 -289.266,-129.134 -289.767,-129.635 L-289.767,-129.635 C-290.268,-130.136 -290.268,-130.949 -289.767,-131.45 L-286.974,-134.242 C-286.473,-134.744 -285.661,-134.744 -285.16,-134.242 z" fill="#D8D8D8" id="Rectangle-2"/>
      </g>
      <g id="Group">
        <path d="M-146.265,-99.286 L-146.265,-99.286 C-145.764,-99.787 -144.951,-99.787 -144.45,-99.286 L-141.657,-96.493 C-141.156,-95.992 -141.156,-95.18 -141.657,-94.679 L-141.657,-94.679 C-142.158,-94.178 -142.971,-94.178 -143.472,-94.679 L-146.265,-97.471 C-146.766,-97.973 -146.766,-98.785 -146.265,-99.286 z" fill="#D8D8D8" id="Rectangle-2"/>
        <path d="M-141.677,-99.305 L-141.677,-99.305 C-141.176,-98.804 -141.176,-97.992 -141.677,-97.491 L-144.47,-94.698 C-144.971,-94.197 -145.783,-94.197 -146.284,-94.698 L-146.284,-94.698 C-146.785,-95.199 -146.785,-96.012 -146.284,-96.513 L-143.491,-99.305 C-142.99,-99.806 -142.178,-99.806 -141.677,-99.305 z" fill="#D8D8D8" id="Rectangle-2"/>
      </g>
      <path d="M-236.378,-167.568 C-236.378,-166.161 -237.527,-165.021 -238.944,-165.021 C-240.362,-165.021 -241.51,-166.161 -241.51,-167.568 C-241.51,-168.975 -240.362,-170.115 -238.944,-170.115 C-237.527,-170.115 -236.378,-168.975 -236.378,-167.568 z" fill="#D8D8D8" id="Oval-2"/>
      <path d="M-264.578,-153.01 C-264.578,-151.603 -265.727,-150.463 -267.144,-150.463 C-268.562,-150.463 -269.71,-151.603 -269.71,-153.01 C-269.71,-154.417 -268.562,-155.558 -267.144,-155.558 C-265.727,-155.558 -264.578,-154.417 -264.578,-153.01 z" fill="#D8D8D8" id="Oval-2"/>
      <path d="M-187.976,-180.122 C-187.976,-178.916 -188.954,-177.938 -190.16,-177.938 C-191.367,-177.938 -192.344,-178.916 -192.344,-180.122 C-192.344,-181.328 -191.367,-182.306 -190.16,-182.306 C-188.954,-182.306 -187.976,-181.328 -187.976,-180.122 z" fill="#D8D8D8" id="Oval-3"/>
      <path d="M-130.239,-173.997 C-130.239,-172.791 -131.217,-171.813 -132.423,-171.813 C-133.63,-171.813 -134.607,-172.791 -134.607,-173.997 C-134.607,-175.203 -133.63,-176.181 -132.423,-176.181 C-131.217,-176.181 -130.239,-175.203 -130.239,-173.997 z" fill="#D8D8D8" id="Oval-3"/>
      <path d="M-254.204,-174.663 C-254.204,-173.457 -255.182,-172.479 -256.388,-172.479 C-257.594,-172.479 -258.572,-173.457 -258.572,-174.663 C-258.572,-175.87 -257.594,-176.847 -256.388,-176.847 C-255.182,-176.847 -254.204,-175.87 -254.204,-174.663 z" fill="#D8D8D8" id="Oval-3"/>
      <path d="M-161.078,-166.208 C-161.151,-164.803 -162.358,-163.724 -163.773,-163.797 C-165.189,-163.871 -166.277,-165.069 -166.204,-166.474 C-166.131,-167.879 -164.924,-168.959 -163.509,-168.885 C-162.094,-168.812 -161.005,-167.613 -161.078,-166.208 z" fill-opacity="0" stroke="#D8D8D8" stroke-width="1" id="Oval"/>
      <path d="M-150.828,-194.708 C-150.901,-193.303 -152.108,-192.224 -153.523,-192.297 C-154.939,-192.371 -156.027,-193.569 -155.954,-194.974 C-155.881,-196.379 -154.674,-197.459 -153.259,-197.385 C-151.844,-197.312 -150.755,-196.113 -150.828,-194.708 z" fill-opacity="0" stroke="#D8D8D8" stroke-width="1" id="Oval"/>
      <path d="M-129.357,-127.036 C-129.357,-125.629 -130.506,-124.489 -131.923,-124.489 C-133.341,-124.489 -134.489,-125.629 -134.489,-127.036 C-134.489,-128.443 -133.341,-129.583 -131.923,-129.583 C-130.506,-129.583 -129.357,-128.443 -129.357,-127.036 z" fill-opacity="0" stroke="#D8D8D8" stroke-width="1" id="Oval"/>
      <path d="M-275.683,-91.291 L-273.2,-88.808 L-270.688,-91.32 L-273.17,-93.803 L-275.683,-91.291 z" fill-opacity="0" stroke="#D8D8D8" stroke-width="1" id="Rectangle-3"/>
      <path d="M-284.264,-184.288 L-281.782,-181.806 L-279.27,-184.318 L-281.752,-186.8 L-284.264,-184.288 z" fill-opacity="0" stroke="#D8D8D8" stroke-width="1" id="Rectangle-3"/>
      <g>
        <path d="M-254.028,-95.163 L-232.58,-95.163 C-230.386,-95.163 -228.608,-93.367 -228.608,-91.151 L-228.608,-53.623 C-228.608,-51.407 -230.386,-49.611 -232.58,-49.611 L-254.028,-49.611 C-256.221,-49.611 -258,-51.407 -258,-53.623 L-258,-91.151 C-258,-93.367 -256.221,-95.163 -254.028,-95.163 z" fill-opacity="0" stroke="#444444" stroke-width="3"/>
        <path d="M-252.213,-85.768 L-234.909,-85.768" fill-opacity="0" stroke="#AAAAAA" stroke-width="3" stroke-linecap="round"/>
        <path d="M-252.213,-78.28 L-239.357,-78.28" fill-opacity="0" stroke="#AAAAAA" stroke-width="3" stroke-linecap="round"/>
        <path d="M-234.909,-78.28 L-234.909,-78.28" fill-opacity="0" stroke="#2B5E7C" stroke-width="3" stroke-linecap="round"/>
      </g>
      <g>
        <path d="M-220.181,-95.163 L-198.733,-95.163 C-196.539,-95.163 -194.761,-93.367 -194.761,-91.151 L-194.761,-53.623 C-194.761,-51.407 -196.539,-49.611 -198.733,-49.611 L-220.181,-49.611 C-222.375,-49.611 -224.153,-51.407 -224.153,-53.623 L-224.153,-91.151 C-224.153,-93.367 -222.375,-95.163 -220.181,-95.163 z" fill-opacity="0" stroke="#444444" stroke-width="3"/>
        <path d="M-218.366,-85.768 L-201.063,-85.768" fill-opacity="0" stroke="#AAAAAA" stroke-width="3" stroke-linecap="round"/>
        <path d="M-218.366,-78.28 L-205.511,-78.28" fill-opacity="0" stroke="#AAAAAA" stroke-width="3" stroke-linecap="round"/>
        <path d="M-201.063,-78.28 L-201.063,-78.28" fill-opacity="0" stroke="#2B5E7C" stroke-width="3" stroke-linecap="round"/>
      </g>
      <g>
        <path d="M-186.335,-95.163 L-164.887,-95.163 C-162.693,-95.163 -160.915,-93.367 -160.915,-91.151 L-160.915,-53.623 C-160.915,-51.407 -162.693,-49.611 -164.887,-49.611 L-186.335,-49.611 C-188.528,-49.611 -190.307,-51.407 -190.307,-53.623 L-190.307,-91.151 C-190.307,-93.367 -188.528,-95.163 -186.335,-95.163 z" fill-opacity="0" stroke="#444444" stroke-width="3"/>
        <path d="M-184.52,-85.768 L-167.216,-85.768" fill-opacity="0" stroke="#AAAAAA" stroke-width="3" stroke-linecap="round"/>
        <path d="M-184.52,-78.28 L-171.664,-78.28" fill-opacity="0" stroke="#AAAAAA" stroke-width="3" stroke-linecap="round"/>
        <path d="M-167.216,-78.28 L-167.216,-78.28" fill-opacity="0" stroke="#2B5E7C" stroke-width="3" stroke-linecap="round"/>
      </g>
      <path d="M-181.154,-104.422 L-196.867,-104.422 C-196.961,-104.422 -197.055,-104.428 -197.147,-104.428 L-197.578,-104.452 L-197.898,-104.428 C-197.985,-104.428 -198.079,-104.422 -198.173,-104.422 L-237.446,-104.422 C-247.031,-104.422 -254.823,-112.214 -254.823,-121.799 C-254.823,-128.459 -250.488,-135.368 -244.519,-138.231 L-243.612,-138.661 L-243.612,-139.671 C-243.612,-139.875 -243.596,-140.085 -243.588,-140.29 L-243.572,-140.548 L-243.588,-140.885 C-243.604,-141.017 -243.612,-141.143 -243.612,-141.275 C-243.612,-147.457 -238.58,-152.497 -232.39,-152.497 C-231.897,-152.497 -231.405,-152.449 -230.92,-152.387 C-230.794,-152.371 -230.67,-152.347 -230.551,-152.333 C-230.121,-152.252 -229.698,-152.168 -229.283,-152.042 C-229.229,-152.026 -229.175,-152.018 -229.111,-152.002 C-228.658,-151.862 -228.212,-151.682 -227.775,-151.487 C-227.665,-151.431 -227.555,-151.377 -227.438,-151.323 C-227.054,-151.135 -226.679,-150.922 -226.319,-150.688 C-223.228,-148.693 -221.179,-145.219 -221.179,-141.275 C-221.179,-140.392 -220.458,-139.671 -219.574,-139.671 C-218.689,-139.671 -217.97,-140.392 -217.97,-141.275 C-217.97,-145.688 -219.965,-149.64 -223.096,-152.284 C-218.503,-158.294 -210.935,-162.104 -203.407,-162.104 C-190.998,-162.104 -180.694,-152.276 -179.62,-139.851 C-181.256,-139.969 -183.706,-140.023 -186.162,-139.655 C-187.039,-139.523 -187.632,-138.701 -187.5,-137.824 C-187.382,-137.035 -186.703,-136.464 -185.92,-136.464 C-185.842,-136.464 -185.763,-136.472 -185.677,-136.486 C-182.11,-137.027 -178.392,-136.518 -178.174,-136.486 C-170.708,-135.07 -165.091,-128.201 -165.091,-120.485 C-165.091,-111.627 -172.296,-104.422 -181.154,-104.422 z M-181.154,-104.422" fill="url(#Gradient_1)"/>
    </g>
    <g>
      <g>
        <path d="M-248.671,-54.85 L-248.671,-55.016 Q-248.671,-55.24 -248.516,-55.386 L-247.049,-56.753 Q-246.959,-56.831 -246.89,-56.786 Q-246.822,-56.74 -246.822,-56.614 L-246.822,-56.031 Q-246.822,-55.78 -247.049,-55.573 L-247.735,-54.935 L-247.049,-54.293 Q-246.822,-54.086 -246.822,-53.835 L-246.822,-53.252 Q-246.822,-53.126 -246.89,-53.082 Q-246.959,-53.038 -247.049,-53.112 L-248.516,-54.483 Q-248.671,-54.626 -248.671,-54.85 z" fill="#1D1D1F"/>
        <path d="M-245.782,-57.099 L-245.782,-58.744 Q-245.782,-58.778 -245.74,-58.8 Q-245.698,-58.822 -245.636,-58.822 L-245.096,-58.822 Q-245.034,-58.822 -244.992,-58.8 Q-244.95,-58.778 -244.95,-58.744 L-244.95,-57.099 Q-244.95,-57.066 -244.992,-57.044 Q-245.034,-57.022 -245.096,-57.022 L-245.636,-57.022 Q-245.698,-57.022 -245.74,-57.044 Q-245.782,-57.066 -245.782,-57.099 z" fill="#1D1D1F"/>
        <path d="M-244.95,-56.675 L-244.95,-53.196 Q-244.95,-53.139 -244.995,-53.102 Q-245.04,-53.066 -245.11,-53.066 L-246.424,-53.066 Q-246.491,-53.066 -246.537,-53.102 Q-246.582,-53.139 -246.582,-53.196 L-246.582,-53.782 Q-246.582,-53.838 -246.537,-53.875 Q-246.491,-53.912 -246.424,-53.912 L-245.79,-53.912 L-245.79,-55.935 L-246.424,-55.935 Q-246.491,-55.935 -246.537,-55.972 Q-246.582,-56.009 -246.582,-56.063 L-246.582,-56.675 Q-246.582,-56.729 -246.537,-56.766 Q-246.491,-56.803 -246.424,-56.803 L-245.11,-56.803 Q-245.04,-56.803 -244.995,-56.766 Q-244.95,-56.729 -244.95,-56.675 z" fill="#1D1D1F"/>
      </g>
      <g>
        <path d="M-242.535,-54.856 L-242.535,-55.022 Q-242.535,-55.246 -242.38,-55.392 L-240.913,-56.759 Q-240.823,-56.837 -240.755,-56.791 Q-240.686,-56.746 -240.686,-56.62 L-240.686,-56.036 Q-240.686,-55.785 -240.913,-55.578 L-241.599,-54.94 L-240.913,-54.299 Q-240.686,-54.092 -240.686,-53.841 L-240.686,-53.257 Q-240.686,-53.132 -240.755,-53.088 Q-240.823,-53.044 -240.913,-53.118 L-242.38,-54.489 Q-242.535,-54.632 -242.535,-54.856 z" fill="#2C5E7C"/>
        <path d="M-242.629,-55.018 L-242.629,-54.852 Q-242.629,-54.628 -242.784,-54.482 L-244.251,-53.115 Q-244.341,-53.037 -244.41,-53.082 Q-244.478,-53.128 -244.478,-53.254 L-244.478,-53.837 Q-244.478,-54.089 -244.251,-54.296 L-243.565,-54.933 L-244.251,-55.575 Q-244.478,-55.782 -244.478,-56.033 L-244.478,-56.616 Q-244.478,-56.742 -244.41,-56.786 Q-244.341,-56.83 -244.251,-56.756 L-242.784,-55.385 Q-242.629,-55.242 -242.629,-55.018 z" fill="#2C5E7C"/>
      </g>
    </g>
    <g>
      <g>
        <path d="M-213.992,-54.85 L-213.992,-55.016 Q-213.992,-55.24 -213.837,-55.386 L-212.37,-56.753 Q-212.28,-56.831 -212.212,-56.786 Q-212.143,-56.74 -212.143,-56.614 L-212.143,-56.031 Q-212.143,-55.78 -212.37,-55.573 L-213.056,-54.935 L-212.37,-54.293 Q-212.143,-54.086 -212.143,-53.835 L-212.143,-53.252 Q-212.143,-53.126 -212.212,-53.082 Q-212.28,-53.038 -212.37,-53.112 L-213.837,-54.483 Q-213.992,-54.626 -213.992,-54.85 z" fill="#1D1D1F"/>
        <path d="M-211.104,-57.099 L-211.104,-58.744 Q-211.104,-58.778 -211.062,-58.8 Q-211.02,-58.822 -210.957,-58.822 L-210.418,-58.822 Q-210.355,-58.822 -210.313,-58.8 Q-210.271,-58.778 -210.271,-58.744 L-210.271,-57.099 Q-210.271,-57.066 -210.313,-57.044 Q-210.355,-57.022 -210.418,-57.022 L-210.957,-57.022 Q-211.02,-57.022 -211.062,-57.044 Q-211.104,-57.066 -211.104,-57.099 z" fill="#1D1D1F"/>
        <path d="M-210.271,-56.675 L-210.271,-53.196 Q-210.271,-53.139 -210.316,-53.102 Q-210.361,-53.066 -210.431,-53.066 L-211.746,-53.066 Q-211.813,-53.066 -211.858,-53.102 Q-211.903,-53.139 -211.903,-53.196 L-211.903,-53.782 Q-211.903,-53.838 -211.858,-53.875 Q-211.813,-53.912 -211.746,-53.912 L-211.112,-53.912 L-211.112,-55.935 L-211.746,-55.935 Q-211.813,-55.935 -211.858,-55.972 Q-211.903,-56.009 -211.903,-56.063 L-211.903,-56.675 Q-211.903,-56.729 -211.858,-56.766 Q-211.813,-56.803 -211.746,-56.803 L-210.431,-56.803 Q-210.361,-56.803 -210.316,-56.766 Q-210.271,-56.729 -210.271,-56.675 z" fill="#1D1D1F"/>
      </g>
      <g>
        <path d="M-207.856,-54.856 L-207.856,-55.022 Q-207.856,-55.246 -207.702,-55.392 L-206.235,-56.759 Q-206.144,-56.837 -206.076,-56.791 Q-206.008,-56.746 -206.008,-56.62 L-206.008,-56.036 Q-206.008,-55.785 -206.235,-55.578 L-206.92,-54.94 L-206.235,-54.299 Q-206.008,-54.092 -206.008,-53.841 L-206.008,-53.257 Q-206.008,-53.132 -206.076,-53.088 Q-206.144,-53.044 -206.235,-53.118 L-207.702,-54.489 Q-207.856,-54.632 -207.856,-54.856 z" fill="#2C5E7C"/>
        <path d="M-207.951,-55.018 L-207.951,-54.852 Q-207.951,-54.628 -208.106,-54.482 L-209.573,-53.115 Q-209.663,-53.037 -209.731,-53.082 Q-209.799,-53.128 -209.799,-53.254 L-209.799,-53.837 Q-209.799,-54.089 -209.573,-54.296 L-208.887,-54.933 L-209.573,-55.575 Q-209.799,-55.782 -209.799,-56.033 L-209.799,-56.616 Q-209.799,-56.742 -209.731,-56.786 Q-209.663,-56.83 -209.573,-56.756 L-208.106,-55.385 Q-207.951,-55.242 -207.951,-55.018 z" fill="#2C5E7C"/>
      </g>
    </g>
    <g>
      <g>
        <path d="M-180.242,-54.85 L-180.242,-55.016 Q-180.242,-55.24 -180.087,-55.386 L-178.62,-56.753 Q-178.53,-56.831 -178.462,-56.786 Q-178.393,-56.74 -178.393,-56.614 L-178.393,-56.031 Q-178.393,-55.78 -178.62,-55.573 L-179.306,-54.935 L-178.62,-54.293 Q-178.393,-54.086 -178.393,-53.835 L-178.393,-53.252 Q-178.393,-53.126 -178.462,-53.082 Q-178.53,-53.038 -178.62,-53.112 L-180.087,-54.483 Q-180.242,-54.626 -180.242,-54.85 z" fill="#1D1D1F"/>
        <path d="M-177.354,-57.099 L-177.354,-58.744 Q-177.354,-58.778 -177.312,-58.8 Q-177.269,-58.822 -177.207,-58.822 L-176.668,-58.822 Q-176.605,-58.822 -176.563,-58.8 Q-176.521,-58.778 -176.521,-58.744 L-176.521,-57.099 Q-176.521,-57.066 -176.563,-57.044 Q-176.605,-57.022 -176.668,-57.022 L-177.207,-57.022 Q-177.269,-57.022 -177.312,-57.044 Q-177.354,-57.066 -177.354,-57.099 z" fill="#1D1D1F"/>
        <path d="M-176.521,-56.675 L-176.521,-53.196 Q-176.521,-53.139 -176.566,-53.102 Q-176.611,-53.066 -176.681,-53.066 L-177.996,-53.066 Q-178.063,-53.066 -178.108,-53.102 Q-178.153,-53.139 -178.153,-53.196 L-178.153,-53.782 Q-178.153,-53.838 -178.108,-53.875 Q-178.063,-53.912 -177.996,-53.912 L-177.362,-53.912 L-177.362,-55.935 L-177.996,-55.935 Q-178.063,-55.935 -178.108,-55.972 Q-178.153,-56.009 -178.153,-56.063 L-178.153,-56.675 Q-178.153,-56.729 -178.108,-56.766 Q-178.063,-56.803 -177.996,-56.803 L-176.681,-56.803 Q-176.611,-56.803 -176.566,-56.766 Q-176.521,-56.729 -176.521,-56.675 z" fill="#1D1D1F"/>
      </g>
      <g>
        <path d="M-174.106,-54.856 L-174.106,-55.022 Q-174.106,-55.246 -173.951,-55.392 L-172.484,-56.759 Q-172.394,-56.837 -172.326,-56.791 Q-172.258,-56.746 -172.258,-56.62 L-172.258,-56.036 Q-172.258,-55.785 -172.484,-55.578 L-173.17,-54.94 L-172.484,-54.299 Q-172.258,-54.092 -172.258,-53.841 L-172.258,-53.257 Q-172.258,-53.132 -172.326,-53.088 Q-172.394,-53.044 -172.484,-53.118 L-173.951,-54.489 Q-174.106,-54.632 -174.106,-54.856 z" fill="#2C5E7C"/>
        <path d="M-174.201,-55.018 L-174.201,-54.852 Q-174.201,-54.628 -174.355,-54.482 L-175.822,-53.115 Q-175.913,-53.037 -175.981,-53.082 Q-176.049,-53.128 -176.049,-53.254 L-176.049,-53.837 Q-176.049,-54.089 -175.822,-54.296 L-175.137,-54.933 L-175.822,-55.575 Q-176.049,-55.782 -176.049,-56.033 L-176.049,-56.616 Q-176.049,-56.742 -175.981,-56.786 Q-175.913,-56.83 -175.822,-56.756 L-174.355,-55.385 Q-174.201,-55.242 -174.201,-55.018 z" fill="#2C5E7C"/>
      </g>
    </g>
    <g id="Group">
      <path d="M46.445,88.934 L46.445,88.934 C46.946,88.433 47.758,88.433 48.259,88.934 L51.052,91.726 C51.553,92.227 51.553,93.04 51.052,93.541 L51.052,93.541 C50.551,94.042 49.739,94.042 49.238,93.541 L46.445,90.748 C45.944,90.247 45.944,89.435 46.445,88.934 z" fill="#D8D8D8" id="Rectangle-2"/>
      <path d="M51.033,88.914 L51.033,88.914 C51.534,89.415 51.534,90.228 51.033,90.729 L48.24,93.521 C47.739,94.022 46.927,94.022 46.425,93.521 L46.425,93.521 C45.924,93.02 45.924,92.208 46.425,91.707 L49.218,88.914 C49.719,88.413 50.532,88.413 51.033,88.914 z" fill="#D8D8D8" id="Rectangle-2"/>
    </g>
    <g id="Group">
      <path d="M87.546,28.54 L87.546,28.54 C88.716,28.54 89.664,29.489 89.664,30.658 L89.664,37.178 C89.664,38.348 88.716,39.296 87.546,39.296 L87.546,39.296 C86.377,39.296 85.428,38.348 85.428,37.178 L85.428,30.658 C85.428,29.489 86.377,28.54 87.546,28.54 z" fill="#D8D8D8" id="Rectangle-2"/>
      <path d="M92.924,33.873 L92.924,33.873 C92.924,35.042 91.976,35.991 90.806,35.991 L84.287,35.991 C83.117,35.991 82.169,35.042 82.169,33.873 L82.169,33.873 C82.169,32.703 83.117,31.755 84.287,31.755 L90.806,31.755 C91.976,31.755 92.924,32.703 92.924,33.873 z" fill="#D8D8D8" id="Rectangle-2"/>
    </g>
    <g id="Group">
      <path d="M177.577,72.533 L177.577,72.533 C178.746,72.533 179.695,73.481 179.695,74.651 L179.695,81.171 C179.695,82.34 178.746,83.289 177.577,83.289 L177.577,83.289 C176.407,83.289 175.459,82.34 175.459,81.171 L175.459,74.651 C175.459,73.481 176.407,72.533 177.577,72.533 z" fill="#D8D8D8" id="Rectangle-2"/>
      <path d="M182.954,77.865 L182.954,77.865 C182.954,79.035 182.006,79.983 180.836,79.983 L174.317,79.983 C173.147,79.983 172.199,79.035 172.199,77.865 L172.199,77.865 C172.199,76.696 173.147,75.747 174.317,75.747 L180.836,75.747 C182.006,75.747 182.954,76.696 182.954,77.865 z" fill="#D8D8D8" id="Rectangle-2"/>
    </g>
    <g id="Group">
      <path d="M163.735,124.714 L163.735,124.714 C164.236,124.213 165.049,124.213 165.55,124.714 L168.343,127.507 C168.844,128.008 168.844,128.82 168.343,129.321 L168.343,129.321 C167.842,129.822 167.029,129.822 166.528,129.321 L163.735,126.529 C163.234,126.027 163.234,125.215 163.735,124.714 z" fill="#D8D8D8" id="Rectangle-2"/>
      <path d="M168.323,124.695 L168.323,124.695 C168.824,125.196 168.824,126.008 168.323,126.509 L165.53,129.302 C165.029,129.803 164.217,129.803 163.716,129.302 L163.716,129.302 C163.215,128.801 163.215,127.988 163.716,127.487 L166.509,124.695 C167.01,124.194 167.822,124.194 168.323,124.695 z" fill="#D8D8D8" id="Rectangle-2"/>
    </g>
    <path d="M73.622,56.432 C73.622,57.839 72.473,58.979 71.056,58.979 C69.638,58.979 68.49,57.839 68.49,56.432 C68.49,55.025 69.638,53.885 71.056,53.885 C72.473,53.885 73.622,55.025 73.622,56.432 z" fill="#D8D8D8" id="Oval-2"/>
    <path d="M45.422,70.99 C45.422,72.397 44.273,73.537 42.856,73.537 C41.438,73.537 40.29,72.397 40.29,70.99 C40.29,69.583 41.438,68.442 42.856,68.442 C44.273,68.442 45.422,69.583 45.422,70.99 z" fill="#D8D8D8" id="Oval-2"/>
    <path d="M122.024,43.878 C122.024,45.084 121.046,46.062 119.84,46.062 C118.633,46.062 117.656,45.084 117.656,43.878 C117.656,42.672 118.633,41.694 119.84,41.694 C121.046,41.694 122.024,42.672 122.024,43.878 z" fill="#D8D8D8" id="Oval-3"/>
    <path d="M168.718,61.163 C168.718,62.37 167.741,63.347 166.534,63.347 C165.328,63.347 164.35,62.37 164.35,61.163 C164.35,59.957 165.328,58.979 166.534,58.979 C167.741,58.979 168.718,59.957 168.718,61.163 z" fill="#D8D8D8" id="Oval-3"/>
    <path d="M155.543,82.003 C155.543,83.209 154.565,84.187 153.359,84.187 C152.153,84.187 151.175,83.209 151.175,82.003 C151.175,80.797 152.153,79.819 153.359,79.819 C154.565,79.819 155.543,80.797 155.543,82.003 z" fill="#D8D8D8" id="Oval-3"/>
    <path d="M55.796,49.337 C55.796,50.543 54.818,51.521 53.612,51.521 C52.406,51.521 51.428,50.543 51.428,49.337 C51.428,48.13 52.406,47.153 53.612,47.153 C54.818,47.153 55.796,48.13 55.796,49.337 z" fill="#D8D8D8" id="Oval-3"/>
    <path d="M148.922,57.792 C148.849,59.197 147.642,60.276 146.227,60.203 C144.811,60.129 143.723,58.931 143.796,57.526 C143.869,56.121 145.076,55.041 146.491,55.115 C147.906,55.188 148.995,56.387 148.922,57.792 z" fill-opacity="0" stroke="#D8D8D8" stroke-width="1" id="Oval"/>
    <path d="M28.672,47.042 C28.599,48.447 27.392,49.526 25.977,49.453 C24.561,49.379 23.473,48.181 23.546,46.776 C23.619,45.371 24.826,44.291 26.241,44.365 C27.656,44.438 28.745,45.637 28.672,47.042 z" fill-opacity="0" stroke="#D8D8D8" stroke-width="1" id="Oval"/>
    <path d="M159.172,29.292 C159.099,30.697 157.892,31.776 156.477,31.703 C155.061,31.629 153.973,30.431 154.046,29.026 C154.119,27.621 155.326,26.541 156.741,26.615 C158.156,26.688 159.245,27.887 159.172,29.292 z" fill-opacity="0" stroke="#D8D8D8" stroke-width="1" id="Oval"/>
    <path d="M180.643,96.964 C180.643,98.371 179.494,99.511 178.077,99.511 C176.659,99.511 175.511,98.371 175.511,96.964 C175.511,95.557 176.659,94.417 178.077,94.417 C179.494,94.417 180.643,95.557 180.643,96.964 z" fill-opacity="0" stroke="#D8D8D8" stroke-width="1" id="Oval"/>
    <path d="M33.317,108.896 L35.8,111.378 L38.312,108.866 L35.83,106.384 L33.317,108.896 z" fill-opacity="0" stroke="#D8D8D8" stroke-width="1" id="Rectangle-3"/>
    <g>
      <g id="Group">
        <path d="M-68.888,-140.643 L-68.888,-140.643 C-68.387,-141.144 -67.575,-141.144 -67.074,-140.643 L-64.281,-137.851 C-63.78,-137.35 -63.78,-136.537 -64.281,-136.036 L-64.281,-136.036 C-64.782,-135.535 -65.595,-135.535 -66.096,-136.036 L-68.888,-138.829 C-69.389,-139.33 -69.389,-140.142 -68.888,-140.643 z" fill="#D8D8D8" id="Rectangle-2"/>
        <path d="M-64.301,-140.663 L-64.301,-140.663 C-63.8,-140.162 -63.8,-139.349 -64.301,-138.848 L-67.093,-136.056 C-67.594,-135.554 -68.407,-135.554 -68.908,-136.056 L-68.908,-136.056 C-69.409,-136.557 -69.409,-137.369 -68.908,-137.87 L-66.115,-140.663 C-65.614,-141.164 -64.802,-141.164 -64.301,-140.663 z" fill="#D8D8D8" id="Rectangle-2"/>
      </g>
      <g id="Group">
        <path d="M-30.081,-197.975 L-30.081,-197.975 C-29.58,-198.476 -28.767,-198.476 -28.266,-197.975 L-25.474,-195.183 C-24.973,-194.682 -24.973,-193.869 -25.474,-193.368 L-25.474,-193.368 C-25.975,-192.867 -26.787,-192.867 -27.288,-193.368 L-30.081,-196.161 C-30.582,-196.662 -30.582,-197.474 -30.081,-197.975 z" fill="#D8D8D8" id="Rectangle-2"/>
        <path d="M-25.493,-197.995 L-25.493,-197.995 C-24.992,-197.494 -24.992,-196.681 -25.493,-196.18 L-28.286,-193.388 C-28.787,-192.886 -29.599,-192.886 -30.1,-193.388 L-30.1,-193.388 C-30.601,-193.889 -30.601,-194.701 -30.1,-195.202 L-27.308,-197.995 C-26.807,-198.496 -25.994,-198.496 -25.493,-197.995 z" fill="#D8D8D8" id="Rectangle-2"/>
      </g>
      <g id="Group">
        <path d="M48.402,-104.863 L48.402,-104.863 C48.903,-105.364 49.715,-105.364 50.217,-104.863 L53.009,-102.07 C53.51,-101.569 53.51,-100.757 53.009,-100.256 L53.009,-100.256 C52.508,-99.755 51.696,-99.755 51.195,-100.256 L48.402,-103.048 C47.901,-103.549 47.901,-104.362 48.402,-104.863 z" fill="#D8D8D8" id="Rectangle-2"/>
        <path d="M52.99,-104.882 L52.99,-104.882 C53.491,-104.381 53.491,-103.569 52.99,-103.068 L50.197,-100.275 C49.696,-99.774 48.884,-99.774 48.383,-100.275 L48.383,-100.275 C47.882,-100.776 47.882,-101.589 48.383,-102.09 L51.175,-104.882 C51.676,-105.383 52.489,-105.383 52.99,-104.882 z" fill="#D8D8D8" id="Rectangle-2"/>
      </g>
      <path d="M-41.712,-173.145 C-41.712,-171.738 -42.86,-170.597 -44.278,-170.597 C-45.695,-170.597 -46.844,-171.738 -46.844,-173.145 C-46.844,-174.552 -45.695,-175.692 -44.278,-175.692 C-42.86,-175.692 -41.712,-174.552 -41.712,-173.145 z" fill="#D8D8D8" id="Oval-2"/>
      <path d="M-69.912,-158.587 C-69.912,-157.18 -71.06,-156.04 -72.478,-156.04 C-73.895,-156.04 -75.044,-157.18 -75.044,-158.587 C-75.044,-159.994 -73.895,-161.135 -72.478,-161.135 C-71.06,-161.135 -69.912,-159.994 -69.912,-158.587 z" fill="#D8D8D8" id="Oval-2"/>
      <path d="M6.69,-185.699 C6.69,-184.492 5.712,-183.515 4.506,-183.515 C3.3,-183.515 2.322,-184.492 2.322,-185.699 C2.322,-186.905 3.3,-187.883 4.506,-187.883 C5.712,-187.883 6.69,-186.905 6.69,-185.699 z" fill="#D8D8D8" id="Oval-3"/>
      <path d="M53.385,-168.413 C53.385,-167.207 52.407,-166.229 51.201,-166.229 C49.995,-166.229 49.017,-167.207 49.017,-168.413 C49.017,-169.62 49.995,-170.597 51.201,-170.597 C52.407,-170.597 53.385,-169.62 53.385,-168.413 z" fill="#D8D8D8" id="Oval-3"/>
      <path d="M40.209,-147.574 C40.209,-146.367 39.232,-145.39 38.025,-145.39 C36.819,-145.39 35.841,-146.367 35.841,-147.574 C35.841,-148.78 36.819,-149.758 38.025,-149.758 C39.232,-149.758 40.209,-148.78 40.209,-147.574 z" fill="#D8D8D8" id="Oval-3"/>
      <path d="M-59.537,-180.24 C-59.537,-179.034 -60.515,-178.056 -61.721,-178.056 C-62.928,-178.056 -63.905,-179.034 -63.905,-180.24 C-63.905,-181.446 -62.928,-182.424 -61.721,-182.424 C-60.515,-182.424 -59.537,-181.446 -59.537,-180.24 z" fill="#D8D8D8" id="Oval-3"/>
      <path d="M33.588,-171.785 C33.515,-170.38 32.309,-169.301 30.893,-169.374 C29.478,-169.448 28.39,-170.646 28.463,-172.051 C28.536,-173.456 29.742,-174.536 31.158,-174.462 C32.573,-174.389 33.661,-173.19 33.588,-171.785 z" fill-opacity="0" stroke="#D8D8D8" stroke-width="1" id="Oval"/>
      <path d="M43.838,-200.285 C43.765,-198.88 42.559,-197.801 41.143,-197.874 C39.728,-197.948 38.64,-199.146 38.713,-200.551 C38.786,-201.956 39.992,-203.036 41.408,-202.962 C42.823,-202.889 43.911,-201.69 43.838,-200.285 z" fill-opacity="0" stroke="#D8D8D8" stroke-width="1" id="Oval"/>
      <path d="M65.309,-132.613 C65.309,-131.206 64.161,-130.065 62.743,-130.065 C61.326,-130.065 60.177,-131.206 60.177,-132.613 C60.177,-134.02 61.326,-135.16 62.743,-135.16 C64.161,-135.16 65.309,-134.02 65.309,-132.613 z" fill-opacity="0" stroke="#D8D8D8" stroke-width="1" id="Oval"/>
      <path d="M-82.016,-120.681 L-79.533,-118.199 L-77.021,-120.711 L-79.504,-123.193 L-82.016,-120.681 z" fill-opacity="0" stroke="#D8D8D8" stroke-width="1" id="Rectangle-3"/>
      <path d="M-8.43,-105.019 C-11.436,-105.333 -14.417,-104.292 -16.579,-102.13 C-18.536,-100.173 -19.61,-97.463 -19.524,-94.695 C-19.437,-91.886 -18.224,-89.311 -16.11,-87.444 C-12.29,-84.074 -6.547,-84.095 -2.75,-87.491 C-0.333,-89.659 0.88,-92.849 0.554,-96.035 L10.218,-86.371 L-11.069,-65.084 C-14.815,-61.338 -20.91,-61.338 -24.656,-65.084 L-45.942,-86.371 L-33.963,-98.351 C-33.623,-98.69 -33.44,-99.156 -33.458,-99.636 C-33.476,-100.116 -33.692,-100.567 -34.056,-100.88 C-35.288,-101.942 -36.942,-102.373 -38.481,-102.033 C-40.811,-101.519 -43.25,-102.306 -44.843,-104.086 C-47.037,-106.537 -47.051,-110.389 -44.877,-112.854 C-43.651,-114.247 -41.958,-115.044 -40.113,-115.102 C-38.266,-115.159 -36.53,-114.472 -35.224,-113.166 C-33.629,-111.571 -32.964,-109.299 -33.446,-107.084 C-33.78,-105.529 -33.352,-103.869 -32.301,-102.642 C-31.988,-102.277 -31.536,-102.059 -31.056,-102.041 C-30.575,-102.022 -30.108,-102.205 -29.768,-102.545 L-17.862,-114.451 L-8.431,-105.019 L-8.43,-105.019 z M-21.743,-134.255 C-23.337,-132.661 -25.61,-131.995 -27.821,-132.474 C-29.339,-132.805 -30.914,-132.425 -32.143,-131.431 C-32.523,-131.123 -32.755,-130.668 -32.781,-130.179 C-32.807,-129.69 -32.624,-129.213 -32.277,-128.867 L-20.305,-116.894 L-29.911,-107.288 C-29.536,-110.349 -30.575,-113.402 -32.781,-115.608 C-34.74,-117.567 -37.451,-118.641 -40.221,-118.554 C-42.81,-118.473 -45.2,-117.436 -47.019,-115.617 C-47.172,-115.463 -47.322,-115.303 -47.468,-115.139 C-50.835,-111.32 -50.814,-105.578 -47.417,-101.782 C-45.211,-99.319 -41.944,-98.107 -38.703,-98.496 L-49.606,-87.592 C-50.281,-86.918 -50.281,-85.824 -49.606,-85.15 L-27.098,-62.642 C-22.005,-57.549 -13.719,-57.549 -8.626,-62.642 L28.436,-99.704 C29.111,-100.379 29.111,-101.472 28.436,-102.147 C27.762,-102.821 26.668,-102.821 25.994,-102.147 L12.66,-88.814 L0.609,-100.865 C0.263,-101.211 -0.213,-101.394 -0.701,-101.369 C-1.189,-101.344 -1.645,-101.112 -1.952,-100.734 C-2.951,-99.505 -3.334,-97.936 -3.002,-96.429 C-2.489,-94.097 -3.278,-91.659 -5.054,-90.065 C-7.046,-88.284 -9.963,-87.94 -12.309,-89.041 C-12.399,-89.083 -12.489,-89.128 -12.577,-89.174 C-12.931,-89.361 -13.27,-89.581 -13.589,-89.836 C-13.668,-89.9 -13.747,-89.965 -13.824,-90.033 C-15.216,-91.263 -16.014,-92.956 -16.071,-94.802 C-16.128,-96.647 -15.441,-98.382 -14.137,-99.687 C-12.543,-101.28 -10.269,-101.945 -8.053,-101.465 C-6.534,-101.137 -4.96,-101.517 -3.734,-102.509 C-3.639,-102.586 -3.553,-102.672 -3.477,-102.766 C-3.25,-103.047 -3.115,-103.395 -3.096,-103.761 C-3.077,-104.128 -3.175,-104.488 -3.371,-104.791 C-3.436,-104.892 -3.513,-104.987 -3.599,-105.073 L-15.42,-116.894 L-13.506,-118.808 C-12.831,-119.482 -12.831,-120.576 -13.506,-121.25 C-14.18,-121.925 -15.274,-121.925 -15.948,-121.25 L-17.862,-119.336 L-27.447,-128.921 C-24.443,-128.608 -21.463,-129.65 -19.3,-131.812 C-17.342,-133.77 -16.269,-136.48 -16.354,-139.247 C-16.442,-142.055 -17.654,-144.63 -19.769,-146.499 C-23.588,-149.867 -29.33,-149.845 -33.125,-146.449 C-35.546,-144.286 -36.759,-141.094 -36.433,-137.908 L-45.942,-147.416 L-24.655,-168.703 C-20.91,-172.449 -14.815,-172.449 -11.069,-168.703 L10.218,-147.417 L-1.746,-135.453 C-2.098,-135.101 -2.281,-134.613 -2.248,-134.116 C-2.215,-133.619 -1.968,-133.161 -1.572,-132.858 C-0.364,-131.937 1.158,-131.59 2.604,-131.907 C4.934,-132.421 7.371,-131.635 8.964,-129.857 C11.157,-127.405 11.172,-123.554 8.997,-121.089 C7.771,-119.696 6.077,-118.898 4.233,-118.84 C2.387,-118.782 0.651,-119.469 -0.653,-120.774 C-2.25,-122.371 -2.916,-124.643 -2.434,-126.857 C-2.121,-128.31 -2.464,-129.836 -3.375,-131.043 C-3.676,-131.442 -4.135,-131.691 -4.634,-131.725 C-5.132,-131.76 -5.621,-131.577 -5.975,-131.224 L-11.063,-126.135 C-11.738,-125.461 -11.738,-124.367 -11.063,-123.692 C-10.389,-123.018 -9.295,-123.018 -8.621,-123.692 L-6.005,-126.308 C-6.263,-123.364 -5.22,-120.455 -3.096,-118.331 C-1.139,-116.374 1.572,-115.301 4.341,-115.387 C7.149,-115.475 9.721,-116.688 11.588,-118.803 C14.956,-122.621 14.935,-128.363 11.538,-132.16 C9.41,-134.536 6.292,-135.747 3.166,-135.479 L12.661,-144.974 L33.947,-123.687 C37.693,-119.941 37.693,-113.846 33.947,-110.101 L30.879,-107.032 C30.204,-106.358 30.204,-105.264 30.879,-104.589 C31.553,-103.915 32.647,-103.915 33.321,-104.589 L36.39,-107.658 C41.483,-112.751 41.483,-121.037 36.39,-126.13 L-8.626,-171.146 C-13.719,-176.239 -22.005,-176.239 -27.098,-171.146 L-49.606,-148.638 C-50.281,-147.963 -50.281,-146.87 -49.606,-146.195 L-36.489,-133.077 C-36.143,-132.732 -35.667,-132.549 -35.178,-132.574 C-34.69,-132.599 -34.235,-132.83 -33.927,-133.209 C-32.928,-134.438 -32.546,-136.007 -32.877,-137.514 C-33.39,-139.846 -32.603,-142.283 -30.823,-143.875 C-28.372,-146.068 -24.52,-146.083 -22.056,-143.909 C-20.663,-142.679 -19.865,-140.985 -19.808,-139.14 C-19.751,-137.295 -20.438,-135.56 -21.743,-134.255" fill="#444444"/>
      <path d="M-8.417,-105.027 C-11.423,-105.34 -14.403,-104.299 -16.566,-102.137 C-18.523,-100.18 -19.596,-97.47 -19.51,-94.703 C-19.423,-91.894 -18.211,-89.319 -16.096,-87.451 C-12.276,-84.082 -6.533,-84.102 -2.736,-87.499 C-0.319,-89.666 0.894,-92.857 0.568,-96.042 L10.232,-86.379 L-11.055,-65.092 C-14.801,-61.346 -20.896,-61.346 -24.642,-65.092 L-45.929,-86.379 L-33.949,-98.358 C-33.609,-98.698 -33.427,-99.163 -33.444,-99.643 C-33.462,-100.123 -33.679,-100.574 -34.043,-100.888 C-35.274,-101.949 -36.928,-102.38 -38.468,-102.041 C-40.798,-101.527 -43.236,-102.313 -44.83,-104.093 C-47.023,-106.545 -47.038,-110.396 -44.863,-112.861 C-43.637,-114.254 -41.944,-115.051 -40.099,-115.109 C-38.253,-115.167 -36.516,-114.479 -35.21,-113.173 C-33.615,-111.578 -32.95,-109.306 -33.432,-107.092 C-33.766,-105.536 -33.338,-103.876 -32.287,-102.65 C-31.974,-102.285 -31.523,-102.066 -31.042,-102.048 C-30.561,-102.03 -30.095,-102.213 -29.755,-102.553 L-17.849,-114.459 L-8.417,-105.027 L-8.417,-105.027 z" fill="url(#Gradient_2)"/>
    </g>
    <g>
      <path d="M143.604,123.021 L139.814,115.442 C140.617,113.81 141.306,112.162 141.872,110.521 L149.896,107.846 L149.896,85.887 L141.872,83.212 C141.308,81.571 140.617,79.923 139.814,78.291 L143.608,70.704 L128.082,55.178 L120.494,58.972 C118.863,58.168 117.215,57.477 115.574,56.913 L112.899,48.889 L90.94,48.889 L88.264,56.913 C86.623,57.477 84.975,58.168 83.344,58.972 L75.757,55.178 L60.231,70.704 L64.025,78.291 C63.221,79.923 62.53,81.571 61.966,83.212 L53.942,85.887 L53.942,107.844 L61.966,110.518 C62.526,112.148 63.208,113.781 64.004,115.4 L61.536,119.896 L50.104,119.896 L50.104,158.277 L63.537,158.277 L63.537,152.52 L78.096,152.52 L83.853,158.277 L94.243,158.277 L94.243,160.196 C94.243,164.43 97.686,167.873 101.919,167.873 C106.153,167.873 109.595,164.43 109.595,160.196 L109.595,158.277 L123.031,158.277 C126.205,158.277 128.788,155.694 128.788,152.52 C128.788,151.04 128.211,149.703 127.292,148.682 C128.213,147.66 128.788,146.323 128.788,144.844 C128.788,143.364 128.211,142.027 127.292,141.005 C128.024,140.192 128.525,139.176 128.7,138.044 z M67.877,114.549 C66.821,112.521 65.96,110.459 65.316,108.425 L65.021,107.493 L57.78,105.078 L57.78,88.653 L65.021,86.24 L65.314,85.306 C65.955,83.274 66.817,81.212 67.874,79.184 L68.326,78.315 L64.9,71.462 L76.513,59.849 L83.365,63.275 L84.235,62.824 C86.265,61.766 88.324,60.905 90.357,60.263 L91.291,59.97 L93.708,52.727 L110.132,52.727 L112.545,59.968 L113.479,60.261 C115.512,60.902 117.574,61.764 119.601,62.821 L120.471,63.273 L127.323,59.847 L138.936,71.46 L135.511,78.313 L135.961,79.182 C137.019,81.212 137.88,83.272 138.522,85.304 L138.816,86.238 L146.058,88.655 L146.058,105.08 L138.817,107.493 L138.522,108.425 C137.878,110.459 137.017,112.521 135.961,114.549 L135.511,115.418 L138.94,122.276 L127.6,133.703 C127.502,133.575 127.399,133.448 127.292,133.329 C128.213,132.308 128.788,130.971 128.788,129.491 C128.788,126.497 126.483,124.06 123.56,123.787 C131.701,117.262 136.463,107.471 136.463,96.866 C136.463,77.82 120.966,62.323 101.919,62.323 C82.873,62.323 67.376,77.82 67.376,96.866 C67.376,107.343 72.138,117.198 80.224,123.734 L63.808,123.734 L68.35,115.459 z M124.95,144.844 C124.95,145.903 124.088,146.763 123.031,146.763 L107.676,146.763 C106.619,146.763 105.757,145.903 105.757,144.844 C105.757,143.785 106.619,142.925 107.676,142.925 L123.031,142.925 C124.088,142.925 124.95,143.785 124.95,144.844 z M97.286,96.866 L106.552,96.866 L109.595,93.823 L109.595,85.352 C111.712,85.352 113.434,87.073 113.434,89.19 L113.434,97.991 L106.882,104.543 L96.956,104.543 L90.405,97.991 L90.405,89.19 C90.405,87.073 92.126,85.352 94.243,85.352 L94.243,93.823 z M98.081,108.381 L105.757,108.381 L105.757,116.057 L98.081,116.057 z M109.595,107.256 L117.272,99.58 L117.272,89.19 C117.272,84.957 113.829,81.514 109.595,81.514 L105.757,81.514 L105.757,92.234 L104.963,93.028 L98.875,93.028 L98.081,92.234 L98.081,81.514 L94.243,81.514 C90.009,81.514 86.566,84.957 86.566,89.19 L86.566,99.58 L94.243,107.256 L94.243,116.057 L89.61,116.057 L89.489,116.178 C82.937,111.95 78.89,104.702 78.89,96.866 C78.89,84.167 89.22,73.837 101.919,73.837 C114.618,73.837 124.948,84.167 124.948,96.866 C124.948,104.645 121.062,111.768 114.558,116.057 L109.595,116.057 z M128.786,96.866 C128.786,82.051 116.735,69.999 101.919,69.999 C87.103,69.999 75.052,82.051 75.052,96.866 C75.052,105.731 79.462,113.985 86.695,118.972 L83.931,121.736 C75.962,115.964 71.214,106.725 71.214,96.866 C71.214,79.937 84.989,66.161 101.919,66.161 C118.849,66.161 132.624,79.937 132.624,96.866 C132.624,106.35 128.337,115.102 121.018,120.903 C120.799,119.542 120.105,118.352 119.106,117.487 C125.223,112.409 128.786,104.933 128.786,96.866 z M123.031,127.572 C124.088,127.572 124.95,128.432 124.95,129.491 C124.95,130.55 124.088,131.41 123.031,131.41 L107.676,131.41 C106.619,131.41 105.757,130.55 105.757,129.491 C105.757,128.432 106.619,127.572 107.676,127.572 z M107.676,139.086 C106.619,139.086 105.757,138.226 105.757,137.167 C105.757,136.108 106.619,135.248 107.676,135.248 L123.031,135.248 C124.088,135.248 124.95,136.108 124.95,137.167 C124.95,138.226 124.088,139.086 123.031,139.086 z M53.942,123.734 L59.699,123.734 L59.699,154.439 L53.942,154.439 z M85.442,154.439 L79.685,148.682 L63.537,148.682 L63.537,127.572 L83.523,127.572 L91.199,119.896 L115.353,119.896 C116.41,119.896 117.272,120.756 117.272,121.815 C117.272,122.873 116.41,123.734 115.353,123.734 L95.367,123.734 L87.129,131.972 L89.842,134.686 L94.243,130.285 L94.243,154.439 z M101.919,164.035 C99.802,164.035 98.081,162.313 98.081,160.196 L98.081,127.572 L102.272,127.572 C102.057,128.174 101.919,128.815 101.919,129.491 C101.919,130.971 102.496,132.308 103.415,133.329 C102.494,134.351 101.919,135.688 101.919,137.167 C101.919,138.647 102.496,139.984 103.415,141.005 C102.494,142.027 101.919,143.364 101.919,144.844 C101.919,146.323 102.496,147.66 103.415,148.682 C102.494,149.703 101.919,151.04 101.919,152.52 C101.919,155.018 103.529,157.129 105.757,157.924 L105.757,160.196 C105.757,162.313 104.036,164.035 101.919,164.035 z M123.031,154.439 L107.676,154.439 C106.619,154.439 105.757,153.579 105.757,152.52 C105.757,151.461 106.619,150.601 107.676,150.601 L123.031,150.601 C124.088,150.601 124.95,151.461 124.95,152.52 C124.95,153.579 124.088,154.439 123.031,154.439 z M123.031,154.439" fill="#444444"/>
      <path d="M110.114,52.709 L93.69,52.709 L91.273,59.952 L90.339,60.245 C88.306,60.887 86.247,61.749 84.217,62.806 L83.347,63.257 L76.495,59.831 L64.882,71.444 L68.307,78.297 L67.856,79.166 C66.799,81.194 65.937,83.256 65.296,85.288 L65.003,86.222 L57.762,88.635 L57.762,105.06 L65.003,107.475 L65.298,108.407 C65.942,110.442 66.803,112.503 67.859,114.531 L68.332,115.441 L63.79,123.716 L80.205,123.716 C72.12,117.18 67.357,107.325 67.357,96.849 C67.357,77.802 82.855,62.305 101.901,62.305 C120.947,62.305 136.445,77.802 136.445,96.849 C136.445,107.453 131.683,117.244 123.542,123.769 C126.465,124.042 128.77,126.479 128.77,129.473 C128.77,130.953 128.195,132.29 127.274,133.311 C127.38,133.43 127.484,133.557 127.582,133.685 L138.922,122.258 L135.492,115.4 L135.943,114.531 C136.999,112.503 137.86,110.442 138.504,108.407 L138.799,107.475 L146.04,105.062 L146.04,88.637 L138.797,86.22 L138.504,85.286 C137.862,83.254 137.001,81.194 135.943,79.164 L135.492,78.295 L138.918,71.442 L127.305,59.829 L120.453,63.255 L119.583,62.803 C117.555,61.747 115.494,60.885 113.461,60.243 L112.527,59.95 L110.114,52.709 z" fill="url(#Gradient_3)"/>
    </g>
  </g>
</svg>
